<svg xmlns="http://www.w3.org/2000/svg" width="51.602" height="57.657" viewBox="0 0 51.602 57.657"><defs><style>.a{fill:#b1f1fe;}.b{fill:#2e53bf;stroke:#2e53bf;stroke-width:0.4px;}</style></defs><g transform="translate(0.2 0.2)"><rect class="a" width="31.702" height="20.056" transform="translate(12.06 18.276)"/><g transform="translate(0 0)"><path class="b" d="M58.274,46.821h.57a.681.681,0,1,0,0-1.362H36.355V1.359H63.241V11.424a.681.681,0,0,0,.681.681h9.585V38.679a.681.681,0,1,0,1.362,0V11.426c0-.015-.007-.028-.008-.042a.665.665,0,0,0-.032-.168c-.008-.021-.012-.042-.021-.064a.661.661,0,0,0-.127-.2L64.413.207A.671.671,0,0,0,63.9,0H35.673a.681.681,0,0,0-.681.681V45.459H27.751a.681.681,0,0,0-.681.681c0,4.786,3.41,8.68,7.6,8.68h24.17a.681.681,0,1,0,0-1.362H34.667c-3.243,0-5.919-2.92-6.212-6.637ZM64.6,2.416l7.988,8.329H64.6Z" transform="translate(-27.07 0.004)"/><path class="b" d="M157.792,91.947V72.063a.681.681,0,0,0-.681-.681H125.523a.681.681,0,0,0-.681.681V91.947a.68.68,0,0,0,.681.681h31.587A.681.681,0,0,0,157.792,91.947ZM156.43,75.364H135.5v-2.62H156.43Zm-25.4,0v-2.62h3.1v2.619Zm3.1,1.362V91.264h-3.1V76.726ZM126.2,72.744h3.467v2.619H126.2Zm0,3.981h3.467V91.263H126.2ZM135.5,91.263V76.725H156.43V91.263Zm13.69,4.071a.68.68,0,0,0-.681-.681h-2.337a.681.681,0,1,0,0,1.362H148.5A.681.681,0,0,0,149.185,95.333Zm-5.747,0a.609.609,0,1,0,.178-.432A.609.609,0,0,0,143.438,95.333ZM125.011,62.112h7.4a.681.681,0,1,0,0-1.362h-7.4a.681.681,0,0,0,0,1.362Zm0,2.439h9.911a.681.681,0,1,0,0-1.362h-9.911a.681.681,0,0,0,0,1.362Zm12.567-.681a.611.611,0,1,0-.611.611A.611.611,0,0,0,137.579,63.87Z" transform="translate(-113.453 -53.956)"/><path class="b" d="M336.067,354.32a8.817,8.817,0,1,0,8.817,8.817,8.817,8.817,0,0,0-8.817-8.817Zm0,16.271a7.455,7.455,0,1,1,7.455-7.455A7.455,7.455,0,0,1,336.067,370.591Z" transform="translate(-293.681 -314.696)"/><path class="b" d="M374.217,396.792h-3.131v-3.131a.681.681,0,1,0-1.362,0v3.131h-3.132a.681.681,0,1,0,0,1.362h3.131v3.131a.681.681,0,0,0,1.362,0v-3.131h3.131a.681.681,0,1,0,0-1.362Z" transform="translate(-328.018 -349.033)"/></g></g></svg>