<svg xmlns="http://www.w3.org/2000/svg" xmlns:xlink="http://www.w3.org/1999/xlink" width="469.034" height="292.425" viewBox="0 0 469.034 292.425"><defs><style>.a,.g,.i,.l,.r,.s,.t,.u,.w,.x,.y{fill:none;stroke-miterlimit:10;}.a{stroke:#d5cbc6;stroke-width:2.624px;}.b{fill:#f79395;}.c{fill:#d5c23e;}.d{fill:#30867a;}.e{fill:#fff;}.f{fill:#af61b7;}.g,.i,.y{stroke:#fff;}.g,.l,.r,.s,.u,.w,.x{stroke-linecap:round;stroke-linejoin:round;}.g{stroke-width:2.195px;}.h{fill:#62cbcf;}.i{stroke-width:1.574px;}.j{clip-path:url(#a);}.k{fill:#826467;}.l,.r,.s,.u,.w,.x{stroke:#28262c;}.l{stroke-width:1.644px;}.m{fill:#ec767f;}.n{fill:#3b3261;}.o{fill:#2d2446;}.p{fill:#dfdcda;}.q{fill:#28262c;}.r{stroke-width:1.324px;}.s{stroke-width:1.642px;}.t{stroke:#af61b7;stroke-width:1.79px;}.u{stroke-width:1.64px;}.v{fill:#315384;}.w{stroke-width:2.042px;}.x{stroke-width:1.862px;}.y{stroke-width:2.602px;}</style><clipPath id="a"><path d="M563.591-289.082H229.009V-531.444H563.591Z" transform="translate(-229.009 531.444)"/></clipPath></defs><g transform="translate(-6550.211 -14661.072)"><path class="a" d="M167.677-455.095H531.469" transform="translate(6434.743 15206.045)"/><path class="a" d="M526.718-273.66H172.428a4.751,4.751,0,0,1-4.751-4.75V-493.991a4.751,4.751,0,0,1,4.751-4.751h354.29a4.751,4.751,0,0,1,4.751,4.751V-278.41A4.751,4.751,0,0,1,526.718-273.66Z" transform="translate(6434.743 15225.845)"/><path class="b" d="M206.032-479.235a3.328,3.328,0,0,1-3.328,3.327,3.327,3.327,0,0,1-3.328-3.327,3.328,3.328,0,0,1,3.328-3.328,3.328,3.328,0,0,1,3.328,3.328" transform="translate(6420.363 15218.505)"/><path class="c" d="M229.7-479.235a3.327,3.327,0,0,1-3.328,3.327,3.327,3.327,0,0,1-3.327-3.327,3.327,3.327,0,0,1,3.327-3.328,3.328,3.328,0,0,1,3.328,3.328" transform="translate(6409.626 15218.505)"/><path class="d" d="M253.372-479.235a3.328,3.328,0,0,1-3.328,3.327,3.327,3.327,0,0,1-3.328-3.327,3.328,3.328,0,0,1,3.328-3.328,3.328,3.328,0,0,1,3.328,3.328" transform="translate(6398.889 15218.505)"/><path class="e" d="M845.39-380.98h-85.5a4.364,4.364,0,0,1-4.365-4.364v-79.072a4.364,4.364,0,0,1,4.365-4.365h85.5a4.365,4.365,0,0,1,4.365,4.365v79.072a4.365,4.365,0,0,1-4.365,4.364" transform="translate(6168.082 15212.253)"/><path class="a" d="M845.39-380.98h-85.5a4.364,4.364,0,0,1-4.365-4.364v-79.072a4.364,4.364,0,0,1,4.365-4.365h85.5a4.365,4.365,0,0,1,4.365,4.365v79.072a4.365,4.365,0,0,1-4.365,4.364Z" transform="translate(6168.082 15212.253)"/><path class="f" d="M797.7-387.407h44.437a4.388,4.388,0,0,0,4.388-4.387v-36.419a4.387,4.387,0,0,0-4.388-4.386H797.7a4.387,4.387,0,0,0-4.386,4.386v36.419a4.387,4.387,0,0,0,4.386,4.387" transform="translate(6150.939 15195.841)"/><path class="g" d="M843.841-391.163H819.285v-16.468h24.556v16.468Z" transform="translate(6139.16 15184.515)"/><path class="g" d="M819.285-407.631l12.278,9.676,12.278-9.676" transform="translate(6139.16 15184.515)"/><path class="e" d="M160.223-252.832H78.685A4.162,4.162,0,0,1,74.523-257v-71.09a4.162,4.162,0,0,1,4.162-4.162h81.538a4.163,4.163,0,0,1,4.163,4.162V-257a4.163,4.163,0,0,1-4.163,4.163" transform="translate(6477 15150.319)"/><path class="a" d="M160.223-252.832H78.685A4.162,4.162,0,0,1,74.523-257v-71.09a4.162,4.162,0,0,1,4.162-4.162h81.538a4.163,4.163,0,0,1,4.163,4.162V-257a4.163,4.163,0,0,1-4.163,4.163Z" transform="translate(6477 15150.319)"/><path class="b" d="M155.944-256.84H113.655a4.837,4.837,0,0,1-4.837-4.837v-40.841a4.836,4.836,0,0,1,4.837-4.836h42.289a4.837,4.837,0,0,1,4.837,4.836v40.841a4.837,4.837,0,0,1-4.837,4.837" transform="translate(6461.443 15139.026)"/><path class="e" d="M158-273.3h-6.315a25.543,25.543,0,0,0-.751-5.7h5.363a13.188,13.188,0,0,1,1.7,5.7Zm-1.7,7.414h-5.532a27.62,27.62,0,0,0,.895-5.7H158A13.179,13.179,0,0,1,156.295-265.887Zm-7.85,6.184a35.492,35.492,0,0,0,1.811-4.466h4.872A13.271,13.271,0,0,1,148.444-259.7Zm-3.672.516a13.371,13.371,0,0,1-1.736-.113,39.662,39.662,0,0,1-2.055-4.869h7.582a39.878,39.878,0,0,1-2.054,4.869,13.4,13.4,0,0,1-1.737.113Zm-10.355-4.982h4.872a35.631,35.631,0,0,0,1.81,4.466A13.269,13.269,0,0,1,134.418-264.169Zm-1.167-1.718a13.172,13.172,0,0,1-1.7-5.7h6.342a27.581,27.581,0,0,0,.895,5.7Zm0-13.109h5.363a25.545,25.545,0,0,0-.751,5.7h-6.316A13.171,13.171,0,0,1,133.251-279Zm7.67-6.13a29.787,29.787,0,0,0-1.821,4.412h-4.682A13.271,13.271,0,0,1,140.92-285.127Zm3.852-.57a13.439,13.439,0,0,1,2.076.162,27,27,0,0,1,2.13,4.82h-8.411a27,27,0,0,1,2.13-4.82A13.446,13.446,0,0,1,144.773-285.7Zm5.337,14.113a27.952,27.952,0,0,1-1.01,5.7h-8.655a27.982,27.982,0,0,1-1.009-5.7ZM139.378-273.3a23.719,23.719,0,0,1,.7-5.7h9.4a23.72,23.72,0,0,1,.7,5.7Zm15.749-7.414h-4.682a29.791,29.791,0,0,0-1.821-4.412A13.271,13.271,0,0,1,155.128-280.715Zm-20.743-2.116a14.75,14.75,0,0,0,0,20.778,14.749,14.749,0,0,0,20.777,0,14.75,14.75,0,0,0,0-20.778,14.749,14.749,0,0,0-20.777,0" transform="translate(6451.787 15129.844)"/><path class="f" d="M158.857-541.344H84.988a2.763,2.763,0,0,1-2.763-2.763h0a2.764,2.764,0,0,1,2.763-2.763h73.869a2.763,2.763,0,0,1,2.763,2.763h0a2.763,2.763,0,0,1-2.763,2.763" transform="translate(6473.506 15247.676)"/><path class="h" d="M893.445-211.1H857.592a2.764,2.764,0,0,1-2.763-2.763h0a2.764,2.764,0,0,1,2.763-2.763h35.853a2.763,2.763,0,0,1,2.763,2.763h0a2.763,2.763,0,0,1-2.763,2.763" transform="translate(6123.037 15097.87)"/><path class="f" d="M874.18-154.884H869.8a2.085,2.085,0,0,1-2.085-2.084v-4.113a2.084,2.084,0,0,1,2.085-2.083h4.381a2.084,2.084,0,0,1,2.085,2.083v4.113a2.084,2.084,0,0,1-2.085,2.084" transform="translate(6117.191 15073.619)"/><path class="b" d="M114.119-119.847h-4.381a2.084,2.084,0,0,1-2.084-2.084v-4.113a2.085,2.085,0,0,1,2.084-2.085h4.381a2.085,2.085,0,0,1,2.085,2.085v4.113a2.085,2.085,0,0,1-2.085,2.084" transform="translate(6461.972 15057.727)"/><path class="b" d="M670.83-560.4H597.919a2.194,2.194,0,0,1-2.195-2.194v-17.8a2.194,2.194,0,0,1,2.195-2.193H670.83a2.194,2.194,0,0,1,2.194,2.193v17.8a2.194,2.194,0,0,1-2.194,2.194" transform="translate(6240.572 15263.881)"/><path class="i" d="M614.995-568.121h51.853" transform="translate(6231.831 15257.316)"/><path class="i" d="M614.995-558.381h21.121" transform="translate(6231.831 15252.897)"/><path class="b" d="M611.135-546.575v8.648l10.877-8.648Z" transform="translate(6233.582 15247.541)"/><path class="h" d="M370.873-575.867H335.578a6.207,6.207,0,0,1-6.207-6.207v-32.813a4.706,4.706,0,0,1,4.705-4.706h36.8a4.706,4.706,0,0,1,4.705,4.706v34.314a4.706,4.706,0,0,1-4.705,4.706" transform="translate(6361.396 15280.665)"/><path class="e" d="M373.135-584.012l-.564.564c-.329.282-.61.611-.94.94a2.235,2.235,0,0,1-1.692.705h-.235a9.9,9.9,0,0,1-3.665-1.128,21.383,21.383,0,0,1-7-5.5,20.411,20.411,0,0,1-3.431-5.685,5.821,5.821,0,0,1-.563-2.913,1.98,1.98,0,0,1,.658-1.362l1.6-1.6a.984.984,0,0,1,.657-.329.9.9,0,0,1,.658.329l.846.846a4.461,4.461,0,0,0,.47.47l1.316,1.316a1.1,1.1,0,0,1,.329.658.984.984,0,0,1-.329.657l-.423.423-1.174,1.174-.047.047a1.029,1.029,0,0,0-.282,1.174v.047a10.859,10.859,0,0,0,1.55,2.537,17.444,17.444,0,0,0,4.276,3.9,3.9,3.9,0,0,0,.61.329,4.345,4.345,0,0,1,.47.235l.047.047a1.081,1.081,0,0,0,1.316-.235l1.644-1.645a.986.986,0,0,1,.658-.328.981.981,0,0,1,.61.328l2.631,2.631A.889.889,0,0,1,373.135-584.012Zm1.08-2.443-2.631-2.631a2.307,2.307,0,0,0-1.692-.8,2.434,2.434,0,0,0-1.692.753l-1.5,1.5-.282-.141a4.414,4.414,0,0,1-.47-.235,16.22,16.22,0,0,1-3.9-3.571,8.533,8.533,0,0,1-1.222-1.925c.377-.329.705-.705,1.034-1.034l.423-.423a2.487,2.487,0,0,0,.8-1.738,2.489,2.489,0,0,0-.8-1.739l-1.316-1.315a4.263,4.263,0,0,1-.423-.47l-.892-.893a2.436,2.436,0,0,0-1.692-.751,2.327,2.327,0,0,0-1.691.751l-1.645,1.645a3.78,3.78,0,0,0-1.08,2.3,8.568,8.568,0,0,0,.61,3.571,19.223,19.223,0,0,0,3.665,6.154,22.826,22.826,0,0,0,7.517,5.873,12.474,12.474,0,0,0,4.229,1.268h.329a3.728,3.728,0,0,0,2.819-1.222l.047-.047a7.175,7.175,0,0,1,.846-.846l.61-.61a2.356,2.356,0,0,0,0-3.43" transform="translate(6350.437 15272.624)"/><g transform="translate(6635.931 14709.235)"><g class="j" transform="translate(0 0)"><path class="k" d="M639.682-239.5l-26.592-3.541.208,2.641-22.736,3.027s-14.654,36.768-1.739,117.628h18.494l6.656-81.992h2.365l6.446,81.992h18.495c12.916-80.86-1.6-119.755-1.6-119.755" transform="translate(-389.814 400.616)"/><path class="l" d="M623.8-167.442h19.3" transform="translate(-408.093 366.325)"/><path class="b" d="M700.824-310.522c-2.275-3.632-15.054-3.5-15.729-3.582-3.455-.405,2.215,27.086,9.4,51.117a8.069,8.069,0,0,0,10.874,5.129l.143-.06a8.079,8.079,0,0,0,4.791-8.94c-3.418-18.132-6.851-39.465-9.481-43.664" transform="translate(-435.428 432.856)"/><path class="m" d="M705.5-294.021l-16.316,6.331-1.53-7.741,16.9-4.214.951,5.624" transform="translate(-437.062 426.295)"/><path class="m" d="M719.839-266.711s-7.729,10.38-7.361,9.9,6.061-16.775,6.061-16.775l1.3,6.872" transform="translate(-448.315 414.473)"/><path class="b" d="M726.383-286.542l-22.155,28.705a8.146,8.146,0,0,0,2.014,11.81h0a8.146,8.146,0,0,0,11.6-2.951L736.281-283l-9.9-3.54" transform="translate(-443.808 420.351)"/><path class="b" d="M751.425-287.861a9.139,9.139,0,0,1-5.887-11.506,9.14,9.14,0,0,1,11.506-5.887,9.139,9.139,0,0,1,5.887,11.506,9.138,9.138,0,0,1-11.506,5.887" transform="translate(-463.116 429.041)"/><path class="b" d="M761.268-303.417s2.5-2.6-1.936-4.416-9.922-1.4-13.424,7.1l15.36-2.685" transform="translate(-463.485 430.407)"/><path class="n" d="M770.987-332.293l9.277,4.022a.956.956,0,0,1,.419,1.367l-12.2,22.8a1.167,1.167,0,0,1-1.449.556l-9.277-4.021a.957.957,0,0,1-.421-1.367l12.2-22.8a1.168,1.168,0,0,1,1.45-.557" transform="translate(-468.608 441.142)"/><path class="o" d="M769.366-333.031l9.276,4.022a.956.956,0,0,1,.42,1.367l-12.2,22.795a1.166,1.166,0,0,1-1.449.557l-9.276-4.022a.955.955,0,0,1-.42-1.367l12.2-22.795a1.168,1.168,0,0,1,1.45-.557" transform="translate(-467.873 441.477)"/><path class="p" d="M770.638-328.718l8.151,3.533-9.946,18.578-8.15-3.533,9.945-18.578" transform="translate(-470.192 439.483)"/><path class="e" d="M778.79-325.185l-18.1,15.045,9.945-18.578Z" transform="translate(-470.192 439.483)"/><path class="b" d="M759.422-308.491a14.788,14.788,0,0,1,3.93,1.459,2.1,2.1,0,0,1,1.015,2.329h0a2.084,2.084,0,0,1-1.762,1.564l-4.823.608s-2.517,4.337-5.8,4.824l3.015-7.615,4.429-3.17" transform="translate(-466.239 430.308)"/><path class="h" d="M618.019-373.7c-.533,0,34.2,4.806,39.932,44.406l-18.023,2.761-3.633,29.895H586.015l-9.982-55.234A62.73,62.73,0,0,1,607.855-373.7h10.164" transform="translate(-386.427 459.89)"/><path class="l" d="M692.974-301.733l1.564-17.29" transform="translate(-439.474 435.085)"/><path class="b" d="M641.941-384.088v-13.755H625.822v13.917a31.346,31.346,0,0,0-4.33,1.756l12.571,7.489,12.853-7.489a20.95,20.95,0,0,0-4.975-1.917" transform="translate(-407.048 470.84)"/><path class="q" d="M629.144-398.288s2.894,7.687,10.622,7.023c7.1-.61,5.972-11.263,5.972-11.263l-16.595,4.239" transform="translate(-410.519 472.965)"/><path class="m" d="M611.019-421.493c-2.526,2.292-8.176-6.4-5.735-8.841s4.3,1.389,4.3,1.389l1.09,2.595.822,3.514.2.921-.676.423" transform="translate(-399.424 485.947)"/><path class="r" d="M607.94-424.128s1.912-.86,3.611,1.912" transform="translate(-400.9 482.82)"/><path class="m" d="M670.431-421.665c2.324,2.5,8.688-5.686,6.462-8.324s-4.405,1.019-4.405,1.019l-1.305,2.493-1.117,3.432-.272.9.638.479" transform="translate(-428.958 485.856)"/><path class="r" d="M677.038-423.925s-1.832-1.019-3.761,1.6" transform="translate(-430.538 482.76)"/><path class="q" d="M608.167-460.886c0,11.506,8.773,16.962,19.595,16.962s19.593-5.456,19.593-16.962-8.772-19.335-19.593-19.335-19.595,7.828-19.595,19.335" transform="translate(-401.003 508.208)"/><path class="b" d="M613.031-457.89a78.713,78.713,0,0,0,1.994,17.486c.975,4.236,3.72,7.2,7.6,9.578l.706.434a13.335,13.335,0,0,0,13.573.15h0c4.2-2.45,7.145-5.68,8.051-10.225a114.994,114.994,0,0,0,1.827-17.422s1.567-17.831-16.634-17.485-17.116,17.485-17.116,17.485" transform="translate(-403.204 506.012)"/><path class="s" d="M641.905-424.744v2.467a1.109,1.109,0,0,0,.079.415,1.1,1.1,0,0,0,1.311.606l1.131-.3" transform="translate(-416.307 483.043)"/><path class="q" d="M629.1-443.282l-9.046,2.12s.411-2.3,4.112-3.139,4.934,1.019,4.934,1.019" transform="translate(-406.394 492.012)"/><path class="q" d="M651.3-443.282l8.734,2.12s-.4-2.3-3.97-3.139-4.764,1.019-4.764,1.019" transform="translate(-420.57 492.012)"/><path class="q" d="M630.577-431.358a1.523,1.523,0,0,1-1.525,1.521,1.523,1.523,0,0,1-1.525-1.521,1.523,1.523,0,0,1,1.525-1.522,1.523,1.523,0,0,1,1.525,1.522" transform="translate(-409.785 486.733)"/><path class="q" d="M657.046-431.358a1.524,1.524,0,0,1-1.526,1.521,1.524,1.524,0,0,1-1.526-1.521,1.524,1.524,0,0,1,1.526-1.522,1.524,1.524,0,0,1,1.526,1.522" transform="translate(-421.791 486.733)"/><path class="e" d="M633.109-413.1h11.765s-5.214,6.343-11.765,0" transform="translate(-412.317 477.763)"/><path class="t" d="M630.244-434.4a6.487,6.487,0,0,1-6.487,6.487,6.487,6.487,0,0,1-6.487-6.487,6.487,6.487,0,0,1,6.487-6.487A6.487,6.487,0,0,1,630.244-434.4Z" transform="translate(-405.133 490.365)"/><path class="t" d="M659.412-434.4a6.487,6.487,0,0,1-6.487,6.487,6.488,6.488,0,0,1-6.488-6.487,6.488,6.488,0,0,1,6.488-6.487A6.487,6.487,0,0,1,659.412-434.4Z" transform="translate(-418.363 490.365)"/><path class="t" d="M641.016-429.543a2.111,2.111,0,0,1,2.962,0" transform="translate(-415.904 485.509)"/><path class="t" d="M615.574-429.057l-2.044-.052" transform="translate(-403.436 485.022)"/><path class="t" d="M670.184-429.057l2.056-.052" transform="translate(-429.135 485.022)"/><path class="q" d="M669.526-448.992s-7.277-9.838-5.6-19.8a14.338,14.338,0,0,1,6.808,9.734c1.407,7.016-1.21,10.071-1.21,10.071" transform="translate(-426.183 503.026)"/><path class="q" d="M612.177-448.881s8.454-11.174,6.775-21.14a16.644,16.644,0,0,0-7.27,10.4c-1.406,7.016.5,10.737.5,10.737" transform="translate(-402.362 503.581)"/><path class="q" d="M644.283-468.458s-9.344,10.23-34.91,8.478c0,0,3.915-15.011,16.3-16.61,0,0,14.306-1.708,18.605,8.132" transform="translate(-401.55 506.612)"/><path class="q" d="M674.137-493.634a12.207,12.207,0,0,1-12.207,12.207,12.207,12.207,0,0,1-12.207-12.207,12.207,12.207,0,0,1,12.207-12.206,12.207,12.207,0,0,1,12.207,12.206" transform="translate(-419.854 519.829)"/><path class="q" d="M352.789-241.313l-22.735-3.028.208-2.64L303.67-243.44s-14.513,38.894-1.6,119.755h18.495l6.447-81.992h2.364l6.656,81.992h18.494c12.916-80.861-1.739-117.628-1.739-117.628" transform="translate(-259.724 402.405)"/><path class="q" d="M347.288-458.384a41.92,41.92,0,0,1-7.635-13.769c-2.248-6.362-9.608-3.776-9.608-3.776s-6.133-7.89-15.363-5.142-12.436,9.315-12.624,17.124-6.33,9.03-11.059,18.062c-8.349,15.947,5.708,29.379,31.3,25.653l.034-.248a26.852,26.852,0,0,0,9.378.876c30.74-1.826,27.773-24.435,15.581-38.779" transform="translate(-256.036 508.858)"/><path class="m" d="M377.041-425.437c2.526,2.291,8.175-6.4,5.734-8.841s-4.3,1.389-4.3,1.389l-1.09,2.594-.822,3.514-.2.92.677.424" transform="translate(-295.853 487.736)"/><path class="r" d="M382.94-428.073s-1.912-.86-3.612,1.912" transform="translate(-297.197 484.61)"/><path class="m" d="M317.167-425.609c-2.324,2.5-8.688-5.686-6.462-8.324s4.405,1.018,4.405,1.018l1.305,2.494,1.117,3.432.272.9-.638.479" transform="translate(-265.857 487.645)"/><path class="r" d="M313.719-427.869s1.833-1.019,3.761,1.6" transform="translate(-267.435 484.549)"/><path class="q" d="M353.177-464.83c0,11.506-8.773,16.963-19.594,16.963s-19.594-5.456-19.594-16.963,8.773-19.334,19.594-19.334,19.594,7.828,19.594,19.334" transform="translate(-267.558 509.997)"/><path class="b" d="M351.081-380.915H334.962v-20.872h16.119v20.872" transform="translate(-277.071 472.629)"/><path class="q" d="M330.657-404.17s4.487,8.955,10.007,10.353a7.775,7.775,0,0,0,4.472-.258c2.078-.737,4.712-3.835,5.16-7.262l.208-1.958s-9.822,5.348-19.846-.875" transform="translate(-275.118 473.71)"/><path class="b" d="M352.789-461.834a78.654,78.654,0,0,1-1.994,17.485c-.975,4.236-3.72,7.2-7.6,9.578l-.706.433a13.334,13.334,0,0,1-13.573.151h0c-4.2-2.45-7.145-5.681-8.051-10.225a114.98,114.98,0,0,1-1.827-17.422s-1.567-17.832,16.635-17.485,17.115,17.485,17.115,17.485" transform="translate(-269.833 507.801)"/><path class="u" d="M347.626-426.922v1.466a1.117,1.117,0,0,0,.079.414,1.1,1.1,0,0,0,1.311.6l1.132-.3" transform="translate(-282.816 484.03)"/><path class="q" d="M354.567-445.721l9.683,2.292s-.44-2.489-4.4-3.393-5.282,1.1-5.282,1.1" transform="translate(-285.965 493.164)"/><path class="q" d="M337.118-445.721l-9.809,2.292s.446-2.489,4.458-3.393,5.35,1.1,5.35,1.1" transform="translate(-273.6 493.164)"/><path class="q" d="M336.3-434.871a1.522,1.522,0,0,1-1.525,1.517,1.522,1.522,0,0,1-1.526-1.517,1.522,1.522,0,0,1,1.526-1.517,1.522,1.522,0,0,1,1.525,1.517" transform="translate(-276.293 488.325)"/><path class="q" d="M362.767-434.871a1.522,1.522,0,0,1-1.525,1.517,1.521,1.521,0,0,1-1.525-1.517,1.521,1.521,0,0,1,1.525-1.517,1.522,1.522,0,0,1,1.525,1.517" transform="translate(-288.301 488.325)"/><path class="e" d="M336.987-417.734h13.389s-.945,3.679-7.016,3.679a7.1,7.1,0,0,1-6.373-3.679" transform="translate(-277.99 479.863)"/><path class="q" d="M318.146-452.936s7.278-9.839,5.6-19.805a14.338,14.338,0,0,0-6.809,9.734c-1.406,7.016,1.209,10.071,1.209,10.071" transform="translate(-268.707 504.815)"/><path class="q" d="M375.053-453.819S366.6-464,368.279-473.966a16.642,16.642,0,0,1,7.27,10.4c1.407,7.016-.5,9.743-.5,9.743" transform="translate(-292.084 505.371)"/><path class="q" d="M320.613-472.4s8.351,11.223,33.916,9.472c0,0-2.921-16.005-15.311-17.6,0,0-14.306-1.708-18.605,8.132" transform="translate(-270.562 508.401)"/><path class="b" d="M272.153-223.28c-.372.584,21.278-94.2,14.85-92.766-.586.13-11.844,1.176-13.517,4.578-4.85,9.861-8.328,87.468-8.328,87.468l7,.72" transform="translate(-245.407 433.742)"/><path class="b" d="M264.811-149.2s-3.49,16.192,9.7,17.961a1.853,1.853,0,0,0,2-1.225l.038-.11a1.852,1.852,0,0,0-1.026-2.29c-2.151-.962-5.486-3.391-3.832-8.91,0,0,1.907-.234,2.959,3.324a1.531,1.531,0,0,0,2.151.945h0a1.531,1.531,0,0,0,.827-1.565c-.316-2.491-1.569-8.488-6.377-10.1l-6.436,1.968" transform="translate(-245.06 358.943)"/><path class="m" d="M273.282-277.59s12.474,17.567,12.54,17.227,4.362-24.664,4.362-24.664l-15.136-6.557-1.766,13.994" transform="translate(-249.092 422.638)"/><path class="d" d="M306.364-370.083c.532,0-30.829.559-36.561,40.158l18.023,2.762,3.634,29.895h50.279l9.981-55.235s-7.1-11.967-27.779-17.83l-17.577.251" transform="translate(-247.514 458.361)"/><path class="b" d="M308.663-367.881S313.095-362,331.254-362c17.991,0,22.592-6.192,22.592-6.192a77.567,77.567,0,0,0-22.912-7.842,81.548,81.548,0,0,0-22.27,8.15" transform="translate(-265.142 460.945)"/><path class="v" d="M421.594-131.511l.043,78.973h39.069l3-78.973H421.594" transform="translate(-316.369 350.026)"/><path class="v" d="M541.884-131.511l-.042,78.973H502.772l-3-78.973h42.114" transform="translate(-351.832 350.026)"/><path class="v" d="M504.258-104.074h-40.4v-27.436h40.4v27.436" transform="translate(-335.544 350.026)"/><path class="b" d="M600.253-257.649c2.422,26.761-.133,46.259.573,95.5l-23.318.977-3.474-92.172,26.219-4.305" transform="translate(-385.52 407.245)"/><path class="m" d="M579.291-230.691s14.44-1.322,24.313-7.834l-.26-5.731-24.061,3.278.008,10.288" transform="translate(-387.901 401.17)"/><path class="f" d="M536.9-370.415s45.867,11.534,54.177,69.753c0,0-22.448,9.732-44.944,5.546l5.061-19.472L536.9-370.415" transform="translate(-368.674 458.398)"/><path class="b" d="M274.6-326.11l34.151,40.331L298.3-256.348s-25.957-36.088-37.62-63.982l13.92-5.78" transform="translate(-243.374 438.3)"/><path class="b" d="M267.636-343.18s-11.992,6.775-15.042,4.324c-5.33-4.283-9.736-19.96-9.736-19.96s22.425-8.454,22.215-8.124,2.563,23.76,2.563,23.76" transform="translate(-235.291 456.826)"/><path class="b" d="M284.836-341.618c-.212-1.207,4.447-14.231,6.044-19.115a2.155,2.155,0,0,0-1.706-2.714h0a2.487,2.487,0,0,0-2.773,1.137l-5.625,9.613,4.061,11.079" transform="translate(-252.491 455.264)"/><path class="b" d="M280.5-366.791,276.634-386a2.418,2.418,0,0,0-2.8-1.917h0a2.084,2.084,0,0,0-1.711,2.31l1.684,14.306,6.684,4.514" transform="translate(-248.562 466.357)"/><path class="b" d="M265.387-374.89l-5.244-13.72a2.406,2.406,0,0,0-2.979-1.467h0a2.074,2.074,0,0,0-1.371,2.461l3.892,15.854,5.7-3.127" transform="translate(-241.133 467.37)"/><path class="b" d="M253.638-367.213,247-380.694a2.637,2.637,0,0,0-3.368-1.291h0a2.3,2.3,0,0,0-1.185,3.034l5.29,12.727,5.9-.989" transform="translate(-235.019 463.738)"/><path class="b" d="M238.392-361.136l-5.207-8.259a1.866,1.866,0,0,1,.911-2.492h0a2.13,2.13,0,0,1,2.6.757l6.847,9.5-5.153.5" transform="translate(-230.825 459.146)"/><path class="w" d="M278.376-351.869s-7.819-.82-8.622,9.6" transform="translate(-247.492 449.992)"/><path class="b" d="M316.854-271.526s6.422,22.23,19.222,19.274,32.748-30.293,32.748-30.293l-4.465-46.678-35.925,44.215-11.581,13.482" transform="translate(-268.857 439.712)"/><path class="m" d="M358.443-276.767s12.129,18.294,22.475,24.746l6.772-8.549-26.125-20.209-3.122,4.013" transform="translate(-287.723 417.737)"/><path class="f" d="M410.246-372.262s-35.61,8.026-54.586,49.411c0,0,11.466,17.276,29.846,24.954l12.306-15.076,12.434-59.289" transform="translate(-286.461 459.236)"/><path class="f" d="M436.757-375.063a89.16,89.16,0,0,0-22.655,16.6l2.744,120.975H504.5l-.283-120.351s-11.05-10.813-23.026-16.085c-10.171-4.477-34.551-6.209-44.439-1.137" transform="translate(-312.971 461.909)"/><path class="x" d="M521.358-284.853h0a12.193,12.193,0,0,1-12.193-12.192v-12.193h24.385v12.193a12.192,12.192,0,0,1-12.192,12.192Z" transform="translate(-356.094 430.646)"/><path class="x" d="M579.3-264.634l1.138-39.574" transform="translate(-387.907 428.365)"/><path class="x" d="M414.994-272.331l-1.894-34.3" transform="translate(-312.517 429.466)"/><path class="q" d="M454.066-479.9l-3.653-18.078c-.205-1.472-.777-3.745-.077-5.88,1.157-3.533,5.411-10.316,12.681-7.211l1.571,7.158s-7.55,1.524-10.579,11.4l.057,12.61" transform="translate(-329.254 522.561)"/><path class="q" d="M463.811-503.583c-.132,2.376-2.228,12.768-9.6,16.555,0,0-6.456-13.846,9.6-16.555" transform="translate(-330.584 518.806)"/><path class="b" d="M489.682-404.074h0v-30.7h-28.3v30.7l-8.424,3.84s1.976,12.723,22.87,13,22.992-12.379,22.992-12.379l-9.141-4.466" transform="translate(-330.598 487.591)"/><path class="q" d="M473.826-517.511s5.194-13.7,21.208-6.417c9.694,4.408,12.408,10.319,13.562,14.507a16.845,16.845,0,0,1,.433,4.885l-3.874,18.194-15.123-25.171-14.635,1.16-1.571-7.158" transform="translate(-340.063 529.002)"/><path class="m" d="M529.771-454.99a4.715,4.715,0,0,1,5.843-1.542c3.935,1.493,2.155,11.049-3.748,12.267a4.667,4.667,0,0,1-3.774-.987s1.451-7.058,1.679-9.737" transform="translate(-364.679 497.65)"/><path class="x" d="M535.753-450.108s-3.3-1.1-5.636,3.754" transform="translate(-365.598 494.597)"/><path class="m" d="M450.848-454.99a4.713,4.713,0,0,0-5.843-1.542c-3.935,1.493-2.155,11.049,3.747,12.267a4.668,4.668,0,0,0,3.775-.987s-1.451-7.058-1.68-9.737" transform="translate(-326.036 497.65)"/><path class="x" d="M448.18-450.108s3.3-1.1,5.635,3.754" transform="translate(-328.43 494.597)"/><path class="b" d="M497.742-486.961c0,5.761-.563,17.814-4.1,24.967-3.326,6.717-8.826,10.331-16.036,10.546s-12.582-2.564-16.887-11.281-4.1-24.126-4.1-24.126,0-20.58,20.339-20.58c21.422,0,20.786,20.472,20.786,20.472" transform="translate(-332.256 520.552)"/><path class="q" d="M468.767-417.75s2.37,12.025,12.834,13.406c12.044,1.59,15.251-13.1,15.251-13.1s-5.322,6.669-13.738,6.679a18.412,18.412,0,0,1-14.347-6.985" transform="translate(-337.768 479.87)"/><path class="x" d="M491.6-454.327v4.763a1.564,1.564,0,0,0,.111.58,1.533,1.533,0,0,0,1.828.849l1.579-.42" transform="translate(-348.125 496.462)"/><path class="q" d="M477.529-460.027a1.852,1.852,0,0,1-1.851,1.852,1.852,1.852,0,0,1-1.852-1.852,1.852,1.852,0,0,1,1.852-1.852,1.852,1.852,0,0,1,1.851,1.852" transform="translate(-340.063 499.888)"/><path class="q" d="M509.3-460.027a1.852,1.852,0,0,1-1.852,1.852,1.852,1.852,0,0,1-1.852-1.852,1.852,1.852,0,0,1,1.852-1.852,1.853,1.853,0,0,1,1.852,1.852" transform="translate(-354.476 499.888)"/><path class="q" d="M500.313-476.9l12.449,3.216s-.566-3.492-5.659-4.761-6.79,1.544-6.79,1.544" transform="translate(-352.078 507.554)"/><path class="q" d="M475.819-476.9l-12.449,3.216s.566-3.492,5.658-4.761,6.791,1.544,6.791,1.544" transform="translate(-335.32 507.554)"/><path class="x" d="M481.623-436.827s1.837,1.407,6.666,1.407a16.886,16.886,0,0,0,7.136-1.407" transform="translate(-343.6 488.524)"/><path class="y" d="M477.638-464.032a7.869,7.869,0,0,1-7.868,7.869,7.869,7.869,0,0,1-7.868-7.869,7.868,7.868,0,0,1,7.868-7.868A7.869,7.869,0,0,1,477.638-464.032Z" transform="translate(-334.654 504.434)"/><path class="y" d="M513.014-464.032a7.868,7.868,0,0,1-7.868,7.869,7.869,7.869,0,0,1-7.869-7.869,7.869,7.869,0,0,1,7.869-7.868A7.868,7.868,0,0,1,513.014-464.032Z" transform="translate(-350.701 504.434)"/><path class="y" d="M490.7-458.142a2.561,2.561,0,0,1,3.592,0" transform="translate(-347.719 498.543)"/><path class="y" d="M459.711-457.555l-2.638-.066" transform="translate(-332.464 497.957)"/><path class="y" d="M526.079-457.54l2.945-.047" transform="translate(-363.766 497.941)"/><path class="q" d="M468.767-506.509s3.779,10.735,20.828,10.405c11.586-.224,14.354,8.16,14.354,8.16s-2.017-18.742-2.547-18.565-17.629-4.563-17.629-4.563l-15.006,4.563" transform="translate(-337.768 522.203)"/></g></g></g></svg>