<svg xmlns="http://www.w3.org/2000/svg" width="20" height="20" viewBox="0 0 20 20"><defs><style>.a{fill:#5382fc;}.b{fill:#fff;}</style></defs><g transform="translate(-0.309 -1028.671)"><circle class="a" cx="10" cy="10" r="10" transform="translate(0.309 1028.671)"/><path class="b" d="M7.587,2a5.587,5.587,0,1,1-3.95,1.638A5.565,5.565,0,0,1,7.587,2Zm2.544,3.868a.432.432,0,0,0-.225.089L6.769,8.311,5.314,6.856c-.316-.329-.936.292-.607.607L6.425,9.181a.444.444,0,0,0,.56.04l3.436-2.577a.454.454,0,0,0-.247-.777h-.044Z" transform="translate(2.723 1031.084)"/></g></svg>