<svg xmlns="http://www.w3.org/2000/svg" width="44.231" height="44.231" viewBox="0 0 44.231 44.231"><defs><style>.a{fill:#b1f1fe;}.b{fill:#2e53bf;}</style></defs><g transform="translate(-2881 -23010.499)"><path class="a" d="M2881.891,23048.012v-6.451h7.064s7.571-5.1,8.884,1.674c1.528.039,3.446-.908,3.461,2.205s-.306,4.24-2.365,4.309-5.746-.135-6.337,0a5.471,5.471,0,0,1-3.643-1.736C2883.6,23047.965,2881.891,23048.012,2881.891,23048.012Z"/><g transform="translate(2881 23010.498)"><path class="b" d="M258.668,297.44a.864.864,0,0,0,1.708-.259c-.087-.57-.189-1.156-.3-1.741a.864.864,0,1,0-1.7.335C258.488,296.334,258.586,296.895,258.668,297.44Z" transform="translate(-236.041 -269.28)"/><path class="b" d="M260.1,417.545a.864.864,0,0,0,1-.7c.1-.59.195-1.176.272-1.742a.864.864,0,1,0-1.712-.231c-.073.544-.161,1.107-.261,1.675A.864.864,0,0,0,260.1,417.545Z" transform="translate(-236.975 -378.345)"/><path class="b" d="M267.495,356.876c.007-.25.011-.5.011-.738,0-.342-.007-.7-.022-1.049a.864.864,0,1,0-1.726.07c.013.331.02.66.02.979,0,.223,0,.454-.01.689a.864.864,0,0,0,.839.888h.025A.864.864,0,0,0,267.495,356.876Z" transform="translate(-242.798 -323.656)"/><path class="b" d="M243.437,238.577s.1.3.247.814a.864.864,0,1,0,1.661-.477c-.159-.552-.264-.87-.269-.883s-.1-.286-.236-.776a.864.864,0,0,0-1.66.479C243.332,238.261,243.433,238.564,243.437,238.577Z" transform="translate(-222.141 -216.187)"/><path class="b" d="M231.2,61.226c.073-.543.16-1.106.259-1.675a.864.864,0,1,0-1.7-.3c-.1.591-.194,1.177-.27,1.743a.864.864,0,0,0,1.712.23Z" transform="translate(-209.654 -53.481)"/><path class="b" d="M226.012,119.038c-.006.235-.01.469-.01.7,0,.354.008.721.024,1.091a.864.864,0,0,0,.863.827h.037a.864.864,0,0,0,.826-.9c-.015-.345-.022-.688-.022-1.018,0-.213,0-.432.009-.651a.864.864,0,1,0-1.727-.047Z" transform="translate(-206.478 -107.986)"/><path class="b" d="M230.58,180.746a.864.864,0,1,0,1.695-.336c-.111-.561-.21-1.121-.293-1.665a.864.864,0,0,0-1.708.261C230.361,179.575,230.464,180.16,230.58,180.746Z" transform="translate(-210.371 -162.632)"/><path class="b" d="M.864,38.53H7.95a6.7,6.7,0,0,0,1.392.963c-.113,1.086-.185,2.55-.185,3.875a.864.864,0,0,0,.864.864H34.21a.864.864,0,0,0,.864-.864A24.376,24.376,0,0,0,33.069,33.2a15.931,15.931,0,0,1-1.451-7.587,21.131,21.131,0,0,1,1.432-5.9c.253-.738.511-1.489.754-2.275l3.723,10.208a.864.864,0,0,0,1.021.542l5.029-1.257a.864.864,0,0,0,.626-1.06l-1.434-5.4a.864.864,0,1,0-1.67.444l1.208,4.549-3.424.856L34.568,14.489A24.624,24.624,0,0,0,35.074,9.5a.864.864,0,0,0-1.728,0,27.454,27.454,0,0,1-1.931,9.646,22.742,22.742,0,0,0-1.524,6.381,17.574,17.574,0,0,0,1.569,8.3A22.362,22.362,0,0,1,33.335,42.5H23.25q.067-.257.143-.564a.864.864,0,0,0-1.677-.415c-.1.391-.184.722-.254.979H10.9c.019-.841.063-1.686.125-2.4a6.737,6.737,0,0,0,1.445.158h6.2a2.6,2.6,0,0,0,2.592-2.592V34.211a2.6,2.6,0,0,0-2.592-2.592H17.71a4.332,4.332,0,0,0-3.424-3.379,18.505,18.505,0,0,0,.054-2.71,22.744,22.744,0,0,0-1.524-6.381A27.549,27.549,0,0,1,10.885,9.5a.864.864,0,0,0-1.728,0,24.62,24.62,0,0,0,.505,4.984L5.348,26.321l-3.424-.856L6.1,9.765a6.038,6.038,0,0,1,5.866-4.581H15.2a4.327,4.327,0,0,0,4.233-3.456h1.544c-.047.183-.1.383-.153.6a.864.864,0,0,0,1.677.414c.1-.407.191-.75.263-1.016h2.025a4.327,4.327,0,0,0,4.233,3.456H32.27a6.038,6.038,0,0,1,5.866,4.581L39.1,13.4a.864.864,0,1,0,1.67-.444L39.811,9.34A7.763,7.763,0,0,0,32.27,3.457H29.027A2.6,2.6,0,0,1,26.435.865.864.864,0,0,0,25.571,0H18.66A.864.864,0,0,0,17.8.865,2.6,2.6,0,0,1,15.2,3.457H11.962A7.763,7.763,0,0,0,4.421,9.34L.029,25.868a.864.864,0,0,0,.625,1.06l5.029,1.257A.864.864,0,0,0,6.7,27.643l3.723-10.208c.243.786.5,1.537.754,2.275a21.135,21.135,0,0,1,1.432,5.9,16.647,16.647,0,0,1-.057,2.55h-.093A6.713,6.713,0,0,0,7.95,29.891H.864A.864.864,0,0,0,0,30.755v6.911a.864.864,0,0,0,.864.864Zm.864-6.911H8.294a.864.864,0,0,0,.611-.253,5,5,0,0,1,3.56-1.475h1.012a2.6,2.6,0,0,1,2.444,1.728H13.477a.864.864,0,1,0,0,1.728H18.66a.865.865,0,0,1,.864.864v3.456a.865.865,0,0,1-.864.864h-6.2A5.034,5.034,0,0,1,8.9,37.055a.864.864,0,0,0-.611-.253H1.728V31.619Z" transform="translate(0)"/><path class="b" d="M272.923,108.593a.864.864,0,0,0-.864-.864h-3.1l.253-.253a.864.864,0,1,0-1.222-1.222l-1.728,1.728a.866.866,0,0,0,0,1.222l1.728,1.728a.864.864,0,1,0,1.222-1.222l-.253-.253h3.1A.864.864,0,0,0,272.923,108.593Z" transform="translate(-243.032 -96.843)"/><circle class="b" cx="0.5" cy="0.5" r="0.5" transform="translate(40.114 16.118)"/></g></g></svg>