<svg xmlns="http://www.w3.org/2000/svg" width="55.176" height="55.176" viewBox="0 0 55.176 55.176"><defs><style>.a{fill:#b1f1fe;}.b{fill:#2e53bf;}</style></defs><circle class="a" cx="10.999" cy="10.999" r="10.999" transform="translate(16.589 16.589)"/><path class="b" d="M27.588,0A27.588,27.588,0,1,0,55.176,27.588,27.6,27.6,0,0,0,27.588,0Zm0,2.126A25.464,25.464,0,1,1,2.122,27.588,25.446,25.446,0,0,1,27.588,2.126Zm6.329,9.956a3.175,3.175,0,0,0-2.251,5.426l.75.75-13.5,13.5-.75-.746a3.184,3.184,0,0,0-4.505,4.5l6.006,6a3.183,3.183,0,1,0,4.5-4.5l-.75-.75,13.5-13.508.75.75a3.183,3.183,0,0,0,4.5-4.5l-6-6A3.172,3.172,0,0,0,33.917,12.082Zm0,2.106a1.052,1.052,0,0,1,.75.319l6,6a1.061,1.061,0,1,1-1.5,1.5l-.75-.75-4.5-4.5-.75-.75a1.036,1.036,0,0,1,0-1.5A1.055,1.055,0,0,1,33.917,14.188Zm0,5.571,1.5,1.5-13.5,13.508-1.5-1.5ZM15.908,32.193a1.057,1.057,0,0,1,.75.323l.75.75-.029.029.75.75L21.885,37.8l.029-.029.75.75a1.061,1.061,0,1,1-1.5,1.5l-6.006-6a1.036,1.036,0,0,1,0-1.5A1.06,1.06,0,0,1,15.908,32.193Z" transform="translate(0 0)"/></svg>