<svg xmlns="http://www.w3.org/2000/svg" width="57.215" height="38.631" viewBox="0 0 57.215 38.631"><defs><style>.a{fill:#b1f1fe;}.b{fill:#2e53bf;}</style></defs><rect class="a" width="27.82" height="15.528" transform="translate(5.316 4.562)"/><g transform="translate(0 0)"><path class="b" d="M56.7,27.721l-1.269-2.056h0l-5.811-10.1a3.791,3.791,0,0,0-3.236-1.788H38.3V7.82A2.61,2.61,0,0,0,35.76,5.21H2.61A2.61,2.61,0,0,0,0,7.82V28.829H0v8.779a.876.876,0,0,0,.858.876H7.331a6.169,6.169,0,0,0,12.212,0H41.91a6.169,6.169,0,0,0,12.23,0h2.217a.876.876,0,0,0,.858-.876V29.634a3.79,3.79,0,0,0-.518-1.913ZM48.115,16.439l5.132,8.8H44.467V15.562H46.38A2.038,2.038,0,0,1,48.115,16.439ZM1.788,7.82a.876.876,0,0,1,.876-.876h33.1a.876.876,0,0,1,.876.876V27.971H1.788Zm0,21.885H36.564V36.75h-17a.894.894,0,0,1,0-.215v-.25a2.163,2.163,0,0,0-.089-.322,1.323,1.323,0,0,0,0-.25l-.107-.322-.25-.161a3.577,3.577,0,0,0-.179-.375,1.056,1.056,0,0,0,0-.143l-.286-.483-.107-.143-.232-.322-.161-.161-.268-.322L17.7,33.12l-.232-.215-.2-.161-.286-.2-.215-.143-.268-.161-.232-.125-.286-.143-.232-.089-.322-.125-.232-.107H11.443l-.322.125-.232.089-.286.143-.232.125L10.1,32.3l-.215.143-.25.2-.2.161-.232.215-.179.161-.232.268-.161.161-.232.322-.107.143-.286.483a1.054,1.054,0,0,0,0,.143l-.179.375v.215l-.107.322a1.323,1.323,0,0,0,0,.25,2.163,2.163,0,0,0-.089.322v.25a.894.894,0,0,1,0,.215H1.788ZM13.5,42.06A4.452,4.452,0,0,1,8.94,37.644h0a4.47,4.47,0,0,1,8.94,0h0a4.452,4.452,0,0,1-4.434,4.416Zm34.58,0a4.434,4.434,0,0,1-4.434-4.416h0a4.47,4.47,0,1,1,8.94,0v.107a4.434,4.434,0,0,1-4.559,4.309ZM55.535,36.7H54.194a.894.894,0,0,0,0-.215,1.037,1.037,0,0,0,0-.25v-.572a2.4,2.4,0,0,0-.125-.322v-.215l-.179-.375V34.6a4.4,4.4,0,0,0-.3-.483l-.107-.143-.232-.322L53.1,33.5l-.232-.268-.179-.161-.25-.215-.179-.161-.268-.2-.215-.143-.268-.161-.215-.125-.3-.143-.232-.089-.7-.072h-.232l-.375-.107H46.613l-.358.089h-.215l-.322.125-.232.089-.3.143-.215.125-.286.179-.2.125-.268.2-.179.161-.25.215-.179.161-.232.268-.143.161-.25.34-.089.125c-.107.143-.2.322-.3.483v.125l-.2.393a.876.876,0,0,1,0,.2,1.107,1.107,0,0,1-.125.34,1.162,1.162,0,0,1,0,.232v.59a.894.894,0,0,0,0,.215H38.692V15.562h4.041V26.112a.84.84,0,0,0,.858.858H54.319l.948,1.627a2.11,2.11,0,0,1,.286,1.037Z" transform="translate(0 -5.21)"/><path class="b" d="M11.45,32.906a3.04,3.04,0,1,0,3.04,3.04,3.04,3.04,0,0,0-3.04-3.04Zm0,4.345a1.305,1.305,0,1,1,1.305-1.305,1.305,1.305,0,0,1-1.305,1.305Zm34.6-4.345a3.04,3.04,0,1,0,3.04,3.04,3.04,3.04,0,0,0-3.04-3.04Zm0,4.345a1.305,1.305,0,1,1,1.305-1.305A1.305,1.305,0,0,1,46.047,37.251ZM31.01,7.32H3.386A.876.876,0,0,0,2.51,8.2V23.412a.876.876,0,0,0,.876.858H31.01a.876.876,0,0,0,.876-.858V8.2A.876.876,0,0,0,31.01,7.32Zm-.8,15.216H4.191V9.054H30.206Z" transform="translate(1.978 -3.547)"/></g></svg>