<svg xmlns="http://www.w3.org/2000/svg" xmlns:xlink="http://www.w3.org/1999/xlink" width="925.337" height="689.487" viewBox="0 0 925.337 689.487">
  <defs>
    <clipPath id="clip-path">
      <path id="path310" d="M338.07-393.916a33.152,33.152,0,0,0,.185-3.566,32.331,32.331,0,0,0-.213-3.864s.052,0,.148,0a26.052,26.052,0,0,0,9.947-1.964s-4.369,6.59-10.068,9.392" transform="translate(-338.042 403.308)"/>
    </clipPath>
  </defs>
  <g id="g10" transform="translate(0 496.745)">
    <g id="g12" transform="translate(0 -496.745)">
      <path id="path14" d="M433.64-30.186c198.174,0,358.827,9.379,358.827,20.949S631.814,11.713,433.64,11.713,74.813,2.333,74.813-9.237,235.465-30.186,433.64-30.186" transform="translate(29.028 677.775)" fill="#f3f2f1"/>
      <path id="path16" d="M0-59.751H925.337v-.463H0Z" transform="translate(0 666.124)" fill="#e7e8e5"/>
      <path id="path18" d="M69.947-47.52H109.2v.463H69.947v-.463" transform="translate(27.14 671.049)" fill="#e7e8e5"/>
      <path id="path20" d="M228.186-51.133H385.438v.463H228.186v-.463" transform="translate(88.538 669.647)" fill="#e7e8e5"/>
      <path id="path22" d="M90.226-35.133h70.529v.463H90.226v-.463" transform="translate(35.009 675.855)" fill="#e7e8e5"/>
      <path id="path24" d="M542.279-37.373h79.931v.463H542.279v-.463" transform="translate(210.409 674.986)" fill="#e7e8e5"/>
      <path id="path26" d="M521.959-37.373h22.153v.463H521.959v-.463" transform="translate(202.525 674.986)" fill="#e7e8e5"/>
      <path id="path28" d="M463.852-42.537h42.565V-43H463.852Z" transform="translate(179.979 672.803)" fill="#e7e8e5"/>
      <path id="path30" d="M383.852-42.537H473.5V-43H383.852Z" transform="translate(148.938 672.803)" fill="#e7e8e5"/>
      <path id="path32" d="M61.5-496.375a10.1,10.1,0,0,0-10.087,10.1V16.058A10.1,10.1,0,0,0,61.5,26.162H418.842a10.12,10.12,0,0,0,10.1-10.1V-486.271a10.122,10.122,0,0,0-10.1-10.1H61.5m357.346,523H61.5a10.567,10.567,0,0,1-10.55-10.567V-486.271A10.568,10.568,0,0,1,61.5-496.745H418.842a10.568,10.568,0,0,1,10.567,10.567V16.058a10.569,10.569,0,0,1-10.567,10.567" transform="translate(19.768 496.745)" fill="#e7e8e5"/>
      <path id="path34" d="M349.9-496.375a10.124,10.124,0,0,0-10.1,10.1V16.058a10.121,10.121,0,0,0,10.1,10.1H707.265a10.118,10.118,0,0,0,10.1-10.1V-486.271a10.12,10.12,0,0,0-10.1-10.1H349.9m357.365,523H349.9a10.586,10.586,0,0,1-10.567-10.567V-486.271A10.585,10.585,0,0,1,349.9-496.745H707.265a10.567,10.567,0,0,1,10.53,10.475V16.058a10.567,10.567,0,0,1-10.53,10.567" transform="translate(131.664 496.745)" fill="#e7e8e5"/>
      <path id="path36" d="M414.679-193.986h7.888V-7.951h-7.888V-193.986" transform="translate(160.899 614.219)" fill="#ededeb"/>
      <path id="path38" d="M198.11-149.975H418.324v-40.186H198.11Z" transform="translate(76.868 615.703)" fill="#dadbd8"/>
      <path id="path40" d="M291.04,2.529H196.624a1.365,1.365,0,1,1,0-2.73H291.04c13.651,0,15.466-3.984,15.466-19.791v-199.29a1.366,1.366,0,0,1,1.364-1.366,1.367,1.367,0,0,1,1.366,1.366v199.29c0,16.9-2.621,22.52-18.2,22.52" transform="translate(75.762 603.874)" fill="#dadbd8"/>
      <path id="path42" d="M204.207-179.514H502.075v-13.951H204.207Z" transform="translate(79.234 614.421)" fill="#ededeb"/>
      <path id="path44" d="M136.853-7.951H232.5V-193.986H136.853Z" transform="translate(53.1 614.219)" fill="#f3f2f1"/>
      <path id="path46" d="M200.068-7.951h7.889V-193.986h-7.889Z" transform="translate(77.628 614.219)" fill="#ededeb"/>
      <path id="path48" d="M86.477,50.433h97.835V-344.457H86.477Z" transform="translate(33.554 555.835)" fill="#fafaf9"/>
      <path id="path50" d="M177.443-336.144v87.1h-87.1v-87.1h87.1" transform="translate(35.055 559.06)" fill="#f3f2f1"/>
      <path id="path52" d="M107.824-336.988h38.627a9.03,9.03,0,0,1-9.03,9.029h-20.5a9.029,9.029,0,0,1-9.095-8.965v-.065" transform="translate(41.837 558.733)" fill="#dadbd8"/>
      <path id="path54" d="M90.335-180.672h87.1v-87.1h-87.1Z" transform="translate(35.051 585.59)" fill="#f3f2f1"/>
      <path id="path56" d="M90.346-112.3h87.1v-87.1h-87.1Z" transform="translate(35.055 612.121)" fill="#f3f2f1"/>
      <path id="path58" d="M90.346-43.909h87.1V-131h-87.1Z" transform="translate(35.055 638.656)" fill="#f3f2f1"/>
      <path id="path60" d="M107.824-268.6h38.627a9.046,9.046,0,0,1-9.03,9.029h-20.5a9.045,9.045,0,0,1-9.095-9v-.031" transform="translate(41.837 585.268)" fill="#dadbd8"/>
      <path id="path62" d="M107.824-200.225h38.627a9.031,9.031,0,0,1-9.03,9.031h-20.5a9.032,9.032,0,0,1-9.095-8.967v-.065" transform="translate(41.837 611.798)" fill="#dadbd8"/>
      <path id="path64" d="M107.824-131.849h38.627a9.032,9.032,0,0,1-9.03,9.031h-20.5a9.032,9.032,0,0,1-9.095-8.967v-.065" transform="translate(41.837 638.328)" fill="#dadbd8"/>
      <path id="path66" d="M100.137-344.456V50.433H51.276V-344.456h48.861" transform="translate(19.895 555.835)" fill="#ededeb"/>
      <path id="path68" d="M274.063-182.76H253.437l5.01-40.158h20.639l-5.023,40.158" transform="translate(98.336 602.993)" fill="#ededeb"/>
      <path id="path70" d="M277.361-182.76H256.722l5.023-40.158h20.626l-5.01,40.158" transform="translate(99.61 602.993)" fill="#f3f2f1"/>
      <path id="path72" d="M308.441-192.716H293.522l-2.854-4.545h14.907l2.865,4.545" transform="translate(112.782 612.948)" fill="#ededeb"/>
      <path id="path74" d="M387.1-192.716h-90.3l-2.852-4.545h80.973l12.176,4.545" transform="translate(114.057 612.948)" fill="#fafaf9"/>
      <path id="path76" d="M224.39-202.286h6.524a11.52,11.52,0,0,1,11.52,11.52H212.842a11.519,11.519,0,0,1,11.52-11.52h.028" transform="translate(82.585 610.998)" fill="#ededeb"/>
      <path id="path78" d="M279.155-202.838H258.531l2.511-20.08h20.626l-2.513,20.08" transform="translate(100.312 602.993)" fill="#ededeb"/>
      <path id="path80" d="M222.44-185.627H368.5a2.02,2.02,0,0,0,2.023-2.017l-.017-.261-11.248-89.982a2.021,2.021,0,0,0-2.006-1.775H211.232a2.022,2.022,0,0,0-2.021,2.019l.015.248L220.475-187.4a2.02,2.02,0,0,0,1.965,1.775" transform="translate(81.176 580.976)" fill="#ededeb"/>
      <path id="path82" d="M224.045-185.627H370a2.02,2.02,0,0,0,2.023-2.017l-.017-.261-11.248-89.982a2.033,2.033,0,0,0-2.006-1.775H212.8a2.021,2.021,0,0,0-2.021,2.019l.015.248L222.039-187.4a2.018,2.018,0,0,0,2.006,1.775" transform="translate(81.783 580.976)" fill="#f3f2f1"/>
      <path id="path84" d="M365.981-191.823l-10.523-84.22a.573.573,0,0,0-.574-.49H214.74a.544.544,0,0,0-.564.526l.006.1L224.7-191.671a.558.558,0,0,0,.561.489H365.422a.571.571,0,0,0,.564-.581l-.006-.059" transform="translate(83.102 582.189)" fill="#dadbd8"/>
      <path id="path86" d="M294.507-192.933H260.9v-.422a3.346,3.346,0,0,1,3.344-3.346h26.918a3.346,3.346,0,0,1,3.344,3.346v.422" transform="translate(101.232 613.165)" fill="#fafaf9"/>
      <path id="path88" d="M270.1-192.933H247.3v-.422a3.346,3.346,0,0,1,3.344-3.346h16.106a3.346,3.346,0,0,1,3.344,3.346v.422" transform="translate(95.955 613.165)" fill="#ededeb"/>
      <path id="path90" d="M130.855-370.256v-.081c.375-1.253.733-2.522,1.042-3.79a6.61,6.61,0,0,0,5.108,3.076h.44c2.717-.261,5.321-2.9,6.964-7.046v-.474l-.374-.307a14.3,14.3,0,0,0-11.5,2c.244-1.2.455-2.424.635-3.627a7.312,7.312,0,0,0,1.3.13c4.426,0,7.68-3.953,7.843-4.149a.585.585,0,0,0-.093-.824l-.152-.087a8.136,8.136,0,0,0-6.654-.261,5.912,5.912,0,0,0-2.62,2.652,14.547,14.547,0,0,0-11.536-9.86l-.472.115a.532.532,0,0,0-.228.422c-.228,4.02-.1,8.95,2.913,11.293a6.873,6.873,0,0,0,4.36,1.334,15.886,15.886,0,0,0,4.134-.651,65.5,65.5,0,0,1-1.872,8.607,22.779,22.779,0,0,0-11.894-8.363.6.6,0,0,0-.716.422c-.912,3.466-.44,6.281,1.35,8.136a9.109,9.109,0,0,0,6.735,2.312,20.22,20.22,0,0,0,3.906-.407c-.749,2.374-1.627,4.7-2.457,6.916-1.806-1.629-7.126-5.663-12.918-3.972l-.359.309v.472c1.627,3.84,3.369,5.972,5.613,6.7a5.851,5.851,0,0,0,1.855.294,10.606,10.606,0,0,0,4.882-1.432c-1.237,2.946-2.555,5.695-3.808,8.136a11.816,11.816,0,0,0-11.666-3.092.573.573,0,0,0-.455.62,7.061,7.061,0,0,0,4.215,5.661,6.786,6.786,0,0,0,2.717.553,8.044,8.044,0,0,0,3.71-.96c-1.269,2.36-2.44,4.329-3.351,5.826H106.385c-1.758-3.011-3.791-6.753-5.776-10.95a10.52,10.52,0,0,0,2.847.439,7.728,7.728,0,0,0,7.824-7.632,7.727,7.727,0,0,0-.242-2.015.571.571,0,0,0-.635-.407,14.132,14.132,0,0,0-10.933,7.11c-1.3-2.93-2.572-6.035-3.678-9.24a10.305,10.305,0,0,0,4.6,1.332,5.554,5.554,0,0,0,1.888-.309c3.255-1.073,5.125-4.995,6.719-9.063v-.472l-.374-.309c-6.509-1.821-11.862,4.442-13.522,6.688a80.107,80.107,0,0,1-2.164-8.25,22.8,22.8,0,0,0,4.15.424,10.112,10.112,0,0,0,7.614-2.671c1.969-2.082,2.441-5.2,1.384-9.013a.57.57,0,0,0-.692-.413l-.024.006a24.942,24.942,0,0,0-12.871,9.324l-.244-1.48L92.1-380.9A7.134,7.134,0,0,0,88.4-385.37a8.917,8.917,0,0,0-7.289.391.636.636,0,0,0-.358.407.569.569,0,0,0,.13.5c.163.211,3.743,4.442,8.558,4.442a8.35,8.35,0,0,0,1.546-.163c.212,1.384.472,2.767.765,4.134a15.707,15.707,0,0,0-12.723-2.051l-.375.309v.487c1.871,4.525,4.767,7.388,7.761,7.632h.407c1.514,0,3.564-.7,5.646-3.483a92.136,92.136,0,0,0,2.961,9.34c-2.815-1.334-9.144-3.629-13.667-.129a.568.568,0,0,0-.128.794l.014.019c2.929,3.986,5.63,5.922,8.281,5.922,2.2,0,4.3-1.383,6.4-4.116,1.2,2.994,2.5,5.857,3.79,8.493-2.814-1.74-5.906-1.464-9.55.831a.566.566,0,0,0-.276.487.535.535,0,0,0,.244.489,14.426,14.426,0,0,0,7.4,2.685,6.506,6.506,0,0,0,3.856-1.171c1.042,2,2.067,3.84,3.01,5.482H99.779v2.865H101.6l1.514,15.164h22.274l1.5-15.164h1.838v-2.865H118.717c1.107-1.838,2.522-4.294,4.036-7.175l.1-.194c.391-.731.765-1.481,1.156-2.262a7.516,7.516,0,0,0,6.02,3.368,6.323,6.323,0,0,0,.748,0,7.228,7.228,0,0,0,5.955-4.654.57.57,0,0,0-.261-.7,12.35,12.35,0,0,0-11.259-.455c.846-1.773,1.627-3.677,2.473-5.646l.113-.259c.228-.553.44-1.107.667-1.627,1.936,2.441,3.857,3.644,5.857,3.644,2.425,0,4.882-1.791,7.518-5.483a.584.584,0,0,0-.113-.812c-4.15-3.109-9.762-.977-12.4.259.536-1.464,1.024-2.944,1.48-4.458l.048-.163" transform="translate(30.52 537.037)" fill="#dadbd8"/>
      <path id="path92" d="M382.55-85.334h61.18a21.43,21.43,0,0,0,21.444-21.007l2.293-112.012a15.629,15.629,0,0,0-15.312-15.94l-.316,0H413.48a15.619,15.619,0,0,0-15.52,13.854L382.55-85.334" transform="translate(148.433 598.578)" fill="#e2e2e0"/>
      <path id="path94" d="M425.683-123.7H360.491a3.057,3.057,0,0,1-3.057-3.057v-.287a8.382,8.382,0,0,1,8.38-8.382h59.869V-123.7" transform="translate(138.687 636.942)" fill="#e2e2e0"/>
      <path id="path96" d="M424.045-32.041a1.363,1.363,0,0,1-1.366-1.079l-19.11-92.109H370.263L351.152-33.12a1.4,1.4,0,0,1-1.645,1.087,1.393,1.393,0,0,1-1.083-1.645l19.354-93.186a1.364,1.364,0,0,1,1.366-1.094h35.49A1.365,1.365,0,0,1,406-126.866L425.34-33.679a1.365,1.365,0,0,1-1.049,1.611l-.246.028" transform="translate(135.181 639.838)" fill="#e2e2e0"/>
      <path id="path98" d="M388.321-32.048h-.272a1.364,1.364,0,0,1-1.066-1.61l19.354-93.189a1.37,1.37,0,0,1,1.368-1.094h35.489a1.37,1.37,0,0,1,1.366,1.094L463.9-33.658a1.394,1.394,0,0,1-1.085,1.645,1.4,1.4,0,0,1-1.645-1.087l-19.11-92.11H408.727L389.618-33.1a1.364,1.364,0,0,1-1.3,1.051" transform="translate(150.142 639.845)" fill="#e2e2e0"/>
      <path id="path100" d="M555.121-33.259h3.818c0-7.841,0-27.773.413-73.433.668-82.766,2-87.8,2-87.8l-9.081,38.211c-5.77,42.3,1.632,84.857,2.85,123.024" transform="translate(213.442 614.022)" fill="#e2e2e0"/>
      <path id="path102" d="M569.9-170.442c-19.978-19.749-58.992-22.393-98.859-24.049-15.633-.642,43.683,29.405,73.409,51.913,22.991,17.474,37.176,21.588,44.832,40.441.9-24.462-2.161-51.291-19.382-68.3" transform="translate(181.766 614.019)" fill="#e2e2e0"/>
      <path id="path104" d="M559.968-191.528c13.543-25.726,47.614-49.959,85.847-59.133,14.991-3.609-34.785,47.5-53.7,80.467-14.693,25.611-34.187,55.683-37.2,77.293-4.575-42.83-8.484-72.9,5.058-98.628" transform="translate(213.653 592.158)" fill="#dadbd8"/>
      <path id="path106" d="M563.8-47.532h0a25.128,25.128,0,0,1-25.06-23.677L536.44-93.9H591l-2.3,22.693a25.149,25.149,0,0,1-24.9,23.677" transform="translate(208.143 653.052)" fill="#e7e8e5"/>
      <path id="path108" d="M596.038-80.538H534.4l-1.769-25.291h65.175l-1.769,25.291" transform="translate(206.666 648.424)" fill="#ededeb"/>
      <path id="path110" d="M368.782-244.7H682.55V-469.042H368.782Z" transform="translate(143.091 507.495)" fill="#dadbd8"/>
      <path id="path112" d="M368.782-244.7h306.84V-469.042H368.782Z" transform="translate(143.091 507.495)" fill="#ededeb"/>
      <path id="path114" d="M376.178-262.035h285.1V-462.2h-285.1Z" transform="translate(145.96 510.151)" fill="#fafaf9"/>
      <path id="path116" d="M690-472.168H361.135v-3.92H690v3.92" transform="translate(140.124 504.761)" fill="#dadbd8"/>
      <path id="path118" d="M366.254-473.1a5.488,5.488,0,0,1-5.487,5.487,5.487,5.487,0,0,1-5.485-5.487,5.485,5.485,0,0,1,5.485-5.485,5.487,5.487,0,0,1,5.487,5.485" transform="translate(137.852 503.792)" fill="#dadbd8"/>
      <path id="path120" d="M605.09-473.1a5.488,5.488,0,0,1-5.487,5.487,5.487,5.487,0,0,1-5.485-5.487,5.485,5.485,0,0,1,5.485-5.485,5.487,5.487,0,0,1,5.487,5.485" transform="translate(230.523 503.792)" fill="#dadbd8"/>
      <path id="path122" d="M524.844-327.454c-.235-.7-.446-1.316-.627-1.845a19.188,19.188,0,0,0-5.894-9.263c-.99-.94-7.521-6.705-20.3-8.378l1.455-3.222c1.934-.215,3.866-.552,5.746-.894,3.9-.713,8.023-1.538,10.915-4.244,3.185-2.982,4.184-7.662,4.079-12.024s-1.142-8.656-1.3-13.014c-.041-1.11-.026-2.226.028-3.344a6.369,6.369,0,0,0,.894-3.537,8.333,8.333,0,0,0-.366-2.286c.254-2.178.535-4.355.711-6.513l29.885-66.18H585.7L524.844-327.454" transform="translate(193.236 510.151)" fill="#fefefe"/>
      <path id="path124" d="M431.11-262.035H400.97l12.844-28.441c.85,1.566,1.727,3.178,2.6,4.773a150.732,150.732,0,0,0,7.54,13.523,59.292,59.292,0,0,0,7.16,10.145M444.781-273.8c-6.544-4.579-18.733-23.035-24.211-31.635l70.8-156.758h63.576L539-426.882l-1.316-1.051-24.969,3.246-.1.03c-.622.666-1.112,1.275-1.453,1.706l-.089.133-.283.4-.163.237v.015c-.415.681-.77,1.275-.92,1.5a66.967,66.967,0,0,0-5.943,10.482c-4.108,9.209-6.035,18.579-3.679,28.528a22.655,22.655,0,0,0,2.728,6.618c-1.806,6.339-6.722,17.172,1.492,20.028a11.185,11.185,0,0,0,2.026.487l-3.357,7.438-.309.037v0c-.052,0-.9-.059-2.289-.118a96.12,96.12,0,0,0-9.975-.653c-.6-.015-1.2-.022-1.782-.022a37.8,37.8,0,0,0-11.015,1.364,16.745,16.745,0,0,0-2.784,1.07,17.259,17.259,0,0,0-2.509,1.447,6.708,6.708,0,0,0-1.073.812h0c-4.26,3.524-6.313,11-8.106,17.363a31,31,0,0,0-.768,3.511c-.981,3.633-2.075,7.949-3.192,12.849C455.5-293.346,444.781-273.8,444.781-273.8" transform="translate(155.58 510.151)" fill="#fefefe"/>
      <path id="path126" d="M682.55-397.344H368.782v-6.809H682.55v6.809" transform="translate(143.091 532.672)" fill="#dadbd8"/>
      <path id="path128" d="M682.55-404.548H368.782v-6.809H682.55v6.809" transform="translate(143.091 529.877)" fill="#dadbd8"/>
      <path id="path130" d="M682.55-411.753H368.782v-6.809H682.55v6.809" transform="translate(143.091 527.081)" fill="#dadbd8"/>
      <path id="path132" d="M682.55-418.956H368.782v-6.811H682.55v6.811" transform="translate(143.091 524.286)" fill="#dadbd8"/>
      <path id="path134" d="M682.55-426.162H368.782v-6.809H682.55v6.809" transform="translate(143.091 521.491)" fill="#dadbd8"/>
      <path id="path136" d="M682.55-433.368H368.782v-6.809H682.55v6.809" transform="translate(143.091 518.695)" fill="#dadbd8"/>
      <path id="path138" d="M682.55-440.572H368.782v-6.809H682.55v6.809" transform="translate(143.091 515.9)" fill="#dadbd8"/>
      <path id="path140" d="M682.55-447.777H368.782v-6.809H682.55v6.809" transform="translate(143.091 513.104)" fill="#dadbd8"/>
      <path id="path142" d="M682.55-454.98H368.782v-6.81H682.55v6.81" transform="translate(143.091 510.308)" fill="#dadbd8"/>
      <path id="path144" d="M682.55-462.186H368.782v-6.809H682.55v6.809" transform="translate(143.091 507.513)" fill="#dadbd8"/>
      <path id="path146" d="M304.2-413.008h-57.35v-57.351H304.2v57.351" transform="translate(95.78 506.984)" fill="#ededeb"/>
      <path id="path148" d="M300.981-413.008H243.63v-57.351h57.351v57.351" transform="translate(94.531 506.984)" fill="#f3f2f1"/>
      <path id="path150" d="M295.332-418.656H246.811v-48.521h48.521v48.521" transform="translate(95.765 508.218)" fill="#fafaf9"/>
      <path id="path152" d="M248.173-418.656h-1.362v-48.521h1.362v48.521" transform="translate(95.765 508.218)" fill="#ededeb"/>
      <path id="path154" d="M287.31-455.856v22.33a7.079,7.079,0,0,0-7.079,7.079H259.576a7.08,7.08,0,0,0-7.079-7.079v-22.33a7.08,7.08,0,0,0,7.079-7.081h20.655a7.079,7.079,0,0,0,7.079,7.081" transform="translate(97.971 509.864)" fill="#fff"/>
      <path id="path156" d="M74.508-372.664H267.018v-98.027H74.508Z" transform="translate(28.91 506.855)" fill="#e2e2e0"/>
      <path id="path158" d="M68.877-372.664H261.388v-98.027H68.877Z" transform="translate(26.725 506.855)" fill="#ededeb"/>
      <path id="path160" d="M74.1-385.864H252.435v-78.673H74.1Z" transform="translate(28.753 509.243)" fill="#f3f2f1"/>
      <path id="path162" d="M154.037-385.864H130l36.477-78.674h22.079l-34.515,78.674" transform="translate(50.44 509.242)" fill="#fcfdfc"/>
      <path id="path164" d="M126.753-385.864H116.037l37.44-78.674h10.162l-36.886,78.674" transform="translate(45.023 509.242)" fill="#fcfdfc"/>
      <path id="path166" d="M177.493-396.192s-11.765-2.617-13.421-17.8c-1.54-14.089,4.73-16.889,4.73-16.889s-8.006-14.389,5.367-22.667,33.875,2.759,41.757-.985,16.671-1.636,14.148,9.459-14.148,14-14.148,14l-27-4.732s11.63,30.353,4.73,36.07-16.162,3.544-16.162,3.544" transform="translate(63.567 512.281)" fill="#17282f"/>
      <path id="path168" d="M209.552-445.328s5.837,22.652,0,26.542-7.088-23.207-7.088-23.207l7.088-3.335" transform="translate(78.558 516.696)" fill="#17282f"/>
      <path id="path170" d="M197.149-249.2l-5.807,12.383-10.268-1.466c-9.681,1.543-13.712-3.955-13.712-3.955-2.115-1.914-4.153-3.781-6.083-5.589-34.047-31.87-39.777-48.129-36.857-60.945,3.088-13.543,23.594-53.379,29.784-62.66s10.841-11.8,10.841-11.8c11.21-4.832,19.717-1.358,23.624,10.638,3.167,9.7-4.031,19.811-9.559,27.131a292.768,292.768,0,0,0-18.836,27.949q-2.826,4.769-5.435,9.664c-.757,1.421-4.941,7.521-4.493,8.756,2.856,7.937,17.185,30.481,22.234,38.294,1.1,1.7,1.745,2.7,1.745,2.7,18.56,2.7,22.822,8.894,22.822,8.894" transform="translate(48.019 539.973)" fill="#17282f"/>
      <path id="path172" d="M352.544-377.943l-10.793,6.161s-2.332,4.586-6.176,11.01c-8.756,14.639-25.323,38.881-39.962,40.485-19.223,1.623-39.436-7.288-59.74-20.907s-13.151-44.788-13.151-44.788,12.131,3.407,30.891,17.287,34.68,22.36,39.312,24.151c0,0,15.92-5.126,33.136-25.152l.017-.017,4.878-15.688,16.2-5.65,5.389,13.108" transform="translate(85.944 537.756)" fill="#17282f"/>
      <path id="path174" d="M153.713-333.322c.7,1.053,18.958,90.572,18.958,90.572H257.91s.77-54.763,2.173-67.753S270.109-377.2,250-385.979c0,0-20.461-4.867-35.555-5.067a138.325,138.325,0,0,0-27.112,2.313s-26.163,1.386-32.94,7.721-.681,47.69-.681,47.69" transform="translate(58.665 537.753)" fill="#17282f"/>
      <path id="path176" d="M270.6-285.075s-1.444,129.192-5.306,160.094S251.395,39.5,251.395,39.5l-25.378-6.1s-1.93-97.216-4.506-145.5-2.052-105.487-2.052-105.487S200.908-97.3,193.826-85.71,157.773-7.163,139.1,26.315L118.5,8.288s33.479-106.875,39.273-124.9,10.745-151.676,27.584-167.26l85.238-1.2" transform="translate(45.979 578.875)" fill="#406fbf"/>
      <path id="path178" d="M138.42-60.964l-5.142,7.858-6.948,10.623-14.175-7.364,5.822-11.735,4.323-8.692,16.12,9.311" transform="translate(43.517 662.22)" fill="#e96759"/>
      <path id="path180" d="M323.314-377.943l-10.793,6.161s-2.332,4.586-6.176,11.01l-9.512-8.924.017-.017,4.878-15.688,16.2-5.65,5.389,13.108" transform="translate(115.174 537.756)" fill="#e96759"/>
      <path id="path182" d="M215.027-8.564l-2.787-.47-.011-.2,2.8.673s.335-4.473.907-11.97h0c-.574,7.5-.909,11.97-.909,11.97m1.116-14.7h0c1.382-18.044,3.859-49.99,6.365-80.3h0c-2.506,30.313-4.984,62.259-6.366,80.3m6.405-80.765h0c1.814-21.915,3.64-42.939,5.076-57.18h0c-1.436,14.243-3.263,35.268-5.076,57.18" transform="translate(82.347 626.937)" fill="#a7a9a8"/>
      <path id="path184" d="M219.636-119.551h0c.013-.155.026-.307.039-.463h0c-.013.155-.026.307-.039.463" transform="translate(85.22 642.921)" fill="#979999"/>
      <path id="path186" d="M223.321-152.593h0c.481-4.784.92-8.8,1.3-11.833.561-4.49,1.072-11.049,1.532-18.988h0c-.461,7.936-.97,14.494-1.53,18.981-.379,3.033-.818,7.053-1.3,11.841" transform="translate(86.65 618.321)" fill="#8f9192"/>
      <path id="path188" d="M214.9-59.1h0q.1-1.3.209-2.73h0Q215-60.4,214.9-59.1" transform="translate(83.382 665.498)" fill="#8f9192"/>
      <path id="path190" d="M225.359-182.79h0c.043-.731.085-1.481.128-2.234-.043.757-.085,1.5-.128,2.234" transform="translate(87.441 617.696)" fill="#9b9d9d"/>
      <path id="path192" d="M200.737-53l-4.5-.758s-.015-.627-.043-1.81l7.876,1.893-3.348.337.011.338" transform="translate(76.126 667.924)" fill="#a7a9a8"/>
      <path id="path194" d="M156.964-95.387v0c10-21.4,18.52-39.9,21.938-45.5a13.508,13.508,0,0,0,.936-1.978,13.317,13.317,0,0,1-.931,1.98c-3.422,5.593-11.942,24.09-21.943,45.5" transform="translate(60.903 634.054)" fill="#9fa1a1"/>
      <path id="path196" d="M133.347-42.133l0,0c1.784-3.2,3.662-6.707,5.608-10.442h.006c-1.945,3.737-3.824,7.244-5.609,10.446M160.76-97.2V-97.2c1.821-3.873,3.618-7.71,5.369-11.458v0c-1.751,3.749-3.548,7.586-5.369,11.459" transform="translate(51.739 647.325)" fill="#a4a6a5"/>
      <path id="path198" d="M144.718-49.506h-.006c6.86-13.171,14.539-29.179,21.808-44.627v.005c-7.266,15.442-14.946,31.454-21.8,44.621M118.5-57.091l-.006,0s9.119-29.1,18.662-59.486c-9.5,30.253-18.573,59.227-18.656,59.49" transform="translate(45.977 644.253)" fill="#9fa1a1"/>
      <path id="path200" d="M191.773-182.907h-.831c-.017-6.687.035-14.306.12-21.84v-.017c.07-6.161.163-12.27.255-17.776h0c-.093,5.506-.185,11.615-.255,17.776q.18-1.219.35-2.472c.07,7.438.183,15.683.361,24.329" transform="translate(74.086 603.14)" fill="#a7a9a8"/>
      <path id="path202" d="M193.3-149.465c-.737-12.79-1.9-22.643-2.158-30.292-.128-3.7-.187-8.639-.2-14.23h.831c.294,14.345.77,29.8,1.525,44.522" transform="translate(74.087 614.219)" fill="#9fa1a1"/>
      <path id="path204" d="M200.279-204.287c.831-5.173,1.486-9.324,1.91-12.033v.078c-.481,3.05-1.131,7.131-1.91,11.955m2.245-14.18c.143-.909.217-1.392.217-1.392v.028l-.165,1.055h0l-.052.309m-40.939-52.668a72.3,72.3,0,0,1,2.783-8.093h0a72.142,72.142,0,0,0-2.785,8.093" transform="translate(62.696 581.144)" fill="#a7a9a8"/>
      <path id="path206" d="M163.59-277.3a20.4,20.4,0,0,1,4.268-6.916h0l0,0h0a20.368,20.368,0,0,0-4.269,6.912h0" transform="translate(63.474 579.211)" fill="#0f191d"/>
      <path id="path208" d="M166.668-283.871h0a.007.007,0,0,1,0,0l85.233-1.2v.006l-85.231,1.2" transform="translate(64.668 578.874)" fill="#0f191d"/>
      <path id="path210" d="M251.395,39.5l-2.8-.673-.229-4.464-2.887-.122L234.22,35.369l-7.876-1.893c-.326-13.652-2.469-101.134-4.828-145.587-.035-.677-.072-1.349-.111-2.01-.755-14.718-1.231-30.177-1.525-44.522-.178-8.646-.291-16.891-.361-24.329,3.372-24.888,3.835-59.477,3.835-59.477l-3.505,22.389s-.215,9.363-.424,21.784h0c.209-12.422.424-21.784.424-21.784l-.39,2.5v-.028s-.074.483-.217,1.392l-.228,1.39h0l-.107.74v.017c-.424,2.709-1.079,6.86-1.91,12.033-5.273,32.694-16.5,99.711-22.234,114.331a13.5,13.5,0,0,1-.936,1.978c-3.418,5.595-11.939,24.092-21.938,45.5-1.751,3.748-3.548,7.584-5.369,11.458C159.249-13.308,151.571,2.7,144.711,15.872c-1.945,3.735-3.823,7.244-5.609,10.443l-3.635-3.184.491-.75-3.969-2.293L118.5,8.286c.082-.263,9.159-29.237,18.656-59.49,8.746-27.849,17.85-56.784,20.62-65.4,4.888-15.224,9.181-112.83,20.526-152.262a72.128,72.128,0,0,1,2.785-8.093,20.367,20.367,0,0,1,4.269-6.912h0l85.231-1.2c-.011.9-1.031,91.688-3.638,138.873-.043.753-.085,1.5-.128,2.234-.461,7.939-.972,14.5-1.532,18.988-.379,3.031-.818,7.049-1.3,11.833-1.436,14.241-3.263,35.265-5.076,57.18-.013.155-.026.307-.039.463-2.506,30.313-4.982,62.259-6.364,80.3q-.108,1.425-.209,2.73c-.572,7.5-.907,11.97-.907,11.97" transform="translate(45.979 578.875)" fill="#2d5bb2"/>
      <path id="path212" d="M191.014-234.782c.033-.211.063-.405.091-.585l.052-.309c-.043.279-.091.579-.142.894" transform="translate(74.115 598.043)" fill="#7f8284"/>
      <path id="path214" d="M190.916-234.063l.228-1.39c-.028.18-.057.374-.091.585-.043.257-.087.526-.137.805" transform="translate(74.077 598.129)" fill="#244d9b"/>
      <path id="path216" d="M191.028-204.764c.07-6.161.163-12.27.255-17.776.013,4.525.041,9.683.094,15.3q-.169,1.255-.35,2.473" transform="translate(74.12 603.14)" fill="#7f8284"/>
      <path id="path218" d="M191.306-194.888c-.054-5.621-.081-10.778-.094-15.3.209-12.422.424-21.784.424-21.784l3.505-22.389s-.463,34.589-3.835,59.477" transform="translate(74.192 590.791)" fill="#244d9b"/>
      <path id="path220" d="M210.469-371.559c2.935,2.7,8.339,4.277,8.339,4.277s-4.323,5.187-18.142,4.153a31.843,31.843,0,0,0-5.123.224c-4.431.411-9.629.822-15.709-2.8,0,0,3.6-20.505,2.023-32.657,0,0-14.189-6.085-10.808-15.318,3.072-8.4,12.646,1.236,14.374,3.072-1.7-2.162-11.9-15.8-4.462-26.959a29.221,29.221,0,0,1,21.17-12.833l11.72,3.15,4.725,11.041s6.315,8.554,6.762,25.678-9.464,23.193-16.676,25.23c0,0-.2,1.915-.215,4.34-.017,3.411.307,7.828,2.021,9.4" transform="translate(66.167 514.727)" fill="#e96759"/>
      <path id="path222" d="M202.485-416.806l-1.766-13.826,7.8,10.884a8.363,8.363,0,0,1-6.03,2.943" transform="translate(77.881 522.398)" fill="#d8413b"/>
      <path id="path224" d="M191.752-419.232a10.213,10.213,0,0,0,2.05,1.982,9.618,9.618,0,0,0,5.739,1.965,9.888,9.888,0,0,0,2.619-.363.927.927,0,0,0,.648-1.138.928.928,0,0,0-1.138-.648,7.933,7.933,0,0,1-2.128.3,7.778,7.778,0,0,1-4.638-1.6,9.411,9.411,0,0,1-1.253-1.114l-.313-.357-.074-.093-.015-.02a.924.924,0,0,0-1.292-.2.924.924,0,0,0-.205,1.292" transform="translate(74.333 526.251)" fill="#17282f"/>
      <path id="path226" d="M190.8-432l.011-.026a8.182,8.182,0,0,1,1.436-2,4.959,4.959,0,0,1,3.548-1.625,4.869,4.869,0,0,1,.781.065.926.926,0,0,0,1.06-.766.927.927,0,0,0-.766-1.062,6.759,6.759,0,0,0-1.075-.087,6.9,6.9,0,0,0-5.073,2.395,9.782,9.782,0,0,0-1.608,2.343.925.925,0,0,0,.461,1.225A.927.927,0,0,0,190.8-432" transform="translate(73.346 519.733)" fill="#17282f"/>
      <path id="path228" d="M204.526-436.861h0a5.988,5.988,0,0,1,.864-.054,7.563,7.563,0,0,1,5.646,2.413.925.925,0,0,0,1.308.059.925.925,0,0,0,.059-1.307,9.424,9.424,0,0,0-7.014-3.017,7.355,7.355,0,0,0-1.181.081.923.923,0,0,0-.755,1.068.923.923,0,0,0,1.068.755" transform="translate(78.938 519.242)" fill="#17282f"/>
      <path id="path230" d="M196.515-428.6c0,1.342-.679,2.428-1.518,2.428s-1.518-1.086-1.518-2.428.681-2.426,1.518-2.426,1.518,1.086,1.518,2.426" transform="translate(75.072 522.246)" fill="#17282f"/>
      <path id="path232" d="M207.607-429.326c0,1.342-.679,2.43-1.518,2.43s-1.516-1.088-1.516-2.43.677-2.426,1.516-2.426,1.518,1.088,1.518,2.426" transform="translate(79.377 521.963)" fill="#17282f"/>
      <path id="path234" d="M188.292-382.486l11.891-1.8,2.906,11.478-5.548,10.3h-3.17l-6.078-9.248v-10.734" transform="translate(73.059 540.38)" fill="#406fbf"/>
      <path id="path236" d="M194.369-368.594l-6.078,54.3,11.1,10.682,8.021-10.937-9.875-54.045h-3.17" transform="translate(73.059 546.469)" fill="#406fbf"/>
      <path id="path238" d="M197.539-362.5h-3.17l-6.078-9.248v-10.734l11.891-1.8,2.906,11.478-5.548,10.3" transform="translate(73.059 540.38)" fill="#2d5bb2"/>
      <path id="path240" d="M199.394-303.611l-11.1-10.682,6.078-54.3h3.17l9.875,54.045-8.021,10.938" transform="translate(73.059 546.469)" fill="#2d5bb2"/>
      <path id="path242" d="M192.242-385.085l6.02,15.851s15.54-7.76,17.809-20.752L204.932-393.8a62.123,62.123,0,0,1-12.69,8.711" transform="translate(74.592 536.691)" fill="#fff"/>
      <path id="path244" d="M180.108-394.544s10.762,5.656,19.773,9.749l-3.531,15.851s-17.813-10.667-23.792-19l7.551-6.6" transform="translate(66.954 536.4)" fill="#fff"/>
      <path id="path246" d="M200.3-399.16a37.048,37.048,0,0,1-8.787-3.381,20.688,20.688,0,0,0,2.5.154,18.056,18.056,0,0,0,6.5-1.112s-.2,1.915-.215,4.34h0" transform="translate(74.31 532.925)" fill="#b25348"/>
      <path id="path248" d="M184.229-411.333s3.511-10.543-2.036-24.048c0,0,21.124,6.061,21.187-13.158,0,0-28.178,4.49-29.626,14.491s8.173,20,10.475,22.715" transform="translate(67.361 515.45)" fill="#17282f"/>
      <path id="path250" d="M200.971-444.41s8.074,11.457,14.992,9.083v-16.641H191.915l-12.7,7.59,8.794,9.052,6.555-5.382,6.4-3.7" transform="translate(69.539 514.119)" fill="#17282f"/>
      <path id="path252" d="M218.283-28.945l-18.05-.925-.448-13.7-.326-9.988,14.607-1.468,2.887.122.635,12.37.694,13.587" transform="translate(77.392 668.137)" fill="#e96759"/>
      <path id="path254" d="M217.589-42.532l-17.8-1.037-.326-9.988,14.607-1.468,2.887.122.635,12.37" transform="translate(77.392 668.137)" fill="#b25348"/>
      <path id="path256" d="M192.385-45.836l34.743-.852,1.958-11.33H193.2l-.811,12.181" transform="translate(74.647 666.976)" fill="#17282f"/>
      <path id="path258" d="M216.4-30.911l.877.3s.081-.244.239-.681a76.409,76.409,0,0,1,3.777-8.794,25.117,25.117,0,0,1,2.819-4.431,6.892,6.892,0,0,1,1.355-1.275,1.889,1.889,0,0,1,1.018-.381l.352.064c.172.067.209.117.235.154a.48.48,0,0,1,.059.276,3.609,3.609,0,0,1-.413,1.39c-1,2.158-3.766,5.415-6.25,8.03-1.242,1.314-2.419,2.483-3.283,3.323s-1.412,1.346-1.412,1.347l.627.68.877.3-.877-.3.627.679c.011-.009,2.939-2.713,5.883-5.939a50.856,50.856,0,0,0,4.083-4.986,16.5,16.5,0,0,0,1.4-2.347,5.3,5.3,0,0,0,.59-2.178,2.338,2.338,0,0,0-.368-1.3,2.285,2.285,0,0,0-1.127-.86,2.8,2.8,0,0,0-1-.181,3.879,3.879,0,0,0-2.31.881,14.435,14.435,0,0,0-3.278,3.987,71.332,71.332,0,0,0-5.373,11.951l-1.168,3.444,2.671-2.469-.627-.679" transform="translate(83.172 670.852)" fill="#406fbf"/>
      <path id="path260" d="M217.312-33.734l.637.669s.091-.085.268-.246a37.564,37.564,0,0,1,4.16-3.267c1.893-1.28,4.1-2.347,5.582-2.322a2.157,2.157,0,0,1,1.549.54l.22.257.018.043.019-.006h-.019v.006l.019-.006h.009l-.028-.009v.009h.028l-.028-.009a1.166,1.166,0,0,1-.439.433,11.145,11.145,0,0,1-2.928,1.222,51.865,51.865,0,0,1-6.028,1.312c-.911.15-1.7.265-2.26.341s-.888.113-.888.113l.107.92.637.669-.637-.669.105.92c.019,0,3.376-.393,6.773-1.14a28.247,28.247,0,0,0,4.758-1.41,7.034,7.034,0,0,0,1.745-1.008,2.912,2.912,0,0,0,.622-.711,1.93,1.93,0,0,0,.281-.981,2.276,2.276,0,0,0-.837-1.656,4.031,4.031,0,0,0-2.8-1.029,9.271,9.271,0,0,0-3.853,1.042,34.284,34.284,0,0,0-7.432,5.3L214.667-32.5l2.75-.318-.105-.92" transform="translate(83.293 673.676)" fill="#406fbf"/>
      <path id="path262" d="M131.65-53.106l-15.3-8.476,4.323-8.692,12.152,7.017,3.478,3.043h0l-2.787,4.26-.07.105-1.793,2.741" transform="translate(45.144 662.22)" fill="#b25348"/>
      <path id="path264" d="M131.7-62.176l-3.478-3.043,3.969,2.293-.491.75" transform="translate(49.75 664.182)" fill="#74352f"/>
      <path id="path266" d="M113.89-66.225,140.426-52.17l6.27-7.708L119.655-75.059l-5.765,8.833" transform="translate(44.19 660.364)" fill="#17282f"/>
      <path id="path268" d="M126.846-44.485l.724.578s.086-.109.253-.309a43.394,43.394,0,0,1,3.826-4.05,18.113,18.113,0,0,1,2.6-2.034,4.36,4.36,0,0,1,2.06-.785.9.9,0,0,1,.562.163h0l.074.061.013.017.115-.077h-.135l.02.077.115-.077h-.054l-.081-.011v.011h.081l-.081-.011-.057.124a6.475,6.475,0,0,1-1.991,1.623,43.38,43.38,0,0,1-5.36,2.639c-.852.358-1.6.658-2.143.866s-.857.325-.858.325l.317.87.724.578-.724-.578.317.871c.015-.008,2.786-1.014,5.588-2.343a29.019,29.019,0,0,0,3.919-2.177,7.922,7.922,0,0,0,1.414-1.2,2.453,2.453,0,0,0,.705-1.584,1.854,1.854,0,0,0-.833-1.5h0a2.771,2.771,0,0,0-1.648-.515,6.574,6.574,0,0,0-3.455,1.333,37.743,37.743,0,0,0-6.733,6.54l-2.053,2.574,3.093-1.127-.317-.871" transform="translate(48.14 668.948)" fill="#406fbf"/>
      <path id="path270" d="M127.93-46.287l.212.9s.271-.064.75-.163a40.666,40.666,0,0,1,7.44-.89,9.638,9.638,0,0,1,3.14.411,2.135,2.135,0,0,1,.788.463.854.854,0,0,1,.255.529l.006.1-.03.155c-.015.026-.087.109-.344.19a3.846,3.846,0,0,1-1.118.132,27.264,27.264,0,0,1-6.741-1.338c-1.127-.341-2.138-.681-2.865-.934s-1.162-.422-1.163-.422l-.33.864.212.9-.212-.9-.33.865c.013.006,1.833.7,4.155,1.4a28.618,28.618,0,0,0,7.274,1.418,4.755,4.755,0,0,0,2.176-.421,2.2,2.2,0,0,0,.846-.758,2.091,2.091,0,0,0,.32-1.149l-.018-.319a2.73,2.73,0,0,0-.77-1.61,4.638,4.638,0,0,0-2.332-1.154,13.553,13.553,0,0,0-2.919-.274,44.486,44.486,0,0,0-8.614,1.1l-2.93.69,2.812,1.075.33-.865" transform="translate(48.419 670.75)" fill="#406fbf"/>
      <path id="path272" d="M132.33-51.72,118.4-59.539a4.211,4.211,0,0,0-5.733,1.611L106.406-46.77a4.211,4.211,0,0,0,1.61,5.734l39.55,22.208a4.211,4.211,0,0,0,5.733-1.61,4.207,4.207,0,0,0-1.033-5.343c-5.113-4.1-15.588-13.5-17.907-23.229a4.213,4.213,0,0,0-2.029-2.708" transform="translate(41.077 666.176)" fill="#17282f"/>
      <path id="path274" d="M218.352-41.233H199.867a4.873,4.873,0,0,0-4.873,4.875V-21.55a4.872,4.872,0,0,0,4.873,4.873h52.494a4.872,4.872,0,0,0,4.873-4.873,4.865,4.865,0,0,0-4.07-4.806c-7.482-1.244-23.38-4.792-31.232-13.3a4.871,4.871,0,0,0-3.581-1.583" transform="translate(75.659 673.488)" fill="#17282f"/>
      <path id="path276" d="M186.66-284.018l-5.807,12.383L170.585-273.1c-9.681,1.544-13.712-3.955-13.712-3.955-2.115-1.914-4.153-3.783-6.083-5.589l11.3-12.97c1.1,1.7,1.745,2.7,1.745,2.7,18.56,2.7,22.822,8.894,22.822,8.894" transform="translate(58.508 574.786)" fill="#e96759"/>
      <path id="path278" d="M297.831-376.255l-3.572,4.786,10.508,9.166,3.085-4.21-10.021-9.742" transform="translate(114.175 543.497)" fill="#fff"/>
      <path id="path280" d="M151.741-280.447l12.129-14.18-4.09-5.2L147.114-284.6l4.627,4.153" transform="translate(57.082 573.152)" fill="#fff"/>
      <path id="path282" d="M318.511-439.018s-4.5,11.615,2.695,22.5,5.635-25.084,5.635-25.084l-8.33,2.58" transform="translate(123.047 518.143)" fill="#17282f"/>
      <path id="path284" d="M360.253-376.707s-44.387,62.19-53.1,59.577-28.689-41.407-28.689-41.407l-1.16-15.335L264.2-391.923,247.449-378.77l8.08,15.007s2.395,7.786,9.5,9.977c0,0,16.356,50.155,37.058,59.581s49.354-50.359,49.354-50.359l8.811-32.143" transform="translate(96.012 537.417)" fill="#f89e63"/>
      <path id="path286" d="M431.819,33.558l-22.932,8.716c-29.555-65.024-53.677-254.69-53.677-254.69s-.688,5.317-1.745,13.871c-3.45,28.308-10.73,91.966-9.324,114.753,2.354,38.324-4.414,133.056-4.414,133.056l-27.849,3.288s.936-93.622-3.015-145.505,8.16-184.973,8.16-184.973l76.566-3.518C406.729-266.327,410-80.475,413.292-63.4s18.527,96.955,18.527,96.955" transform="translate(119.536 580.285)" fill="#17282f"/>
      <path id="path288" d="M309.525-367.833a7.7,7.7,0,0,1,3.313-5.034c6.2-4.14,22.084-14.482,26.37-14.813,5.363-.411,33.412-7.01,44.551,0s18.148,27.64,18.148,27.64-.824,95.288-5.774,126.227l-79.2-1.651s-12.444-104.452-7.406-132.369" transform="translate(119.633 537.819)" fill="#406fbf"/>
      <path id="path290" d="M379.3-333.8l12.376,22.687s1.649,51.151-2.476,64.352l-6.189,12.376v19.8l14.852,2.063,4.125-15.675s2.474-11.55,0-16.5c0,0,17.326-39.6,11.137-73.838,0,0-31.258-68.921-50.433-70.829S379.3-333.8,379.3-333.8" transform="translate(138.534 538.392)" fill="#f89e63"/>
      <path id="path292" d="M368.165-368.007s-12.233,11.794-23.385,11.469-8.119-9.846-8.119-9.846c5.737-1.07,7.619-6.807,8.147-11.731a34.585,34.585,0,0,0-.028-7.43s-13.316,0-20.785-16.238,0-37.674,0-37.674,28.254-7.146,40.922-3.574,2.6,35.4,2.6,35.4c-3.246,17.863.651,39.623.651,39.623" transform="translate(124.425 517.199)" fill="#f89e63"/>
      <path id="path294" d="M337.884-427.868c0,1.279-.69,2.317-1.543,2.317s-1.545-1.038-1.545-2.317.69-2.319,1.545-2.319,1.543,1.038,1.543,2.319" transform="translate(129.903 522.571)" fill="#17282f"/>
      <path id="path296" d="M326.532-426.807c0,1.281-.692,2.319-1.545,2.319s-1.543-1.038-1.543-2.319.692-2.317,1.543-2.317,1.545,1.038,1.545,2.317" transform="translate(125.499 522.983)" fill="#17282f"/>
      <path id="path298" d="M331-426.616l.078,12.42s-3.57,1.164-5.745-1.708L331-426.616" transform="translate(126.234 523.956)" fill="#f57739"/>
      <path id="path300" d="M333.482-413.4a13.024,13.024,0,0,0,3.9-.729,9.788,9.788,0,0,0,5.944-5.254.926.926,0,0,0-.47-1.221.927.927,0,0,0-1.221.472,7.931,7.931,0,0,1-4.862,4.255,12,12,0,0,1-2.347.551c-.3.039-.548.057-.714.068l-.185.007h-.05a.926.926,0,0,0-.925.925.926.926,0,0,0,.925.925" transform="translate(129.035 526.258)" fill="#17282f"/>
      <path id="path302" d="M335.128-433.761l.141-.008c.1-.005.248-.009.437-.009a10.849,10.849,0,0,1,3.187.457,4.347,4.347,0,0,1,2.769,2.141.927.927,0,0,0,1.234.437.926.926,0,0,0,.435-1.234,6.185,6.185,0,0,0-3.873-3.107,12.732,12.732,0,0,0-3.751-.544c-.437,0-.707.02-.727.022a.926.926,0,0,0-.848,1,.928.928,0,0,0,1,.848" transform="translate(129.645 520.46)" fill="#17282f"/>
      <path id="path304" d="M321.819-430.03l-.276-.087.274.092,0-.005-.276-.087.274.092a5.508,5.508,0,0,1,.992-1.634,6.511,6.511,0,0,1,3.7-2.139.925.925,0,0,0,.711-1.1.924.924,0,0,0-1.1-.711,8.366,8.366,0,0,0-4.812,2.854,7.143,7.143,0,0,0-1.258,2.16.926.926,0,0,0,.6,1.164.927.927,0,0,0,1.164-.6" transform="translate(124.167 520.459)" fill="#17282f"/>
      <g id="g306" transform="translate(469.205 129.692)">
        <g id="g308" clip-path="url(#clip-path)">
          <path id="path314" d="M338.042-393.916h10.1v-9.391h-10.1Z" transform="translate(-338.042 403.309)" fill="#dc834c"/>
        </g>
      </g>
      <path id="path316" d="M336.409-380.548l6.712-.627L345-367.139l-3.489,6.411h-3.992l-3.753-6.951,2.641-12.868" transform="translate(129.505 541.588)" fill="#17282f"/>
      <path id="path318" d="M360.615-393.335a102.262,102.262,0,0,1-22.573,17.126l3.986,9.918s16.78-2.9,23.957-22.789l-5.371-4.255" transform="translate(131.163 536.87)" fill="#fff"/>
      <path id="path320" d="M341.659-376.757l-4.506,9.918s-6.807-6.716-8.434-19.691l8.434-5.393s.328,9.723,4.506,15.166" transform="translate(127.546 537.418)" fill="#fff"/>
      <path id="path322" d="M337.957-369.1l-4.577,59.31,7.682,9.32,7.1-9.907L341.227-369.1h-3.27" transform="translate(129.355 546.272)" fill="#17282f"/>
      <path id="path324" d="M376.139-412.164s-16.208,1.977-18.892-21.521c0,0-28.545,8.539-38.866-.222s-1.934-20.126-1.934-20.126a44.2,44.2,0,0,0,3.165,6.394l.006-7.342s4.266,5.447,5.707,6.394a35.68,35.68,0,0,0,24.151-4.66c12.375-7.34,28.134,6.65,25.23,17.48,0,0,13.952,10.888,1.432,23.6" transform="translate(121.537 512.831)" fill="#17282f"/>
      <path id="path326" d="M350.607-420.606s4.362-15.479,11.556-10.029-3.052,20.713-8.067,19.841-3.489-9.812-3.489-9.812" transform="translate(135.954 521.946)" fill="#f89e63"/>
      <path id="path328" d="M259.83-357.294l15.622-8.619s16.775,32.42,26.505,36.49c0,0,19.784-19.961,26.3-44.982l8.863,41.677s-15.342,32.416-34.735,32.879S267.1-336.286,259.83-357.294" transform="translate(100.816 544.214)" fill="#406fbf"/>
      <path id="path330" d="M368.911-346.356l23.533,37.7-3.9,58.524,17.7,3.464s13.641-40.687,7.591-71.534c-4.388-22.375-18.251-50.749-34.337-64.311-6.091-5.136-14.978-7.869-20.169-7.754,0,0-4.353,10.042-4.121,18.509s13.7,25.4,13.7,25.4" transform="translate(137.82 538.058)" fill="#406fbf"/>
      <path id="path332" d="M375.423-323.751s-.168-.507-.466-1.408c.181-5.917.335-11.687.465-17.111l0,0v18.518" transform="translate(145.486 556.683)" fill="#b6b8b6"/>
      <path id="path334" d="M378.79-318.811c-2.324-7.023-12.594-37.981-13.706-39.812.093.15.27.435.518.831l13.652,21.869c-.13,5.424-.283,11.195-.465,17.111m-13.706-39.812-.007-.009h0l.005.009" transform="translate(141.653 550.334)" fill="#3563b7"/>
      <path id="path336" d="M379.275-335.89l0,0-13.652-21.869,13.654,21.869h0M365.1-358.6h0c-.03-.05-.052-.083-.061-.1.009.015.03.048.063.1m-.063-.1-.007-.011.007.011" transform="translate(141.634 550.303)" fill="#3563b7"/>
      <path id="path338" d="M341.835-209.136l-3.788-45.008,5.533,31.138s-.688,5.317-1.745,13.871h0" transform="translate(131.165 590.877)" fill="#111d23"/>
      <path id="path340" d="M392.437-26.977,406.8-33.655l-4.131-11.278-3.017-8.224-12.351,3.6L385-48.507l3.546,10.258,3.9,11.271" transform="translate(149.381 668.862)" fill="#f89e63"/>
      <path id="path342" d="M388.541-38.248h0L385-48.507l2.306-1.047,12.351-3.6,3.017,8.224-14.128,6.685" transform="translate(149.381 668.862)" fill="#dc834c"/>
      <path id="path344" d="M392.541-29.889l.7-.6c-.013-.014-2.174-2.528-4.884-5.063a36.162,36.162,0,0,0-4.3-3.523A8.326,8.326,0,0,0,379.8-40.8a2.747,2.747,0,0,0-1.9.705,2.05,2.05,0,0,0-.707,1.525,2.978,2.978,0,0,0,.844,1.9,14.782,14.782,0,0,0,3.551,2.7,82.72,82.72,0,0,0,10.627,4.949l3.4,1.288-2.374-2.758-.7.6.329-.865s-.218-.083-.609-.237c-1.364-.537-4.8-1.937-7.849-3.531a27.522,27.522,0,0,1-3.96-2.425,6.569,6.569,0,0,1-1.125-1.064,1.1,1.1,0,0,1-.285-.559l.107-.163a.9.9,0,0,1,.65-.217,6.833,6.833,0,0,1,3.224,1.4,42.45,42.45,0,0,1,5.922,5.146c.853.868,1.581,1.649,2.091,2.212s.8.9.8.9l.7-.6.329-.865-.329.865" transform="translate(146.353 673.657)" fill="#406fbf"/>
      <path id="path346" d="M391.353-31.92l.341-.861c-.018-.007-1.2-.477-2.863-.949a22.234,22.234,0,0,0-5.741-.955,7.4,7.4,0,0,0-2.724.448,3.659,3.659,0,0,0-2.012,1.818,2.485,2.485,0,0,0-.263,1.052,1.719,1.719,0,0,0,.415,1.131,2.552,2.552,0,0,0,1.4.765,7.625,7.625,0,0,0,1.693.163,34.171,34.171,0,0,0,6.424-.865c2.014-.425,3.561-.851,3.572-.854l2.669-.733-2.574-1.02-.341.861-.244-.892s-.372.1-.994.257a42.879,42.879,0,0,1-8.511,1.4,4.622,4.622,0,0,1-1.525-.189l-.139-.069-.03-.023-.076.078.1-.043-.022-.036-.076.078.1-.043-.087.037h.1l-.009-.037-.087.037h.1l.085-.259a1.792,1.792,0,0,1,1.027-.894,5.61,5.61,0,0,1,2.036-.315,20.553,20.553,0,0,1,5.236.885c.785.224,1.462.447,1.939.616.239.083.429.152.557.2l.191.072.341-.86-.244-.892.244.892" transform="translate(146.703 676.029)" fill="#406fbf"/>
      <path id="path348" d="M396.8-36.969l15.02-6.067a4.272,4.272,0,0,1,5.559,2.36l4.862,12.037a4.271,4.271,0,0,1-2.362,5.559L377.225-5.849a4.269,4.269,0,0,1-5.558-2.362,4.263,4.263,0,0,1,1.729-5.241c5.672-3.468,17.424-11.569,21.016-21.055a4.274,4.274,0,0,1,2.391-2.462" transform="translate(144.089 672.668)" fill="#17282f"/>
      <path id="path350" d="M314.754-17.731l15.834-.4.707-11.989.514-8.744-12.764-1.621-2.532.043-.84,10.818-.92,11.889" transform="translate(122.127 673.78)" fill="#f89e63"/>
      <path id="path352" d="M315.417-29.62l.84-10.818,2.532-.043,12.764,1.621-.514,8.744-15.622.5" transform="translate(122.384 673.78)" fill="#dc834c"/>
      <path id="path354" d="M315.3-19.394l.885-.274a72.817,72.817,0,0,0-2.778-7.314,29.707,29.707,0,0,0-2.832-5.123,9.021,9.021,0,0,0-1.69-1.817,3.445,3.445,0,0,0-2.091-.814,2.633,2.633,0,0,0-.855.144h0a2.109,2.109,0,0,0-1.086.8,2.185,2.185,0,0,0-.352,1.236,4.942,4.942,0,0,0,.505,1.961c1.049,2.316,3.437,5.2,5.589,7.608s4.049,4.242,4.059,4.252l2.606,2.537-1.077-3.474-.885.274.646-.662s-.148-.147-.415-.413c-.935-.931-3.281-3.328-5.376-5.85a34.8,34.8,0,0,1-2.73-3.687,6.033,6.033,0,0,1-1.072-2.546l.035-.2.155-.089h0l.25-.043a1.658,1.658,0,0,1,.959.426,10.906,10.906,0,0,1,2.358,3.052,48.474,48.474,0,0,1,3.055,6.7c.389,1.031.7,1.93.918,2.569s.333,1.014.333,1.016l.883-.274.646-.662-.646.662" transform="translate(118.149 676.009)" fill="#406fbf"/>
      <path id="path356" d="M315.133-21.881l.655-.653a34.989,34.989,0,0,0-3.348-2.878,21.265,21.265,0,0,0-3.161-2.006,7.934,7.934,0,0,0-3.435-.969,3.611,3.611,0,0,0-2.434.868v0a2.092,2.092,0,0,0-.809,1.56,1.8,1.8,0,0,0,.255.912,3.372,3.372,0,0,0,1.171,1.1,13.805,13.805,0,0,0,3.055,1.277A61.2,61.2,0,0,0,315-20.965l2.741.393-1.954-1.962-.655.653.13-.916s-.707-.1-1.782-.293a50.7,50.7,0,0,1-6-1.4,12.056,12.056,0,0,1-2.408-.993,2.317,2.317,0,0,1-.559-.428l-.065-.09-.03.013.031-.007,0-.006-.03.013.031-.007-.144.031h.148l0-.031-.144.031h.009l.133.037.006-.037h-.139l.133.037h0l.178-.2h0a1.75,1.75,0,0,1,1.216-.411,6.223,6.223,0,0,1,2.608.774,22.692,22.692,0,0,1,4.129,2.828c.572.477,1.049.906,1.382,1.217l.385.365.13.126.655-.653.13-.916-.13.916" transform="translate(117.412 678.472)" fill="#406fbf"/>
      <path id="path358" d="M325.567-28.441l16.193.424a4.27,4.27,0,0,1,4.158,4.38l-.341,12.977A4.269,4.269,0,0,1,341.2-6.5L295.209-7.708a4.272,4.272,0,0,1-4.158-4.382,4.265,4.265,0,0,1,3.675-4.116c6.587-.92,20.592-3.663,27.669-10.931a4.266,4.266,0,0,1,3.172-1.3" transform="translate(112.93 678.451)" fill="#17282f"/>
      <path id="path360" d="M382.572-36.129l-7.95-13.826,34.567-12.79,2.419,18.319-29.035,8.3" transform="translate(145.357 665.141)" fill="#406fbf"/>
      <path id="path362" d="M308.143-49.625v17.883h36.264l1.382-17.883H308.143" transform="translate(119.562 670.232)" fill="#406fbf"/>
      <path id="path364" d="M469.283-362.5s-10.51,41.455-21.6,54.3c0,0-20.145-20.145-26.274-37.661,0,0-.585-8.174-6.424-11.678L406.223-369.5l-14.594,5.254,3.5,11.678,15.181,8.467s19.269,53.131,36.784,52.84,25.4-23.648,25.4-23.648l9.633-49.92L469.283-362.5" transform="translate(151.955 546.117)" fill="#f46b74"/>
      <path id="path366" d="M405.29-338.635l10.815-6.729s18.388,30.062,27,36.086c0,0,10.715-19.543,14.383-35.624a266.358,266.358,0,0,1,7.081-25.867l12.257,17.744s-8.062,56.518-24.707,62.253S426.043-301.3,422.247-307.7s-16.958-30.938-16.958-30.938" transform="translate(157.256 545.626)" fill="#17282f"/>
      <path id="path368" d="M472.07-49.917c0,.683,11.15,16.382,11.15,16.382l11.617-15.018L482.309-66.3,472.07-49.917" transform="translate(183.167 663.761)" fill="#f46b74"/>
      <path id="path370" d="M479.91-42.952l12.044-13.036a4.682,4.682,0,0,1,6.612-.263L509.012-46.6a4.68,4.68,0,0,1,.263,6.613L475.068-2.963a4.682,4.682,0,0,1-6.614.263,4.674,4.674,0,0,1-.737-6c4-6.091,11.854-19.613,10.975-30.691a4.68,4.68,0,0,1,1.218-3.559" transform="translate(181.181 667.179)" fill="#17282f"/>
      <path id="path372" d="M454.111-51.471l33.745-29.607,12.416,25.787-23.08,20.054L454.111-51.471" transform="translate(176.199 658.028)" fill="#406fbf"/>
      <path id="path374" d="M455.548-301.475s-36.4,158.9-36.98,197.041S451.2-.182,472.306,30.776L500.619,8.242,459.59-91.722l19.042-124.443L500.619,35.978l27.159,3.466s3.468-95.343,0-130.012,15.794-152.547,1.542-197.619l-73.772-13.29" transform="translate(162.405 572.512)" fill="#17282f"/>
      <path id="path376" d="M519.471-257.944s6.192-59.116,18.1-82.268L542.2-367s-8.6-10.584-28.114-10.253-28.1-1.915-28.1-1.915-25.478-1.723-31.432,3.9-6.283,31.089-7.275,43.326-3.34,68.467-3.34,68.467l75.53,5.532" transform="translate(172.253 542.27)" fill="#406fbf"/>
      <path id="path378" d="M503.974-379.264S474.608-344.936,480.164-258l34.282,5.88-4.558-36.053,21.973-65.91s4.529-20.509-27.886-25.178" transform="translate(186.036 542.329)" fill="#17282f"/>
      <path id="path380" d="M487.164-379.053S455.6-356,453.173-267.515l-16.539.472,13.534-70.779a32.455,32.455,0,0,1-.881-19.932c1.793-6.366,3.846-13.839,8.106-17.363,6.773-5.6,17.552-5.126,29.772-3.936" transform="translate(169.418 542.118)" fill="#17282f"/>
      <path id="path382" d="M522.064-363.11s19.649,47.712,14.761,67.019c0,0-33.9-8.724-49.535-23.877,0,0-4.91-8.269-12.875-8.874L458.936-336.8l-12.551,13.184L456.2-313.2l20.376.9s48.138,45.612,66.36,36.1c8.541-4.458,12.2-13.121,13.675-21.066a51.852,51.852,0,0,0-1.249-23.463L542.251-367.4l-20.187,4.288" transform="translate(173.201 546.934)" fill="#f46b74"/>
      <path id="path384" d="M467.192-307.5l13.4-15.6s29.761,22.95,48.156,27.253c0,0-2.441-25.2-7.4-46.665l-9.213-15.934.838-6.7,22.43-2.891s20.357,56.9,14.959,77.406-17.01,22.539-36.553,14.977-46.626-31.85-46.626-31.85" transform="translate(181.275 546.687)" fill="#17282f"/>
      <path id="path386" d="M503.205-18.376h-18.64l-1.081-15.509-.535-7.754-.311-4.477L503.191-44.4v10.512l.015,15.509" transform="translate(187.268 671.594)" fill="#f46b74"/>
      <path id="path388" d="M493.884-31.129h17.75a4.679,4.679,0,0,1,4.679,4.678v14.223a4.68,4.68,0,0,1-4.679,4.68H461.225a4.68,4.68,0,0,1-4.678-4.68,4.673,4.673,0,0,1,3.907-4.614c7.186-1.2,22.451-4.6,29.992-12.768a4.68,4.68,0,0,1,3.439-1.519" transform="translate(177.144 677.409)" fill="#17282f"/>
      <path id="path390" d="M498.35-379.077q-.605-.1-1.227-.187c.422.044.835.094,1.244.146l-.017.041" transform="translate(192.888 542.329)" fill="#fbfbfa"/>
      <path id="path392" d="M518.327-370.781c-3.977-3.555-10.306-6.725-20.32-8.337l.017-.041c12.783,1.673,19.314,7.438,20.3,8.378" transform="translate(193.231 542.37)" fill="#fefefe"/>
      <path id="path394" d="M481.477-322.233a170.118,170.118,0,0,1,8.561-34.815,183.067,183.067,0,0,0-8.561,34.815m13.608-46.924c.2-.424.405-.836.607-1.242-.2.4-.4.816-.607,1.242" transform="translate(186.817 545.769)" fill="#4d79c6"/>
      <path id="path396" d="M481.472-318.74a.522.522,0,0,0,.007-.054,183.064,183.064,0,0,1,8.561-34.815c1.53-4.214,3.109-7.987,4.632-11.235q.208-.444.415-.874c.205-.426.407-.838.607-1.242.9-1.8,1.764-3.411,2.572-4.823l.142-.065,4.788-7.4c0-.006,0-.011,0-.017a0,0,0,0,1,0,0h0q.622.089,1.227.187c10.014,1.612,16.343,4.782,20.32,8.337.091.083.135.129.135.129L512.191-361.4l-4.751.613-.392,3.122-8.58,6.233,4.727,15.124L481.472-318.74" transform="translate(186.815 542.329)" fill="#2b3c43"/>
      <path id="path398" d="M499.9-362.658l.392-3.122,4.751-.613-5.143,3.735" transform="translate(193.965 547.324)" fill="#2b3c43"/>
      <path id="path400" d="M454.171-377.382a16.742,16.742,0,0,1,2.783-1.07,21.023,21.023,0,0,0-2.783,1.07m25.556-1.758c-.117,0-.237-.009-.361-.015-3.337-.315-6.559-.564-9.614-.639a96.137,96.137,0,0,1,9.975.653" transform="translate(176.222 542.124)" fill="#fefefe"/>
      <path id="path402" d="M454.655-331.04c4.427-16.169,9.868-27.421,14.585-34.957-8.286,13.921-13.738,32.065-14.576,34.948l-.009.009m25.487-48.175.03-.022h0l-.03.022m.03-.022c-.331-.033-.663-.065-.994-.1.124.005.244.011.361.015.409.05.633.081.633.081" transform="translate(176.41 542.302)" fill="#4d79c6"/>
      <path id="path404" d="M456.312-330.676l-6.381-18.12,7.719-2.428-1.888-26.13.054-.028a21.025,21.025,0,0,1,2.784-1.07,44.621,44.621,0,0,1,11.929-1.345c.292,0,.581,0,.868,0,3.055.074,6.278.324,9.614.639.331.031.663.063.994.1h0l-.03.022c-4,2.987-7.665,7.78-10.9,13.217-4.717,7.536-10.158,18.788-14.585,34.957l-.176.185" transform="translate(174.577 542.123)" fill="#2b3c43"/>
      <path id="path406" d="M454.6-344.153l-.072-.2.176-.185.009-.009c-.076.259-.113.394-.113.394" transform="translate(176.361 555.8)" fill="#f5777f"/>
      <path id="path408" d="M528.882-423.074c3.564,8.9-.261,18.914.089,28.493.159,4.358,1.2,8.654,1.3,13.014s-.894,9.042-4.079,12.024c-2.893,2.706-7.018,3.531-10.915,4.244-6.054,1.107-12.648,2.139-18.085-.744-1.258-.664-2.413-1.527-3.722-2.086-2.6-1.116-5.546-.948-8.363-.711s-5.735.511-8.408-.416c-8.672-3.015-2.706-14.926-1.221-21.048q3.4-14.019,6.8-28.038c9.355-1.9,18.625-4.425,27.979-6.324,3.107-.631,6.355-1.257,9.409-.409,2.95.82,6.3,2.944,9.213,2" transform="translate(183.178 524.395)" fill="#17282f"/>
      <path id="path410" d="M526.066-398.917c-1.083,2.906-2.656,5.026-4.388,5.931-2.18,1.142-2.508,3.172-2.328,5.633.4,5.606,3.409,13.4-6.97,17.853a8.833,8.833,0,0,1-9.55-1.07c-7.293-5.737-9.607-21.884-9.607-21.884l-13.255-38.194v-.015l.161-.237.12-.193.163-.207a20.439,20.439,0,0,1,1.542-1.84c.37-.429.814-.874,1.32-1.364,4.819-4.477,14.783-10.2,29.105-.651,15.777,10.512,17.1,27.162,13.686,36.236" transform="translate(186.232 518.632)" fill="#17282f"/>
      <path id="path412" d="M530.071-396.8c.163,4.432-3.916,6.968-7.488,8.347a27.045,27.045,0,0,1-5.265,1.423C514.055-381.6,507-377.8,507-377.8a29.418,29.418,0,0,0-.935,6.137,73.228,73.228,0,0,0,.949,15.02l-4.788,7.4c-19.884,9.1-26.987-7.382-26.987-7.382,7.3-.773,9.638-6.91,10.319-12.04a30.07,30.07,0,0,0,.059-7.118c-2.5-.668-10.584-5.471-12.958-15.449-2.356-9.949-.429-19.319,3.679-28.528a66.97,66.97,0,0,1,5.943-10.482c.15-.222.505-.816.92-1.5v-.015l.163-.237.283-.4.089-.133c.341-.431.831-1.04,1.453-1.706l.1-.03,24.969-3.246,10.852,8.672,3.8,21.457-5.532,6.611-2.313,2.759-.563.668c.237-.209.472-.416.711-.609,4.4-3.648,10.038-5.606,12.085-2.062a7.021,7.021,0,0,1,.772,3.218" transform="translate(183 519.729)" fill="#f46b74"/>
      <path id="path414" d="M490.349-418.936c-.318,1.325-1.277,2.23-2.143,2.023s-1.31-1.449-.992-2.776,1.277-2.232,2.143-2.023,1.308,1.449.992,2.776" transform="translate(189.003 525.848)" fill="#17282f"/>
      <path id="path416" d="M480.1-421.692c-.317,1.325-1.275,2.232-2.141,2.025s-1.31-1.451-.992-2.776,1.277-2.232,2.141-2.025,1.31,1.451.992,2.776" transform="translate(185.028 524.778)" fill="#17282f"/>
      <path id="path418" d="M489.844-421.116l-3.426-1.932s.605,3.581,3.426,1.932" transform="translate(188.735 525.341)" fill="#17282f"/>
      <path id="path420" d="M479.659-423.787l-3.426-1.93s.6,3.581,3.426,1.93" transform="translate(184.783 524.305)" fill="#17282f"/>
      <path id="path422" d="M483.834-421.343l-3.263,11.706s-3.442.957-4.338-2.363l7.6-9.342" transform="translate(184.783 526.002)" fill="#f14358"/>
      <path id="path424" d="M482.337-404.306a11.385,11.385,0,0,0,1.54.091,12.637,12.637,0,0,0,5.145-1.031,8.654,8.654,0,0,0,4.725-5.237.927.927,0,0,0-.574-1.177.928.928,0,0,0-1.177.576,6.775,6.775,0,0,1-3.74,4.153,10.79,10.79,0,0,1-4.379.866c-.4,0-.724-.018-.946-.037l-.252-.024-.072-.009a.928.928,0,0,0-1.051.781.925.925,0,0,0,.781,1.049" transform="translate(186.844 529.74)" fill="#17282f"/>
      <path id="path426" d="M490.221-425.076l-.031-.057.031.057h0l-.031-.057.031.057a5.431,5.431,0,0,1,2.3-.539,4.179,4.179,0,0,1,2.093.544,5.943,5.943,0,0,1,2.171,2.313.924.924,0,0,0,1.264.341.925.925,0,0,0,.341-1.262,7.8,7.8,0,0,0-2.863-3,6.063,6.063,0,0,0-3.006-.785,7.113,7.113,0,0,0-3.2.77.923.923,0,0,0-.363,1.257.923.923,0,0,0,1.257.363" transform="translate(189.678 523.627)" fill="#17282f"/>
      <path id="path428" d="M484.265-430.08a6.84,6.84,0,0,0-3.531-1.046,5.424,5.424,0,0,0-2.7.713,7.235,7.235,0,0,0-2.556,2.6.926.926,0,0,0,.3,1.273.927.927,0,0,0,1.273-.305,5.433,5.433,0,0,1,1.893-1.964,3.569,3.569,0,0,1,1.788-.47,4.828,4.828,0,0,1,1.791.376,5.394,5.394,0,0,1,.542.257l.135.08.03.018h0a.926.926,0,0,0,1.284-.252.926.926,0,0,0-.252-1.284" transform="translate(184.436 522.207)" fill="#17282f"/>
      <path id="path430" d="M523.566-406.977l-9.594,9.044-.148-.059c-16.029-5.071-12.8-34.741-12.8-34.741-4.547,2.9-20.609,1.3-21.037.959a22.558,22.558,0,0,1,3-3.538c.7-.685,2.937-.481,3.866-.555l5.9-.476q5.974-.48,11.952-.962c.342-.028,2.023-.413,2.31-.185l10.852,8.672,5.695,21.842" transform="translate(186.241 519.709)" fill="#17282f"/>
      <path id="path432" d="M481.667-385.924a29.688,29.688,0,0,0,.241-3.814,27.2,27.2,0,0,0-.181-3.3,27.256,27.256,0,0,0,7.723,1.281c.15,0,.3,0,.448-.005,0,0-3.233,4.492-8.23,5.843" transform="translate(186.891 536.983)" fill="#ea5b5b"/>
      <path id="path434" d="M459.542-219.17l3.189-20.842,0,.018-3.191,20.824" transform="translate(178.306 596.36)" fill="#a7a9a8"/>
      <path id="path436" d="M458.894-206l2.045-52.842,2.047,26.139,0,.013,0-.018-3.189,20.842-.9,5.867" transform="translate(178.055 589.055)" fill="#0f191d"/>
      <path id="path438" d="M503.1-34.867c-3.744-.007-7.989-.011-11.639-.011s-6.7,0-8.067.011h0l-.535-7.754,20.241-.964v8.719" transform="translate(187.355 672.576)" fill="#f36466"/>
      <path id="path440" d="M474.752-58.475l4.777,26.742h29.289l4.023-28.015-38.089,1.273" transform="translate(184.208 666.304)" fill="#406fbf"/>
    </g>
  </g>
</svg>
