<svg xmlns="http://www.w3.org/2000/svg" width="53.332" height="56.893" viewBox="0 0 53.332 56.893"><defs><style>.a{fill:#b1f1fe;}.b{fill:#2e53bf;}</style></defs><rect class="a" width="27.173" height="11.646" transform="translate(13.079 43.972)"/><path class="b" d="M46.183,14.661l-.052.823a1.211,1.211,0,0,1-.6.948,2.99,2.99,0,0,1-1.434.483H39.411a5.665,5.665,0,0,0-5.646,5.674v4.264c0,.119,0,.146,0,.045,0-.06,0-.069,0,.056v1.861a.89.89,0,0,0,0,.132V32.7a9.465,9.465,0,0,0,2.278,6.129v1.458L30.685,34.93a7.27,7.27,0,0,0-1.618-7.448A7.369,7.369,0,0,0,18.646,37.9a7.273,7.273,0,0,0,7.445,1.615l6.23,6.23L25.98,49.365A8.211,8.211,0,0,0,21.82,56.5V71.554h42.67V56.5a8.212,8.212,0,0,0-4.157-7.132h0l-6.355-3.629,6.306-6.309a7.23,7.23,0,0,0,7.4-1.611,7.326,7.326,0,0,0,1.788-7.435.889.889,0,0,0-1.476-.354L63.83,34.19l-2.59-.288-.285-2.59,4.157-4.157a.889.889,0,0,0-.354-1.476,7.339,7.339,0,0,0-7.431,1.781,7.227,7.227,0,0,0-1.6,7.393l-5.455,5.455V38.985A9.476,9.476,0,0,0,52.673,32.7V26.953c0-.1,0-.088,0-.045s0,.058,0-.049v-6.3l-.01-.056a7.731,7.731,0,0,0-1.632-4.118,5.145,5.145,0,0,0-4.018-1.726Zm1.153,1.9a3.241,3.241,0,0,1,2.347.979,6.1,6.1,0,0,1,1.212,3.17v6.143c0-.092,0-.074,0,.035,0,.137,0,.134,0,.056v.51a5.153,5.153,0,0,0-1.59-.58,17.087,17.087,0,0,0-3.771-.076,11.619,11.619,0,0,1-3.4-.208,3.668,3.668,0,0,1-2.389-1.858.89.89,0,0,0-1.629.215c.022-.084-.151.282-.448.632a11.967,11.967,0,0,1-1.132,1.142,10.517,10.517,0,0,1-.99.764v-.542c0,.1,0,.065,0-.049,0-.137,0-.127,0-.049V22.588a3.855,3.855,0,0,1,3.868-3.9h4.8a4.608,4.608,0,0,0,2.34-.8C46.96,17.6,47.087,17.032,47.335,16.564Zm-8.251,10.06a5.737,5.737,0,0,0,2.577,1.684,12.788,12.788,0,0,0,3.948.274,16.811,16.811,0,0,1,3.375.045,2.572,2.572,0,0,1,1.91,1.174v2.893a7.676,7.676,0,1,1-15.352,0V29.582a5.888,5.888,0,0,0,.684-.389,11.793,11.793,0,0,0,1.486-1.139,13.483,13.483,0,0,0,1.306-1.323C39.049,26.7,39.056,26.657,39.085,26.623Zm-15.227.469a5.6,5.6,0,0,1,5.118,7.844.889.889,0,0,0,.184.986l6.882,6.882v.813l-1.493.854a.889.889,0,0,0-.326.184l-.3.174-6.841-6.837a.889.889,0,0,0-.986-.188,5.587,5.587,0,0,1-6.191-1.16h0A5.6,5.6,0,0,1,23.858,27.1Zm38.593.208L59.4,30.353a.889.889,0,0,0-.257.733l.413,3.719a.889.889,0,0,0,.785.785L64.059,36a.889.889,0,0,0,.726-.257l3.059-3.059a5.372,5.372,0,0,1-1.42,3.872,5.539,5.539,0,0,1-6.146,1.156.889.889,0,0,0-.986.184l-6.917,6.921-2.108-1.2v-.792l6.98-6.98a.889.889,0,0,0,.188-.99,5.532,5.532,0,0,1,1.149-6.136A5.37,5.37,0,0,1,62.451,27.3Zm-37.61.955a.9.9,0,0,0-.219.031l-3.545.99a.918.918,0,0,0-.635.635l-.986,3.545a.875.875,0,0,0,.219.854l2.556,2.559a.875.875,0,0,0,.858.219l3.545-.99a.9.9,0,0,0,.639-.635l.983-3.545a.875.875,0,0,0-.219-.854L25.48,28.506a.869.869,0,0,0-.639-.25Zm-.271,1.882,1.837,1.837L25.7,34.523l-2.556.715L21.3,33.395l.712-2.549ZM37.821,40.5a9.37,9.37,0,0,0,10.667.1v1.615c0,.561-.418,1.193-1.375,1.74a8.915,8.915,0,0,1-7.917,0c-.957-.547-1.375-1.178-1.375-1.74Zm-.4,4.379a5.928,5.928,0,0,0,.892.622A10.653,10.653,0,0,0,48,45.5a5.928,5.928,0,0,0,.892-.622l1.455.83L47.436,57.33h-8.7L35.852,45.774Zm14.525,1.747,3.063,1.75-3.073,12.3,0,.024c-.252,1.144-.989,1.969-1.976,1.969a1.443,1.443,0,0,1-1.6-1.66l3.594-14.376Zm-17.7.066L37.824,61a1.443,1.443,0,0,1-1.6,1.66c-.986,0-1.724-.825-1.976-1.969q0-.016,0-.031L31.185,48.437Zm22.37,2.6,2.834,1.618a6.425,6.425,0,0,1,3.261,5.587V69.772H57.378V58.216a.889.889,0,0,0-.889-.889H54.607Zm-27.04.066,1.993,7.973H29.82a.889.889,0,0,0-.889.889V69.772H23.6V56.494a6.425,6.425,0,0,1,3.261-5.587h0ZM30.709,59.1h1.306l.493,1.969a3.994,3.994,0,0,0,3.712,3.361,3.327,3.327,0,0,0,3.372-3.667.889.889,0,0,0-.017-.108L39.186,59.1h7.806L46.6,60.664a.89.89,0,0,0-.017.1,3.327,3.327,0,0,0,3.372,3.667,3.994,3.994,0,0,0,3.712-3.361l.493-1.972H55.6V69.769H30.709Zm5.157,0a.889.889,0,1,0,.889.889A.889.889,0,0,0,35.866,59.1Zm14.445,0a.889.889,0,1,0,.889.889A.889.889,0,0,0,50.311,59.1Z" transform="translate(-16.493 -14.661)"/></svg>