<svg xmlns="http://www.w3.org/2000/svg" width="28" height="28" viewBox="0 0 28 28"><defs><style>.a{fill:#ef5ab3;}.b{fill:#fff;}</style></defs><g transform="translate(-869 -326)"><rect class="a" width="28" height="28" rx="14" transform="translate(869 326)"/><g transform="translate(874 332.168)"><path class="b" d="M16.29,56.467H2.108A2.11,2.11,0,0,1,0,54.359V44.776a2.11,2.11,0,0,1,2.108-2.108h4.6a.575.575,0,1,1,0,1.15h-4.6a.96.96,0,0,0-.958.958v9.583a.96.96,0,0,0,.958.958H16.29a.96.96,0,0,0,.958-.958V44.776a.96.96,0,0,0-.958-.958h-4.6a.575.575,0,1,1,0-1.15h4.6A2.11,2.11,0,0,1,18.4,44.776v9.583A2.11,2.11,0,0,1,16.29,56.467Zm0,0" transform="translate(0 -41.135)"/><path class="b" d="M175.459,4.216h-3.45a1.343,1.343,0,0,1-1.341-1.342V1.342A1.343,1.343,0,0,1,172.009,0h3.45A1.343,1.343,0,0,1,176.8,1.342V2.875A1.343,1.343,0,0,1,175.459,4.216Zm-3.45-3.066a.192.192,0,0,0-.192.192V2.875a.192.192,0,0,0,.192.192h3.45a.192.192,0,0,0,.192-.192V1.342a.192.192,0,0,0-.192-.192Zm0,0" transform="translate(-164.535)"/><path class="b" d="M108.584,153.165a1.917,1.917,0,1,1,1.916-1.916A1.919,1.919,0,0,1,108.584,153.165Zm0-2.683a.767.767,0,1,0,.767.767A.768.768,0,0,0,108.584,150.482Zm0,0" transform="translate(-102.835 -143.966)"/><path class="b" d="M70.324,280.4a.575.575,0,0,1-.575-.575v-.383a.96.96,0,0,0-.958-.958H66.108a.96.96,0,0,0-.958.958v.383a.575.575,0,1,1-1.15,0v-.383a2.11,2.11,0,0,1,2.108-2.108h2.683A2.11,2.11,0,0,1,70.9,279.44v.383A.575.575,0,0,1,70.324,280.4Zm0,0" transform="translate(-61.7 -267.366)"/><path class="b" d="M303.459,161.15h-4.216a.575.575,0,1,1,0-1.15h4.216a.575.575,0,1,1,0,1.15Zm0,0" transform="translate(-287.936 -154.251)"/><path class="b" d="M303.459,246.482h-4.216a.575.575,0,1,1,0-1.15h4.216a.575.575,0,0,1,0,1.15Zm0,0" transform="translate(-287.936 -236.516)"/><path class="b" d="M303.459,331.818h-4.216a.575.575,0,1,1,0-1.15h4.216a.575.575,0,1,1,0,1.15Zm0,0" transform="translate(-287.936 -318.786)"/></g></g></svg>