<svg xmlns="http://www.w3.org/2000/svg" width="20.997" height="25.725" viewBox="0 0 20.997 25.725"><defs><style>.a,.b{fill:#fff;}.a{stroke:#fff;stroke-width:0.5px;}</style></defs><g transform="translate(-1044.492 -198.143)"><path class="a" d="M28.492,6.62a.363.363,0,0,0-.035-.091.162.162,0,0,0-.028-.043.189.189,0,0,0-.035-.043L24.059,2.107a.189.189,0,0,0-.043-.035.162.162,0,0,0-.043-.028.363.363,0,0,0-.106-.051.3.3,0,0,0-.1,0H8.394A.394.394,0,0,0,8,2.387V26.82a.394.394,0,0,0,.394.394H28.1a.394.394,0,0,0,.394-.394V6.722A.3.3,0,0,0,28.492,6.62ZM24.157,3.337l2.991,2.991H24.157ZM27.7,26.426H8.788V2.781H23.369V6.722a.394.394,0,0,0,.394.394H27.7Z" transform="translate(1036.742 196.404)"/><path class="b" d="M16.583,17.517A3.547,3.547,0,0,0,13.06,20.67h7.046A3.547,3.547,0,0,0,16.583,17.517Zm0-.788A4.292,4.292,0,0,1,17.8,16.9a4.729,4.729,0,0,0,1.092-2.932c0-1.97-1.738-1.97-2.309-1.97s-2.309,0-2.309,1.97A4.729,4.729,0,0,0,15.365,16.9a4.292,4.292,0,0,1,1.218-.173Zm3.547-.394a.394.394,0,0,0,.394.394h9.064a.394.394,0,1,0,0-.788H20.524A.394.394,0,0,0,20.13,16.335Zm7.882,1.97a.394.394,0,1,0,0-.788H20.918a.394.394,0,1,0,0,.788ZM16.583,27.763a3.547,3.547,0,0,0-3.523,3.153h7.046A3.547,3.547,0,0,0,16.583,27.763Zm1.218-.615a4.729,4.729,0,0,0,1.092-2.932c0-1.97-1.738-1.97-2.309-1.97s-2.309,0-2.309,1.97a4.729,4.729,0,0,0,1.092,2.932A4.362,4.362,0,0,1,17.8,27.148Zm11.787-.962H20.524a.394.394,0,0,0,0,.788h9.064a.394.394,0,0,0,0-.788Zm-1.576,1.576H20.918a.394.394,0,1,0,0,.788h7.093a.394.394,0,1,0,0-.788Z" transform="translate(1033.676 190.338)"/></g></svg>