<svg xmlns="http://www.w3.org/2000/svg" width="20.969" height="25.692" viewBox="0 0 20.969 25.692"><defs><style>.a,.b{fill:#5382fc;}.a{stroke:#5382fc;stroke-width:0.5px;}</style></defs><g transform="translate(0.25 0.25)"><path class="a" d="M28.465,6.613a.362.362,0,0,0-.035-.091A.161.161,0,0,0,28.4,6.48a.189.189,0,0,0-.035-.043L24.037,2.107a.189.189,0,0,0-.043-.035.161.161,0,0,0-.043-.028.362.362,0,0,0-.106-.051.3.3,0,0,0-.1,0H8.394A.394.394,0,0,0,8,2.387v24.4a.394.394,0,0,0,.394.394H28.071a.394.394,0,0,0,.394-.394V6.716A.3.3,0,0,0,28.465,6.613ZM24.136,3.335l2.987,2.987H24.136Zm3.542,23.058H8.787V2.78H23.348V6.716a.394.394,0,0,0,.394.394h3.936Z" transform="translate(-8 -1.989)"/><path class="b" d="M16.578,17.51a3.542,3.542,0,0,0-3.518,3.148H20.1A3.542,3.542,0,0,0,16.578,17.51Zm0-.787a4.286,4.286,0,0,1,1.216.173,4.723,4.723,0,0,0,1.09-2.928C18.885,12,17.149,12,16.578,12s-2.306,0-2.306,1.968a4.723,4.723,0,0,0,1.09,2.928,4.286,4.286,0,0,1,1.216-.173Zm3.542-.394a.394.394,0,0,0,.394.394h9.052a.394.394,0,1,0,0-.787H20.514A.394.394,0,0,0,20.12,16.329ZM27.991,18.3a.394.394,0,1,0,0-.787H20.907a.394.394,0,1,0,0,.787ZM16.578,27.742A3.542,3.542,0,0,0,13.06,30.89H20.1A3.542,3.542,0,0,0,16.578,27.742Zm1.216-.614a4.723,4.723,0,0,0,1.09-2.928c0-1.968-1.736-1.968-2.306-1.968s-2.306,0-2.306,1.968a4.723,4.723,0,0,0,1.09,2.928A4.357,4.357,0,0,1,17.794,27.128Zm11.771-.96H20.514a.394.394,0,0,0,0,.787h9.052a.394.394,0,0,0,0-.787Zm-1.574,1.574H20.907a.394.394,0,1,0,0,.787h7.084a.394.394,0,1,0,0-.787Z" transform="translate(-11.069 -8.06)"/></g></svg>