<svg xmlns="http://www.w3.org/2000/svg" width="295.967" height="449.669" viewBox="0 0 295.967 449.669"><defs><style>.a{opacity:0.272;}.b{fill:#eaebf2;}.c{opacity:0.27;}</style></defs><g transform="translate(-1462 -363)"><g class="a" transform="translate(1462 363)"><path class="b" d="M263.3,105.614,284.546,84.37l-20.9-20.911L240.918,86.185a146.9,146.9,0,0,0-70.3-26.314V29.566h29.566V0h-88.7V29.566h29.566V59.871a146.9,146.9,0,0,0-70.3,26.314L48.018,63.46,27.115,84.37l21.243,21.243a147.83,147.83,0,1,0,214.945,0ZM155.83,325.226A118.264,118.264,0,1,1,274.094,206.962,118.264,118.264,0,0,1,155.83,325.226Z" transform="translate(-8 0)"/><path class="b" d="M112.7,32v88.7H24A88.7,88.7,0,1,0,112.7,32Z" transform="translate(35.132 86.264)"/></g><g class="c" transform="translate(1607 731.379)"><path class="b" d="M5.808,304.555H34.836a5.806,5.806,0,1,1,0,11.613H5.808a5.806,5.806,0,1,1,0-11.613Zm0,0" transform="translate(110.322 -304.555)"/><path class="b" d="M87.1,378.8a5.808,5.808,0,0,1-5.808,5.808H5.808a5.806,5.806,0,1,1,0-11.613H81.29A5.806,5.806,0,0,1,87.1,378.8Zm0,0" transform="translate(63.869 -338.155)"/><path class="b" d="M5.806,441.43H145.158a5.806,5.806,0,1,1,0,11.613H5.806a5.806,5.806,0,1,1,0-11.613Zm0,0" transform="translate(0 -371.753)"/></g></g></svg>