<svg xmlns="http://www.w3.org/2000/svg" width="422.346" height="414.566" viewBox="0 0 422.346 414.566"><defs><style>.a{fill:#e9e9e8;}.b{fill:#e3e3e2;}.c{fill:#f4f4f4;}.d{fill:#fff;}.e{fill:#d5d5d5;}.f{fill:#1d2a30;}.g{fill:#5382fc;}.h{fill:#365462;}.i{fill:#ebebe4;font-size:7px;font-family:Montserrat-Regular, Montserrat;}.j{fill:#f03658;}.k{fill:#b7cbff;}.l{fill:#b7cbfe;}.m{fill:#f9ad95;}.n{fill:#f6865e;}.o{fill:#c1c0be;}.p{fill:#d82b43;}.q{fill:#182124;}.r{fill:#cecdcc;}.s{fill:#2a414c;}</style></defs><g transform="translate(-181.156 -530.324)"><rect class="a" width="156" height="78" transform="translate(181.524 624.324)"/><path class="b" d="M352.114-216.6H512.135v-91.788H352.114Zm161.009.989h-162v-93.766h162v93.766" transform="translate(90.378 1024.874)"/><path class="c" d="M487.267-238.816h-106.9v-3.136h106.9v3.136" transform="translate(82.819 1007.441)"/><path class="c" d="M494.63-222.767H380.363v-3.422H494.63v3.422" transform="translate(82.819 1003.367)"/><path class="c" d="M494.63-206.822H380.363v-3.422H494.63v3.422" transform="translate(82.819 999.244)"/><path class="c" d="M417.725-256.707H380.363v-8.136h37.362v8.136" transform="translate(82.819 1013.361)"/><path class="b" d="M512.8-293.785H351.792v-14.927H512.8v14.927" transform="translate(90.206 1024.702)"/><path class="d" d="M552.228-295.242c-.206-.2,1.87-2.7,4.634-5.589s5.172-5.074,5.378-4.877-1.868,2.7-4.634,5.589-5.172,5.074-5.378,4.877" transform="translate(38.39 1023.928)"/><path class="d" d="M562.24-295.242c-.206.2-2.613-1.987-5.377-4.877s-4.84-5.393-4.635-5.589,2.613,1.986,5.378,4.877,4.839,5.392,4.634,5.589" transform="translate(38.39 1023.928)"/><path class="a" d="M244.586-466.339H83.576v-92.777h161.01v92.777" transform="translate(159.549 1089.439)"/><path class="c" d="M219.051-489.219h-106.9v-3.136h106.9v3.136" transform="translate(152.162 1072.18)"/><path class="c" d="M226.414-473.171H112.148v-3.422H226.414v3.422" transform="translate(152.162 1068.104)"/><path class="c" d="M226.414-457.225H112.148v-3.422H226.414v3.422" transform="translate(152.162 1063.983)"/><path class="c" d="M149.509-507.111H112.148v-8.135h37.361v8.135" transform="translate(152.162 1078.098)"/><path class="e" d="M244.586-544.19H83.576v-14.926h161.01v14.926" transform="translate(159.549 1089.439)"/><path class="d" d="M283.269-545.743c-.206-.2,1.868-2.7,4.633-5.588s5.173-5.075,5.379-4.878-1.869,2.7-4.635,5.59-5.171,5.073-5.377,4.876" transform="translate(107.925 1088.691)"/><path class="d" d="M293.281-545.743c-.206.2-2.614-1.987-5.378-4.876s-4.839-5.393-4.634-5.59,2.612,1.987,5.377,4.878,4.84,5.392,4.635,5.588" transform="translate(107.925 1088.691)"/><path class="b" d="M.989-360.353H161.009v-91.788H.989ZM162-359.364H0V-453.13H162v93.766" transform="translate(181.156 1062.04)"/><path class="e" d="M136.141-382.566H29.237V-385.7h106.9v3.136" transform="translate(173.597 1044.607)"/><path class="c" d="M143.5-366.517H29.237v-3.421H143.5v3.421" transform="translate(173.597 1040.531)"/><path class="c" d="M143.5-350.572H29.237v-3.421H143.5v3.421" transform="translate(173.597 1036.409)"/><path class="e" d="M66.6-400.457H29.237v-8.136H66.6v8.136" transform="translate(173.597 1050.525)"/><path class="e" d="M161.676-437.536H.667v-14.927H161.676v14.927" transform="translate(180.984 1061.866)"/><path class="a" d="M214.227-127.492H404.343v-170.2H214.227Z" transform="translate(125.771 1021.852)"/><path class="c" d="M26.267-215.271H175.191V-370H26.267Z" transform="translate(174.365 1040.547)"/><path class="b" d="M175.19-353.14H26.267V-370H175.19v16.859" transform="translate(174.365 1040.547)"/><path class="d" d="M40.673-360a3.2,3.2,0,0,1-3.127,3.268A3.2,3.2,0,0,1,34.419-360a3.2,3.2,0,0,1,3.127-3.268A3.2,3.2,0,0,1,40.673-360" transform="translate(172.258 1038.808)"/><path class="d" d="M57.778-360a3.2,3.2,0,0,1-3.127,3.268A3.2,3.2,0,0,1,51.525-360a3.2,3.2,0,0,1,3.127-3.268A3.2,3.2,0,0,1,57.778-360" transform="translate(167.835 1038.808)"/><path class="d" d="M74.883-360a3.2,3.2,0,0,1-3.127,3.268A3.2,3.2,0,0,1,68.63-360a3.2,3.2,0,0,1,3.127-3.268A3.2,3.2,0,0,1,74.883-360" transform="translate(163.413 1038.808)"/><path class="c" d="M284.533-324H474.648v-189.48H284.533Z" transform="translate(107.595 1077.64)"/><path class="e" d="M474.648-491.281H284.533v-22.194H474.648v22.194" transform="translate(107.595 1077.64)"/><path class="d" d="M303.5-500.316a4.213,4.213,0,0,1-4.117,4.3,4.213,4.213,0,0,1-4.116-4.3,4.212,4.212,0,0,1,4.116-4.3,4.212,4.212,0,0,1,4.117,4.3" transform="translate(104.82 1075.35)"/><path class="d" d="M324.779-503.195a4.213,4.213,0,0,1,.131,5.953,4.214,4.214,0,0,1-5.953-.132,4.215,4.215,0,0,1-.132-5.954,4.216,4.216,0,0,1,5.954.132" transform="translate(99.031 1075.318)"/><path class="d" d="M348.535-500.316a4.213,4.213,0,0,1-4.117,4.3,4.212,4.212,0,0,1-4.116-4.3,4.211,4.211,0,0,1,4.116-4.3,4.212,4.212,0,0,1,4.117,4.3" transform="translate(93.176 1075.35)"/><path class="f" d="M378.629-.438c0,.142-68.65.258-153.312.258C140.624-.18,71.991-.3,71.991-.438S140.624-.7,225.317-.7c84.662,0,153.312.117,153.312.258" transform="translate(162.544 945.07)"/><path class="g" d="M388.986-200.31c-15.273-10.67-18.738-30.475-18.133-48.278.1-2.972-.226-6.1,1.187-8.712s4.713-4.389,7.373-3.137c2.207,1.039,3.169,3.605,4.4,5.729a17.386,17.386,0,0,0,6.97,6.656c1.892.982,4.233,1.583,6.1.553,2.563-1.415,2.865-4.956,2.847-7.912q-.053-8.263-.1-16.526a27.589,27.589,0,0,1,.892-8.778c.919-2.806,2.951-5.411,5.763-6.2s6.289.833,6.882,3.726a27.312,27.312,0,0,1,.084,3.681c.082,1.227.654,2.584,1.819,2.926,1.18.346,2.363-.491,3.246-1.356,3.051-2.985,5.121-6.829,7.056-10.652s3.813-7.737,6.58-10.991,6.6-5.835,10.83-6.074,8.742,2.373,9.812,6.528-1.358,8.394-4,11.768a65.976,65.976,0,0,1-13.737,13.094,5.426,5.426,0,0,0-2.3,2.471c-.643,1.97,1.225,3.927,3.171,4.575,2.2.734,4.593.5,6.9.776s4.8,1.287,5.674,3.466c1.21,3.02-1.316,6.187-3.8,8.261a56.519,56.519,0,0,1-16.726,9.656c-2.174.795-4.463,1.493-6.215,3.02s-2.812,4.185-1.753,6.266,3.779,2.75,6.056,2.328,4.316-1.659,6.486-2.477c4.061-1.533,9.307-1.254,11.909,2.257a9.355,9.355,0,0,1,1,8.271,21.563,21.563,0,0,1-4.481,7.3A56.837,56.837,0,0,1,416.5-201.036c-9.423,3.267-18.153,4.151-27.516.727" transform="translate(85.295 1023.915)"/><path class="f" d="M454.437-302.311a2.149,2.149,0,0,1-.287.281l-.878.782c-.774.684-1.915,1.694-3.349,3.034a110.791,110.791,0,0,0-11.289,12.185c-2.2,2.739-4.484,5.841-6.878,9.215s-4.916,7.006-7.431,10.919a133.807,133.807,0,0,0-7.292,12.633c-1.139,2.259-2.155,4.624-3.191,7.034l-3.136,7.33a271.514,271.514,0,0,0-10.534,28.443,132.028,132.028,0,0,0-4.925,24.252,96.684,96.684,0,0,0-.277,16.694c.154,1.968.3,3.495.444,4.525.056.494.1.883.136,1.175a2.339,2.339,0,0,1,.029.4,2.146,2.146,0,0,1-.084-.4c-.046-.29-.11-.677-.19-1.169-.174-1.027-.36-2.553-.547-4.523a92.369,92.369,0,0,1,.106-16.748,129.815,129.815,0,0,1,4.829-24.36,264.721,264.721,0,0,1,10.513-28.514l3.14-7.333c1.035-2.4,2.062-4.788,3.212-7.058a132.144,132.144,0,0,1,7.348-12.666c2.533-3.916,5.079-7.539,7.483-10.909s4.723-6.463,6.947-9.194a104.89,104.89,0,0,1,11.445-12.1c1.458-1.318,2.622-2.3,3.421-2.959l.912-.741a2.127,2.127,0,0,1,.322-.237" transform="translate(79.183 1023.047)"/><path class="f" d="M422.975-247.856a5.967,5.967,0,0,1-.289-1.26c-.155-.817-.341-2-.549-3.478-.418-2.942-.856-7.026-1.323-11.53s-.961-8.572-1.423-11.5c-.227-1.464-.422-2.649-.567-3.465a5.818,5.818,0,0,1-.165-1.282,5.855,5.855,0,0,1,.372,1.239c.209.8.463,1.981.738,3.442.561,2.922,1.118,7,1.585,11.509.449,4.446.854,8.468,1.165,11.54.148,1.388.275,2.557.377,3.5a5.889,5.889,0,0,1,.079,1.291" transform="translate(72.921 1017.375)"/><path class="f" d="M462.482-246.109a8.263,8.263,0,0,1-1.516.181c-.975.087-2.387.2-4.126.406-3.48.376-8.27,1.064-13.521,2.053s-9.964,2.1-13.349,3c-1.7.437-3.061.828-4,1.092a8.129,8.129,0,0,1-1.483.364,8.118,8.118,0,0,1,1.42-.568c.927-.327,2.278-.776,3.966-1.263,3.369-1,8.086-2.168,13.352-3.171a133.987,133.987,0,0,1,13.584-1.9c1.75-.153,3.17-.213,4.151-.233a8.056,8.056,0,0,1,1.526.033" transform="translate(71.413 1008.527)"/><path class="f" d="M395.487-196.49a1.894,1.894,0,0,1-.261-.464l-.65-1.374c-.56-1.2-1.323-2.949-2.238-5.126-1.833-4.353-4.177-10.446-6.671-17.2s-4.78-12.868-6.52-17.252c-.852-2.132-1.554-3.885-2.075-5.188l-.558-1.416a1.975,1.975,0,0,1-.16-.509,2,2,0,0,1,.261.465c.175.372.39.824.65,1.374.559,1.2,1.323,2.948,2.238,5.125,1.833,4.354,4.176,10.447,6.672,17.208s4.779,12.864,6.518,17.25c.854,2.13,1.555,3.884,2.076,5.187.223.565.406,1.033.558,1.415a2.013,2.013,0,0,1,.16.509" transform="translate(83.857 1008.237)"/><path class="f" d="M452.655-201.518a2.013,2.013,0,0,1-.5.207l-1.466.491-5.408,1.753c-4.565,1.481-10.848,3.6-17.786,5.947s-13.249,4.412-17.847,5.8c-2.3.694-4.164,1.237-5.461,1.585-.6.157-1.093.287-1.495.393a1.943,1.943,0,0,1-.532.1,2.082,2.082,0,0,1,.5-.208l1.467-.49,5.407-1.752c4.565-1.48,10.848-3.6,17.789-5.949s13.246-4.411,17.844-5.8c2.3-.694,4.163-1.237,5.461-1.586.6-.157,1.092-.288,1.5-.392a2.017,2.017,0,0,1,.532-.1" transform="translate(77.184 996.991)"/><g transform="translate(457.468 574.571)"><path class="g" d="M411.726-486.816l3.619,11.056a.889.889,0,0,1-.566,1.107l-5.064,1.811a.822.822,0,0,1-1.036-.535l-3.619-11.055a9.884,9.884,0,0,1-8.925-6.924,10.393,10.393,0,0,1,6.121-13.03A9.73,9.73,0,0,1,414.725-498,10.561,10.561,0,0,1,411.726-486.816Zm-29.667-38.411a13.049,13.049,0,0,1,7.669-16.369,12.222,12.222,0,0,1,15.653,8.027l2.178,6.652-23.321,8.343Zm40.218-6.955-5.094,1.823L415-537.012c-4.017-12.27-16.84-18.835-28.568-14.641s-18.009,17.594-13.991,29.865l2.178,6.653-5.111,1.828a8.129,8.129,0,0,0-4.765,10.162l14.173,43.292a7.636,7.636,0,0,0,9.745,5.053l52.767-18.876a8.168,8.168,0,0,0,4.809-10.258l-14.173-43.293a7.628,7.628,0,0,0-9.789-4.956" transform="translate(-364.337 552.919)"/><path class="f" d="M420.467-522.655c.048.134-9.441,3.686-21.194,7.935s-21.322,7.585-21.37,7.45,9.439-3.686,21.2-7.935,21.319-7.584,21.368-7.45" transform="translate(-367.845 545.096)"/><path class="f" d="M436.811-520.2a1.088,1.088,0,0,1,.114.259l.288.774c.254.722.607,1.724,1.057,3,.908,2.646,2.2,6.412,3.792,11.051,1.588,4.683,3.472,10.241,5.563,16.411,1.033,3.1,2.162,6.315,3.245,9.713a14.575,14.575,0,0,1,.741,5.426,7.219,7.219,0,0,1-.8,2.736,7.489,7.489,0,0,1-1.868,2.2,17.6,17.6,0,0,1-5.017,2.561l-5.1,1.83-9.636,3.449-16.326,5.813L401.844-451.1l-3,1.029-.786.256a1.153,1.153,0,0,1-.275.07,1.242,1.242,0,0,1,.256-.12l.769-.3,2.972-1.121,10.967-4.031,16.288-5.916c3.068-1.109,6.288-2.272,9.625-3.477l5.091-1.838a17.161,17.161,0,0,0,4.869-2.48,6.987,6.987,0,0,0,1.741-2.046,6.73,6.73,0,0,0,.742-2.541,14.128,14.128,0,0,0-.716-5.234c-1.065-3.365-2.192-6.613-3.21-9.706L441.716-505c-1.526-4.659-2.767-8.444-3.638-11.1-.41-1.286-.733-2.3-.964-3.027-.1-.325-.177-.585-.239-.792a1.142,1.142,0,0,1-.064-.275" transform="translate(-372.983 544.46)"/><path class="f" d="M405.552-539.25c-.027.043-.526-.265-1.5-.656a13.207,13.207,0,0,0-4.315-.865,14.7,14.7,0,0,0-6.369,1.2,14.229,14.229,0,0,0-6.042,5.049,13.34,13.34,0,0,0-2.323,7.508,23.063,23.063,0,0,0,1.006,6.469c.521,1.805,1.054,3.238,1.4,4.232a10.485,10.485,0,0,1,.511,1.562,9.463,9.463,0,0,1-.7-1.489c-.408-.975-.994-2.39-1.566-4.2a22.388,22.388,0,0,1-1.132-6.576,13.637,13.637,0,0,1,2.371-7.793,14.474,14.474,0,0,1,6.282-5.2,14.671,14.671,0,0,1,6.573-1.131,12.361,12.361,0,0,1,4.377,1.045,8.717,8.717,0,0,1,1.075.587c.235.152.353.238.344.253" transform="translate(-369.558 549.88)"/><path class="f" d="M411.443-486.841a2.836,2.836,0,0,1,.5-.25,10.6,10.6,0,0,1,1.525-.549,10.8,10.8,0,0,1,2.568-.426,8.687,8.687,0,0,1,3.468.516c2.526.889,4.854,3.471,6,6.892a9.918,9.918,0,0,1,.045,5.676,12.849,12.849,0,0,1-3.232,5.346l.064-.262c1.313,3.6,2.743,7.524,4.231,11.6l.09.248-.25.084-2.26.757-4.918,1.648-.243.081-.081-.244c-1.354-4.1-2.838-7.963-3.915-11.657l.213.168a9.868,9.868,0,0,1-5.29-2.092,11.9,11.9,0,0,1-3.321-3.966,9.157,9.157,0,0,1-1.047-4.453,10.5,10.5,0,0,1,.829-3.82,10.388,10.388,0,0,1,3.314-4.347,6.283,6.283,0,0,1,1.71-.954,17.72,17.72,0,0,0-1.617,1.075,10.562,10.562,0,0,0-3.143,4.334,9.369,9.369,0,0,0,.306,7.984,11.574,11.574,0,0,0,3.234,3.8,9.462,9.462,0,0,0,5.052,1.968l.167.01.046.158c1.089,3.668,2.582,7.516,3.949,11.632l-.324-.162,4.917-1.65,2.26-.757-.16.331-4.2-11.615-.052-.146.118-.116a12.466,12.466,0,0,0,3.124-5.114,9.534,9.534,0,0,0,0-5.428c-1.081-3.321-3.3-5.846-5.711-6.732a8.569,8.569,0,0,0-3.354-.564,11.232,11.232,0,0,0-2.535.348c-1.358.349-2.05.687-2.067.645" transform="translate(-375.001 536.156)"/></g><path class="h" d="M330.384-202.908l-98.743-.457a21.509,21.509,0,0,1-21.411-21.6l1.046-247.554a21.51,21.51,0,0,1,21.609-21.418l98.744.456a21.51,21.51,0,0,1,21.409,21.6l-1.046,247.555a21.511,21.511,0,0,1-21.609,21.419" transform="translate(126.805 1072.589)"/><path class="d" d="M333.775-481.959l-19.146-.088a4.755,4.755,0,0,0-4.668,4.838l-.016,3.473a4.755,4.755,0,0,1-4.669,4.838l-37.317-.173a4.76,4.76,0,0,1-4.628-4.881l.015-3.473a4.76,4.76,0,0,0-4.629-4.881l-6.733-.032-16.756-.077a15.064,15.064,0,0,0-15.134,15l-1.021,241.63a15.064,15.064,0,0,0,14.994,15.129l98.547.455a15.064,15.064,0,0,0,15.133-15l1.022-241.631a15.065,15.065,0,0,0-14.994-15.128" transform="translate(124.518 1069.61)"/><path class="g" d="M329.855-166.84l-73.28-.338c-.759,0-1.37-.829-1.366-1.845l.081-19.171c0-1.015.623-1.836,1.382-1.833l73.279.339c.759,0,1.371.829,1.366,1.845l-.081,19.17c0,1.015-.623,1.836-1.381,1.833" transform="translate(115.176 994.017)"/><g transform="translate(392.082 683.997)"><text class="i" transform="matrix(1, 0.005, -0.004, 1, 0.093, 7)"><tspan x="0" y="0">S</tspan><tspan x="0" y="9">ING </tspan><tspan x="0" y="18">UP</tspan></text></g><path class="j" d="M267.847-381.4l-25.423-.118.02-4.665,25.423.118-.02,4.665" transform="translate(118.481 1044.732)"/><path class="g" d="M267.847-381.4l-25.423-.118.02-4.665,25.423.118-.02,4.665" transform="translate(118.481 1044.732)"/><path class="b" d="M342.307-353.464a2.251,2.251,0,0,0,.58-.136,1.562,1.562,0,0,0,.958-1.33c0-1.577-.008-3.868-.014-6.812,0-1.481,0-3.126,0-4.925q0-.675,0-1.379a1.9,1.9,0,0,0-.277-1.3,1.461,1.461,0,0,0-1.17-.6l-1.548,0-14.28-.028-82.689-.307a1.337,1.337,0,0,0-1.089.551,1.906,1.906,0,0,0-.256,1.292q-.007,1.505-.014,3-.012,2.99-.026,5.94-.006,1.476-.014,2.938a8.664,8.664,0,0,0,.042,1.39,1.339,1.339,0,0,0,.772.892,1.488,1.488,0,0,0,.611.1l.724,0,1.443.006,2.868.015,21.954.117,37.175.226,25.06.2,6.814.08,1.772.034c.4.011.6.03.6.03s-.2.017-.6.023l-1.772.018-6.815.017-25.061-.034-37.175-.117-21.954-.087-2.868-.012-1.443-.006-.724,0a2.005,2.005,0,0,1-.807-.144,1.847,1.847,0,0,1-1.068-1.231,2.878,2.878,0,0,1-.061-.791l0-.731q.006-1.464.012-2.938.012-2.95.024-5.94.006-1.5.013-3a6.692,6.692,0,0,1,.025-.79,1.819,1.819,0,0,1,.33-.8,1.854,1.854,0,0,1,1.508-.763l82.687.458,14.282.1,1.548.013a1.729,1.729,0,0,1,1.384.725,2.153,2.153,0,0,1,.316,1.451q-.006.7-.011,1.379c-.016,1.8-.031,3.444-.043,4.925-.037,2.946-.064,5.241-.084,6.819a1.614,1.614,0,0,1-1.042,1.371,1.194,1.194,0,0,1-.6.087" transform="translate(118.603 1040.753)"/><path class="j" d="M298.134-357.411l-46.508-.216.019-4.36,46.508.215-.019,4.361" transform="translate(116.102 1038.476)"/><path class="k" d="M298.134-357.41l-13.566-.063a35.538,35.538,0,0,1,2.161-2.982,3.3,3.3,0,0,0,.738-1.365l10.685.049-.019,4.361m-16.79-.078-4.546-.021c-.439-1.9-1.255-3.223-1.821-3.515a.824.824,0,0,0-.38-.095,1.012,1.012,0,0,0-.8,1.491,8.259,8.259,0,0,1,.559,2.107l-22.725-.1.019-4.36,33.586.155c-1.3,1.275-3.089,3.345-3.887,4.342" transform="translate(116.102 1038.476)"/><path class="j" d="M267.6-323.987l-25.423-.118.02-4.664,25.423.117-.02,4.665" transform="translate(118.544 1029.887)"/><path class="g" d="M252.766-324.055l-10.585-.049.02-4.664,15.411.071-4.845,4.643" transform="translate(118.544 1029.887)"/><path class="b" d="M341.591-296.048a4.155,4.155,0,0,0,.586-.111,2.05,2.05,0,0,0,1.252-1.12,2.676,2.676,0,0,0,.171-1.254q0-.721-.006-1.571c0-1.138-.005-2.447-.007-3.919s0-3.115,0-4.908V-310.3a2.155,2.155,0,0,0-.289-1.3,1.94,1.94,0,0,0-1.075-.832,6.085,6.085,0,0,0-1.494-.086l-14.232-.028-82.4-.306a1.817,1.817,0,0,0-1.805,1.592c-.03.94-.016,1.979-.026,2.96q-.013,2.979-.026,5.919-.006,1.47-.013,2.928a6.112,6.112,0,0,0,.062,1.38,1.826,1.826,0,0,0,.722,1.013,1.956,1.956,0,0,0,1.229.316l1.438.007,2.858.015,21.878.116,37.046.226c10.531.083,19.059.151,24.974.2l6.79.08,1.767.034c.4.011.6.03.6.03s-.2.017-.6.023l-1.767.018-6.79.018-24.974-.035-37.047-.116-21.878-.086-2.858-.012-1.437-.006a2.487,2.487,0,0,1-1.515-.4,2.332,2.332,0,0,1-.925-1.3,6.346,6.346,0,0,1-.081-1.518q0-1.458.011-2.927.012-2.939.024-5.92c.012-1.005-.008-1.961.029-3.017a2.332,2.332,0,0,1,2.318-2.045l82.4.456,14.231.1a6.182,6.182,0,0,1,1.575.108,2.208,2.208,0,0,1,1.22.959,2.411,2.411,0,0,1,.316,1.445q-.006.7-.01,1.374c-.016,1.792-.032,3.431-.044,4.907s-.03,2.781-.041,3.919q-.01.85-.019,1.571a2.758,2.758,0,0,1-.2,1.3,2.082,2.082,0,0,1-1.333,1.128,1.587,1.587,0,0,1-.6.06" transform="translate(118.666 1025.908)"/><path class="j" d="M267.352-264.1l-25.424-.117.02-4.665,25.424.117-.02,4.665" transform="translate(118.61 1014.406)"/><path class="g" d="M267.352-264.1l-25.424-.117.02-4.665,25.424.117-.02,4.665" transform="translate(118.61 1014.406)"/><path class="b" d="M341.338-236.164a3.99,3.99,0,0,0,.585-.11,2.048,2.048,0,0,0,1.253-1.121,2.688,2.688,0,0,0,.171-1.254q0-.721-.006-1.57c0-1.139,0-2.448-.007-3.919s0-3.116,0-4.908q0-.672,0-1.375a2.146,2.146,0,0,0-.289-1.3,1.946,1.946,0,0,0-1.075-.833,6.133,6.133,0,0,0-1.495-.085l-14.23-.028-82.4-.305a1.818,1.818,0,0,0-1.805,1.592c-.03.94-.015,1.979-.025,2.96q-.013,2.979-.027,5.919-.006,1.47-.013,2.928a6.226,6.226,0,0,0,.062,1.379,1.821,1.821,0,0,0,.722,1.014,1.95,1.95,0,0,0,1.229.316l1.438.007,2.858.015,21.877.116,37.045.226,24.975.2,6.79.08,1.766.034c.4.011.6.029.6.029s-.2.017-.6.024l-1.766.017-6.791.018-24.975-.034-37.046-.117-21.878-.086-2.858-.012-1.437-.006a2.487,2.487,0,0,1-1.515-.4,2.35,2.35,0,0,1-.926-1.3,6.4,6.4,0,0,1-.08-1.518q.006-1.458.011-2.927.012-2.939.024-5.92c.012-1.006-.008-1.961.03-3.018a2.331,2.331,0,0,1,2.318-2.044l82.4.456,14.23.1a6.136,6.136,0,0,1,1.575.109,2.215,2.215,0,0,1,1.221.958,2.419,2.419,0,0,1,.316,1.445q-.006.7-.012,1.374c-.015,1.792-.03,3.431-.043,4.908s-.029,2.781-.04,3.92c-.007.565-.013,1.089-.019,1.569a2.79,2.79,0,0,1-.2,1.3,2.089,2.089,0,0,1-1.332,1.128,1.628,1.628,0,0,1-.6.059" transform="translate(118.731 1010.425)"/><path class="j" d="M297.892-299.993l-46.509-.215.019-4.361,46.508.215-.018,4.361" transform="translate(116.165 1023.631)"/><path class="k" d="M300.425-299.975l-39.243-.181c1.205-1.186,2.609-2.673,4.123-4.342l35.138.162-.018,4.361" transform="translate(113.632 1023.613)"/><path class="j" d="M255.689-241.765a2.105,2.105,0,0,1-2.042,2.159,2.107,2.107,0,0,1-2.025-2.179,2.1,2.1,0,0,1,2.042-2.158,2.106,2.106,0,0,1,2.025,2.178" transform="translate(116.103 1007.957)"/><path class="j" d="M264.187-241.727a2.1,2.1,0,0,1-2.043,2.159,2.105,2.105,0,0,1-2.025-2.178,2.1,2.1,0,0,1,2.042-2.159,2.106,2.106,0,0,1,2.025,2.178" transform="translate(113.906 1007.947)"/><path class="j" d="M272.683-241.687a2.1,2.1,0,0,1-2.043,2.158,2.105,2.105,0,0,1-2.024-2.178,2.1,2.1,0,0,1,2.042-2.159,2.105,2.105,0,0,1,2.024,2.179" transform="translate(111.71 1007.937)"/><path class="j" d="M281.18-241.648a2.1,2.1,0,0,1-2.042,2.158,2.1,2.1,0,0,1-2.024-2.178,2.1,2.1,0,0,1,2.042-2.158,2.1,2.1,0,0,1,2.024,2.178" transform="translate(109.513 1007.927)"/><path class="j" d="M289.677-241.609a2.1,2.1,0,0,1-2.042,2.159,2.106,2.106,0,0,1-2.025-2.177,2.105,2.105,0,0,1,2.043-2.16,2.106,2.106,0,0,1,2.024,2.178" transform="translate(107.316 1007.918)"/><path class="j" d="M298.175-241.57a2.1,2.1,0,0,1-2.043,2.158,2.1,2.1,0,0,1-2.023-2.177,2.1,2.1,0,0,1,2.042-2.16,2.107,2.107,0,0,1,2.025,2.179" transform="translate(105.119 1007.906)"/><path class="j" d="M306.672-241.53a2.1,2.1,0,0,1-2.043,2.159,2.1,2.1,0,0,1-2.023-2.178,2.1,2.1,0,0,1,2.042-2.158,2.1,2.1,0,0,1,2.025,2.177" transform="translate(102.922 1007.896)"/><path class="j" d="M315.168-241.492a2.1,2.1,0,0,1-2.042,2.16,2.1,2.1,0,0,1-2.023-2.178,2.1,2.1,0,0,1,2.042-2.159,2.1,2.1,0,0,1,2.024,2.177" transform="translate(100.725 1007.886)"/><path class="j" d="M323.665-241.452a2.1,2.1,0,0,1-2.042,2.159,2.105,2.105,0,0,1-2.025-2.178,2.1,2.1,0,0,1,2.042-2.159,2.1,2.1,0,0,1,2.024,2.178" transform="translate(98.529 1007.877)"/><path class="l" d="M253.655-239.606h-.008a2.106,2.106,0,0,1-2.025-2.164v-.015a2.1,2.1,0,0,1,2.033-2.158h.01a2.1,2.1,0,0,1,2.025,2.164v.014a2.105,2.105,0,0,1-2.035,2.159" transform="translate(116.103 1007.957)"/><path class="l" d="M262.152-239.568h-.008a2.1,2.1,0,0,1-2.025-2.164v-.014a2.1,2.1,0,0,1,2.035-2.159h.008a2.1,2.1,0,0,1,2.025,2.164v.014a2.105,2.105,0,0,1-2.035,2.159" transform="translate(113.906 1007.947)"/><path class="l" d="M270.65-239.529h-.01a2.1,2.1,0,0,1-2.024-2.164v-.014a2.1,2.1,0,0,1,2.034-2.159h.009a2.1,2.1,0,0,1,2.024,2.164v.015a2.1,2.1,0,0,1-2.033,2.158" transform="translate(111.71 1007.937)"/><path class="l" d="M279.148-239.49h-.01a2.1,2.1,0,0,1-2.024-2.163v-.015a2.1,2.1,0,0,1,2.034-2.158h.009a2.1,2.1,0,0,1,2.024,2.164v.014a2.1,2.1,0,0,1-2.033,2.158" transform="translate(109.513 1007.927)"/><path class="l" d="M287.646-239.45h-.011a2.105,2.105,0,0,1-2.025-2.163v-.014a2.106,2.106,0,0,1,2.035-2.16h.009a2.105,2.105,0,0,1,2.024,2.164v.014a2.1,2.1,0,0,1-2.032,2.159" transform="translate(107.316 1007.918)"/><path class="l" d="M296.142-239.412h-.011a2.1,2.1,0,0,1-2.023-2.163v-.014a2.1,2.1,0,0,1,2.033-2.16h.009a2.106,2.106,0,0,1,2.025,2.164v.015a2.1,2.1,0,0,1-2.033,2.158" transform="translate(105.119 1007.906)"/><path class="l" d="M304.638-239.371h-.009a2.1,2.1,0,0,1-2.023-2.164v-.014a2.1,2.1,0,0,1,2.032-2.158h.01a2.1,2.1,0,0,1,2.025,2.163v.014a2.1,2.1,0,0,1-2.035,2.159" transform="translate(102.922 1007.896)"/><path class="l" d="M313.135-239.332h-.009A2.1,2.1,0,0,1,311.1-241.5v-.014a2.1,2.1,0,0,1,2.032-2.159h.01a2.1,2.1,0,0,1,2.024,2.163v.014a2.1,2.1,0,0,1-2.034,2.16" transform="translate(100.725 1007.886)"/><path class="l" d="M321.632-239.293h-.008a2.1,2.1,0,0,1-2.025-2.164v-.014a2.105,2.105,0,0,1,2.035-2.159h.008a2.1,2.1,0,0,1,2.024,2.164v.014a2.1,2.1,0,0,1-2.034,2.159" transform="translate(98.529 1007.877)"/><path class="j" d="M310.261-435.76a3.834,3.834,0,0,0,2.285-3.547,3.723,3.723,0,0,0-3.58-3.851,3.718,3.718,0,0,0-3.611,3.818,3.828,3.828,0,0,0,2.292,3.58c-5.533.833-5.282,6.846-5.282,6.846l13.083.061s.3-6.079-5.186-6.907" transform="translate(102.985 1059.461)"/><path class="g" d="M315.447-428.852l-13.083-.061s0-.041,0-.118c0-.844.211-5.964,5.284-6.729h0a3.828,3.828,0,0,1-2.292-3.561v-.019a3.72,3.72,0,0,1,3.6-3.818h.016a3.722,3.722,0,0,1,3.58,3.839v.012a3.834,3.834,0,0,1-2.285,3.547h0c4.949.747,5.189,5.77,5.189,6.743,0,.106,0,.164,0,.164" transform="translate(102.985 1059.461)"/><path class="j" d="M325.39-413.052l-46.656-.216.024-5.578,46.655.215-.023,5.579" transform="translate(109.094 1053.175)"/><path class="k" d="M325.39-413.052l-46.656-.216.024-5.578,46.655.215-.023,5.579" transform="translate(109.094 1053.175)"/><path class="g" d="M101.509-379.622a2.841,2.841,0,0,1-.459.051l-1.346.1a15.23,15.23,0,0,0-2.169.29c-.424.086-.893.121-1.371.262l-1.532.425a25.238,25.238,0,0,0-7.29,3.615,25.842,25.842,0,0,0-7.173,7.985,27.165,27.165,0,0,0-2.514,5.742,27.661,27.661,0,0,0-1.094,6.7,27.677,27.677,0,0,0,.064,3.584c.032.606.163,1.208.24,1.819a12.806,12.806,0,0,0,.347,1.831,25.789,25.789,0,0,0,2.768,7.175A25.518,25.518,0,0,0,92.019-329.1a23.484,23.484,0,0,0,8.491,1.907,22.955,22.955,0,0,0,8.863-1.276l.869-.318.115-.043.1.052,12.469,6.33-.371.316c-1.332-4.132-2.622-8.138-3.861-11.983l-.047-.148.11-.11a26.626,26.626,0,0,0,6.547-10.884,27.348,27.348,0,0,0,.949-11.588,26.86,26.86,0,0,0-3.275-9.82,26.7,26.7,0,0,0-5.63-6.894,27.406,27.406,0,0,0-6.125-3.9,26.818,26.818,0,0,0-5.174-1.63l-1.939-.33-1.431-.1-.877-.067a1.471,1.471,0,0,1-.3-.039,1.617,1.617,0,0,1,.3-.006l.88.025,1.44.058,1.958.292a26.323,26.323,0,0,1,5.241,1.571,27.356,27.356,0,0,1,6.232,3.882,26.872,26.872,0,0,1,5.754,6.946,27.149,27.149,0,0,1,3.375,9.952,27.708,27.708,0,0,1-.923,11.783,27.05,27.05,0,0,1-6.642,11.1l.062-.258c1.244,3.842,2.54,7.847,3.877,11.977l.2.6-.566-.288L110.22-328.3l.218.01-.888.327a23.458,23.458,0,0,1-9.061,1.3,23.951,23.951,0,0,1-8.676-1.957A25.972,25.972,0,0,1,79.548-339.8a26.246,26.246,0,0,1-2.8-7.314,13.225,13.225,0,0,1-.346-1.864c-.076-.622-.207-1.234-.237-1.851a28.127,28.127,0,0,1-.051-3.642,27.972,27.972,0,0,1,1.143-6.8,27.436,27.436,0,0,1,2.583-5.814,25.989,25.989,0,0,1,7.325-8.036,25.078,25.078,0,0,1,7.405-3.572l1.551-.4a14,14,0,0,1,1.385-.239,14.077,14.077,0,0,1,2.187-.24l1.353-.045a3.006,3.006,0,0,1,.46,0" transform="translate(161.49 1043.037)"/><path class="g" d="M112.607-351.7H110.78l-3.987-5.557V-360.9s-2.824-.174-2.492,4.6-.027,3.559-.027,3.559-6,.024-6.495.545c-.362.379-.526,6.335-.589,9.565a3.5,3.5,0,0,0,2.478,3.523,2.641,2.641,0,0,0,.645.086c1.5,0,9.137-1.216,9.137-1.216h3.156V-351.7" transform="translate(156.029 1038.195)"/><path class="g" d="M123.554-349.838l-1.124,12.5H119.3v-12.245l4.253-.251" transform="translate(150.313 1035.335)"/><path class="g" d="M169.963-9.719v-8.458l-15.156-.1L154.682-5.5l.939.07c4.181.27,21.275.663,24.077-.2,3.124-.968-9.735-4.085-9.735-4.085" transform="translate(141.165 949.615)"/><path class="f" d="M180.075-2.386c0,.143-5.67.258-12.661.258s-12.663-.115-12.663-.258,5.669-.257,12.663-.257,12.661.116,12.661.257" transform="translate(141.148 945.573)"/><path class="f" d="M175.634-4.948c-.125-.065-.018-.512.307-.953s.721-.676.82-.577-.106.475-.4.883-.6.716-.723.648" transform="translate(135.762 946.57)"/><path class="f" d="M176.933-4.3c-.132-.049-.063-.551.234-1.077s.691-.847.8-.759-.077.521-.352,1.012-.549.876-.683.824" transform="translate(135.429 946.48)"/><path class="f" d="M159.384-3.382c-.059.042-.285-.18-.612-.553a9.976,9.976,0,0,0-1.33-1.332,3.493,3.493,0,0,0-1.64-.717c-.461-.061-.763.01-.789-.064-.027-.056.255-.267.8-.3a3.01,3.01,0,0,1,1.942.672,5.49,5.49,0,0,1,1.309,1.525c.259.435.377.728.319.767" transform="translate(141.08 946.532)"/><path class="f" d="M175.2-6.572c.074.119-.186.413-.618.571s-.822.1-.841-.034.285-.307.663-.448.721-.212.8-.089" transform="translate(136.238 946.605)"/><path class="f" d="M174.761-7.738c.014.141-.391.263-.9.27s-.919-.1-.91-.245.413-.263.9-.269.9.1.91.244" transform="translate(136.443 946.953)"/><path class="g" d="M220.3-9.719v-8.458l-15.157-.1L205.017-5.63l.939.069c4.181.271,21.276.794,24.078-.073,3.124-.968-9.735-4.085-9.735-4.085" transform="translate(128.152 949.615)"/><path class="f" d="M230.41-2.359c0,.141-5.669.257-12.661.257s-12.662-.115-12.662-.257,5.668-.258,12.662-.258,12.661.115,12.661.258" transform="translate(128.134 945.566)"/><path class="f" d="M225.97-4.948c-.125-.065-.018-.512.307-.953s.721-.676.82-.577-.106.475-.4.883-.6.716-.723.648" transform="translate(122.748 946.57)"/><path class="f" d="M227.269-4.3c-.132-.049-.064-.551.234-1.077s.691-.847.8-.759-.077.521-.352,1.012-.55.876-.683.824" transform="translate(122.416 946.48)"/><path class="f" d="M209.72-3.382c-.059.042-.285-.18-.613-.553a9.976,9.976,0,0,0-1.33-1.332,3.485,3.485,0,0,0-1.639-.717c-.461-.061-.763.01-.789-.064-.027-.056.255-.267.8-.3a3.012,3.012,0,0,1,1.942.672A5.507,5.507,0,0,1,209.4-4.149c.259.435.377.728.319.767" transform="translate(128.067 946.532)"/><path class="f" d="M225.539-6.572c.074.119-.186.413-.618.571s-.822.1-.842-.034.285-.307.663-.448.722-.212.8-.089" transform="translate(123.224 946.605)"/><path class="f" d="M225.1-7.738c.015.141-.389.263-.9.27s-.918-.1-.909-.245.413-.263.9-.269.9.1.909.244" transform="translate(123.429 946.953)"/><path class="m" d="M251.664-349.909c-.4-.407-1.368-.216-1.368-.216a5.249,5.249,0,0,0-.01-1.714c-.178-.559-1.425-.451-1.425-.451a5.823,5.823,0,0,1,.032-1.406.5.5,0,0,0-.29-.5,4.61,4.61,0,0,0-1.863-.34c-.763-.545,2.325-4.864,3.47-6.246,1.132-1.365.941-2.46-.08-2.458-.7,0-4.3,4.152-5.4,5.546s-4.049,5.269-4.149,2.175-1.344-5.432-2.121-5.832-1.614.537-1.184,1.4a11.312,11.312,0,0,1,.691,3.043,7.353,7.353,0,0,1-.114,2.5,28.71,28.71,0,0,1-1.331,4.466l-.076-.043s-21.579,20.691-23.134,22.168c-1.4,1.33-29.439-1.572-35.056-2.167a38.91,38.91,0,0,0-5.779-.394c-2.437.107-2.87.453-5.309.485a119.928,119.928,0,0,0-18.323,1.61,15.173,15.173,0,0,0-11.923,10.342c-5.67,17.694-18.5,59.582-20.782,83.115a98.408,98.408,0,0,0-4.63,9.563c-1.588,4.325-1.2,4.473-.667,4.572.653.121,1.349-1.419,1.972-2.957.748-1.847,1.39-3.693,1.725-2.671.615,1.875-3.117,9.266-1.6,9.483,1.973.282,3.546-7.881,3.73-8.562.179-.661,1.174-.438.976.168-.286.871-3.069,10.095-1.133,10.39,1.072.164,1.188-1.79,1.188-1.79s1.967-8.821,2.875-8.651-.057,5.391-.513,7.127c-.45,1.716.184,2.627,1.109,2.2.631-.295,2.15-5.58,2.56-7.307s1.45-6.484,2.846-3.722,3.508,4.36,4.381,4.394a.969.969,0,0,0,.485-1.766,11.269,11.269,0,0,1-1.91-2.468,7.355,7.355,0,0,1-.951-2.315,25.568,25.568,0,0,1-.689-5l-.162-1.016c2.214-10.967,8.6-43.141,17.763-63.7l3.775,7.769,1.638,5.75-10.059,24.853,42.919-.565-6.4-24.655,7.773-25.709h0c8.413.188,30.02.5,33.653-1.122,4.527-2.023,27.956-31.557,27.956-31.557h0a55.707,55.707,0,0,0,4.38-3.8s1.4-1.13.538-2.012" transform="translate(152.62 1038.798)"/><path class="g" d="M144.279-268.023c1.243-4.25,7.64-25.266,7.64-25.266s3.141,17.134,2.315,19.2a36.368,36.368,0,0,1-2.7,5.1c-7.256,11.051-6.3,16.574-6.3,16.574l43.836-1.337c.107-6.131-3.522-20.383-4.281-22.654s1.758-9.724,1.758-9.724,4.954-5.031,4.762-7.62a41.738,41.738,0,0,0-.864-6.9l26.674.982-.838-18.1-38.342-3.837c-1.327,3.776-13.4,1.926-13.4,1.926-13.035.428-13.824,2.825-19.259,7.034s-14.387,40.354-14.387,40.354l13.39,4.271" transform="translate(147.317 1028.036)"/><path class="f" d="M178.46-255.661a9.415,9.415,0,0,1-2.31.117c-1.427-.009-3.4-.1-5.566-.314s-4.118-.526-5.518-.8a9.387,9.387,0,0,1-2.24-.574,11.468,11.468,0,0,1,2.3.216c1.41.182,3.355.429,5.512.647s4.111.362,5.528.464a11.315,11.315,0,0,1,2.3.247" transform="translate(139.06 1011.399)"/><path class="f" d="M182.033-260.139a10.271,10.271,0,0,1-2.393.817,43.158,43.158,0,0,1-5.992,1.143,42.992,42.992,0,0,1-6.095.293,10.2,10.2,0,0,1-2.517-.233,15.377,15.377,0,0,1,2.516-.13c1.55-.048,3.688-.163,6.035-.441s4.451-.67,5.969-.986a15.536,15.536,0,0,1,2.477-.462" transform="translate(138.489 1012.148)"/><path class="f" d="M206.566-282.561a9.548,9.548,0,0,1-.3,2.236c-.255,1.367-.656,3.246-1.162,5.306s-1.019,3.913-1.426,5.243a9.5,9.5,0,0,1-.769,2.121,10.227,10.227,0,0,1,.417-2.216c.374-1.543.8-3.315,1.277-5.27s.923-3.721,1.306-5.262a10.1,10.1,0,0,1,.655-2.157" transform="translate(128.701 1017.941)"/><path class="f" d="M144.906-254.013a46.724,46.724,0,0,1-6.751-1.575,46.78,46.78,0,0,1-6.618-2.072,46.878,46.878,0,0,1,6.752,1.575,46.84,46.84,0,0,1,6.617,2.072" transform="translate(147.149 1011.508)"/><path class="f" d="M207.6-300.528a3.608,3.608,0,0,1-1.135-.006,11.533,11.533,0,0,1-3.014-.72,12.612,12.612,0,0,1-3.934-2.394,12.315,12.315,0,0,1-3.218-4.634,12.731,12.731,0,0,1-.886-5.573,8.747,8.747,0,0,1,1.353-4.409,4.556,4.556,0,0,1,2.5-1.842,3.054,3.054,0,0,1,.844-.114c.195.006.3.027.295.043,0,.049-.409.026-1.079.262a4.586,4.586,0,0,0-2.26,1.854c-1.346,2.117-1.721,5.979-.291,9.589A12.222,12.222,0,0,0,199.835-304a12.94,12.94,0,0,0,3.75,2.408,19.457,19.457,0,0,0,4.014,1.063" transform="translate(130.643 1027.677)"/><path class="f" d="M242.854-298.866a80.806,80.806,0,0,1-.239-9.11,81.119,81.119,0,0,1,.275-9.11,80.531,80.531,0,0,1,.239,9.111,80.823,80.823,0,0,1-.275,9.109" transform="translate(118.432 1026.867)"/><path class="m" d="M188.882-332.2c.108-2.207.339-4.7.339-4.7s5.455-.6,5.786-6.237,0-18.632,0-18.632l-9.936-5.06L174.141-358.2l1.657,28.178,10.057.64a2.9,2.9,0,0,0,3.027-2.815" transform="translate(136.135 1039.725)"/><path class="n" d="M194.557-342c.016,0,.016.106-.087.242a.769.769,0,0,1-.627.277c-.634-.031-1.243-.731-1.468-1.585a2.7,2.7,0,0,1-.027-1.253,1.07,1.07,0,0,1,.593-.849.535.535,0,0,1,.42.01.48.48,0,0,1,.222.227c.074.167.017.269,0,.261s-.017-.094-.1-.2a.364.364,0,0,0-.469-.1.891.891,0,0,0-.407.707,2.63,2.63,0,0,0,.046,1.117c.2.765.729,1.391,1.2,1.448a.717.717,0,0,0,.532-.145c.108-.088.146-.168.167-.159" transform="translate(131.443 1034.138)"/><path class="f" d="M189.4-366.064c-.76-2.6-3.517-3.883-6.031-4.6-3.823-1.084-7.964-1.563-11.7-.188s-8.227,3.794-8.226,7.921c-2.2-.182-3.464,1.751-4.339,4.143a15.793,15.793,0,0,0-.937,4.548l-.037-.013c-.283,5.4-1.787,12.843-5.289,16.837-1.934,2.206-4.719,3.73-5.845,6.476-.98,2.387-.474,5.209-1.4,7.619-.817,2.128-2.628,3.638-3.925,5.489a14.681,14.681,0,0,0-.942,14.226,18.054,18.054,0,0,0,10.76,9.3,25.2,25.2,0,0,0,14.2.131,23.7,23.7,0,0,0,9.508-4.711,15.923,15.923,0,0,0,5.459-9.216c.7-4.038-.434-8.138-1.265-12.15-2.63-12.689-1.878-13.348,1.44-25.119.075-.208.122-.423.179-.637.044-.156.086-.305.131-.466l-.007,0a7.259,7.259,0,0,0,.156-1.408,2.7,2.7,0,0,1-2.859-.618,2.989,2.989,0,0,1-.676-2.959,4.287,4.287,0,0,1,2.551-2.4c1.1-.461,2.276-.689,3.351-1.2,2.283-1.086,3.865-3.34,4.942-5.7a7.8,7.8,0,0,0,.8-5.3" transform="translate(145.133 1040.985)"/><path class="j" d="M195.281-340.559a4.468,4.468,0,0,1,.521.977c.293.625.687,1.506,1.124,2.518l.083.192-.21.018-1.006.086c-.689.045-1.264.128-1.934.121a.354.354,0,0,1-.255-.224.568.568,0,0,1-.015-.275c.029-.155.062-.27.093-.4l.175-.7a6.591,6.591,0,0,1,.416-1.368,6.6,6.6,0,0,1-.2,1.416l-.137.708c-.05.238-.137.6-.009.568.492-.022,1.194-.1,1.844-.151l1.007-.08-.127.21c-.424-1.017-.782-1.914-1.027-2.559a4.54,4.54,0,0,1-.34-1.054" transform="translate(131.109 1032.935)"/><path class="f" d="M149.491-228.76l43.836-1.337,19.064,74.482-3.511,85.434h-23.2l2.875-83.616L171.6-205.646l2.613,138.778-23.424.346-2.468-130.447c-.1-3.625-1.3-11.805-.852-15.4l2.025-16.389" transform="translate(143.057 1004.377)"/><path class="h" d="M182.917-196.713a8.325,8.325,0,0,1-2.149-.127c-1.319-.156-3.134-.434-5.121-.832s-3.768-.846-5.044-1.213a8.421,8.421,0,0,1-2.033-.713c.04-.143,3.222.628,7.178,1.421s7.187,1.318,7.168,1.464" transform="translate(137.575 996.497)"/><path class="h" d="M221.864-20.83c0,.143-5.253.258-11.731.258S198.4-20.686,198.4-20.83s5.252-.257,11.732-.257,11.731.115,11.731.257" transform="translate(129.863 950.341)"/><path class="h" d="M175.35-14.9c0,.142-5.1.257-11.38.257s-11.382-.115-11.382-.257,5.1-.257,11.382-.257,11.38.115,11.38.257" transform="translate(141.707 948.809)"/><path class="h" d="M178.427-62.527c-.141,0-.758-30.323-1.376-67.723s-1-67.736-.861-67.738.758,30.316,1.376,67.729,1,67.729.861,67.732" transform="translate(135.613 996.077)"/><path class="h" d="M220.339-74.4a2.5,2.5,0,0,1-.01-.4c0-.292.012-.683.022-1.184.031-1.069.074-2.6.131-4.553.138-3.979.336-9.69.581-16.737.541-14.155,1.287-33.664,2.111-55.214.008-.2.017-.4.024-.581l.008.073c-5.2-20.8-9.892-39.606-13.3-53.24l-3.967-16.127c-.452-1.884-.806-3.358-1.053-4.388-.11-.483-.2-.862-.261-1.144a2.39,2.39,0,0,1-.072-.394,2.252,2.252,0,0,1,.123.382c.077.278.18.653.31,1.131.27,1.026.654,2.491,1.147,4.367.981,3.823,2.388,9.311,4.125,16.087,3.443,13.623,8.191,32.414,13.444,53.2l.009.037,0,.037c-.007.182-.015.381-.023.582-.883,21.546-1.683,41.053-2.263,55.206-.312,7.044-.566,12.753-.744,16.731-.1,1.954-.175,3.481-.228,4.549-.031.5-.054.892-.072,1.182a2.245,2.245,0,0,1-.043.4" transform="translate(128.272 1003.912)"/><path class="h" d="M211.97-129.2a26.937,26.937,0,0,1-5.126,1.142c-2.131.366-3.972.618-4.776.663l0-.2c.267.074.41.13.405.166s-.16.047-.436.035l-.6-.027.6-.175c.773-.225,2.592-.6,4.724-.969a26.94,26.94,0,0,1,5.213-.634" transform="translate(129.078 978.303)"/><path class="h" d="M211.836-125.653a26.485,26.485,0,0,1-4.615-.21,26.5,26.5,0,0,1-4.592-.506,17.281,17.281,0,0,1,4.632-.007,17.384,17.384,0,0,1,4.575.724" transform="translate(128.77 977.596)"/><path class="o" d="M149.97-226.72h0l.016-.133-.016.133m.071-.578c.046-.376.123-1,.123-1l-.123,1" transform="translate(142.384 1003.912)"/><path class="p" d="M150.232-228.527c7.173-.4,14.548-.535,21.922-.668l-21.922.668" transform="translate(142.316 1004.144)"/><path class="q" d="M156.239-224.737a11.943,11.943,0,0,1-1.942-.146,6.02,6.02,0,0,1-4.327-2.3l.016-.133.027-.217c.007-.048.017-.13.029-.228l.123-1h0l21.922-.668c7.371-.133,14.743-.267,21.915-.668-11.082,2.7-23.071,3.858-34.387,5.113a30.905,30.905,0,0,1-3.374.246" transform="translate(142.384 1004.377)"/><path class="r" d="M180.786-157.815h0l-.065-3.506h0l.065,3.506" transform="translate(134.434 986.596)"/><path class="o" d="M180.549-170.448h0l-.493-26.177h0l.493,26.177" transform="translate(134.606 995.724)"/><path class="q" d="M177.991-167.532l-2.917-11.326c-.209-10.269-.376-17.161-.463-18.923.446.1.909.2,1.382.293.492.1.974.19,1.439.274l.493,26.177.065,3.5m-3.3-12.8L169.91-198.9l.863.152.176.05c.958.276,2.2.6,3.6.908-.029,1.656.026,7.987.143,17.465" transform="translate(137.229 996.313)"/><path class="s" d="M177.734-197.161h0c-.466-.084-.947-.175-1.439-.274-.474-.1-.936-.194-1.382-.293q-.009-.19-.018-.3l2.832.5.007.368m-2.881-.579c-1.4-.312-2.645-.632-3.6-.908l-.176-.05,3.786.665c0,.071-.006.168-.008.293" transform="translate(136.928 996.259)"/><path class="s" d="M176.69-178.572l-.379-1.471c-.118-9.478-.172-15.809-.143-17.465,0-.125,0-.221.008-.293l.034.006q.009.11.018.3c.087,1.762.254,8.654.463,18.923" transform="translate(135.613 996.027)"/></g></svg>