<svg xmlns="http://www.w3.org/2000/svg" width="58.954" height="57.011" viewBox="0 0 58.954 57.011"><defs><style>.a{fill:#b1f1fe;}.b{fill:#2e53bf;}</style></defs><path class="a" d="M7451.69,14234.184v-7.655h4.663v-4.269h7.344v4.269h4.535v7.655H7463.7v4.56h-7.344v-4.56Z" transform="translate(-7430.544 -14190.315)"/><g transform="translate(0 0)"><path class="b" d="M133.891,123.912a29.574,29.574,0,0,1-7.706-8.236,13.251,13.251,0,0,0-22.292,0,29.571,29.571,0,0,1-7.705,8.236,13.27,13.27,0,0,0,7.6,24.156h22.506a13.269,13.269,0,0,0,7.6-24.156Zm-7.6,22.082H103.787a11.2,11.2,0,0,1-6.408-20.384,31.624,31.624,0,0,0,8.255-8.805,11.177,11.177,0,0,1,18.812,0,31.62,31.62,0,0,0,8.255,8.805,11.2,11.2,0,0,1-6.408,20.384ZM96.747,114.851V109.54a5.657,5.657,0,0,0-11.314,0v5.311a5.657,5.657,0,0,0,11.314,0Zm-9.24,0V109.54a3.583,3.583,0,0,1,7.166,0v5.311a3.587,3.587,0,0,1-3.583,3.583h0A3.587,3.587,0,0,1,87.507,114.851Zm51.224-10.968a5.663,5.663,0,0,0-5.657,5.657v5.311a5.657,5.657,0,1,0,11.313,0V109.54A5.663,5.663,0,0,0,138.73,103.883Zm3.583,10.968a3.587,3.587,0,0,1-3.583,3.583h0a3.587,3.587,0,0,1-3.583-3.583V109.54a3.583,3.583,0,1,1,7.166,0Zm-36.2-7.169a5.663,5.663,0,0,0,5.657-5.657V96.714a5.657,5.657,0,0,0-11.314,0v5.311A5.663,5.663,0,0,0,106.115,107.681Zm-3.583-10.968a3.583,3.583,0,1,1,7.166,0v5.311a3.583,3.583,0,1,1-7.166,0Zm21.174,10.968a5.663,5.663,0,0,0,5.657-5.657V96.714a5.657,5.657,0,0,0-11.314,0v5.311A5.663,5.663,0,0,0,123.705,107.681Zm-3.583-10.968a3.583,3.583,0,1,1,7.166,0v5.311a3.583,3.583,0,1,1-7.166,0Z" transform="translate(-85.433 -91.057)"/><path class="b" d="M216.142,269.329h-9.457v4.587H202.1v9.457h4.587v4.587h9.457v-4.587h4.587v-9.457h-4.587Zm2.513,6.66V281.3h-4.587v4.587h-5.31V281.3h-4.587v-5.309h4.587V271.4h5.31v4.587Z" transform="translate(-181.936 -238.52)"/></g></svg>