<svg xmlns="http://www.w3.org/2000/svg" width="28" height="28" viewBox="0 0 28 28"><defs><style>.a{fill:#0d716a;}.b{fill:#fff;}</style></defs><g transform="translate(-867 -609)"><rect class="a" width="28" height="28" rx="14" transform="translate(867 609)"/><path class="b" d="M19.026,14.695,17.6,13.266a2.286,2.286,0,0,0-3.206-.014,1.4,1.4,0,0,1-1.772.173,9.755,9.755,0,0,1-2.688-2.683,1.416,1.416,0,0,1,.184-1.778,2.286,2.286,0,0,0-.02-3.2L8.668,4.34a2.281,2.281,0,0,0-3.221,0l-.411.412C2.894,6.894,3.054,11.4,7.511,15.854,10.2,18.542,12.9,19.668,15.1,19.668a4.869,4.869,0,0,0,3.517-1.338l.412-.412A2.281,2.281,0,0,0,19.026,14.695ZM18.108,17l-.412.412c-1.688,1.688-5.414,1.38-9.268-2.475S4.265,7.353,5.953,5.665l.408-.411a.981.981,0,0,1,1.385,0L9.174,6.682a.981.981,0,0,1,.014,1.37,2.714,2.714,0,0,0-.345,3.4,11.043,11.043,0,0,0,3.06,3.055,2.713,2.713,0,0,0,3.4-.336.982.982,0,0,1,1.375.008L18.1,15.609A.98.98,0,0,1,18.108,17Z" transform="translate(871.424 609.793) rotate(9)"/></g></svg>