<svg xmlns="http://www.w3.org/2000/svg" width="56.938" height="56.915" viewBox="0 0 56.938 56.915"><defs><style>.a{fill:#b1f1fe;}.b{fill:#2e53bf;}</style></defs><rect class="a" width="14.255" height="19.507" transform="translate(20.991 36.054)"/><g transform="translate(0 0)"><path class="b" d="M57.019,56.1H50.591V36.818a.918.918,0,0,0-1.837,0V56.1H37.734V38.654A2.706,2.706,0,0,0,34.979,35.9H23.959A2.706,2.706,0,0,0,21.2,38.654v11.2a.918.918,0,0,0,1.837,0v-11.2a.868.868,0,0,1,.918-.918h11.02a.868.868,0,0,1,.918.918V56.1H23.04V53.348a.918.918,0,1,0-1.837,0V56.1H10.183V29.471a.868.868,0,0,0-.918-.918H3.48a.654.654,0,0,1-.459-1.1l3.214-3.214a.909.909,0,1,0-1.286-1.286L1.735,26.165a2.417,2.417,0,0,0-.551,2.663,2.5,2.5,0,0,0,2.3,1.561H8.347V56.1H7.428a.918.918,0,1,0,0,1.837H57.019a.918.918,0,1,0,0-1.837Zm-44.264-38.3L26.9,3.757a3.717,3.717,0,0,1,5.143,0L55.917,27.451c.551.643.092,1.1-.459,1.1H49.673a.868.868,0,0,0-.918.918v3.673a.918.918,0,0,0,1.837,0V30.389h4.867a2.5,2.5,0,0,0,2.3-1.561,2.417,2.417,0,0,0-.551-2.663L33.326,2.471a5.866,5.866,0,0,0-7.714,0L11.469,16.522a.909.909,0,0,0,1.286,1.286ZM8.99,21.573,10.367,20.2A.909.909,0,0,0,9.081,18.91L7.7,20.287a.888.888,0,0,0,0,1.286C8.071,22.032,8.806,21.757,8.99,21.573ZM43.611,8.349h4.775a.4.4,0,0,1,.367.367v6.8a.918.918,0,0,0,1.837,0v-6.8a2.235,2.235,0,0,0-2.2-2.2H43.611a2.3,2.3,0,0,0-1.653.735.893.893,0,0,0,.092,1.286C42.785,9.267,43.52,8.349,43.611,8.349ZM3.755,56.1H1.918a.918.918,0,1,0,0,1.837H3.755a.918.918,0,1,0,0-1.837Z" transform="translate(-1 -1.025)"/><path class="b" d="M32.714,5.951a1.775,1.775,0,0,0-2.571,0L28.949,7.145a.909.909,0,0,0,1.286,1.286l1.194-1.194,1.194,1.194a.961.961,0,0,0,1.286,0,.888.888,0,0,0,0-1.286Zm-5.6,3.031-1.837,1.837a.888.888,0,0,0,0,1.286.961.961,0,0,0,1.286,0L28.4,10.267a.909.909,0,1,0-1.286-1.286ZM47.04,51.868v.918h-.918a.918.918,0,1,0,0,1.837h1.194a1.5,1.5,0,0,0,1.561-1.561V51.868a.918.918,0,1,0-1.837,0Z" transform="translate(-2.96 -1.382)"/></g></svg>