<svg xmlns="http://www.w3.org/2000/svg" width="50.612" height="54.963" viewBox="0 0 50.612 54.963"><defs><style>.a{fill:#b1f1fe;}.b{fill:#2e53bf;}</style></defs><path class="a" d="M7575.357,14584.975h-5.1l-2.3-17.187s7.632-1.451,9.359,5.125.622,7.975.622,7.975l-1.382,2.447Z" transform="translate(-7559.976 -14566.922)"/><g transform="translate(0 0)"><path class="b" d="M11.289,1020.362a.878.878,0,0,0-.134.017,13.026,13.026,0,0,0-1.761.1.859.859,0,0,0-.735.97l2.237,16.088H4.09a2.6,2.6,0,0,0-1.731.654,2.6,2.6,0,0,0,0,3.84,2.6,2.6,0,0,0,1.731.658h7.393c.011.07.018.108.03.188.335,2.147,1.15,7.5,1.164,7.595v6.806a.859.859,0,0,0,.859.859h2.576v6.021a.859.859,0,0,0,.859.859h5.152v5.153H17.83c-2.6,0-4.063.732-4.72,1.8a4.015,4.015,0,0,0-.433,2.489.859.859,0,0,0,.859.859H35.864a.859.859,0,0,0,.859-.859,3.976,3.976,0,0,0-.51-2.466c-.676-1.034-2.105-1.765-4.622-1.828H27.276v-5.153h5.152a.859.859,0,0,0,.859-.859v-6.021h1.06l4.123,14.837a.859.859,0,0,0,.829.631H49.624a2.508,2.508,0,0,0,1.6-.571,2.681,2.681,0,0,0,0-4.012,2.513,2.513,0,0,0-1.6-.57h-7.1l-2.945-10.315h4.015a.859.859,0,0,0,.859-.849,10.218,10.218,0,0,0-.8-3.784,6.342,6.342,0,0,0-5.213-3.891v-5.206a7.068,7.068,0,0,0-1.714-4.716,6.738,6.738,0,0,0-5.156-2.154H18.451a7.349,7.349,0,0,0,1.013-.973,4.982,4.982,0,0,0,1.151-3.914l-.859-6.494a6.1,6.1,0,0,0-2.861-4.223,10.437,10.437,0,0,0-5.605-1.567h0Zm-.007,1.728h0a8.8,8.8,0,0,1,4.673,1.285,4.329,4.329,0,0,1,2.093,3.016l.859,6.491a3.1,3.1,0,0,1-.768,2.59,8.766,8.766,0,0,1-2.932,2.07h-2.58l-2.14-15.407c.268-.017.533-.043.792-.043ZM4.09,1039.258H15.277a.849.849,0,0,0,.228,0H31.57a4.9,4.9,0,0,1,3.871,1.576,5.387,5.387,0,0,1,1.281,3.576v5.143H35v-3.425a5.768,5.768,0,0,0-.745-3.408c-.743-1.09-2.184-1.744-4.408-1.744H4.09a.964.964,0,0,1-.594-.228.887.887,0,0,1,0-1.265.958.958,0,0,1,.594-.225Zm9.131,3.435h1.825l1.073,7.843a.858.858,0,0,0,.852.741h20.61a4.4,4.4,0,0,1,4.495,2.918,5.363,5.363,0,0,1,.476,2.234H14.4v-6.011a.858.858,0,0,0-.01-.127s-.818-5.381-1.164-7.6Zm3.559,0H29.852c1.916,0,2.62.456,2.989,1a4.6,4.6,0,0,1,.446,2.439v3.425H17.719Zm4.485,15.447h6.87v1.728h-6.87Zm-3.435.017h1.717v2.576a.859.859,0,0,0,.859.859h8.587a.859.859,0,0,0,.859-.859v-2.576H31.57v5.153H17.83Zm18.305,0h1.657l3.257,11.4a.859.859,0,0,0,.825.617h7.749a.966.966,0,0,1,.52.184.724.724,0,0,1,.265.674.716.716,0,0,1-.265.671.979.979,0,0,1-.52.188H39.953l-3.817-13.74Zm-12.294,6.87h1.717v5.153H23.841Zm-6.011,6.87H31.55c2.219.055,2.937.611,3.224,1.05.125.192.073.449.1.668H14.492a1.686,1.686,0,0,1,.084-.735c.264-.431.951-.983,3.254-.983Z" transform="translate(-1.514 -1020.362)"/></g></svg>