<svg xmlns="http://www.w3.org/2000/svg" width="426.501" height="379.579" viewBox="0 0 426.501 379.579"><defs><style>.a{fill:#eaf0ff;}.b{fill:#f9f9fb;}.c{fill:#b4c9ff;}</style></defs><g transform="translate(0 -2.25)"><path class="a" d="M214.093,88.756a33,33,0,1,0-33-33A33,33,0,0,0,214.093,88.756Zm0-55.851a22.848,22.848,0,1,1-22.848,22.848A22.848,22.848,0,0,1,214.093,32.9ZM77,88.756a33,33,0,1,0-33-33A33,33,0,0,0,77,88.756ZM77,32.9A22.848,22.848,0,1,1,54.155,55.753,22.848,22.848,0,0,1,77,32.9Z" transform="translate(67.703 31.543)"/><circle class="b" cx="5.077" cy="5.077" r="5.077" transform="translate(0 371.631)"/><path class="b" d="M18.693,147.75H11.077a5.077,5.077,0,1,0,0,10.155h7.616a5.077,5.077,0,1,0,0-10.155Zm378.266,0h-7.616a5.077,5.077,0,1,0,0,10.155h7.616a5.077,5.077,0,0,0,0-10.155Z" transform="translate(9.232 223.881)"/><circle class="b" cx="5.077" cy="5.077" r="5.077" transform="translate(416.347 371.631)"/><path class="b" d="M359.555,371.631H292.879l10.587-109.325a10.131,10.131,0,0,0,8.561-9.994V153.3a43.14,43.14,0,0,0-21.309-37.154,43.445,43.445,0,0,1-8.217,7.123A32.983,32.983,0,0,1,301.872,153.3v99.009H286.64V148.225a5.077,5.077,0,0,0-10.155,0V257.389a7.616,7.616,0,0,1-15.232,0V148.225a5.077,5.077,0,0,0-10.155,0V252.311H235.866V153.3a32.885,32.885,0,0,1,11-24.546,42.862,42.862,0,0,1-10-4.306A42.935,42.935,0,0,0,225.711,153.3v49.313l-23.244,6.7a25.074,25.074,0,0,1,6.12,8.8l17.125-4.936v12.462l-15.264,2.913a24.032,24.032,0,0,1-3.075,10.924l18.339-3.5v16.329a10.131,10.131,0,0,0,8.562,9.994L244.86,371.631H135.479l10.587-109.325a10.131,10.131,0,0,0,8.561-9.994V236.467l28.451,5.431a14.63,14.63,0,0,0,2.752.263,14.337,14.337,0,0,0,8.38-2.71,14.653,14.653,0,0,0-4.418-25.967l-35.165-10.136V153.3a42.935,42.935,0,0,0-11.154-28.852,42.861,42.861,0,0,1-9.994,4.309A32.883,32.883,0,0,1,144.473,153.3V200.42l-14.726-4.245,2.375-50.25a5.078,5.078,0,1,0-10.145-.479L119.413,199.7a5.08,5.08,0,0,0,3.667,5.118l63.9,18.42a4.5,4.5,0,0,1,1.324,7.948,4.281,4.281,0,0,1-3.322.734L103.628,216.4l-4.864-71.056a5.077,5.077,0,1,0-10.13.694L93.766,221a5.075,5.075,0,0,0,4.113,4.64l46.594,8.894v17.783H78.467V153.3a32.984,32.984,0,0,1,19.371-30.031,43.443,43.443,0,0,1-8.217-7.123A43.14,43.14,0,0,0,68.312,153.3v99.009a10.131,10.131,0,0,0,8.561,9.994L87.461,371.631H20.784a5.121,5.121,0,1,0,0,10.155H359.555a5.121,5.121,0,1,0,0-10.155ZM244.49,262.466h7.357a17.761,17.761,0,0,0,34.045,0h7.357l-10.57,109.165H255.06Zm-157.4,0H135.85L125.279,371.631H97.661ZM150.324,17.482a7.616,7.616,0,1,0-7.616-7.616A7.616,7.616,0,0,0,150.324,17.482Zm0-11.424a3.808,3.808,0,1,1-3.808,3.808A3.808,3.808,0,0,1,150.324,6.058ZM383.884,128.55a5.077,5.077,0,1,0,5.077,5.077A5.077,5.077,0,0,0,383.884,128.55Zm0,7.616a2.539,2.539,0,1,1,2.539-2.539A2.539,2.539,0,0,1,383.884,136.166ZM286.64,20.021a5.077,5.077,0,1,0,5.077,5.077,5.077,5.077,0,0,0-5.077-5.077Zm0,7.616a2.539,2.539,0,1,1,2.539-2.539A2.539,2.539,0,0,1,286.64,27.637Zm44.427,77.43a5.077,5.077,0,1,0,5.077,5.077A5.077,5.077,0,0,0,331.067,105.067Zm0,7.616a2.539,2.539,0,1,1,2.539-2.539,2.539,2.539,0,0,1-2.539,2.539ZM57.523,92.373a5.077,5.077,0,1,0-5.077,5.077A5.077,5.077,0,0,0,57.523,92.373Zm-7.616,0a2.539,2.539,0,1,1,2.539,2.539A2.539,2.539,0,0,1,49.907,92.373Z" transform="translate(23.081)"/><path class="c" d="M15.8,73.088l3.775-4.963-2.384-1.351-2.424,5.56h-.079l-2.463-5.522L9.8,68.2l3.734,4.846v.079L7.7,72.374v2.7l5.88-.754V74.4L9.8,79.244l2.262,1.432,2.584-5.6h.079l2.384,5.56,2.5-1.429L15.8,74.438V74.36l6,.716v-2.7l-6,.792Z" transform="translate(11.84 99.283)"/><path class="c" d="M11.082,11.065l-2.173,2.79,1.3.825L11.7,11.453h.043l1.373,3.2,1.442-.825-2.2-2.744v-.046l3.453.411V9.9l-3.453.457v-.046l2.173-2.859-1.373-.779-1.394,3.2h-.048L10.3,6.7l-1.4.8,2.15,2.793v.046L7.7,9.9v1.554l3.387-.434Z" transform="translate(11.84 6.806)"/><path class="c" d="M171.412,16.706V14.058l-5.882.779v-.079l3.7-4.869-2.338-1.325-2.376,5.453h-.079L162.024,8.6l-2.379,1.366,3.663,4.752V14.8l-5.727-.741v2.648l5.765-.739v.079l-3.7,4.752,2.221,1.4,2.534-5.5h.076l2.338,5.456,2.455-1.4-3.74-4.676V16Z" transform="translate(242.47 9.715)"/><path class="c" d="M88.507,29.777l3.194-4.2-2.016-1.142-2.049,4.7h-.069l-2.084-4.671-2.051,1.178,3.161,4.1v.066l-4.943-.637v2.285l4.976-.64v.069l-3.194,4.1L85.346,36.2l2.188-4.74H87.6l2.016,4.7,2.117-1.208-3.227-4.034v-.069l5.075.607V29.173l-5.075.67Z" transform="translate(125.635 34.133)"/></g></svg>