<svg xmlns="http://www.w3.org/2000/svg" width="44.412" height="44.238" viewBox="0 0 44.412 44.238"><defs><style>.a{fill:#b1f1fe;}.b{fill:#2e53bf;}</style></defs><g transform="translate(-3017.192 -22434.284)"><rect class="a" width="7.695" height="3.058" rx="1.529" transform="translate(3053.553 22442.5)"/><rect class="a" width="7.695" height="3.058" rx="1.529" transform="translate(3053.553 22458)"/><rect class="a" width="7.695" height="3.058" rx="1.529" transform="translate(3017.553 22461.461)"/><g transform="translate(3017.192 22433.287)"><path class="b" d="M143.1,9.025v1.02h-1.26a.652.652,0,0,0,0,1.3h1.26v3.724a.652.652,0,0,0,1.3,0V11.349h1.812a2.015,2.015,0,0,0,1.9,1.36h4.788a2.012,2.012,0,0,0,0-4.024h-4.788a2.015,2.015,0,0,0-1.9,1.36H144.4V9.025a2.786,2.786,0,0,0-4.278-2.356,2.786,2.786,0,0,0-4.268-2.2V3.785a2.788,2.788,0,0,0-5.577,0v.17a2.786,2.786,0,0,0-4.273,2.359V16.89l-3.488,2.6a3.724,3.724,0,0,0-1.491,2.972v1.884a.652.652,0,1,0,1.3,0V22.463a2.413,2.413,0,0,1,.966-1.926l5.069-3.781a1.639,1.639,0,0,1,2.2,2.413l-3.38,3.738a.652.652,0,0,0,.967.875l.167-.184,1,1a4.91,4.91,0,0,1,1.448,3.495v1.67a.652.652,0,0,0,1.3,0v-1.67a6.206,6.206,0,0,0-1.83-4.417L129.2,22.628l2.337-2.585a2.955,2.955,0,0,0,.071-3.866l-.018-.02V3.786a1.484,1.484,0,1,1,2.968,0V17.217a.652.652,0,1,0,1.3,0V6.832a1.484,1.484,0,0,1,2.968,0V17.217a.652.652,0,1,0,1.3,0V9.025a1.484,1.484,0,1,1,2.968,0Zm5.019.964h4.788a.708.708,0,0,1,0,1.416h-4.788a.708.708,0,0,1,0-1.416ZM127.59,15.711l-.277.206v-9.6a1.484,1.484,0,1,1,2.968,0V15.28A2.942,2.942,0,0,0,127.59,15.711Z" transform="translate(-110.507)"/><path class="b" d="M364.585,194.344H359.8a2.015,2.015,0,0,0-1.9,1.36h-1.812v-7.69a.652.652,0,0,0-1.3,0v7.69h-1.26a.652.652,0,1,0,0,1.3h1.26v2a10.275,10.275,0,0,1-.7,3.744l-.785,2.014a2.4,2.4,0,0,0-.164.875v9.106a.652.652,0,1,0,1.3,0v-9.106a1.1,1.1,0,0,1,.075-.4l.785-2.014a11.574,11.574,0,0,0,.793-4.218v-2h1.812a2.015,2.015,0,0,0,1.9,1.36h4.788a2.012,2.012,0,1,0,0-4.024Zm0,2.72H359.8a.708.708,0,1,1,0-1.416h4.788a.708.708,0,0,1,0,1.416Z" transform="translate(-322.186 -170.161)"/><path class="b" d="M14.373,297.069H11.835c-.005-.109-.008-.218-.008-.327v-2.076a.652.652,0,0,0-1.3,0v2.076c0,.109,0,.218.007.327H8.7a2.015,2.015,0,0,0-1.9-1.36h-1a.652.652,0,0,0,0,1.3h1a.708.708,0,0,1,0,1.416H2.012a.708.708,0,1,1,0-1.416h1a.652.652,0,0,0,0-1.3h-1a2.012,2.012,0,1,0,0,4.024H6.8a2.015,2.015,0,0,0,1.9-1.36h1.982a8.1,8.1,0,0,0,2.228,4.139.538.538,0,0,1,.159.383v9.227a.652.652,0,0,0,1.3,0V302.9a1.834,1.834,0,0,0-.541-1.305,6.812,6.812,0,0,1-1.813-3.217h2.351a.652.652,0,1,0,0-1.3Z" transform="translate(0 -267.54)"/><path class="b" d="M351.6,143.432v-.33a.652.652,0,1,0-1.3,0v.33a.652.652,0,1,0,1.3,0Z" transform="translate(-319.836 -129.154)"/><path class="b" d="M301.8,75.367a.652.652,0,0,0,.652-.652v-.33a.652.652,0,0,0-1.3,0v.33A.652.652,0,0,0,301.8,75.367Z" transform="translate(-274.967 -66.412)"/><path class="b" d="M252.662,30.083a.652.652,0,0,0-.652.652v.33a.652.652,0,0,0,1.3,0v-.33A.652.652,0,0,0,252.662,30.083Z" transform="translate(-230.099 -26.557)"/><path class="b" d="M252.662,87.526a.652.652,0,0,0-.652.652v.33a.652.652,0,0,0,1.3,0v-.33A.652.652,0,0,0,252.662,87.526Z" transform="translate(-230.099 -79.006)"/><path class="b" d="M203.522,64.621a.652.652,0,0,0-.652.652v.33a.652.652,0,1,0,1.3,0v-.33A.652.652,0,0,0,203.522,64.621Z" transform="translate(-185.231 -58.092)"/><path class="b" d="M203.522,125.745a.652.652,0,0,0-.652.652v.33a.652.652,0,0,0,1.3,0v-.33A.652.652,0,0,0,203.522,125.745Z" transform="translate(-185.231 -113.902)"/><path class="b" d="M252.662,144.97a.652.652,0,0,0-.652.652v.33a.652.652,0,1,0,1.3,0v-.33A.652.652,0,0,0,252.662,144.97Z" transform="translate(-230.099 -131.455)"/><path class="b" d="M301.151,139.636a.652.652,0,0,0,1.3,0v-.33a.652.652,0,0,0-1.3,0Z" transform="translate(-274.967 -125.688)"/><path class="b" d="M280.952,228.344a5.431,5.431,0,1,0,0,10.862.652.652,0,0,0,0-1.3,4.127,4.127,0,1,1,0-8.253.652.652,0,0,0,0-1.3Z" transform="translate(-251.566 -207.58)"/><path class="b" d="M308.344,259.648a.652.652,0,0,0,0-1.3,2.823,2.823,0,0,0,0,5.645.652.652,0,1,0,0-1.3,1.518,1.518,0,1,1,0-3.037Z" transform="translate(-278.957 -234.972)"/><path class="b" d="M158.467,299.219a.652.652,0,1,0,0,1.3,1.951,1.951,0,0,1,1.231,3.464.652.652,0,1,0,.824,1.011,3.255,3.255,0,0,0-2.055-5.778Z" transform="translate(-144.094 -272.293)"/></g></g></svg>