<svg xmlns="http://www.w3.org/2000/svg" width="51.284" height="40.723" viewBox="0 0 51.284 40.723"><defs><style>.a{fill:#b1f1fe;}.b{fill:#fff;}.c{fill:#8b8893;}.d{fill:#aeadb3;}.e{fill:#52bbe9;}.f{fill:#1cabe1;}.g{fill:#fee27d;}.h{fill:#fddd5a;}.i{fill:#2e53bf;}</style></defs><g transform="translate(-3225.356 -22281.918)"><path class="a" d="M450.5,323.5h-2a.3.3,0,0,1,.3.3v3.706a.3.3,0,0,1-.3.3h2a.3.3,0,0,0,.3-.3V323.8A.3.3,0,0,0,450.5,323.5Z" transform="translate(2821.781 21980.254)"/><circle class="b" cx="2.066" cy="2.066" r="2.066" transform="translate(3267.489 22314.453)"/><path class="c" d="M279.771,344.76a.751.751,0,0,1-.751-.751v-6.428a.751.751,0,1,1,1.5,0v6.425a.751.751,0,0,1-.751.754Z" transform="translate(2974.284 21968.26)"/><path class="d" d="M217.14,319.65h7.248a1.236,1.236,0,0,1,1.236,1.237h0a1.236,1.236,0,0,1-1.236,1.236H217.14Z" transform="translate(3029.966 21983.719)"/><path class="c" d="M210.391,170.6a.751.751,0,0,1-.751-.751V144.031a.751.751,0,1,1,1.5,0v25.812a.751.751,0,0,1-.751.754Z" transform="translate(3036.715 22142.422)"/><path class="e" d="M347.382,165.866H338.14V154.481l4.428-.261A24.569,24.569,0,0,1,347.382,165.866Z" transform="translate(2921.086 22132.578)"/><path class="f" d="M356.507,154.22l-2.877.17a24.535,24.535,0,0,1,4.686,11.476h3A24.569,24.569,0,0,0,356.507,154.22Z" transform="translate(2907.148 22132.578)"/><path class="a" d="M16.87,133.534l.332-12.521A8.013,8.013,0,0,1,25.215,113H56.709a4.4,4.4,0,0,1-4.4,4.4H30.233a4.007,4.007,0,0,0-4.007,4.007v12.132Z" transform="translate(3210.176 22169.67)"/><path class="a" d="M80.28,121.4v12.137h3V121.4a4.007,4.007,0,0,1,4.007-4.007h-3A4.007,4.007,0,0,0,80.28,121.4Zm30.482-8.4h0a4.4,4.4,0,0,1-4.4,4.4h3a4.4,4.4,0,0,0,4.4-4.4Z" transform="translate(3153.117 22169.67)"/><circle class="b" cx="2.066" cy="2.066" r="2.066" transform="translate(3230.676 22314.453)"/><path class="g" d="M53.876,293.5h-1.9a.751.751,0,0,1,0-1.5h1.9a.751.751,0,0,1,0,1.5Zm-21.4,4.107v1.149H16.85v-1.5h15.6A2.952,2.952,0,0,1,32.476,297.609Z" transform="translate(3210.194 22008.6)"/><path class="h" d="M145.645,344.49h-3a2.954,2.954,0,0,1,.021.354v1.149h3v-1.151a2.951,2.951,0,0,0-.021-.351Z" transform="translate(3097.004 21961.367)"/><path class="i" d="M51.263,138.673a11.419,11.419,0,0,0-3.172-5.509,11.609,11.609,0,0,0-.89-.773h.028a.751.751,0,0,0,.751-.751v-4.307a.751.751,0,0,0-.751-.751H45.075a2.891,2.891,0,0,0-1.142.234,23.4,23.4,0,0,0,.059-3.385A24.277,24.277,0,0,0,39.526,110.8a5.152,5.152,0,0,0,2.754-4.546.751.751,0,0,0-.751-.751H10.035a8.775,8.775,0,0,0-8.765,8.764v20.57A6.969,6.969,0,0,0,0,138.852a.751.751,0,0,0,.751.754h.542c-.014.166-.023.333-.023.5a6.116,6.116,0,1,0,12.232,0c0-.166-.01-.334-.024-.5h.6a.735.735,0,0,0,.134-.013.754.754,0,0,0,.135.013H38.106c-.014.165-.023.333-.023.5a6.116,6.116,0,1,0,12.232,0c0-.166-.01-.333-.024-.5h.242a.751.751,0,0,0,.729-.931Zm-6.188-10.586h1.4v2.8h-1.4a1.4,1.4,0,0,1,0-2.8Zm-2.823-6.811H34.621v-9.883h2.511a5.108,5.108,0,0,0,.908-.082,22.989,22.989,0,0,1,4.212,9.965ZM2.773,114.264A7.27,7.27,0,0,1,10.035,107H40.7a3.652,3.652,0,0,1-3.567,2.893H15.053a4.764,4.764,0,0,0-4.758,4.758v11.383H2.773Zm19.733,14.412v-.97H29a.485.485,0,0,1,0,.97Zm5.447,1.5v5.03H22.5v-5.035Zm1.5-.054A1.986,1.986,0,0,0,29,126.2H22.5V111.393H33.119V132.95a2.257,2.257,0,0,1-2.254,2.254H29.449Zm-15.146-4.089H11.8V114.648a3.259,3.259,0,0,1,3.255-3.255H21V135.2H18.065V129.79A3.76,3.76,0,0,0,14.309,126.036Zm-11.536,1.5H14.309a2.257,2.257,0,0,1,2.226,1.9H2.773Zm4.614,17.176A4.608,4.608,0,0,1,2.8,139.606H4.613a2.819,2.819,0,1,0,5.546,0h1.812a4.608,4.608,0,0,1-4.585,5.108ZM6.07,140.107a1.31,1.31,0,0,1,.1-.5H8.6a1.315,1.315,0,1,1-2.533.5Zm-4.516-2a5.516,5.516,0,0,1,5.458-4.76h.814a5.516,5.516,0,0,1,5.454,4.76Zm12.253-2.9a7.012,7.012,0,0,0-5.983-3.363H7.012a6.975,6.975,0,0,0-4.237,1.43v-2.334H16.562V135.2ZM38.1,138.1H14.792a6.912,6.912,0,0,0-.3-1.394H30.865a3.76,3.76,0,0,0,3.756-3.756V122.779h7.813c.022.243.041.49.054.739A23.049,23.049,0,0,1,38.1,138.1Zm6.1,6.611a4.608,4.608,0,0,1-4.586-5.108h1.812a2.819,2.819,0,1,0,5.546,0h1.809a4.608,4.608,0,0,1-4.585,5.108Zm-1.316-4.608a1.31,1.31,0,0,1,.1-.5h2.435a1.315,1.315,0,1,1-2.533.5Zm-2.954-2a25.213,25.213,0,0,0,2.229-4.179q.427-1.022.755-2.061a10.017,10.017,0,0,1,6.611,6.24Zm-1.215-13.923h-1.9a.751.751,0,0,0,0,1.5h1.9a.751.751,0,1,0,0-1.5Z" transform="translate(3225.356 22176.418)"/></g></svg>