<svg xmlns="http://www.w3.org/2000/svg" width="32" height="32" viewBox="0 0 32 32"><defs><style>.a{fill:#fcc300;}.b{fill:#fff;stroke:#fff;stroke-width:0.2px;}</style></defs><g transform="translate(-1197 -646)"><rect class="a" width="32" height="32" rx="16" transform="translate(1197 646)"/><g transform="translate(1205 653.961)"><path class="b" d="M202.771,30h.5v.5h-.5Z" transform="translate(-196.041 -28.971)"/><path class="b" d="M232.737,30h.5v.5h-.5Z" transform="translate(-225.012 -28.971)"/><path class="b" d="M202.771,59.971h.5v.5h-.5Z" transform="translate(-196.041 -57.943)"/><path class="b" d="M232.737,59.971h.5v.5h-.5Z" transform="translate(-225.012 -57.943)"/><path class="b" d="M253.714,118.905h.5v.5h-.5Z" transform="translate(-245.293 -114.921)"/><path class="b" d="M283.68,118.905h.5v.5h-.5Z" transform="translate(-274.265 -114.921)"/><path class="b" d="M253.714,148.871h.5v.5h-.5Z" transform="translate(-245.293 -143.892)"/><path class="b" d="M283.68,148.871h.5v.5h-.5Z" transform="translate(-274.265 -143.892)"/><path class="b" d="M253.714,177.838h.5v.5h-.5Z" transform="translate(-245.293 -171.898)"/><path class="b" d="M283.68,177.838h.5v.5h-.5Z" transform="translate(-274.265 -171.898)"/><path class="b" d="M253.714,206.806h.5v.5h-.5Z" transform="translate(-245.293 -199.904)"/><path class="b" d="M283.68,206.806h.5v.5h-.5Z" transform="translate(-274.265 -199.904)"/><path class="b" d="M0,0H.862V.5H0Z" transform="translate(1.447 7.775) rotate(-26.796)"/><path class="b" d="M0,0H.862V.5H0Z" transform="translate(1.896 8.663) rotate(-26.796)"/><path class="b" d="M0,0H.862V.5H0Z" transform="translate(2.33 9.522) rotate(-26.796)"/><path class="b" d="M16.994,7.368,14.241,5.977,12.522,9.559a8.378,8.378,0,0,0-1.432-.611V2.99H9.4V.039H5.586V9.05a8.377,8.377,0,0,0-1.128.506L2.79,5.976.037,7.367l1.97,4.183A8.423,8.423,0,0,0,0,17.03H.5q0-.317.025-.627l2.7.014.8-.829,1.368.421.593-1.526-1.074-1.7-.646-.235v-.914l-1.136-.52a7.974,7.974,0,0,1,9.884-.667l-3.238.245L8.68,12.4l1.6,2.044,1.477.164,1.073,1.711,2.12-.079L15.261,15l.865-.313a7.963,7.963,0,0,1,.352,2.346h.5a8.423,8.423,0,0,0-2-5.476ZM3.763,11.951v.943l.813.3.849,1.347L5.09,15.4l-1.218-.375-.861.9L.577,15.906a7.971,7.971,0,0,1,2.165-4.422Zm-1.277-.923-.118.121L.693,7.592l1.863-.941L4.027,9.806A8.549,8.549,0,0,0,2.486,11.029Zm4.791-2.4a8.444,8.444,0,0,0-1.193.258V.536H8.9V2.99H7.277Zm3.315.177a8.541,8.541,0,0,0-2.105-.262c-.239,0-.477.01-.713.03V3.487h2.818Zm2.361,1L14.47,6.65l1.864.942-1.721,3.564-.123-.126A8.551,8.551,0,0,0,12.953,9.81Zm3.011,4.4-1.122.406-.285,1.141-1.46.054-1.048-1.671-1.507-.167-1.253-1.6.767-1.205L13.6,10.9a8.024,8.024,0,0,1,2.359,3.315Z" transform="translate(0 0)"/><path class="b" d="M0,0H.5V.862H0Z" transform="translate(14.599 7.82) rotate(-63.204)"/><path class="b" d="M0,0H.5V.862H0Z" transform="translate(14.15 8.707) rotate(-63.204)"/><path class="b" d="M0,0H.5V.862H0Z" transform="translate(13.717 9.565) rotate(-63.204)"/><path class="b" d="M372,106.948v.5h1.186v-1.186h-.5v.318l-.972-.972-.352.352.992.992Z" transform="translate(-359.037 -102.061)"/><path class="b" d="M83.38,106.948h-.357l.992-.992-.352-.352-.972.972v-.318h-.5v1.186H83.38Z" transform="translate(-79.466 -102.061)"/><path class="b" d="M162.868,305.484l-2.021-.162-.6,1.164,1.417,2.387,1.288-.215-.6-1.263.735-.337Zm-1.181,1.669.531,1.124-.3.051-1.1-1.857.325-.626,1.294.1.113.813Z" transform="translate(-154.924 -295.15)"/></g></g></svg>