<svg xmlns="http://www.w3.org/2000/svg" xmlns:xlink="http://www.w3.org/1999/xlink" width="199" height="136.943" viewBox="0 0 199 136.943"><defs><style>.a,.c{fill:#6c63ff;}.a,.l,.n{opacity:0.1;}.b{fill:url(#a);}.d,.e{fill:#fff;}.d,.h{opacity:0.2;}.e{opacity:0.07;}.f{fill:#535461;}.g{fill:#774e55;}.i{fill:#5c3d53;}.j{opacity:0.05;}.k{fill:#f8bdc5;}.m{fill:#5e52ad;}.o{fill:#eb6475;}.p{fill:none;stroke:#535461;stroke-miterlimit:10;stroke-width:2px;}</style><linearGradient id="a" x1="0.5" y1="1" x2="0.5" gradientUnits="objectBoundingBox"><stop offset="0" stop-color="gray" stop-opacity="0.251"/><stop offset="0.54" stop-color="gray" stop-opacity="0.122"/><stop offset="1" stop-color="gray" stop-opacity="0.102"/></linearGradient></defs><g transform="translate(0 0.079)"><rect class="a" width="14.823" height="5.559" rx="2.779" transform="translate(61.145 14.203)"/><rect class="a" width="14.823" height="5.559" rx="2.779" transform="translate(105.244 9.2)"/><rect class="a" width="14.823" height="5.559" rx="2.779" transform="translate(97.091 65.713)"/><rect class="a" width="14.823" height="5.559" rx="2.779" transform="translate(103.762 71.828)"/><rect class="a" width="14.823" height="5.559" rx="2.779" transform="translate(143.414 69.048)"/><rect class="a" width="14.823" height="5.559" rx="2.779" transform="translate(22.791 73.495)"/><rect class="a" width="14.823" height="5.559" rx="2.779" transform="translate(92.459 77.942)"/><path class="b" d="M497.478,114.2l-6.793-19.718-2.442.371-2.186.28c.056-.741.152-3.4-1.2-4.8a3.644,3.644,0,0,0-1.145-1.632c-3.25-2.979-3.926,3.115-3.926,3.115s-.741,1.286-1.762,3.083l-.535-.1-.152,1.327c-2.26,4-5.264,9.405-5.264,9.913a6.7,6.7,0,0,1-.406,1.9s-2.3,3.791-3.115,5.688a9.1,9.1,0,0,1-2.038,2.979s-.2.15-.519.371a4.632,4.632,0,0,1,.185-1.058,26.634,26.634,0,0,0,1.169-2.8,3.264,3.264,0,0,0,.048-.724,15.609,15.609,0,0,0-.763-3.489c-.276-1.354-.128-2.846-.85-4.023a4.152,4.152,0,0,0-2.566-1.716,19.71,19.71,0,0,0-2.816-.252c-.871-.093-1.7-.478-2.574-.621a3.322,3.322,0,0,0-1.412,0c-1.473.406-1.934,2.262-3.072,3.283-.409.371-.912.626-1.282,1.032a3.1,3.1,0,0,0-.7,2.223,4.738,4.738,0,0,0,.048.81c.141.969.515,1.886.741,2.837a9.823,9.823,0,0,1,.276,2.147c0,.163,0,.326-.015.487a1.71,1.71,0,0,1-.25.926,2.616,2.616,0,0,1-.847.6,6.568,6.568,0,0,1-2.134-3.028s-.05.063-.135.185v-.185a14.264,14.264,0,0,1-2.135-4.942l.645.067,1.482-20.854-3.785-.556a8.639,8.639,0,0,0-1.154-3.778c.636-1.253.956-2.948-1.831-3.117-3.261-.2-3.061,2.342-2.714,3.732a9.345,9.345,0,0,0-.185,2.307l-3.335-.485-.019.271h-.793L432.79,107.53l2.068-.1,7.578.789c.606,5.509,1.558,12.316,2.689,13.921a1.365,1.365,0,0,0,.124.154v9.748s-.135,12.6-2.438,14.625a12.044,12.044,0,0,1,4.406-.691q-.039.125-.078.267a23.645,23.645,0,0,0-.7,3.795q-.048.424-.087.886a47.782,47.782,0,0,0,.117,8.473c.949,10.02,2.438,17.2,2.438,17.2l.415,5.825s-.406,9.885.676,13.135a4.9,4.9,0,0,0,1.386.9c.009.093.02.185.03.283s.024.25.037.38c-.485.22-1.392,1.1-1.588,4.53,0,0,.27,2.574-.406,3.791s-.27,4.74,1.76,5.145a10.852,10.852,0,0,0,3.926,0s.949,0,.271-3.385l-.119-.867a11.419,11.419,0,0,1,.389-4.008,1.93,1.93,0,0,0-.271-2.166s-.067.037-.176.087a16.018,16.018,0,0,1-.321-3.615,2.588,2.588,0,0,1,.028-.287,5.7,5.7,0,0,0,1.147-.791V182.687s-.135-19.77,1.354-20.178a88.979,88.979,0,0,1,.406,10.7,33.609,33.609,0,0,0,.406,7.313l.271,14.354s.259.124.678.271l-.028.261c-.165,1.6-.43,4-.671,5.479a1.089,1.089,0,0,0-.658.76c-.406,1.354-.135,4.74-.949,5.688a2.979,2.979,0,0,0-.773,2.488c-.176.7-.1,1.8,1.992,1.981,3.115.271,4.469-1.354,4.469-1.354a2.385,2.385,0,0,0,0-1.9,7.926,7.926,0,0,1,.135-3.385s.291-1.838-.185-2.079c-.041-.219-.078-.358-.078-.358a1.631,1.631,0,0,0-.428-1.127,23.424,23.424,0,0,1,.545-5.766c.03-.1.059-.185.091-.287a3.658,3.658,0,0,0,1.145-.4,14.184,14.184,0,0,1,.813-5.281c.949-2.166.406-10.834.406-10.834a10.209,10.209,0,0,1,.167-4.123,40.45,40.45,0,0,0,1.471-6.263l.8-5.594a22.89,22.89,0,0,0-.667-13.8q-.17-.434-.371-.867c-.23-.5-.485-1.006-.771-1.506-.044-.078-.093-.158-.139-.235.291-.072.456-.115.456-.115s-3.656-8.523-1.354-12.865a5.644,5.644,0,0,0,1.482-2.722c.23-1.884.48-3.767.891-5.62l.072-.326s.011-.063.03-.176c.052-.033.1-.069.152-.106,3.9-2.85,7.267-14.749,7.267-14.749l1.084-2.038.515-1.09-1.056,9.214,8.26,2.038,5.281-.406-.015-1.136,4.025-.313ZM445.115,87.33l-1.468-.215c-.258-1.325-.432-2.194-.432-2.194a8.052,8.052,0,0,0,.813-1.217,8.437,8.437,0,0,1,1.086,3.619Zm-5.481-2.844c.1.348.195.573.195.573l.185,1.529-.5-.072a10.042,10.042,0,0,1,.122-2.036ZM485.92,95.16l-1.986.256a7.448,7.448,0,0,0,.424-3.393,1.7,1.7,0,0,0,.545-1.417c1.18,1.41,1.069,3.9,1.017,4.549Zm-3.3-2.114a4.921,4.921,0,0,0,1.618-.91,7.528,7.528,0,0,1-.456,3.3l-1.853.237-.511-.1Z" transform="translate(-364.272 -80.5)"/><path class="c" d="M671.05,98.344l-4.834,2.018L660.6,80.778l1.317-1.564,2.414-.374Z" transform="translate(-538.198 -64.296)"/><path class="d" d="M671.05,98.344l-4.834,2.018L660.6,80.778l1.317-1.564,2.414-.374Z" transform="translate(-538.198 -64.296)"/><path class="c" d="M630.82,80.86l-8.39,1.077,4.3,20.723,8.388-.652Z" transform="translate(-507.101 -65.942)"/><path class="e" d="M630.82,80.86l-8.39,1.077,4.3,20.723,8.388-.652Z" transform="translate(-507.101 -65.942)"/><path class="f" d="M707.3,138.787l-.133-.017c0-.05.556-4.942-2.514-5.559l.026-.132C707.878,133.723,707.309,138.737,707.3,138.787Z" transform="translate(-585.759 -123.402)"/><rect class="g" width="9.242" height="13.528" transform="translate(90.503 29.663)"/><rect class="h" width="9.242" height="13.528" transform="translate(90.503 29.663)"/><path class="c" d="M646.543,110.267l-5.223.4.8-20.358,1.74-1.071,2.411.4Z" transform="translate(-522.49 -72.769)"/><path class="h" d="M646.543,110.267l-5.223.4.8-20.358,1.74-1.071,2.411.4Z" transform="translate(-522.49 -72.769)"/><path class="c" d="M607.943,82.168l-8.3-1.608-2.411,21.028L605.4,103.6Z" transform="translate(-486.57 -65.698)"/><path class="c" d="M375.317,35.03h-1.206L371.7,56.057l5.357-.267Z" transform="translate(-302.828 -28.604)"/><path class="h" d="M375.317,35.03h-1.206L371.7,56.057l5.357-.267Z" transform="translate(-302.828 -28.604)"/><path class="c" d="M382.573,33.58,381.1,54.742l12.857,1.34,1.473-20.626Z" transform="translate(-310.486 -27.422)"/><path class="i" d="M524.569,706.808s-1.606-.133-1.875,4.554c0,0,.269,2.544-.4,3.75s-.269,4.688,1.742,5.09a10.736,10.736,0,0,0,3.891,0s.938,0,.269-3.348l-1.34-9.778Z" transform="translate(-436.946 -590.824)"/><path class="j" d="M524.569,706.808s-1.606-.133-1.875,4.554c0,0,.269,2.544-.4,3.75s-.269,4.688,1.742,5.09a10.736,10.736,0,0,0,3.891,0s.938,0,.269-3.348l-1.34-9.778Z" transform="translate(-436.946 -590.824)"/><path class="k" d="M549.637,256.3a8.964,8.964,0,0,0,.284,3.15l-3.482.938s-5.759.8-3.482-1.482a6.132,6.132,0,0,0,1.343-3.565,19.764,19.764,0,0,0,.1-2.935,26.159,26.159,0,0,0-.237-2.742s8.438-2.946,6.563,1.875a17.148,17.148,0,0,0-.806,2.687A14.173,14.173,0,0,0,549.637,256.3Z" transform="translate(-453.592 -217.656)"/><path class="l" d="M558.363,251.547a17.155,17.155,0,0,0-.806,2.687,5.77,5.77,0,0,1-5.52-1.82,26.175,26.175,0,0,0-.237-2.742S560.238,246.726,558.363,251.547Z" transform="translate(-461.231 -217.664)"/><circle class="k" cx="5.759" cy="5.759" r="5.759" transform="translate(89.365 24.909)"/><path class="k" d="M479.394,117.193v1.742l-2.946,7.634-.8-.8a1.354,1.354,0,0,1-.122-.152c-1.945-2.765-3.361-21.143-3.361-21.143l-1.873-15.54s-2.009-4.818,2.409-4.554.938,4.419.938,4.419,2.946,14.732,2.544,15.268,0,2.144,0,2.144a15.744,15.744,0,0,1,1.071,5.357C477.113,113.837,479.394,117.193,479.394,117.193Z" transform="translate(-394.45 -83.712)"/><path class="k" d="M627.083,129.227l-6.965,14.732-1.071,2s-3.335,11.77-7.187,14.588a3.521,3.521,0,0,1-.715.413l-.8-6.43.741-1.868.056-.143a8.995,8.995,0,0,0,2.008-2.946c.8-1.875,3.081-5.625,3.081-5.625a6.621,6.621,0,0,0,.4-1.875c0-.8,7.634-14.063,7.634-14.063s.669-6.027,3.891-3.081S627.083,129.227,627.083,129.227Z" transform="translate(-508.924 -116.104)"/><path class="k" d="M537.144,702.607s-4.554,1.875-4.019.133a13.916,13.916,0,0,0,.061-4.447c-.093-.91-.2-1.573-.2-1.573l3.891.4a3.149,3.149,0,0,0-.224,1.065A18.755,18.755,0,0,0,537.144,702.607Z" transform="translate(-445.906 -582.606)"/><path class="k" d="M574.739,691.49a27.148,27.148,0,0,0-.519,6.685s-4.152.536-3.75-.536a56.929,56.929,0,0,0,.912-6.572c.1-.943.159-1.6.159-1.6l3.75.8A3.745,3.745,0,0,0,574.739,691.49Z" transform="translate(-476.419 -576.699)"/><path class="l" d="M533,696.69l3.891.4a3.152,3.152,0,0,0-.224,1.065,3.971,3.971,0,0,1-3.465.106C533.1,697.351,533,696.69,533,696.69Z" transform="translate(-445.914 -582.581)"/><path class="l" d="M579.421,690.272a3.745,3.745,0,0,0-.556,1.217,7.2,7.2,0,0,1-3.356-.422c.1-.943.159-1.6.159-1.6Z" transform="translate(-480.548 -576.699)"/><path class="m" d="M527.379,447.068l-.789,5.533a40.007,40.007,0,0,1-1.456,6.194,10.078,10.078,0,0,0-.165,4.076s.535,8.572-.4,10.715a14.048,14.048,0,0,0-.8,5.223c-2.144,1.206-5.223-.269-5.223-.269l-.269-14.2a33.234,33.234,0,0,1-.4-7.226,88.183,88.183,0,0,0-.4-10.58c-1.482.4-1.34,19.956-1.34,19.956v12.724a4.316,4.316,0,0,1-6.027,0c-1.071-3.215-.669-12.992-.669-12.992l-.4-5.759a169.138,169.138,0,0,1-2.409-17.01,47.244,47.244,0,0,1-.115-8.381q.039-.456.085-.876a23.376,23.376,0,0,1,.693-3.752,8.449,8.449,0,0,1,.408-1.188l14.391.669.849.039,2.038.094c.222.335.432.676.626,1.017.282.495.536.993.762,1.482.13.285.252.573.371.858A22.638,22.638,0,0,1,527.379,447.068Z" transform="translate(-424.219 -364.703)"/><path class="l" d="M512.151,436.462s-.63,6.3-5.071,4.477q.039-.456.085-.876c1.045.284,3.937.674,4.047-3.6Z" transform="translate(-424.797 -370.569)"/><path class="l" d="M595.822,436.346c-3.076,1.1-4.236-1.827-4.632-3.5l.849.039c.461,2.626,2.3,2.779,3.424,2.594Q595.652,435.922,595.822,436.346Z" transform="translate(-493.322 -367.628)"/><path class="i" d="M529.078,716.708c-.684-.107-1.729-.484-1.4-1.8,0,0-1.266-.437-1.132,4.786a16.081,16.081,0,0,1-.4,3.081c-.269.537,0,3.75,2.813,3.482,0,0,2.008.669,2.544-.4,0,0-.4-6.161.269-7.226a1.912,1.912,0,0,0-.269-2.144,2.9,2.9,0,0,1-1.631.37A7.2,7.2,0,0,0,529.078,716.708Z" transform="translate(-440.261 -597.418)"/><path class="i" d="M559.2,745.032s-1.34,2.277,1.742,2.544,4.419-1.34,4.419-1.34a2.356,2.356,0,0,0,0-1.875,7.828,7.828,0,0,1,.133-3.348s.4-2.544-.536-2.008S559.2,745.032,559.2,745.032Z" transform="translate(-467.02 -616.995)"/><path class="j" d="M559.2,745.032s-1.34,2.277,1.742,2.544,4.419-1.34,4.419-1.34a2.356,2.356,0,0,0,0-1.875,7.828,7.828,0,0,1,.133-3.348s.4-2.544-.536-2.008S559.2,745.032,559.2,745.032Z" transform="translate(-467.02 -616.995)"/><path class="i" d="M562.627,727.035s-1.606-.669-2.008.669-.133,4.688-.938,5.625-1.875,3.482,1.34,3.348,3.891-1.206,3.891-1.206a17.5,17.5,0,0,1,.269-4.286,4.49,4.49,0,0,0,0-2.409S565.3,726.892,562.627,727.035Z" transform="translate(-466.968 -607.167)"/><circle class="h" cx="0.269" cy="0.269" r="0.269" transform="translate(75.3 7.764)"/><circle class="h" cx="0.269" cy="0.269" r="0.269" transform="translate(80.925 8.433)"/><path class="f" d="M475.737,99.7H475.6c0-.057.095-5.707-3.15-6.228a1.706,1.706,0,0,0-1.553.43c-1.34,1.329-.786,5.081-.78,5.118l-.132.02c-.024-.157-.569-3.858.819-5.233a1.829,1.829,0,0,1,1.668-.469C475.833,93.879,475.739,99.646,475.737,99.7Z" transform="translate(-394.476 -91)"/><path class="f" d="M702.733,140.978l-.12-.057c.02-.044,2.084-4.515-.643-6.074l.067-.117C704.87,136.349,702.756,140.932,702.733,140.978Z" transform="translate(-583.576 -124.746)"/><path class="l" d="M549.92,288.29l-3.482.938s-5.759.8-3.482-1.482a6.132,6.132,0,0,0,1.343-3.565c.91,1.427,2,1.021,2,1.021l3.32-.065h.013A8.917,8.917,0,0,0,549.92,288.29Z" transform="translate(-453.592 -246.505)"/><path class="l" d="M611.869,285.457a3.516,3.516,0,0,1-.715.413l-.8-6.43.741-1.868.185-.143C612.95,277.906,612.086,284.065,611.869,285.457Z" transform="translate(-508.932 -241.006)"/><path class="l" d="M504.413,261.54v1.742l-2.946,7.634-.8-.8a1.353,1.353,0,0,1-.122-.152C500.888,265.98,504.413,261.54,504.413,261.54Z" transform="translate(-419.469 -228.06)"/><path class="l" d="M529.6,431.06c-1.873.469-11.653,2.766-14.555.591a6.612,6.612,0,0,0-3.756-1.223,8.444,8.444,0,0,1,.408-1.188l14.391.669.849.039,2.038.095Q529.309,430.548,529.6,431.06Z" transform="translate(-428.227 -364.687)"/><path class="k" d="M474.1,90.59s2.009,3.348,3.348,0" transform="translate(-397.928 -88.785)"/><path class="k" d="M696.7,127.81s-.8,4.019,2.409,2.144" transform="translate(-579.207 -119.108)"/><g class="n" transform="translate(83.384 64.559)"><path d="M544.812,523.815c-.065-.815-.113-1.325-.113-1.325-1.482.4-1.34,19.956-1.34,19.956v12.724a4.658,4.658,0,0,1-2.659,1.236,4.422,4.422,0,0,0,3.335-1.236V542.446S543.932,528.277,544.812,523.815Z" transform="translate(-535.571 -505.217)"/><path d="M532.07,433.43c-.113-.285-.234-.573-.371-.858-.226-.5-.48-.995-.762-1.482-.185-.341-.4-.68-.626-1.017l-2.038-.095-.849-.039-14.391-.669-.013.03,13.736.639.849.039,2.038.095c.222.335.432.676.626,1.017.282.495.536.993.762,1.482.13.285.252.573.371.858a22.647,22.647,0,0,1,.66,13.647l-.789,5.533a40.014,40.014,0,0,1-1.456,6.194,10.077,10.077,0,0,0-.165,4.076s.536,8.571-.4,10.715a14.046,14.046,0,0,0-.8,5.223,3.892,3.892,0,0,1-1.679.463,4.262,4.262,0,0,0,2.348-.463,14.043,14.043,0,0,1,.8-5.223c.938-2.142.4-10.715.4-10.715a10.079,10.079,0,0,1,.165-4.076,40,40,0,0,0,1.456-6.194l.789-5.533A22.65,22.65,0,0,0,532.07,433.43Z" transform="translate(-513.02 -429.27)"/></g><path class="o" d="M505.449,267.006c1.853.873,6.189-2.479,6.189-2.479,1.875.535.536,8.3.536,8.3l-.072.322c-.408,1.833-.654,3.695-.882,5.559a5.523,5.523,0,0,1-1.456,2.692c-2.277,4.286,1.34,12.724,1.34,12.724s-11.653,3.081-14.866.669-8.036-.536-8.036-.536c2.277-2.009,2.409-14.466,2.409-14.466v-9.635c.269-4.019,3.891-8.571,3.891-8.571a6.731,6.731,0,0,0,5.6,4.427c.913,1.482,2.038,1.065,2.038,1.065Z" transform="translate(-409.415 -228.1)"/><path class="l" d="M529.644,202.231a3.285,3.285,0,0,0-1.4,0c-1.456.4-1.914,2.238-3.039,3.246-.4.371-.9.619-1.269,1.021a3.337,3.337,0,0,0-.645,2.733c.139.958.51,1.866.741,2.805a9.706,9.706,0,0,1,.258,2.876,1.691,1.691,0,0,1-.248.91c-.269.371-.763.487-1.112.784-1.064.915-.185,2.815-.965,3.984-.335.506-.964.839-1.091,1.432a1.96,1.96,0,0,0,.291,1.232,8.923,8.923,0,0,0,1.853,2.826,8.688,8.688,0,0,0,2.915,1.529c.313.117.706.219.945-.013.295-.289.072-.778-.132-1.136a2.415,2.415,0,0,1-.385-1.853c.189-.626.795-1.041,1.2-1.564,1.051-1.353.706-3.294.185-4.925a3.826,3.826,0,0,1-.282-2.118c.08-.3.237-.573.337-.867.445-1.312-.3-2.752-.083-4.119a5.916,5.916,0,0,1,.556-1.532l1.177-2.529a2.5,2.5,0,0,1,.521-.819,1.853,1.853,0,0,1,1.3-.4,3.52,3.52,0,0,1,2.525,1.151c1.26,1.4,1.18,3.52,1.028,5.388l-.109,1.349a4.936,4.936,0,0,1-.8,2.763c-.476.586-1.245.984-1.442,1.714-.17.628.15,1.31-.019,1.938-.252.939-1.412,1.278-2.025,2.038a2.084,2.084,0,0,0-.152,2.344c.233.371.606.741.556,1.177-.043.35-.358.634-.356.986a.784.784,0,0,0,.569.68,2.3,2.3,0,0,0,.939.044l3.322-.3a1.169,1.169,0,0,0,.591-.163,1.041,1.041,0,0,0,.339-.758c.133-1.182-.185-2.474.406-3.508.185-.332.458-.608.663-.926,1.134-1.779-.009-4.191.608-6.209a26.6,26.6,0,0,0,1.156-2.764c.241-1.312-.443-2.594-.708-3.891-.272-1.34-.126-2.815-.841-3.98a4.093,4.093,0,0,0-2.537-1.7,19.561,19.561,0,0,0-2.779-.25C531.328,202.751,530.506,202.37,529.644,202.231Z" transform="translate(-436.019 -179.679)"/><path class="g" d="M529.644,200.781a3.285,3.285,0,0,0-1.4,0c-1.456.4-1.914,2.238-3.039,3.246-.4.371-.9.619-1.269,1.021a3.337,3.337,0,0,0-.645,2.733c.139.958.51,1.866.741,2.805a9.706,9.706,0,0,1,.258,2.876,1.691,1.691,0,0,1-.248.91c-.269.371-.763.487-1.112.784-1.064.915-.185,2.815-.965,3.984-.335.506-.964.839-1.091,1.432a1.96,1.96,0,0,0,.291,1.232,8.922,8.922,0,0,0,1.853,2.826,8.688,8.688,0,0,0,2.915,1.529c.313.117.706.219.945-.013.295-.289.072-.778-.132-1.136a2.415,2.415,0,0,1-.385-1.853c.189-.626.795-1.041,1.2-1.564,1.051-1.353.706-3.294.185-4.925a3.826,3.826,0,0,1-.282-2.118c.08-.3.237-.573.337-.867.445-1.312-.3-2.752-.083-4.119a5.916,5.916,0,0,1,.556-1.532l1.177-2.529a2.5,2.5,0,0,1,.521-.819,1.853,1.853,0,0,1,1.3-.4,3.52,3.52,0,0,1,2.525,1.151c1.26,1.4,1.18,3.52,1.028,5.388l-.109,1.349a4.936,4.936,0,0,1-.8,2.763c-.476.586-1.245.984-1.442,1.714-.17.628.15,1.31-.019,1.938-.252.939-1.412,1.279-2.025,2.038a2.084,2.084,0,0,0-.152,2.344c.233.371.606.741.556,1.177-.043.35-.358.634-.356.986a.784.784,0,0,0,.569.68,2.3,2.3,0,0,0,.939.044l3.322-.3a1.17,1.17,0,0,0,.591-.163,1.041,1.041,0,0,0,.339-.758c.133-1.182-.185-2.474.406-3.508.185-.332.458-.608.663-.926,1.134-1.779-.009-4.191.608-6.209a26.6,26.6,0,0,0,1.156-2.765c.241-1.312-.443-2.594-.708-3.891-.272-1.34-.126-2.815-.841-3.98a4.093,4.093,0,0,0-2.537-1.7,19.563,19.563,0,0,0-2.779-.25C531.328,201.3,530.506,200.921,529.644,200.781Z" transform="translate(-436.019 -178.497)"/><path class="l" d="M529.75,362.588s2.679.8,6.563-.938h2.007s.133,1.875,5.357,1.071" transform="translate(-443.266 -309.62)"/><ellipse class="a" cx="99.5" cy="9.079" rx="99.5" ry="9.079" transform="translate(0 118.706)"/><rect class="a" width="14.823" height="5.559" rx="2.779" transform="translate(46.693 47.74)"/><rect class="a" width="14.823" height="5.559" rx="2.779" transform="translate(53.363 53.855)"/><rect class="a" width="14.823" height="5.559" rx="2.779" transform="translate(111.729 48.111)"/><rect class="a" width="14.823" height="5.559" rx="2.779" transform="translate(118.4 54.225)"/><rect class="a" width="14.823" height="5.559" rx="2.779" transform="translate(42.061 59.969)"/><rect class="a" width="14.823" height="5.559" rx="2.779" transform="translate(56.884 81.648)"/><rect class="a" width="14.823" height="5.559" rx="2.779" transform="translate(63.554 87.763)"/><rect class="a" width="14.823" height="5.559" rx="2.779" transform="translate(52.252 93.877)"/><rect class="a" width="14.823" height="5.559" rx="2.779" transform="translate(116.547 97.212)"/><rect class="a" width="14.823" height="5.559" rx="2.779" transform="translate(105.244 103.327)"/><g class="n" transform="translate(166.811 71.547)"><path class="p" d="M1005.4,558.364s-2.683-13.593,2.842-22.909a20.994,20.994,0,0,0,2.9-12.959,35.309,35.309,0,0,0-1.3-6.326" transform="translate(-997.061 -507.056)"/><path class="c" d="M1024.987,470.205c-.148,1.621-3.52,6.055-3.52,6.055s-2.505-4.973-2.355-6.6a2.949,2.949,0,1,1,5.874.539Z" transform="translate(-1008.76 -466.984)"/><path class="c" d="M1045.144,513.848c-1.006,1.28-6.244,3.172-6.244,3.172s.6-5.536,1.607-6.817a2.95,2.95,0,1,1,4.632,3.645Z" transform="translate(-1024.887 -501.196)"/><path class="c" d="M1033.1,592.961c-1.516.6-6.991-.415-6.991-.415s3.313-4.477,4.829-5.073a2.95,2.95,0,1,1,2.163,5.489Z" transform="translate(-1014.467 -564.98)"/><path class="c" d="M1012.5,655.09c-1.393.845-6.961.773-6.961.773s2.509-4.971,3.9-5.816a2.95,2.95,0,1,1,3.059,5.044Z" transform="translate(-997.708 -615.778)"/><path class="c" d="M1002.339,529.593c1.06,1.238,6.372,2.905,6.372,2.905s-.834-5.507-1.892-6.743a2.95,2.95,0,1,0-4.48,3.838Z" transform="translate(-994.522 -514.026)"/><path class="c" d="M976.02,598.85c1.38.863,6.95.865,6.95.865s-2.442-5-3.824-5.868a2.95,2.95,0,1,0-3.126,5Z" transform="translate(-972.528 -569.975)"/><path class="c" d="M964.334,672.776c1.215,1.084,6.7,2.029,6.7,2.029s-1.562-5.346-2.779-6.43a2.95,2.95,0,1,0-3.924,4.4Z" transform="translate(-963.273 -630.396)"/></g><g class="n" transform="translate(147.444 92.412)"><path class="p" d="M881.093,628.167s-1.44-7.3,1.525-12.3a11.273,11.273,0,0,0,1.555-6.959,18.966,18.966,0,0,0-.693-3.4" transform="translate(-876.668 -600.708)"/><path class="c" d="M891.61,581.229c-.08.871-1.89,3.252-1.89,3.252s-1.345-2.67-1.266-3.541a1.584,1.584,0,0,1,3.15.289Z" transform="translate(-882.948 -579.591)"/><path class="c" d="M902.424,604.657c-.541.687-3.354,1.7-3.354,1.7s.322-2.965.863-3.66a1.584,1.584,0,0,1,2.49,1.957Z" transform="translate(-891.599 -597.955)"/><path class="c" d="M895.964,646.836c-.813.32-3.754-.222-3.754-.222s1.779-2.409,2.594-2.724a1.584,1.584,0,0,1,1.162,2.946Z" transform="translate(-886.01 -631.9)"/><path class="c" d="M884.907,679.993c-.741.454-3.737.415-3.737.415s1.347-2.67,2.1-3.124a1.584,1.584,0,1,1,1.642,2.709Z" transform="translate(-877.016 -658.979)"/><path class="c" d="M879.439,612.721c.569.665,3.422,1.56,3.422,1.56s-.447-2.965-1.015-3.62a1.585,1.585,0,1,0-2.409,2.06Z" transform="translate(-875.294 -604.452)"/><path class="c" d="M865.314,649.905c.741.463,3.732.465,3.732.465s-1.312-2.687-2.053-3.15a1.584,1.584,0,1,0-1.679,2.687Z" transform="translate(-863.491 -634.493)"/><path class="c" d="M859.271,689.755c.652.582,3.6,1.09,3.6,1.09s-.837-2.87-1.482-3.452a1.584,1.584,0,1,0-2.109,2.364Z" transform="translate(-858.75 -667.09)"/></g><g class="n" transform="translate(30.156 93.523)"><path class="p" d="M248.093,634.167s-1.44-7.3,1.525-12.3a11.273,11.273,0,0,0,1.555-6.959,18.959,18.959,0,0,0-.693-3.4" transform="translate(-243.669 -606.708)"/><path class="c" d="M258.61,587.229c-.08.871-1.89,3.252-1.89,3.252s-1.345-2.67-1.266-3.541a1.584,1.584,0,0,1,3.15.289Z" transform="translate(-249.948 -585.592)"/><path class="c" d="M269.424,610.657c-.541.687-3.354,1.7-3.354,1.7s.322-2.965.863-3.659a1.584,1.584,0,0,1,2.49,1.957Z" transform="translate(-258.599 -603.955)"/><path class="c" d="M262.964,652.836c-.813.32-3.754-.222-3.754-.222s1.779-2.409,2.594-2.724a1.584,1.584,0,0,1,1.162,2.946Z" transform="translate(-253.01 -637.9)"/><path class="c" d="M251.907,685.992c-.741.454-3.737.415-3.737.415s1.347-2.67,2.1-3.124a1.584,1.584,0,1,1,1.642,2.709Z" transform="translate(-244.016 -664.979)"/><path class="c" d="M246.439,618.721c.569.665,3.422,1.56,3.422,1.56s-.447-2.965-1.015-3.621a1.585,1.585,0,0,0-2.409,2.06Z" transform="translate(-242.294 -610.452)"/><path class="c" d="M232.314,655.905c.741.463,3.732.465,3.732.465s-1.312-2.687-2.053-3.15a1.584,1.584,0,1,0-1.679,2.687Z" transform="translate(-230.491 -640.493)"/><path class="c" d="M226.271,695.755c.652.582,3.6,1.089,3.6,1.089s-.838-2.87-1.482-3.452a1.584,1.584,0,1,0-2.109,2.365Z" transform="translate(-225.75 -673.09)"/></g></g></svg>