<svg xmlns="http://www.w3.org/2000/svg" width="24.271" height="22.519" viewBox="0 0 24.271 22.519"><defs><style>.a{fill:#fff;}</style></defs><g transform="translate(0 0.001)"><path class="a" d="M58,30.52v3.869a.7.7,0,0,0,.7.7h7.738a.7.7,0,0,0,.7-.7V30.52a2.817,2.817,0,0,0-2.814-2.814h-.039a2.462,2.462,0,1,0-3.44,0h-.039A2.817,2.817,0,0,0,58,30.52Zm2.814-4.573a1.759,1.759,0,1,1,1.759,1.759A1.759,1.759,0,0,1,60.814,25.947Zm3.517,2.462a2.113,2.113,0,0,1,2.11,2.11v3.869H58.7V30.52a2.113,2.113,0,0,1,2.11-2.11Z" transform="translate(-50.437 -23.482)"/><path class="a" d="M38.87,45.294h-7.8l1.02-.422a.705.705,0,0,0,.38-.92l-.308-.744a9.67,9.67,0,0,0,.867-.58l.57.57a.7.7,0,0,0,1,0l.994-.994a.7.7,0,0,0,0-1l-.57-.57a9.669,9.669,0,0,0,.58-.867l.744.308a.707.707,0,0,0,.92-.38l.538-1.3a.705.705,0,0,0-.382-.92l-.742-.308a10.219,10.219,0,0,0,.2-1.024h.805a.7.7,0,0,0,.7-.7V30.521a2.818,2.818,0,0,0-2.814-2.814h-.039a2.462,2.462,0,1,0-3.44,0H32.06a2.774,2.774,0,0,0-.883.144,3.547,3.547,0,0,1,.547.589,2.111,2.111,0,0,1,.336-.03h3.517a2.112,2.112,0,0,1,2.11,2.11V34.39H32.412a1.4,1.4,0,0,1-.19.7h5.466v.352H36.573a.352.352,0,0,0-.35.313,9.119,9.119,0,0,1-.3,1.523.352.352,0,0,0,.2.422l1.029.427-.538,1.3L35.586,39a.35.35,0,0,0-.441.155,9.291,9.291,0,0,1-.865,1.291.35.35,0,0,0,.026.468l.788.79L34.1,42.7l-.79-.788a.35.35,0,0,0-.468-.026,9.291,9.291,0,0,1-1.291.865.35.35,0,0,0-.155.441l.427,1.029-1.3.538L30.1,43.73a.353.353,0,0,0-.422-.2,9.119,9.119,0,0,1-1.523.3.352.352,0,0,0-.313.35v1.115H26.432V44.179a.352.352,0,0,0-.313-.35c-.51-.056-1.588-.317-1.62-.317a.355.355,0,0,0-.325.218l-.427,1.029-1.3-.538.427-1.029a.35.35,0,0,0-.155-.441,9.291,9.291,0,0,1-1.291-.865.35.35,0,0,0-.468.026l-.79.788-.994-.994.788-.79a.35.35,0,0,0,.026-.468,9.291,9.291,0,0,1-.865-1.291A.35.35,0,0,0,18.685,39l-1.029.427-.538-1.3,1.029-.427a.352.352,0,0,0,.2-.422,9.118,9.118,0,0,1-.3-1.523.352.352,0,0,0-.35-.313H16.583v-.352h5.466a1.4,1.4,0,0,1-.19-.7H16.583V30.521a2.112,2.112,0,0,1,2.11-2.11h3.517a2.112,2.112,0,0,1,.336.03,3.547,3.547,0,0,1,.547-.589,2.773,2.773,0,0,0-.883-.144h-.039a2.462,2.462,0,1,0-3.44,0h-.039a2.818,2.818,0,0,0-2.814,2.814v4.924a.7.7,0,0,0,.7.7h.806a10.219,10.219,0,0,0,.2,1.024l-.742.308a.705.705,0,0,0-.382.92L17,39.7a.705.705,0,0,0,.92.38l.744-.308a9.67,9.67,0,0,0,.58.867l-.57.57a.7.7,0,0,0,0,1l.994.994a.7.7,0,0,0,1,0l.57-.57a9.67,9.67,0,0,0,.867.58l-.308.744a.705.705,0,0,0,.38.92l1.02.422H15.4a.355.355,0,1,0,0,.7H38.87a.355.355,0,1,0,0-.7ZM33.819,27.707a1.759,1.759,0,1,1,1.759-1.759A1.759,1.759,0,0,1,33.819,27.707ZM18.693,25.948a1.759,1.759,0,1,1,1.759,1.759A1.759,1.759,0,0,1,18.693,25.948Zm7.035,19.346H24.2a.7.7,0,0,0,.2-.266l.308-.742a10.218,10.218,0,0,0,1.024.2Zm2.814,0v-.806a10.218,10.218,0,0,0,1.024-.2l.308.742a.7.7,0,0,0,.2.266Z" transform="translate(-15 -23.482)"/><path class="a" d="M60.054,89.5a6.506,6.506,0,0,1-12.994,0h.705a5.8,5.8,0,0,0,11.583,0Z" transform="translate(-41.421 -77.89)"/></g></svg>