<svg xmlns="http://www.w3.org/2000/svg" width="24.814" height="23.044" viewBox="0 0 24.814 23.044"><defs><style>.a{fill:#5382fc;stroke:#5382fc;stroke-width:0.5px;}</style></defs><g transform="translate(0.259 0.251)"><path class="a" d="M58,30.527V34.4a.705.705,0,0,0,.7.7h7.747a.705.705,0,0,0,.7-.7V30.527a2.82,2.82,0,0,0-2.817-2.817H64.3a2.465,2.465,0,1,0-3.443,0h-.039A2.82,2.82,0,0,0,58,30.527Zm2.817-4.578a1.761,1.761,0,1,1,1.761,1.761A1.761,1.761,0,0,1,60.817,25.95Zm3.521,2.465a2.115,2.115,0,0,1,2.113,2.113V34.4H58.7V30.527a2.115,2.115,0,0,1,2.113-2.113Z" transform="translate(-50.429 -23.482)"/><path class="a" d="M38.895,45.317h-7.8l1.021-.423a.706.706,0,0,0,.38-.921l-.308-.745a9.681,9.681,0,0,0,.868-.581l.57.57a.706.706,0,0,0,1,0l.995-.995a.706.706,0,0,0,0-1l-.57-.57a9.678,9.678,0,0,0,.581-.868l.745.308a.707.707,0,0,0,.921-.38l.539-1.3a.706.706,0,0,0-.382-.921l-.743-.308a10.229,10.229,0,0,0,.2-1.025h.806a.7.7,0,0,0,.7-.7v-4.93A2.821,2.821,0,0,0,35.6,27.711H35.56a2.465,2.465,0,1,0-3.444,0h-.039a2.776,2.776,0,0,0-.884.144,3.55,3.55,0,0,1,.548.59,2.114,2.114,0,0,1,.336-.03H35.6a2.114,2.114,0,0,1,2.113,2.113V34.4H32.43a1.4,1.4,0,0,1-.19.7h5.472v.352H36.6a.353.353,0,0,0-.35.313,9.128,9.128,0,0,1-.3,1.525.352.352,0,0,0,.2.423l1.03.428-.539,1.3-1.03-.428a.351.351,0,0,0-.442.155,9.3,9.3,0,0,1-.866,1.292.351.351,0,0,0,.026.468l.789.791-.995.995-.791-.789a.351.351,0,0,0-.468-.026,9.3,9.3,0,0,1-1.292.866.351.351,0,0,0-.155.442l.428,1.03-1.3.539-.428-1.03a.353.353,0,0,0-.423-.2,9.129,9.129,0,0,1-1.525.3.353.353,0,0,0-.313.35v1.116H26.444V44.2a.353.353,0,0,0-.313-.35c-.511-.056-1.59-.317-1.622-.317a.355.355,0,0,0-.326.218l-.428,1.03-1.3-.539.428-1.03a.351.351,0,0,0-.155-.442,9.3,9.3,0,0,1-1.292-.866.351.351,0,0,0-.468.026l-.791.789-.995-.995.789-.791A.351.351,0,0,0,20,40.467a9.3,9.3,0,0,1-.866-1.292.351.351,0,0,0-.442-.155l-1.03.428-.539-1.3,1.03-.428a.352.352,0,0,0,.2-.423,9.128,9.128,0,0,1-.3-1.525.353.353,0,0,0-.35-.313H16.585v-.352h5.472a1.4,1.4,0,0,1-.19-.7H16.585V30.528A2.114,2.114,0,0,1,18.7,28.415h3.521a2.114,2.114,0,0,1,.336.03,3.551,3.551,0,0,1,.548-.59,2.776,2.776,0,0,0-.884-.144H22.18a2.465,2.465,0,1,0-3.444,0H18.7a2.821,2.821,0,0,0-2.817,2.817v4.93a.7.7,0,0,0,.7.7h.806a10.23,10.23,0,0,0,.2,1.025l-.743.308a.706.706,0,0,0-.382.921l.539,1.3a.706.706,0,0,0,.921.38l.745-.308a9.68,9.68,0,0,0,.581.868l-.57.57a.706.706,0,0,0,0,1l.995.995a.706.706,0,0,0,1,0l.57-.57a9.68,9.68,0,0,0,.868.581l-.308.745a.706.706,0,0,0,.38.921l1.021.423H15.4a.355.355,0,1,0,0,.7H38.895a.355.355,0,1,0,0-.7ZM33.838,27.711A1.761,1.761,0,1,1,35.6,25.95,1.761,1.761,0,0,1,33.838,27.711ZM18.7,25.95a1.761,1.761,0,1,1,1.761,1.761A1.761,1.761,0,0,1,18.7,25.95ZM25.74,45.317H24.21a.7.7,0,0,0,.2-.266l.308-.743a10.227,10.227,0,0,0,1.025.2Zm2.817,0v-.806a10.227,10.227,0,0,0,1.025-.2l.308.743a.7.7,0,0,0,.2.266Z" transform="translate(-15 -23.482)"/><path class="a" d="M60.067,89.5a6.513,6.513,0,0,1-13.007,0h.706a5.808,5.808,0,0,0,11.6,0Z" transform="translate(-41.415 -77.877)"/></g></svg>