<svg xmlns="http://www.w3.org/2000/svg" width="24.836" height="23.065" viewBox="0 0 24.836 23.065"><defs><style>.a{fill:#5382fc;stroke:#5382fc;stroke-width:0.5px;}</style></defs><g transform="translate(0.259 0.251)"><path class="a" d="M58,30.534v3.877a.706.706,0,0,0,.7.7h7.754a.706.706,0,0,0,.7-.7V30.534a2.823,2.823,0,0,0-2.82-2.82h-.039a2.467,2.467,0,1,0-3.447,0H60.82A2.823,2.823,0,0,0,58,30.534Zm2.82-4.582a1.762,1.762,0,1,1,1.762,1.762A1.762,1.762,0,0,1,60.82,25.952Zm3.524,2.467a2.117,2.117,0,0,1,2.115,2.115v3.877H58.7V30.534a2.117,2.117,0,0,1,2.115-2.115Z" transform="translate(-50.422 -23.482)"/><path class="a" d="M38.917,45.337H31.1l1.022-.423a.707.707,0,0,0,.381-.922l-.308-.745a9.69,9.69,0,0,0,.869-.582l.571.571a.706.706,0,0,0,1,0l1-1a.706.706,0,0,0,0-1l-.571-.571a9.689,9.689,0,0,0,.582-.869l.745.308a.708.708,0,0,0,.922-.381l.539-1.3a.707.707,0,0,0-.382-.922l-.744-.308a10.24,10.24,0,0,0,.2-1.026h.807a.7.7,0,0,0,.7-.7V30.534a2.823,2.823,0,0,0-2.82-2.82h-.039a2.467,2.467,0,1,0-3.447,0h-.039a2.779,2.779,0,0,0-.885.145,3.554,3.554,0,0,1,.548.59,2.116,2.116,0,0,1,.337-.03h3.524a2.116,2.116,0,0,1,2.115,2.115v3.877H32.446a1.406,1.406,0,0,1-.19.7h5.477v.352H36.615a.353.353,0,0,0-.351.314,9.137,9.137,0,0,1-.3,1.526.353.353,0,0,0,.2.423l1.031.428-.539,1.3-1.031-.428a.351.351,0,0,0-.442.155,9.31,9.31,0,0,1-.867,1.293.351.351,0,0,0,.026.469l.789.791-1,1-.791-.789a.351.351,0,0,0-.469-.026,9.31,9.31,0,0,1-1.293.867.351.351,0,0,0-.155.442l.428,1.031-1.3.539-.428-1.031a.354.354,0,0,0-.423-.2,9.137,9.137,0,0,1-1.526.3.353.353,0,0,0-.314.351v1.117h-1.41V44.22a.353.353,0,0,0-.314-.351c-.511-.056-1.591-.317-1.623-.317a.356.356,0,0,0-.326.219L23.764,44.8l-1.3-.539.428-1.031a.351.351,0,0,0-.155-.442,9.31,9.31,0,0,1-1.293-.867.351.351,0,0,0-.469.026l-.791.789-1-1,.789-.791A.351.351,0,0,0,20,40.482a9.309,9.309,0,0,1-.867-1.293.351.351,0,0,0-.442-.155l-1.031.428-.539-1.3,1.031-.428a.353.353,0,0,0,.2-.423,9.136,9.136,0,0,1-.3-1.526.353.353,0,0,0-.351-.314H16.586v-.352h5.477a1.406,1.406,0,0,1-.19-.7H16.586V30.534A2.116,2.116,0,0,1,18.7,28.42h3.524a2.116,2.116,0,0,1,.337.03,3.554,3.554,0,0,1,.548-.59,2.779,2.779,0,0,0-.885-.145h-.039a2.467,2.467,0,1,0-3.447,0H18.7a2.823,2.823,0,0,0-2.82,2.82v4.934a.7.7,0,0,0,.7.7h.807a10.239,10.239,0,0,0,.2,1.026l-.744.308a.707.707,0,0,0-.382.922l.539,1.3a.707.707,0,0,0,.922.381l.745-.308a9.689,9.689,0,0,0,.582.869l-.571.571a.706.706,0,0,0,0,1l1,1a.706.706,0,0,0,1,0l.571-.571a9.689,9.689,0,0,0,.869.582l-.308.745a.707.707,0,0,0,.381.922l1.022.423H15.4a.355.355,0,1,0,0,.7H38.917a.355.355,0,1,0,0-.7ZM33.856,27.715a1.762,1.762,0,1,1,1.762-1.762A1.762,1.762,0,0,1,33.856,27.715ZM18.7,25.953a1.762,1.762,0,1,1,1.762,1.762A1.762,1.762,0,0,1,18.7,25.953ZM25.75,45.337H24.218a.7.7,0,0,0,.2-.266l.308-.744a10.239,10.239,0,0,0,1.026.2Zm2.82,0V44.53a10.238,10.238,0,0,0,1.026-.2l.308.744a.7.7,0,0,0,.2.266Z" transform="translate(-15 -23.482)"/><path class="a" d="M60.079,89.5a6.519,6.519,0,0,1-13.019,0h.707a5.814,5.814,0,0,0,11.606,0Z" transform="translate(-41.41 -77.867)"/></g></svg>