<svg xmlns="http://www.w3.org/2000/svg" width="34.94" height="40.655" viewBox="0 0 34.94 40.655"><defs><style>.a{fill:#f4d44e;}.b{fill:#e8c842;}.c{fill:#dbbc3b;}.d{fill:#eae9e8;}</style></defs><g transform="translate(-35.986 0)"><path class="a" d="M119.093,128.225a16.469,16.469,0,0,1-2.512-4.611c-.53-1.407-1.111-2.008-2.285-1.572-1.278.474-1.466,1.838-1.075,3.1.011.035.049.18.119.406l-6.052-8.187a2.051,2.051,0,0,0-2.732-.542,2.024,2.024,0,0,0-.548,2.915l-1.031-1.394a2.054,2.054,0,0,0-2.814-.492,2.024,2.024,0,0,0-.468,2.862l1.058,1.431a2.024,2.024,0,0,0-2.948-.331,2.051,2.051,0,0,0-.282,2.771l1.954,2.643a2.024,2.024,0,0,0-2.948-.331,2.051,2.051,0,0,0-.283,2.771l9.612,13a7.507,7.507,0,0,0,3.89,2.738,4.031,4.031,0,0,1,2.158,1.722l.068.092a1.722,1.722,0,0,0,2.408.361l7.651-5.656a1.709,1.709,0,0,0,.358-2.39l-1.019-1.379.267-4a6.346,6.346,0,0,0-1.292-4.294C119.328,128.535,119.24,128.4,119.093,128.225Z" transform="translate(-55.096 -107.26)"/><path class="b" d="M195.886,118.729a2.024,2.024,0,0,1-.129-2.209,1.968,1.968,0,0,0-1.046.305h0q-.052.033-.1.069l0,0q-.048.035-.094.072h0a2.024,2.024,0,0,0-.349,2.769h0l5.86,7.927a.949.949,0,0,0,1.351.181h0a1.042,1.042,0,0,0,.192-1.438Zm-.07-.094Z" transform="translate(-145.252 -107.268)"/><g transform="translate(40.738 10.23)"><path class="c" d="M142.213,131.907l-.143-.194-.5-.677a2.024,2.024,0,0,1-.13-2.207,1.973,1.973,0,0,0-1.125.357,2.024,2.024,0,0,0-.487,2.835l6.894,9.328a.949.949,0,0,0,1.4.138h0a1.107,1.107,0,0,0,.142-1.482Z" transform="translate(-135.987 -128.829)"/><path class="c" d="M113.693,260.879l-.068-.092a4.03,4.03,0,0,0-2.158-1.722,7.507,7.507,0,0,1-3.89-2.738l-9.612-13a2.075,2.075,0,0,1-.146-2.248,2.018,2.018,0,0,0-1.294.489,2.051,2.051,0,0,0-.283,2.771l9.612,13a7.506,7.506,0,0,0,3.89,2.738A4.031,4.031,0,0,1,111.9,261.8l.068.092a1.722,1.722,0,0,0,2.408.361l.934-.69A1.721,1.721,0,0,1,113.693,260.879Z" transform="translate(-95.832 -232.164)"/><path class="c" d="M118.065,188.094a.973.973,0,0,0,1.47.11h0a.99.99,0,0,0,.1-1.285l-5.593-7.61a2.075,2.075,0,0,1-.146-2.248,2.017,2.017,0,0,0-1.294.489,2.051,2.051,0,0,0-.282,2.771Z" transform="translate(-110.632 -173.23)"/></g><path class="b" d="M312.778,188.051l1.1,1.471a.815.815,0,0,0,1.175.138h0a.9.9,0,0,0,.225-1.1,12.481,12.481,0,0,1-.9-1.924,3.179,3.179,0,0,1,.062-2.228h-.084a1.6,1.6,0,0,0-.179.018,1.943,1.943,0,0,0-.2.041,2.6,2.6,0,0,0-.251.079c-1.278.514-1.471,1.821-1.075,3.1.011.035.049.18.118.406Z" transform="translate(-254.535 -169.764)"/><path class="a" d="M160.62,97.533a16.469,16.469,0,0,1-2.512-4.611c-.53-1.407-1.111-2.008-2.285-1.572-1.278.474-1.466,1.838-1.075,3.1.011.035.049.18.119.406l-6.052-8.187a2.051,2.051,0,0,0-2.732-.542,2.024,2.024,0,0,0-.548,2.915L144.5,87.647a2.054,2.054,0,0,0-2.814-.492,2.024,2.024,0,0,0-.468,2.862l1.058,1.431a2.024,2.024,0,0,0-2.948-.331,2.051,2.051,0,0,0-.282,2.771L141,96.531a2.024,2.024,0,0,0-2.948-.331,2.051,2.051,0,0,0-.283,2.771l9.612,13a7.507,7.507,0,0,0,3.89,2.738,4.031,4.031,0,0,1,2.158,1.722l.068.092a1.722,1.722,0,0,0,2.408.361l7.651-5.656a1.709,1.709,0,0,0,.358-2.39l-1.019-1.379.267-4a6.346,6.346,0,0,0-1.292-4.294C160.856,97.843,160.767,97.7,160.62,97.533Z" transform="translate(-93.326 -79.006)"/><g transform="translate(44.033 6.815)"><path class="b" d="M237.414,88.037a2.024,2.024,0,0,1-.129-2.209,1.947,1.947,0,0,0-1.246.45h0a2.024,2.024,0,0,0-.349,2.769h0l5.86,7.927a.949.949,0,0,0,1.351.181h0a1.042,1.042,0,0,0,.192-1.438Zm-.07-.094Z" transform="translate(-227.516 -85.828)"/><path class="b" d="M183.742,101.215l-.143-.194-.5-.677a2.024,2.024,0,0,1-.13-2.207,1.973,1.973,0,0,0-1.125.357,2.024,2.024,0,0,0-.487,2.835l1.077,1.458,5.818,7.87a.949.949,0,0,0,1.4.138h0a1.107,1.107,0,0,0,.142-1.482Z" transform="translate(-177.513 -97.16)"/><path class="b" d="M155.194,230.187l-.068-.092a4.03,4.03,0,0,0-2.158-1.722,7.507,7.507,0,0,1-3.89-2.738l-9.612-13a2.075,2.075,0,0,1-.146-2.248,2.03,2.03,0,0,0-1.577,3.26l9.612,13a7.507,7.507,0,0,0,3.89,2.738,4.031,4.031,0,0,1,2.158,1.722l.068.092a1.722,1.722,0,0,0,2.408.361l.934-.69A1.721,1.721,0,0,1,155.194,230.187Z" transform="translate(-137.331 -200.495)"/><path class="b" d="M159.568,157.4a.973.973,0,0,0,1.47.11h0a.99.99,0,0,0,.1-1.285l-5.593-7.61a2.075,2.075,0,0,1-.146-2.248,2.03,2.03,0,0,0-1.577,3.26Z" transform="translate(-152.132 -141.561)"/></g><g transform="translate(35.986 0)"><path class="d" d="M136.036,4.864,133.87,1.611a1.038,1.038,0,0,1,.5-1.549h0a.977.977,0,0,1,1.309.792l.506,3.953A.083.083,0,0,1,136.036,4.864Z" transform="translate(-125.937 0)"/><path class="d" d="M77.353,44.029l-2.165-3.252a1.04,1.04,0,0,0-1.626-.133h0a.976.976,0,0,0,.226,1.511l3.454,1.992A.083.083,0,0,0,77.353,44.029Z" transform="translate(-70.337 -37.112)"/><path class="d" d="M41.065,108.582l-3.8-1.112a1,1,0,0,0-1.279.907h0a1.016,1.016,0,0,0,1.193,1.054l3.876-.687A.084.084,0,0,0,41.065,108.582Z" transform="translate(-35.986 -98.899)"/><path class="d" d="M313.9,4.934l2.178-3.271a1.022,1.022,0,0,0-.5-1.525h0a.994.994,0,0,0-1.331.806l-.5,3.933A.083.083,0,0,0,313.9,4.934Z" transform="translate(-291.689 -0.07)"/><path class="d" d="M354.326,43.471l2.221-3.336a.961.961,0,0,1,1.5-.123h0a1.056,1.056,0,0,1-.244,1.635l-3.367,1.942A.084.084,0,0,1,354.326,43.471Z" transform="translate(-329.035 -36.554)"/><path class="d" d="M378.2,108.821l3.718-1.088a1.066,1.066,0,0,1,1.364.967h0a.95.95,0,0,1-1.115.985l-3.958-.7A.083.083,0,0,1,378.2,108.821Z" transform="translate(-350.972 -99.138)"/></g><path class="b" d="M354.322,157.358l1.1,1.471a.815.815,0,0,0,1.175.138h0a.9.9,0,0,0,.225-1.1l-.552-1.079a5.259,5.259,0,0,1-.343-.845h0a3,3,0,0,1,.062-2.227,1.459,1.459,0,0,0-.15.005l-.022,0-.062.007-.029,0-.059.01-.037.007-.054.012-.046.012-.049.013-.06.018-.039.012c-1.35.443-1.59,1.807-1.178,3.136.011.036.049.18.118.406Z" transform="translate(-292.782 -141.508)"/></g></svg>