<svg xmlns="http://www.w3.org/2000/svg" width="65.088" height="65.088" viewBox="0 0 65.088 65.088"><defs><style>.a{fill:#b1f1fe;}.b{fill:#2e53bf;}</style></defs><path class="a" d="M-19683.621,23161.953h-22.775s-2.385-10.555,7.072-12.543c-1.158-4.555-2.154-9.3,1.422-11.148s8.494-1,8.639,5c-.043,4.7-1.795,6.152-1.795,6.152,3.363.785,6.967,2.09,7.438,5.184A34.649,34.649,0,0,1-19683.621,23161.953Z" transform="translate(19707.158 -23129.408)"/><g transform="translate(0 0)"><path class="b" d="M59.264,313.093l-2.627-.912a6.345,6.345,0,0,0,2.417-4.982v-1.926a6.355,6.355,0,0,0-12.709,0V307.2a6.345,6.345,0,0,0,2.417,4.982l-2.627.912a8.59,8.59,0,0,0-3.514,2.3,8.649,8.649,0,0,0-3.511-2.3l-2.627-.912A6.345,6.345,0,0,0,38.9,307.2v-1.926a6.355,6.355,0,0,0-12.709,0V307.2a6.346,6.346,0,0,0,2.417,4.982l-2.627.912a8.649,8.649,0,0,0-3.511,2.3,8.591,8.591,0,0,0-3.514-2.3l-2.628-.912a6.345,6.345,0,0,0,2.417-4.982v-1.926a6.354,6.354,0,1,0-12.709,0V307.2a6.345,6.345,0,0,0,2.417,4.982l-2.627.912A8.672,8.672,0,0,0,0,321.279v3.764a.963.963,0,0,0,.963.963H31.641a.963.963,0,1,0,0-1.926h-9.56v-2.8a6.746,6.746,0,0,1,4.529-6.367l3.914-1.359h4.04l3.914,1.359a6.746,6.746,0,0,1,4.529,6.367v2.8H36.138a.963.963,0,1,0,0,1.926H64.125a.963.963,0,0,0,.963-.963v-3.764A8.672,8.672,0,0,0,59.264,313.093Zm-51.305-7.82a4.429,4.429,0,0,1,8.858,0V307.2a4.429,4.429,0,0,1-8.858,0ZM1.926,324.08v-2.8a6.745,6.745,0,0,1,4.529-6.367l3.914-1.359h4.04l3.914,1.359a6.682,6.682,0,0,1,2.978,2.067,8.646,8.646,0,0,0-1.146,4.3v2.8Zm26.189-18.807a4.429,4.429,0,0,1,8.858,0V307.2a4.429,4.429,0,0,1-8.858,0Zm20.155,0a4.429,4.429,0,0,1,8.858,0V307.2a4.429,4.429,0,0,1-8.858,0ZM63.162,324.08H44.932v-2.8a8.645,8.645,0,0,0-1.146-4.3,6.686,6.686,0,0,1,2.978-2.067l3.914-1.359h4.04l3.914,1.359a6.745,6.745,0,0,1,4.529,6.367Zm0,0" transform="translate(0 -260.918)"/><path class="b" d="M.963,80.226H5.884a.963.963,0,0,0,0-1.926H1.926V74.513a6.747,6.747,0,0,1,6.641-6.738,6.34,6.34,0,0,0,7.643,0,6.746,6.746,0,0,1,6.641,6.738V78.3H10.409a.963.963,0,0,0,0,1.926h13.4a.963.963,0,0,0,.963-.963v-4.75a8.68,8.68,0,0,0-6.968-8.5,6.318,6.318,0,0,0,.934-3.313V59.878a6.354,6.354,0,1,0-12.709,0V62.7a6.318,6.318,0,0,0,.934,3.313A8.68,8.68,0,0,0,0,74.513v4.75A.963.963,0,0,0,.963,80.226Zm7-20.348a4.429,4.429,0,1,1,8.858,0V62.7a4.429,4.429,0,1,1-8.858,0Zm0,0" transform="translate(0 -46.719)"/><path class="b" d="M249.236,0H222.447a.963.963,0,0,0,0,1.926h25.826v25.29H214V1.926h3.98a.963.963,0,0,0,0-1.926h-4.942a.963.963,0,0,0-.963.963V32.544a.963.963,0,0,0,.963.963h36.2a.963.963,0,0,0,.963-.963V.963A.963.963,0,0,0,249.236,0ZM214,31.581V29.142h34.277v2.439Zm0,0" transform="translate(-185.111 0)"/><path class="b" d="M363.5,46.359h12.067a.963.963,0,1,0,0-1.926H363.5a.963.963,0,1,0,0,1.926Zm0,0" transform="translate(-316.452 -38.785)"/><path class="b" d="M363.5,98.871h12.067a.963.963,0,1,0,0-1.926H363.5a.963.963,0,1,0,0,1.926Zm0,0" transform="translate(-316.452 -84.621)"/><path class="b" d="M251.457,148.4a.963.963,0,0,0,.963.963h26.189a.963.963,0,1,0,0-1.926H252.42A.962.962,0,0,0,251.457,148.4Zm0,0" transform="translate(-219.491 -128.698)"/><path class="b" d="M254.02,30.3a6.1,6.1,0,1,0,6.1,6.1A6.105,6.105,0,0,0,254.02,30.3Zm0,10.27a4.173,4.173,0,1,1,4.172-4.172A4.177,4.177,0,0,1,254.02,40.567Zm0,0" transform="translate(-216.405 -26.445)"/></g></svg>