<svg xmlns="http://www.w3.org/2000/svg" width="41.793" height="44.778" viewBox="0 0 41.793 44.778"><defs><style>.a{fill:#b1f1fe;}.b{fill:#2e53bf;}</style></defs><g transform="translate(-2883 -23149.611)"><path class="a" d="M2891.2,23182.488v-16.512h11.948v6.1l5.468,2.746s-.456,3.385-2.6,2.441a13.325,13.325,0,0,1-2.868-1.551v7.986s.5,1.85-4.25,1.707-5.835.828-7.428-1.109A8.057,8.057,0,0,1,2891.2,23182.488Z"/><g transform="translate(2867 23149.611)"><g transform="translate(16)"><path class="b" d="M53.315,31.344H52.146a5.3,5.3,0,0,0-2.361.557,3.806,3.806,0,0,1-3.388,0,5.28,5.28,0,0,0-1.343-.448l1.455-11.3h1.583a.746.746,0,0,0,.746-.746V16.419a.746.746,0,0,0-.746-.746H45.106V13.433a.746.746,0,0,0-.219-.528L41.374,9.393V7.075l1.131-.9,1.932,3.865,1.336-.667L43.7,5.217l.923-.739h2.724a.746.746,0,0,0,.746-.746V.746A.746.746,0,0,0,47.344,0H39.881a6.725,6.725,0,0,0-6.717,6.717.746.746,0,0,0,.746.746H35.4v1.93l-2.02,2.02a.746.746,0,0,0-.219.528v3.731H31.672V9.7a.737.737,0,0,0-.054-.269.77.77,0,0,0-.046-.084.832.832,0,0,0-.063-.113L28.687,5.709V.746A.746.746,0,0,0,27.941,0H23.463a.746.746,0,0,0-.746.746V5.709L19.895,9.235a.831.831,0,0,0-.063.113.771.771,0,0,0-.046.084.737.737,0,0,0-.054.269v5.97H16.746a.746.746,0,0,0-.746.746V19.4a.746.746,0,0,0,.746.746h1.583l2.9,22.484a.746.746,0,0,0,.74.651H39.538a4.465,4.465,0,0,0,3.328,1.493h1.169A5.3,5.3,0,0,0,46.4,44.22a3.806,3.806,0,0,1,3.388,0,5.3,5.3,0,0,0,2.361.557h1.169A4.482,4.482,0,0,0,57.793,40.3V35.822A4.482,4.482,0,0,0,53.315,31.344ZM45.106,1.493H46.6V2.985H45.106Zm2.239,15.672v1.493H36.9V17.165ZM34.71,5.97a5.232,5.232,0,0,1,5.171-4.478h3.731V3.373l-3.247,2.6Zm5.171,1.493V8.956H36.9V7.463ZM34.657,12.25l1.8-1.8h3.86l3.294,3.294v1.93H34.657Zm-.746,4.915H35.4v5.224a.746.746,0,0,0,.413.672L40.294,25.3a.9.9,0,0,1,.459.531.96.96,0,0,1-.075.746.872.872,0,0,1-1.169.391h0l-3.03-1.515a.746.746,0,0,0-1.074.669v7.463a1.493,1.493,0,0,1-1.493,1.493V28.359H32.419v6.717H30.926V28.359H29.433v6.717H27.941V28.359H26.448v6.717a1.493,1.493,0,0,1-1.493-1.493V17.165Zm-9.7-15.672h2.985V5.224H24.209Zm-.388,5.224h3.761l1.791,2.239H22.03Zm-2.6,3.731H30.18v5.224H21.224Zm-3.731,8.209V17.165h5.97v1.493Zm20.9,17.165V40.3a4.461,4.461,0,0,0,.261,1.493H22.626L19.834,20.15h3.629V33.583a2.985,2.985,0,0,0,2.985,2.985h7.463A2.985,2.985,0,0,0,36.9,33.583V27.328l1.949.975a2.378,2.378,0,0,0,3.185-1.08l.007-.015a2.416,2.416,0,0,0,.137-1.847,2.388,2.388,0,0,0-1.209-1.4L36.9,21.928V20.15H45L43.558,31.344h-.692A4.482,4.482,0,0,0,38.389,35.822ZM56.3,40.3a2.985,2.985,0,0,1-2.985,2.985H52.146a3.806,3.806,0,0,1-1.693-.4,5.308,5.308,0,0,0-4.724,0,3.806,3.806,0,0,1-1.693.4H42.867A2.985,2.985,0,0,1,39.881,40.3V39.151A4.454,4.454,0,0,0,42.867,40.3h1.169a5.3,5.3,0,0,0,2.361-.557,3.806,3.806,0,0,1,3.388,0,5.3,5.3,0,0,0,2.361.557h1.169A4.454,4.454,0,0,0,56.3,39.151Zm-2.985-1.493H52.146a3.806,3.806,0,0,1-1.693-.4,5.308,5.308,0,0,0-4.724,0,3.806,3.806,0,0,1-1.693.4H42.867a2.985,2.985,0,0,1,0-5.97h1.169a3.806,3.806,0,0,1,1.693.4,5.311,5.311,0,0,0,4.724,0,3.806,3.806,0,0,1,1.693-.4h1.169a2.985,2.985,0,1,1,0,5.97Z" transform="translate(-16 0)"/></g><g transform="translate(52.573 34.377)"><g transform="translate(0 0)"><rect class="b" width="2" height="2" transform="translate(0.324 0.011)"/></g></g><g transform="translate(45.196 34.377)"><g transform="translate(0 0)"><rect class="b" width="2" height="2" transform="translate(-0.299 0.011)"/></g></g><g transform="translate(42.429 35.298)"><g transform="translate(0 0)"><rect class="b" height="1" transform="translate(0.467 0.091)"/></g></g><g transform="translate(49.806 35.298)"><g transform="translate(0 0)"><rect class="b" width="1" height="1" transform="translate(0.09 0.091)"/></g></g></g></g></svg>