<svg xmlns="http://www.w3.org/2000/svg" width="37.761" height="44.225" viewBox="0 0 37.761 44.225"><defs><style>.a{fill:#b1f1fe;}.b{fill:#2e53bf;stroke:#2e53bf;stroke-width:0.1px;}</style></defs><g transform="translate(-2884.441 -23289.887)"><path class="a" d="M2911.583,23321.2s8.088-.049,9.081,4.025a17.658,17.658,0,0,1,.724,5.912s.406,2.605-3.9,2.539-30.929,0-30.929,0a4.228,4.228,0,0,1-1.3-4.252c.664-2.709,1.3-5.326,1.3-5.326s.947-1.541,3.871-2,4.832-.9,4.832-.9l7.925,6.912Z"/><path class="b" d="M75.2,40.836l-.6-5c0-.008,0-.017,0-.025a5.047,5.047,0,0,0-4.038-4.149L64.39,30.5h0l-1.669-.314a33.84,33.84,0,0,0,4.765-1.293,3.183,3.183,0,0,0,2.092-3.453l-.962-6.594h.536a1.3,1.3,0,0,0,1.3-1.3V14.913a1.3,1.3,0,0,0-1.3-1.3H68.085a2.875,2.875,0,0,0-.314-.563l-.536-3.678A10.958,10.958,0,0,0,56.39,0H55.9A10.976,10.976,0,0,0,45.03,9.592l-.5,4.024H43.47a1.3,1.3,0,0,0-1.3,1.3v2.634a1.3,1.3,0,0,0,1.3,1.3h.4l-.833,6.643a3.19,3.19,0,0,0,2.086,3.385A33.755,33.755,0,0,0,50.039,30.2l-1.422.28-.01,0-6.094,1.2a5.041,5.041,0,0,0-3.926,3.782q0,.017-.007.034l-.922,5.137a2.851,2.851,0,0,0,2.779,3.487H72.382A2.852,2.852,0,0,0,75.2,40.836ZM68.306,14.911l.851,0,0,2.639h-.846Zm-.86,4.875.852,5.839a1.887,1.887,0,0,1-1.241,2.047,32.532,32.532,0,0,1-5.508,1.41V26.589l.468-.293a5.254,5.254,0,0,0,1.681-1.68H63.8A2.818,2.818,0,0,0,66.617,21.8V20.357A2.884,2.884,0,0,0,67.446,19.786ZM58.82,26.771a4.762,4.762,0,0,1-5.019,0l-1.34-.838-.007,0L51.291,25.2a3.939,3.939,0,0,1-1.862-3.359V13.094a4.335,4.335,0,0,0,3.105-2.027,9.968,9.968,0,0,0,1.331,1.1l.125.086c2.941,1.993,6.116,1.529,9.2,1v8.583a3.972,3.972,0,0,1-.285,1.482H58.573a1.913,1.913,0,0,0-1.8-1.276h-1.1a1.912,1.912,0,0,0-1.91,1.91v.024a1.912,1.912,0,0,0,1.91,1.91h1.1a1.913,1.913,0,0,0,1.8-1.276h3.485a4,4,0,0,1-.728.584Zm1.435.627v2.943a.486.486,0,0,1-.187.381l-3.651,2.841L52.924,30.73a.48.48,0,0,1-.176-.32s0-.009,0-.014,0-.026,0-.04v-2.72l.37.232a6.063,6.063,0,0,0,6.39,0Zm-2.866-3.44v.024a.618.618,0,0,1-.617.617h-1.1a.618.618,0,0,1-.617-.617v-.024a.618.618,0,0,1,.617-.617h1.1a.618.618,0,0,1,.617.617Zm6.908-.719a5.3,5.3,0,0,0,.187-1.4V20.615h.84V21.8A1.523,1.523,0,0,1,64.3,23.239Zm2.716-8.519V17.74a1.584,1.584,0,0,1-1.582,1.582h-.946V13.138h.946a1.584,1.584,0,0,1,1.582,1.582Zm-20.7-4.968A9.681,9.681,0,0,1,55.9,1.293h.486a9.665,9.665,0,0,1,9.565,8.27l.353,2.421a2.862,2.862,0,0,0-.877-.138h-1.6l-.06,0h-.009l-.037,0-.442.076c-3.065.528-5.961,1.027-8.571-.742l-.118-.08a8.633,8.633,0,0,1-1.74-1.6.646.646,0,0,0-1.113.212,3.068,3.068,0,0,1-2.956,2.125h-1.6a2.854,2.854,0,0,0-1.172.252Zm-.7,4.968a1.584,1.584,0,0,1,1.582-1.582h.946v6.184h-.946a1.584,1.584,0,0,1-1.582-1.582Zm-2.143,2.827,0-2.639h.846V17.55Zm2.088,10.107a1.889,1.889,0,0,1-1.235-2.006l.749-5.974a2.866,2.866,0,0,0,2.123.94h.946v1.226A5.224,5.224,0,0,0,50.606,26.3l.847.53v2.31a32.454,32.454,0,0,1-5.9-1.482ZM51.667,31.2a1.777,1.777,0,0,0,.443.533l3.574,2.9a1.156,1.156,0,0,0,1.447.014l3.731-2.9a1.771,1.771,0,0,0,.443-.509l2.239.421a1.354,1.354,0,0,1-.449.641l-6.65,5.176a.152.152,0,0,1-.19,0L49.884,32.3a1.332,1.332,0,0,1-.441-.664Zm21.9,11.083a1.557,1.557,0,0,1-1.187.548H40.438a1.558,1.558,0,0,1-1.517-1.916q0-.017.007-.034l.922-5.136a3.746,3.746,0,0,1,2.913-2.794l5.408-1.064a2.619,2.619,0,0,0,.9,1.418l6.37,5.167a1.439,1.439,0,0,0,1.8.017l6.65-5.176a2.623,2.623,0,0,0,.932-1.42l5.492,1.033a3.751,3.751,0,0,1,3,3.072l.6,5c0,.008,0,.016,0,.025A1.556,1.556,0,0,1,73.569,42.285Z" transform="translate(2846.913 23289.938)"/></g></svg>