<svg xmlns="http://www.w3.org/2000/svg" width="23.291" height="23.291" viewBox="0 0 23.291 23.291"><defs><style>.a{fill:#fff;}</style></defs><g transform="translate(0.994 1.001)"><g transform="translate(-0.993 -1)"><g transform="translate(0)"><path class="a" d="M8.662,186.642l-2.745,2.745A2.911,2.911,0,1,1,1.8,185.27l5.49-5.49a2.911,2.911,0,0,1,4.117,0,.97.97,0,1,0,1.372-1.372,4.852,4.852,0,0,0-6.861,0L.428,183.9a4.852,4.852,0,1,0,6.862,6.861l2.745-2.745a.97.97,0,1,0-1.373-1.372Z" transform="translate(0.993 -168.89)"/><path class="a" d="M203.12.421a4.853,4.853,0,0,0-6.862,0l-3.293,3.293a.97.97,0,0,0,1.372,1.372l3.293-3.293a2.911,2.911,0,0,1,4.118,4.117l-6.038,6.038a2.911,2.911,0,0,1-4.117,0,.97.97,0,0,0-1.372,1.372,4.852,4.852,0,0,0,6.861,0l6.038-6.038A4.852,4.852,0,0,0,203.12.421Z" transform="translate(-181.25 1)"/></g></g></g></svg>