<svg xmlns="http://www.w3.org/2000/svg" width="33.908" height="44.184" viewBox="0 0 33.908 44.184"><defs><style>.a{fill:#b1f1fe;}.b{fill:#2e53bf;}</style></defs><g transform="translate(-3149.51 -22166.908)"><path class="a" d="M3153.118,22180.082l13.287-5.061,13.786,4.922-13.786,5.557Z"/><g transform="translate(3089.973 22166.908)"><path class="b" d="M160.441,368.6h-18.5a.647.647,0,0,0,0,1.294h18.5a.647.647,0,0,0,0-1.294Z" transform="translate(-74.698 -336.793)"/><path class="b" d="M161.088,401.736a.647.647,0,0,0-.647-.647h-18.5a.647.647,0,1,0,0,1.294h18.5A.647.647,0,0,0,161.088,401.736Z" transform="translate(-74.698 -366.476)"/><path class="b" d="M173.3,433.577a.647.647,0,0,0,0,1.294h13.09a.647.647,0,1,0,0-1.294Z" transform="translate(-103.357 -396.161)"/><path class="b" d="M113.285,95.438l3.889-1.419a.882.882,0,0,0,0-1.657l-12.825-4.68a2.964,2.964,0,0,0-2.03,0l-12.824,4.68a.882.882,0,0,0,0,1.657l3.889,1.419v7.65a1.82,1.82,0,0,0,.564,1.305,9.524,9.524,0,0,0,1.118.9h0a2.293,2.293,0,0,0-.685,1.626v.436a.924.924,0,0,0,.165.526l-.629,1.45a.647.647,0,0,0,1.188.515l.593-1.366q.127.041.256.07v1.457a.647.647,0,1,0,1.294,0v-1.457q.129-.029.256-.07l.593,1.366a.647.647,0,0,0,1.188-.515l-.629-1.45a.925.925,0,0,0,.165-.526v-.334a16.624,16.624,0,0,0,4.514.615c3.3,0,7.008-1,9.387-3.242a1.825,1.825,0,0,0,.563-1.305c0-.865,0-6.773,0-7.65ZM102.763,88.9a1.668,1.668,0,0,1,1.142,0l11.763,4.293-11.763,4.293a1.668,1.668,0,0,1-1.142,0l-4.521-1.65,3.74-1.847.337.123a2.964,2.964,0,0,0,2.03,0l.6-.218a.928.928,0,0,0,.608-.87v-.477a2.231,2.231,0,0,0-2.178-2.22,2.186,2.186,0,0,0-1.577.635,2.293,2.293,0,0,0-.685,1.626v.385c-4.721,2.332-4.42,2.177-4.536,2.255L91,93.191Zm-.355,3.866v-.178a.992.992,0,0,1,.3-.7.9.9,0,0,1,.646-.265.93.93,0,0,1,.908.926v.219l-.355.129a1.668,1.668,0,0,1-1.142,0Zm-6.456,8.493a8.334,8.334,0,0,1-1.117-.879.5.5,0,0,1-.157-.364v-4.1l1.275.465C95.952,96.46,95.952,95.816,95.952,101.256Zm-.279,5.84a1.084,1.084,0,0,1,.3-.88.9.9,0,0,1,.646-.265c.664.013.908.482.908,1.144A1.939,1.939,0,0,1,95.674,107.1Zm.279-2.766a8.43,8.43,0,0,1-1.017-.788.579.579,0,0,1-.257-.455v-1.151a10.744,10.744,0,0,0,1.275.829Zm2.4,1.182a2.21,2.21,0,0,0-1.1-.759v-1.36a15.434,15.434,0,0,0,4.518,1.1.647.647,0,0,0,.117-1.289,13.88,13.88,0,0,1-4.636-1.217V96.848l5.073,1.851a2.964,2.964,0,0,0,2.03,0h0l7.641-2.789v4.1a.5.5,0,0,1-.157.364,11.979,11.979,0,0,1-7.047,2.823.647.647,0,0,0,.117,1.289,13.908,13.908,0,0,0,7.087-2.551v1.151a.506.506,0,0,1-.157.364c-2.15,2.028-5.534,2.889-8.5,2.889a14.983,14.983,0,0,1-4.985-.828Z" transform="translate(-26.843 -79.951)"/><path class="b" d="M62.119,44.184H90.863A2.585,2.585,0,0,0,93.445,41.6V23.947a.647.647,0,1,0-1.294,0V41.6a1.289,1.289,0,0,1-1.288,1.288H62.119A1.289,1.289,0,0,1,60.831,41.6V5.291H92.151V20.927a.647.647,0,0,0,1.294,0V2.582A2.585,2.585,0,0,0,90.863,0H62.119a2.585,2.585,0,0,0-2.582,2.582V41.6a2.585,2.585,0,0,0,2.582,2.582Zm30.032-41.6V4H66v-2.7H90.863A1.289,1.289,0,0,1,92.151,2.582Zm-31.319,0a1.287,1.287,0,0,1,1.288-1.288h2.588V4H60.831Z"/></g></g></svg>