<svg xmlns="http://www.w3.org/2000/svg" width="38.736" height="25.824" viewBox="0 0 38.736 25.824"><defs><style>.a{fill:#fff;}</style></defs><g transform="translate(0 0)"><path class="a" d="M36.749,85.333H1.986A1.992,1.992,0,0,0,0,87.319V109.17a1.992,1.992,0,0,0,1.986,1.986H36.749a1.992,1.992,0,0,0,1.986-1.986V87.319A1.992,1.992,0,0,0,36.749,85.333ZM36,86.823,20.511,98.444a2.077,2.077,0,0,1-2.285,0L2.732,86.823ZM27.728,99.21l8.442,10.429c.008.01.019.018.028.028H2.538c.009-.01.019-.017.028-.028L11.008,99.21a.745.745,0,0,0-1.158-.938L1.49,108.6V87.754L17.332,99.635a3.556,3.556,0,0,0,4.072,0L37.246,87.754V108.6l-8.36-10.327a.745.745,0,0,0-1.158.938Z" transform="translate(0 -85.333)"/></g></svg>