<svg xmlns="http://www.w3.org/2000/svg" width="17.747" height="12.677" viewBox="0 0 17.747 12.677"><defs><style>.a{fill:#aeaeae;}</style></defs><path class="a" d="M17.846,6H3.9A1.9,1.9,0,0,0,2,7.9v8.874a1.9,1.9,0,0,0,1.9,1.9H17.846a1.9,1.9,0,0,0,1.9-1.9V7.9A1.9,1.9,0,0,0,17.846,6Zm-.507,1.268-6.1,4.063a.634.634,0,0,1-.716,0L4.662,7.268Zm.507,10.141H3.9a.634.634,0,0,1-.634-.634V7.9a.152.152,0,0,1,0-.051L9.79,12.37a1.9,1.9,0,0,0,2.142,0L18.48,8.028v8.747A.634.634,0,0,1,17.846,17.409Z" transform="translate(-2 -6)"/></svg>