<svg xmlns="http://www.w3.org/2000/svg" width="65.665" height="65.665" viewBox="0 0 65.665 65.665"><defs><style>.a{fill:#b1f1fe;}.b{fill:#2e53bf;}</style></defs><path class="a" d="M-19853.293,23149.979l2.406,5.148,5.754.988-3.895,4.246.605,6.137-5.074-2.551-5.348,2.348.6-5.934-4.062-4.246,6.086-.988Z" transform="translate(19892.918 -23123.092)"/><path class="a" d="M-19868.785,23165.828h4.176v3.871h-4.176Z" transform="translate(19889.813 -23115.498)"/><path class="a" d="M-19868.785,23165.828h4.176v3.871h-4.176Z" transform="translate(19877.979 -23125.854)"/><path class="b" d="M76.193,20.378H69.627V19.283a3.283,3.283,0,0,0-6.567,0v1.094H52.116V19.283a3.283,3.283,0,0,0-6.567,0v1.094H34.605V19.283a3.283,3.283,0,0,0-6.567,0v1.094H21.472A5.478,5.478,0,0,0,16,25.85V76.193a5.478,5.478,0,0,0,5.472,5.472H76.193a5.478,5.478,0,0,0,5.472-5.472V25.85A5.478,5.478,0,0,0,76.193,20.378ZM65.249,19.283a1.094,1.094,0,1,1,2.189,0V25.85a1.094,1.094,0,1,1-2.189,0Zm-17.511,0a1.094,1.094,0,1,1,2.189,0V25.85a1.094,1.094,0,0,1-2.189,0Zm-17.511,0a1.094,1.094,0,1,1,2.189,0V25.85a1.094,1.094,0,1,1-2.189,0Zm-8.755,3.283h6.567V25.85a3.283,3.283,0,0,0,6.567,0V22.567H45.549V25.85a3.283,3.283,0,0,0,6.567,0V22.567H63.06V25.85a3.283,3.283,0,0,0,6.567,0V22.567h6.567a3.287,3.287,0,0,1,3.283,3.283v7.661H18.189V25.85A3.287,3.287,0,0,1,21.472,22.567Zm54.721,56.91H21.472a3.287,3.287,0,0,1-3.283-3.283V35.7H79.477V76.193a3.287,3.287,0,0,1-3.283,3.283Z" transform="translate(-16 -16)"/><path class="b" d="M405.472,216h-4.378A1.094,1.094,0,0,0,400,217.094v4.378a1.094,1.094,0,0,0,1.094,1.094h4.378a1.094,1.094,0,0,0,1.094-1.094v-4.378A1.094,1.094,0,0,0,405.472,216Zm-1.094,4.378h-2.189v-2.189h2.189Z" transform="translate(-347.468 -188.639)"/><path class="b" d="M245.472,376h-4.378A1.094,1.094,0,0,0,240,377.094v4.378a1.094,1.094,0,0,0,1.094,1.094h4.378a1.094,1.094,0,0,0,1.094-1.094v-4.378A1.094,1.094,0,0,0,245.472,376Zm-1.094,4.378h-2.189v-2.189h2.189Z" transform="translate(-209.356 -326.751)"/><path class="b" d="M165.472,216h-4.378A1.094,1.094,0,0,0,160,217.094v4.378a1.094,1.094,0,0,0,1.094,1.094h4.378a1.094,1.094,0,0,0,1.094-1.094v-4.378A1.094,1.094,0,0,0,165.472,216Zm-1.094,4.378h-2.189v-2.189h2.189Z" transform="translate(-140.3 -188.639)"/><path class="b" d="M85.472,296H81.094A1.094,1.094,0,0,0,80,297.094v4.378a1.094,1.094,0,0,0,1.094,1.094h4.378a1.094,1.094,0,0,0,1.094-1.094v-4.378A1.094,1.094,0,0,0,85.472,296Zm-1.094,4.378H82.189v-2.189h2.189Z" transform="translate(-71.245 -257.695)"/><path class="b" d="M165.472,296h-4.378A1.094,1.094,0,0,0,160,297.094v4.378a1.094,1.094,0,0,0,1.094,1.094h4.378a1.094,1.094,0,0,0,1.094-1.094v-4.378A1.094,1.094,0,0,0,165.472,296Zm-1.094,4.378h-2.189v-2.189h2.189Z" transform="translate(-140.3 -257.695)"/><path class="b" d="M85.472,376H81.094A1.094,1.094,0,0,0,80,377.094v4.378a1.094,1.094,0,0,0,1.094,1.094h4.378a1.094,1.094,0,0,0,1.094-1.094v-4.378A1.094,1.094,0,0,0,85.472,376Zm-1.094,4.378H82.189v-2.189h2.189Z" transform="translate(-71.245 -326.751)"/><path class="b" d="M165.472,376h-4.378A1.094,1.094,0,0,0,160,377.094v4.378a1.094,1.094,0,0,0,1.094,1.094h4.378a1.094,1.094,0,0,0,1.094-1.094v-4.378A1.094,1.094,0,0,0,165.472,376Zm-1.094,4.378h-2.189v-2.189h2.189Z" transform="translate(-140.3 -326.751)"/><path class="b" d="M250.774,206.7l-5.472-.836-2.458-5.236a1.094,1.094,0,0,0-1.981,0l-2.457,5.236-5.472.836a1.094,1.094,0,0,0-.618,1.847l3.992,4.091-.944,5.79a1.094,1.094,0,0,0,1.608,1.133l4.882-2.7,4.882,2.7a1.094,1.094,0,0,0,1.61-1.134l-.944-5.79,3.992-4.091a1.094,1.094,0,0,0-.618-1.847Zm-5.326,4.8a1.094,1.094,0,0,0-.3.941l.67,4.111-3.439-1.9a1.094,1.094,0,0,0-1.059,0l-3.439,1.9.67-4.111a1.094,1.094,0,0,0-.3-.941l-2.89-2.962,3.944-.6a1.094,1.094,0,0,0,.825-.617l1.715-3.654,1.715,3.653a1.094,1.094,0,0,0,.825.617l3.944.6Z" transform="translate(-202.454 -174.827)"/><path class="b" d="M405.472,296h-4.378A1.094,1.094,0,0,0,400,297.094v4.378a1.094,1.094,0,0,0,1.094,1.094h4.378a1.094,1.094,0,0,0,1.094-1.094v-4.378A1.094,1.094,0,0,0,405.472,296Zm-1.094,4.378h-2.189v-2.189h2.189Z" transform="translate(-347.468 -257.695)"/><path class="b" d="M405.472,376h-4.378A1.094,1.094,0,0,0,400,377.094v4.378a1.094,1.094,0,0,0,1.094,1.094h4.378a1.094,1.094,0,0,0,1.094-1.094v-4.378A1.094,1.094,0,0,0,405.472,376Zm-1.094,4.378h-2.189v-2.189h2.189Z" transform="translate(-347.468 -326.751)"/><path class="b" d="M325.472,376h-4.378A1.094,1.094,0,0,0,320,377.094v4.378a1.094,1.094,0,0,0,1.094,1.094h4.378a1.094,1.094,0,0,0,1.094-1.094v-4.378A1.094,1.094,0,0,0,325.472,376Zm-1.094,4.378h-2.189v-2.189h2.189Z" transform="translate(-278.412 -326.751)"/></svg>