<svg xmlns="http://www.w3.org/2000/svg" width="24.782" height="18.586" viewBox="0 0 24.782 18.586"><defs><style>.a{fill:#aeaeae;}</style></defs><g transform="translate(9.32 6.221)"><path class="a" d="M198.541,192.693a.516.516,0,1,0-.73.73,3.1,3.1,0,1,1-4.38,4.38.516.516,0,1,0-.73.73,4.13,4.13,0,1,0,5.84-5.84Z" transform="translate(-192.55 -192.542)"/></g><g transform="translate(8.261 5.162)"><path class="a" d="M175.518,170.73a4.089,4.089,0,0,0-4.85,4.059,4.04,4.04,0,0,0,.072.72.517.517,0,0,0,.507.426.459.459,0,0,0,.091-.008.517.517,0,0,0,.418-.6,2.994,2.994,0,0,1-.056-.54,3.061,3.061,0,0,1,3.638-3.043.516.516,0,1,0,.18-1.016Z" transform="translate(-170.668 -170.659)"/></g><g transform="translate(6.459 3.507)"><path class="a" d="M151.636,141.913a25.081,25.081,0,0,0-6.762-5.394.517.517,0,0,0-.474.918,24.264,24.264,0,0,1,6.149,4.81c-1.231,1.333-6.075,6.2-11.181,6.2a11.9,11.9,0,0,1-5.192-1.244.516.516,0,1,0-.448.929,12.911,12.911,0,0,0,5.64,1.348c6.362,0,12.031-6.613,12.269-6.895A.516.516,0,0,0,151.636,141.913Z" transform="translate(-133.435 -136.461)"/></g><g transform="translate(0 2.064)"><path class="a" d="M15.779,107.254a10.661,10.661,0,0,0-3.388-.595c-6.362,0-12.031,6.613-12.269,6.895a.516.516,0,0,0-.029.629,19.168,19.168,0,0,0,4.736,4.491.513.513,0,0,0,.715-.146.515.515,0,0,0-.145-.715,18.882,18.882,0,0,1-4.216-3.9c1.189-1.291,6.064-6.223,11.208-6.223a9.665,9.665,0,0,1,3.058.54.509.509,0,0,0,.654-.324A.515.515,0,0,0,15.779,107.254Z" transform="translate(0 -106.659)"/></g><g transform="translate(3.098 0)"><path class="a" d="M82.431,64.159a.517.517,0,0,0-.73,0L64.147,81.713a.516.516,0,0,0,.73.73L82.431,64.889A.517.517,0,0,0,82.431,64.159Z" transform="translate(-63.996 -64.008)"/></g></svg>