<svg xmlns="http://www.w3.org/2000/svg" width="34.756" height="34.756" viewBox="0 0 34.756 34.756"><defs><style>.a{fill:#3b5999;}.b{fill:#fff;}</style></defs><path class="a" d="M30.411,0H4.344A4.348,4.348,0,0,0,0,4.344V30.411a4.349,4.349,0,0,0,4.344,4.344H30.411a4.35,4.35,0,0,0,4.344-4.344V4.344A4.349,4.349,0,0,0,30.411,0Z"/><path class="b" d="M19.861,15.361V11.017c0-1.2.973-1.086,2.172-1.086h2.172V4.5H19.861a6.515,6.515,0,0,0-6.517,6.517v4.344H9v5.431h4.344V32.739h6.517V20.792H23.12l2.172-5.431Z" transform="translate(4.033 2.017)"/></svg>