<svg xmlns="http://www.w3.org/2000/svg" width="32" height="32" viewBox="0 0 32 32"><defs><style>.a{fill:#cb3a27;}.b{fill:#fff;stroke:#fff;stroke-width:0.1px;}</style></defs><g transform="translate(-921 -645)"><rect class="a" width="32" height="32" rx="16" transform="translate(921 645)"/><path class="b" d="M6.9,119.536a.271.271,0,0,0-.271.271v1.359a.271.271,0,0,0,.542,0v-1.359a.271.271,0,0,0-.271-.271Zm9.943.2a.271.271,0,0,0-.271.271v1.16a.271.271,0,0,0,.542,0v-1.16a.271.271,0,0,0-.271-.271Zm-15.188,0a.271.271,0,0,0-.271.271v1.16a.271.271,0,0,0,.542,0v-1.16a.271.271,0,0,0-.271-.271Zm9.943-.2a.271.271,0,0,0-.271.271v1.359a.271.271,0,0,0,.542,0v-1.359a.271.271,0,0,0-.271-.271Zm6.02-1.312-1.542-.416a.3.3,0,0,1-.224-.293v-.1a1.817,1.817,0,0,0,.8-1.507v-2.791a.416.416,0,0,0-.416-.416H14.222a1.2,1.2,0,0,0-1.2,1.2v2.01a1.817,1.817,0,0,0,.8,1.507v.1a.3.3,0,0,1-.224.293l-.652.176a1.349,1.349,0,0,0-.453-.219l-1.806-.487a.4.4,0,0,1-.3-.388v-.137a2.082,2.082,0,0,0,.941-1.74v-3.222a.489.489,0,0,0-.488-.488H8.527a1.357,1.357,0,0,0-1.356,1.356v2.354a2.082,2.082,0,0,0,.941,1.74v.137a.4.4,0,0,1-.3.388l-1.806.487a1.349,1.349,0,0,0-.453.219l-.653-.176a.3.3,0,0,1-.224-.292v-.1a1.817,1.817,0,0,0,.8-1.507v-2.791a.416.416,0,0,0-.416-.416H3.045a1.2,1.2,0,0,0-1.2,1.2v2.01a1.817,1.817,0,0,0,.8,1.507v.1a.3.3,0,0,1-.224.292l-1.541.416A1.2,1.2,0,0,0,0,119.379v1.786a.271.271,0,0,0,.542,0v-1.786a.656.656,0,0,1,.484-.632l1.414-.382a2.109,2.109,0,0,0,2.451,0l.274.074a1.35,1.35,0,0,0-.158.634v2.093a.271.271,0,0,0,.542,0v-2.093a.815.815,0,0,1,.6-.785l1.678-.453a2.424,2.424,0,0,0,2.852,0l1.677.453a.815.815,0,0,1,.6.785v2.093a.271.271,0,0,0,.542,0v-2.093a1.35,1.35,0,0,0-.158-.633l.274-.074a2.109,2.109,0,0,0,2.45,0l1.414.382a.656.656,0,0,1,.484.632v1.786a.271.271,0,0,0,.542,0v-1.786A1.2,1.2,0,0,0,17.623,118.224ZM2.39,113.9a.655.655,0,0,1,.655-.655h1.9v1.394a1.412,1.412,0,0,1-.726.058,1.405,1.405,0,0,1-.389-.149,1.852,1.852,0,0,0-.513-.191,1.856,1.856,0,0,0-.923.067Zm.6,4.159a.847.847,0,0,0,.189-.4,1.809,1.809,0,0,0,.972,0,.847.847,0,0,0,.189.4,1.568,1.568,0,0,1-1.35,0Zm.675-.874a1.277,1.277,0,0,1-1.275-1.275V115a1.425,1.425,0,0,1,.818-.111,1.343,1.343,0,0,1,.373.143,1.919,1.919,0,0,0,.527.2,1.889,1.889,0,0,0,.833-.025v.706A1.277,1.277,0,0,1,3.665,117.188Zm4.048-4.53a.814.814,0,0,1,.813-.813h2.267v1.712a1.715,1.715,0,0,1-.906.08,1.682,1.682,0,0,1-.467-.178,2.13,2.13,0,0,0-.589-.22,2.156,2.156,0,0,0-1.119.1Zm.675,4.886a.946.946,0,0,0,.258-.54,2.081,2.081,0,0,0,1.215,0,.946.946,0,0,0,.259.541A1.884,1.884,0,0,1,8.388,117.544Zm.866-.992a1.542,1.542,0,0,1-1.54-1.54v-1.1a1.734,1.734,0,0,1,1.014-.145,1.61,1.61,0,0,1,.448.171,2.208,2.208,0,0,0,.606.226,2.186,2.186,0,0,0,1.013-.044v.887a1.542,1.542,0,0,1-1.54,1.54Zm4.313-2.65a.655.655,0,0,1,.655-.655h1.9v1.394a1.3,1.3,0,0,1-1.115-.09,1.73,1.73,0,0,0-1.436-.124Zm.6,4.159a.847.847,0,0,0,.189-.4,1.809,1.809,0,0,0,.972,0,.847.847,0,0,0,.189.4A1.568,1.568,0,0,1,14.168,118.062Zm.675-.874a1.277,1.277,0,0,1-1.275-1.275V115a1.425,1.425,0,0,1,.818-.111,1.344,1.344,0,0,1,.373.143,1.919,1.919,0,0,0,.527.2,1.889,1.889,0,0,0,.833-.025v.706A1.277,1.277,0,0,1,14.843,117.188Z" transform="translate(928 544.697)"/></g></svg>