<svg xmlns="http://www.w3.org/2000/svg" width="31.593" height="17.434" viewBox="0 0 31.593 17.434"><defs><style>.a{fill:#707070;stroke:#707070;stroke-width:0.3px;}</style></defs><path class="a" d="M11.674,125.223a.458.458,0,0,0-.458.458v2.3a.458.458,0,0,0,.917,0v-2.3a.458.458,0,0,0-.458-.458Zm16.812.336a.458.458,0,0,0-.458.458v1.961a.458.458,0,0,0,.917,0v-1.961a.458.458,0,0,0-.458-.458Zm-25.68,0a.458.458,0,0,0-.458.458v1.961a.458.458,0,0,0,.917,0v-1.961a.458.458,0,0,0-.458-.458Zm16.812-.336a.458.458,0,0,0-.458.458v2.3a.458.458,0,0,0,.917,0v-2.3a.458.458,0,0,0-.458-.458ZM29.8,123l-2.607-.7a.513.513,0,0,1-.379-.495v-.161a3.072,3.072,0,0,0,1.358-2.549v-4.719a.7.7,0,0,0-.7-.7h-3.42a2.026,2.026,0,0,0-2.024,2.024v3.4a3.072,3.072,0,0,0,1.358,2.549v.161A.513.513,0,0,1,23,122.3l-1.1.3a2.281,2.281,0,0,0-.766-.371l-3.053-.824a.68.68,0,0,1-.5-.655v-.231a3.52,3.52,0,0,0,1.59-2.942v-5.447a.826.826,0,0,0-.825-.825H14.417a2.3,2.3,0,0,0-2.292,2.292v3.98a3.52,3.52,0,0,0,1.59,2.942v.231a.68.68,0,0,1-.5.655l-3.053.824a2.281,2.281,0,0,0-.765.371l-1.1-.3a.513.513,0,0,1-.379-.494v-.161A3.072,3.072,0,0,0,9.27,119.1v-4.719a.7.7,0,0,0-.7-.7H5.148A2.026,2.026,0,0,0,3.124,115.7v3.4a3.072,3.072,0,0,0,1.358,2.549v.161a.513.513,0,0,1-.379.494L1.5,123A2.028,2.028,0,0,0,0,124.958v3.02a.458.458,0,0,0,.917,0v-3.02a1.109,1.109,0,0,1,.819-1.069l2.39-.645a3.566,3.566,0,0,0,4.143,0l.464.125a2.283,2.283,0,0,0-.267,1.071v3.538a.458.458,0,0,0,.917,0V124.44a1.377,1.377,0,0,1,1.017-1.328l2.837-.766a4.1,4.1,0,0,0,4.822,0l2.836.765a1.377,1.377,0,0,1,1.017,1.328v3.538a.458.458,0,0,0,.917,0V124.44a2.283,2.283,0,0,0-.267-1.071l.464-.125a3.566,3.566,0,0,0,4.143,0l2.39.645a1.109,1.109,0,0,1,.818,1.069v3.021a.458.458,0,0,0,.917,0v-3.021A2.027,2.027,0,0,0,29.8,123ZM4.041,115.7a1.108,1.108,0,0,1,1.107-1.107H8.353v2.357a2.387,2.387,0,0,1-1.227.1,2.376,2.376,0,0,1-.657-.251,3.131,3.131,0,0,0-.867-.323,3.138,3.138,0,0,0-1.561.114Zm1.015,7.032a1.431,1.431,0,0,0,.32-.674,3.059,3.059,0,0,0,1.643,0,1.431,1.431,0,0,0,.32.674,2.652,2.652,0,0,1-2.282,0ZM6.2,121.253A2.159,2.159,0,0,1,4.041,119.1V117.56a2.41,2.41,0,0,1,1.383-.188,2.271,2.271,0,0,1,.63.241,3.244,3.244,0,0,0,.892.332,3.194,3.194,0,0,0,1.408-.043V119.1A2.159,2.159,0,0,1,6.2,121.253Zm6.845-7.658a1.377,1.377,0,0,1,1.375-1.375h3.834v2.9a2.9,2.9,0,0,1-1.532.136,2.845,2.845,0,0,1-.79-.3,3.6,3.6,0,0,0-1-.372,3.645,3.645,0,0,0-1.892.164Zm1.14,8.261a1.6,1.6,0,0,0,.437-.913,3.519,3.519,0,0,0,2.055,0,1.6,1.6,0,0,0,.438.914A3.185,3.185,0,0,1,14.182,121.856Zm1.464-1.677a2.607,2.607,0,0,1-2.6-2.6v-1.852a2.932,2.932,0,0,1,1.714-.245,2.721,2.721,0,0,1,.758.29,3.734,3.734,0,0,0,1.024.382,3.7,3.7,0,0,0,1.712-.075v1.5a2.607,2.607,0,0,1-2.6,2.6Zm7.293-4.48a1.108,1.108,0,0,1,1.107-1.107h3.206v2.357a2.2,2.2,0,0,1-1.885-.153,2.926,2.926,0,0,0-2.428-.209Zm1.015,7.032a1.432,1.432,0,0,0,.319-.674,3.059,3.059,0,0,0,1.643,0,1.432,1.432,0,0,0,.32.674A2.652,2.652,0,0,1,23.954,122.731Zm1.141-1.478a2.159,2.159,0,0,1-2.156-2.156V117.56a2.41,2.41,0,0,1,1.383-.188,2.272,2.272,0,0,1,.63.241,3.245,3.245,0,0,0,.892.332,3.194,3.194,0,0,0,1.408-.043V119.1A2.159,2.159,0,0,1,25.1,121.253Z" transform="translate(0.15 -111.153)"/></svg>