<svg xmlns="http://www.w3.org/2000/svg" width="42.565" height="44.389" viewBox="0 0 42.565 44.389"><defs><style>.a{fill:#b1f1fe;}.b{fill:#2e53bf;}</style></defs><g transform="translate(-3058.78 -22311)"><circle class="a" cx="5.65" cy="5.65" r="5.65" transform="translate(3065.5 22312)"/><path class="b" d="M48.168,18.038a.723.723,0,0,0-.695-.047l-8.595,3.981V16.359a.724.724,0,0,0-.725-.725H36.868a6.792,6.792,0,1,0-8.359,0H22.595a6.792,6.792,0,1,0-8.358,0h-1.5a.724.724,0,0,0-.725.725V19.2H9.528l-2.642-.856a.724.724,0,0,0-.948.689v4.228a.724.724,0,0,0,.948.689l2.642-.856H12.01V34.8a.724.724,0,0,0,.725.725h8.61a3.77,3.77,0,0,0,1.711,2.456v1.971h-1.6a.724.724,0,0,0-.7.531L18.81,47.5l1.4.387L22,41.4h1l-.433,6.244,1.446.1.44-6.344H25.6l.44,6.344,1.446-.1L27.056,41.4h1l1.8,6.487,1.4-.387-1.945-7.019a.724.724,0,0,0-.7-.531h-1.6V37.981a3.77,3.77,0,0,0,1.711-2.456h9.439a.724.724,0,0,0,.725-.725V29.187l8.595,3.982a.724.724,0,0,0,1.029-.657V18.649A.726.726,0,0,0,48.168,18.038ZM27.346,10.292a5.343,5.343,0,1,1,5.343,5.343A5.349,5.349,0,0,1,27.346,10.292Zm-14.273,0a5.343,5.343,0,1,1,5.343,5.343A5.349,5.349,0,0,1,13.073,10.292ZM7.388,20.03l1.3.422v1.391l-1.3.422Zm2.751.62H33.863v2.333H20.39l-3.857-1.3a.72.72,0,0,0-.209-.034c-.008,0-.015,0-.023,0H10.139v-1Zm6.888,2.729,3.014,1.015a.724.724,0,0,0,.231.038H33.863V30.51H17.027Zm8.529,15.133v1.44h-1.05v-1.44c.017,0,.035,0,.053,0a3.717,3.717,0,0,0,.472.033,3.807,3.807,0,0,0,.472-.033C25.52,38.513,25.538,38.514,25.556,38.512Zm.37-1.6a2.277,2.277,0,0,1-.352.116c-.031.008-.063.017-.095.023a2.29,2.29,0,0,1-.9,0c-.032-.006-.063-.015-.095-.023a2.277,2.277,0,0,1-.352-.116,2.321,2.321,0,0,1-1.295-1.385H27.22A2.319,2.319,0,0,1,25.925,36.911Zm11.5-2.835H13.46V23.095h2.118v8.14a.724.724,0,0,0,.725.725H34.587a.724.724,0,0,0,.725-.725V19.925a.724.724,0,0,0-.725-.725H13.46V17.083H37.429V34.077Zm9.624-2.7L38.879,27.59V23.57l8.174-3.787Z" transform="translate(3052.842 22307.5)"/></g></svg>