<svg xmlns="http://www.w3.org/2000/svg" width="605.726" height="611.471" viewBox="0 0 605.726 611.471">
  <g id="g10" transform="translate(0 556.845)">
    <g id="g12" transform="translate(0 -556.845)">
      <path id="path14" d="M298.746-460.4h-75.13v-96.444H279.4l19.346,18.376V-460.4" transform="translate(21.936 556.845)" fill="#e7e8e5"/>
      <path id="path16" d="M274.417-556.845l19.346,18.376H274.417Z" transform="translate(26.92 556.845)" fill="#d4d6d3"/>
      <path id="path18" d="M230.291-542.108h41.77v2.476h-41.77v-2.476" transform="translate(22.591 558.291)" fill="#d4d6d3"/>
      <path id="path20" d="M230.291-536.416h41.77v2.477h-41.77v-2.477" transform="translate(22.591 558.849)" fill="#d4d6d3"/>
      <path id="path22" d="M230.291-530.724h41.77v2.477h-41.77v-2.477" transform="translate(22.591 559.408)" fill="#d4d6d3"/>
      <path id="path24" d="M230.291-525.031h61.2v2.476h-61.2v-2.476" transform="translate(22.591 559.966)" fill="#d4d6d3"/>
      <path id="path26" d="M230.291-519.339h61.2v2.477h-61.2v-2.477" transform="translate(22.591 560.525)" fill="#d4d6d3"/>
      <path id="path28" d="M230.291-513.647h61.2v2.477h-61.2v-2.477" transform="translate(22.591 561.083)" fill="#d4d6d3"/>
      <path id="path30" d="M230.291-507.955h61.2v2.477h-61.2v-2.477" transform="translate(22.591 561.641)" fill="#d4d6d3"/>
      <path id="path32" d="M230.291-502.261h61.2v2.476h-61.2v-2.476" transform="translate(22.591 562.2)" fill="#d4d6d3"/>
      <path id="path34" d="M230.291-496.569h61.2v2.477h-61.2v-2.477" transform="translate(22.591 562.758)" fill="#d4d6d3"/>
      <path id="path36" d="M230.291-490.878h61.2v2.477h-61.2v-2.477" transform="translate(22.591 563.317)" fill="#d4d6d3"/>
      <path id="path38" d="M230.291-485.184h61.2v2.476h-61.2v-2.476" transform="translate(22.591 563.875)" fill="#d4d6d3"/>
      <path id="path40" d="M230.291-477.015h61.2v-2.478h-61.2Z" transform="translate(22.591 564.433)" fill="#d4d6d3"/>
      <path id="path42" d="M306.388-470.93a13.176,13.176,0,0,1-13.176,13.176,13.176,13.176,0,0,1-13.176-13.176,13.176,13.176,0,0,1,13.176-13.176,13.176,13.176,0,0,1,13.176,13.176" transform="translate(27.471 563.981)" fill="#bebfbd"/>
      <path id="path44" d="M299.152-463.282H286.086v-11.855h13.066v11.855" transform="translate(28.065 564.861)" fill="#fff"/>
      <path id="path46" d="M297.729-470.866H296.4v-5.294a3.9,3.9,0,0,0-3.9-3.9,3.9,3.9,0,0,0-3.9,3.9v5.294h-1.329v-5.294a5.231,5.231,0,0,1,5.225-5.226,5.231,5.231,0,0,1,5.225,5.226v5.294" transform="translate(28.182 564.248)" fill="#fff"/>
      <path id="path48" d="M292.7-469.414l.546,2.594h-2.321l.546-2.594a1.163,1.163,0,0,1-.546-.981,1.158,1.158,0,0,1,1.161-1.161,1.157,1.157,0,0,1,1.16,1.161,1.16,1.16,0,0,1-.546.981" transform="translate(28.539 565.212)" fill="#bebfbd"/>
      <path id="path50" d="M393.06-432.64l.193,75.037a7.594,7.594,0,0,1-7.57,7.618l-119.013.309a7.593,7.593,0,0,1-7.608-7.578l-.195-75.037a7.066,7.066,0,0,1,7.048-7.086l120.059-.31a7.068,7.068,0,0,1,7.085,7.048" transform="translate(25.395 568.338)" fill="#e7e8e5"/>
      <path id="path52" d="M364.858-373.9a6.984,6.984,0,0,1-6.966,7,6.986,6.986,0,0,1-7-6.968,6.985,6.985,0,0,1,6.968-7,6.986,6.986,0,0,1,7,6.968" transform="translate(34.422 574.109)" fill="#d4d6d3"/>
      <path id="path54" d="M372.691-373.919a6.986,6.986,0,0,1-6.968,7,6.986,6.986,0,0,1-7-6.968,6.984,6.984,0,0,1,6.968-7,6.986,6.986,0,0,1,7,6.966" transform="translate(35.19 574.107)" fill="#fabb1e"/>
      <path id="path56" d="M288.232-410.317l-12.884.032a6.151,6.151,0,0,1-6.168-6.136l-.013-5.1a6.152,6.152,0,0,1,6.136-6.168l12.884-.034a6.152,6.152,0,0,1,6.168,6.136l.015,5.1a6.155,6.155,0,0,1-6.138,6.17" transform="translate(26.405 569.512)" fill="#fabb1e"/>
      <path id="path58" d="M368.425-418.387l-11.4.029a4.772,4.772,0,0,1-4.786-4.761A4.776,4.776,0,0,1,357-427.906l11.4-.029a4.775,4.775,0,0,1,4.785,4.761,4.772,4.772,0,0,1-4.761,4.786" transform="translate(34.555 569.491)" fill="#fff"/>
      <path id="path60" d="M333.007-377l-63.725.165-.007-3.132L333-380.131l.007,3.132" transform="translate(26.416 574.181)" fill="#d4d6d3"/>
      <path id="path62" d="M314.414-370.621,269.3-370.5l-.009-3.132,45.116-.116.007,3.132" transform="translate(26.417 574.806)" fill="#d4d6d3"/>
      <path id="path64" d="M351.086-424.754l-31.782.082L319.3-427.8l31.783-.082.007,3.132" transform="translate(31.323 569.496)" fill="#d4d6d3"/>
      <path id="path66" d="M271.883-390.564h-.439v-4.766h.439v4.766" transform="translate(26.628 572.69)" fill="#bebfbd"/>
      <path id="path68" d="M274.238-392.921h-4.766v-.438h4.766v.438" transform="translate(26.435 572.883)" fill="#bebfbd"/>
      <path id="path70" d="M270.278-391.156l-.31-.31,3.37-3.369.31.31-3.37,3.369" transform="translate(26.483 572.738)" fill="#bebfbd"/>
      <path id="path72" d="M273.338-391.156l-3.37-3.369.31-.31,3.37,3.369-.31.31" transform="translate(26.483 572.738)" fill="#bebfbd"/>
      <path id="path74" d="M277.1-390.564h-.439v-4.766h.439v4.766" transform="translate(27.14 572.69)" fill="#bebfbd"/>
      <path id="path76" d="M279.458-392.921h-4.764v-.438h4.764v.438" transform="translate(26.947 572.883)" fill="#bebfbd"/>
      <path id="path78" d="M275.5-391.156l-.31-.31,3.369-3.369.312.31-3.37,3.369" transform="translate(26.996 572.738)" fill="#bebfbd"/>
      <path id="path80" d="M278.556-391.156l-3.369-3.369.31-.31,3.37,3.369-.312.31" transform="translate(26.996 572.738)" fill="#bebfbd"/>
      <path id="path82" d="M282.324-390.564h-.441v-4.766h.441v4.766" transform="translate(27.652 572.69)" fill="#bebfbd"/>
      <path id="path84" d="M284.678-392.921h-4.764v-.438h4.764v.438" transform="translate(27.459 572.883)" fill="#bebfbd"/>
      <path id="path86" d="M280.719-391.156l-.312-.31,3.369-3.369.312.31-3.369,3.369" transform="translate(27.508 572.738)" fill="#bebfbd"/>
      <path id="path88" d="M283.776-391.156l-3.369-3.369.312-.31,3.369,3.369-.312.31" transform="translate(27.508 572.738)" fill="#bebfbd"/>
      <path id="path90" d="M287.544-390.564H287.1v-4.766h.441v4.766" transform="translate(28.164 572.69)" fill="#bebfbd"/>
      <path id="path92" d="M289.9-392.921h-4.766v-.438H289.9v.438" transform="translate(27.971 572.883)" fill="#bebfbd"/>
      <path id="path94" d="M285.939-391.156l-.31-.31L289-394.835l.312.31-3.37,3.369" transform="translate(28.02 572.738)" fill="#bebfbd"/>
      <path id="path96" d="M289-391.156l-3.369-3.369.31-.31,3.37,3.369-.312.31" transform="translate(28.02 572.738)" fill="#bebfbd"/>
      <path id="path98" d="M298.94-390.564H298.5v-4.766h.441v4.766" transform="translate(29.282 572.69)" fill="#bebfbd"/>
      <path id="path100" d="M301.294-392.921H296.53v-.438h4.764v.438" transform="translate(29.089 572.883)" fill="#bebfbd"/>
      <path id="path102" d="M297.335-391.156l-.312-.31,3.369-3.369.312.31-3.369,3.369" transform="translate(29.138 572.738)" fill="#bebfbd"/>
      <path id="path104" d="M300.392-391.156l-3.369-3.369.312-.31,3.369,3.369-.312.31" transform="translate(29.138 572.738)" fill="#bebfbd"/>
      <path id="path106" d="M304.16-390.564h-.441v-4.766h.441v4.766" transform="translate(29.795 572.69)" fill="#bebfbd"/>
      <path id="path108" d="M306.516-392.921H301.75v-.438h4.766v.438" transform="translate(29.601 572.883)" fill="#bebfbd"/>
      <path id="path110" d="M302.555-391.156l-.312-.31,3.37-3.369.312.31-3.37,3.369" transform="translate(29.65 572.738)" fill="#bebfbd"/>
      <path id="path112" d="M305.614-391.156l-3.37-3.369.312-.31,3.37,3.369-.312.31" transform="translate(29.65 572.738)" fill="#bebfbd"/>
      <path id="path114" d="M309.381-390.564h-.441v-4.766h.441v4.766" transform="translate(30.307 572.69)" fill="#bebfbd"/>
      <path id="path116" d="M311.736-392.921H306.97v-.438h4.766v.438" transform="translate(30.113 572.883)" fill="#bebfbd"/>
      <path id="path118" d="M307.775-391.156l-.312-.31,3.37-3.369.312.31-3.37,3.369" transform="translate(30.162 572.738)" fill="#bebfbd"/>
      <path id="path120" d="M310.834-391.156l-3.37-3.369.312-.31,3.37,3.369-.312.31" transform="translate(30.162 572.738)" fill="#bebfbd"/>
      <path id="path122" d="M314.6-390.564h-.441v-4.766h.441v4.766" transform="translate(30.819 572.69)" fill="#bebfbd"/>
      <path id="path124" d="M316.956-392.921H312.19v-.438h4.766v.438" transform="translate(30.625 572.883)" fill="#bebfbd"/>
      <path id="path126" d="M312.995-391.156l-.31-.31,3.369-3.369.312.31-3.37,3.369" transform="translate(30.674 572.738)" fill="#bebfbd"/>
      <path id="path128" d="M316.053-391.156l-3.369-3.369.31-.31,3.37,3.369-.312.31" transform="translate(30.674 572.738)" fill="#bebfbd"/>
      <path id="path130" d="M326-390.564h-.441v-4.766H326v4.766" transform="translate(31.937 572.69)" fill="#bebfbd"/>
      <path id="path132" d="M328.352-392.921h-4.766v-.438h4.766v.438" transform="translate(31.743 572.883)" fill="#bebfbd"/>
      <path id="path134" d="M324.391-391.156l-.312-.31,3.37-3.369.312.31-3.37,3.369" transform="translate(31.792 572.738)" fill="#bebfbd"/>
      <path id="path136" d="M327.45-391.156l-3.37-3.369.312-.31,3.37,3.369-.312.31" transform="translate(31.792 572.738)" fill="#bebfbd"/>
      <path id="path138" d="M331.217-390.564h-.441v-4.766h.441v4.766" transform="translate(32.449 572.69)" fill="#bebfbd"/>
      <path id="path140" d="M333.572-392.921h-4.766v-.438h4.766v.438" transform="translate(32.255 572.883)" fill="#bebfbd"/>
      <path id="path142" d="M329.612-391.156l-.312-.31,3.369-3.369.312.31-3.369,3.369" transform="translate(32.304 572.738)" fill="#bebfbd"/>
      <path id="path144" d="M332.669-391.156l-3.369-3.369.312-.31,3.369,3.369-.312.31" transform="translate(32.304 572.738)" fill="#bebfbd"/>
      <path id="path146" d="M336.437-390.564H336v-4.766h.441v4.766" transform="translate(32.961 572.69)" fill="#bebfbd"/>
      <path id="path148" d="M338.793-392.921h-4.766v-.438h4.766v.438" transform="translate(32.768 572.883)" fill="#bebfbd"/>
      <path id="path150" d="M334.832-391.156l-.312-.31,3.369-3.369.312.31-3.369,3.369" transform="translate(32.816 572.738)" fill="#bebfbd"/>
      <path id="path152" d="M337.889-391.156l-3.369-3.369.312-.31,3.369,3.369-.312.31" transform="translate(32.816 572.738)" fill="#bebfbd"/>
      <path id="path154" d="M341.657-390.564h-.441v-4.766h.441v4.766" transform="translate(33.473 572.69)" fill="#bebfbd"/>
      <path id="path156" d="M344.013-392.921h-4.766v-.438h4.766v.438" transform="translate(33.28 572.883)" fill="#bebfbd"/>
      <path id="path158" d="M340.052-391.156l-.312-.31,3.37-3.369.312.31-3.37,3.369" transform="translate(33.328 572.738)" fill="#bebfbd"/>
      <path id="path160" d="M343.111-391.156l-3.37-3.369.312-.31,3.37,3.369-.312.31" transform="translate(33.328 572.738)" fill="#bebfbd"/>
      <path id="path162" d="M353.053-390.564h-.441v-4.766h.441v4.766" transform="translate(34.591 572.69)" fill="#bebfbd"/>
      <path id="path164" d="M355.409-392.921h-4.766v-.438h4.766v.438" transform="translate(34.398 572.883)" fill="#bebfbd"/>
      <path id="path166" d="M351.448-391.156l-.312-.31,3.37-3.369.312.31-3.37,3.369" transform="translate(34.446 572.738)" fill="#bebfbd"/>
      <path id="path168" d="M354.507-391.156l-3.37-3.369.312-.31,3.37,3.369-.312.31" transform="translate(34.446 572.738)" fill="#bebfbd"/>
      <path id="path170" d="M358.273-390.564h-.441v-4.766h.441v4.766" transform="translate(35.103 572.69)" fill="#bebfbd"/>
      <path id="path172" d="M360.629-392.921h-4.766v-.438h4.766v.438" transform="translate(34.91 572.883)" fill="#bebfbd"/>
      <path id="path174" d="M356.668-391.156l-.312-.31,3.37-3.369.312.31-3.37,3.369" transform="translate(34.958 572.738)" fill="#bebfbd"/>
      <path id="path176" d="M359.727-391.156l-3.37-3.369.312-.31,3.37,3.369-.312.31" transform="translate(34.958 572.738)" fill="#bebfbd"/>
      <path id="path178" d="M363.494-390.564h-.441v-4.766h.441v4.766" transform="translate(35.615 572.69)" fill="#bebfbd"/>
      <path id="path180" d="M365.849-392.921h-4.766v-.438h4.766v.438" transform="translate(35.422 572.883)" fill="#bebfbd"/>
      <path id="path182" d="M361.888-391.156l-.312-.31,3.37-3.369.312.31-3.37,3.369" transform="translate(35.47 572.738)" fill="#bebfbd"/>
      <path id="path184" d="M364.947-391.156l-3.37-3.369.312-.31,3.37,3.369-.312.31" transform="translate(35.47 572.738)" fill="#bebfbd"/>
      <path id="path186" d="M368.714-390.564h-.441v-4.766h.441v4.766" transform="translate(36.127 572.69)" fill="#bebfbd"/>
      <path id="path188" d="M371.069-392.921H366.3v-.438h4.764v.438" transform="translate(35.934 572.883)" fill="#bebfbd"/>
      <path id="path190" d="M367.11-391.156l-.312-.31,3.369-3.369.312.31-3.369,3.369" transform="translate(35.982 572.738)" fill="#bebfbd"/>
      <path id="path192" d="M370.167-391.156l-3.369-3.369.312-.31,3.369,3.369-.312.31" transform="translate(35.982 572.738)" fill="#bebfbd"/>
      <path id="path194" d="M395.6-356.881a13.176,13.176,0,0,1-13.176,13.176,13.177,13.177,0,0,1-13.176-13.176,13.177,13.177,0,0,1,13.176-13.176A13.176,13.176,0,0,1,395.6-356.881" transform="translate(36.223 575.169)" fill="#bebfbd"/>
      <path id="path196" d="M388.365-349.234H375.3v-11.854h13.066v11.854" transform="translate(36.816 576.049)" fill="#fff"/>
      <path id="path198" d="M386.943-356.817h-1.329v-5.293a3.9,3.9,0,0,0-3.9-3.9,3.9,3.9,0,0,0-3.9,3.9v5.293h-1.329v-5.293a5.232,5.232,0,0,1,5.225-5.225,5.233,5.233,0,0,1,5.227,5.225v5.293" transform="translate(36.933 575.436)" fill="#fff"/>
      <path id="path200" d="M381.911-355.365l.546,2.6h-2.321l.546-2.6a1.163,1.163,0,0,1-.546-.98,1.158,1.158,0,0,1,1.16-1.161,1.157,1.157,0,0,1,1.161,1.161,1.159,1.159,0,0,1-.546.98" transform="translate(37.291 576.4)" fill="#bebfbd"/>
      <path id="path202" d="M98.055-467.418l88.885,14.88,10.8-64.483L108.848-531.9,98.055-467.418" transform="translate(9.619 559.292)" fill="#e7e8e5"/>
      <path id="path204" d="M101.979-470.888l81.507,13.643,9.553-57.078-81.506-13.643-9.554,57.078" transform="translate(10.004 559.678)" fill="#fff"/>
      <path id="path206" d="M116.889-511.228a6.846,6.846,0,0,0,5.622,7.883,6.847,6.847,0,0,0,7.883-5.622,6.847,6.847,0,0,0-5.623-7.883,6.846,6.846,0,0,0-7.882,5.622" transform="translate(11.457 560.759)" fill="#d4d6d3"/>
      <path id="path208" d="M136.81-479.252l45.326,7.587-17.521-34.513L136.81-479.252" transform="translate(13.421 561.816)" fill="#d4d6d3"/>
      <path id="path210" d="M120.628-482.846l37.422,6.265-15.363-23.136Z" transform="translate(11.833 562.449)" fill="#e7e8e5"/>
      <path id="path212" d="M183.486-461.245l-81.507-13.643,2.058-12.3,81.508,13.644-2.059,12.3" transform="translate(10.004 563.679)" fill="#e7e8e5"/>
      <path id="path214" d="M74.794-448.785h90.122v-65.38H74.794Z" transform="translate(7.337 561.032)" fill="#e7e8e5"/>
      <path id="path216" d="M78.2-452.874h82.64v-57.873H78.2Z" transform="translate(7.671 561.367)" fill="#fff"/>
      <path id="path218" d="M87-495.152a6.847,6.847,0,0,0,6.847,6.846,6.847,6.847,0,0,0,6.846-6.846A6.846,6.846,0,0,0,93.842-502,6.846,6.846,0,0,0,87-495.152" transform="translate(8.534 562.226)" fill="#d4d6d3"/>
      <path id="path220" d="M111.617-466.6h45.957L134.6-497.751Z" transform="translate(10.95 562.642)" fill="#d4d6d3"/>
      <path id="path222" d="M95.212-467.562h37.942l-18.971-20.281Z" transform="translate(9.34 563.614)" fill="#e7e8e5"/>
      <path id="path224" d="M78.2-456.93h82.64V-469.4H78.2Z" transform="translate(7.671 565.424)" fill="#e7e8e5"/>
      <path id="path226" d="M84.287-52.985H213.478V-231.771H84.287Z" transform="translate(8.268 588.735)" fill="#e7e8e5"/>
      <path id="path228" d="M220.3-231.177H78.587v-6.634H220.3v6.634" transform="translate(7.709 588.142)" fill="#d4d6d3"/>
      <path id="path230" d="M252.2-231.177H207.638v-6.634H252.2v6.634" transform="translate(20.369 588.142)" fill="#e7e8e5"/>
      <path id="path232" d="M245.708-52.985H201.937V-231.77h43.772V-52.985" transform="translate(19.81 588.735)" fill="#d4d6d3"/>
      <path id="path234" d="M97.3-151.639H197.986v-56.606H97.3v56.606m101.052.366H96.934v-57.338H198.352v57.338" transform="translate(9.509 591.007)" fill="#bebfbd"/>
      <path id="path236" d="M149.964-182H130.229v-11.343h19.735V-182" transform="translate(12.775 592.505)" fill="#bebfbd"/>
      <path id="path238" d="M135.74-183.1h19.369v-9.266H135.74Zm19.735.366h-20.1v-10h20.1v10" transform="translate(13.28 592.565)" fill="#bebfbd"/>
      <path id="path240" d="M97.3-86.093H197.986v-56.6H97.3v56.6m101.052.366H96.934v-57.337H198.352v57.337" transform="translate(9.509 597.437)" fill="#bebfbd"/>
      <path id="path242" d="M149.964-116.451H130.229v-11.343h19.735v11.343" transform="translate(12.775 598.935)" fill="#bebfbd"/>
      <path id="path244" d="M135.74-117.55h19.369v-9.265H135.74Zm19.735.366h-20.1v-10h20.1v10" transform="translate(13.28 598.995)" fill="#bebfbd"/>
      <path id="path246" d="M11-68.841,83.639-69.2l72.642-.129,145.282-.246,145.283.244,72.641.129,72.641.357-72.641.359-72.641.129-145.283.243-145.282-.245-72.642-.13L11-68.841" transform="translate(1.079 604.646)" fill="#17282f"/>
      <path id="path248" d="M150.639-20.614c0,6.873-29.029,12.444-64.837,12.444S20.964-13.741,20.964-20.614,49.993-33.057,85.8-33.057s64.837,5.571,64.837,12.443" transform="translate(2.057 608.228)" fill="#e7e8e5"/>
      <path id="path250" d="M575.507-20.4c0,13.719-113.414,24.842-253.316,24.842S68.873-6.684,68.873-20.4,182.287-45.247,322.191-45.247,575.507-34.123,575.507-20.4" transform="translate(6.756 607.032)" fill="#e7e8e5"/>
      <path id="path252" d="M366.5-219.982l-4.268,25.593L333.32-38.265h-4.66l21.022-156.124,3.107-25.593H366.5" transform="translate(32.241 589.891)" fill="#bebfbd"/>
      <path id="path254" d="M350.91-219.982h13.709l-4.268,25.593H347.8l3.107-25.593" transform="translate(34.119 589.891)" fill="#999b9b"/>
      <path id="path256" d="M449.172-38.265h-4.66L415.6-194.389l-4.268-25.593h13.707l3.107,25.593L449.172-38.265" transform="translate(40.352 589.891)" fill="#bebfbd"/>
      <path id="path258" d="M425.042-219.982l3.107,25.593H415.6l-4.268-25.593h13.707" transform="translate(40.352 589.891)" fill="#999b9b"/>
      <path id="path260" d="M528.139-38.265H523.48L494.569-194.389,490.3-219.982H504.01l3.107,25.593L528.139-38.265" transform="translate(48.098 589.891)" fill="#bebfbd"/>
      <path id="path262" d="M507.117-194.389H494.569L490.3-219.982H504.01l3.107,25.593" transform="translate(48.098 589.891)" fill="#999b9b"/>
      <path id="path264" d="M536.953-186.369H325.113v-22.321h79.3l41.293-231.36H558.159L536.953-186.369" transform="translate(31.893 568.303)" fill="#bebfbd"/>
      <path id="path266" d="M536.049-229.358H325.113v22.321H536.844l-.8-22.321" transform="translate(31.893 588.971)" fill="#d4d6d3"/>
      <path id="path268" d="M519.06-186.369H507.513L529.269-440.05h11L519.06-186.369" transform="translate(49.787 568.303)" fill="#d4d6d3"/>
      <path id="path270" d="M526.19-467.306c-3.255-3.587-16.631-13.609-28.176-19.113-5.6-2.669-22.5-8.63-24.874-4.488s2.407,6.322,2.407,6.322-7.515-1.449-9.529,2.937,5.54,7.533,5.54,7.533-7.826-.925-9.523,3.594,6.432,6.411,6.432,6.411-7.117-1.182-6.947,3.13c.2,5.186,13.57,5.881,19.615,9.143,1.372.741,26.754,17,26.754,17l18.3-32.469" transform="translate(45.274 563.174)" fill="#f57a76"/>
      <path id="path272" d="M467.959-466.468c9.827.533,14.034,2.467,21.936,8.076.154.108.351-.1.2-.225-7.237-6.195-12.164-9.382-22.136-8.328-.488.051-.467.451,0,.477" transform="translate(45.871 565.645)" fill="#17282f"/>
      <path id="path274" d="M470.335-475.833c10.161,1.447,14.742,3.5,23.448,8.769l.143-.211c-8.108-5.881-13.1-8.947-23.436-9.06-.469,0-.618.436-.155.5" transform="translate(46.112 564.743)" fill="#17282f"/>
      <path id="path276" d="M475.087-485.1c9.734,2.11,14.854,4.148,22.652,10.346a.184.184,0,0,0,.244-.274c-7.335-7.092-13.707-9.682-22.8-10.362-.619-.047-.707.157-.1.29" transform="translate(46.565 563.854)" fill="#17282f"/>
      <path id="path278" d="M510.937-432.454s-12.233-1.561-17.455-3.43-22.12-16.009-19.274-19.832c3.674-4.936,15.035,1.3,20.2,5.086,0,0,8.489-11.426,17.613-8.713s-1.085,26.889-1.085,26.889" transform="translate(46.488 566.369)" fill="#f57a76"/>
      <path id="path280" d="M475.508-456.693c6.6-2.085,13.059,3.319,18.343,6.613a.57.57,0,0,0,.877-.329c3.877-4.551,10.673-9.842,16.955-9.228a.145.145,0,0,0,.053-.284c-6.649-1.572-13.75,3.081-17.676,8.338-5.367-3.464-12.085-8.6-18.574-5.173l.023.063" transform="translate(46.644 566.323)" fill="#17282f"/>
      <path id="path282" d="M413.372-480.148c4.432-1.953,21.451-7.132,34.234-7.467,6.2-.163,24.062,1.259,24.552,6.01s-4.767,4.8-4.767,4.8,7.454,1.729,7.511,6.556-8.125,4.631-8.125,4.631,7.527,2.335,7.24,7.154-8.482,3.245-8.482,3.245,6.982,1.813,5.075,5.684c-2.3,4.656-14.789-.142-21.637.382-1.556.119-31.356,4.656-31.356,4.656l-4.246-35.649" transform="translate(40.551 563.635)" fill="#f57a76"/>
      <path id="path284" d="M462.863-457.7c-9.2-3.507-13.826-3.449-23.324-1.536-.186.037-.283-.231-.092-.288,9.129-2.719,14.927-3.628,23.609,1.387.425.246.244.6-.193.438" transform="translate(43.099 566.176)" fill="#17282f"/>
      <path id="path286" d="M464.628-467.259c-9.87-2.807-14.893-2.789-24.988-1.517-.142.018-.187-.221-.045-.252,9.8-2.078,15.6-2.851,25.1,1.249.429.186.387.649-.063.52" transform="translate(43.115 565.294)" fill="#17282f"/>
      <path id="path288" d="M464.059-477.708c-9.751-2.029-15.258-2.247-24.9.246a.183.183,0,0,1-.113-.348c9.586-3.5,16.46-3.278,25.044-.2.586.209.584.429-.031.3" transform="translate(43.058 564.347)" fill="#17282f"/>
      <path id="path290" d="M411.63-443.05s11.813,3.546,17.344,3.959,26.717-5.634,25.671-10.283c-1.35-6-14.268-4.922-20.526-3.565,0,0-3.111-13.89-12.55-15.119s-9.939,25.007-9.939,25.007" transform="translate(40.38 565.551)" fill="#f57a76"/>
      <path id="path292" d="M452.823-450.861c-5.182-4.586-13.28-2.274-19.448-1.411a.57.57,0,0,1-.666-.657c-1.694-5.735-5.753-13.331-11.741-15.324a.144.144,0,0,1,.067-.28c6.713,1.263,11.31,8.4,12.761,14.8,6.313-.984,14.537-2.946,19.075,2.823l-.048.047" transform="translate(41.286 565.508)" fill="#17282f"/>
      <path id="path294" d="M451.344-390.855c-33.505-9.037-86.249-39.331-81.406-53.919,4.7-14.165,24.479-28.98,49.832-36.867,3.688-1.148,2.865,6.591,4.633,20.085.836,6.389,12.044,23.587,6.632,23.555a22.262,22.262,0,0,0-8.2,1.832c-1.971.754,21.786,16.621,35.072,26.577,17.826,13.362,7.742,22.6-6.561,18.738" transform="translate(36.26 564.212)" fill="#f57a76"/>
      <path id="path296" d="M400.011-406.249,437.135-429.5s22.3,13.555,27.807,21.057,1.176,15.637-16.122,15.656c-19.84.022-48.81-13.466-48.81-13.466" transform="translate(39.241 569.338)" fill="#fabb1e"/>
      <path id="path298" d="M442.6-423.842h-.009c-.489-.328-.969-.65-1.438-.962l1.447.962" transform="translate(43.277 569.798)" fill="#a7aaa9"/>
      <path id="path300" d="M424.927-423.737h-.015l3.426-2.138h0l-3.414,2.138" transform="translate(41.683 569.693)" fill="#ed7069"/>
      <path id="path302" d="M444.185-423.737H424.926l3.414-2.138h12.618c.574.373,1.171.767,1.789,1.176.469.312.949.634,1.438.962" transform="translate(41.685 569.693)" fill="#f4ac12"/>
      <path id="path304" d="M414.708-417.337H414.7l3.411-2.138h.01l-3.413,2.138" transform="translate(40.681 570.321)" fill="#ed7069"/>
      <path id="path306" d="M449.168-419.211l-.356-.264h.007l.348.264" transform="translate(44.028 570.321)" fill="#a7aaa9"/>
      <path id="path308" d="M454.72-417.337H414.707l3.413-2.138h34.038l.356.264c.788.593,1.572,1.186,2.337,1.769l-.13.105" transform="translate(40.682 570.321)" fill="#f4ac12"/>
      <path id="path310" d="M404.509-410.951h-.01l3.411-2.138h.012l-3.413,2.138" transform="translate(39.681 570.948)" fill="#e0e1de"/>
      <path id="path312" d="M446.466-410.951H404.508l3.413-2.138h41.8q-1.6,1.045-3.253,2.138" transform="translate(39.682 570.948)" fill="#f4ac12"/>
      <path id="path314" d="M408.045-404.928c-1.638-.646-3.091-1.245-4.307-1.76h.006c1.215.512,2.665,1.111,4.3,1.76" transform="translate(39.606 571.576)" fill="#e0e1de"/>
      <path id="path316" d="M435.945-404.551H409.009q-.492-.191-.965-.378c-1.637-.649-3.086-1.247-4.3-1.76h35.413q-1.605,1.067-3.211,2.138" transform="translate(39.607 571.576)" fill="#f4ac12"/>
      <path id="path318" d="M428.288-398.352h0l-.154-.038.155.038" transform="translate(41.999 572.39)" fill="#a7aaa9"/>
      <path id="path320" d="M423.422-399.65q-1.083-.314-2.149-.638h.007c.707.217,1.423.429,2.142.638" transform="translate(41.326 572.203)" fill="#e0e1de"/>
      <path id="path322" d="M428.963-398.165h0l-.155-.038q-.376-.092-.751-.189c.3.078.6.152.909.227m-2.968-.766q-1.3-.351-2.574-.719c-.719-.209-1.435-.422-2.142-.638h5.634l-1.7,1.142.785.215" transform="translate(41.327 572.203)" fill="#f4ac12"/>
      <path id="path324" d="M408.9-403.8c14.958-9.126,29.758-19.435,32.239-21.449l-.141-.19c-2.972,1.419-23.057,14.094-32.234,21.457l.136.183" transform="translate(40.099 569.736)" fill="#17282f"/>
      <path id="path326" d="M446.382-394c-6.632,0-14.275-1.493-21.523-3.5,9.707-6.515,21.245-14.2,29.693-19.634a45.193,45.193,0,0,1,7.95,7.482c5.505,7.5,1.171,15.637-16.12,15.652" transform="translate(41.678 570.551)" fill="#17282f"/>
      <path id="path328" d="M332.833-15.367c4.12.394,116.287-26.322,119.82-29.96.432-.4-1.772-10.6-5.012-24.5l-.063-.274c-2.02-8.814-34.7-80.1-34.7-80.1l-72.7,20.268L373.209-63.79S359.528-53.913,347.8-44.534l-.026.038c-7.245,5.761-13.489,10.935-14.817,12.612-3.43,4.375-4.233,16.156-.12,16.517" transform="translate(32.378 596.737)" fill="#f57a76"/>
      <path id="path330" d="M332.837-19.938c4.11.4,116.275-26.32,119.823-29.952.429-.412-1.782-10.593-5.018-24.505l-.066-.264c-.741-3.284-5.775-15.265-11.766-29-11.963,3.219-54.854,14.8-70.43,19.622L373.2-68.356S359.523-58.47,347.789-49.1l-.018.034c-7.243,5.758-13.5,10.94-14.818,12.608-3.432,4.389-4.24,16.172-.116,16.518" transform="translate(32.378 601.303)" fill="#e7e8e5"/>
      <path id="path332" d="M332.507-20.827c4.239.369,116.483-26.655,120.113-30.391,1.385-1.407-1.1-19.12-7.243-37.887L373.033-71.6s-36.949,29.246-40.489,33.772c-3.518,4.518-4.272,16.631-.037,17" transform="translate(32.334 602.73)" fill="#fabb1e"/>
      <path id="path334" d="M332.755-28.967c18.7-4.991,94.618-23.36,113.486-26.872.154-.029.177.075.028.118-18.43,5.352-94.49,23.106-113.441,27.064-.4.083-.469-.2-.073-.31" transform="translate(32.617 605.993)" fill="#17282f"/>
      <path id="path336" d="M337.978-47.618a15.554,15.554,0,0,1,12.365,1.884c2.952,1.991,5.816,5.1,6.622,9.035l-.227.053c-2.848-7.1-11.1-11.959-18.7-10.737a.121.121,0,0,1-.057-.236" transform="translate(33.147 606.747)" fill="#17282f"/>
      <path id="path338" d="M364.224-70.059c7.507-1.917,16.878-1.361,23.041,3.672.239.2-.042.531-.294.47A106.992,106.992,0,0,0,364.319-69.1a.488.488,0,0,1-.1-.96" transform="translate(35.694 604.498)" fill="#17282f"/>
      <path id="path340" d="M359.428-66.721c7.505-1.917,16.876-1.36,23.04,3.672.239.2-.042.532-.293.47a107.1,107.1,0,0,0-22.654-3.183.488.488,0,0,1-.092-.959" transform="translate(35.224 604.826)" fill="#17282f"/>
      <path id="path342" d="M354.629-63.381c7.507-1.918,16.877-1.364,23.04,3.671.239.194-.041.531-.293.47a107.07,107.07,0,0,0-22.653-3.183.487.487,0,0,1-.094-.957" transform="translate(34.753 605.154)" fill="#17282f"/>
      <path id="path344" d="M349.832-60.042c7.505-1.918,16.877-1.362,23.041,3.671.239.2-.042.531-.293.47a107.11,107.11,0,0,0-22.654-3.183.487.487,0,0,1-.094-.957" transform="translate(34.282 605.481)" fill="#17282f"/>
      <path id="path346" d="M428.241-71.045c8.457-2.01,11.593,11.126,3.124,13.139s-11.593-11.126-3.124-13.139" transform="translate(41.52 604.481)" fill="#17282f"/>
      <path id="path348" d="M353.886-81.717c-1.224-8.373,7.684-3.86,9.918-1.764a43.654,43.654,0,0,1,3.975,4.416,122.153,122.153,0,0,1,6.931,10.137c-3-1.375-6.092-2.482-9.139-3.745-3.631-1.508-11.012-4.428-11.685-9.044Zm1.851,6.155c5.327,4.265,12.313,6.074,18.568,8.493A.943.943,0,0,0,375.511-68a.2.2,0,0,0,.185-.271,40.647,40.647,0,0,0-11.479-17.612c-3.142-2.715-8.688-4.65-11.738-.57-2.887,3.857.148,8.4,3.258,10.893" transform="translate(34.464 602.76)" fill="#17282f"/>
      <path id="path350" d="M382.817-70.478c-3.28.352-6.558.539-9.824,1.012a121.771,121.771,0,0,1,9.512-7.766,43.853,43.853,0,0,1,5.06-3.114c2.736-1.378,12.556-3.19,9.016,4.5C394.63-71.61,386.728-70.9,382.817-70.478ZM399.271-80c-1.775-4.774-7.64-4.487-11.42-2.77a40.669,40.669,0,0,0-15.99,13.648.2.2,0,0,0,.1.312.945.945,0,0,0,.895,1.238c6.684-.552,13.9-.313,20.212-2.9,3.685-1.511,7.883-5.013,6.2-9.53" transform="translate(36.475 603.24)" fill="#17282f"/>
      <path id="path352" d="M369.85-56.057l77.2-20.665s-67.837-140.693-62.359-148.433c2.738-3.871,75.089-7.135,97.528-27.35,29.149-26.258,7.937-64.427,7.937-64.427H409.244s1.477,16.881-1.6,19.523c-2.028,1.761-98.11,12.729-107.722,45.548C288.136-211.619,369.85-56.057,369.85-56.057" transform="translate(29.308 580.38)" fill="#17282f"/>
      <path id="path354" d="M362.277-87.866a48.553,48.553,0,0,1,6.337-2.393c2.242-.774,4.485-1.558,6.738-2.3,4.436-1.453,8.889-2.844,13.373-4.136,9.028-2.6,18.075-5.157,27.171-7.519,4.741-1.231,14.9-3.917,15.531-3.824.3.046.373.554.1.652-8.785,3.194-17.709,5.94-26.631,8.712s-17.83,5.5-26.864,7.83c-2.5.646-5.021,1.22-7.53,1.835a56.309,56.309,0,0,1-7.994,1.757c-.262.025-.518-.471-.236-.617" transform="translate(35.527 600.873)" fill="#33535f"/>
      <path id="path356" d="M364.351-231.944c1.584-1.438,4.019-1.679,6.044-2.082q17.416-3.448,34.829-6.915c10.867-2.152,21.8-4.116,32.6-6.536,8.947-2.006,18.031-4.621,25.669-9.738a37.638,37.638,0,0,0,15.278-21.29c2.463-8.657,2.382-17.883,1.264-26.738-.272-2.167-.736-4.324-1.206-6.457-.035-.163.223-.225.258-.063,3.452,16.489,4.288,35.723-7.735,49.3-5.861,6.621-14.063,10.652-22.474,13.354-9.49,3.051-19.454,4.657-29.228,6.593q-17.418,3.45-34.837,6.889c-5.586,1.1-11.267,2-16.8,3.334a5.733,5.733,0,0,0-3,1.435c-1.023,1.146-.688,2.723-.372,4.066.643,2.735,1.466,5.433,2.334,8.11,7.019,21.571,56.245,123.758,57.578,126.11.139.249-.249.457-.4.213-11.272-18.773-47.959-97.665-55.64-118.043a130.071,130.071,0,0,1-5.066-15.886c-.461-1.95-.76-4.151.9-5.66" transform="translate(35.618 580.878)" fill="#33535f"/>
      <path id="path358" d="M152.794-15.1c3.843,1.535,119,7.412,123.411,4.913.527-.265,1.278-10.669,2.075-24.921l.583-13.439c.195-4.54,59.479-70.611,59.479-70.611l-82.646-5L205.151-50.23s-15.908,5.633-29.8,11.339l-.035.031c-8.571,3.492-16.019,6.7-17.761,7.938-4.524,3.236-8.6,14.318-4.758,15.82" transform="translate(14.839 599.291)" fill="#f57a76"/>
      <path id="path360" d="M293.964-73.086c-8.6,10.239-15.034,18.347-15.1,19.837l-.593,13.444c-.789,14.253-1.545,24.656-2.069,24.925-4.416,2.492-119.57-3.385-123.417-4.913s.234-12.594,4.77-15.829c1.738-1.23,9.189-4.439,17.751-7.941l.045-.027c13.89-5.7,29.8-11.335,29.8-11.335l14.6-21.355,74.214,3.194" transform="translate(14.839 603.988)" fill="#e7e8e5"/>
      <path id="path362" d="M152.34-21.139c3.963,1.544,119.28,7.149,123.813,4.584,1.723-.964,4.318-18.66,3.694-38.4L205.5-58.479s-43.678,17.688-48.347,21.035c-4.646,3.35-8.773,14.761-4.811,16.3" transform="translate(14.788 605.734)" fill="#fabb1e"/>
      <path id="path364" d="M153.937-28.6c19.353.466,97.369,4.168,116.464,6.1.157.015.151.122-.006.122-19.192-.043-97.176-4.376-116.474-5.9-.407-.032-.392-.326.016-.317" transform="translate(15.07 608.665)" fill="#17282f"/>
      <path id="path366" d="M163.528-42.772a15.553,15.553,0,0,1,11.335,5.282c2.274,2.74,4.149,6.529,3.818,10.53l-.234-.012c-.735-7.617-7.293-14.6-14.931-15.558a.122.122,0,0,1,.012-.243" transform="translate(16.03 607.275)" fill="#17282f"/>
      <path id="path368" d="M195.045-56.981c7.742.269,16.58,3.436,21.079,10,.174.255-.189.5-.413.369a106.961,106.961,0,0,0-20.846-9.42.487.487,0,0,1,.18-.946" transform="translate(19.084 605.881)" fill="#17282f"/>
      <path id="path370" d="M189.5-55.125c7.742.268,16.58,3.437,21.081,10,.174.254-.19.5-.414.369a107.188,107.188,0,0,0-20.845-9.42.487.487,0,0,1,.179-.946" transform="translate(18.54 606.063)" fill="#17282f"/>
      <path id="path372" d="M183.959-53.269c7.742.269,16.581,3.436,21.081,10,.174.252-.19.5-.413.369a107.015,107.015,0,0,0-20.848-9.421.487.487,0,0,1,.18-.946" transform="translate(17.997 606.245)" fill="#17282f"/>
      <path id="path374" d="M178.418-51.413c7.742.269,16.578,3.437,21.079,10,.176.254-.189.5-.413.369a107.03,107.03,0,0,0-20.846-9.418.488.488,0,0,1,.18-.948" transform="translate(17.453 606.427)" fill="#17282f"/>
      <path id="path376" d="M256.912-39.987c8.679.448,8,13.937-.694,13.489s-8-13.936.694-13.489" transform="translate(24.529 607.547)" fill="#17282f"/>
      <path id="path378" d="M188.525-71.1c1.179-8.381,8.458-1.545,10.015,1.092a43.629,43.629,0,0,1,2.572,5.357,121.227,121.227,0,0,1,3.8,11.675c-2.492-2.162-5.146-4.094-7.716-6.163C194.137-61.606,187.874-66.482,188.525-71.1Zm.045,6.427c3.914,5.589,10.111,9.29,15.435,13.367a.945.945,0,0,0,1.422-.556.2.2,0,0,0,.252-.211A40.646,40.646,0,0,0,199.61-72.2c-2.25-3.489-7.031-6.9-11.105-3.846-3.852,2.893-2.218,8.106.066,11.372" transform="translate(18.265 603.895)" fill="#17282f"/>
      <path id="path380" d="M213.347-52.552c-3.247-.584-6.445-1.325-9.713-1.788a121.462,121.462,0,0,1,11.312-4.78,43.453,43.453,0,0,1,5.732-1.567c3.012-.553,12.946.466,7.389,6.849C225-50.319,217.216-51.855,213.347-52.552Zm18.467-4.512c-.362-5.079-6.072-6.454-10.183-5.867a40.647,40.647,0,0,0-19.18,8.606l.007.326a.947.947,0,0,0,.511,1.441c6.57,1.347,13.425,3.6,20.212,2.9,3.962-.413,8.974-2.6,8.632-7.4" transform="translate(19.847 605.285)" fill="#17282f"/>
      <path id="path382" d="M197.132-46.787,289.464-35.5s91.323-109.255,98.7-116.525c22.871-22.553,104.871-61.447,129.329-97.657,21.966-32.521-.284-67.258-.284-67.258H427.052a185.972,185.972,0,0,0,9.192,28.12s-74.881,56.382-114.805,96.685C295.714-166.166,197.132-46.787,197.132-46.787" transform="translate(19.338 580.38)" fill="#17282f"/>
      <path id="path384" d="M400.324-296.523a43.032,43.032,0,0,1,7.7,2.223c2.615.908,5.195,1.953,7.719,3.091a151.152,151.152,0,0,1,14.489,7.64c.146.085.012.29-.136.218-4.944-2.387-10.048-4.514-15.154-6.539q-3.685-1.46-7.369-2.918a77.5,77.5,0,0,1-7.457-3.035c-.31-.161-.16-.732.2-.679" transform="translate(39.235 582.382)" fill="#33535f"/>
      <path id="path386" d="M404.671-316.89c1.152,4.081,2.182,8.2,3.479,12.237.594,1.852,1.183,3.738,1.943,5.531.643,1.512,1.6,3.234,3.379,3.524,2.053.334,2.584-1.433,2.369-3.114-.242-1.877-.779-3.748-1.2-5.589-.492-2.121-2.893-12.43-2.9-12.49-.025-.161-.023-.195.1-.312l.186-.019c.4.2,2.884,8.124,3.442,10.091s1.1,3.934,1.649,5.9a9.279,9.279,0,0,1,.533,4.556,3.482,3.482,0,0,1-3.151,2.725c.076.133.163.258.228.4.192.4.337.827.5,1.239s.324.839.458,1.272a4.044,4.044,0,0,1,.138.631c.034.237-.009.473.029.71a.344.344,0,0,1-.631.249c-.114-.209-.274-.366-.4-.564a3.72,3.72,0,0,1-.315-.681c-.152-.407-.281-.814-.4-1.233s-.256-.824-.347-1.243c-.053-.25-.07-.505-.1-.757a4.711,4.711,0,0,1-2.4-.832,7.954,7.954,0,0,1-2.568-3.684c-.671-1.694-1.2-3.451-1.736-5.192a76.979,76.979,0,0,1-3.015-13.171.38.38,0,0,1,.738-.183" transform="translate(39.625 580.357)" fill="#33535f"/>
      <path id="path388" d="M453.7-309.187c.432,2.029.729,4.083,1.259,6.092.52,1.966,1.116,3.928,1.824,5.835a21,21,0,0,0,2.665,5.225,19.825,19.825,0,0,0,4.111,3.946A34.145,34.145,0,0,0,473.371-283a45.736,45.736,0,0,0,5.413,1.413c.955.184,1.915.319,2.883.416a6.053,6.053,0,0,1,2.325.467.467.467,0,0,1-.018.8c-1.212.641-2.952.359-4.268.262a31.258,31.258,0,0,1-4.587-.665,33.135,33.135,0,0,1-8.731-3.381A27.24,27.24,0,0,1,459-289.367,20.471,20.471,0,0,1,454.9-297.7a41.776,41.776,0,0,1-1.6-11.441.2.2,0,0,1,.4-.042" transform="translate(44.468 581.126)" fill="#33535f"/>
      <path id="path390" d="M215.633-83.291a59.1,59.1,0,0,1,7.463.3c2.612.173,5.227.337,7.835.549,5.133.415,10.259.892,15.376,1.474,10.3,1.17,20.6,2.391,30.877,3.809,5.356.738,16.849,2.278,17.455,2.615a.347.347,0,0,1-.163.638c-10.3-.527-20.552-1.525-30.814-2.5s-20.5-1.978-30.693-3.4c-2.824-.4-5.635-.86-8.454-1.286a68.988,68.988,0,0,1-8.9-1.54c-.278-.081-.337-.638.013-.661" transform="translate(21.13 603.296)" fill="#33535f"/>
      <path id="path392" d="M402.1-185.866c-4.788,3.067-9.411,6.378-14.056,9.656-4.3,3.035-8.826,5.9-12.742,9.433a66.189,66.189,0,0,0-5.627,5.993q-2.754,3.178-5.508,6.36-5.512,6.36-10.937,12.794-3.075,3.635-6.111,7.3c-2.111,2.539-4.067,5.2-6.192,7.728-.132.157.1.376.233.221,3.76-4.236,7.728-8.282,11.476-12.533s7.505-8.5,11.206-12.792c3.57-4.142,7.019-8.451,10.817-12.388,3.723-3.857,8.275-6.81,12.619-9.9,5.133-3.653,10.306-7.259,15.272-11.139.425-.329.026-1.035-.451-.729" transform="translate(33.441 593.23)" fill="#33535f"/>
      <path id="path394" d="M423.563-290.7c-15.4,10.8-31.334,22.884-45.8,34.886C363.27-243.8,348.945-231.583,334.941-219q-5.886,5.286-11.663,10.691c-3.895,3.641-7.7,8.182-11.6,11.817-.211.2.111.5.322.307,7.037-6.313,14.324-13.176,21.454-19.387q10.619-9.255,21.331-18.4,21.5-18.406,43.524-36.184c8.148-6.6,17.644-13.277,25.624-20.085.255-.22-.1-.65-.372-.458" transform="translate(30.569 582.949)" fill="#33535f"/>
      <path id="path396" d="M505.757-306.521c-.88-2.6-1.817-5.174-2.779-7.742-.056-.149-.293-.082-.242.073,3.631,10.72,7.346,21.7,7.735,33.114a42.889,42.889,0,0,1-2.343,16.127,42.091,42.091,0,0,1-8.227,13.4c-7.17,8.105-16.3,14.477-24.912,20.934q-14.049,10.533-28.55,20.442c-9.646,6.625-19.527,12.925-29.505,19.034-9.9,6.06-20.094,11.611-30.022,17.613a80.016,80.016,0,0,0-13.438,9.966c-4.157,3.89-7.881,8.211-11.624,12.49q-12.029,13.759-23.845,27.7Q314.325-95.5,291.554-66.891q-2.787,3.5-5.564,7.02l.165.157q23.422-28.687,47.356-56.962,11.9-14.036,23.924-27.965c7.675-8.867,15.07-18.277,24.842-24.952,4.728-3.231,9.769-5.966,14.744-8.8q7.786-4.428,15.463-9.045,15.253-9.169,30.04-19.085c9.8-6.556,19.461-13.287,28.938-20.3q7.1-5.256,14.086-10.679a137.288,137.288,0,0,0,11.589-9.8,52.175,52.175,0,0,0,9.283-11.7,38.534,38.534,0,0,0,4.616-14.84c1.171-11.1-1.754-22.256-5.278-32.687" transform="translate(28.055 580.634)" fill="#33535f"/>
      <path id="path398" d="M393.238-290.792c1.608,3.078,114.269,29.1,115,28.589,1.952-1.4,8.416-104.567-21.293-150.682-5.234-8.126-17.941-9.628-24.48-7.936-3.266.848-16.693,12.287-22.839,23.723-6.127,11.423-47.389,104.351-46.384,106.306" transform="translate(38.574 570.128)" fill="#fabb1e"/>
      <path id="path400" d="M451.734-417.87c.7-.561,1.36-1.053,1.965-1.473-.6.423-1.264.917-1.965,1.473" transform="translate(44.315 570.334)" fill="#a7aaa9"/>
      <path id="path402" d="M477.082-417.337h-25.93c.217-.179.429-.353.638-.52.7-.556,1.36-1.05,1.965-1.473.07-.05.139-.1.208-.145h19.253a18.768,18.768,0,0,1,3.865,2.138" transform="translate(44.257 570.321)" fill="#f4ac12"/>
      <path id="path404" d="M444.624-411.351c.3-.319.606-.633.909-.94q-.455.463-.909.94" transform="translate(43.617 571.026)" fill="#142228"/>
      <path id="path406" d="M474.55-410.951h-30.2l.3-.322q.455-.477.909-.94c.291-.3.583-.587.871-.876h31.594c-1.182.7-2.348,1.42-3.476,2.138" transform="translate(43.59 570.948)" fill="#f4ac12"/>
      <path id="path408" d="M439.028-404.625c.379-.524.773-1.034,1.173-1.54-.4.508-.791,1.023-1.173,1.54m1.578-2.053a.044.044,0,0,1,.007-.01h0a.063.063,0,0,1-.007.01" transform="translate(43.068 571.576)" fill="#142228"/>
      <path id="path410" d="M466.042-404.551H438.979c.018-.025.035-.05.054-.075.382-.517.775-1.032,1.173-1.54.135-.171.269-.341.406-.512a.063.063,0,0,0,.007-.01h27.627a20.764,20.764,0,0,0-2.032,1.943c-.059.064-.116.129-.171.195" transform="translate(43.063 571.576)" fill="#f4ac12"/>
      <path id="path412" d="M435.375-398.978c.037-.075.073-.145.107-.214.171-.3.341-.619.521-.928-.177.31-.35.619-.517.931-.037.067-.073.138-.111.211" transform="translate(42.71 572.22)" fill="#142228"/>
      <path id="path414" d="M463.8-398.165H435.006c.145-.291.283-.556.406-.8.038-.073.075-.143.111-.211.167-.312.34-.621.517-.931.035-.061.072-.123.108-.184h27.739a7.16,7.16,0,0,0-.088,2.123" transform="translate(42.674 572.203)" fill="#f4ac12"/>
      <path id="path416" d="M431.908-391.764H431.9c.366-.761.7-1.464,1.01-2.138h.009c-.319.672-.657,1.387-1.01,2.138" transform="translate(42.369 572.83)" fill="#a7aaa9"/>
      <path id="path418" d="M469.995-391.764H431.907c.353-.751.691-1.466,1.01-2.138h33.871a11.753,11.753,0,0,0,.933.755,14.7,14.7,0,0,0,1.57,1.007c.227.127.463.253.7.375" transform="translate(42.37 572.83)" fill="#f4ac12"/>
      <path id="path420" d="M496.582-385.364h-4.508c.151-.154.3-.307.46-.455.616-.583,1.266-1.146,1.934-1.682h1.483c.221.7.425,1.42.631,2.138m-5.693,0h-61.95c.337-.732.659-1.449.981-2.138h62.653c-.281.3-.552.616-.813.947-.306.391-.608.776-.871,1.19" transform="translate(42.078 573.458)" fill="#f4ac12"/>
      <path id="path422" d="M426.455-380.049q.187-.411.373-.818c-.123.271-.247.545-.373.818m71.72-.934-.034-.132h0c.012.044.022.088.034.132" transform="translate(41.835 574.084)" fill="#a7aaa9"/>
      <path id="path424" d="M498.713-378.977h-72.7c.161-.363.321-.719.48-1.072.126-.274.25-.548.373-.818l.114-.247h71.2l.034.132c.164.672.329,1.332.495,2.006" transform="translate(41.792 574.084)" fill="#f4ac12"/>
      <path id="path426" d="M500.594-372.642h0c-.1-.477-.2-.946-.3-1.42.105.47.209.946.306,1.42m-77.482,0h0c.072-.16.143-.321.217-.48-.072.161-.143.319-.217.48" transform="translate(41.507 574.776)" fill="#a7aaa9"/>
      <path id="path428" d="M500.59-372.577H423.112c.073-.161.145-.319.217-.48.253-.556.511-1.111.75-1.657h76.047c.054.237.108.477.162.717.1.474.2.943.3,1.42" transform="translate(41.507 574.712)" fill="#f4ac12"/>
      <path id="path430" d="M502.222-366.177H420.246c.322-.717.63-1.435.952-2.138h80.644c.132.7.264,1.42.381,2.138" transform="translate(41.226 575.34)" fill="#f4ac12"/>
      <path id="path432" d="M496-359.879h-.01c-.057-.381-.119-.769-.177-1.149q.092.573.187,1.149" transform="translate(48.638 576.055)" fill="#a7aaa9"/>
      <path id="path434" d="M503.678-359.791H417.392c.321-.717.628-1.435.952-2.138h84.993q.081.49.164.988c.059.381.12.769.177,1.149" transform="translate(40.946 575.966)" fill="#f4ac12"/>
      <path id="path436" d="M496.858-353.709c-.079-.609-.16-1.209-.243-1.82h0c.088.611.164,1.212.239,1.82" transform="translate(48.717 576.594)" fill="#a7aaa9"/>
      <path id="path438" d="M415.368-355.435c.013-.031.026-.063.041-.094h0l-.041.094" transform="translate(40.747 576.594)" fill="#e0e1de"/>
      <path id="path440" d="M504.948-353.391h-90.4c.294-.672.6-1.359.9-2.044l.041-.094h89.176c.083.611.164,1.211.243,1.82l.039.318" transform="translate(40.667 576.594)" fill="#f4ac12"/>
      <path id="path442" d="M497.668-347h-.013q-.114-1.067-.239-2.138h0c.088.717.161,1.42.249,2.138" transform="translate(48.796 577.221)" fill="#a7aaa9"/>
      <path id="path444" d="M506.06-347H411.739c.306-.717.613-1.42.937-2.138h93.148c.079.715.16,1.426.236,2.138" transform="translate(40.391 577.221)" fill="#f4ac12"/>
      <path id="path446" d="M498.289-340.614h-.007q-.09-1.015-.187-2.032c.069.681.126,1.35.195,2.032" transform="translate(48.863 577.858)" fill="#a7aaa9"/>
      <path id="path448" d="M507.028-340.6H408.939c.293-.7.615-1.42.922-2.138h96.969c0,.035.007.07.01.105q.1,1.019.187,2.032" transform="translate(40.116 577.849)" fill="#f4ac12"/>
      <path id="path450" d="M498.791-334.231h0c-.047-.613-.091-1.221-.138-1.839.05.615.1,1.221.138,1.839" transform="translate(48.917 578.503)" fill="#a7aaa9"/>
      <path id="path452" d="M507.865-334.2H406.152c.293-.7.615-1.42.922-2.138H507.7c.009.1.018.2.025.3.047.618.091,1.226.135,1.839" transform="translate(39.843 578.476)" fill="#f4ac12"/>
      <path id="path454" d="M499.19-327.818h-.006c-.038-.712-.078-1.42-.12-2.138h.007c.045.717.075,1.435.119,2.138" transform="translate(48.958 579.103)" fill="#a7aaa9"/>
      <path id="path456" d="M404.09-329.624c.047-.11.1-.22.142-.331h0c-.047.111-.094.22-.142.331" transform="translate(39.641 579.103)" fill="#e0e1de"/>
      <path id="path458" d="M508.569-327.818H403.392c.247-.594.507-1.2.766-1.807.048-.111.1-.22.142-.331H508.449c.042.717.082,1.426.12,2.138" transform="translate(39.572 579.103)" fill="#f4ac12"/>
      <path id="path460" d="M499.448-322.054c-.019-.5-.04-1-.06-1.5h0c.021.5.041,1,.056,1.5" transform="translate(48.989 579.731)" fill="#a7aaa9"/>
      <path id="path462" d="M509.149-321.418H400.659c.293-.7.6-1.406.908-2.138H509.073c.021.5.041,1,.06,1.5.007.214.013.426.016.637" transform="translate(39.304 579.731)" fill="#f4ac12"/>
      <path id="path464" d="M499.664-315.031h-.006c-.015-.706-.032-1.422-.051-2.138h.013c.013.717.029,1.435.044,2.138" transform="translate(49.011 580.357)" fill="#a7aaa9"/>
      <path id="path466" d="M509.628-315.031H397.979c.293-.688.586-1.406.893-2.138h110.7c.019.716.037,1.432.051,2.138" transform="translate(39.041 580.357)" fill="#f4ac12"/>
      <path id="path468" d="M499.739-309.117c0-.545-.007-1.1-.013-1.652h0c.01.553.013,1.105.013,1.652" transform="translate(49.022 580.985)" fill="#a7aaa9"/>
      <path id="path470" d="M395.991-310.321c.059-.148.119-.3.177-.448h0c-.057.151-.117.3-.177.448" transform="translate(38.846 580.985)" fill="#e0e1de"/>
      <path id="path472" d="M509.975-308.631H395.392c.2-.537.425-1.1.657-1.69q.09-.222.18-.448H509.96c.006.552.01,1.107.013,1.652,0,.163,0,.325,0,.486" transform="translate(38.788 580.985)" fill="#f4ac12"/>
      <path id="path474" d="M393.267-302.269h0l-.029-.044a4.362,4.362,0,0,1,.381-1.668,4.354,4.354,0,0,0-.376,1.666.273.273,0,0,0,.029.045" transform="translate(38.574 581.651)" fill="#e0e1de"/>
      <path id="path476" d="M499.725-302.307q.009-.771.013-1.558c0,.523,0,1.044-.013,1.558" transform="translate(49.022 581.662)" fill="#a7aaa9"/>
      <path id="path478" d="M510.173-302.231H393.267a.267.267,0,0,1-.029-.045,4.354,4.354,0,0,1,.376-1.666c.045-.135.094-.277.146-.426H510.188c0,.184,0,.369,0,.553q0,.786-.013,1.558v.026" transform="translate(38.574 581.613)" fill="#f4ac12"/>
      <path id="path480" d="M499.606-295.844h0q.031-1.05.056-2.138h.007c-.015.732-.044,1.435-.059,2.138" transform="translate(49.01 582.239)" fill="#a7aaa9"/>
      <path id="path482" d="M414.378-296.032h-.041l-.132-.034.019-.006.154.039" transform="translate(40.633 582.427)" fill="#142228"/>
      <path id="path484" d="M410.3-297.09q-1.713-.457-3.307-.892h.018q1.579.428,3.278.88l.012.012" transform="translate(39.925 582.239)" fill="#142228"/>
      <path id="path486" d="M414.619-295.957q-2.4-.622-4.613-1.212l-.012-.012q2.227.591,4.644,1.218l-.019.006" transform="translate(40.22 582.318)" fill="#2c4954"/>
      <path id="path488" d="M508.685-295.844h-93.6l-.154-.039q-2.414-.626-4.644-1.218-1.7-.452-3.278-.88H508.74q-.026,1.089-.056,2.138" transform="translate(39.927 582.239)" fill="#f4ac12"/>
      <path id="path490" d="M499.366-289.448h-.01c.034-.679.066-1.375.1-2.094-.029.716-.059,1.42-.086,2.094" transform="translate(48.986 582.871)" fill="#a7aaa9"/>
      <path id="path492" d="M440.8-289.445h-.016c-2.94-.717-5.865-1.419-8.731-2.135,2.873.707,5.8,1.42,8.747,2.135" transform="translate(42.384 582.868)" fill="#142228"/>
      <path id="path494" d="M505.959-289.444H440.8c-2.947-.714-5.874-1.428-8.747-2.135l-.01,0h74.012c0,.015,0,.029,0,.044-.031.719-.063,1.414-.1,2.094" transform="translate(42.383 582.867)" fill="#f4ac12"/>
      <path id="path496" d="M498.952-283.058h0c.056-.673.108-1.384.16-2.138h0c-.059.747-.1,1.464-.161,2.138" transform="translate(48.946 583.494)" fill="#a7aaa9"/>
      <path id="path498" d="M467.765-283.058h-.022c-2.958-.688-6.032-1.406-9.151-2.138h.034c3.12.735,6.179,1.449,9.139,2.138" transform="translate(44.987 583.494)" fill="#142228"/>
      <path id="path500" d="M502.905-283.058H467.762c-2.96-.688-6.019-1.4-9.139-2.138h44.442c-.051.754-.1,1.464-.16,2.138" transform="translate(44.99 583.494)" fill="#f4ac12"/>
      <path id="path502" d="M496.376-276.658H496.3c-1.255-.25-2.9-.6-4.89-1.035a.05.05,0,0,1,0-.015c2.019.439,3.7.794,4.962,1.05m-5.783-1.214c-1.278-.28-2.678-.589-4.189-.924h.064c1.486.331,2.865.634,4.126.909a.055.055,0,0,0,0,.015" transform="translate(47.716 584.122)" fill="#142228"/>
      <path id="path504" d="M491.039-277.774q-.4-.086-.82-.179a.057.057,0,0,1,0-.015c.28.061.552.122.82.179a.05.05,0,0,0,0,.015" transform="translate(48.09 584.203)" fill="#2c4954"/>
      <path id="path506" d="M498.256-277.26c.042-.2.085-.441.127-.706q-.061.4-.127.706" transform="translate(48.878 584.203)" fill="#a7aaa9"/>
      <path id="path508" d="M499.284-276.658h-2.914c-1.265-.256-2.943-.611-4.962-1.05-.268-.057-.54-.117-.82-.179-1.261-.275-2.64-.578-4.126-.909h13.2c-.04.334-.082.638-.125.911s-.085.5-.127.706-.085.378-.129.521" transform="translate(47.721 584.122)" fill="#f4ac12"/>
      <path id="path510" d="M475.059-384.257c20.255-1.644,53.808-8.9,72.061-19.086,10.95-6.11,12.61-14.327,13.174-20.063,1.46-14.855-23.287-38.949-36.284-47.937-1.722-1.19-4.211,7.545-12.082,17.341-6.666,8.3-19.224,17.662-17.329,19.265,2.773,2.344,15.672,11.225,15.059,12.3-1.048,1.833-13.018,6.9-30.934,15.587-24.028,11.646-18.015,23.761-3.665,22.6" transform="translate(45.369 565.222)" fill="#f57a76"/>
      <path id="path512" d="M528.456-394.879l-34.725-26.7s-23.5,11.353-29.7,18.294-2.671,15.451,14.545,17.129c19.748,1.924,49.877-8.723,49.877-8.723" transform="translate(45.242 570.115)" fill="#fabb1e"/>
      <path id="path514" d="M517.179-394.305c-13.113-11.621-27.31-22.747-29.965-24.527l-.142.193c2.23,2.422,20.24,17.9,29.972,24.517l.135-.183" transform="translate(47.781 570.384)" fill="#17282f"/>
      <path id="path516" d="M496.4-391.788a18.8,18.8,0,0,0-7.268,2.936,14.564,14.564,0,0,0-2.807,2.719,11.674,11.674,0,0,0-1.11,1.592,11.538,11.538,0,0,0-.829,1.66l.223.123c.422-.426.773-.919,1.2-1.344s.843-.879,1.284-1.3a32.307,32.307,0,0,1,2.889-2.419,21.16,21.16,0,0,1,6.515-3.631c.221-.063.117-.389-.1-.34" transform="translate(47.517 573.037)" fill="#17282f"/>
      <path id="path518" d="M482.917-417.337h0l.842-.447-.837.447m1.078-.572c1.079-.571,2.083-1.1,2.988-1.565h.012c-.909.467-1.921.994-3,1.565" transform="translate(47.373 570.321)" fill="#a7aaa9"/>
      <path id="path520" d="M497.377-417.337h-7.785c-.895-.674-1.567-1.161-1.971-1.432l-.142.193c.245.265.679.688,1.272,1.239h-5.836l.837-.447c.081-.041.16-.083.24-.126,1.079-.571,2.091-1.1,3-1.565h7.6l2.782,2.138" transform="translate(47.374 570.321)" fill="#f4ac12"/>
      <path id="path522" d="M489.185-417.4h-.84c-.593-.551-1.028-.974-1.272-1.239l.142-.193c.4.271,1.076.758,1.971,1.432" transform="translate(47.781 570.384)" fill="#142228"/>
      <path id="path524" d="M507.582-410.951h-7.975c-.928-.75-1.821-1.464-2.668-2.138H504.8l2.782,2.138m-9.744,0H471.872c1.113-.717,2.284-1.435,3.454-2.138h20.012c.792.682,1.628,1.4,2.5,2.138" transform="translate(46.29 570.948)" fill="#f4ac12"/>
      <path id="path526" d="M497.511-410.951h-1.769c-.873-.739-1.709-1.455-2.5-2.138h1.6c.846.673,1.739,1.388,2.668,2.138" transform="translate(48.386 570.948)" fill="#142228"/>
      <path id="path528" d="M510.785-406.23l-.6-.458h0l.593.458" transform="translate(50.049 571.576)" fill="#ed7069"/>
      <path id="path530" d="M517.527-404.551H508.96q-1.3-1.089-2.565-2.138h8.362l.6.458,2.174,1.679m-10.382,0H463.631l.163-.19a20.618,20.618,0,0,1,2.05-1.947h38.671c.871.713,1.751,1.428,2.631,2.138" transform="translate(45.482 571.576)" fill="#f4ac12"/>
      <path id="path532" d="M505.308-404.551h-1.815c-.88-.71-1.76-1.425-2.631-2.138h1.881q1.263,1.045,2.565,2.138" transform="translate(49.134 571.576)" fill="#142228"/>
      <path id="path534" d="M526.886-398.165H517.4q-1.223-1.07-2.445-2.123h9.182l2.751,2.123m-10.442,0H461.236a6.916,6.916,0,0,1,.088-2.123h52.284c.977.744,1.925,1.457,2.836,2.123" transform="translate(45.242 572.203)" fill="#f4ac12"/>
      <path id="path536" d="M512.716-398.165h-.955c-.911-.666-1.859-1.379-2.836-2.123h1.346q1.221,1.054,2.445,2.123" transform="translate(49.925 572.203)" fill="#142228"/>
      <path id="path538" d="M503.581-391.764h-.023c3.088-.69,6-1.427,8.625-2.138h.007c-2.606.7-5.52,1.449-8.609,2.138" transform="translate(49.398 572.83)" fill="#a7aaa9"/>
      <path id="path540" d="M466.884-391.764h-.006c-.242-.122-.477-.247-.7-.375.228.127.466.253.71.375m-2.28-1.382a11.766,11.766,0,0,1-.933-.755h.006a11.647,11.647,0,0,0,.927.755" transform="translate(45.486 572.83)" fill="#d79b14"/>
      <path id="path542" d="M507.47-391.764H466.884c-.245-.122-.482-.247-.71-.375a15.011,15.011,0,0,1-1.57-1.007,11.652,11.652,0,0,1-.927-.755h52.417c-2.621.71-5.537,1.448-8.625,2.138" transform="translate(45.486 572.83)" fill="#f4ac12"/>
      <path id="path544" d="M453.794-400.183c5.8,2.435,17.7-5.061,23.041-11.855.363-.467,1.656-21.325,2.34-25.43.146-.842-26.8,1.959-26.8,1.959s1.1,9.031-.143,16.182c-.11.6-4.042,16.788,1.561,19.145" transform="translate(44.222 568.54)" fill="#f57a76"/>
      <path id="path546" d="M451.69-417.676l-.079.269.13.029a14.522,14.522,0,0,0,2.493.565c14.061,2.015,21.651-14.406,24.066-20.813-4.455-.127-26.01,2.117-26.01,2.117s1.1,9.031-.142,16.177c-.028.2-.072.389-.111.567a6.514,6.514,0,0,1-.347,1.088" transform="translate(44.303 568.54)" fill="#17282f"/>
      <path id="path548" d="M450.021-479.416s-8.789,3.539-10.485,12.409.233,18.214,1,18.676,9.488-31.085,9.488-31.085" transform="translate(43.052 564.441)" fill="#17282f"/>
      <path id="path550" d="M483.8-465.995c2.807,9.264-2.133,36-8.729,41.95-9.564,8.627-25.195,9.423-32.517-2.066-7.1-11.138-.044-45.867,7.321-51.272,10.851-7.96,29.777-2.3,33.925,11.388" transform="translate(43.126 564.283)" fill="#f57a76"/>
      <path id="path552" d="M440.676-458.056a41.419,41.419,0,0,0-1.02,7.464c-.186,2.587-.211,5.176-.192,7.769,0,.148.228.138.228-.01.016-2.548.182-5.094.4-7.632s.622-5.048.766-7.575l-.182-.015" transform="translate(43.11 566.536)" fill="#17282f"/>
      <path id="path554" d="M472.509-429.37v0" transform="translate(46.353 569.349)" fill="#f68b94"/>
      <path id="path556" d="M455.678-452.638l.111.183c-.381,1.794-.515,3.909,1.007,4.8l-.032.1c-1.941-.638-1.734-3.447-1.086-5.082" transform="translate(44.657 567.068)" fill="#17282f"/>
      <path id="path558" d="M457.615-454.087c2.939.3,2.121,6.155-.6,5.877-2.679-.275-1.861-6.129.6-5.877" transform="translate(44.669 566.925)" fill="#17282f"/>
      <path id="path560" d="M446.715-453.664l-.161.141c-.2,1.821-.728,3.874-2.452,4.249v.1c2.04,0,2.717-2.735,2.612-4.492" transform="translate(43.566 566.967)" fill="#17282f"/>
      <path id="path562" d="M445.5-455.591c-2.884-.63-3.931,5.189-1.258,5.772,2.633.574,3.678-5.246,1.258-5.772" transform="translate(43.428 566.774)" fill="#17282f"/>
      <path id="path564" d="M460.235-455.828a23.265,23.265,0,0,1-2.155-1.117A3.918,3.918,0,0,1,456.1-458.5a1.252,1.252,0,0,1,.408-1.471,3.1,3.1,0,0,1,3.139.116,4.556,4.556,0,0,1,2.327,2.313,1.334,1.334,0,0,1-1.736,1.714" transform="translate(44.733 566.311)" fill="#17282f"/>
      <path id="path566" d="M443.685-458.248a22.886,22.886,0,0,0,2.41-.278,3.92,3.92,0,0,0,2.406-.754,1.248,1.248,0,0,0,.139-1.52,3.1,3.1,0,0,0-2.975-1,4.55,4.55,0,0,0-3,1.34,1.333,1.333,0,0,0,1.016,2.217" transform="translate(43.39 566.166)" fill="#17282f"/>
      <path id="path568" d="M455.792-437.055c-.493.365-1.007.887-1.673.852a4.832,4.832,0,0,1-1.886-.729l-.092.082a2.464,2.464,0,0,0,2.165,1.306,1.948,1.948,0,0,0,1.65-1.4l-.164-.107" transform="translate(44.354 568.597)" fill="#17282f"/>
      <path id="path570" d="M455.346-440.386a6.227,6.227,0,0,1-4.505,2.171,7.8,7.8,0,0,1-2.236-.208,2.184,2.184,0,0,1-.417-.108c-.13-.034-.247-.066-.389-.117a.451.451,0,0,1-.306-.455v-.013l.042-.183,0-.015.025-.158c.157-1.4.59-3.507.59-3.507-.546.185-3.312.991-3.168.268,1.2-5.99,2.543-12.65,5.007-18.356a.17.17,0,0,1,.325.092c-.93,5.8-2.874,11.4-3.9,17.215a10.911,10.911,0,0,1,3.038-.477c.19.083-.908,4.053-.928,4.687l0,.069c2.3.628,4.173.165,6.671-1.092.148-.083.275.059.145.187" transform="translate(43.652 566.231)" fill="#17282f"/>
      <path id="path572" d="M449.123-440.867a7.391,7.391,0,0,0,2.615,2.682,3.327,3.327,0,0,0,1.984.4c1.5-.179,1.725-1.5,1.618-2.676a7.949,7.949,0,0,0-.407-1.832,9.582,9.582,0,0,1-5.81,1.422" transform="translate(44.058 568.083)" fill="#17282f"/>
      <path id="path574" d="M451.5-438.348a3.327,3.327,0,0,0,1.984.4c1.5-.179,1.725-1.5,1.618-2.676-1.575-.057-3.259.782-3.6,2.272" transform="translate(44.292 568.247)" fill="#f576b7"/>
      <path id="path576" d="M481.193-443.549c-3.064.441-5.056-8.881-5.477-12.411-.373-3.111.136-12.716.1-13.382s-14.059,6.372-21.094,3.066-10.93-10.694-10.548-13.8,10.758-9.511,18.744-8.675,17.132,12.58,17.132,12.58-2.963-4.918-2.785-5.256,4.978,2.507,5.351,6.3c0,0-.3-4.734.1-4.76s3.764,4.517,2.4,7.347c0,0,3.977,4.7,3.72,9.138s-4.042,19.335-7.644,19.852" transform="translate(43.57 563.518)" fill="#17282f"/>
      <path id="path578" d="M449.224-470.137a25,25,0,0,0,6.574,3.581,16.807,16.807,0,0,0,8.148-.032,25.4,25.4,0,0,0,7.616-3.037c2.082-1.23,4-2.805,6.182-3.851.545-.261,1.006.539.633.944a26.825,26.825,0,0,1-14.917,7.755,15.4,15.4,0,0,1-14.274-5.307l.038-.054" transform="translate(44.065 565.019)" fill="#17282f"/>
      <path id="path580" d="M452.643-452.673a6.8,6.8,0,0,0,4.8,8.321,6.8,6.8,0,0,0,8.319-4.794,6.8,6.8,0,0,0-4.8-8.322,6.736,6.736,0,0,0-1.672-.231,6.8,6.8,0,0,0-6.649,5.026Zm4.524,9.332a7.847,7.847,0,0,1-5.534-9.6h0a7.845,7.845,0,0,1,9.6-5.536,7.849,7.849,0,0,1,5.536,9.6,7.852,7.852,0,0,1-7.675,5.8,7.8,7.8,0,0,1-1.93-.269" transform="translate(44.278 566.468)" fill="#fabb1e"/>
      <path id="path582" d="M440.488-458.353a8.316,8.316,0,0,0-2.076,4.635c-.485,3.71,1.249,7.01,3.867,7.353s5.143-2.4,5.63-6.111a8.331,8.331,0,0,0-.813-5.012,4.181,4.181,0,0,0-3.054-2.343,3.637,3.637,0,0,0-.4-.028,4.319,4.319,0,0,0-3.155,1.505Zm1.653,13.028c-3.189-.419-5.328-4.245-4.767-8.53a9.36,9.36,0,0,1,2.353-5.218,5.174,5.174,0,0,1,4.451-1.8,5.187,5.187,0,0,1,3.837,2.88,9.352,9.352,0,0,1,.931,5.649c-.531,4.056-3.293,7.091-6.291,7.051a4.662,4.662,0,0,1-.514-.037" transform="translate(42.897 566.257)" fill="#fabb1e"/>
      <path id="path584" d="M452.185-452.387l.772-.709c-1.05-1.143-3.6-2.832-5.766-1.048l.666.808c1.937-1.6,4.23.845,4.328.949" transform="translate(43.869 566.844)" fill="#fabb1e"/>
      <path id="path586" d="M484.807-446.063l.985-.357c-.165-.458-1.688-4.508-3.959-5.189-2.124-.631-16.223-1.149-16.821-1.17l-.038,1.047c4.042.145,14.919.635,16.558,1.127,1.5.448,2.873,3.43,3.275,4.542" transform="translate(45.613 567.054)" fill="#fabb1e"/>
      <path id="path588" d="M474.763-446.905s6.237-8.512,10.113-6.271-.946,14.676-5.59,16.29a4.684,4.684,0,0,1-6.221-2.656l1.7-7.363" transform="translate(46.407 566.978)" fill="#f57a76"/>
      <path id="path590" d="M483.178-449.995l.022.125c-3.259,1.237-5.025,4.195-6.284,7.274.988-1.174,2.309-1.8,3.886-.622l-.091.171a2.883,2.883,0,0,0-3.195.936,13.887,13.887,0,0,0-1.574,2.531c-.16.285-.676.119-.559-.211l.028-.075c.009-4.12,3.338-9.811,7.767-10.129" transform="translate(46.633 567.327)" fill="#17282f"/>
      <path id="path592" d="M484.726-453.065a3.28,3.28,0,0,0-3.092-.436c-.149.038-.16.141-.01.1a3.333,3.333,0,0,1,1.893,0c.518.167,1.959.763,1.952,3.794a19.919,19.919,0,0,1-1.944,6.884l.126.067a21.97,21.97,0,0,0,1.7-4.221c.406-1.659.952-4.848-.625-6.189" transform="translate(47.236 566.965)" fill="#17282f"/>
      <path id="path594" d="M479.268-412.189c-1.031,1.148-1.962,2.375-3.053,3.471a44.832,44.832,0,0,1-3.488,3.161,43.114,43.114,0,0,1-7.64,4.987c-2.864,1.46-6.051,2.621-9.309,2.076a8.2,8.2,0,0,1-6.413-5.52c-1.354-3.657-.436-7.553.463-11.376a.114.114,0,0,0-.223-.05c-1.015,3.934-1.777,7.179-1.085,10.871A8.759,8.759,0,0,0,453.6-397.9c6.486,2.693,13.4-1.981,18.206-5.984a43.969,43.969,0,0,0,3.987-3.76,32.475,32.475,0,0,0,3.66-4.417l-.187-.13" transform="translate(43.973 570.709)" fill="#17282f"/>
      <path id="path596" d="M572.193-264.32H47.247v-18.668H572.193v18.668" transform="translate(4.635 583.71)" fill="#273e47"/>
      <path id="path598" d="M572.193-265.337H47.247v-7.284H572.193v7.284" transform="translate(4.635 584.727)" fill="#33535f"/>
      <path id="path600" d="M65.069-4.049H57.523L79.485-265.987H98.744L65.069-4.049" transform="translate(5.643 585.378)" fill="#33535f"/>
      <path id="path602" d="M96.908-265.982l-2.255,17.526H76.191l1.464-17.526H96.908" transform="translate(7.474 585.379)" fill="#17282f"/>
      <path id="path604" d="M511.158-4.049H518.7L496.742-265.987H477.483L511.158-4.049" transform="translate(46.84 585.378)" fill="#33535f"/>
      <path id="path606" d="M477.487-265.982l2.255,17.526H498.2l-1.464-17.526H477.487" transform="translate(46.841 585.379)" fill="#17282f"/>
      <path id="path608" d="M342.71-282.2h81.1v-6.3l-81.1-2.622v8.921" transform="translate(33.619 582.912)" fill="#33535f"/>
      <path id="path610" d="M284.733-281.413h53.5c4.567,0-2.041-13-18.7-17.988s-40.053,13.11-34.8,17.988" transform="translate(27.858 582.016)" fill="#273e47"/>
      <path id="path612" d="M304.6-281.826a39.954,39.954,0,0,0-3.495-7.858,21.533,21.533,0,0,0-2.486-3.4,27.924,27.924,0,0,0-3.152-2.971,10.831,10.831,0,0,1,3.946,2.148,13.583,13.583,0,0,1,2.944,3.466,16.5,16.5,0,0,1,1.763,4.164,13.417,13.417,0,0,1,.48,4.449" transform="translate(28.985 582.429)" fill="#17282f"/>
      <path id="path614" d="M299.322-294.362c-2.813,1.818-5.631,3.469-8.264,5.356a28.584,28.584,0,0,0-3.716,3.047,10.218,10.218,0,0,0-2.676,3.968,7.384,7.384,0,0,1,1.817-4.72,17.4,17.4,0,0,1,3.726-3.485,28.04,28.04,0,0,1,4.369-2.517,23.34,23.34,0,0,1,4.744-1.649" transform="translate(27.925 582.595)" fill="#17282f"/>
      <path id="path616" d="M251.548-297.366H381.613L360.928-394.2H230.865l20.684,96.829" transform="translate(22.648 572.801)" fill="#33535f"/>
      <path id="path618" d="M247.169-297.366H377.232L356.546-394.2H226.483l20.685,96.829" transform="translate(22.218 572.801)" fill="#273e47"/>
      <path id="path620" d="M309.615-335.692h3.051l-4.631-21.722h-3.05l4.63,21.722" transform="translate(29.919 576.409)" fill="#17282f"/>
      <path id="path622" d="M304.135-335.692h3.05l-4.63-21.722h-3.05l4.63,21.722" transform="translate(29.381 576.409)" fill="#17282f"/>
      <path id="path624" d="M298.654-335.692h3.05l-4.631-21.722h-3.05l4.631,21.722" transform="translate(28.843 576.409)" fill="#17282f"/>
      <path id="path626" d="M293.173-335.692h3.051l-4.631-21.722h-3.05l4.63,21.722" transform="translate(28.306 576.409)" fill="#17282f"/>
      <path id="path628" d="M287.693-335.692h3.05l-4.63-21.722h-3.05l4.63,21.722" transform="translate(27.768 576.409)" fill="#17282f"/>
      <path id="path630" d="M282.212-335.692h3.05l-4.631-21.722h-3.05l4.631,21.722" transform="translate(27.23 576.409)" fill="#17282f"/>
      <path id="path632" d="M276.732-335.692h3.048l-4.63-21.722H272.1l4.631,21.722" transform="translate(26.693 576.409)" fill="#17282f"/>
      <path id="path634" d="M278.819-282.359h63.968v-4.966l-63.968-2.069v7.035" transform="translate(27.352 583.082)" fill="#33535f"/>
      <path id="path636" d="M262.981-278.147h34.344L318.01-332.4H283.664l-20.684,54.258" transform="translate(25.798 578.863)" fill="#33535f"/>
      <path id="path638" d="M257.833-278.147h34.346L312.862-332.4H278.516l-20.684,54.258" transform="translate(25.293 578.863)" fill="#17282f"/>
      <path id="path640" d="M261.883-461.857s-7.971,63.817-21.072,78.177c-15.726,17.225-27.139,14.709-33.489,23.589l-.013.013c-6.35-8.893-17.761-6.362-33.5-23.6-13.1-14.36-21.057-78.177-21.057-78.177C187.27-478.616,207.31-497.4,207.31-497.4l.013.013c.616.577,20.575,19.035,54.561,35.526" transform="translate(14.985 562.677)" fill="#fabb1e"/>
      <path id="path642" d="M207.31-360.078c-6.35-8.893-17.761-6.362-33.5-23.6-10.71-11.739-17.982-56.533-20.28-72.49-.512-3.562-.777-5.687-.777-5.687C187.27-478.616,207.31-497.4,207.31-497.4l.013.013v137.291h0l-.013.013" transform="translate(14.985 562.677)" fill="#d59814"/>
      <path id="path644" d="M202.447-360.093V-497.384c.616.577,20.575,19.035,54.561,35.526,0,0-7.832,62.7-20.726,77.786-.116.133-.23.265-.346.391a70.5,70.5,0,0,1-5.8,5.685c-12.754,11.083-22.151,10.154-27.693,17.9" transform="translate(19.86 562.678)" fill="#f4ac12"/>
      <path id="path646" d="M252.66-457.669s-6.732,53.909-17.8,66.045c-13.3,14.572-22.943,12.432-28.309,19.939-5.365-7.507-15.012-5.366-28.309-19.939-11.064-12.136-17.783-66.045-17.783-66.045,29.16-14.161,46.092-30.023,46.092-30.023S223.5-471.83,252.66-457.669" transform="translate(15.741 563.629)" fill="#fabb1e"/>
      <path id="path648" d="M217.508-416.745H189.846v-25.1h27.662v25.1" transform="translate(18.624 568.127)" fill="#fff"/>
      <path id="path650" d="M214.495-432.8h-2.813v-11.206a8.259,8.259,0,0,0-8.25-8.249,8.257,8.257,0,0,0-8.249,8.249V-432.8H192.37v-11.206a11.074,11.074,0,0,1,11.061-11.061,11.074,11.074,0,0,1,11.063,11.061V-432.8" transform="translate(18.871 566.83)" fill="#fff"/>
      <path id="path652" d="M203.843-429.725,205-424.231h-4.915l1.158-5.493a2.459,2.459,0,0,1-1.158-2.076,2.45,2.45,0,0,1,2.457-2.457A2.45,2.45,0,0,1,205-431.8a2.459,2.459,0,0,1-1.158,2.076" transform="translate(19.628 568.871)" fill="#273e47"/>
      <path id="path654" d="M127.327-296.4H47.247v-67.742l40.034-25.423,40.046,25.423V-296.4" transform="translate(4.635 573.255)" fill="#fabb1e"/>
      <path id="path656" d="M127.327-296.4H47.247v-67.742l40.034-25.423,40.046,25.423V-296.4" transform="translate(4.635 573.255)" fill="#d59814"/>
      <path id="path658" d="M122.408-306.392H51.36v-91.2h52.753l18.3,17.378v73.826" transform="translate(5.038 572.468)" fill="#e7e8e5"/>
      <path id="path660" d="M99.4-397.595l18.3,17.378H99.4Z" transform="translate(9.751 572.468)" fill="#d4d6d3"/>
      <path id="path662" d="M57.672-383.659h39.5v2.343h-39.5v-2.343" transform="translate(5.658 573.835)" fill="#d4d6d3"/>
      <path id="path664" d="M57.672-378.276h39.5v2.343h-39.5v-2.343" transform="translate(5.658 574.363)" fill="#d4d6d3"/>
      <path id="path666" d="M57.672-372.894h39.5v2.343h-39.5v-2.343" transform="translate(5.658 574.891)" fill="#d4d6d3"/>
      <path id="path668" d="M57.672-367.51h57.877v2.341H57.672v-2.341" transform="translate(5.658 575.419)" fill="#d4d6d3"/>
      <path id="path670" d="M57.672-362.127h57.877v2.343H57.672v-2.343" transform="translate(5.658 575.947)" fill="#d4d6d3"/>
      <path id="path672" d="M57.672-356.743h57.877v2.341H57.672v-2.341" transform="translate(5.658 576.475)" fill="#d4d6d3"/>
      <path id="path674" d="M57.672-351.36h57.877v2.343H57.672v-2.343" transform="translate(5.658 577.003)" fill="#d4d6d3"/>
      <path id="path676" d="M57.672-345.978h57.877v2.343H57.672v-2.343" transform="translate(5.658 577.531)" fill="#d4d6d3"/>
      <path id="path678" d="M57.672-340.6h57.877v2.343H57.672V-340.6" transform="translate(5.658 578.059)" fill="#d4d6d3"/>
      <path id="path680" d="M57.672-335.211h57.877v2.343H57.672v-2.343" transform="translate(5.658 578.587)" fill="#d4d6d3"/>
      <path id="path682" d="M57.672-329.829h57.877v2.343H57.672v-2.343" transform="translate(5.658 579.115)" fill="#d4d6d3"/>
      <path id="path684" d="M57.672-324.445h57.877v2.341H57.672v-2.341" transform="translate(5.658 579.643)" fill="#d4d6d3"/>
      <path id="path686" d="M127.327-350.974v50.786H47.247v-50.786c3.439,1.949,6.819,3.993,10.222,5.988,3.392,2.034,6.783,4.066,10.15,6.135q5.628,3.426,11.245,6.95l.119-.072-.1.083q4.2,2.616,8.406,5.256c2.79-1.757,5.592-3.524,8.394-5.256l-.1-.083.12.06q5.611-3.5,11.244-6.95,5.051-3.086,10.138-6.123c3.416-2,6.8-4.04,10.234-5.988" transform="translate(4.635 577.041)" fill="#fabb1e"/>
      <path id="path688" d="M127.327-350.974c-3.235,2.274-6.53,4.449-9.789,6.687q-4.924,3.283-9.885,6.542-5.177,3.391-10.378,6.723l-.312.217q-4.6,2.939-9.225,5.88l-.457.277-.444-.277q-4.619-2.941-9.213-5.893l-.324-.2q-5.212-3.338-10.391-6.735c-3.295-2.152-6.59-4.341-9.873-6.53-3.259-2.237-6.554-4.413-9.789-6.687,3.439,1.949,6.819,3.993,10.222,5.988,3.392,2.034,6.783,4.066,10.15,6.135q5.628,3.426,11.245,6.95l.024.012q4.2,2.616,8.406,5.256c2.79-1.757,5.592-3.524,8.394-5.256l.024-.023q5.611-3.5,11.244-6.95,5.051-3.086,10.138-6.123c3.416-2,6.8-4.04,10.234-5.988" transform="translate(4.635 577.041)" fill="#fff"/>
      <path id="path690" d="M78.966-333.67l-.1.083c-.421.362-.842.722-1.263,1.07-2.008,1.7-4.064,3.319-6.157,4.9-2.549,1.947-5.159,3.811-7.781,5.663-2.634,1.816-5.279,3.619-7.985,5.351s-5.436,3.428-8.262,4.978c2.429-2.127,4.955-4.113,7.5-6.048s5.171-3.813,7.781-5.665c2.646-1.827,5.291-3.631,8-5.363,2.152-1.384,4.341-2.742,6.578-4.016.517-.3,1.035-.59,1.564-.878l.119-.072" transform="translate(4.652 578.739)" fill="#fff"/>
      <path id="path692" d="M122.816-311.627c-2.826-1.551-5.568-3.246-8.262-4.978s-5.351-3.536-8-5.351c-2.622-1.852-5.231-3.716-7.78-5.663-2.081-1.577-4.137-3.187-6.133-4.883-.434-.362-.854-.722-1.275-1.083l-.1-.083.12.06c.529.3,1.047.59,1.564.89,2.237,1.274,4.413,2.632,6.578,4.016,2.706,1.732,5.352,3.536,7.986,5.363,2.622,1.852,5.231,3.716,7.78,5.665s5.087,3.921,7.516,6.048" transform="translate(8.954 578.739)" fill="#fff"/>
      <path id="path694" d="M134.352-303.726a13.175,13.175,0,0,1-13.175,13.176A13.175,13.175,0,0,1,108-303.726,13.175,13.175,0,0,1,121.177-316.9a13.175,13.175,0,0,1,13.175,13.174" transform="translate(10.595 580.384)" fill="#273e47"/>
      <path id="path696" d="M127.116-296.078H114.05v-11.855h13.066v11.855" transform="translate(11.188 581.263)" fill="#fff"/>
      <path id="path698" d="M125.692-303.662h-1.329v-5.293a3.9,3.9,0,0,0-3.9-3.9,3.9,3.9,0,0,0-3.9,3.9v5.293h-1.328v-5.293a5.231,5.231,0,0,1,5.225-5.225,5.231,5.231,0,0,1,5.225,5.225v5.293" transform="translate(11.305 580.65)" fill="#fff"/>
      <path id="path700" d="M120.661-302.209l.547,2.594h-2.322l.547-2.594a1.159,1.159,0,0,1-.547-.981,1.158,1.158,0,0,1,1.16-1.161,1.158,1.158,0,0,1,1.161,1.161,1.16,1.16,0,0,1-.547.981" transform="translate(11.663 581.615)" fill="#273e47"/>
      <path id="path702" d="M186.488-405.9H52.058v-20.376h134.43V-405.9" transform="translate(5.107 569.654)" fill="#fff"/>
      <path id="path704" d="M52.855-406.567H185.821v-18.912H52.855Zm134.43,1.464H51.391v-21.84H187.285v21.84" transform="translate(5.041 569.589)" fill="#e7e8e5"/>
      <path id="path706" d="M63.144-415.821a13.175,13.175,0,0,1-13.176,13.174,13.176,13.176,0,0,1-13.176-13.174A13.175,13.175,0,0,1,49.968-429a13.175,13.175,0,0,1,13.176,13.176" transform="translate(3.609 569.387)" fill="#273e47"/>
      <path id="path708" d="M55.908-408.175H42.842v-11.854H55.908v11.854" transform="translate(4.203 570.267)" fill="#fff"/>
      <path id="path710" d="M54.484-415.758H53.156v-5.293a3.9,3.9,0,0,0-3.9-3.9,3.9,3.9,0,0,0-3.9,3.9v5.293H44.034v-5.293a5.231,5.231,0,0,1,5.225-5.225,5.231,5.231,0,0,1,5.225,5.225v5.293" transform="translate(4.32 569.654)" fill="#fff"/>
      <path id="path712" d="M49.452-414.3,50-411.711H47.678l.547-2.594a1.163,1.163,0,0,1-.547-.981,1.158,1.158,0,0,1,1.161-1.161A1.157,1.157,0,0,1,50-415.286a1.163,1.163,0,0,1-.547.981" transform="translate(4.677 570.618)" fill="#273e47"/>
      <path id="path714" d="M73.414-411.615H71.95v-9.332h1.464v9.332" transform="translate(7.058 570.177)" fill="#273e47"/>
      <path id="path716" d="M77.7-415.9H68.368v-1.464H77.7v1.464" transform="translate(6.707 570.528)" fill="#273e47"/>
      <path id="path718" d="M70.176-412.54l-1.035-1.035,6.6-6.6,1.035,1.035-6.6,6.6" transform="translate(6.783 570.253)" fill="#273e47"/>
      <path id="path720" d="M75.739-412.54l-6.6-6.6,1.035-1.035,6.6,6.6-1.035,1.035" transform="translate(6.783 570.253)" fill="#273e47"/>
      <path id="path722" d="M87.836-411.615H86.372v-9.332h1.464v9.332" transform="translate(8.473 570.177)" fill="#273e47"/>
      <path id="path724" d="M92.121-415.9H82.79v-1.464h9.331v1.464" transform="translate(8.122 570.528)" fill="#273e47"/>
      <path id="path726" d="M84.6-412.54l-1.035-1.035,6.6-6.6,1.035,1.035-6.6,6.6" transform="translate(8.197 570.253)" fill="#273e47"/>
      <path id="path728" d="M90.161-412.54l-6.6-6.6,1.035-1.035,6.6,6.6-1.035,1.035" transform="translate(8.197 570.253)" fill="#273e47"/>
      <path id="path730" d="M102.258-411.615h-1.464v-9.332h1.464v9.332" transform="translate(9.888 570.177)" fill="#273e47"/>
      <path id="path732" d="M106.543-415.9H97.211v-1.464h9.332v1.464" transform="translate(9.536 570.528)" fill="#273e47"/>
      <path id="path734" d="M99.02-412.54l-1.035-1.035,6.6-6.6,1.035,1.035-6.6,6.6" transform="translate(9.612 570.253)" fill="#273e47"/>
      <path id="path736" d="M104.583-412.54l-6.6-6.6,1.035-1.035,6.6,6.6-1.035,1.035" transform="translate(9.612 570.253)" fill="#273e47"/>
      <path id="path738" d="M116.679-411.615h-1.464v-9.332h1.464v9.332" transform="translate(11.302 570.177)" fill="#273e47"/>
      <path id="path740" d="M120.965-415.9h-9.332v-1.464h9.332v1.464" transform="translate(10.951 570.528)" fill="#273e47"/>
      <path id="path742" d="M113.442-412.54l-1.035-1.035,6.6-6.6,1.035,1.035-6.6,6.6" transform="translate(11.027 570.253)" fill="#273e47"/>
      <path id="path744" d="M119-412.54l-6.6-6.6,1.035-1.035,6.6,6.6L119-412.54" transform="translate(11.027 570.253)" fill="#273e47"/>
      <path id="path746" d="M131.1-411.615h-1.464v-9.332H131.1v9.332" transform="translate(12.717 570.177)" fill="#273e47"/>
      <path id="path748" d="M135.387-415.9h-9.332v-1.464h9.332v1.464" transform="translate(12.366 570.528)" fill="#273e47"/>
      <path id="path750" d="M127.863-412.54l-1.035-1.035,6.6-6.6,1.035,1.035-6.6,6.6" transform="translate(12.442 570.253)" fill="#273e47"/>
      <path id="path752" d="M133.427-412.54l-6.6-6.6,1.035-1.035,6.6,6.6-1.035,1.035" transform="translate(12.442 570.253)" fill="#273e47"/>
      <path id="path754" d="M145.524-411.615H144.06v-9.332h1.464v9.332" transform="translate(14.132 570.177)" fill="#273e47"/>
      <path id="path756" d="M149.809-415.9h-9.332v-1.464h9.332v1.464" transform="translate(13.781 570.528)" fill="#273e47"/>
      <path id="path758" d="M142.285-412.54l-1.035-1.035,6.6-6.6,1.035,1.035-6.6,6.6" transform="translate(13.857 570.253)" fill="#273e47"/>
      <path id="path760" d="M147.849-412.54l-6.6-6.6,1.035-1.035,6.6,6.6-1.035,1.035" transform="translate(13.857 570.253)" fill="#273e47"/>
      <path id="path762" d="M77.972-125.163s-32.455-7.357-50.245-23.747S0-194.665,0-194.665A279.187,279.187,0,0,1,36.4-185.1c2.9,3.107,8.434,9.508,11.011,15.57a74.812,74.812,0,0,0,.086-11.132,49.537,49.537,0,0,1,11.558,7.018c14.751,12.908,18.916,48.486,18.916,48.486" transform="translate(0 592.375)" fill="#fabb1e"/>
      <path id="path764" d="M19.656-180.812c-4.425-3.063-8.929-6.016-13.333-9.105a.254.254,0,0,1,.267-.432c8.364,5,16.608,10.335,24.586,15.925,2.781,1.95,5.512,3.98,8.212,6.047-.189-.321-.375-.643-.566-.96-.973-1.631-2-3.231-3.027-4.827a69.012,69.012,0,0,0-6.891-9.2l.16-.151c2.524,2.914,5.048,5.8,7.357,8.889,1.1,1.47,2.112,2.993,3.084,4.549q.757,1.21,1.458,2.451c.156.277.328.555.487.839,4.2,3.294,8.283,6.729,12.184,10.365q3.608,3.362,6.971,6.966c-1.254-3.928-2.351-7.9-3.806-11.767-.05-.133.167-.189.215-.056,1.413,4.057,2.959,8.133,4.051,12.3,2.488,2.685,4.865,5.469,7.1,8.366-.039-.177-.076-.356-.117-.529-.368-1.531-.752-3.057-1.161-4.575-.79-2.939-1.652-5.854-2.642-8.731-2.031-5.9-4.666-11.668-8.719-16.467l.16-.152c6.34,7.507,10.058,16.505,12.43,25.955q.521,2.078.99,4.161c.166.736.361,1.488.486,2.244.981,1.325,1.944,2.665,2.865,4.037a140.637,140.637,0,0,1,13.733,26.931A310.889,310.889,0,0,1,96.6-75.311c.059.216-.264.29-.332.083-6.347-18.993-12.831-38.254-23.7-55.231-2.294-3.584-4.776-7.037-7.41-10.37a61.342,61.342,0,0,1-15.784-3.142,70.015,70.015,0,0,1-15.818-7.64,96.6,96.6,0,0,1-8.107-6.124l.138-.17a64.751,64.751,0,0,0,14.876,9,81.2,81.2,0,0,0,16.373,5.493c2.4.521,4.825.908,7.258,1.236a137.7,137.7,0,0,0-9.571-10.6c-1.095-1.094-2.23-2.141-3.356-3.2a76.786,76.786,0,0,0-12-6.873c-5.318-2.57-10.552-5.293-15.816-7.969-2.969-1.51-5.919-3.057-8.913-4.518l.117-.189c5.333,2.577,10.752,4.984,16.136,7.452,5.068,2.321,10.2,4.652,15.058,7.384.21.117.407.246.613.366-4.4-3.829-8.945-7.477-13.6-10.993-4.3-3.25-8.668-6.43-13.1-9.5" transform="translate(0.609 592.794)" fill="#17282f"/>
      <path id="path766" d="M20.142-166.43c2.639,1.157,5.327,2.183,7.939,3.4,2.687,1.255,5.233,2.726,7.783,4.236l-.1.17c-2.588-1.237-5.209-2.4-7.772-3.687-2.625-1.322-5.219-2.731-7.911-3.911l.065-.212" transform="translate(1.97 595.145)" fill="#17282f"/>
      <path id="path768" d="M174.546-280.322a46.382,46.382,0,0,0-9.7,26.958c-.105,2.909.353,6.963.691,11.735-12.1,6.461-21.18,18.1-21.18,18.1,6.874-4.129,16.31-5.8,21.4-5.123a64.1,64.1,0,0,1-1.24,9.7c-2.247-.127-6.587.173-13.766,2.723,0,0,7.044-.179,12.413,2.467-5.785,18.406-22.982,37.315-70.47,45.344,0,0-9.162-32.239,8.411-66.826,14.229-27.988,73.438-45.078,73.438-45.078" transform="translate(8.859 583.972)" fill="#fabb1e"/>
      <path id="path770" d="M77.67-90.793q1.238-11.8,3.076-23.517A469.517,469.517,0,0,1,90.322-160.8a186.763,186.763,0,0,1,6.855-21.182,32.3,32.3,0,0,1-.176-3.8q-.049-2.28-.023-4.562.052-4.564.436-9.11a109.125,109.125,0,0,1,2.917-17.805c.869-3.382,1.878-6.713,2.87-10.061a.111.111,0,0,1,.212.064,130.919,130.919,0,0,0-3.506,17.773,166.9,166.9,0,0,0-1.6,17.82q-.089,2.449-.092,4.9c0,.693.03,1.394.055,2.1a152.955,152.955,0,0,1,8-16.564,201.366,201.366,0,0,1,16.255-24.315,10.207,10.207,0,0,1,.39-2.657q.333-1.59.69-3.177.731-3.255,1.62-6.471c1.18-4.3,2.738-8.463,4.084-12.71a.111.111,0,0,1,.212.064c-1.254,4.206-2.087,8.562-3.05,12.843-.476,2.119-.94,4.239-1.406,6.359q-.349,1.588-.677,3.182l-.043.237q2.878-3.63,5.88-7.161c9.069-10.633,19.01-20.442,29.017-30.183,1.231-1.2,2.492-2.363,3.739-3.545l.152.161c-9.564,9.977-18.981,20.067-27.9,30.631q-3.179,3.764-6.255,7.622c1.079-.731,2.168-1.444,3.241-2.145,2.762-1.81,5.56-3.568,8.441-5.182s5.788-3.193,8.747-4.66c3.045-1.51,6.3-2.738,9.239-4.447l.107.193a68.714,68.714,0,0,0-8.666,4.8c-2.89,1.714-5.775,3.442-8.613,5.242-2.791,1.77-5.6,3.517-8.369,5.316-2.311,1.5-4.585,3.141-6.979,4.527a224.241,224.241,0,0,0-15.214,22.143,163.086,163.086,0,0,0-7.863,14.914c.57-.247,1.141-.489,1.7-.738q2.174-.966,4.348-1.933c2.793-1.239,5.6-2.448,8.4-3.668,5.325-2.316,10.735-4.444,15.959-6.984a72.023,72.023,0,0,0,8.525-4.736l.107.195c-9.736,6.712-20.653,11.441-31.429,16.209l-4.674,2.069c-1.283.567-2.569,1.2-3.892,1.7a166.407,166.407,0,0,0-8.03,22.007,447.478,447.478,0,0,0-10.332,45.94c-2.724,15.511-4.563,31.126-5.99,46.8-.178,1.959-.353,3.914-.576,5.867a.619.619,0,0,1-1.237-.031c.088-7.959.9-15.934,1.733-23.845" transform="translate(7.449 585.106)" fill="#17282f"/>
      <path id="path772" d="M103.981-224.837c.871-4.829,2.157-9.549,3.457-14.274.038-.138.247-.075.212.064-1.2,4.638-2.061,9.367-2.933,14.076q-1.333,7.2-2.351,14.454l-.132,0a127.276,127.276,0,0,1,1.747-14.318" transform="translate(10.029 588.007)" fill="#17282f"/>
      <path id="path774" d="M122.474-213.222a85.894,85.894,0,0,1,10.328-5.813c1.731-.893,3.483-1.744,5.237-2.591,1.807-.876,3.685-1.609,5.477-2.508l.107.193c-1.736.873-3.384,1.925-5.089,2.857-1.758.958-3.508,1.934-5.273,2.883-3.473,1.864-6.887,3.933-10.531,5.445a.266.266,0,0,1-.256-.466" transform="translate(12.002 589.484)" fill="#17282f"/>
      <path id="path776" d="M75.971-175.223S45.939-182.4,32.148-202.544c-13.169-19.24-17.425-52.038-17.763-54.924.541,2.646,6.738,31.312,27.185,44.663,15.654,10.233,30.781,18.64,34.4,37.581" transform="translate(1.411 586.214)" fill="#e4e7e5"/>
      <path id="path778" d="M45.239-229.826a38.382,38.382,0,0,1,11.072,18.24l-.094.031a44.813,44.813,0,0,0-11.126-18.1l.147-.167" transform="translate(4.423 588.925)" fill="#17282f"/>
      <path id="path780" d="M75.974-175.2s-30.032-7.173-43.823-27.321c-13.169-19.24-17.425-52.038-17.763-54.924a1.751,1.751,0,0,1-.034-.2s14.4,20.477,29.542,25.7S80.314-208.672,75.974-175.2" transform="translate(1.408 586.196)" fill="#fabb1e"/>
      <path id="path782" d="M19.217-247.367A122.366,122.366,0,0,0,28.5-231.49a63.689,63.689,0,0,0,12.355,12.712c4.079,3.24,8.392,6.176,12.522,9.353l-.093-.149c-.776-1.151-1.6-2.268-2.459-3.36-1.72-2.2-3.6-4.272-5.49-6.324-3.733-4.048-7.542-8.021-10.887-12.4a45.791,45.791,0,0,1-4.816-7.757l.209-.072c4.871,10.151,14.6,16.644,21.542,25.218a44.471,44.471,0,0,1,2.776,3.8,15.563,15.563,0,0,1,1.728,3.051,63.1,63.1,0,0,1,10.246,10.357,41.612,41.612,0,0,0-1.2-5.832,29.407,29.407,0,0,0-3.183-7.6l.184-.122a35.847,35.847,0,0,1,3.5,7.556,26.431,26.431,0,0,1,1.093,6.486l.016.019a59.185,59.185,0,0,1,4.058,6.31c-.125-.641-.246-1.284-.374-1.924-.6-2.993-1.255-5.977-2.031-8.928a53.524,53.524,0,0,0-7.225-16.921l.184-.122a64.422,64.422,0,0,1,8,16.553c.956,2.947,1.724,5.944,2.4,8.968.329,1.477.626,2.959.91,4.447.147.769.314,1.556.437,2.347a107.973,107.973,0,0,1,6.928,20.359,299.111,299.111,0,0,1,6.4,37.974,316.1,316.1,0,0,1,2.072,40.32c-.028,1.691-.128,3.377-.221,5.063-.024.435-.675.5-.695.039-.295-6.664-.467-13.332-.862-19.99s-.974-13.314-1.688-19.953a354.488,354.488,0,0,0-6.258-38.83c-2.435-10.98-5.593-22.032-11.593-31.652a59.551,59.551,0,0,0-10.836-12.886c-4.211-3.779-8.815-7.092-13.254-10.592a72.749,72.749,0,0,1-12.163-11.693,95.612,95.612,0,0,1-9.552-15.5c-.708-1.362-1.435-2.713-2.152-4.07l.185-.123" transform="translate(1.867 587.205)" fill="#17282f"/>
      <path id="path784" d="M23.94-243.357a101.172,101.172,0,0,0,6.69,11.7l-.138.092a81.528,81.528,0,0,1-6.762-11.719l.209-.072" transform="translate(2.328 587.598)" fill="#17282f"/>
      <path id="path786" d="M178.123-194.665s.476,42.679-25.044,55c-15.589,7.536-26.76,6.633-37.046,5.729-6.553-.575-12.747-1.149-19.495.457l.03-.023c.673-1.016,13.048-18.807,32.732-23.7,20.248-5.048,42.683-19.675,48.822-37.458" transform="translate(9.47 592.375)" fill="#fabb1e"/>
      <path id="path788" d="M126.535-133.344c-3.679,0-7.138-.3-10.5-.592s-6.636-.59-9.935-.59a41.37,41.37,0,0,0-8.759.865l-.366.081c-.144.032-.289.066-.435.1l.03-.023a96.613,96.613,0,0,1,29.014-8.558c16.09-1.937,46.832-12.423,52.541-52.6h0v.163c0,2.154-.249,25.088-10.646,41.495-.078.122-.155.245-.234.366a35.215,35.215,0,0,1-14.164,12.977q-1.887.911-3.687,1.663-.45.187-.893.366a56.868,56.868,0,0,1-21.964,4.291" transform="translate(9.47 592.375)" fill="#f4ac12"/>
      <path id="path790" d="M96.779-135.056a43.006,43.006,0,0,1,10.151-6.873c.546-.262,1.111-.474,1.667-.712.269-.34.555-.665.856-.98.765-.8,1.563-1.562,2.4-2.281a35.574,35.574,0,0,1,5.133-3.7c4.228-2.486,8.86-4.224,13.183-6.533l.107.193c-2.137,1.108-4.205,2.332-6.284,3.546-2.023,1.182-4.09,2.307-6.058,3.577a43.325,43.325,0,0,0-5.05,3.786c-.448.391-.881.818-1.31,1.252a68.36,68.36,0,0,1,8.624-2.29c4.671-.944,9.4-1.613,14.058-2.606a65.461,65.461,0,0,0,6.77-1.829c2.119-1.7,4.231-3.4,6.237-5.247a51.166,51.166,0,0,0,6.6-7.315l.189.116a77.861,77.861,0,0,1-10.463,11.545c1.1-.417,2.19-.865,3.264-1.353A52.651,52.651,0,0,0,168.6-170.854l.189.116a59.675,59.675,0,0,1-17.593,16.887,52.833,52.833,0,0,1-11.116,5.262,103.216,103.216,0,0,1-13.812,3.265,97.472,97.472,0,0,0-13.525,3.218A40.775,40.775,0,0,0,101.4-136.14a53.062,53.062,0,0,0-15.292,18.962c-4.829,9.688-7.139,20.52-8.422,31.207-.055.457-.761.457-.728-.019,1.2-17.939,5.994-36.608,19.823-49.066" transform="translate(7.549 594.711)" fill="#17282f"/>
      <path id="path792" d="M121.977-150.043a14.707,14.707,0,0,1,5.246-4.754,19.248,19.248,0,0,0,6.24-5.163l.188.116a21.071,21.071,0,0,1-5.51,4.934c-2.228,1.4-4.474,2.766-6,4.968l-.16-.1" transform="translate(11.966 595.779)" fill="#17282f"/>
      <path id="path794" d="M115.273-109.568,114.112-86.1l-3.56,71.7H57.018l-3.56-71.7L52.3-109.568h62.976" transform="translate(5.13 600.723)" fill="#273e47"/>
      <path id="path796" d="M115.273-109.568,114.112-86.1H53.458L52.3-109.568h62.976" transform="translate(5.13 600.723)" fill="#17282f"/>
      <path id="path798" d="M119.36-96.1H48.88v-22.388h70.48V-96.1" transform="translate(4.795 599.847)" fill="#273e47"/>
    </g>
  </g>
</svg>
