<svg xmlns="http://www.w3.org/2000/svg" xmlns:xlink="http://www.w3.org/1999/xlink" width="34.756" height="34.756" viewBox="0 0 34.756 34.756"><defs><style>.a{fill:#3b5999;}.b{clip-path:url(#a);}.c{fill:url(#b);}.d{fill:url(#c);}.e{fill:url(#d);}.f{fill:url(#e);}.g{fill:url(#f);}.h{fill:url(#g);}.i{fill:url(#h);}.j{fill:url(#i);}</style><clipPath id="a"><path class="a" d="M30.411,0H4.344A4.348,4.348,0,0,0,0,4.344V30.411a4.349,4.349,0,0,0,4.344,4.344H30.411a4.35,4.35,0,0,0,4.344-4.344V4.344A4.349,4.349,0,0,0,30.411,0Z"/></clipPath><linearGradient id="b" y1="0.5" x2="1" y2="0.5" gradientUnits="objectBoundingBox"><stop offset="0" stop-color="#ff637b"/><stop offset="1" stop-color="#f90217"/></linearGradient><linearGradient id="c" x1="0.799" y1="1.737" x2="0.065" y2="-0.534" xlink:href="#b"/><linearGradient id="d" x1="0.043" y1="0.309" x2="1.019" y2="0.694" gradientUnits="objectBoundingBox"><stop offset="0" stop-color="#ffd833"/><stop offset="1" stop-color="#f2b631"/></linearGradient><linearGradient id="e" x1="1.345" y1="0.738" x2="-0.149" y2="0.244" xlink:href="#d"/><linearGradient id="f" x1="0.44" y1="0.241" x2="0.655" y2="0.79" gradientUnits="objectBoundingBox"><stop offset="0" stop-color="#28a265"/><stop offset="1" stop-color="#28895e"/></linearGradient><linearGradient id="g" x1="0.831" y1="1.379" x2="0.082" y2="-0.9" xlink:href="#f"/><linearGradient id="h" x1="0.427" y1="0.134" x2="0.893" y2="0.685" gradientUnits="objectBoundingBox"><stop offset="0" stop-color="#7faef4"/><stop offset="1" stop-color="#4c8df1"/></linearGradient><linearGradient id="i" x1="1.023" y1="1.005" x2="0.265" y2="-0.088" xlink:href="#h"/></defs><g class="b"><path class="c" d="M9.621,9.689a10.913,10.913,0,0,1,15.035-.473.729.729,0,0,0,.983-.032l3.543-3.543a.719.719,0,0,0-.019-1.037,17.352,17.352,0,0,0-24.1.528c-.345.347.058,4.543.058,4.543s2.557,1.968,4.5.012Z"/><path class="d" d="M9.621,9.689a10.913,10.913,0,0,1,15.035-.473.729.729,0,0,0,.983-.032l2.033-2.033c-.177-.137-.352-.28-.522-.431a14.7,14.7,0,0,0-9.927-3.8A14.405,14.405,0,0,0,7.109,7.177a9.091,9.091,0,0,0-.393,2.5s.331-.03,2.9.008Z"/><path class="e" d="M6.444,17.279A10.9,10.9,0,0,0,9.68,25.144L8.129,28.49,5.124,29.7A17.353,17.353,0,0,1,5.066,5.134L9.621,9.689A10.894,10.894,0,0,0,6.444,17.279Z"/><path class="f" d="M6.444,17.279A10.9,10.9,0,0,0,9.68,25.144L7.189,27.636A14.483,14.483,0,0,1,7.11,7.178L9.621,9.689A10.894,10.894,0,0,0,6.444,17.279Z"/><path class="g" d="M25.085,25.153a10.956,10.956,0,0,1-15.4-.01L5.125,29.7a17.266,17.266,0,0,0,24.462-.045l-1.3-2.784Z"/><path class="h" d="M25.085,25.153a10.955,10.955,0,0,1-15.4-.009L7.189,27.635a14.456,14.456,0,0,0,20.378,0Z"/><path class="i" d="M34.756,15.593a.62.62,0,0,0-.62-.62H17.96a.556.556,0,0,0-.556.556v5.348a.556.556,0,0,0,.556.556h7.9a1.048,1.048,0,0,1,.9,1.586,10.892,10.892,0,0,1-1.669,2.127l-.006.007,4.5,4.5q.319-.319.646-.638a17.542,17.542,0,0,0,4.523-11.773Z"/><path class="j" d="M31.106,21.929a2.967,2.967,0,0,0-2.812-3.9H17.4v2.852a.556.556,0,0,0,.556.556h7.9a1.048,1.048,0,0,1,.9,1.586A10.894,10.894,0,0,1,25.1,25.139l-.013.014,2.482,2.482a14.468,14.468,0,0,0,3.125-4.608q.228-.539.414-1.1Z"/></g></svg>