<svg xmlns="http://www.w3.org/2000/svg" width="56.938" height="56.938" viewBox="0 0 56.938 56.938"><defs><style>.a{fill:#b1f1fe;}.b{fill:#2e53bf;}</style></defs><rect class="a" width="22.508" height="54.77" transform="translate(17.24 1.152)"/><path class="b" d="M57.04,16.234a.949.949,0,0,0-.949-.949H41.856V2.949A.949.949,0,0,0,40.907,2H20.03a.949.949,0,0,0-.949.949V22.877H4.847a.949.949,0,0,0-.949.949V57.04H2v1.9H58.938v-1.9h-1.9Zm-1.9.949V57.04H41.856V17.183ZM39.958,3.9V57.04H20.979V3.9ZM5.8,24.775H19.081V57.04H5.8Z" transform="translate(-2 -2)"/><path class="b" d="M30.8,16.49h1.9v-3.8h3.8V10.8h-3.8V7H30.8v3.8H27v1.9h3.8Z" transform="translate(-3.276 -2.255)"/><rect class="b" width="6.002" height="1.501" transform="translate(29.995 18.408)"/><rect class="b" width="8.253" height="2.251" transform="translate(6.736 30.413)"/><rect class="b" width="6.002" height="1.501" transform="translate(20.991 18.408)"/><rect class="b" width="8.253" height="2.251" transform="translate(6.736 40.166)"/><rect class="b" width="8.253" height="1.501" transform="translate(6.736 49.92)"/><rect class="b" width="6.002" height="1.501" transform="translate(29.995 28.162)"/><rect class="b" width="6.002" height="1.501" transform="translate(20.991 28.162)"/><rect class="b" width="6.002" height="1.501" transform="translate(29.995 37.165)"/><rect class="b" width="6.002" height="1.501" transform="translate(20.991 37.165)"/><rect class="b" width="9.753" height="1.501" transform="translate(41.999 22.91)"/><rect class="b" width="9.753" height="1.501" transform="translate(41.999 32.664)"/><rect class="b" width="9.753" height="1.501" transform="translate(41.999 42.417)"/><rect class="b" width="6.002" height="1.501" transform="translate(29.995 46.919)"/><rect class="b" width="6.002" height="1.501" transform="translate(20.991 46.919)"/></svg>