<svg xmlns="http://www.w3.org/2000/svg" width="32" height="32" viewBox="0 0 32 32"><defs><style>.a{fill:#ef5ab3;}.b{fill:#fff;}.c,.e{fill:none;}.c{stroke:#fff;stroke-width:0.7px;}.d{stroke:none;}</style></defs><g transform="translate(-916 -377)"><rect class="a" width="32" height="32" rx="16" transform="translate(916 377)"/><g transform="translate(1.707 0.605)"><path class="b" d="M16.706,11.244V2.292a.328.328,0,0,0-.328-.328H5.273V.328A.328.328,0,0,0,4.946,0H.328A.328.328,0,0,0,0,.328V11.244a.328.328,0,0,0,.328.328h8.7a3.513,3.513,0,0,0-.649,2.034V15.76a.328.328,0,0,0,.328.328h7.655a.328.328,0,0,0,.328-.328V13.606a3.514,3.514,0,0,0-.649-2.034h.341A.328.328,0,0,0,16.706,11.244ZM.655.655H4.618v1.31H.655ZM16.032,15.432H14.49v-.679a.328.328,0,1,0-.655,0v.679h-2.6V13.41a.328.328,0,0,0-.655,0v2.023H9.032V13.606a2.865,2.865,0,0,1,1.919-2.7l.368-.129.313.792.006.014a.943.943,0,0,0,1.7.043l.007-.014.383-.841.386.135a2.865,2.865,0,0,1,1.919,2.7Zm-3.4-5.274h-.265a1.432,1.432,0,0,1-1.43-1.43V7.678a2.246,2.246,0,0,0,.69.124,1.437,1.437,0,0,0,.586-.122,2.281,2.281,0,0,1,1.641-.168.6.6,0,0,0,.183.011l.025,0V8.728A1.432,1.432,0,0,1,12.632,10.158Zm1.19-3.671a1.428,1.428,0,0,1,.18.381l-.016,0a2.922,2.922,0,0,0-2.035.209,1.066,1.066,0,0,1-.824-.028.682.682,0,0,0-.166-.033A1.42,1.42,0,0,1,11.17,6.5a1.508,1.508,0,0,1,1.253-.65h.154A1.514,1.514,0,0,1,13.821,6.487Zm-1.454,4.327h.265A2.089,2.089,0,0,0,13,10.78l-.251.551a.288.288,0,0,1-.514-.013l-.21-.532A2.1,2.1,0,0,0,12.367,10.814Zm3.684.1h-.616a3.508,3.508,0,0,0-1.106-.631l-.227-.079a2.079,2.079,0,0,0,.616-1.478V7.28a2.093,2.093,0,0,0-.031-.354.715.715,0,0,0-.014-.092,1.989,1.989,0,0,0-.3-.695,2.085,2.085,0,0,0-1.744-.944h-.265a2.085,2.085,0,0,0-1.759.967,1.986,1.986,0,0,0-.327,1.09s0,0,0,.006,0,.015,0,.023V8.728a2.079,2.079,0,0,0,.633,1.494l-.179.063a3.5,3.5,0,0,0-1.106.631H.655V2.62h15.4Zm0,0" transform="translate(922 383.863)"/><path class="b" d="M40.214,181.436h3.33a.328.328,0,0,0,0-.655h-3.33a.328.328,0,0,0,0,.655Zm0,0" transform="translate(883.624 210.24)"/><path class="b" d="M190.574,181.188a.328.328,0,0,0,.3-.451l-.012-.029a.328.328,0,0,0-.607.246l.012.029A.328.328,0,0,0,190.574,181.188Zm0,0" transform="translate(737.973 210.51)"/><path class="b" d="M422.795,400.227a.328.328,0,1,0-.607.246l.012.029a.328.328,0,0,0,.607-.246Zm0,0" transform="translate(513.612 -3.106)"/><g class="c" transform="translate(923.293 387.394)"><rect class="d" width="8" height="3" rx="1"/><rect class="e" x="0.35" y="0.35" width="7.3" height="2.3" rx="0.65"/></g></g></g></svg>