<svg xmlns="http://www.w3.org/2000/svg" width="22.42" height="21.6" viewBox="0 0 22.42 21.6"><defs><style>.a,.b,.c,.d{fill:#707070;}.a,.b,.c{stroke:#707070;}.a{stroke-width:0.3px;}.b{stroke-width:0.1px;}.c{stroke-width:0.4px;}</style></defs><g transform="translate(0.15 0.15)"><path class="a" d="M22.12,14.887V3.035a.434.434,0,0,0-.434-.434H6.982V.434A.434.434,0,0,0,6.548,0H.434A.434.434,0,0,0,0,.434V14.887a.434.434,0,0,0,.434.434H11.95a4.651,4.651,0,0,0-.859,2.693v2.852a.434.434,0,0,0,.434.434H21.66a.434.434,0,0,0,.434-.434V18.014a4.653,4.653,0,0,0-.859-2.693h.451A.434.434,0,0,0,22.12,14.887ZM.868.868H6.115V2.6H.868ZM21.227,20.433H19.185v-.9a.434.434,0,1,0-.867,0v.9H14.869V17.755a.434.434,0,0,0-.868,0v2.678H11.959V18.014A3.793,3.793,0,0,1,14.5,14.437l.488-.17.414,1.049.008.018a1.249,1.249,0,0,0,2.251.057l.009-.018.506-1.114.511.178a3.793,3.793,0,0,1,2.541,3.578Zm-4.5-6.983h-.35a1.9,1.9,0,0,1-1.894-1.894v-1.39a2.974,2.974,0,0,0,.914.164,1.9,1.9,0,0,0,.776-.162,3.02,3.02,0,0,1,2.173-.222.8.8,0,0,0,.242.015l.033,0v1.6A1.9,1.9,0,0,1,16.725,13.45ZM18.3,8.589a1.891,1.891,0,0,1,.238.5l-.021,0a3.869,3.869,0,0,0-2.694.277,1.412,1.412,0,0,1-1.09-.037.9.9,0,0,0-.22-.043,1.88,1.88,0,0,1,.276-.687,2,2,0,0,1,1.659-.86h.2A2,2,0,0,1,18.3,8.589Zm-1.925,5.729h.35a2.766,2.766,0,0,0,.491-.045L16.884,15a.381.381,0,0,1-.68-.017l-.278-.7A2.778,2.778,0,0,0,16.374,14.317Zm4.878.136h-.816a4.645,4.645,0,0,0-1.465-.836l-.3-.1a2.752,2.752,0,0,0,.815-1.957V9.639a2.771,2.771,0,0,0-.041-.469.947.947,0,0,0-.018-.122,2.633,2.633,0,0,0-.393-.92,2.76,2.76,0,0,0-2.309-1.25h-.35a2.761,2.761,0,0,0-2.328,1.28A2.629,2.629,0,0,0,13.614,9.6s0,.005,0,.008,0,.02,0,.031v1.917a2.753,2.753,0,0,0,.838,1.978l-.238.083a4.638,4.638,0,0,0-1.465.836H.868V3.469H21.252Zm0,0"/><path class="b" d="M38.047,100.955v2.855c0,.352.194.638.434.638h8.976c.24,0,.434-.286.434-.638v-2.855c0-.352-.194-.638-.434-.638H38.481C38.241,100.316,38.047,100.6,38.047,100.955Zm.868.638h8.109v1.579H38.914Zm0,0" transform="translate(-36.403 -95.982)"/><path class="c" d="M40.32,181.649h4.409a.434.434,0,0,0,0-.867H40.32a.434.434,0,0,0,0,.867Zm0,0" transform="translate(-38.164 -170.304)"/><path class="c" d="M190.684,181.41a.434.434,0,0,0,.4-.6l-.016-.039a.434.434,0,0,0-.8.325l.016.039A.434.434,0,0,0,190.684,181.41Zm0,0" transform="translate(-182.015 -170.038)"/><path class="d" d="M423,400.294a.434.434,0,1,0-.8.326l.016.039a.434.434,0,0,0,.8-.325Zm0,0" transform="translate(-403.925 -382.74)"/></g></svg>