<svg xmlns="http://www.w3.org/2000/svg" width="32" height="32" viewBox="0 0 32 32"><defs><style>.a{fill:#734cbc;}.b{fill:#fff;}</style></defs><g transform="translate(-921 -468)"><rect class="a" width="32" height="32" rx="16" transform="translate(921 468)"/><g transform="translate(928.754 475.756)"><g transform="translate(0.001 0)"><path class="b" d="M16.05.062a.585.585,0,0,0-.524,0h0l-15.2,7.6a.585.585,0,0,0,.157,1.1l6.034,1.1,1.1,6.034a.585.585,0,0,0,.492.474.571.571,0,0,0,.083.006.585.585,0,0,0,.523-.323l7.6-15.2A.585.585,0,0,0,16.05.062Zm-7.6,13.895L7.592,9.251a.585.585,0,0,0-.468-.468L2.416,7.925,14.48,1.892Z" transform="translate(-0.001 0)"/></g></g></g></svg>