<svg xmlns="http://www.w3.org/2000/svg" width="39.082" height="37.181" viewBox="0 0 39.082 37.181"><defs><style>.a{fill:#0ed678;}.b{fill:#04eb84;}.c{fill:#f7f0eb;}.d{fill:#fffbf5;}</style></defs><g transform="translate(0 0)"><path class="a" d="M265.377,31.027l-4.424-4.912.693-6.576-6.469-1.37-3.3-5.733-6.04,2.7-.815,15.891.815,15.891,6.04,2.7,3.3-5.733,6.469-1.37-.693-6.576Z" transform="translate(-226.295 -12.437)"/><path class="b" d="M13.5,12.437,10.2,18.17l-6.469,1.37.693,6.576L0,31.027l4.424,4.912-.693,6.576,6.469,1.37,3.3,5.733,6.04-2.7V15.136Z" transform="translate(0 -12.437)"/></g><g transform="translate(11.108 12.785)"><path class="c" d="M254.028,181.252l-1.71-1.527-6.482,7.262-.815,1.8.815,1.638Z" transform="translate(-237.404 -179.725)"/><path class="d" d="M146.969,233.1l-1.621,1.621,6.816,6.816,1.617-1.811v-3.443l-1.711,1.917Z" transform="translate(-145.348 -229.016)"/></g></svg>