<svg xmlns="http://www.w3.org/2000/svg" width="426.206" height="342.746" viewBox="0 0 426.206 342.746"><defs><style>.a{fill:#17282f;}.b{fill:#f8a58d;}.c{fill:#f03d5f;}.d{fill:#8c8f8f;}.e{fill:#9c2438;}.f{fill:#c3c5c2;}.g{fill:#b1b3b1;}.h{fill:#da314b;}.i{fill:#33535f;}.j{fill:#996152;}.k{fill:#fafaf9;}.l{fill:#a7a9a8;}.m{fill:#ba2c42;}.n{fill:#0f191d;}.o{fill:#7a1a2b;}.p{fill:#f68260;}.q{fill:#7e1c2c;}.r{fill:#0a1013;}.s{fill:#e7e8e5;}</style></defs><g transform="translate(-359.533 -400.279)"><path class="a" d="M426.206-1.184c0,.128-95.417.232-213.093.232C95.4-.952,0-1.056,0-1.184s95.4-.232,213.113-.232c117.676,0,213.093.1,213.093.232" transform="translate(359.533 743.497)"/><path class="b" d="M31.361-378.624l12.712-4.5-5.455-7.285a27.233,27.233,0,0,1-.391-4.876,7.383,7.383,0,0,1,.421-2.467,11.268,11.268,0,0,1,1.324-2.824.968.968,0,0,0-.86-1.616c-.844.224-2.556,2.245-3.314,5.245s-2.812-1.414-3.59-3.009-3.416-6.418-4.095-6.568c-1-.219-1.416.809-.6,2.384.823,1.595,2.921,6.47,2.059,6.84s-4.7-7.811-4.7-7.811-.54-1.881-1.55-1.486c-1.823.711,2.908,9.1,3.377,9.888.327.548-.6.983-.915.377-.329-.625-3.649-8.245-5.512-7.538-1.429.542,3.827,6.937,3.638,8.9-.1,1.062-1.116-.563-2.238-2.187-.952-1.379-1.982-2.758-2.6-2.494-.5.213-.844.442,1.651,4.313a64.34,64.34,0,0,0,4.005,5.23h0l6.631,11.485" transform="translate(353.278 878.886)"/><path class="c" d="M151.979-356.639s-6.263-14.638-10.592-21.748c-4.074-6.693-9.47-7.78-12.345-7.983a19.849,19.849,0,0,0-3.663-.749l-23.521-.2a22.264,22.264,0,0,0-14.037,5.146c-1.085.891-9.215,10.317-20,23.744L48.954-378.818,37.7-372.166s12.219,42.184,27.55,39.287c9.084-1.716,16.187-8.041,16.187-8.041l11.938-9.622.277,1.595c.241,1.945.847,5.087,1.3,6.994,1.443,6.025,2.246,13.964-.854,19.222,0,0-4.255,3.253-.871,6.833h44.256s6.269-4.249.546-8.977l-3.587-8.98,2.318-10.955.868-4.387,3.892,6.676s7.711,9.7,15.727,8.508c9.638-1.435,15.223-18.989,6.524-42.2L153.3-373.023l-1.321,16.384" transform="translate(346.937 872.428)"/><path class="d" d="M56.955-372,54.6-374.55,56.956-372" transform="translate(341.291 868.16)"/><path class="e" d="M38.816-364.377,37.7-367.9h0l11.25-6.652L51.311-372l-12.5,7.625" transform="translate(346.937 868.16)"/><path class="f" d="M122.838-292.391l-.01,0a15.624,15.624,0,0,0,1.012-2.487l.016-.048a14.141,14.141,0,0,1-1.018,2.538" transform="translate(318.497 841.559)"/><path class="g" d="M122.4-290.591q.147-.262.284-.533l.01,0c-.094.179-.192.355-.294.529" transform="translate(318.638 840.288)"/><path class="f" d="M124.6-314.628c0-.012,0-.025-.007-.037-.16-.856-.37-1.975-.6-3.174.228,1.031.434,2.109.6,3.211" transform="translate(318.105 849.213)"/><path class="h" d="M122.162-303.642h0c.1-.174.2-.35.294-.529a14.141,14.141,0,0,0,1.018-2.538c1.2-3.638,1-8.559.353-12.044-.169-1.1-.375-2.181-.6-3.211-.694-3.677-1.538-8.119-1.538-8.119a1.21,1.21,0,0,1,.489-.1c1.043,0,2,1.366,2.711,2.286.821,1.063,1.455,2.36,2.64,2.992,1.454.774,3.358.324,4.754,1.2a4.838,4.838,0,0,1,1.846,3.464,14.572,14.572,0,0,1-2.645,10.867,13.98,13.98,0,0,1-9.319,5.738" transform="translate(318.88 853.338)"/><path class="a" d="M80.248-336.727a10.865,10.865,0,0,1,.656-3.666,21.834,21.834,0,0,1,1.12-3.538,10.905,10.905,0,0,1-.657,3.666,21.968,21.968,0,0,1-1.12,3.538" transform="translate(332.737 857.931)"/><path class="a" d="M83.913-338.681a7.712,7.712,0,0,1-.766-2.585,7.715,7.715,0,0,1-.294-2.68,7.691,7.691,0,0,1,.766,2.585,7.714,7.714,0,0,1,.294,2.68" transform="translate(331.868 857.936)"/><path class="i" d="M203.156-413.651l-16.067,26.038,12.645,3.517,14.027-21.632-10.6-7.923" transform="translate(297.026 881.224)"/><path class="b" d="M206.546-388.033l.55,3.806,2.241,2.885.226,2.364,8.061-2.452-3.258-11.5a23.78,23.78,0,0,0,.314-4.709l-2.214,2.942-.611-4.795-4.545-3.653a1.1,1.1,0,0,0-1.552.239,1.1,1.1,0,0,0,.121,1.429l3.646,3.216.236,3.971-2.637-2.456a1.924,1.924,0,0,0-.93-.477l-3.665-.733a.956.956,0,0,0-1.139.842.956.956,0,0,0,.67,1.009l3.333,1.026,3.375,3.405-3.3-1.255-4.484.627a.87.87,0,0,0-.748.861.869.869,0,0,0,.917.867l2.85-.158,1.675.523-3.857,1.021a.778.778,0,0,0-.578.791.778.778,0,0,0,.842.737l4.459-.371" transform="translate(292.634 877.788)"/><path class="e" d="M210.781-363.182l.344-4.264,1.96-.6h0l8.061-2.452.457-.139,1.4,4.081-12.224,3.371" transform="translate(289.111 866.853)"/><path class="j" d="M214.239-367.972h0l8.061-2.451-8.061,2.452" transform="translate(287.958 866.783)"/><path class="a" d="M186.587-388.094s-1.08-1.468-1-1.716,15.292-25.28,15.292-25.28l1.771.959-16.067,26.038" transform="translate(297.53 881.705)"/><path class="a" d="M217.187-403.9a.586.586,0,0,1,.928.235.587.587,0,0,1-.648.7.587.587,0,0,1-.311-.906" transform="translate(287.021 878.012)"/><path class="k" d="M167.616-357.834a2.2,2.2,0,0,1-.464.625,4.076,4.076,0,0,1-1.976,1.027,8.8,8.8,0,0,1-3.528,0,12.1,12.1,0,0,0-4.552-.2,12.429,12.429,0,0,0-4.809,2.677,18.052,18.052,0,0,1-5.522,3.437,9.071,9.071,0,0,1-3.554.279,15.451,15.451,0,0,1-3.561-.988c-2.329-.915-4.564-2.2-7.009-3.091a14.052,14.052,0,0,0-3.721-.827,13.9,13.9,0,0,0-3.693.312c-2.4.5-4.658,1.335-6.907,1.811a17.446,17.446,0,0,1-11.872-1.642,17.785,17.785,0,0,1-6.179-5.308,12.512,12.512,0,0,1-1.478-2.606c.057-.031.482.958,1.629,2.495a18.145,18.145,0,0,0,6.184,5.116,17.222,17.222,0,0,0,11.622,1.512c2.208-.479,4.454-1.326,6.908-1.841a14.268,14.268,0,0,1,3.816-.328,14.444,14.444,0,0,1,3.854.851c2.5.91,4.736,2.2,7.02,3.1a15.128,15.128,0,0,0,3.447.971,8.629,8.629,0,0,0,3.369-.249,17.884,17.884,0,0,0,5.4-3.327,12.653,12.653,0,0,1,4.981-2.695,12.21,12.21,0,0,1,4.668.271,8.8,8.8,0,0,0,3.444.087,4.152,4.152,0,0,0,1.951-.916c.372-.335.509-.57.531-.554" transform="translate(326.526 864.079)"/><path class="a" d="M209.5-334.138a16.355,16.355,0,0,1-.363-3.938,16.468,16.468,0,0,1,.117-3.953,16.383,16.383,0,0,1,.364,3.938,16.383,16.383,0,0,1-.118,3.953" transform="translate(289.671 857.295)"/><path class="b" d="M168.11-85.307c.39,1.541,9.444,52.319,9.444,52.319l13.872-1.038-2.535-51.85-20.781.569" transform="translate(303.37 771.715)"/><path class="c" d="M196.318-7.535l-.044-1.46-14.784.307.089,4.813.914.037c4.066.134,20.685.412,23.382-.4,3.008-.911-9.557-3.294-9.557-3.294" transform="translate(298.898 746.03)"/><path class="l" d="M181.513-7.244l0-.1h0l0,.1" transform="translate(298.892 745.478)"/><path class="m" d="M181.6-3.528l-.083-3.727,0-.1c.156-.015.313-.022.468-.022a5.273,5.273,0,0,1,2.995.952,4.745,4.745,0,0,1,1.911,2.729l-5.283.054-.006.111h0" transform="translate(298.892 745.489)"/><path class="n" d="M191.132-1.08c-3.577,0-7.054-.07-9.508-.225h0l.914.037c1.892.062,6.5.155,11.163.155.7,0,1.393,0,2.082-.006-1.518.026-3.093.039-4.651.039" transform="translate(298.855 743.46)"/><path class="l" d="M216.268-2.787c.045-.011.088-.023.128-.036.418-.127.535-.281.427-.455.091.106.112.209.038.3a1.257,1.257,0,0,1-.593.188M214.045-4.46c-.34-.1-.7-.2-1.063-.291h0s.458.113,1.062.291" transform="translate(288.377 744.611)"/><path class="m" d="M193.7-2.264c-4.66,0-9.271-.093-11.163-.155l-.914-.037.01-.2,5.324-.012c-.011-.051-.022-.1-.035-.154l14.322-.147s.4-1.736,1.261-1.786c.366.1.723.192,1.063.291a8.258,8.258,0,0,1,2.778,1.181c.108.174-.009.328-.427.455-.04.012-.083.024-.128.036a93.337,93.337,0,0,1-10.009.517c-.689,0-1.386.006-2.082.006" transform="translate(298.855 744.611)"/><path class="o" d="M181.638-1.681l.006-.111,5.283-.054c.012.052.024.1.035.154l-5.324.012" transform="translate(298.848 743.642)"/><path class="a" d="M181.3-1.993a1.483,1.483,0,0,0,.254.02l.727.027,2.677.059c2.261.035,5.386.044,8.836-.017s6.573-.179,8.831-.293l2.672-.152.726-.052a1.338,1.338,0,0,0,.252-.031,1.808,1.808,0,0,0-.254,0l-.728.022-2.675.1c-2.258.084-5.379.183-8.828.245S187.22-2,184.96-2l-2.677-.006-.728,0a1.555,1.555,0,0,0-.254.012" transform="translate(298.962 743.838)"/><path class="a" d="M211.075-2.837a5.323,5.323,0,0,1,.472-1.2A5.752,5.752,0,0,1,212.439-5a1.955,1.955,0,0,0-1.045.885,1.73,1.73,0,0,0-.319,1.279" transform="translate(289.023 744.696)"/><path class="a" d="M204.5-5.286c.043.024.245-.215.453-.533s.341-.6.3-.62-.244.215-.452.534-.343.6-.3.619" transform="translate(291.214 745.176)"/><path class="a" d="M202.688-5.948c.034.033.263-.115.511-.332s.424-.419.39-.452-.263.114-.511.331-.424.419-.39.453" transform="translate(291.817 745.276)"/><path class="a" d="M201.516-7.516a1.838,1.838,0,0,0,.77.077,1.859,1.859,0,0,0,.768-.089,1.856,1.856,0,0,0-.77-.077,1.853,1.853,0,0,0-.768.089" transform="translate(292.209 745.565)"/><path class="a" d="M201.1-8.839a1.577,1.577,0,0,0,.862.216,1.587,1.587,0,0,0,.882-.126,5.263,5.263,0,0,0-.872-.04,5.056,5.056,0,0,0-.872-.05" transform="translate(292.348 745.982)"/><path class="a" d="M205.21-7.147a2.957,2.957,0,0,0,.945-.022,5.887,5.887,0,0,0,1-.225,2.918,2.918,0,0,0,.572-.232.478.478,0,0,0,.228-.278.337.337,0,0,0-.152-.349,1.81,1.81,0,0,0-2.134.511,1.51,1.51,0,0,0-.3.593c-.035.151-.03.237-.02.238a2.436,2.436,0,0,1,.414-.758,1.716,1.716,0,0,1,.8-.5,1.565,1.565,0,0,1,1.129.051c.152.1.1.265-.067.362a3,3,0,0,1-.527.22,7.028,7.028,0,0,1-.969.254c-.564.1-.924.111-.923.138" transform="translate(290.974 745.835)"/><path class="a" d="M204.944-7.3a.815.815,0,0,0,.1-.613,1.39,1.39,0,0,0-.273-.637.966.966,0,0,0-.8-.434.351.351,0,0,0-.283.411.947.947,0,0,0,.17.391,2.733,2.733,0,0,0,.459.524,1.37,1.37,0,0,0,.55.345c.016-.021-.193-.154-.46-.427A3.152,3.152,0,0,1,204-8.261c-.134-.183-.23-.515.006-.559a.86.86,0,0,1,.631.361,1.4,1.4,0,0,1,.281.567,2.948,2.948,0,0,1,.028.592" transform="translate(291.485 746.026)"/><path class="a" d="M181.626-7.455c0,.03.421-.045,1.088.016a4.986,4.986,0,0,1,2.393.865,4.462,4.462,0,0,1,1.526,1.921c.237.582.268.977.3.972a.745.745,0,0,0-.005-.277,3.437,3.437,0,0,0-.178-.735,4.244,4.244,0,0,0-1.536-2.013,4.774,4.774,0,0,0-2.492-.85,4.146,4.146,0,0,0-.809.034.878.878,0,0,0-.288.067" transform="translate(298.853 745.551)"/><path class="a" d="M192.37-3.7a8.938,8.938,0,0,0,2.152.159,8.937,8.937,0,0,0,2.15-.2c-.006-.048-.966.024-2.151.034s-2.146-.041-2.15.007" transform="translate(295.261 744.28)"/><path class="a" d="M188.035-3.6c-.036.034.083.187.186.391s.16.384.21.38.071-.217-.05-.451-.316-.354-.346-.32" transform="translate(296.712 744.229)"/><path class="a" d="M186.359-5.461c-.034.033.065.173.219.314s.31.228.344.2-.064-.173-.22-.314-.309-.228-.344-.2" transform="translate(297.273 744.852)"/><path class="a" d="M184.007-6.319c.012.046.207.041.424.107s.376.171.414.139-.089-.218-.36-.3-.495.008-.479.051" transform="translate(298.058 745.164)"/><path class="a" d="M182.334-6.671c-.017.043.069.112.193.154s.236.041.253,0-.069-.112-.193-.153-.236-.041-.253,0" transform="translate(298.617 745.263)"/><path class="b" d="M112.179-91.385c-.071,1.587-5.841,51.039-5.841,51.039L119.92-37.34l12.524-50.378-20.265-3.668" transform="translate(324.006 773.556)"/><path class="c" d="M120.036-10.576,120.341-12l-14.433-3.22-1.059,4.7.879.253c3.917,1.1,19.991,5.325,22.806,5.174,3.139-.168-8.5-5.475-8.5-5.475" transform="translate(324.503 748.11)"/><path class="m" d="M110.111-9.229l-5.144-1.2-.032.1.828-3.733a5.236,5.236,0,0,1,3.142,1.728,4.747,4.747,0,0,1,1.206,3.106" transform="translate(324.475 747.723)"/><path class="l" d="M128.688-2.73c-.083,0-.179,0-.289-.011.047,0,.092,0,.134,0,.436-.023.587-.146.523-.34.063.124.06.229-.035.3a.65.65,0,0,1-.334.052M118.553-4.622c-4.88-1.11-10.337-2.5-13.7-3.55h0l.879.253c2.094.587,7.664,2.069,12.825,3.3m8.084-.274c-.306-.175-.629-.354-.96-.533h0s.416.218.959.533" transform="translate(324.503 745.755)"/><path class="m" d="M128.4-2.836a93.539,93.539,0,0,1-9.847-1.881c-5.16-1.228-10.73-2.71-12.825-3.3l-.879-.253.057-.189v0L110.079-7.2c0-.052,0-.1,0-.157l13.945,3.267s.734-1.446,1.533-1.446a.628.628,0,0,1,.116.011c.331.178.653.358.96.533a8.248,8.248,0,0,1,2.42,1.811c.064.194-.087.317-.523.34-.042,0-.087,0-.134,0" transform="translate(324.503 745.851)"/><path class="o" d="M110.108-7.252l-5.174-1.255v0l.032-.1,5.144,1.2c0,.052,0,.1,0,.157" transform="translate(324.475 745.901)"/><path class="a" d="M104.647-8.7a1.34,1.34,0,0,0,.241.081l.7.2,2.587.694c2.188.572,5.22,1.324,8.585,2.087s6.427,1.39,8.646,1.818l2.633.488.717.121a1.373,1.373,0,0,0,.252.031,1.515,1.515,0,0,0-.246-.064l-.712-.152-2.622-.54c-2.213-.457-5.268-1.1-8.633-1.865s-6.4-1.5-8.593-2.039l-2.6-.643-.708-.17a1.6,1.6,0,0,0-.25-.049" transform="translate(324.572 745.933)"/><path class="a" d="M133.57-2.486a5.357,5.357,0,0,1,.744-1.048,5.83,5.83,0,0,1,1.1-.73,1.96,1.96,0,0,0-1.225.612,1.728,1.728,0,0,0-.614,1.166" transform="translate(314.911 744.451)"/><path class="a" d="M127.876-6.5c.035.033.289-.15.566-.41s.474-.5.439-.53-.289.151-.566.411-.474.5-.439.529" transform="translate(316.812 745.514)"/><path class="a" d="M126.321-7.562c.025.04.283-.05.576-.2s.511-.306.487-.346-.283.049-.576.2-.511.307-.487.347" transform="translate(317.329 745.737)"/><path class="a" d="M125.638-9.437a1.824,1.824,0,0,0,.729.258,1.829,1.829,0,0,0,.768.1,1.857,1.857,0,0,0-.73-.257,1.879,1.879,0,0,0-.767-.1" transform="translate(317.557 746.183)"/><path class="a" d="M125.554-10.851a1.569,1.569,0,0,0,.786.415,1.586,1.586,0,0,0,.887.087,5.241,5.241,0,0,0-.838-.246,5.178,5.178,0,0,0-.835-.257" transform="translate(317.587 746.652)"/><path class="a" d="M129-8.033a2.987,2.987,0,0,0,.924.2,5.974,5.974,0,0,0,1.027.02,2.882,2.882,0,0,0,.61-.089.48.48,0,0,0,.288-.215.335.335,0,0,0-.064-.375,1.811,1.811,0,0,0-2.194-.012,1.527,1.527,0,0,0-.428.5c-.069.139-.085.223-.076.228a2.406,2.406,0,0,1,.583-.639,1.711,1.711,0,0,1,.894-.3,1.565,1.565,0,0,1,1.084.318c.124.134.032.282-.152.335a2.885,2.885,0,0,1-.564.089,7.015,7.015,0,0,1-1,.016c-.573-.035-.925-.113-.93-.086" transform="translate(316.436 745.987)"/><path class="a" d="M128.879-8.408a.816.816,0,0,0,.239-.572A1.39,1.39,0,0,0,129-9.665a.961.961,0,0,0-.671-.611.349.349,0,0,0-.372.332.92.92,0,0,0,.072.419,2.708,2.708,0,0,0,.321.618,1.38,1.38,0,0,0,.451.467c.021-.017-.15-.2-.344-.526a3.055,3.055,0,0,1-.272-.6c-.086-.21-.1-.555.139-.542.236.031.424.3.527.5a1.4,1.4,0,0,1,.137.617,2.954,2.954,0,0,1-.113.581" transform="translate(316.782 746.458)"/><path class="a" d="M106.3-14.1c0,.031.419.057,1.053.274a4.966,4.966,0,0,1,2.118,1.411,4.451,4.451,0,0,1,1.025,2.228c.093.623.028,1.012.062,1.016a.742.742,0,0,0,.06-.27,3.423,3.423,0,0,0,0-.756,4.247,4.247,0,0,0-1.013-2.321,4.787,4.787,0,0,0-2.217-1.421,4.241,4.241,0,0,0-.794-.16.933.933,0,0,0-.3,0" transform="translate(324.017 747.738)"/><path class="a" d="M115.85-7.914a8.979,8.979,0,0,0,2.053.667,8.926,8.926,0,0,0,2.135.318c.006-.048-.943-.207-2.1-.479s-2.075-.552-2.091-.506" transform="translate(320.829 745.67)"/><path class="a" d="M111.619-8.875c-.042.026.036.2.087.425s.064.411.115.42.121-.195.059-.451-.222-.418-.261-.393" transform="translate(322.247 745.99)"/><path class="a" d="M110.435-11.079c-.042.024.02.184.138.357s.246.3.287.273-.021-.184-.138-.358-.246-.295-.287-.272" transform="translate(322.643 746.726)"/><path class="a" d="M108.349-12.454c0,.047.191.089.387.206s.324.256.368.234-.034-.234-.279-.375-.482-.109-.476-.065" transform="translate(323.333 747.199)"/><path class="a" d="M106.811-13.207c-.026.037.041.125.151.194s.22.1.247.059-.041-.125-.151-.194-.22-.1-.247-.059" transform="translate(323.851 747.442)"/><path class="a" d="M119.718-459.2a5,5,0,0,1-.547.2,8.243,8.243,0,0,0,.741-.74,7.987,7.987,0,0,1,2.329-2.15,4.588,4.588,0,0,1,2.151-.468,6.323,6.323,0,0,0-1.1.55C122.049-461.012,121.063-459.815,119.718-459.2Zm-7.307.617a7.672,7.672,0,0,0-5.488,4.2,5.6,5.6,0,0,1-.139-1.214,3.364,3.364,0,0,1,.839-2.256,4.882,4.882,0,0,1,4.332-1.461,9.881,9.881,0,0,1,2.389.614A11.462,11.462,0,0,0,112.41-458.58Zm-9.944,16.335a1.2,1.2,0,0,0-.5-.024,3.411,3.411,0,0,0,.4.1c-.091.066-.186.129-.273.2a5.372,5.372,0,0,0-1.72,2.643,3.758,3.758,0,0,1-.089-3.02,5.073,5.073,0,0,1,2.907-3.021c.713-.27,1.523-.381,2.348-.632a4.124,4.124,0,0,0,1.014-.449,3.568,3.568,0,0,1-.419,1.373c-.762,1.366-2.378,1.925-3.668,2.831Zm58.421,6.552c-.368-1.054-1.262-1.85-1.695-2.88-.649-1.54-.172-3.29,0-4.953s-.17-3.681-1.695-4.368a15.489,15.489,0,0,1-1.952-.65c-1.186-.738-1.124-2.431-1.232-3.824a7.685,7.685,0,0,0-.7-2.648l.25-.078a3.949,3.949,0,0,1,4.539,2.248,2.327,2.327,0,0,1-.154,2.229,1.463,1.463,0,0,1-1.724.555,1.208,1.208,0,0,1-.63-1.35.853.853,0,0,1,.97-.544.951.951,0,0,1,.688.383c.1.159.111.27.137.266.009,0,.041-.115-.043-.317a1.026,1.026,0,0,0-.747-.534,1.249,1.249,0,0,0-.69.049.99.99,0,0,0-.593.6,1.519,1.519,0,0,0,.735,1.777,1.849,1.849,0,0,0,2.244-.617,2.76,2.76,0,0,0,.264-2.672,4.4,4.4,0,0,0-4.67-2.654,2.916,2.916,0,0,0,.272-2.359,3.316,3.316,0,0,0-2.048-2.055,4.377,4.377,0,0,0-2.6-.141,6.518,6.518,0,0,0-2.05.907c-.575.376-1.019.788-1.452,1.064a2.6,2.6,0,0,1-1.2.461,2,2,0,0,1-1.075-.222c-.032,0,.276.426,1.085.425a2.692,2.692,0,0,0,1.341-.416c.475-.271.939-.666,1.5-1a4.873,4.873,0,0,1,4.281-.629,2.848,2.848,0,0,1,1.73,1.754,2.3,2.3,0,0,1-.612,2.37,5.208,5.208,0,0,0-1.922-1.969c-1.774-1-4.4-.514-5.3,1.314l-14.568-5a7.1,7.1,0,0,0-6.692-1.346c-.1-.017-.2-.036-.305-.048a4.729,4.729,0,0,0-2.46.407,8.063,8.063,0,0,0-2.477,2.164,5.4,5.4,0,0,1-1.4,1.159,2.585,2.585,0,0,1-.279.115,13.336,13.336,0,0,1-1.946.068,28.824,28.824,0,0,0-4-1.138,6.3,6.3,0,0,0-2.525.181,4.838,4.838,0,0,0-2.252,1.423,3.884,3.884,0,0,0-.974,2.592,7.105,7.105,0,0,0,.319,2.014,6.977,6.977,0,0,0-.429,2.751c.064,1.233.42,2.524.434,3.74a3.491,3.491,0,0,1-1.192.608c-.769.242-1.593.359-2.372.659a5.5,5.5,0,0,0-3.147,3.332,3.9,3.9,0,0,0,.394,3.669,5.6,5.6,0,0,0,1.027,4.7,28.372,28.372,0,0,1,2.283,2.443c.957,1.487.821,3.392,1.062,5.144s1.257,3.731,3.023,3.846c1.422.093,2.7-1.1,4.12-.985,1.993.163,2.808,2.551,3.961,4.185a7.1,7.1,0,0,0,6.612,2.879c1.811-.247,3.606-1.2,5.378-.755,2.229.567,3.567,3.178,5.843,3.5,1.694.242,3.262-.883,4.52-2.045s2.536-2.485,4.22-2.788c2.028-.364,3.979.862,6.02,1.142a6.8,6.8,0,0,0,6.709-3.366c1.121-2.032,1.118-4.526,2.166-6.6a36.848,36.848,0,0,1,2.706-3.79,5.1,5.1,0,0,0,.975-4.388" transform="translate(326.258 897.655)"/><path class="b" d="M162.124-424.67c.7-4.375.475-11.547.106-17.409a9.288,9.288,0,0,0-10.245-8.66l-15.261,1.614a3.094,3.094,0,0,0-2.768,3.138l1.572,37.49-3.529.009v6.789a14.063,14.063,0,0,0,14.064,14.063A14.063,14.063,0,0,0,160.126-401.7v-5.875a21.431,21.431,0,0,0-5.876-1.074c-.125.007-.315.013-.547.02.016-3.438.282-6.126.282-6.126s6.742-1.119,8.138-9.916" transform="translate(315.433 893.633)"/><path class="a" d="M172.836-429.67a1.126,1.126,0,0,1-1.088,1.138,1.078,1.078,0,0,1-1.162-1.017,1.129,1.129,0,0,1,1.086-1.139,1.079,1.079,0,0,1,1.164,1.018" transform="translate(302.539 886.916)"/><path class="a" d="M172.824-432.7c-.14.147-.994-.486-2.209-.482-1.212-.014-2.1.61-2.235.462-.065-.066.078-.331.465-.614a3.1,3.1,0,0,1,1.79-.551,2.978,2.978,0,0,1,1.757.567c.374.287.5.552.432.619" transform="translate(303.282 887.985)"/><path class="a" d="M155.014-429.67a1.127,1.127,0,0,1-1.088,1.138,1.079,1.079,0,0,1-1.163-1.017,1.13,1.13,0,0,1,1.087-1.139,1.08,1.08,0,0,1,1.164,1.018" transform="translate(308.494 886.916)"/><path class="a" d="M154.9-432.361c-.139.147-1-.486-2.209-.482-1.212-.014-2.1.611-2.235.462-.065-.066.076-.331.465-.614a3.1,3.1,0,0,1,1.79-.552,2.976,2.976,0,0,1,1.758.567c.372.287.5.553.431.619" transform="translate(309.27 887.871)"/><path class="a" d="M163.472-423.321a8.016,8.016,0,0,1,1.972-.356c.31-.032.6-.093.656-.3a1.575,1.575,0,0,0-.208-.919l-.916-2.361a40.549,40.549,0,0,1-2.059-6.174,40.656,40.656,0,0,1,2.551,5.994c.306.829.6,1.619.878,2.374a1.8,1.8,0,0,1,.161,1.217.776.776,0,0,1-.51.453,2.064,2.064,0,0,1-.527.074,7.965,7.965,0,0,1-2,0" transform="translate(305.107 887.834)"/><path class="p" d="M159.105-398.25a22.376,22.376,0,0,1-11.78-3.142s2.859,6.043,11.662,5.22l.118-2.078" transform="translate(310.314 877.128)"/><path class="p" d="M161.169-414.266a2.187,2.187,0,0,0-1.96-.812,2,2,0,0,0-1.38.74,1.264,1.264,0,0,0-.1,1.447,1.466,1.466,0,0,0,1.591.4,4.591,4.591,0,0,0,1.552-.926,1.373,1.373,0,0,0,.347-.359.407.407,0,0,0,0-.452" transform="translate(306.896 881.705)"/><path class="a" d="M158.293-416.984c.2-.012.2,1.306,1.328,2.241s2.53.79,2.541.975c.018.083-.313.256-.906.272a3.278,3.278,0,0,1-2.121-.739,2.859,2.859,0,0,1-1.029-1.88c-.051-.551.1-.877.186-.869" transform="translate(306.713 882.337)"/><path class="a" d="M155.182-435.414c-.12.33-1.332.174-2.756.345-1.428.143-2.576.559-2.765.265-.084-.142.115-.453.581-.772a4.614,4.614,0,0,1,2.049-.717,4.616,4.616,0,0,1,2.157.253c.523.211.786.471.734.627" transform="translate(309.536 888.798)"/><path class="a" d="M172.316-436.461c-.213.276-1.049-.011-2.055-.024-1.005-.048-1.857.186-2.053-.1-.086-.14.048-.416.42-.677a2.84,2.84,0,0,1,1.671-.451,2.843,2.843,0,0,1,1.639.554c.356.283.472.567.378.7" transform="translate(303.343 889.264)"/><path class="a" d="M164.939-453.995a6.536,6.536,0,0,0-4.756-4.955c-1.551-.288-3.146.171-4.72.07-1.3-.083-1.77-1.118-3.006-1.524-2.062-.677-3.644-2.965-8.092-2.487-1.187.128-2.715,1.5-3.8,3.07-1.7-.735-3.951.055-5.18.593-2.545,1.113-4.137,3.978-4.639,6.89a28.745,28.745,0,0,0,.319,8.833q.28,2.006.563,4.012a7.046,7.046,0,0,0,.709,2.557l-2.025,18.83a7.832,7.832,0,0,0,9.956-5.47c.786-3.7-1.274-7.474-.948-11.243.194-2.244,1.462-4.336,1.454-6.588a8.672,8.672,0,0,0-.313-2.191h0c3.579-2.9,4.491-5.24,4.341-7.96a6.828,6.828,0,0,0,3.725,1.233c1.885.024,3.843-.707,5.606-.042a9.787,9.787,0,0,1,3.136,2.545,4.514,4.514,0,0,0,3.563,1.646,9.19,9.19,0,0,0,1.849-.65,2.244,2.244,0,0,1,1.9,0,14.7,14.7,0,0,0,.365-7.169" transform="translate(315.996 897.697)"/><path class="i" d="M103.333-429.343a15.385,15.385,0,0,0,2.919,1.669,10.448,10.448,0,0,0,3.822.808,8.041,8.041,0,0,0,4.859-1.464,7.418,7.418,0,0,0,3.144-5.151,5.415,5.415,0,0,0-.661-3.3,3.518,3.518,0,0,0-2.885-1.794,2.609,2.609,0,0,0-1.676.551,3.3,3.3,0,0,0-1.026,1.532,3.852,3.852,0,0,0,.674,3.672,6.408,6.408,0,0,0,3.483,2.07,9.855,9.855,0,0,0,4.263.071,9.269,9.269,0,0,0,3.88-1.748,7.372,7.372,0,0,0,2.4-3.311,7.359,7.359,0,0,0,.317-3.941,5.991,5.991,0,0,0-.657-1.808A4.119,4.119,0,0,0,125-442.892a2.871,2.871,0,0,0-1.631-.612,1.512,1.512,0,0,0-1.355.764,2.143,2.143,0,0,0-.173,1.59,3.079,3.079,0,0,0,.86,1.373,7.451,7.451,0,0,0,5.766,1.771,7.384,7.384,0,0,0,4.562-2.169,8.1,8.1,0,0,0,1.948-3.351,9.149,9.149,0,0,0,.276-3.33,4,4,0,0,1,.14.867,7.641,7.641,0,0,1-.235,2.512,8.185,8.185,0,0,1-1.936,3.488,7.633,7.633,0,0,1-4.718,2.319,7.778,7.778,0,0,1-6.081-1.821,3.484,3.484,0,0,1-.98-1.553,2.556,2.556,0,0,1,.2-1.909,1.947,1.947,0,0,1,1.722-.986,3.3,3.3,0,0,1,1.893.687,4.559,4.559,0,0,1,1.326,1.544,6.424,6.424,0,0,1,.713,1.937,7.8,7.8,0,0,1-.323,4.191,7.845,7.845,0,0,1-2.552,3.527,9.71,9.71,0,0,1-4.082,1.844,10.29,10.29,0,0,1-4.475-.078,6.864,6.864,0,0,1-3.735-2.24,4.269,4.269,0,0,1-.909-1.98,4.614,4.614,0,0,1,.168-2.13,3.744,3.744,0,0,1,1.182-1.742,3.057,3.057,0,0,1,1.967-.64,3.95,3.95,0,0,1,3.239,2.023,5.815,5.815,0,0,1,.694,3.555,7.756,7.756,0,0,1-3.345,5.388,8.276,8.276,0,0,1-5.061,1.455,10.411,10.411,0,0,1-3.889-.9A10.579,10.579,0,0,1,104-428.772a6.462,6.462,0,0,1-.508-.413c-.111-.1-.164-.151-.159-.157" transform="translate(325.009 892.317)"/><path class="i" d="M170.935-449.17a1.531,1.531,0,0,1-.424.3,4.789,4.789,0,0,1-1.4.511,5.8,5.8,0,0,1-2.359-.041,6.389,6.389,0,0,1-2.774-1.444,8.215,8.215,0,0,1-2.187-3.1,2.8,2.8,0,0,1-.072-2.185,1.841,1.841,0,0,1,.827-.885,1.386,1.386,0,0,1,1.274.016,1.952,1.952,0,0,1,.915,2.255A3.2,3.2,0,0,1,163-451.894a6.706,6.706,0,0,1-5.141.075,12.263,12.263,0,0,1-2.369-1.143,8.642,8.642,0,0,1-2.018-1.6,2.027,2.027,0,0,1-.2-2.523,1.307,1.307,0,0,1,1.271-.45,1.882,1.882,0,0,1,1.085.681,1.61,1.61,0,0,1,.346,1.207,2.108,2.108,0,0,1-.491,1.091,2.869,2.869,0,0,1-1.952.982,5.222,5.222,0,0,1-1.99-.262,14.455,14.455,0,0,1-1.7-.653,6.05,6.05,0,0,1-2.482-1.9,3.472,3.472,0,0,1-.637-2.273,2.535,2.535,0,0,1,.518-1.4,1.37,1.37,0,0,1,.388-.346,2.68,2.68,0,0,0-.719,1.755,3.326,3.326,0,0,0,.669,2.1,5.834,5.834,0,0,0,2.4,1.75,7.756,7.756,0,0,0,3.506.827,2.465,2.465,0,0,0,1.667-.856,1.356,1.356,0,0,0,.122-1.753c-.392-.526-1.248-.757-1.651-.215a1.3,1.3,0,0,0-.236.959,1.874,1.874,0,0,0,.445.978,8.361,8.361,0,0,0,1.9,1.493,11.945,11.945,0,0,0,2.276,1.1,6.271,6.271,0,0,0,4.777-.043,2.759,2.759,0,0,0,1.5-1.56,1.512,1.512,0,0,0-.682-1.732,1.116,1.116,0,0,0-1.511.657,2.407,2.407,0,0,0,.061,1.865,7.955,7.955,0,0,0,2.039,2.986,6.2,6.2,0,0,0,2.611,1.438,5.784,5.784,0,0,0,2.264.117,7.022,7.022,0,0,0,1.854-.623" transform="translate(310.516 896.846)"/><path class="i" d="M136.524-414.172a1.377,1.377,0,0,1-.376.3,3.614,3.614,0,0,1-1.289.518,4.214,4.214,0,0,1-2.2-.141,3.559,3.559,0,0,1-2.2-1.917,1.5,1.5,0,0,1,.337-1.735,1.567,1.567,0,0,1,1.913,0,3.941,3.941,0,0,1,1.363,3.789,4.654,4.654,0,0,1-2.569,3.637,5.261,5.261,0,0,1-4.772-.353,5.312,5.312,0,0,1-1.828-1.7,3.027,3.027,0,0,1-.432-2.421,2.324,2.324,0,0,1,.626-1.085,1.642,1.642,0,0,1,1.178-.455,2.32,2.32,0,0,1,1.9,1.277,4.73,4.73,0,0,1,.521,2.073,6.915,6.915,0,0,1-.193,1.983,6.249,6.249,0,0,1-1.75,3.078,4.464,4.464,0,0,1-2.661,1.2,4.383,4.383,0,0,1-2.176-.345,3.829,3.829,0,0,1-1.151-.779,1.475,1.475,0,0,1-.3-.375,5.592,5.592,0,0,0,1.526.979,4.288,4.288,0,0,0,2.076.252,4.22,4.22,0,0,0,2.457-1.178,5.95,5.95,0,0,0,1.6-2.923,6.555,6.555,0,0,0,.158-1.868,4.341,4.341,0,0,0-.485-1.879,1.878,1.878,0,0,0-1.526-1.034,1.436,1.436,0,0,0-1.338,1.2,2.553,2.553,0,0,0,.382,2.044,4.858,4.858,0,0,0,1.664,1.542,4.806,4.806,0,0,0,4.335.341,4.215,4.215,0,0,0,2.327-3.273,3.548,3.548,0,0,0-1.152-3.4,1.182,1.182,0,0,0-1.451-.038,1.145,1.145,0,0,0-.254,1.329,3.3,3.3,0,0,0,1.971,1.782,4.136,4.136,0,0,0,2.077.211,5.426,5.426,0,0,0,1.7-.637" transform="translate(319.286 882.501)"/><path class="a" d="M89.508-152.729s5.933,11.536,21.424,5.933c0,0,15.163,8.24,29.665-.99,0,0,18.782,2.518,29-2.426L156.456-263.542l-1.664-17.407H113.355s-12.311,5.6-14.288,32.962S92.8-183.053,92.8-183.053l-3.3,30.324" transform="translate(329.629 836.889)"/><path class="i" d="M163.124-147.227a1.958,1.958,0,0,1-.046-.342c-.022-.249-.052-.582-.09-1.006-.07-.91-.171-2.208-.3-3.869-.256-3.36-.579-8.226-.935-14.241-.716-12.03-1.483-28.663-1.886-47.047s-.35-35.043-.156-47.093c.1-6.025.206-10.9.316-14.267.057-1.664.1-2.966.132-3.877.02-.425.035-.759.046-1.009a1.859,1.859,0,0,1,.031-.343,1.882,1.882,0,0,1,.016.344v1.01c-.011.913-.026,2.215-.045,3.879-.041,3.394-.1,8.263-.17,14.267-.109,12.048-.1,28.7.292,47.079s1.118,35.008,1.75,47.039c.331,6,.6,10.858.788,14.247.091,1.662.163,2.962.214,3.874.019.425.033.759.044,1.009a1.925,1.925,0,0,1,0,.345" transform="translate(306.223 836.679)"/><path class="i" d="M169.866-129.246c-.012-.02.087-.12.322-.182a1.524,1.524,0,0,1,1.009.128,1.718,1.718,0,0,1,.954,1.2,1.622,1.622,0,0,1-.861,1.665,1.623,1.623,0,0,1-1.872-.111,1.72,1.72,0,0,1-.542-1.433,1.515,1.515,0,0,1,.406-.931c.174-.171.31-.2.321-.185a2.125,2.125,0,0,0-.4,1.13,1.441,1.441,0,0,0,.489,1.092,1.221,1.221,0,0,0,1.37.036,1.222,1.222,0,0,0,.669-1.2,1.443,1.443,0,0,0-.689-.978,2.14,2.14,0,0,0-1.176-.233" transform="translate(303.115 786.279)"/><path class="i" d="M168.483-179.813c-.011-.02.088-.119.323-.182a1.523,1.523,0,0,1,1.009.128,1.719,1.719,0,0,1,.954,1.2,1.624,1.624,0,0,1-.861,1.666,1.622,1.622,0,0,1-1.873-.112,1.72,1.72,0,0,1-.542-1.432,1.521,1.521,0,0,1,.406-.931c.175-.17.31-.205.322-.185a2.123,2.123,0,0,0-.4,1.13,1.44,1.44,0,0,0,.488,1.092,1.221,1.221,0,0,0,1.37.036,1.218,1.218,0,0,0,.669-1.2,1.444,1.444,0,0,0-.688-.979,2.123,2.123,0,0,0-1.176-.234" transform="translate(303.576 803.173)"/><path class="i" d="M167.671-224.506c-.011-.021.088-.12.323-.182a1.522,1.522,0,0,1,1.009.127,1.72,1.72,0,0,1,.954,1.2,1.623,1.623,0,0,1-.861,1.666,1.625,1.625,0,0,1-1.872-.111,1.724,1.724,0,0,1-.543-1.433,1.519,1.519,0,0,1,.407-.931c.174-.171.31-.205.321-.185a2.118,2.118,0,0,0-.4,1.129,1.443,1.443,0,0,0,.489,1.093,1.221,1.221,0,0,0,1.37.035,1.222,1.222,0,0,0,.669-1.2,1.444,1.444,0,0,0-.689-.978,2.131,2.131,0,0,0-1.176-.233" transform="translate(303.848 818.104)"/><path class="i" d="M166.08-272.324c-.011-.021.088-.119.324-.182a1.51,1.51,0,0,1,1.008.128,1.717,1.717,0,0,1,.954,1.2,1.623,1.623,0,0,1-.861,1.666,1.626,1.626,0,0,1-1.872-.111,1.721,1.721,0,0,1-.542-1.434,1.5,1.5,0,0,1,.406-.93c.174-.171.309-.205.321-.185a2.118,2.118,0,0,0-.4,1.129,1.446,1.446,0,0,0,.49,1.093,1.223,1.223,0,0,0,1.37.036,1.222,1.222,0,0,0,.669-1.2,1.444,1.444,0,0,0-.688-.979,2.134,2.134,0,0,0-1.176-.233" transform="translate(304.379 834.081)"/><path class="c" d="M246.951-324.729l209.422-1.522,5.838,142.381-216.849-2.011,1.589-138.848" transform="translate(277.559 852.025)"/><path class="c" d="M247.749-365.475l99.114-80.2a11.384,11.384,0,0,1,14.377.045L457.17-367l-209.422,1.522" transform="translate(276.763 892.769)"/><path class="m" d="M247.749-365.475l99.114-80.2a11.364,11.364,0,0,1,7.161-2.534,11.366,11.366,0,0,1,7.217,2.579L457.17-367l-209.422,1.522" transform="translate(276.763 892.769)"/><path class="a" d="M245.361-156.034c-.261-.244,16.5-18.55,37.442-40.881s38.131-40.242,38.392-40-16.5,18.547-37.446,40.885-38.127,40.238-38.389,39.993" transform="translate(277.561 822.177)"/><path class="a" d="M534.9-153.063c-.268.237-16.6-17.7-36.464-40.055s-35.765-40.682-35.5-40.921,16.591,17.694,36.467,40.06S535.169-153.3,534.9-153.063" transform="translate(204.866 821.218)"/><path class="q" d="M352.01-242.243l-30.355-24.015c.247-.309.363-.479.339-.5a.011.011,0,0,0-.008,0,2.061,2.061,0,0,0-.482.384l-73.755-58.352,209.422-1.522L352.01-242.243" transform="translate(276.763 852.025)"/><path class="r" d="M358.659-236.411l-.151-.12a2.064,2.064,0,0,1,.482-.384.011.011,0,0,1,.008,0c.024.022-.092.193-.339.5" transform="translate(239.757 822.177)"/><path class="k" d="M263.423-346.188,263.1-411.6l183.376-2.167,2.066,68.82-91.411,72.364-93.7-73.609" transform="translate(271.634 881.261)"/><path class="a" d="M263.349-346.3s.593.444,1.72,1.318l4.975,3.875,18.923,14.8,68.2,53.466h-.235l91.388-72.4-.086.186c-.4-13.129-.811-26.9-1.232-40.918-.283-9.435-.562-18.76-.836-27.9l.233.223-183.377,2.087.146-.149c.072,20.58.129,36.92.168,48.124.012,5.6.02,9.917.026,12.839,0,1.455,0,2.562,0,3.314s-.012,1.129-.012,1.129-.015-.372-.025-1.112-.02-1.85-.036-3.3c-.023-2.918-.058-7.228-.1-12.82-.073-11.216-.179-27.575-.312-48.177v-.147l.147,0L446.4-414.11l.226,0,.007.226c.275,9.141.555,18.466.839,27.9.42,14.017.833,27.789,1.226,40.919l0,.115-.09.071-91.436,72.335-.118.093-.117-.093-68.151-53.646-18.842-14.866-4.926-3.9c-1.11-.883-1.667-1.344-1.667-1.344" transform="translate(271.71 881.377)"/><path class="a" d="M432.105-364.341c0,.127-28.043.4-62.63.611s-62.639.277-62.64.149,28.037-.4,62.636-.612,62.633-.276,62.634-.148" transform="translate(257.02 864.771)"/><path class="a" d="M432.105-336.6c0,.128-28.043.4-62.63.612s-62.639.277-62.64.149,28.037-.4,62.636-.612,62.633-.276,62.634-.149" transform="translate(257.02 855.502)"/><path class="a" d="M432.105-304.618c0,.128-28.043.4-62.63.612s-62.639.276-62.64.149,28.037-.4,62.636-.612,62.633-.277,62.634-.149" transform="translate(257.02 844.818)"/><path class="a" d="M434.994-272.641c0,.127-26.755.393-59.752.594s-59.76.259-59.761.131,26.749-.393,59.757-.594,59.755-.259,59.755-.131" transform="translate(254.133 834.135)"/><path class="a" d="M423.457-244.584a4.333,4.333,0,0,1-.735.051l-2.106.058-7.748.128-25.558.367c-9.985.167-19.026.223-25.569.231l-7.748-.02-2.106-.029a4.342,4.342,0,0,1-.735-.042,4.388,4.388,0,0,1,.734-.051l2.106-.058,7.747-.128,25.564-.367c9.981-.167,19.021-.223,25.564-.231l7.748.019,2.107.03a4.56,4.56,0,0,1,.736.041" transform="translate(242.215 824.77)"/><path class="a" d="M410.881-217.675c0,.128-5.98.232-13.354.232s-13.355-.1-13.355-.232,5.978-.231,13.355-.231,13.354.1,13.354.231" transform="translate(231.183 815.827)"/><path class="a" d="M528.012-283.721a22.15,22.15,0,0,1-22.151,22.151,22.151,22.151,0,0,1-22.151-22.151,22.151,22.151,0,0,1,22.151-22.151,22.151,22.151,0,0,1,22.151,22.151" transform="translate(197.927 845.215)"/><path class="i" d="M519.352-283.721A22.151,22.151,0,0,1,497.2-261.571a22.151,22.151,0,0,1-22.151-22.151A22.151,22.151,0,0,1,497.2-305.873a22.151,22.151,0,0,1,22.151,22.151" transform="translate(200.821 845.215)"/><path class="s" d="M508.875-288.1v18.417h-3.42v-15.549h-3.893V-288.1h7.313" transform="translate(191.963 839.276)"/><path class="c" d="M265.745-464.433,286-464.44l-2.738-3.148,0-7.537a7.382,7.382,0,0,0-7.383-7.379,7.381,7.381,0,0,0-7.379,7.384l0,7.174-2.755,3.513" transform="translate(270.748 904.228)"/><path class="c" d="M276.7-457.389a3.2,3.2,0,0,0,1.917,2.76,3.2,3.2,0,0,0,3.313-.569,3.2,3.2,0,0,0,.885-3.243" transform="translate(267.09 896.189)"/><path class="c" d="M281.651-482.888h-1.988v-4.224h1.987l0,4.223" transform="translate(266.098 905.767)"/><path class="a" d="M294.83-489.058a3.554,3.554,0,0,1-.141-.53c-.086-.381-.2-.9-.355-1.565a18.885,18.885,0,0,0-.719-2.5c-.173-.483-.3-1.027-.542-1.565s-.488-1.117-.754-1.726a30.672,30.672,0,0,0-5.371-7.935,29.77,29.77,0,0,0-10.229-7.04,29.959,29.959,0,0,0-6.873-1.958,29.883,29.883,0,0,0-7.687-.123,29.857,29.857,0,0,0-3.992.7c-.672.143-1.32.4-1.99.6a13.891,13.891,0,0,0-1.982.724,28.313,28.313,0,0,0-7.512,4.5,29.836,29.836,0,0,0-10.028,16.042,29.134,29.134,0,0,0-.582,10.305,28.57,28.57,0,0,0,3.043,10.188l.515.966.067.128-.039.131-4.8,15.744-.421-.38,12.684-6.614.156-.082.144.11a29.856,29.856,0,0,0,13.354,5.8,29.47,29.47,0,0,0,13.118-.9,29.379,29.379,0,0,0,10.375-5.551,30.549,30.549,0,0,0,6.674-7.809,32.831,32.831,0,0,0,3.237-7.872,33.082,33.082,0,0,0,.877-6.36q.009-1.315.016-2.335c-.059-.665-.108-1.23-.15-1.7-.035-.437-.063-.781-.084-1.041a1.854,1.854,0,0,1-.012-.356,2.024,2.024,0,0,1,.062.349c.033.259.076.6.131,1.039q.083.7.2,1.7.013,1.027.031,2.35a32.462,32.462,0,0,1-.8,6.429,32.8,32.8,0,0,1-3.2,7.993,30.766,30.766,0,0,1-6.711,7.964,29.705,29.705,0,0,1-10.5,5.691,29.889,29.889,0,0,1-13.334.961,30.345,30.345,0,0,1-13.618-5.875l.3.028-12.673,6.633-.639.335.218-.715c1.553-5.106,3.155-10.375,4.789-15.746l.028.257-.526-.986a29.184,29.184,0,0,1-3.108-10.417,29.729,29.729,0,0,1,.6-10.531,30.363,30.363,0,0,1,10.256-16.346A28.816,28.816,0,0,1,254-512.5a14.2,14.2,0,0,1,2.018-.73c.682-.2,1.342-.457,2.025-.6a30.267,30.267,0,0,1,4.06-.692,30.269,30.269,0,0,1,7.808.162,30.322,30.322,0,0,1,6.966,2.026,29.985,29.985,0,0,1,10.315,7.21,30.543,30.543,0,0,1,5.342,8.077q.388.927.734,1.753c.239.545.355,1.1.52,1.585a17.745,17.745,0,0,1,.668,2.528l.3,1.581a3.52,3.52,0,0,1,.081.541" transform="translate(281.33 914.987)"/></g></svg>