<svg xmlns="http://www.w3.org/2000/svg" width="28" height="28" viewBox="0 0 28 28"><defs><style>.a{fill:#1fbbfa;}.b{fill:#fff;}</style></defs><g transform="translate(-869 -417)"><rect class="a" width="28" height="28" rx="14" transform="translate(869 417)"/><path class="b" d="M17.846,6H3.9A1.9,1.9,0,0,0,2,7.9v8.874a1.9,1.9,0,0,0,1.9,1.9H17.846a1.9,1.9,0,0,0,1.9-1.9V7.9A1.9,1.9,0,0,0,17.846,6Zm-.507,1.268-6.1,4.063a.634.634,0,0,1-.716,0L4.662,7.268Zm.507,10.141H3.9a.634.634,0,0,1-.634-.634V7.9a.152.152,0,0,1,0-.051L9.79,12.37a1.9,1.9,0,0,0,2.142,0L18.48,8.028v8.747A.634.634,0,0,1,17.846,17.409Z" transform="translate(872.5 418.5)"/></g></svg>