<svg xmlns="http://www.w3.org/2000/svg" width="66.446" height="64.326" viewBox="0 0 66.446 64.326"><defs><style>.a{fill:#b1f1fe;}.b{fill:#2e53bf;}</style></defs><g transform="translate(0 -0.001)"><path class="a" d="M-19993.086,23171.191h-12.1s3.012-5.488-3.02-5.555c.24-6.039,0-6.469,0-6.469l4.166-2.734v-9.066s.119-2.437,4.943-2.262a32.1,32.1,0,0,0,5.441,0l-.529,10.328v1l2.551,1.82,1.969,1.957v5.426s-4.9-.309-4.52,2.836S-19993.086,23171.191-19993.086,23171.191Z" transform="translate(20032.252 -23115.504)"/><g transform="translate(0 0.001)"><path class="b" d="M3.554,47.868a4.279,4.279,0,0,0,8.3-1.468V44.02a4.9,4.9,0,0,1-2.31-.375,7.963,7.963,0,0,1-.2.787,5.12,5.12,0,0,1-1.626,2.549,4.746,4.746,0,0,1-3.351.971,7.3,7.3,0,0,1-.809-.084Zm25.215-6.375h8.557V38.8H30.736a1.978,1.978,0,0,0-1.968,1.968Zm8.557,1.946H28.768V46.4a4.278,4.278,0,0,0,8.557,0V43.439ZM64,49.935a4.635,4.635,0,0,1,1.361,1.1,4.559,4.559,0,0,1,1.089,2.958v6.563a.973.973,0,0,1-1.946,0V53.989a2.628,2.628,0,0,0-.625-1.7,2.673,2.673,0,0,0-1.346-.853,6.194,6.194,0,0,1-7.409-.077,1.859,1.859,0,0,0-.574.162,1.781,1.781,0,0,0-.662.541l-5.228,6.924a.977.977,0,0,1-.776.39h-6.7a1.793,1.793,0,1,0,0,3.587h8a1.749,1.749,0,0,0,.872-.188,5.765,5.765,0,0,0,1.482-1.659L55,56.532a.97.97,0,1,1,1.549,1.17l-3.292,4.363v8.483H64.5V64.959a.973.973,0,0,1,1.946,0v6.563a.97.97,0,0,1-.971.971H.975A.973.973,0,0,1,0,71.522V64.959a.973.973,0,0,1,1.946,0v5.588H13.2V62.064L9.9,57.7a.972.972,0,0,1,1.553-1.17l3.384,4.481q.464.612.927,1.232a1.791,1.791,0,0,0,.633.526,1.7,1.7,0,0,0,.813.188h8.06a1.793,1.793,0,1,0,0-3.587h-6.7a.972.972,0,0,1-.776-.39l-5.228-6.924a1.8,1.8,0,0,0-1.236-.7,6.2,6.2,0,0,1-7.409.081,2.668,2.668,0,0,0-1.332.831,2.635,2.635,0,0,0-.64,1.722v6.563a.973.973,0,0,1-1.946,0V53.989A4.573,4.573,0,0,1,1.119,51a4.685,4.685,0,0,1,1.335-1.063A6.173,6.173,0,0,1,1.347,46.4V40.772a3.919,3.919,0,0,1,3.91-3.914H9.881A3.919,3.919,0,0,1,13.8,40.772V46.4a6.183,6.183,0,0,1-1.008,3.388,3.767,3.767,0,0,1,1.328,1.1l4.933,6.533h3.9V53.475A4.06,4.06,0,0,1,24.5,50.487a10.229,10.229,0,0,1,2.8-1.7,6.179,6.179,0,0,1-.478-2.391V40.772a3.919,3.919,0,0,1,3.914-3.914H38.3a.977.977,0,0,1,.975.975V46.4a6.226,6.226,0,0,1-.43,2.27A10.593,10.593,0,0,1,41.854,50.4,4.124,4.124,0,0,1,43.5,53.475v3.947h3.9l4.933-6.533a3.726,3.726,0,0,1,1.332-1.1A6.178,6.178,0,0,1,52.651,46.4V40.772a3.919,3.919,0,0,1,3.914-3.914H61.19A3.919,3.919,0,0,1,65.1,40.772V46.4A6.2,6.2,0,0,1,64,49.935Zm-1.1-2.067a7.21,7.21,0,0,1-.809.084,4.744,4.744,0,0,1-3.348-.971,5.1,5.1,0,0,1-1.63-2.549,7.949,7.949,0,0,1-.2-.787,4.922,4.922,0,0,1-2.314.375V46.4a4.279,4.279,0,0,0,8.3,1.468Zm-8.3-5.8a3.172,3.172,0,0,0,2.417-.717.984.984,0,0,1,.633-.272A.968.968,0,0,1,58.662,42a7.754,7.754,0,0,0,.3,1.858,3.223,3.223,0,0,0,.986,1.608,2.919,2.919,0,0,0,2.042.544,7.007,7.007,0,0,0,1.166-.169V40.771A1.985,1.985,0,0,0,61.189,38.8H56.565A1.985,1.985,0,0,0,54.6,40.771Zm-42.748,0v-1.3A1.978,1.978,0,0,0,9.881,38.8H5.257a1.978,1.978,0,0,0-1.964,1.968v5.073a6.927,6.927,0,0,0,1.163.169A2.919,2.919,0,0,0,6.5,45.469a3.255,3.255,0,0,0,.99-1.608A7.57,7.57,0,0,0,7.784,42a.973.973,0,0,1,1.641-.658,3.174,3.174,0,0,0,2.424.725Zm16.492,8.395a8.453,8.453,0,0,0-2.553,1.468,2.221,2.221,0,0,0-.9,1.541v3.947h.379a3.74,3.74,0,0,1,3.282,5.537H37.9a3.744,3.744,0,0,1,3.285-5.537h.375V53.475a2.292,2.292,0,0,0-.964-1.6,9.05,9.05,0,0,0-2.752-1.512c-.125.151-.257.3-.394.434a6.2,6.2,0,0,1-8.8,0q-.16-.16-.309-.331ZM8.112,15.374a.973.973,0,0,1,0-1.946H26.13a.973.973,0,0,1,0,1.946Zm0,10.242a.975.975,0,0,1,0-1.95h9.009a.975.975,0,0,1,0,1.95Zm0-5.121a.973.973,0,0,1,0-1.946H26.13a.973.973,0,0,1,0,1.946ZM27.127,30.872a2.691,2.691,0,0,0,.629.993,2.72,2.72,0,0,0,1.939.806h5.72a.973.973,0,0,1,0,1.946H29.7a4.649,4.649,0,0,1-3.315-1.383,4.731,4.731,0,0,1-1.273-2.362H11.537L7.13,35.279A.975.975,0,0,1,5.463,34.6v-3.8a5.922,5.922,0,0,1-4.926-5.82v-10.9a5.916,5.916,0,0,1,5.9-5.9H27.8a5.916,5.916,0,0,1,5.9,5.9v1.8H50.238a4.7,4.7,0,0,1,4.687,4.687v9.373a4.7,4.7,0,0,1-3.716,4.584V38.34a.971.971,0,0,1-1.659.688l-4.411-4.411H39.823a.973.973,0,1,1,0-1.946h5.72a.961.961,0,0,1,.692.291l3.028,3.028V33.646a.974.974,0,0,1,.975-.975,2.751,2.751,0,0,0,2.741-2.741V20.557a2.751,2.751,0,0,0-2.741-2.741H33.705v7.155a5.916,5.916,0,0,1-5.9,5.9h-.677Zm-16-1.946H27.8a3.969,3.969,0,0,0,3.955-3.955v-10.9A3.969,3.969,0,0,0,27.8,10.113H6.438a3.969,3.969,0,0,0-3.955,3.955v10.9a3.969,3.969,0,0,0,3.955,3.955.973.973,0,0,1,.971.975v2.343l3.035-3.031a.966.966,0,0,1,.688-.287ZM51.308,64.9H15.142v5.643H51.308V64.9Z" transform="translate(0 -8.167)"/></g></g></svg>