<svg xmlns="http://www.w3.org/2000/svg" width="185.164" height="152.795" viewBox="0 0 185.164 152.795"><defs><style>.a{fill:#d0a618;}.b{fill:#fff;}.c{fill:#211d1d;}.d{fill:#e42c35;}.e{fill:#b22429;}</style></defs><g transform="translate(-668.362 -636.091)"><path class="a" d="M1125.471-128.506c-26.894,0-48.7-2.885-48.7-6.438s21.8-6.442,48.7-6.442,48.7,2.885,48.7,6.442-21.8,6.438-48.7,6.438" transform="translate(-326.45 917.392)"/><path class="b" d="M1084.15-355.8c-13.605,0-20.206-11-23.012-17.312-1.531-3.447-.835-7.942,2.611-9.474s4.687,4.028,7.7,7.389a17.34,17.34,0,0,0,12.7,5.738,33.269,33.269,0,0,0,14-3.589,6.819,6.819,0,0,1,9.275,2.661,6.842,6.842,0,0,1-2.666,9.294,47.03,47.03,0,0,1-20.612,5.294" transform="translate(-314.327 1095.827)"/><path class="b" d="M1180.858-539.065l-22.847-4.392s-6.989-11.474-4.355-25.176c3.393-17.646-15.792-28.86-11.051-53.523,4.918-25.582,28.583-40.689,50.825-36.455l.035.007.042.008c22.224,4.316,38.6,27.122,33.681,52.7-4.744,24.66-27.886,26.993-31.283,44.64-2.635,13.7-15.047,22.186-15.047,22.186" transform="translate(-374.539 1300.138)"/><path class="b" d="M1280.361-251.1c8.378,0,11.34-39.113,11.34-39.113a7.825,7.825,0,0,0-6.913-8.64,7.821,7.821,0,0,0-8.639,6.912s-4.164,40.842,4.211,40.842" transform="translate(-473.022 1033.794)"/><path class="b" d="M1199.071-254.248c9.777,0,3.66-41.441,3.66-41.441a7.824,7.824,0,0,0-8.574-6.994,7.824,7.824,0,0,0-6.994,8.574s2.909,39.861,11.908,39.861" transform="translate(-407.997 1036.619)"/><path class="b" d="M1312.581-669.292s5.022-.018,7.5-2.791c2.551-2.852-3.773-3.719-6.341-1.58a8.453,8.453,0,0,0-1.667,1.811s-.125-4.3-2.13-5.307a1.91,1.91,0,0,0-2.682,2.572l.863,1.661A8.761,8.761,0,0,0,1304-675.87c-2.137-.678-4.041-.684-3.257,1.142.528,1.23,5.238,4.462,5.238,4.462l6.6.975" transform="translate(-491.828 1313.528)"/><path class="c" d="M1165.6-590.716c.969.685,1.974,1.312,2.983,1.92s2.051,1.159,3.1,1.677c.783.393,1.589.759,2.39,1.092.588-1.023,1.179-2.043,1.784-3.052l.045-.069a1.112,1.112,0,0,1,1.552-.269l.063.045q1.564,1.1,3.181,2.117c1.083.67,2.159,1.35,3.264,1.979s2.219,1.24,3.35,1.812c.272.135.55.271.826.406l-.391-2.334a1.562,1.562,0,0,1,.392-1.306,1.547,1.547,0,0,1,2.187-.083l.018.017a47.291,47.291,0,0,0,7.914,5.837,95.529,95.529,0,0,0,8.839,4.73c1.514.732,3.052,1.42,4.6,2.09q2.307,1.03,4.667,1.971c3.132,1.293,6.309,2.485,9.515,3.667a83.862,83.862,0,0,1-10.023-2.167c-1.646-.469-3.289-.965-4.917-1.5q-2.438-.824-4.84-1.769a75.941,75.941,0,0,1-9.365-4.439,55.984,55.984,0,0,1-5.3-3.464l.168,1.106.006.039a1.485,1.485,0,0,1-.113.836,1.5,1.5,0,0,1-1.978.76c-1.275-.568-2.425-1.157-3.586-1.814s-2.289-1.326-3.4-2.032-2.216-1.431-3.275-2.217c-.744-.544-1.473-1.106-2.2-1.675-.585.84-1.168,1.683-1.767,2.513l-.066.091a.9.9,0,0,1-1.121.279,35.192,35.192,0,0,1-3.2-1.825c-1.02-.662-2.008-1.37-2.964-2.111a33.691,33.691,0,0,1-2.738-2.375,29.432,29.432,0,0,1-2.44-2.656c.909.78,1.873,1.484,2.837,2.172" transform="translate(-389.999 1251.047)"/><path class="c" d="M1172.044-500.436a4.473,4.473,0,0,1-5.724,2.69,4.471,4.471,0,0,1-2.689-5.724,4.47,4.47,0,0,1,5.724-2.69,4.471,4.471,0,0,1,2.69,5.725" transform="translate(-390.439 1187.153)"/><path class="c" d="M1172.4-518.509a19.03,19.03,0,0,1,3.936,1.245,8.062,8.062,0,0,1,1.595,1.036,20.237,20.237,0,0,1,1.557,1.493,4.248,4.248,0,0,0-2.459-3.93,5.044,5.044,0,0,0-2.374-.509,4.307,4.307,0,0,0-2.254.666" transform="translate(-397.115 1196.576)"/><path class="c" d="M1311.967-449.989a4.472,4.472,0,0,0,2.693,5.723,4.473,4.473,0,0,0,5.724-2.689,4.474,4.474,0,0,0-2.69-5.726,4.473,4.473,0,0,0-5.727,2.692" transform="translate(-500.059 1147.633)"/><path class="c" d="M1330.258-460.752a4.264,4.264,0,0,0-1.308-1.952,5.029,5.029,0,0,0-2.151-1.12,4.245,4.245,0,0,0-4.4,1.458,20.358,20.358,0,0,1,2.151-.157,8.031,8.031,0,0,1,1.886.219,19,19,0,0,1,3.825,1.552" transform="translate(-507.963 1155.768)"/><path class="c" d="M1275.232-482.907a11.442,11.442,0,0,0,6.876,14.63,11.445,11.445,0,0,0,14.63-6.878,11.442,11.442,0,0,0-6.88-14.629A11.44,11.44,0,0,0,1275.232-482.907Zm-2.944-1.062a14.578,14.578,0,0,1,18.635-8.757,14.577,14.577,0,0,1,8.76,18.634,14.576,14.576,0,0,1-18.636,8.759,14.576,14.576,0,0,1-8.758-18.635" transform="translate(-470.295 1177.667)"/><path class="c" d="M1130.785-534.982a11.444,11.444,0,0,0,6.877,14.631,11.443,11.443,0,0,0,14.629-6.877,11.444,11.444,0,0,0-6.876-14.63A11.443,11.443,0,0,0,1130.785-534.982Zm-2.944-1.061a14.577,14.577,0,0,1,18.636-8.757,14.576,14.576,0,0,1,8.759,18.634,14.578,14.578,0,0,1-18.635,8.76,14.579,14.579,0,0,1-8.76-18.637" transform="translate(-363.55 1216.149)"/><path class="c" d="M1242.1-481.992l2.622-1.71a13.372,13.372,0,0,0-6.714-5.306,13.355,13.355,0,0,0-8.5-.213l.915,2.993a10.245,10.245,0,0,1,6.525.163,10.262,10.262,0,0,1,5.153,4.073" transform="translate(-439.315 1174.876)"/><path class="c" d="M1228.653-440.47l-6.409-2.274-.116-.042-6.41-2.272a63.042,63.042,0,0,0-2.194,8.047c-.79,3.951.706,7.372,3.564,8.441v0l.031.014.027.006.023.013.034.008h0c2.893.97,6.21-.746,8.084-4.312a63.051,63.051,0,0,0,3.365-7.631" transform="translate(-427.352 1141.802)"/><path class="d" d="M1225.3-409.308c.392-.745.752-1.475,1.084-2.174-1.169-.974-5.142-3.377-13.053.041-.008,3.049,1.416,5.523,3.769,6.4v0l.031.014.027.006.023.013.034.008h0c2.893.97,6.21-.746,8.084-4.312" transform="translate(-427.364 1118.27)"/><path class="b" d="M1318.312-314.048c-4.013-3.545-10.014-1.5-11.628,3.591-1.129,3.559,3.073,6.039,5.033,8.388,2.648,3.177,4.945,6.95,5.116,11.192.164,4.1-1.11,9.88,2.46,11.095,3.261,1.11,5.245-2.394,6.4-4.768a19.53,19.53,0,0,0,1.984-10.649,24.46,24.46,0,0,0-2.373-8.093c-1.312-2.8-3.8-7.93-7-10.756" transform="translate(-496.212 1046.301)"/><path class="c" d="M1237.96-331.636l-.045-.011-1.762-.475-.631-4.6,2.757-1.749,1.376.371.042.011,1.377.372,1.5,2.9-2.856,3.66-1.762-.475" transform="translate(-443.764 1063.037)"/><path class="c" d="M1213.054-289.394l-3.438-6.073,7.17-14.543,1.7.458.023.005.022.006,1.7.458-1.1,16.177-6.026,3.522-.011.045-.017-.028-.027.017.012-.045" transform="translate(-424.619 1042.003)"/><path class="c" d="M1059.378-436.2c-2.1-.4-4.742,1.261-5.872,3.7l-7.034,15.15c-1.131,2.433-.082,4.82,2.328,5.3a5.939,5.939,0,0,0,6.241-3.631l6.294-15.277c1.024-2.481.142-4.839-1.956-5.24" transform="translate(-303.721 1135.298)"/><path class="d" d="M1124.268-451.508l-5.883-1.7-2.882,9.959,5.882,1.7a3.9,3.9,0,0,0,4.834-2.664l.712-2.461a3.9,3.9,0,0,0-2.663-4.833" transform="translate(-355.071 1147.827)"/><path class="d" d="M934.157-592.261c-8.966-6.428-16.938-14.895-19.66-22.089-4.465-11.8-11.132-13.728-11.132-13.728L883.025-557.79s6.49,2.536,16.566-5.054c6.046-4.555,17.043-7.437,27.885-8.145a46.075,46.075,0,0,0,6.682-21.272" transform="translate(-183.199 1277.052)"/><path class="d" d="M1120.4-461.31a41.145,41.145,0,0,1-4.694-1.7c-.95,7.086-2.6,11.685-4.095,14.592a41.241,41.241,0,0,1,4.754,1.047s2.189-.631,3.9-6.534.139-7.4.139-7.4" transform="translate(-352.195 1155.071)"/><path class="e" d="M1072.635-483.587a68.264,68.264,0,0,1-12.626-7.267,46.075,46.075,0,0,1-6.682,21.272,68.635,68.635,0,0,1,15.213.586c1.5-2.907,3.144-7.506,4.095-14.592" transform="translate(-309.123 1175.645)"/><path class="e" d="M891.9-590.451c-5.618,19.411-14.513,33.889-19.866,32.339s-5.142-18.54.476-37.95,14.511-33.887,19.865-32.338,5.142,18.54-.475,37.949" transform="translate(-172.199 1277.374)"/><path class="c" d="M914.129-515.77l-1.088,3.756a6.245,6.245,0,0,0,4.263,7.735l5.107,1.478c.876-2.446,1.709-5.008,2.478-7.667.8-2.759,1.484-5.467,2.064-8.091l-5.09-1.474a6.244,6.244,0,0,0-7.735,4.263" transform="translate(-205.186 1197.391)"/><path class="d" d="M796.335-562.879a26.715,26.715,0,0,1-2.886-11.1,37.051,37.051,0,0,1,1.29-11.537,34.013,34.013,0,0,1,4.805-10.568,35.523,35.523,0,0,1,8.01-8.194,105.768,105.768,0,0,0-5.872,9.488,49.535,49.535,0,0,0-3.884,10.128,57.016,57.016,0,0,0-1.86,10.7,50.642,50.642,0,0,0,.4,11.081" transform="translate(-116.941 1259.466)"/><path class="d" d="M766.554-576.436a19.006,19.006,0,0,1-2.916-6.388,36.3,36.3,0,0,1-1.163-6.979,42.374,42.374,0,0,1,1.349-14.119,41.616,41.616,0,0,1,6-12.836,38.23,38.23,0,0,1,4.521-5.434,19.346,19.346,0,0,1,5.693-4.1,27.293,27.293,0,0,0-4.509,5.121,56.918,56.918,0,0,0-3.6,5.724,57.187,57.187,0,0,0-5.049,12.375,58.593,58.593,0,0,0-1.941,13.217,52.322,52.322,0,0,0,.219,6.747,26.477,26.477,0,0,0,1.391,6.675" transform="translate(-93.997 1275.735)"/><path class="d" d="M830.663-544.519a21.212,21.212,0,0,1-1.373-7.5,27.89,27.89,0,0,1,.983-7.623,27.714,27.714,0,0,1,3-7.042,21.1,21.1,0,0,1,4.986-5.763c-.964,2.364-1.91,4.595-2.737,6.856s-1.559,4.492-2.193,6.815c-.614,2.257-1.137,4.6-1.558,6.955s-.746,4.769-1.109,7.3" transform="translate(-143.463 1235.937)"/></g></svg>