<svg xmlns="http://www.w3.org/2000/svg" width="28" height="28" viewBox="0 0 28 28"><defs><style>.a{fill:#150d85;}.b,.c{fill:#fff;}.c{stroke:#fff;stroke-width:0.4px;}</style></defs><g transform="translate(-872 -480)"><rect class="a" width="28" height="28" rx="14" transform="translate(872 480)"/><g transform="translate(883.904 485.5)"><path class="b" d="M145.172,175.758a1.879,1.879,0,1,0-1.879-1.879A1.879,1.879,0,0,0,145.172,175.758Zm0-3.027a1.152,1.152,0,1,1-1.152,1.152A1.152,1.152,0,0,1,145.172,172.731Zm0,0" transform="translate(-143.576 -165.999)"/><path class="b" d="M111.554,325.122a2.82,2.82,0,0,0-2.043.854,3.014,3.014,0,0,0-.843,2.133.364.364,0,0,0,.363.363h5.044a.364.364,0,0,0,.363-.363,3.014,3.014,0,0,0-.843-2.133A2.82,2.82,0,0,0,111.554,325.122Zm-2.133,2.624a2.223,2.223,0,0,1,.611-1.261,2.141,2.141,0,0,1,3.045,0,2.234,2.234,0,0,1,.611,1.261Zm0,0" transform="translate(-109.957 -314.669)"/><path class="c" d="M5.958,0H-2.765A1.818,1.818,0,0,0-4.582,1.817V14.683A1.818,1.818,0,0,0-2.765,16.5H5.958a1.818,1.818,0,0,0,1.817-1.817V1.817A1.818,1.818,0,0,0,5.958,0Zm1.09,14.683a1.094,1.094,0,0,1-1.09,1.09H-2.765a1.094,1.094,0,0,1-1.09-1.09V1.817A1.094,1.094,0,0,1-2.765.727H5.958a1.094,1.094,0,0,1,1.09,1.09Zm0,0"/><path class="b" d="M143.656,59.6h2.908a.363.363,0,0,0,0-.727h-2.908a.363.363,0,0,0,0,.727Zm0,0" transform="translate(-143.576 -56.163)"/></g></g></svg>