<svg xmlns="http://www.w3.org/2000/svg" width="763.523" height="451.099" viewBox="0 0 763.523 451.099">
  <g id="g10" transform="translate(0 510.901)">
    <g id="g12" transform="translate(0 -510.901)">
      <path id="path14" d="M237.617-409.493v-.589H90.3v-99.642H237.028v100.231h.589v0h.589V-510.9H89.119v102H238.205v-.589h-.589" transform="translate(-10.432 510.901)" fill="#e7e8e5"/>
      <path id="path16" d="M101.534-503.853a2.967,2.967,0,0,1-2.967,2.968,2.968,2.968,0,0,1-2.968-2.968,2.967,2.967,0,0,1,2.968-2.967,2.966,2.966,0,0,1,2.967,2.967" transform="translate(-11.19 510.424)" fill="#999b9b"/>
      <path id="path18" d="M115.258-503.853a2.968,2.968,0,0,1-2.967,2.968,2.968,2.968,0,0,1-2.968-2.968,2.967,2.967,0,0,1,2.968-2.967,2.967,2.967,0,0,1,2.967,2.967" transform="translate(-12.797 510.424)" fill="#e7e8e5"/>
      <path id="path20" d="M128.981-503.853a2.968,2.968,0,0,1-2.968,2.968,2.968,2.968,0,0,1-2.968-2.968,2.967,2.967,0,0,1,2.968-2.967,2.967,2.967,0,0,1,2.968,2.967" transform="translate(-14.403 510.424)" fill="#fabb1e"/>
      <path id="path22" d="M89.786-496.366H237.7v-1.177H89.786Z" transform="translate(-10.51 509.338)" fill="#e7e8e5"/>
      <path id="path24" d="M810.23-128.808V-276.553L841.7-319.5v-80.641h-1.177v80.255l-31.468,42.95v148.13h1.177" transform="translate(-94.702 497.937)" fill="#e7e8e5"/>
      <path id="path26" d="M842.115-403.7h-.589a3.386,3.386,0,0,0,3.385,3.385A3.385,3.385,0,0,0,848.3-403.7a3.384,3.384,0,0,0-3.385-3.385,3.385,3.385,0,0,0-3.385,3.385H842.7a2.211,2.211,0,0,1,2.207-2.207,2.208,2.208,0,0,1,2.207,2.207,2.209,2.209,0,0,1-2.207,2.207A2.211,2.211,0,0,1,842.7-403.7h-.589" transform="translate(-98.503 498.75)" fill="#e7e8e5"/>
      <path id="path28" d="M819.41-124.907V-267.462l31.468-42.949v-56.4H849.7V-310.8l-31.468,42.949v142.942h1.177" transform="translate(-95.777 494.035)" fill="#e7e8e5"/>
      <path id="path30" d="M851.294-370.374h-.589a3.384,3.384,0,0,0,3.385,3.385,3.384,3.384,0,0,0,3.385-3.385,3.384,3.384,0,0,0-3.385-3.385,3.385,3.385,0,0,0-3.385,3.385h1.177a2.211,2.211,0,0,1,2.207-2.207,2.211,2.211,0,0,1,2.207,2.207,2.21,2.21,0,0,1-2.207,2.207,2.21,2.21,0,0,1-2.207-2.207h-.589" transform="translate(-99.578 494.848)" fill="#e7e8e5"/>
      <path id="path32" d="M800.209-118.809h1.177V-314.717h-1.177Z" transform="translate(-93.667 487.937)" fill="#e7e8e5"/>
      <path id="path34" d="M797.631-318.332h-.589a3.384,3.384,0,0,0,3.385,3.385,3.384,3.384,0,0,0,3.385-3.385,3.384,3.384,0,0,0-3.385-3.385,3.385,3.385,0,0,0-3.385,3.385h1.177a2.211,2.211,0,0,1,2.207-2.207,2.211,2.211,0,0,1,2.207,2.207,2.21,2.21,0,0,1-2.207,2.207,2.21,2.21,0,0,1-2.207-2.207h-.589" transform="translate(-93.296 488.757)" fill="#e7e8e5"/>
      <path id="path36" d="M790.04-120.956v-99.713l-21.365-40.3v-72.1H767.5v72.387l21.365,40.3v99.419h1.177" transform="translate(-89.838 490.085)" fill="#e7e8e5"/>
      <path id="path38" d="M764.92-336.676h-.589a3.384,3.384,0,0,0,3.385,3.385,3.384,3.384,0,0,0,3.385-3.385,3.385,3.385,0,0,0-3.385-3.385,3.385,3.385,0,0,0-3.385,3.385h1.177a2.211,2.211,0,0,1,2.207-2.207,2.211,2.211,0,0,1,2.207,2.207,2.211,2.211,0,0,1-2.207,2.207,2.211,2.211,0,0,1-2.207-2.207h-.589" transform="translate(-89.468 490.904)" fill="#e7e8e5"/>
      <path id="path40" d="M781.068-117.68V-213.1l-25.187-44.55v-47.424H754.7v47.734l25.188,44.549v95.106h1.177" transform="translate(-88.341 486.808)" fill="#e7e8e5"/>
      <path id="path42" d="M752.125-308.684h-.589a3.384,3.384,0,0,0,3.385,3.385,3.384,3.384,0,0,0,3.385-3.385,3.386,3.386,0,0,0-3.385-3.385,3.387,3.387,0,0,0-3.385,3.385h1.177a2.211,2.211,0,0,1,2.207-2.207,2.211,2.211,0,0,1,2.207,2.207,2.21,2.21,0,0,1-2.207,2.207,2.21,2.21,0,0,1-2.207-2.207h-.589" transform="translate(-87.97 487.627)" fill="#e7e8e5"/>
      <path id="path44" d="M56.176-114.762v-77.494L24.707-235.2v-44.938H23.53v45.323L55-191.871v77.109h1.177" transform="translate(-2.754 483.89)" fill="#e7e8e5"/>
      <path id="path46" d="M26.544-283.7h-.589a2.211,2.211,0,0,1-2.207,2.207A2.211,2.211,0,0,1,21.54-283.7a2.211,2.211,0,0,1,2.207-2.207,2.211,2.211,0,0,1,2.207,2.207h1.177a3.384,3.384,0,0,0-3.385-3.385,3.385,3.385,0,0,0-3.385,3.385,3.385,3.385,0,0,0,3.385,3.385,3.385,3.385,0,0,0,3.385-3.385h-.589" transform="translate(-2.384 484.703)" fill="#e7e8e5"/>
      <path id="path48" d="M47-110.861v-72.306L15.528-226.115v-20.7H14.351v21.084L45.82-182.782v71.921H47" transform="translate(-1.68 479.989)" fill="#e7e8e5"/>
      <path id="path50" d="M17.365-250.375h-.589a2.211,2.211,0,0,1-2.207,2.207,2.209,2.209,0,0,1-2.207-2.207,2.209,2.209,0,0,1,2.207-2.207,2.21,2.21,0,0,1,2.207,2.207h1.177a3.386,3.386,0,0,0-3.385-3.385,3.384,3.384,0,0,0-3.385,3.385,3.384,3.384,0,0,0,3.385,3.385,3.385,3.385,0,0,0,3.385-3.385h-.589" transform="translate(-1.309 480.802)" fill="#e7e8e5"/>
      <path id="path52" d="M68.014-109.445h1.177V-234.716H68.014Z" transform="translate(-7.961 478.573)" fill="#e7e8e5"/>
      <path id="path54" d="M71.028-238.331H70.44a2.21,2.21,0,0,1-2.207,2.207,2.211,2.211,0,0,1-2.207-2.207,2.21,2.21,0,0,1,2.207-2.207,2.209,2.209,0,0,1,2.207,2.207h1.177a3.384,3.384,0,0,0-3.385-3.385,3.385,3.385,0,0,0-3.385,3.385,3.386,3.386,0,0,0,3.385,3.385,3.386,3.386,0,0,0,3.385-3.385h-.589" transform="translate(-7.591 479.392)" fill="#e7e8e5"/>
      <path id="path56" d="M77.706-116.274v-64.1l21.364-40.3v-72.387H97.893v72.1l-21.364,40.3v64.395h1.177" transform="translate(-8.958 485.402)" fill="#e7e8e5"/>
      <path id="path58" d="M103.739-296.676h-.589a2.21,2.21,0,0,1-2.207,2.207,2.211,2.211,0,0,1-2.207-2.207,2.211,2.211,0,0,1,2.207-2.207,2.21,2.21,0,0,1,2.207,2.207h1.177a3.385,3.385,0,0,0-3.385-3.385,3.386,3.386,0,0,0-3.385,3.385,3.385,3.385,0,0,0,3.385,3.385,3.384,3.384,0,0,0,3.385-3.385h-.589" transform="translate(-11.42 486.222)" fill="#e7e8e5"/>
      <path id="path60" d="M86.17-113v-59.788l25.187-44.549v-47.734h-1.177v47.424L84.993-173.1V-113H86.17" transform="translate(-9.949 482.126)" fill="#e7e8e5"/>
      <path id="path62" d="M116.534-268.684h-.589a2.209,2.209,0,0,1-2.207,2.207,2.21,2.21,0,0,1-2.208-2.207,2.212,2.212,0,0,1,2.208-2.207,2.211,2.211,0,0,1,2.207,2.207h1.177a3.386,3.386,0,0,0-3.384-3.385,3.386,3.386,0,0,0-3.385,3.385,3.384,3.384,0,0,0,3.385,3.385,3.384,3.384,0,0,0,3.384-3.385h-.588" transform="translate(-12.917 482.945)" fill="#e7e8e5"/>
      <path id="path64" d="M827.54-439.089a12.758,12.758,0,0,1-17.277-5.216,12.768,12.768,0,0,1,5.209-17.289,12.78,12.78,0,0,1,17.3,5.221A12.769,12.769,0,0,1,827.54-439.089Zm13.191,9.836,8.217-13.245-4.056-2.513a3.7,3.7,0,0,1-1.72-3.486,21.941,21.941,0,0,0,.073-2.33,3.7,3.7,0,0,1,1.934-3.363l4.2-2.256-7.37-13.741-4.2,2.256a3.7,3.7,0,0,1-3.871-.251,22.245,22.245,0,0,0-1.983-1.228A3.705,3.705,0,0,1,830-472.771l.152-4.77-15.58-.484-.145,4.787a3.71,3.71,0,0,1-2.172,3.226q-.517.244-1.025.517c-.338.181-.672.371-1,.567a3.7,3.7,0,0,1-3.871.028l-4.086-2.531-8.215,13.247,4.064,2.522a3.707,3.707,0,0,1,1.716,3.489,21.8,21.8,0,0,0-.077,2.32,3.7,3.7,0,0,1-1.934,3.36l-4.205,2.256L801-430.5l4.206-2.256a3.7,3.7,0,0,1,3.868.248,21.757,21.757,0,0,0,1.974,1.22A3.706,3.706,0,0,1,813-427.924l-.147,4.781,15.58.485.148-4.783a3.7,3.7,0,0,1,2.167-3.214q.519-.245,1.032-.522t1-.567a3.713,3.713,0,0,1,3.89-.027l4.059,2.518" transform="translate(-92.897 507.053)" fill="#e7e8e5"/>
      <path id="path66" d="M27.2-305.026a8.938,8.938,0,0,1-8.941-8.941,8.945,8.945,0,0,1,8.941-8.95,8.953,8.953,0,0,1,8.948,8.95A8.946,8.946,0,0,1,27.2-305.026Zm4.886,10.44,9.458-5.458-1.672-2.894a2.6,2.6,0,0,1,.092-2.722,15.23,15.23,0,0,0,.818-1.415,2.592,2.592,0,0,1,2.307-1.435h3.343v-10.924H43.092a2.591,2.591,0,0,1-2.307-1.436,15.214,15.214,0,0,0-.818-1.414,2.6,2.6,0,0,1-.092-2.722l1.672-2.895-9.458-5.457-1.674,2.907a2.6,2.6,0,0,1-2.409,1.271q-.4-.019-.8-.02c-.269,0-.538.007-.8.02a2.588,2.588,0,0,1-2.4-1.263l-1.685-2.915L12.856-327.9l1.674,2.9a2.594,2.594,0,0,1-.1,2.722,15.2,15.2,0,0,0-.816,1.408,2.592,2.592,0,0,1-2.306,1.434H7.97v10.924h3.343a2.593,2.593,0,0,1,2.306,1.433,15.2,15.2,0,0,0,.816,1.408,2.6,2.6,0,0,1,.1,2.723l-1.674,2.9,9.459,5.458,1.675-2.9a2.592,2.592,0,0,1,2.4-1.266q.4.019.81.02t.8-.02a2.6,2.6,0,0,1,2.41,1.27l1.673,2.9" transform="translate(-0.933 490.119)" fill="#e7e8e5"/>
      <path id="path68" d="M776.9-408.946a8.937,8.937,0,0,1-8.941,8.94,8.944,8.944,0,0,1-8.948-8.94,8.951,8.951,0,0,1,8.948-8.949A8.945,8.945,0,0,1,776.9-408.946Zm10.44-4.888-5.457-9.458-2.894,1.673a2.6,2.6,0,0,1-2.723-.092,15.168,15.168,0,0,0-1.414-.818,2.594,2.594,0,0,1-1.436-2.307v-3.342H762.493v3.342a2.594,2.594,0,0,1-1.436,2.307,15.179,15.179,0,0,0-1.415.818,2.6,2.6,0,0,1-2.722.092l-2.895-1.673-5.457,9.458,2.907,1.674a2.6,2.6,0,0,1,1.271,2.41q-.019.4-.019.8c0,.268.006.537.019.8a2.587,2.587,0,0,1-1.263,2.4l-2.915,1.685,5.457,9.458,2.9-1.674a2.6,2.6,0,0,1,2.723.1,15.044,15.044,0,0,0,1.408.816,2.6,2.6,0,0,1,1.434,2.306v3.343h10.923v-3.343a2.6,2.6,0,0,1,1.434-2.306,15.032,15.032,0,0,0,1.407-.816,2.6,2.6,0,0,1,2.723-.1l2.9,1.674,5.457-9.458-2.9-1.675a2.6,2.6,0,0,1-1.267-2.4c.014-.267.02-.537.02-.809s-.006-.538-.02-.8a2.6,2.6,0,0,1,1.27-2.411l2.9-1.673" transform="translate(-87.623 501.218)" fill="#e7e8e5"/>
      <path id="path70" d="M57.27-197.036c-7.52-15.46-20.682-23.4-35.515-19.01S4.625-190.977,15.7-185.754s22.144-10.028,27.994-13.163,13.579,1.881,13.579,1.881" transform="translate(-1.025 476.528)" fill="#fabb1e"/>
      <path id="path72" d="M65.555-155.383c-.039-1.864-.11-3.726-.177-5.59q-.2-5.58-.4-11.162c-.253-6.806-.986-13.487-3.8-19.759a30.638,30.638,0,0,0-11.93-13.75,25.143,25.143,0,0,0-6.272-2.707,14.65,14.65,0,0,0-7.319-4.02,29.9,29.9,0,0,0-10.434-.261c-.125.014-.121.212,0,.2a25.121,25.121,0,0,1,9.871.7,20.807,20.807,0,0,1,3.977,1.546,19.126,19.126,0,0,1,2.3,1.46,21.329,21.329,0,0,0-9.064.087,20.385,20.385,0,0,0-3.146,1.038,9.263,9.263,0,0,0-2.471-.21,14.6,14.6,0,0,0-3.213.458,24.275,24.275,0,0,0-6.1,2.664c-.11.064-.007.228.1.167a22.775,22.775,0,0,1,5.955-2.244,19.729,19.729,0,0,1,3.061-.449,15.267,15.267,0,0,1,1.706.014,19.662,19.662,0,0,0-9.593,9.557c-.051.114.121.21.172.094a18.026,18.026,0,0,1,12.222-9.8c.327-.085.662-.128.992-.193a14.225,14.225,0,0,0-.158,1.5q-.15,1.128-.377,2.244a38,38,0,0,1-1.207,4.525,35.69,35.69,0,0,1-1.8,4.389,20.873,20.873,0,0,1-2.508,4.232.1.1,0,1,0,.157.115c.89-1.4,1.928-2.681,2.741-4.133a30.933,30.933,0,0,0,2.011-4.316,29.351,29.351,0,0,0,1.322-4.633q.244-1.248.39-2.516a5.855,5.855,0,0,0,.094-1.534,20.331,20.331,0,0,1,5.267-.108c-.658,3.687-1.366,7.532-3.432,10.734-.068.1.112.207.172.1a43.073,43.073,0,0,0,2.548-5.275,20.011,20.011,0,0,0,1.272-5.493A24.319,24.319,0,0,1,47.2-204.8,28.758,28.758,0,0,1,58.8-192.112a47.712,47.712,0,0,1,4.3,18.179c.494,7.9.6,15.852,1.386,23.731.051.514.867.689.967.106a27.891,27.891,0,0,0,.108-5.288" transform="translate(-2.029 476.026)" fill="#17282f"/>
      <path id="path74" d="M51.2-206.743a8.712,8.712,0,0,0-1.709-1.578c-.616-.51-1.248-1-1.91-1.452a14.181,14.181,0,0,0-4.273-1.982.1.1,0,0,0-.048.191,11.338,11.338,0,0,1,4.218,2.072c.629.461,1.232.957,1.82,1.469a10.794,10.794,0,0,0,1.725,1.464.133.133,0,0,0,.177-.185" transform="translate(-5.055 475.886)" fill="#17282f"/>
      <path id="path76" d="M24.278-199.731a45.283,45.283,0,0,0-3.449,4.564,27.651,27.651,0,0,0-2.566,5.086l.091.035a60.686,60.686,0,0,1,6.067-9.55l-.142-.135" transform="translate(-2.138 474.478)" fill="#17282f"/>
      <path id="path78" d="M43.1-201.475a11.13,11.13,0,0,1-.85,2.8,18.547,18.547,0,0,1-1.432,2.478l.087.062a10.047,10.047,0,0,0,2.386-5.291c.019-.124-.17-.172-.191-.047" transform="translate(-4.778 474.69)" fill="#17282f"/>
      <path id="path80" d="M70.759-195.206s10.65-13.384,31.2-8.64c19.537,4.51,28.553,40.333,8.812,44.619s-16.261-28.865-23.457-34.491c-5.278-4.127-12.87-3.241-16.559-1.488" transform="translate(-8.283 475.079)" fill="#fabb1e"/>
      <path id="path82" d="M116.548-183.909a39.853,39.853,0,0,0-4.235-3.246,18.429,18.429,0,0,0-4.516-2.254,27.216,27.216,0,0,0-2.679-3.447,26.493,26.493,0,0,0-6.211-4.946c.2-.013.407-.034.611-.041a32.185,32.185,0,0,1,3.268.032,18.283,18.283,0,0,1,6.342,1.58c.115.053.2-.128.084-.178a29.041,29.041,0,0,0-6.334-1.91,17.893,17.893,0,0,0-3.21-.274c-.576.006-1.154.044-1.727.1-.107.011-.219.018-.329.026a27.635,27.635,0,0,0-5.925-2.178c.191-.052.379-.112.572-.155a28.308,28.308,0,0,1,3.047-.5,23.851,23.851,0,0,1,6.15.094c.125.018.16-.178.035-.193a38.892,38.892,0,0,0-6.217-.252,26.18,26.18,0,0,0-5.171.671,27.322,27.322,0,0,0-3.748-.429c-7.166-.3-14.979,2.377-19.391,8.266-4.426,5.909-5.277,13.762-6.057,20.876a158.549,158.549,0,0,0-.786,29.875c.047.589.872.482.89-.078.269-8.447.567-16.9,1.376-25.313.374-3.9.79-7.81,1.438-11.673a34.409,34.409,0,0,1,2.833-9.612,17.592,17.592,0,0,1,6.937-7.458,23.4,23.4,0,0,1,9.827-3.023,26.467,26.467,0,0,1,9.221.863,6.072,6.072,0,0,0-.052,1.82,10.205,10.205,0,0,0,.45,2.245,11.73,11.73,0,0,0,.86,1.993c.381.708.86,1.335,1.283,2.012.067.107.24-.013.16-.113a9.359,9.359,0,0,1-1.593-4.052,16.257,16.257,0,0,1-.246-2.1c-.028-.529.018-1.062-.005-1.59a27.183,27.183,0,0,1,8.973,4.738c.5.4.982.824,1.453,1.258a10.043,10.043,0,0,0-1.742,2.141,21,21,0,0,0-1.828,3.255,27.631,27.631,0,0,0-1.9,7.15c-.019.126.176.161.193.036a20.711,20.711,0,0,1,2.338-6.776,27.365,27.365,0,0,1,1.821-3.01c.347-.494.706-.984,1.08-1.457.2-.255.421-.514.613-.789a28.35,28.35,0,0,1,5.83,8.21l-.038.016a13.962,13.962,0,0,0-2.409,3.462,32.433,32.433,0,0,0-1.925,4.113,68.96,68.96,0,0,0-2.452,8.382c-.031.121.168.16.193.034a35.145,35.145,0,0,1,2.915-8.254q.919-1.934,1.946-3.808a35.218,35.218,0,0,0,1.93-3.594,26.364,26.364,0,0,1,2.345,9.52c.006.127.206.109.2-.016a33.234,33.234,0,0,0-4.614-14.611c1.256.536,2.518,1.051,3.727,1.7a20.878,20.878,0,0,1,4.274,3l.126-.151" transform="translate(-6.992 474.706)" fill="#17282f"/>
      <path id="path84" d="M106.629-180.7c-.617,2.03-1.393,4-1.949,6.051a23.279,23.279,0,0,0-.908,6.043l.1,0a58.755,58.755,0,0,1,2.945-12.039.1.1,0,1,0-.185-.06" transform="translate(-12.147 472.26)" fill="#17282f"/>
      <path id="path86" d="M120.961-186.8a11.419,11.419,0,0,0-2.721-1.945,19.805,19.805,0,0,0-3.151-1.115c-.118-.035-.161.166-.035.193a12.329,12.329,0,0,1,3.032,1.249,22.571,22.571,0,0,1,2.794,1.715l.082-.1" transform="translate(-13.458 473.323)" fill="#17282f"/>
      <path id="path88" d="M82.223-218.586s1.964-24.046,19.841-31.839c14.928-6.508,23.474,10.266,12.92,20.534-8.537,8.306-22.226,4.557-32.762,11.305" transform="translate(-9.625 480.583)" fill="#fabb1e"/>
      <path id="path90" d="M110.285-245.2a75.583,75.583,0,0,0-7.95,3.764,59.452,59.452,0,0,0-6.173,4.1c.3-.609.555-1.244.854-1.839.467-.929.967-1.837,1.519-2.717a25.476,25.476,0,0,1,3.937-4.986l-.142-.134a39.25,39.25,0,0,0-4.145,4.824,28.585,28.585,0,0,0-1.7,2.721,10.883,10.883,0,0,0-1.2,2.769l-.2.144A58.774,58.774,0,0,0,86.55-228.2c.05-.237.1-.472.161-.69q.5-1.761,1.083-3.493a29.772,29.772,0,0,1,3.23-7.013c.069-.1-.107-.2-.172-.094a55.848,55.848,0,0,0-3.742,6.838,26.074,26.074,0,0,0-1.235,3.555,15.13,15.13,0,0,0-.581,2.415c-.779.985-1.545,1.982-2.267,3.01-7.673,10.924-11.526,24.14-12.45,37.36a114.758,114.758,0,0,0-.2,11.846,74.013,74.013,0,0,0,1.048,11.888c.049.248.439.173.432-.069-.09-3.474-.449-6.934-.516-10.411a104.211,104.211,0,0,1,.336-10.439,97.109,97.109,0,0,1,3.9-20.461,73.221,73.221,0,0,1,9.091-19.235c.752-.15,1.5-.353,2.24-.544.893-.23,1.787-.458,2.674-.706a26.658,26.658,0,0,0,4.984-1.828c.112-.057.007-.231-.1-.167a16.064,16.064,0,0,1-5.055,1.744c-1.4.279-2.852.461-4.254.782a67.971,67.971,0,0,1,4.157-5.462,31,31,0,0,0,10.17-.759,41.179,41.179,0,0,0,5.205-1.62c1.791-.69,3.486-1.576,5.253-2.316.132-.055.041-.251-.08-.177a29.885,29.885,0,0,1-10.31,3.374,63.816,63.816,0,0,1-9.644.8c1.27-1.457,2.581-2.877,3.981-4.21,4.7-4.471,10.273-8.582,16.456-10.722.121-.042.057-.238-.057-.188" transform="translate(-8.23 480.012)" fill="#17282f"/>
      <path id="path92" d="M98.609-244.874a27.063,27.063,0,0,0-2.192,3.206,17.507,17.507,0,0,0-1.577,3.73l.072.028c.6-1.178,1.1-2.4,1.7-3.578a17.885,17.885,0,0,1,2.134-3.249l-.142-.137" transform="translate(-11.101 479.762)" fill="#17282f"/>
      <path id="path94" d="M116.954-235.809a18.494,18.494,0,0,1-3.665,1.529,33.548,33.548,0,0,1-3.733,1l.017.1a18.08,18.08,0,0,0,3.865-.845,32.509,32.509,0,0,0,3.619-1.625c.111-.055.008-.231-.1-.167" transform="translate(-12.824 478.703)" fill="#17282f"/>
      <path id="path96" d="M61.249-227.187c-.112,1.038-2.7-8.729-17.819-17.4-13.727-7.877-30.111-28.361-16.652-41.3,10.864-10.446,39.485,12.326,34.471,58.7" transform="translate(-2.547 484.856)" fill="#fabb1e"/>
      <path id="path98" d="M73.2-170.121a268.05,268.05,0,0,0-2.4-30.391,136.846,136.846,0,0,0-6.387-27.2c-1.125-3.177-2.409-6.305-3.8-9.384a21.579,21.579,0,0,0-.062-3.6c-.074-1.54-.213-3.075-.355-4.609s-.3-3.069-.481-4.6-.506-3.057-.569-4.585a.1.1,0,1,0-.192.032,32.449,32.449,0,0,1,.542,4.864c.115,1.483.2,2.967.246,4.454s.038,2.975.04,4.463c0,.537-.029,1.107-.049,1.679-1.422-3-2.946-5.959-4.594-8.84,1.023-6.268-.306-12.818-1.586-18.945-.026-.124-.213-.067-.188.057a53.279,53.279,0,0,1,1,9.714c.058,2.572-.062,5.146-.072,7.718-.363-.616-.723-1.235-1.1-1.844-1.959-3.2-4.053-6.337-6.278-9.382a14.669,14.669,0,0,0-.146-4.462,34.578,34.578,0,0,0-1.1-4.882c-.482-1.6-1.037-3.173-1.673-4.72-.654-1.589-1.527-3.093-2.159-4.688-.052-.132-.25-.041-.178.081a22.951,22.951,0,0,1,1.892,4.741,43.005,43.005,0,0,1,1.237,4.7c.319,1.592.581,3.186.8,4.795.148,1.062.241,2.164.425,3.239A115.917,115.917,0,0,0,35.435-274.03l-.135.141a139.272,139.272,0,0,1,15.367,20.906c.166.278.323.562.486.841-.832-.522-1.788-.936-2.572-1.372q-2.2-1.22-4.407-2.419-2.147-1.16-4.282-2.344c-.734-.406-1.456-.83-2.2-1.211a17.728,17.728,0,0,1-2.561-1.42c-.115-.086-.238.089-.115.158,1.454.8,2.741,1.987,4.145,2.883s2.849,1.771,4.316,2.589c2.687,1.5,5.606,2.577,8.251,4.127q2.754,4.817,5.087,9.863-2.41-1.543-4.91-2.938c-1.071-.6-2.145-1.191-3.232-1.762a15.877,15.877,0,0,1-3.044-1.84l-.136.142a28.592,28.592,0,0,0,5.807,4.04c1.942,1.135,3.9,2.23,5.923,3.221q2.425,5.308,4.375,10.815c6.362,18.014,8.7,37.138,9.816,56.131.333,5.663.5,11.322.576,16.993s-.229,11.319-.218,16.98c0,.167.276.206.3.033.68-5.021.8-10.128,1.018-15.186.223-5.143.226-10.315.112-15.462" transform="translate(-4.092 483.796)" fill="#17282f"/>
      <path id="path100" d="M45.083-249.2a72.728,72.728,0,0,1-8.031-4.155,84.609,84.609,0,0,1-7.626-4.842l-.052.072A64.281,64.281,0,0,0,36.7-253a73.182,73.182,0,0,0,8.292,3.976c.116.051.211-.124.095-.171" transform="translate(-3.438 481.321)" fill="#17282f"/>
      <path id="path102" d="M51.916-271.681c-.224-.879-.5-1.742-.8-2.6l.038-.1c-.19-.487-.392-.97-.59-1.454l-.071-.174-.113-.278-.049.015c.053.166.095.334.147.5l.081.277A71.721,71.721,0,0,1,52.8-265.229c.016.108.184.112.177,0a34.555,34.555,0,0,0-1.064-6.447" transform="translate(-5.892 483.439)" fill="#17282f"/>
      <path id="path104" d="M90.5-151.5l-1.077,12.784-3.3,38.988H50.758l-3.3-38.988L46.379-151.5H90.5" transform="translate(-5.429 468.833)" fill="#273e47"/>
      <path id="path106" d="M90.5-151.5l-1.077,12.784H47.456L46.379-151.5H90.5" transform="translate(-5.429 468.833)" fill="#17282f"/>
      <path id="path108" d="M93.516-145.051H42.448v-12.265H93.516v12.265" transform="translate(-4.969 469.513)" fill="#273e47"/>
      <path id="path110" d="M0-92.947l95.441-.286,95.44-.1,190.881-.2,190.881.2,95.44.1,95.44.288-95.44.288-95.44.1-190.881.2-190.881-.2-95.44-.1L0-92.947" transform="translate(0 462.047)" fill="#17282f"/>
      <path id="path112" d="M116.86-109.642H672.042V-481.019H116.86Z" transform="translate(-13.679 507.404)" fill="#e7e8e5"/>
      <path id="path114" d="M121.429-113.571H668.543V-475.888H121.429Z" transform="translate(-14.214 506.803)" fill="#26485f"/>
      <path id="path116" d="M734.766-3.379H34.964V-28.868h699.8V-3.379" transform="translate(-4.093 454.478)" fill="#d4d6d3"/>
      <path id="path118" d="M34.964-32.56l72.309-27.848H662.456l72.31,27.848H34.964" transform="translate(-4.093 458.17)" fill="#e7e8e5"/>
      <path id="path120" d="M124.173-42.436l46.663-17.972H619.778l46.663,17.972H124.173" transform="translate(-14.535 458.17)" fill="#26485f"/>
      <path id="path122" d="M156.448-137.45H641.723V-444.711H156.448Z" transform="translate(-18.313 503.154)" fill="#fff"/>
      <path id="path124" d="M641.669-432.888H155.982v-11.823H641.669v11.823" transform="translate(-18.258 503.154)" fill="#33535f"/>
      <path id="path126" d="M165.849-438.4a2.933,2.933,0,0,1-2.933,2.933,2.932,2.932,0,0,1-2.933-2.933,2.932,2.932,0,0,1,2.933-2.931,2.933,2.933,0,0,1,2.933,2.931" transform="translate(-18.727 502.759)" fill="#bebfbd"/>
      <path id="path128" d="M179.41-438.4a2.933,2.933,0,0,1-2.933,2.933,2.932,2.932,0,0,1-2.933-2.933,2.932,2.932,0,0,1,2.933-2.931,2.933,2.933,0,0,1,2.933,2.931" transform="translate(-20.314 502.759)" fill="#fff"/>
      <path id="path130" d="M192.97-438.4a2.932,2.932,0,0,1-2.933,2.933,2.932,2.932,0,0,1-2.931-2.933,2.932,2.932,0,0,1,2.931-2.931,2.932,2.932,0,0,1,2.933,2.931" transform="translate(-21.901 502.759)" fill="#fabb1e"/>
      <path id="path132" d="M704.915-135.881H696.3V-431.32h8.615v295.439" transform="translate(-81.504 501.586)" fill="#d4d6d3"/>
      <path id="path134" d="M700.877-328.666h0a2.225,2.225,0,0,1-2.225-2.225v-96.246a2.226,2.226,0,0,1,2.225-2.225h0a2.224,2.224,0,0,1,2.224,2.225v96.246a2.225,2.225,0,0,1-2.225,2.225" transform="translate(-81.78 501.357)" fill="#999b9b"/>
      <path id="path136" d="M235.6-291.874H583.081v-52.668H235.6Z" transform="translate(-27.577 491.428)" fill="#fff"/>
      <path id="path138" d="M236.107-292.54H582.415v-51.491H236.107v51.491m347.485,1.177H234.93v-53.845H583.592v53.845" transform="translate(-27.499 491.506)" fill="#d4d6d3"/>
      <path id="path140" d="M270.109-328.377a28.763,28.763,0,0,1,1.384,6.031,47.574,47.574,0,0,1,.381,6.03,46.713,46.713,0,0,1-.377,6.031,28.388,28.388,0,0,1-1.389,6.03,28.388,28.388,0,0,1-1.388-6.03,46.507,46.507,0,0,1-.377-6.031,47.58,47.58,0,0,1,.381-6.03,28.763,28.763,0,0,1,1.383-6.031" transform="translate(-31.411 489.536)" fill="#273e47"/>
      <path id="path142" d="M280.806-314.951a28.662,28.662,0,0,1-6.03,1.383,47.356,47.356,0,0,1-6.031.383,46.708,46.708,0,0,1-6.03-.377,28.39,28.39,0,0,1-6.03-1.389,28.388,28.388,0,0,1,6.03-1.388,46.5,46.5,0,0,1,6.03-.377,47.574,47.574,0,0,1,6.031.381,28.66,28.66,0,0,1,6.03,1.383" transform="translate(-30.046 488.171)" fill="#273e47"/>
      <path id="path144" d="M277.742-324.375a28.735,28.735,0,0,1-3.286,5.242,47.625,47.625,0,0,1-3.994,4.535,46.866,46.866,0,0,1-4.531,4,28.4,28.4,0,0,1-5.246,3.282,28.365,28.365,0,0,1,3.282-5.246,46.57,46.57,0,0,1,4-4.531,47.61,47.61,0,0,1,4.534-3.994,28.748,28.748,0,0,1,5.244-3.286" transform="translate(-30.514 489.068)" fill="#273e47"/>
      <path id="path146" d="M277.742-307.318A28.748,28.748,0,0,1,272.5-310.6a47.609,47.609,0,0,1-4.534-3.994,46.714,46.714,0,0,1-4-4.531,28.443,28.443,0,0,1-3.282-5.246,28.4,28.4,0,0,1,5.246,3.282,46.7,46.7,0,0,1,4.531,4,47.606,47.606,0,0,1,3.994,4.534,28.746,28.746,0,0,1,3.286,5.243" transform="translate(-30.514 489.068)" fill="#273e47"/>
      <path id="path148" d="M323.361-328.377a28.759,28.759,0,0,1,1.383,6.031,47.569,47.569,0,0,1,.381,6.03,46.507,46.507,0,0,1-.377,6.031,28.461,28.461,0,0,1-1.388,6.03,28.318,28.318,0,0,1-1.389-6.03,46.707,46.707,0,0,1-.377-6.031,47.569,47.569,0,0,1,.381-6.03,28.767,28.767,0,0,1,1.384-6.031" transform="translate(-37.644 489.536)" fill="#273e47"/>
      <path id="path150" d="M334.056-314.951a28.644,28.644,0,0,1-6.03,1.383,47.338,47.338,0,0,1-6.03.383,46.713,46.713,0,0,1-6.031-.377,28.39,28.39,0,0,1-6.03-1.389,28.388,28.388,0,0,1,6.03-1.388,46.5,46.5,0,0,1,6.031-.377,47.555,47.555,0,0,1,6.03.381,28.642,28.642,0,0,1,6.03,1.383" transform="translate(-36.279 488.171)" fill="#273e47"/>
      <path id="path152" d="M330.993-324.375a28.735,28.735,0,0,1-3.286,5.242,47.625,47.625,0,0,1-3.994,4.535,46.994,46.994,0,0,1-4.53,4,28.48,28.48,0,0,1-5.246,3.282,28.241,28.241,0,0,1,3.282-5.246,46.4,46.4,0,0,1,4-4.531,47.628,47.628,0,0,1,4.535-3.994,28.738,28.738,0,0,1,5.242-3.286" transform="translate(-36.747 489.068)" fill="#273e47"/>
      <path id="path154" d="M330.993-307.318a28.738,28.738,0,0,1-5.242-3.286,47.627,47.627,0,0,1-4.535-3.994,46.543,46.543,0,0,1-4-4.531,28.319,28.319,0,0,1-3.282-5.246,28.483,28.483,0,0,1,5.246,3.282,46.83,46.83,0,0,1,4.53,4,47.6,47.6,0,0,1,3.994,4.534,28.746,28.746,0,0,1,3.286,5.243" transform="translate(-36.747 489.068)" fill="#273e47"/>
      <path id="path156" d="M376.612-328.377a28.763,28.763,0,0,1,1.383,6.031,47.355,47.355,0,0,1,.381,6.03,46.5,46.5,0,0,1-.377,6.031,28.314,28.314,0,0,1-1.388,6.03,28.392,28.392,0,0,1-1.389-6.03,46.713,46.713,0,0,1-.377-6.031,47.569,47.569,0,0,1,.381-6.03,28.766,28.766,0,0,1,1.384-6.031" transform="translate(-43.877 489.536)" fill="#273e47"/>
      <path id="path158" d="M387.308-314.951a28.672,28.672,0,0,1-6.031,1.383,47.338,47.338,0,0,1-6.03.383,46.694,46.694,0,0,1-6.03-.377,28.4,28.4,0,0,1-6.031-1.389,28.4,28.4,0,0,1,6.031-1.388,46.483,46.483,0,0,1,6.03-.377,47.555,47.555,0,0,1,6.03.381,28.67,28.67,0,0,1,6.031,1.383" transform="translate(-42.512 488.171)" fill="#273e47"/>
      <path id="path160" d="M384.243-324.375a28.669,28.669,0,0,1-3.286,5.242,47.463,47.463,0,0,1-3.994,4.535,46.852,46.852,0,0,1-4.53,4,28.478,28.478,0,0,1-5.246,3.282,28.236,28.236,0,0,1,3.282-5.246,46.566,46.566,0,0,1,4-4.531A47.46,47.46,0,0,1,379-321.089a28.778,28.778,0,0,1,5.242-3.286" transform="translate(-42.98 489.068)" fill="#273e47"/>
      <path id="path162" d="M384.243-307.318A28.778,28.778,0,0,1,379-310.6a47.463,47.463,0,0,1-4.534-3.994,46.705,46.705,0,0,1-4-4.531,28.314,28.314,0,0,1-3.282-5.246,28.482,28.482,0,0,1,5.246,3.282,46.689,46.689,0,0,1,4.53,4,47.441,47.441,0,0,1,3.994,4.534,28.68,28.68,0,0,1,3.286,5.243" transform="translate(-42.98 489.068)" fill="#273e47"/>
      <path id="path164" d="M429.862-328.377a28.689,28.689,0,0,1,1.383,6.031,47.357,47.357,0,0,1,.383,6.03,46.709,46.709,0,0,1-.378,6.031,28.314,28.314,0,0,1-1.388,6.03,28.392,28.392,0,0,1-1.389-6.03,46.716,46.716,0,0,1-.376-6.031,47.573,47.573,0,0,1,.38-6.03,28.766,28.766,0,0,1,1.384-6.031" transform="translate(-50.11 489.536)" fill="#273e47"/>
      <path id="path166" d="M440.558-314.951a28.672,28.672,0,0,1-6.031,1.383,47.324,47.324,0,0,1-6.03.383,46.694,46.694,0,0,1-6.03-.377,28.4,28.4,0,0,1-6.031-1.389,28.4,28.4,0,0,1,6.031-1.388,46.483,46.483,0,0,1,6.03-.377,47.542,47.542,0,0,1,6.03.381,28.67,28.67,0,0,1,6.031,1.383" transform="translate(-48.745 488.171)" fill="#273e47"/>
      <path id="path168" d="M437.494-324.375a28.669,28.669,0,0,1-3.286,5.242,47.444,47.444,0,0,1-3.993,4.535,46.859,46.859,0,0,1-4.531,4,28.439,28.439,0,0,1-5.246,3.282,28.3,28.3,0,0,1,3.282-5.246,46.566,46.566,0,0,1,4-4.531,47.609,47.609,0,0,1,4.534-3.994,28.778,28.778,0,0,1,5.242-3.286" transform="translate(-49.214 489.068)" fill="#273e47"/>
      <path id="path170" d="M437.494-307.318a28.778,28.778,0,0,1-5.242-3.286,47.609,47.609,0,0,1-4.534-3.994,46.705,46.705,0,0,1-4-4.531,28.377,28.377,0,0,1-3.282-5.246,28.442,28.442,0,0,1,5.246,3.282,46.7,46.7,0,0,1,4.531,4,47.421,47.421,0,0,1,3.993,4.534,28.68,28.68,0,0,1,3.286,5.243" transform="translate(-49.214 489.068)" fill="#273e47"/>
      <path id="path172" d="M483.114-328.377a28.757,28.757,0,0,1,1.382,6.031,47.357,47.357,0,0,1,.383,6.03,46.519,46.519,0,0,1-.378,6.031,28.387,28.387,0,0,1-1.387,6.03,28.316,28.316,0,0,1-1.389-6.03,46.718,46.718,0,0,1-.377-6.031,47.569,47.569,0,0,1,.381-6.03,28.692,28.692,0,0,1,1.384-6.031" transform="translate(-56.343 489.536)" fill="#273e47"/>
      <path id="path174" d="M493.81-314.951a28.671,28.671,0,0,1-6.031,1.383,47.337,47.337,0,0,1-6.03.383,46.714,46.714,0,0,1-6.031-.377,28.392,28.392,0,0,1-6.03-1.389,28.39,28.39,0,0,1,6.03-1.388,46.5,46.5,0,0,1,6.031-.377,47.555,47.555,0,0,1,6.03.381,28.669,28.669,0,0,1,6.031,1.383" transform="translate(-54.979 488.171)" fill="#273e47"/>
      <path id="path176" d="M490.745-324.375a28.734,28.734,0,0,1-3.286,5.242,47.625,47.625,0,0,1-3.994,4.535,46.99,46.99,0,0,1-4.53,4,28.489,28.489,0,0,1-5.247,3.282,28.308,28.308,0,0,1,3.283-5.246,46.408,46.408,0,0,1,4-4.531,47.467,47.467,0,0,1,4.535-3.994,28.7,28.7,0,0,1,5.242-3.286" transform="translate(-55.447 489.068)" fill="#273e47"/>
      <path id="path178" d="M490.745-307.318A28.7,28.7,0,0,1,485.5-310.6a47.471,47.471,0,0,1-4.535-3.994,46.543,46.543,0,0,1-4-4.531,28.386,28.386,0,0,1-3.283-5.246,28.493,28.493,0,0,1,5.247,3.282,46.83,46.83,0,0,1,4.53,4,47.6,47.6,0,0,1,3.994,4.534,28.744,28.744,0,0,1,3.286,5.243" transform="translate(-55.447 489.068)" fill="#273e47"/>
      <path id="path180" d="M536.363-328.377a28.765,28.765,0,0,1,1.384,6.031,47.58,47.58,0,0,1,.381,6.03,46.713,46.713,0,0,1-.377,6.031,28.39,28.39,0,0,1-1.389,6.03,28.457,28.457,0,0,1-1.388-6.03,46.713,46.713,0,0,1-.377-6.031,47.569,47.569,0,0,1,.381-6.03,28.838,28.838,0,0,1,1.383-6.031" transform="translate(-62.577 489.536)" fill="#273e47"/>
      <path id="path182" d="M547.06-314.951a28.661,28.661,0,0,1-6.03,1.383,47.351,47.351,0,0,1-6.03.383,46.712,46.712,0,0,1-6.031-.377,28.39,28.39,0,0,1-6.03-1.389,28.388,28.388,0,0,1,6.03-1.388,46.5,46.5,0,0,1,6.031-.377,47.569,47.569,0,0,1,6.03.381,28.659,28.659,0,0,1,6.03,1.383" transform="translate(-61.212 488.171)" fill="#273e47"/>
      <path id="path184" d="M544-324.375a28.668,28.668,0,0,1-3.286,5.242,47.616,47.616,0,0,1-3.994,4.535,46.714,46.714,0,0,1-4.531,4,28.4,28.4,0,0,1-5.246,3.282,28.363,28.363,0,0,1,3.282-5.246,46.744,46.744,0,0,1,4-4.531,47.468,47.468,0,0,1,4.534-3.994A28.737,28.737,0,0,1,544-324.375" transform="translate(-61.68 489.068)" fill="#273e47"/>
      <path id="path186" d="M544-307.318a28.737,28.737,0,0,1-5.242-3.286,47.468,47.468,0,0,1-4.534-3.994,46.889,46.889,0,0,1-4-4.531,28.442,28.442,0,0,1-3.282-5.246,28.4,28.4,0,0,1,5.246,3.282,46.555,46.555,0,0,1,4.531,4,47.6,47.6,0,0,1,3.994,4.534A28.678,28.678,0,0,1,544-307.318" transform="translate(-61.68 489.068)" fill="#273e47"/>
      <path id="path188" d="M483.912-335.169v64.114H465.794v-64.114c0-24.381-18.518-44.206-41.3-44.206s-41.3,19.825-41.3,44.206v64.114H365.079v-64.114c0-34.918,26.653-63.313,59.416-63.313s59.416,28.4,59.416,63.313" transform="translate(-42.734 497.742)" fill="#33535f"/>
      <path id="path190" d="M365.079-307.9l18.118.73v46.714H365.079V-307.9" transform="translate(-42.734 487.139)" fill="#26485f"/>
      <path id="path192" d="M497.264-302.514v42.6H479.146v-43.347l18.118.742" transform="translate(-56.086 486.596)" fill="#26485f"/>
      <path id="path194" d="M338.779-145.567H504.055V-295.509H338.779Z" transform="translate(-39.655 485.689)" fill="#fabb1e"/>
      <path id="path196" d="M515.01-145.567H432.372V-295.509H515.01v149.941" transform="translate(-50.611 485.689)" fill="#f4ac12"/>
      <path id="path198" d="M437.314-207.971l6.919,32.818H414.871l6.919-32.818a14.678,14.678,0,0,1-6.919-12.4,14.638,14.638,0,0,1,14.68-14.68,14.638,14.638,0,0,1,14.682,14.68,14.68,14.68,0,0,1-6.919,12.4" transform="translate(-48.562 478.613)" fill="#26485f"/>
      <path id="path200" d="M362.318-209.545s-8.64,69.176-22.841,84.743c-17.047,18.674-29.419,15.944-36.3,25.571l-.015.014c-6.882-9.642-19.255-6.9-36.316-25.586-14.2-15.567-22.827-84.743-22.827-84.743,37.42-18.166,59.143-38.523,59.143-38.523l.015.014c.667.624,22.3,20.634,59.142,38.509" transform="translate(-28.563 480.136)" fill="#e7e8e5"/>
      <path id="path202" d="M303.177-248.055V-99.231l-.015.014c-6.882-9.642-19.255-6.9-36.316-25.586-14.2-15.567-22.827-84.743-22.827-84.743,37.42-18.166,59.143-38.523,59.143-38.523l.015.014" transform="translate(-28.563 480.136)" fill="#d4d6d3"/>
      <path id="path204" d="M354.357-202.442s-7.3,58.438-19.293,71.591c-14.413,15.8-24.871,13.478-30.686,21.614-5.816-8.136-16.272-5.816-30.686-21.614-12-13.154-19.279-71.591-19.279-71.591,31.609-15.35,49.965-32.547,49.965-32.547s18.37,17.2,49.979,32.547" transform="translate(-29.78 478.605)" fill="#d4d6d3"/>
      <path id="path206" d="M254.431-202.436s7.3,58.431,19.294,71.59c14.4,15.786,24.847,13.481,30.67,21.594V-234.969c-.562.526-18.846,17.419-49.964,32.532" transform="translate(-29.782 478.603)" fill="#bebfbd"/>
      <path id="path208" d="M331.111-166.848a23.172,23.172,0,0,1-23.173,23.171,23.171,23.171,0,0,1-23.172-23.171,23.172,23.172,0,0,1,23.172-23.173,23.173,23.173,0,0,1,23.173,23.173" transform="translate(-33.333 473.341)" fill="#fabb1e"/>
      <path id="path210" d="M306.651-150.346,296.33-161.079l3.83-3.681,5.69,5.916,12.265-18.814,4.45,2.9-15.913,24.412" transform="translate(-34.686 471.894)" fill="#fff"/>
      <path id="path212" d="M392.167-50.3l-.538,2.756a5.767,5.767,0,0,1-6.766,4.554l-164.4-32.1,2.748-14.075,164.4,32.094a5.769,5.769,0,0,1,4.556,6.766" transform="translate(-25.806 461.536)" fill="#fabb1e"/>
      <path id="path214" d="M240.308-71.21l-19.849-3.876,2.75-14.083,19.847,3.875h0l-19.843-3.873L220.467-75.09l19.843,3.873v.007" transform="translate(-25.806 461.536)" fill="#142228"/>
      <path id="path216" d="M240.31-71.217,220.467-75.09l2.748-14.075,19.843,3.873L240.31-71.217" transform="translate(-25.806 461.536)" fill="#f4ac12"/>
      <path id="path218" d="M205.373-106.7c-1.449,7.427-7.939,12.783-15.96,14.066,6.947,4.221,10.949,11.609,9.5,19.038-1.939,9.927-12.9,16.169-24.463,13.911s-19.357-12.161-17.418-22.09c1.449-7.428,7.939-12.783,15.96-14.066-6.949-4.206-10.948-11.608-9.5-19.037,1.941-9.942,12.88-16.159,24.446-13.9S207.315-116.644,205.373-106.7Zm-53.681-6.259-4.875,24.971a32.513,32.513,0,0,0,4.941,24.426A32.454,32.454,0,0,0,172.518-49.8a32.555,32.555,0,0,0,38.193-25.715l4.875-24.971a32.45,32.45,0,0,0-4.943-24.412,32.461,32.461,0,0,0-20.775-13.767,32.538,32.538,0,0,0-38.175,25.7" transform="translate(-17.114 467.401)" fill="#fabb1e"/>
      <path id="path220" d="M230.778-95.376,225.551-68.6a2.66,2.66,0,0,1-3.121,2.1l-1.273-.248a2.661,2.661,0,0,1-2.1-3.121l5.227-26.777a2.661,2.661,0,0,1,3.121-2.1l1.271.248a2.66,2.66,0,0,1,2.1,3.121" transform="translate(-25.636 462.663)" fill="#fabb1e"/>
      <path id="path222" d="M238.13-93.941,232.9-67.163a2.661,2.661,0,0,1-3.121,2.1l-1.271-.248a2.662,2.662,0,0,1-2.1-3.122l5.227-26.776a2.662,2.662,0,0,1,3.122-2.1l1.271.248a2.658,2.658,0,0,1,2.1,3.12" transform="translate(-26.496 462.495)" fill="#fabb1e"/>
      <path id="path224" d="M364.334-70.345l4.9.957,2.777-14.224,4.182.816-1.447,7.414,4.884.952,1.447-7.412,3.707.723-2.289,11.724,4.9.956,2.289-11.724,5.259,1.026-3.057,15.661,4.9.957,3.057-15.661,4.972.97L400.9-57.193l-43.748-8.541,3.907-20.015,6.049,1.181-2.777,14.224" transform="translate(-41.806 461.136)" fill="#fabb1e"/>
      <path id="path226" d="M550.017-151.32,517.938-125.4c-6.157,4.923-11.465,9.348-14,11.893l-.04.043c-.956.959-1.509,1.643-1.539,1.974l-.009.067c.224,2.824,38.123,53.169,40.036,54.48s5.8-4.037,5.887-7.165S542.466-93,542.466-93l31.8-26.2L550.017-151.32" transform="translate(-58.802 468.811)" fill="#e84e4b"/>
      <path id="path228" d="M524.52-127.981l-6.582,5.317c-6.157,4.923-11.465,9.348-14,11.893l-.04.043a10.735,10.735,0,0,0-1.539,1.974l-.009.067c.224,2.824,38.123,53.169,40.036,54.48s5.8-4.037,5.887-7.165-5.807-28.9-5.807-28.9l6.753-5.306-24.7-32.4" transform="translate(-58.802 466.079)" fill="#e7e8e5"/>
      <path id="path230" d="M542.384-53.528c-1.915-1.313-39.813-51.654-40.035-54.486-.1-1.074,6.909-7.025,15.589-13.969l.274-.215,24.812,32.2-.56.4s5.887,25.756,5.805,28.9c-.087,3.122-3.976,8.483-5.885,7.165" transform="translate(-58.802 465.402)" fill="#fabb1e"/>
      <path id="path232" d="M544.282-53.494c-6.179-8.644-31.921-42.919-38.687-50.994l-.053.042c5.938,8.7,31.958,42.766,38.6,51.057.14.174.271.078.139-.1" transform="translate(-59.175 463.329)" fill="#17282f"/>
      <path id="path234" d="M548.682-83.191C546.79-87,543.2-90.7,538.9-91.457c-.166-.029-.206.207-.091.29a58.745,58.745,0,0,1,9.437,8.281.267.267,0,0,0,.432-.3" transform="translate(-63.062 461.804)" fill="#17282f"/>
      <path id="path236" d="M549.092-79.223c-1.892-3.807-5.479-7.506-9.778-8.267-.167-.03-.207.207-.091.291a58.616,58.616,0,0,1,9.436,8.281.268.268,0,0,0,.433-.3" transform="translate(-63.11 461.34)" fill="#17282f"/>
      <path id="path238" d="M549.5-75.254c-1.891-3.809-5.478-7.506-9.778-8.268-.167-.029-.206.208-.091.291a58.72,58.72,0,0,1,9.437,8.281.267.267,0,0,0,.432-.3" transform="translate(-63.158 460.875)" fill="#17282f"/>
      <path id="path240" d="M569.5-200.275c-2.27,11.215-48.8,55.968-48.8,55.968l32.442,37.449s66.067-65.949,62.618-90.729c-3-21.556-35.271-108.237-35.271-108.237H543.255S571.733-211.3,569.5-200.275" transform="translate(-60.949 486.896)" fill="#273e47"/>
      <path id="path242" d="M569.5-200.275c-2.27,11.215-48.8,55.968-48.8,55.968l32.442,37.449s66.067-65.949,62.618-90.729c-3-21.556-35.271-108.237-35.271-108.237H543.255S571.733-211.3,569.5-200.275" transform="translate(-60.949 486.896)" fill="#273e47"/>
      <path id="path244" d="M558.158-94.671c-4.31-5.366-3-3.887-7.368-9.2-2.138-2.6-16.21-19.688-18.629-21.766l-.108.089c1.622,2.748,15.988,19.586,18.176,22.147,4.472,5.232,3.246,3.681,7.776,8.863l.154-.129" transform="translate(-62.278 465.805)" fill="#17282f"/>
      <path id="path246" d="M575.677-205.221c-.532-2.8-1.138-5.588-1.731-8.376q-1.817-8.542-3.841-17.035-4.023-16.847-8.747-33.5c-3.174-11.143-6.528-22.264-10.392-33.188-.478-1.35-.97-2.7-1.462-4.04l-.164.049c3.346,10.944,6.8,21.856,9.933,32.862q4.687,16.444,8.741,33.05c1.369,5.555,2.643,11.136,3.887,16.721q.918,4.116,1.793,8.242a59.082,59.082,0,0,1,1.559,8.494,12.925,12.925,0,0,1-2.188,7.652c-1.4,2.283-3.037,4.432-4.624,6.584-3.18,4.313-33.485,38.082-34.46,39l.118.112c4.068-3.651,29.778-31.482,33.043-35.789q2.423-3.2,4.735-6.475a25.5,25.5,0,0,0,3.7-6.517,15.344,15.344,0,0,0,.1-7.843" transform="translate(-62.504 486.374)" fill="#17282f"/>
      <path id="path248" d="M577.037-305.829l-6.757,88.706c-6.451-30.362-24.028-88.706-24.028-88.706h30.785" transform="translate(-63.941 486.897)" fill="#17282f"/>
      <path id="path250" d="M563.037-98.973l8.036,39.164c.107,7.88.343,14.788.8,18.351l.008.057a5.519,5.519,0,0,0,.615,2.427l.047.048c2.367,1.557,65.377,2.536,67.585,1.83s.371-7.056-2.044-9.046C635.648-48.131,611.7-59.295,611.7-59.295L603.274-98.4l-40.236-.57" transform="translate(-65.905 462.684)" fill="#e84e4b"/>
      <path id="path252" d="M641.009-32.808c-2.208.7-65.223-.269-67.588-1.825l-.051-.053a5.509,5.509,0,0,1-.612-2.425l-.011-.062c-.457-3.558-.684-10.464-.8-18.343l-1.39-6.812H611l1.574,7.32s23.954,11.167,26.391,13.158c2.405,1.992,4.262,8.348,2.043,9.042" transform="translate(-66.786 458.395)" fill="#e7e8e5"/>
      <path id="path254" d="M641.192-31.948c-2.212.706-65.215-.271-67.589-1.833-.912-.577-1.306-9.767-1.461-20.882,0-.117,0-.232,0-.349l40.654.177-.027.69s23.949,11.16,26.379,13.154c2.41,1.985,4.258,8.346,2.045,9.044" transform="translate(-66.971 457.538)" fill="#fabb1e"/>
      <path id="path256" d="M641.1-31.785c-10.615-.426-53.476-1.14-64-.755v.069c10.514.65,53.378,1.018,64,.86.225,0,.227-.165,0-.174" transform="translate(-67.551 454.92)" fill="#17282f"/>
      <path id="path258" d="M620.354-53.879c-4.169-.844-9.289-.283-12.528,2.645-.127.113.036.291.173.251a58.818,58.818,0,0,1,12.329-2.369.267.267,0,0,0,.026-.527" transform="translate(-71.143 457.447)" fill="#17282f"/>
      <path id="path260" d="M623.738-51.766c-4.166-.847-9.289-.284-12.528,2.644-.125.113.038.291.173.251a58.828,58.828,0,0,1,12.331-2.369.266.266,0,0,0,.025-.526" transform="translate(-71.539 457.2)" fill="#17282f"/>
      <path id="path262" d="M627.124-49.654c-4.167-.847-9.29-.284-12.528,2.645-.126.112.036.29.174.25A58.7,58.7,0,0,1,627.1-49.127a.267.267,0,0,0,.026-.528" transform="translate(-71.935 456.953)" fill="#17282f"/>
      <path id="path264" d="M576.6-305.825a151.512,151.512,0,0,0-3.2,18.577c-.776,7.791-1.749,14.684-2.788,15.542-1.177.968-7.06,4.748-9.043,5.957,0,0,18.346,55.609,23.079,74.146,6.863,26.874,23.3,107.5,23.3,107.5l-43.8,0s-13.316-76.755-19.138-102.339c-4.992-21.934-24.111-87.735-24.111-87.735a38.206,38.206,0,0,1,1.547-31.64H576.6" transform="translate(-60.654 486.896)" fill="#273e47"/>
      <path id="path266" d="M612.7-64.376c-6.883-.036-4.907-.122-11.79-.082-3.368.02-25.5.17-28.64.74l0,.14c3.155.472,25.283-.065,28.65-.149,6.881-.173,4.9-.2,11.782-.448a.1.1,0,0,0,0-.2" transform="translate(-66.986 458.645)" fill="#17282f"/>
      <path id="path268" d="M579.47-269.674a83.5,83.5,0,0,0-12.081,8.087.149.149,0,0,0,.162.25c4.094-2.565,8.288-5.062,12.238-7.85a.291.291,0,0,0-.319-.486" transform="translate(-66.408 482.67)" fill="#17282f"/>
      <path id="path270" d="M576.379-303.949c-.037-.15-.307-.142-.281.021a148.071,148.071,0,0,1,1.541,14.772c.147,2.292.267,15.063-3.792,14.762-.68-.051-1.115-.645-1.372-1.618a15.888,15.888,0,0,1-.074-3.911c.028-2.683-.029-5.36-.215-8.035a72.57,72.57,0,0,0-2.452-14.75.128.128,0,0,0-.251.054,137.152,137.152,0,0,1,1.973,20.58c.014,3.325-.862,8.469,2.612,8.441,3.54-.027,4.507-8.567,4.58-10.873a75.684,75.684,0,0,0-2.269-19.444" transform="translate(-66.66 486.69)" fill="#17282f"/>
      <path id="path272" d="M574.522-270.146a21.588,21.588,0,0,0-.48,2.725,5.934,5.934,0,0,0-.035,2.185c.036.135.221.12.28.016a7.6,7.6,0,0,0,.589-2.212c.174-.848.366-1.692.516-2.543a.443.443,0,0,0-.869-.172" transform="translate(-67.178 482.76)" fill="#17282f"/>
      <path id="path274" d="M528.274-272.27a43.3,43.3,0,0,0,11.1-2.1,26.262,26.262,0,0,0,10.76-6.643,21.049,21.049,0,0,0,4.126-5.772l.142.064a19.342,19.342,0,0,1-2.918,5.783,22.292,22.292,0,0,1-4.741,4.525,24.836,24.836,0,0,1-12.047,4.65,19.353,19.353,0,0,1-6.482-.1c-.24-.039-.145-.384.061-.4" transform="translate(-61.813 484.668)" fill="#17282f"/>
      <path id="path276" d="M562.955-99.207c-.115-1.014-.253-2.026-.4-3.036-.274-1.941-.6-3.874-.9-5.811-.6-3.893-1.268-7.775-1.957-11.653-1.374-7.734-2.961-15.442-4.634-23.117-.945-4.337-2.045-8.626-3.206-12.91-.08-.3-.5-.154-.45.135.705,3.923,1.383,7.848,2.186,11.751s1.6,7.785,2.372,11.683c1.529,7.706,2.954,15.43,4.478,23.136.43,2.176.821,4.357,1.246,6.534q.318,1.629.665,3.253c.233,1.077.569,2.138.746,3.224l.154-.046c-.17-1.038-.187-2.1-.307-3.146" transform="translate(-64.544 469.347)" fill="#17282f"/>
      <path id="path278" d="M595.062-169.614c-1.459-7.266-3.426-14.44-5.4-21.579-3.98-14.371-8.666-28.533-13.34-42.69q-2.022-6.119-4.04-12.239c-.675-2.038-3.977-13.036-4.386-14.08a.089.089,0,0,0-.171.052c.947,3.746,2.245,9.207,3.339,12.917,1.081,3.665,2.26,7.3,3.4,10.951,2.236,7.169,4.512,14.328,6.683,21.518,4.293,14.211,8.557,28.418,12.042,42.853.976,4.043,1.948,8.082,2.839,12.145s1.651,8.137,2.5,12.2c.022.111.21.081.2-.032-.732-7.4-2.2-14.726-3.664-22.017" transform="translate(-66.454 481.563)" fill="#17282f"/>
      <path id="path280" d="M562.52-136.68c-2.411-13.863-5.3-27.652-8.5-41.353q-4.824-20.654-10.739-41.031c-3.945-13.576-8.316-27.035-13.01-40.369a168.957,168.957,0,0,1-5.949-19.2c-1.442-6.476-2.176-13.482-.667-20.013a33.315,33.315,0,0,1,1.5-4.866c.044-.109-.114-.2-.162-.089-5.267,12.272-1.849,25.7,2.161,37.8,2.2,6.629,4.541,13.208,6.708,19.847q3.334,10.223,6.393,20.534c4.043,13.62,7.8,27.321,11.157,41.125s6.354,27.693,8.99,41.649c2.643,14.009,4.866,28.074,7.12,42.149.293,1.83.525,3.671.765,5.509l.161,0c-1.688-13.946-3.52-27.836-5.926-41.68" transform="translate(-61.137 486.643)" fill="#17282f"/>
      <path id="path282" d="M566.715-373.151c5.151,18.826,20,41.555,27.044,44.682,6.152,2.731,34.662-7.815,45.419-14.667,3.067-1.953-9.589-19.578-13.277-18.348-12.036,4.014-25.144,9.944-26.158,9.6-2.046-.692-14.832-16.377-24.139-26.916-10.427-11.81-10.943-1.854-8.889,5.647" transform="translate(-66.224 496.076)" fill="#e84e4b"/>
      <path id="path284" d="M671.62-356.872c2.422-1.016,21.086-1.61,21.079-5.656s-23.75-2.915-23.75-2.915l2.671,8.57" transform="translate(-78.303 493.892)" fill="#e84e4b"/>
      <path id="path286" d="M631.438-356.43c3.262-4.052,6.129-8.424,8.965-9.224,1.965-.556,23.092.357,26.393.157s15.079.1,15.35,3c.383,4.091-13.554,4.056-15.041,6.145-5.136,7.219-24.664,17.894-24.664,17.894l-11-17.97" transform="translate(-73.912 493.921)" fill="#e84e4b"/>
      <path id="path288" d="M687.346-362.422a3.162,3.162,0,0,0-1.35-1.82c-1.442-1.015-3.341-1.1-5.04-1.237a46.327,46.327,0,0,0-7.742-.06l0,.088c1.934.028,3.859.051,5.789.212a23.763,23.763,0,0,1,5.232.8,4.253,4.253,0,0,1,2.014,1.209,1.666,1.666,0,0,1,.4,1.558c-.562,1.781-4.078,2.311-5.7,2.674-2.121.474-4.322.891-6.45,1.328l.042.141c2.213-.439,4.548-.607,6.769-1.009a11.036,11.036,0,0,0,5.183-1.886,2.046,2.046,0,0,0,.853-2" transform="translate(-78.802 493.902)" fill="#17282f"/>
      <path id="path290" d="M622.81-361.128l16.712,24.476s-25.924,12.976-35.808,12.743c-9.435-.224-12.852-1.615-15.828-4.427-1.84-1.74-12.334-16.557-20.891-41.163-7.18-20.656,3.442-17.612,12.915-6.176,4.723,5.7,19.822,22.688,20.576,22.625s22.323-8.078,22.323-8.078" transform="translate(-66.093 496.123)" fill="#fabb1e"/>
      <path id="path292" d="M624.679-353.5c2.51,3.621,4.907,7.319,7.28,11.033,1.162,1.821,5.5,9.238,6.759,11.339l-.233.141c-1.308-1.859-6.03-9.263-7.162-11.105-2.305-3.748-4.587-7.513-6.747-11.348l.1-.061" transform="translate(-73.109 492.477)" fill="#17282f"/>
      <path id="path294" d="M564.789-377.667a16.656,16.656,0,0,1-.154-2.158c0-.119,0-.237.008-.351a15.747,15.747,0,0,0,.146,2.509m-.119-3.018c.009-.128.02-.254.04-.38-.015.122-.029.251-.04.38m.087-.7c.013-.08.027-.158.044-.233-.015.077-.029.154-.044.233" transform="translate(-66.092 495.768)" fill="#e0e1de"/>
      <path id="path296" d="M608.2-316.014a17.963,17.963,0,0,0,1.827-.155,17.943,17.943,0,0,1-1.827.155m-2.91-.08a34.989,34.989,0,0,1-7.8-1.085,35.128,35.128,0,0,0,7.8,1.085" transform="translate(-69.937 488.226)" fill="#e0e1de"/>
      <path id="path298" d="M604-323.821c-.1,0-.2,0-.292,0q-1.2-.028-2.272-.081a35.127,35.127,0,0,1-7.8-1.085,13.039,13.039,0,0,1-5.745-3.262c-1.844-1.735-12.338-16.549-20.892-41.164a44.739,44.739,0,0,1-2.211-8.519,15.761,15.761,0,0,1-.146-2.509c0-.109.011-.217.016-.317,0-.066.007-.13.011-.193.011-.13.025-.258.04-.38,0-.019.006-.038.009-.058.012-.091.024-.178.038-.263s.028-.157.044-.233l0-.014a3.618,3.618,0,0,1,1.031-2.014c5.787,7.8,33.219,44.817,42.888,59.473-.9.2-1.748.357-2.545.463a17.977,17.977,0,0,1-1.827.155c-.118,0-.233,0-.346,0" transform="translate(-66.093 496.037)" fill="#f4ac12"/>
      <path id="path300" d="M675.675-369.4v3.408H612.29V-369.4h63.385" transform="translate(-71.671 494.338)" fill="#bebfbd"/>
      <path id="path302" d="M678.974-369.4v3.408h-38.5l2.606-3.408h35.892" transform="translate(-74.97 494.338)" fill="#999b9b"/>
      <path id="path304" d="M646.6-370.5h42.39l22.06-37.465h-42.39L646.6-370.5" transform="translate(-75.687 498.852)" fill="#bebfbd"/>
      <path id="path306" d="M681.257-387.086c-.791,1.734-.208,3.559,1.3,4.076a3.612,3.612,0,0,0,4.166-2.205c.791-1.735.21-3.559-1.3-4.076a3.61,3.61,0,0,0-4.166,2.205" transform="translate(-79.702 496.682)" fill="#fff"/>
      <path id="path308" d="M518.4-302.4c.153.171,66.364-.306,66.96-.991.832-.965-14.85-72.543-21.735-81.336-1.475-1.88-6.276-2.358-10.347-1.808a18.2,18.2,0,0,0-3.133.673l-.1.029a7.528,7.528,0,0,0-2.3,1.153c-11.247,9.17-20.465,40.914-22.6,50.441-3.534,15.7-7.3,31.222-6.747,31.839" transform="translate(-60.674 496.369)" fill="#e7e8e5"/>
      <path id="path310" d="M548.649-385.558s4.319,29.469,5.335,37.1.051,47.973.051,47.973l-41.543,3.506s8.707-26.794,8.8-28.493c0,0,6.891-32.193,14-45.494a40.256,40.256,0,0,1,13.363-14.59" transform="translate(-59.989 496.229)" fill="#fabb1e"/>
      <path id="path312" d="M569.111-384.976s5.607,29.811,6.109,32.271,7.683,50.9,7.683,50.9l10.4.219-5.647-22.127s-12.062-56.689-18.545-61.268" transform="translate(-66.616 496.161)" fill="#fabb1e"/>
      <path id="path314" d="M565.022-377.225c-3.162.36-9.137-4.03-10.8-8.686-.113-.32.828-3.346,1.8-7.077.58-2.266,1.17-4.8,1.543-7.157.073-.483,14.2,5.923,14.2,5.923a37.975,37.975,0,0,0-2.856,8.813,5.416,5.416,0,0,0-.052.982l0,.164c.009,1.881-.436,6.651-3.819,7.038" transform="translate(-64.872 497.94)" fill="#e84e4b"/>
      <path id="path316" d="M569.363-384.411l-.011.162a10.082,10.082,0,0,1-1.523-.16c-8.66-1.567-9.231-12.806-9.237-15.633,2.564.791,13.674,5.836,13.674,5.836a38.07,38.07,0,0,0-2.858,8.817,5.357,5.357,0,0,0-.045.978" transform="translate(-65.385 497.925)" fill="#17282f"/>
      <path id="path318" d="M558.015-422.319c-2.266,5.056-1.4,20.6,1.912,24.454,4.8,5.592,13.622,7.179,18.614,1.186,4.84-5.807,3.354-26.04-.437-29.643-5.583-5.308-16.742-3.466-20.089,4" transform="translate(-65.169 501.357)" fill="#e84e4b"/>
      <path id="path320" d="M571.016-408.927l-.075.1c.086,1.044.009,2.256-.919,2.651l.011.058c1.148-.22,1.234-1.83.984-2.805" transform="translate(-66.723 498.965)" fill="#17282f"/>
      <path id="path322" d="M569.859-410.112c-1.691-.042-1.651,3.342-.085,3.381,1.542.039,1.5-3.346.085-3.381" transform="translate(-66.556 499.104)" fill="#17282f"/>
      <path id="path324" d="M578.44-408.982l.082.092c-.021,1.048.131,2.252,1.083,2.59l-.008.059c-1.158-.15-1.344-1.752-1.157-2.741" transform="translate(-67.701 498.971)" fill="#17282f"/>
      <path id="path326" d="M579.365-410.236c1.686-.147,1.857,3.233.3,3.369-1.538.135-1.708-3.245-.3-3.369" transform="translate(-67.704 499.119)" fill="#17282f"/>
      <path id="path328" d="M568.365-412.166a13.1,13.1,0,0,0,1.306-.477,2.249,2.249,0,0,0,1.238-.741.718.718,0,0,0-.125-.865,1.778,1.778,0,0,0-1.792-.161,2.606,2.606,0,0,0-1.488,1.144.763.763,0,0,0,.861,1.1" transform="translate(-66.416 499.626)" fill="#17282f"/>
      <path id="path330" d="M580.583-413.753a13.264,13.264,0,0,1-1.349-.332,2.246,2.246,0,0,1-1.31-.6.714.714,0,0,1,.031-.873,1.776,1.776,0,0,1,1.762-.354,2.609,2.609,0,0,1,1.6.977.764.764,0,0,1-.738,1.186" transform="translate(-67.632 499.792)" fill="#17282f"/>
      <path id="path332" d="M570.74-397.943c.254.243.509.577.89.605a2.766,2.766,0,0,0,1.123-.278l.046.054a1.41,1.41,0,0,1-1.323.584,1.117,1.117,0,0,1-.836-.917l.1-.048" transform="translate(-66.795 497.679)" fill="#17282f"/>
      <path id="path334" d="M571.961-403.027a3.569,3.569,0,0,0,2.4,1.561,4.543,4.543,0,0,0,1.283.044l.245-.031.231-.039a.262.262,0,0,0,.207-.237v-.008l-.012-.107v-.007l0-.093c.013-.806-.081-2.033-.081-2.033.3.144,1.81.8,1.78.381a53.776,53.776,0,0,0-1.51-10.786.1.1,0,0,0-.191.029c.106,3.362.8,6.682.964,10.057a6.259,6.259,0,0,0-1.691-.492c-.114.035.221,2.367.187,2.73l-.007.039a4.949,4.949,0,0,1-3.707-1.1l-.1.1" transform="translate(-66.95 499.612)" fill="#17282f"/>
      <path id="path336" d="M575.109-400.315a4.239,4.239,0,0,1-1.679,1.334,1.909,1.909,0,0,1-1.157.086c-.839-.211-.869-.979-.723-1.638a4.481,4.481,0,0,1,.363-1.011,5.474,5.474,0,0,0,3.2,1.229" transform="translate(-66.894 498.101)" fill="#17282f"/>
      <path id="path338" d="M573.43-398.847a1.909,1.909,0,0,1-1.157.086c-.839-.211-.869-.979-.723-1.638a1.968,1.968,0,0,1,1.88,1.552" transform="translate(-66.894 497.967)" fill="#f578ba"/>
      <path id="path340" d="M556.359-409.573s-3.757-9.322-2.478-14.148c.578-2.181,3.843-3.182,3.843-3.182a5.077,5.077,0,0,1,2.4-4.781c3.022-2.041,9.281-.453,9.281-.453s5.083-5.277,10.521-1.97.571,9.289.571,9.289,1.642,3.38-3.963,4.9c-5.457,1.481-15.475-2.482-15.475-2.482a36.647,36.647,0,0,1-1.914,10.732,3.337,3.337,0,0,1-2.79,2.1" transform="translate(-64.803 502.04)" fill="#17282f"/>
      <path id="path342" d="M570.9-431.67a10.365,10.365,0,0,0-3.973-1.415,11.187,11.187,0,0,0-3.784-.025,6.2,6.2,0,0,0-5.057,3.894,4.32,4.32,0,0,0,.288,3.355l.062-.042c-1.076-1.886.055-4.363,1.674-5.532a9.357,9.357,0,0,1,6.513-1.269,18.32,18.32,0,0,1,4.219,1.153l.058-.119" transform="translate(-65.301 501.813)" fill="#17282f"/>
      <path id="path344" d="M585.824-430.625a5.048,5.048,0,0,0-2.933-3.74,8.6,8.6,0,0,0-5.543-.705,10.834,10.834,0,0,0-5.053,2.608l.049.055a9.53,9.53,0,0,1,9.546-1.881,5.223,5.223,0,0,1,3.314,3.153,5.175,5.175,0,0,1-.836,4.3,9.713,9.713,0,0,1-4.354,3.142l.022.061a9.989,9.989,0,0,0,4.249-2.576,5.645,5.645,0,0,0,1.536-4.419" transform="translate(-66.989 502.046)" fill="#17282f"/>
      <path id="path346" d="M578.4-417.9a17.8,17.8,0,0,1-7.529.075,36.273,36.273,0,0,1-7.533-2.312c-1.414-.593-2.805-1.241-4.183-1.913l-.033.067a39.632,39.632,0,0,0,7.489,3.719,19.93,19.93,0,0,0,7.62,1.17,16.883,16.883,0,0,0,4.187-.753l-.019-.053" transform="translate(-65.447 500.501)" fill="#17282f"/>
      <path id="path348" d="M559.9-407.209s-2.923-5.286-5.286-4.295-.529,8.4,1.992,9.656a2.684,2.684,0,0,0,3.726-1.057l-.432-4.3" transform="translate(-64.791 499.281)" fill="#e84e4b"/>
      <path id="path350" d="M555.409-409.1l-.02.069c1.76.938,2.549,2.745,3.04,4.587a1.481,1.481,0,0,0-2.161-.636l.04.1a1.652,1.652,0,0,1,1.746.763,8.016,8.016,0,0,1,.71,1.552c.069.174.374.118.332-.079l-.01-.044c.293-2.34-1.183-5.814-3.677-6.316" transform="translate(-65.01 498.985)" fill="#17282f"/>
      <path id="path352" d="M540.135-378.461c-16.668,18.717-29.2,45.073-29.055,51.274.165,6.826,8.849,30.872,17.133,42.173,1.064,1.452,7.513.844,12.975-2.161,5.751-3.167,10.472-8.822,9.341-10.506-4.244-6.317-14.311-30.806-14.221-34.635.084-3.54,8.335-25.209,11.477-37.745,3.021-12.043.1-17.106-7.65-8.4" transform="translate(-59.824 495.911)" fill="#e84e4b"/>
      <path id="path354" d="M517.982-286.907l31.041-15.16s-12.209-27.239-12.231-30.18,8.028-25.98,11.057-36.621,1.855-22.6-11.4-6.508S511.612-335.356,510.293-329s7.689,42.089,7.689,42.089" transform="translate(-59.716 495.956)" fill="#fabb1e"/>
      <path id="path356" d="M541.879-336.9q.961-3.03,1.981-6.042,1.146-3.376,2.385-6.715c.809-2.17,1.714-4.289,2.583-6.433.062-.155.334-.054.277.1-1.031,2.865-2,5.76-2.96,8.653.726-1.319,1.463-2.63,2.237-3.923a.1.1,0,0,1,.171.093c-.866,1.6-1.78,3.172-2.711,4.736q-.348,1.047-.7,2.092c-1.3,3.887-2.556,7.8-3.673,11.741a13.631,13.631,0,0,0-.558,2.707,8.325,8.325,0,0,0,.459,3.087c.566,1.82,1.2,3.624,1.841,5.418,1.294,3.606,2.705,7.167,4.184,10.7,1.682,4.019,3.594,7.995,5.5,11.911l-1.193.333-.064-.068.75-.381c-1.941-3.4-3.794-6.726-5.422-10.287q-2.418-5.287-4.372-10.766c-.671-1.879-1.316-3.768-1.913-5.671a10.638,10.638,0,0,1-.523-5.55,58.8,58.8,0,0,1,1.714-5.74" transform="translate(-63.208 492.789)" fill="#17282f"/>
      <path id="path358" d="M518.441-285.6a31.667,31.667,0,0,1,3.387-1.6c1.011-.471,2.017-.958,3.034-1.417,2.22-1,4.434-2.015,6.659-3s4.432-1.985,6.66-2.951,4.411-2,6.677-2.838l.067.146c-2.063,1.266-4.259,2.318-6.422,3.4-2.133,1.065-4.3,2.064-6.476,3.039-2.216.992-4.459,1.925-6.709,2.836-1.085.438-2.186.838-3.282,1.244a28.2,28.2,0,0,1-3.545,1.257l-.049-.109" transform="translate(-60.685 485.912)" fill="#17282f"/>
    </g>
  </g>
</svg>
