<svg xmlns="http://www.w3.org/2000/svg" width="20.956" height="25.676" viewBox="0 0 20.956 25.676"><defs><style>.a{opacity:0.5;}.b,.c{fill:#3f4772;}.b{stroke:#3f4772;stroke-width:0.5px;}</style></defs><g class="a" transform="translate(0.25 0.25)"><path class="b" d="M28.451,6.61a.362.362,0,0,0-.035-.09.161.161,0,0,0-.028-.043.189.189,0,0,0-.035-.043L24.027,2.107a.189.189,0,0,0-.043-.035.161.161,0,0,0-.043-.028.362.362,0,0,0-.106-.051.3.3,0,0,0-.1,0H8.393A.393.393,0,0,0,8,2.386V26.771a.393.393,0,0,0,.393.393H28.058a.393.393,0,0,0,.393-.393V6.713A.3.3,0,0,0,28.451,6.61ZM24.125,3.334,27.11,6.319H24.125Zm3.54,23.043H8.787V2.78H23.339V6.713a.393.393,0,0,0,.393.393h3.933Z" transform="translate(-8 -1.989)"/><path class="c" d="M16.576,17.506a3.54,3.54,0,0,0-3.516,3.146h7.032A3.54,3.54,0,0,0,16.576,17.506Zm0-.787a4.283,4.283,0,0,1,1.215.173,4.72,4.72,0,0,0,1.089-2.926C18.881,12,17.146,12,16.576,12s-2.3,0-2.3,1.966a4.72,4.72,0,0,0,1.089,2.926,4.283,4.283,0,0,1,1.215-.173Zm3.54-.393a.393.393,0,0,0,.393.393h9.046a.393.393,0,0,0,0-.787H20.509A.393.393,0,0,0,20.116,16.326Zm7.866,1.966a.393.393,0,1,0,0-.787H20.9a.393.393,0,1,0,0,.787ZM16.576,27.732a3.54,3.54,0,0,0-3.516,3.146h7.032A3.54,3.54,0,0,0,16.576,27.732Zm1.215-.614a4.72,4.72,0,0,0,1.089-2.926c0-1.966-1.734-1.966-2.3-1.966s-2.3,0-2.3,1.966a4.72,4.72,0,0,0,1.089,2.926A4.354,4.354,0,0,1,17.791,27.118Zm11.764-.96H20.509a.393.393,0,0,0,0,.787h9.046a.393.393,0,0,0,0-.787Zm-1.573,1.573H20.9a.393.393,0,1,0,0,.787h7.079a.393.393,0,1,0,0-.787Z" transform="translate(-11.07 -8.063)"/></g></svg>