<svg xmlns="http://www.w3.org/2000/svg" width="28" height="28" viewBox="0 0 28 28"><defs><style>.a{fill:#150d85;}.b{fill:#fff;stroke:#fff;stroke-width:0.5px;fill-rule:evenodd;}</style></defs><g transform="translate(-872 -515)"><rect class="a" width="28" height="28" rx="14" transform="translate(872 515)"/><g transform="translate(861.982 512.215)"><g transform="translate(17.017 8.285)"><path class="b" d="M17.824,33.278v7.676a.4.4,0,0,0,.4.4h10.9a.4.4,0,0,0,.4-.4V33.279a.4.4,0,0,0-.4-.4h-10.9a.4.4,0,0,0-.4.4Zm-.807,0a1.207,1.207,0,0,1,1.212-1.207h10.9a1.211,1.211,0,0,1,1.212,1.207v7.676a1.207,1.207,0,0,1-1.212,1.208h-10.9a1.211,1.211,0,0,1-1.212-1.207V33.279Z" transform="translate(-17.017 -26.016)"/><path class="b" d="M27.34,11.716a2.627,2.627,0,0,1,2.624-2.624h1.413A2.624,2.624,0,0,1,34,11.716v1.443a.471.471,0,0,0,.429.277.372.372,0,0,0,.378-.277V11.716a3.432,3.432,0,0,0-3.431-3.431H29.964a3.433,3.433,0,0,0-3.431,3.431v3.027l.807-.155V11.716Z" transform="translate(-24.111 -8.285)"/><path class="b" d="M42.445,42.835v3.8a.4.4,0,1,0,.807,0v-3.8a.4.4,0,1,0-.807,0Z" transform="translate(-35.973 -33.739)"/></g></g></g></svg>