<svg xmlns="http://www.w3.org/2000/svg" width="22.804" height="22.804" viewBox="0 0 22.804 22.804"><defs><style>.a{fill:#707070;}</style></defs><path class="a" d="M22.8,17.406l-1.78-1.78a2.848,2.848,0,0,0-3.995-.017,1.741,1.741,0,0,1-2.208.216,12.155,12.155,0,0,1-3.35-3.343,1.764,1.764,0,0,1,.23-2.216,2.848,2.848,0,0,0-.025-3.982L9.891,4.5a2.843,2.843,0,0,0-4.013,0l-.512.513C2.7,7.687,2.9,13.3,8.45,18.85,11.8,22.2,15.17,23.6,17.9,23.6a6.067,6.067,0,0,0,4.383-1.667l.513-.513A2.842,2.842,0,0,0,22.8,17.406Zm-1.144,2.873-.513.513c-2.1,2.1-6.746,1.719-11.549-3.085S4.4,8.258,6.508,6.154l.509-.512a1.222,1.222,0,0,1,1.725,0l1.78,1.78a1.222,1.222,0,0,1,.017,1.707,3.382,3.382,0,0,0-.43,4.238,13.76,13.76,0,0,0,3.813,3.807,3.381,3.381,0,0,0,4.232-.418,1.223,1.223,0,0,1,1.713.011l1.78,1.78a1.222,1.222,0,0,1,.007,1.733Z" transform="translate(0.04 -4.208) rotate(9)"/></svg>