<svg xmlns="http://www.w3.org/2000/svg" xmlns:xlink="http://www.w3.org/1999/xlink" width="446.383" height="398.338" viewBox="0 0 446.383 398.338"><defs><style>.a{fill:#e9effd;}.b{fill:#bde5f9;}.c{fill:#5382fc;}.d{fill:#d1f0f4;}.e{fill:#a9e2e2;}.f{fill:#42c1d1;}.g{fill:#3b81cb;}.h{fill:#9aaee0;}.i{fill:#629cd9;}.j{clip-path:url(#a);}.k{fill:#81b3e4;}.l{fill:#93c8ed;}.m{fill:#ace4eb;}</style><clipPath id="a"><path d="M193.862-501.963H152.33v-57.826h71.911l-30.379,57.826" transform="translate(-152.33 559.789)"/></clipPath></defs><g transform="translate(1639.392 -17559.871)"><path class="a" d="M436.722-311.6c66.389-14.116,90.729-112.855,57.462-154.76-19.011-23.784-48.711-21.518-73.661-35.109-19.009-11.328-14.257-31.713-27.326-48.7-30.892-41.906-68.909,14.723-102.176,19.254-20.2,2.263-35.642-12.459-51.088-21.52-19.009-10.193-39.744-18.777-61.781-13.591C92.61-545.895,57.662-484.1,63.166-411.224,67.846-349.27,112.5-298.249,172.533-296.333L436.722-311.6" transform="translate(-1702 18129.275)"/><path class="b" d="M331-539.775c12.187,0,18.785-5.48,18.289-13.031s-29.266-10.569-32.255,2.007c-1.906,8.017,6.381,11.024,13.966,11.024" transform="translate(-1746.624 18127.832)"/><path class="b" d="M365.111-551.811c-3.33-.44-1.719-10.6,3.863-7.957,4,1.892,4.933,9.12-3.863,7.957" transform="translate(-1754.811 18127.98)"/><path class="b" d="M531.471-489.752c-.219,3.178,5.649,7.637,10.343,5.518,7.54-3.4,1.831-8.662-2.667-9.447s-7.39-.265-7.676,3.929" transform="translate(-1784.321 18116.355)"/><path class="c" d="M382.31-446.555l-40.5-.778c-10.57-31.109,8.03-39.046,20.791-39.046,11.3,0,32.627,9.673,19.707,39.824" transform="translate(-1750.474 18115.018)"/><path class="d" d="M374.369-406.05l-.206-14.055-16.74-1.081.218,15.413s8.281,14.855,16.728-.278" transform="translate(-1753.763 18103.572)"/><path class="e" d="M357.6-408.029l16.7-3.987-.135-8.089-16.74-1.081.175,13.157" transform="translate(-1753.763 18103.572)"/><path class="d" d="M362.752-465.636s9.231,7.548,20.224,8.488l-6.06,29.558-13.994,6.046-13.362-6.332-7.081-27.571s12.321-3.232,20.274-10.19" transform="translate(-1751.139 18111.375)"/><path class="d" d="M344.766-446.9s-5.469-1.7-5.007,3.4c.614,6.456,7.911,9.769,7.911,9.769l-2.9-13.171" transform="translate(-1750.657 18108.135)"/><path class="d" d="M386.741-445.892s5.55-1.437,4.839,3.633c-.915,6.422-8.362,9.384-8.362,9.384l3.523-13.017" transform="translate(-1758.292 18107.943)"/><path class="f" d="M369.285-437.131a30.817,30.817,0,0,0-2.629-6.674,36.578,36.578,0,0,0,1.649,7.39c.145.463.287.917.426,1.352l.09.269.013.012.043.06c.228,0-.809.4-1.232.653a5.024,5.024,0,0,0-1.151.793,3.715,3.715,0,0,0,1.259.111,10.967,10.967,0,0,0,2.555-.418c-.2-.693-.4-1.422-.621-2.179-.129-.443-.264-.9-.4-1.37" transform="translate(-1755.356 18107.543)"/><path class="d" d="M311.766-297.111l-13.12-51.978,16.4-53.763H397.1l18.547,49.83-5.232,54.648L397.8-297.365l-1.2-52.617L390.5-371.292l-3.635,72.956H331.491l-6.855-70.939-6.561,22.321,3.785,49.843H311.766" transform="translate(-1743.443 18100.352)"/><path class="c" d="M363.978-402.707l33.125-.145,18.547,49.83-5.232,54.648L397.8-297.365l-1.2-52.617L390.5-371.292l-3.635,72.956H329.508l-4.872-70.939-6.561,22.321,3.785,49.843H311.766l-13.12-51.978,16.4-53.763H347.1s-.534,19.72,8.379,19.72,8.5-19.575,8.5-19.575" transform="translate(-1743.443 18100.352)"/><path class="g" d="M145.452-494.726h117.47v-75.067H145.452Z" transform="translate(-1716.546 18129.664)"/><path class="h" d="M152.33-501.513H258.458v-57.825H152.33Z" transform="translate(-1717.753 18127.828)"/><path class="i" d="M152.33-501.963H258.458v-57.826H152.33Z" transform="translate(-1717.753 18127.906)"/><g transform="translate(-1565.423 17568.117)"><g class="j" transform="translate(0 0)"><path class="k" d="M152.33-501.963h71.911v-57.826H152.33Z" transform="translate(-152.33 559.789)"/></g></g><path class="k" d="M219.793-501.963H213.51l30.38-57.826h6.283l-30.38,57.826" transform="translate(-1728.495 18127.908)"/><path class="i" d="M494.109-124.107h-333.2V-300.123h333.2v176.016" transform="translate(-1719.259 18082.316)"/><path class="g" d="M499.733-321.831H152.241l7.144,17.9h333.2l7.145-17.9" transform="translate(-1717.738 18086.127)"/><path class="g" d="M498.34-164.118H154.388v63.89H498.34v-63.89" transform="translate(-1718.115 18058.436)"/><path class="g" d="M448.728-532.338A35.773,35.773,0,0,0,484.5-496.564a35.774,35.774,0,0,0,35.774-35.774A35.774,35.774,0,0,0,484.5-568.113a35.773,35.773,0,0,0-35.774,35.775" transform="translate(-1769.794 18129.369)"/><path class="i" d="M455.866-531.084a29.889,29.889,0,0,0,29.89,29.889,29.889,29.889,0,0,0,29.889-29.889,29.889,29.889,0,0,0-29.889-29.889,29.889,29.889,0,0,0-29.89,29.889" transform="translate(-1771.047 18128.115)"/><path class="l" d="M481.959-517.787l-1.2-1.894,10.488-6.643V-549.5h2.241v24.405l-11.529,7.3" transform="translate(-1775.418 18126.1)"/><path class="i" d="M292.711-350.8H199.753v-62.4h92.958v62.4" transform="translate(-1726.08 18102.17)"/><path class="g" d="M270.593-330.409c-8.677-14.586-8.1-40.279-8.1-40.279H241.943s.575,25.693-8.1,40.279h36.753" transform="translate(-1732.065 18094.705)"/><path class="m" d="M135.469-298.869c-24.151-22.325,40.384-55.618,48.111-48.475,7.377,6.817-21.418,73.148-48.111,48.475" transform="translate(-1713.848 18090.779)"/><path class="m" d="M120-338.938c-32.881-.723-6.594-68.415,3.926-68.184,10.042.22,32.414,68.984-3.926,68.184" transform="translate(-1709.267 18101.104)"/><path class="m" d="M108.61-252.23c-17.81,18.71-43.216-32.355-37.518-38.341,5.438-5.714,57.2,17.66,37.518,38.341" transform="translate(-1703.346 18080.793)"/><path class="m" d="M133.925-222.636c17.81,18.71,43.217-32.355,37.519-38.343-5.439-5.713-57.2,17.663-37.519,38.343" transform="translate(-1713.742 18075.598)"/><path class="f" d="M124.489-220.328h2.2V-368.154h-2.2Z" transform="translate(-1712.865 18094.262)"/><path class="f" d="M119.741-242.5,88.314-273.927l-1.555,1.554,31.428,31.428" transform="translate(-1706.24 18077.717)"/><path class="f" d="M126.435-209.854l24.4-24.4-1.554-1.554-24.4,24.4" transform="translate(-1712.934 18071.023)"/><path class="f" d="M162.576-323.071l-37.7,37.695,1.554,1.554,37.7-37.695" transform="translate(-1712.934 18086.346)"/><path class="f" d="M96.076-192.27l-13.7,87.1h71.634l-13.7-87.1H96.076" transform="translate(-1705.471 18063.379)"/><path class="m" d="M458.6-344.242h24.755v16.851H458.6v-16.851" transform="translate(-1771.528 18090.063)"/><path class="f" d="M524.163-370.688H512.3v2.062h2.866v8.49h-5.743v19.11h13.923v-19.11H517.6v-8.49h6.559v1.474h2.061v-3.536h-2.061" transform="translate(-1780.451 18094.705)"/><path class="f" d="M456.026-322.921h29v-5.116h-29v5.116" transform="translate(-1771.076 18087.217)"/><path class="m" d="M525.611-352.7H505.936v25.447h19.675V-352.7" transform="translate(-1779.839 18091.547)"/></g></svg>