<svg xmlns="http://www.w3.org/2000/svg" width="552.722" height="624.098" viewBox="0 0 552.722 624.098"><defs><style>.a{fill:#dadbd8;}.b{fill:#e7e8e5;}.c{fill:#f3f2f1;}.d{fill:#f03d5f;}.e,.t{fill:#fff;}.f{fill:#5382fc;}.g{fill:#1b56ed;}.h{fill:#f8a58d;}.i{fill:#f68260;}.j{fill:#fcd553;}.k{fill:#ddaa26;}.l{fill:#17282f;}.m{fill:#33535f;}.n{fill:#fafaf9;}.o{fill:#da0;}.p{fill:#0f191d;}.q{fill:#a4a6a5;}.r{fill:#a7a9a8;}.s{fill:#ba2c42;}.t{opacity:0.5;}</style></defs><g transform="translate(0 624.097)"><path class="a" d="M119.4-166.642c-2.658-2.809-6.607-3.872-10.235-5.208a55.832,55.832,0,0,1-33.649-35.82,55.829,55.829,0,0,1,8.48-48.409l-.547-2.827c-1.242-13.135-17.108-22.553-29.234-17.353s-16.24,23.185-7.579,33.14C32.4-241.943,23-225.723,25-211.583S37.353-185.841,48.872-177.4a113,113,0,0,0,65.618,21.676,9.072,9.072,0,0,0,4.658-.84c3.342-1.943,2.907-7.269.249-10.076"/><path class="a" d="M515.859-224.154c3.271-5.307,3.731-12.464.413-17.74s-10.605-7.947-16.267-5.34a12.371,12.371,0,0,0-3.92-16.231,12.369,12.369,0,0,0-16.3,3.636c-3.789,5.853-1.785,13.705,1.469,19.871s7.715,11.956,8.788,18.845c1.1,7.037-1.6,14.241-5.812,19.985S474.4-190.854,468.85-186.4l-1.06,1.021a38.232,38.232,0,0,0,30.605-2.632c5.228-2.892,10.068-7.677,10.409-13.64.192-3.332-1.051-6.669-.545-9.968.748-4.88,5.009-8.333,7.6-12.537"/><path class="a" d="M229.125-6.176c-5.183-.644-10.392-2.915-13.44-7.156-1.952-2.715-2.892-6.022-4.591-8.9s-4.637-5.484-7.965-5.16c-5.155.5-8.628,7.627-13.652,6.372-3.019-.753-4.455-4.3-4.477-7.413s.888-6.215.5-9.3c-1.088-8.676-12.232-12.943-20.545-10.23S144.014-35.228,138.6-28.362c5.7,9.475,17.395,13.156,28.119,15.845q27,6.772,54.469,11.485c4.288.735,8.672,1.435,12.972.759s8.573-2.96,10.559-6.832c-5.165.786-10.407,1.573-15.591.929"/><path class="a" d="M435.551-73.04c-1.321-7.413-8.716-13.941-16.049-12.233,6.083-5.013,6.117-15.093,1.309-21.338s-13.161-8.942-21.039-8.705-15.441,3-22.755,5.939c3.584-4.568-1.663-11.679-7.457-12.061s-10.969,3.307-15.669,6.716-10.125,6.883-15.863,5.987l5.392,2.152c12.865,1.948,25.835,4.955,36.975,11.676s20.311,17.676,22.236,30.544-4.849,27.271-17.056,31.771A51.776,51.776,0,0,0,428.9-52.15c4.621-5.944,7.976-13.479,6.655-20.89"/><path class="a" d="M12.839-265.3c-.192,0-.347-5.56-.347-12.417s.155-12.419.347-12.419.347,5.559.347,12.419-.155,12.417-.347,12.417"/><path class="a" d="M25.677-277.715c0,.192-5.749.348-12.838.348S0-277.523,0-277.715s5.747-.347,12.839-.347,12.838.155,12.838.347"/><path class="a" d="M508.147-137.649c-.191,0-.348-5.56-.348-12.419s.157-12.419.348-12.419.347,5.56.347,12.419-.155,12.419-.347,12.419"/><path class="a" d="M520.985-150.068c0,.192-5.748.348-12.839.348s-12.839-.156-12.839-.348,5.748-.347,12.839-.347,12.839.156,12.839.347"/><path class="a" d="M432.8-563.836c-.192,0-.347-5.56-.347-12.417s.155-12.42.347-12.42.347,5.56.347,12.42-.155,12.417-.347,12.417"/><path class="a" d="M445.64-576.255c0,.192-5.747.347-12.837.347s-12.837-.155-12.837-.347,5.745-.348,12.837-.348,12.837.156,12.837.348"/><path class="a" d="M34.711-381.968a7.589,7.589,0,0,1-7.589,7.588,7.589,7.589,0,0,1-7.59-7.588,7.589,7.589,0,0,1,7.59-7.589,7.589,7.589,0,0,1,7.589,7.589"/><path class="a" d="M329.933-58.777a7.59,7.59,0,0,1-7.589,7.59,7.59,7.59,0,0,1-7.589-7.59,7.589,7.589,0,0,1,7.589-7.588,7.589,7.589,0,0,1,7.589,7.588"/><path class="a" d="M400.55-202.193a7.588,7.588,0,0,1-7.588,7.588,7.588,7.588,0,0,1-7.589-7.588,7.59,7.59,0,0,1,7.589-7.591,7.589,7.589,0,0,1,7.588,7.591"/><path class="a" d="M175.076-580.087a7.589,7.589,0,0,1-7.589,7.588,7.589,7.589,0,0,1-7.589-7.588,7.59,7.59,0,0,1,7.589-7.589,7.59,7.59,0,0,1,7.589,7.589"/><path class="a" d="M211.03-131.138a3.8,3.8,0,0,1-3.795,3.793,3.794,3.794,0,0,1-3.795-3.793,3.8,3.8,0,0,1,3.795-3.8,3.8,3.8,0,0,1,3.795,3.8"/><path class="a" d="M119.472-150.068a3.794,3.794,0,0,1-3.794,3.795,3.8,3.8,0,0,1-3.795-3.795,3.794,3.794,0,0,1,3.795-3.793,3.794,3.794,0,0,1,3.794,3.793"/><path class="a" d="M213.013-572.5a3.794,3.794,0,0,1-3.795,3.795,3.8,3.8,0,0,1-3.795-3.795,3.8,3.8,0,0,1,3.795-3.795,3.8,3.8,0,0,1,3.795,3.795"/><path class="a" d="M380.164-367.186a3.794,3.794,0,0,1-3.795,3.795,3.793,3.793,0,0,1-3.793-3.795,3.793,3.793,0,0,1,3.793-3.793,3.794,3.794,0,0,1,3.795,3.793"/><path class="b" d="M15.76-583.763S7.31-579.4,19.15-561.7s19.6,26.24,19.6,26.24,2.222,4.171-1.379,5.285-11.859.781-12.967,5.48c-1.148,4.873,2.767,8.879,10.105,11.931s23.169,10.329,24.6,10.993c1.4.651,2.954,2.532.623,3.684s-20.338,5.212-17.9,13.641,24.278,13.573,26.654,14.181,3.034,1.508,3,2.777-6.219,2.063-11.294,3.428-10.719,3.836-8.9,8.581,15.432,13.556,45.9,12.944l14.1-1.207,6.239-12.769c11.687-28.141,8.455-44.035,4.7-47.456s-8.118.932-11.24,5.159-6.117,9.692-7.313,9.263-1.793-1.368-1.492-3.8,3.482-24.645-3.477-29.991S81.387-513.4,79.463-511.651s-3.108-.381-3.2-1.924c-.1-1.573-1.094-18.969-1.257-26.915s-2.465-13.052-7.421-13.761c-4.779-.684-7.482,7.127-9.834,10.072s-5.424-.644-5.424-.644-5.117-10.343-17.276-27.825-19.453-11.015-19.453-11.015l.166-.1"/><path class="a" d="M112.4-440.523c-8.879-12.875-24.276-36.023-37.6-55.827s-25.392-37.711-34.2-50.629L30.141-562.267c-1.225-1.795-2.179-3.193-2.839-4.159l-.73-1.089c-.162-.245-.236-.379-.236-.379s.1.116.273.355l.765,1.063,2.907,4.112c2.521,3.573,6.131,8.771,10.569,15.209,8.879,12.875,21,30.763,34.313,50.56s28.678,42.979,37.491,55.9l-.257.176"/><path class="a" d="M35.941-523.763a4.592,4.592,0,0,1,1.011.157c.646.125,1.574.336,2.718.607,2.287.544,5.427,1.377,8.875,2.36l8.818,2.545c1.061.3,1.956.551,2.675.755a4.465,4.465,0,0,1,.973.316A4.633,4.633,0,0,1,60-517.172c-.646-.129-1.574-.339-2.716-.621-2.282-.568-5.41-1.441-8.857-2.423L39.592-522.7l-2.68-.74a4.641,4.641,0,0,1-.971-.324"/><path class="a" d="M61.865-518.035c-.118-.028,1.314-6.576,3.2-14.625s3.509-14.555,3.627-14.527-1.314,6.576-3.2,14.627-3.508,14.553-3.627,14.525"/><path class="a" d="M80.949-486.7a4.767,4.767,0,0,1,.468-.935l1.395-2.473c1.173-2.089,2.784-4.981,4.442-8.239s3.073-6.252,4.073-8.429l1.187-2.579a4.7,4.7,0,0,1,.483-.928,4.819,4.819,0,0,1-.325.993c-.236.628-.594,1.533-1.06,2.639-.929,2.213-2.294,5.24-3.966,8.5s-3.32,6.143-4.565,8.195c-.627,1.024-1.144,1.848-1.517,2.407a4.741,4.741,0,0,1-.614.845"/><path class="a" d="M56.36-486.724a4.117,4.117,0,0,1,.961-.1q1.07-.04,2.624-.1c2.215-.067,5.277-.127,8.657-.168s6.444-.052,8.661-.039l2.625.037a4.035,4.035,0,0,1,.964.075,4.221,4.221,0,0,1-.961.1l-2.623.1c-2.215.067-5.277.128-8.659.169s-6.443.052-8.659.04l-2.625-.039a4.016,4.016,0,0,1-.963-.075"/><path class="a" d="M69.693-456.924a6.546,6.546,0,0,1,1.231-.112l3.361-.143c2.839-.1,6.761-.209,11.095-.3s8.258-.153,11.1-.175c1.357,0,2.487,0,3.365,0a6.663,6.663,0,0,1,1.235.059,6.57,6.57,0,0,1-1.232.112l-3.361.143c-2.839.1-6.762.211-11.1.3s-8.257.153-11.1.175l-3.365,0a6.659,6.659,0,0,1-1.235-.059"/><path class="a" d="M100.324-457.8a7.637,7.637,0,0,1,.562-1.2l1.655-3.2c1.394-2.7,3.306-6.443,5.3-10.632s3.711-8.024,4.93-10.811l1.447-3.3a7.486,7.486,0,0,1,.577-1.192,7.673,7.673,0,0,1-.419,1.256c-.3.8-.743,1.947-1.319,3.356-1.147,2.82-2.815,6.684-4.819,10.879s-3.956,7.921-5.422,10.589c-.736,1.332-1.343,2.4-1.779,3.136a7.757,7.757,0,0,1-.712,1.116"/><path class="c" d="M473.591-329.787c-15.031-13.108-16.447-34.585-13.761-53.465.448-3.152.46-6.523,2.263-9.136s5.52-4.131,8.208-2.493c2.229,1.359,2.959,4.2,4.029,6.6a18.618,18.618,0,0,0,6.655,7.885c1.9,1.261,4.324,2.169,6.431,1.287,2.891-1.211,3.619-4.945,3.939-8.093q.892-8.8,1.785-17.6a29.552,29.552,0,0,1,1.956-9.241c1.3-2.88,3.761-5.42,6.844-5.937s6.6,1.609,6.9,4.757a29.166,29.166,0,0,1-.333,3.925c-.052,1.316.4,2.827,1.6,3.324s2.571-.252,3.609-1.072c3.589-2.825,6.235-6.68,8.732-10.528s4.945-7.8,8.265-10.944,7.691-5.453,12.223-5.224,9.033,3.529,9.7,8.076-2.409,8.779-5.612,12.064A70.6,70.6,0,0,1,530.9-403.24a5.812,5.812,0,0,0-2.729,2.367c-.911,2.023.852,4.32,2.849,5.233,2.261,1.033,4.832,1.064,7.253,1.617s4.963,1.921,5.64,4.339c.943,3.355-2.111,6.436-4.995,8.359a60.526,60.526,0,0,1-18.909,8.357c-2.407.6-4.923,1.077-6.963,2.5s-3.472,4.131-2.584,6.468,3.707,3.361,6.179,3.172,4.784-1.271,7.188-1.893c4.5-1.165,10.049-.267,12.416,3.769a10.011,10.011,0,0,1,.111,8.917,23.077,23.077,0,0,1-5.608,7.261A60.837,60.837,0,0,1,502.963-327.4c-10.4,2.4-19.8,2.336-29.372-2.383"/><path class="a" d="M479.763-341.138a283.554,283.554,0,0,1,14.46-29.144q2.118-3.77,4.184-7.444c1.379-2.44,2.744-4.86,4.227-7.144a141.778,141.778,0,0,1,9.276-12.639c3.144-3.876,6.271-7.441,9.216-10.753s5.768-6.336,8.449-8.988a112.557,112.557,0,0,1,13.568-11.564c1.7-1.235,3.055-2.149,3.981-2.757.445-.288.792-.515,1.056-.684a2.185,2.185,0,0,1,.371-.216,2.269,2.269,0,0,1-.337.265l-1.025.733c-.9.639-2.232,1.583-3.913,2.844a118.85,118.85,0,0,0-13.413,11.675c-2.655,2.663-5.443,5.7-8.377,9.019s-6.036,6.893-9.161,10.771a142.755,142.755,0,0,0-9.211,12.608c-1.472,2.273-2.824,4.675-4.2,7.121s-2.768,4.929-4.179,7.441a290.557,290.557,0,0,0-14.473,29.064l-.493-.208"/><path class="a" d="M502.8-384.875a6.517,6.517,0,0,1-.163-1.375c-.071-.887-.132-2.173-.184-3.764-.107-3.18-.105-7.577-.085-12.424s-.04-9.235-.195-12.4c-.073-1.585-.147-2.868-.208-3.753a6.447,6.447,0,0,1-.028-1.385,6.22,6.22,0,0,1,.253,1.361c.131.88.267,2.163.391,3.749.264,3.175.389,7.576.368,12.431-.032,4.784-.061,9.111-.085,12.417v3.763a6.106,6.106,0,0,1-.064,1.384"/><path class="a" d="M544.063-388.074a9.065,9.065,0,0,1-1.635.019c-1.048-.02-2.564-.056-4.437-.041-3.747,0-8.924.184-14.627.633s-10.847,1.1-14.555,1.667c-1.856.272-3.351.531-4.387.7a8.558,8.558,0,0,1-1.621.217,8.824,8.824,0,0,1,1.577-.443c1.025-.241,2.513-.564,4.367-.889,3.7-.675,8.855-1.38,14.575-1.843A143.341,143.341,0,0,1,538-388.512c1.88.039,3.4.137,4.445.229a8.434,8.434,0,0,1,1.621.209"/><path class="a" d="M480.341-341.828a2.045,2.045,0,0,1-.225-.524c-.145-.416-.32-.923-.535-1.537-.456-1.337-1.068-3.291-1.792-5.712-1.453-4.844-3.248-11.6-5.128-19.077s-3.612-14.244-4.96-19.111c-.664-2.367-1.209-4.313-1.615-5.76-.173-.628-.313-1.145-.431-1.571a2.058,2.058,0,0,1-.112-.56,2.142,2.142,0,0,1,.224.524l.533,1.537c.459,1.337,1.071,3.289,1.795,5.712,1.452,4.844,3.248,11.6,5.128,19.08s3.611,14.241,4.96,19.109c.664,2.364,1.208,4.312,1.613,5.759.172.628.315,1.145.431,1.571a2.276,2.276,0,0,1,.113.56"/><path class="a" d="M535.953-353.359a2.108,2.108,0,0,1-.557.163l-1.617.355-5.956,1.245c-5.029,1.052-11.96,2.585-19.613,4.289s-14.608,3.177-19.66,4.124c-2.527.476-4.575.839-5.995,1.061l-1.637.247a2.114,2.114,0,0,1-.576.047,2.082,2.082,0,0,1,.556-.164l1.617-.355,5.955-1.244c5.031-1.052,11.96-2.585,19.617-4.291s14.6-3.175,19.657-4.124c2.525-.475,4.573-.839,5.995-1.06.656-.1,1.2-.181,1.636-.247a2.127,2.127,0,0,1,.579-.047"/><path class="a" d="M357.76-555.063c2.424-13.888,9.041-34.189,16.975-45.845s20.16-20.919,34.124-22.855,29.372,4.615,35.663,17.232c3.372,6.764,3.992,14.545,6.451,21.692s7.849,14.288,15.385,14.864c6.671.511,13.1-4.3,19.665-3.019,8.551,1.664,11.851,12.2,11.9,20.911s-1.192,18.38,4.16,25.252c4.381,5.621,11.884,7.56,17.931,11.331,13.077,8.156,18.676,25,17.349,40.36s-8.4,29.575-15.908,43.033a336.386,336.386,0,0,0-25.4-63.848c-6.065-11.62-17.137-21.511-26.937-30.215-15.049-13.363-48.089-19.74-68.064-22.2s-23.508-2.992-43.291-6.7"/><path class="d" d="M224.546-538.7c-49.436,3.591-103.4,10.135-142.973,25.327l12.5,84.568s76.7-27.448,139.107-25.543L224.546-538.7"/><path class="e" d="M94.07-428.807,89.881-457.15l-.062-.42-5.178-35.036-.093-.633-2.975-20.136c39.571-15.192,93.538-21.736,142.973-25.327l4.857,47.477-15.475,7.471s-8.967,5.679-12.308,16.053c-.94,2.92-2.236,8.512-3.588,14.907-52.767,5.667-103.963,23.987-103.963,23.987"/><path class="d" d="M465.5-513.82c-48.4-14.751-89.234-27.347-144.062-27l-8.38,86.173c56.947,5.04,75.978,8.768,128.565,27.8L465.5-513.82"/><path class="e" d="M441.622-426.847c-11.391-4.123-21.207-7.527-30.176-10.381l.167-.043-3.079-22.823-53.625,6.063-38.6-34.1,5.124-52.684c.743-.005,1.48-.007,2.217-.007,53.716,0,94.1,12.455,141.845,27.005l-23.877,86.973m-83.9-67.5h0l20.159,7.357.025.009a23.272,23.272,0,0,0,1.044-4.68,24.843,24.843,0,0,0,.169-2.875A25.161,25.161,0,0,0,378-502a20.683,20.683,0,0,0-15.212-14.5c-.215-.051-.431-.1-.651-.143-.137-.028-.273-.059-.413-.084q-.612-.112-1.245-.193l-.056-.008h0l-.052-.008v0l-2.136,18.283-.5,4.3"/><path class="f" d="M355.923-499l2.137-18.283a21.443,21.443,0,0,0-14.928,4.129,22.471,22.471,0,0,0-9.172,18.077c-.019.881,0,1.781.075,2.7l0,.067h0l21.355-2.4.527-4.293"/><path class="d" d="M378-502a20.683,20.683,0,0,0-15.212-14.5c-.215-.051-.431-.1-.651-.143-.137-.028-.273-.059-.413-.084q-.612-.112-1.245-.193l-.056-.008h0l-.052-.008v0l-2.136,18.283-.5,4.3,20.159,7.357.025.009a23.274,23.274,0,0,0,1.044-4.68A25.128,25.128,0,0,0,378-502"/><path class="g" d="M377.91-486.983l-.025-.009-20.159-7.357.5-4.3,2.136-18.283v0l.052.008h0l.056.008q.634.082,1.245.193c.14.025.276.056.413.084.22.044.436.092.651.143A20.683,20.683,0,0,1,378-502a25.162,25.162,0,0,1,1.127,7.459,24.85,24.85,0,0,1-.169,2.875,23.274,23.274,0,0,1-1.044,4.68"/><path class="f" d="M356.227-492.293l-21.355,2.4c.888,10.34,8.437,18.916,18.577,20.164,10.189,1.253,19.637-5.305,22.963-15.2l-20.16-7.357"/><path class="g" d="M446.794-497.393a11.527,11.527,0,0,1-1.884-.763c-1.191-.539-2.923-1.295-5.075-2.195a157.165,157.165,0,0,0-17.179-6.033,156.777,156.777,0,0,0-17.78-3.939c-2.3-.372-4.172-.644-5.465-.815a11.323,11.323,0,0,1-2-.347,11.508,11.508,0,0,1,2.032.079c1.305.088,3.191.287,5.511.6a129.642,129.642,0,0,1,17.9,3.756A129.614,129.614,0,0,1,440.03-500.8c2.135.961,3.84,1.787,5,2.4a11.124,11.124,0,0,1,1.768,1.007"/><path class="g" d="M445.327-488.4a11.374,11.374,0,0,1-1.884-.763c-1.191-.539-2.921-1.295-5.075-2.195a157.312,157.312,0,0,0-17.179-6.035,156.881,156.881,0,0,0-17.779-3.937c-2.3-.372-4.172-.644-5.467-.815a11.327,11.327,0,0,1-2-.347,11.345,11.345,0,0,1,2.032.079c1.307.088,3.191.287,5.511.6a129.56,129.56,0,0,1,17.9,3.756,129.429,129.429,0,0,1,17.184,6.253c2.133.96,3.84,1.785,5,2.4a11.324,11.324,0,0,1,1.767,1.007"/><path class="g" d="M443.862-479.4a11.557,11.557,0,0,1-1.885-.763c-1.189-.539-2.921-1.295-5.073-2.193a157.1,157.1,0,0,0-17.179-6.036,156.95,156.95,0,0,0-17.78-3.937c-2.3-.372-4.172-.644-5.467-.815a11.615,11.615,0,0,1-2-.345,11.1,11.1,0,0,1,2.033.077c1.305.088,3.189.287,5.511.6a129.43,129.43,0,0,1,17.9,3.757,129.4,129.4,0,0,1,17.184,6.251c2.135.961,3.84,1.787,5,2.4a11.489,11.489,0,0,1,1.768,1.007"/><path class="g" d="M440.928-470.41a10.831,10.831,0,0,1-1.825-.761c-1.151-.537-2.828-1.289-4.913-2.188a149.342,149.342,0,0,0-16.652-6.032,148.217,148.217,0,0,0-17.268-3.947c-2.239-.372-4.056-.645-5.313-.815a11,11,0,0,1-1.948-.347,10.648,10.648,0,0,1,1.977.077c1.269.088,3.1.288,5.359.6a122.207,122.207,0,0,1,17.391,3.767,123.006,123.006,0,0,1,16.656,6.249c2.065.959,3.715,1.781,4.832,2.395a10.675,10.675,0,0,1,1.705,1"/><path class="g" d="M434.556-463.234a8.624,8.624,0,0,1-1.648-.656l-4.408-1.96a121.409,121.409,0,0,0-14.895-5.465,120.977,120.977,0,0,0-15.54-3.216l-4.776-.661a8.648,8.648,0,0,1-1.748-.313,8.827,8.827,0,0,1,1.775.044c1.14.067,2.784.219,4.813.443a99.953,99.953,0,0,1,15.667,3.036A99.731,99.731,0,0,1,428.7-466.3c1.843.88,3.319,1.619,4.323,2.164a8.8,8.8,0,0,1,1.531.9"/><path class="g" d="M413.051-462.219a21.537,21.537,0,0,1-3.444-.713c-2.109-.492-5.031-1.121-8.287-1.68s-6.22-.969-8.367-1.275a18.949,18.949,0,0,1-3.469-.6,16.724,16.724,0,0,1,3.524.113c2.165.183,5.156.509,8.431,1.08a75.349,75.349,0,0,1,8.292,1.889,15.007,15.007,0,0,1,3.32,1.188"/><path class="g" d="M329.838-530.608s.365-.031,1.112-.059l3.332-.111c2.943-.071,7.2-.024,12.64.284a201.083,201.083,0,0,1,44.4,7.947l.245.073-.047.26c-3.333,19.1-7.3,41.807-11.544,66.1-.172.984-.344,1.965-.512,2.929l-.067.372-.367-.1a292.105,292.105,0,0,0-29.645-6.115c-9.551-1.467-18.687-2.505-27.172-3.043l-.325-.021.036-.32c2.335-20.383,4.289-37.459,5.665-49.472.7-5.943,1.248-10.632,1.628-13.868.192-1.569.34-2.785.444-3.639.051-.389.091-.692.123-.925a1.458,1.458,0,0,1,.052-.3,2.58,2.58,0,0,1-.02.336c-.021.241-.051.556-.087.96-.089.868-.213,2.105-.376,3.7-.343,3.255-.84,7.972-1.472,13.949-1.3,11.977-3.144,29-5.348,49.327l-.289-.34c8.525.516,17.667,1.536,27.244,2.991a289.89,289.89,0,0,1,29.721,6.108l-.429.276c.168-.964.34-1.945.513-2.929l11.644-66.086.2.332a206.026,206.026,0,0,0-44.237-8.165c-5.416-.36-9.709-.456-12.585-.449l-3.312.008c-.757,0-1.165-.017-1.165-.017"/><path class="d" d="M276.983-354.51l47.2,10.451L331.4-354.51l-1.165-13.459-7.172-6.553H298.333l-23.087,20.789,1.737-.777"/><path class="h" d="M348.958-451.718l59.576-8.023,9.379-2.645s21.475-4.717,23.48-5.433c2.317-.827,3.273.091,3.519.967.387,1.363-.92,2.889-2.887,3.66-.679.267-11.572,4.04-11.572,4.04a27.306,27.306,0,0,1,3.68,1.061c2.6.885,5.107,4.244,6.357,8.159s1.255,5.123-.243,5.68a2.034,2.034,0,0,1-1.731-.24,4.018,4.018,0,0,1-1.788-2.24c-2.091-6.243-6-6.735-6-6.735l-1.227.345s4.031,2.815,3.961,6.219a3.861,3.861,0,0,1-.313,1.461,5.264,5.264,0,0,1-.861,4.948,5.267,5.267,0,0,1-4.881,1.828c-.859-.148-1.787-.656-1.911-1.517a2.735,2.735,0,0,1,.277-1.333,4.251,4.251,0,0,0,.212-.7l-3.573.488s-8.084.668-11.569,1.356l-55.793,16.8a14.449,14.449,0,0,1-18.072-9.912,14.447,14.447,0,0,1,11.977-18.24"/><path class="h" d="M409.915-458.222a3,3,0,0,0,2.568,2.376c1.227.257,2.5.091,3.744.257,3.712.5,6.6,3.876,10.331,4.2.52.045,1.176-.063,1.329-.561.143-.463-.255-.9-.619-1.22q-4.646-4.108-9.3-8.216"/><path class="i" d="M417.972-461.387a4.881,4.881,0,0,1,1.1.785c.675.54,1.637,1.339,2.816,2.337L426-454.727l1.183,1.029c.349.355.964.664,1.077,1.516a1.044,1.044,0,0,1-.637.985,2.151,2.151,0,0,1-1,.164,8.107,8.107,0,0,1-1.795-.355c-2.343-.763-4.148-2.18-5.961-3.023a9.308,9.308,0,0,0-2.653-.883c-.861-.131-1.709-.1-2.493-.16a4.363,4.363,0,0,1-3.395-1.467c-.552-.753-.433-1.321-.411-1.3a3.683,3.683,0,0,0,.621,1.127,4.232,4.232,0,0,0,3.208,1.144c.757.024,1.609-.036,2.551.077a9.633,9.633,0,0,1,2.849.873c1.9.853,3.725,2.241,5.895,2.937a7.632,7.632,0,0,0,1.62.328c.515.036.957-.151.911-.424-.005-.305-.432-.684-.833-1.032l-1.167-1.048c-1.476-1.34-2.825-2.568-4.016-3.649-1.136-1.047-2.047-1.9-2.667-2.508a4.972,4.972,0,0,1-.915-.991"/><path class="i" d="M429.395-453.247a5.13,5.13,0,0,1,2.344-.031,3.943,3.943,0,0,1,2.04,1.4,10.093,10.093,0,0,1,1.465,2.784,16.1,16.1,0,0,0,1.359,2.971,5.209,5.209,0,0,0,1.949,1.877,2.027,2.027,0,0,0,1.823.04c.388-.207.535-.4.523-.416-.025-.036-.213.111-.593.253a1.916,1.916,0,0,1-1.605-.165,5.153,5.153,0,0,1-1.74-1.813,17.807,17.807,0,0,1-1.288-2.912,9.845,9.845,0,0,0-1.568-2.887,4.146,4.146,0,0,0-2.288-1.447,3.678,3.678,0,0,0-1.82.056c-.415.127-.611.265-.6.288"/><path class="i" d="M442.779-463.5a12.738,12.738,0,0,0-2.171.735l-5.177,1.9-5.207,1.825a12.924,12.924,0,0,0-2.143.813,10.274,10.274,0,0,0,2.24-.505c1.364-.381,3.229-.975,5.263-1.7s3.849-1.46,5.145-2.033a10.436,10.436,0,0,0,2.049-1.035"/><path class="i" d="M427.819-449.926c-.023.025.161.208.469.544a2.128,2.128,0,0,1,.673,1.64,1.144,1.144,0,0,1-.7.883,6.043,6.043,0,0,1-1.44.4,2.568,2.568,0,0,0-1.608.863,2.181,2.181,0,0,0-.271,1.959,2.477,2.477,0,0,0,1.34,1.439,3.116,3.116,0,0,0,1.8.265,10.081,10.081,0,0,0,2.763-1.031,5.891,5.891,0,0,0,1.591-1.188c.312-.361.392-.621.371-.629s-.165.2-.5.505a6.983,6.983,0,0,1-1.612,1.024,10.756,10.756,0,0,1-2.681.9,2.459,2.459,0,0,1-2.636-1.431,1.754,1.754,0,0,1,.2-1.551,2.182,2.182,0,0,1,1.341-.717,6.066,6.066,0,0,0,1.523-.472,1.483,1.483,0,0,0,.847-1.181,2.22,2.22,0,0,0-.869-1.8c-.355-.307-.575-.439-.593-.417"/><path class="i" d="M426.544-442.5c0-.021-.255,0-.591.279a1.989,1.989,0,0,0-.667,1.656,2.655,2.655,0,0,0,1.579,2.117,4.354,4.354,0,0,0,3.235.045,5.266,5.266,0,0,0,2.569-1.959,5.038,5.038,0,0,0,.865-2.491,4.808,4.808,0,0,0-.192-1.756c-.129-.4-.252-.595-.276-.584a8.316,8.316,0,0,1,.147,2.309,4.971,4.971,0,0,1-.888,2.28,5.019,5.019,0,0,1-2.377,1.769,4.047,4.047,0,0,1-2.909,0,2.363,2.363,0,0,1-1.432-1.769,1.894,1.894,0,0,1,.469-1.493c.265-.288.485-.371.468-.407"/><path class="i" d="M416.628-447.4c.04-.011-.02-.429-.384-1.032a4.324,4.324,0,0,0-2.169-1.775l.021.4a13.468,13.468,0,0,0,1.364-.755,9.846,9.846,0,0,0,3.735-3.851,24.787,24.787,0,0,1-3.981,3.465c-.445.283-.889.532-1.308.747l-.464.235.487.167a4.545,4.545,0,0,1,2.092,1.519c.4.521.552.9.608.876"/><path class="i" d="M435.183-453.76c-.087-.084-.717.611-.785,1.711s.452,1.873.548,1.8c.121-.057-.167-.815-.092-1.771.055-.957.441-1.668.329-1.741"/><path class="h" d="M157.169-433.027s-8.7-14.1-10.243-15.3-15.317-6.24-16.494-5.869-17.872,3.223-15.954,5.2,13.558-.168,13.558-.168l1.563.78s-10.057,1.6-12.174,2.827c-1.949,1.127-1.281,3.512.561,3.321s10.581-1.881,11.1-1.523S119.58-441.4,118.5-440.76c-1.453.859-1.6,3.44.235,3.313,1.08-.073,10.535-2.516,10.535-2.516s-7.5,2.889-8.189,3.545c-1.132,1.073-.234,2.707,1.389,2.348,1.115-.245,6.411-2.771,7.906-3.1,0,0,1.4.373,2.661,3.2.591,1.316,3.282,9.535,8.2,9.427,4.359-.095,8.639,3.5,8.639,3.5l7.288-11.984"/><path class="i" d="M114.511-448.95a7.7,7.7,0,0,0,3.042.841,18.015,18.015,0,0,0,3.44.143c1.276-.141,2.67-.339,4.137-.541l3.113-.456-.187-.017c4.116,1.468,7.135,2.424,7.2,2.26s-2.852-1.4-6.944-2.965l-.083-.031-.105.013-3.089.417-4.09.6a22.131,22.131,0,0,1-3.334.027c-1.9-.132-3.068-.407-3.1-.289"/><path class="h" d="M150.646-434.7c-1.017.945-2.689.712-3.879,0s-2.1-1.815-3.237-2.615c-3.4-2.392-8.287-1.824-11.562-4.375-.457-.356-.908-.939-.658-1.46.232-.484.887-.539,1.423-.527l13.751.331"/><path class="i" d="M146.484-443.348a5.6,5.6,0,0,0-1.483-.188c-.956-.069-2.341-.145-4.052-.223l-6.012-.228-1.739-.056a2.728,2.728,0,0,0-2.019.42,1.16,1.16,0,0,0-.225,1.281,2.379,2.379,0,0,0,.691.889,8.979,8.979,0,0,0,1.727,1.064c2.48,1.148,5.015,1.357,7.124,2.037a10.4,10.4,0,0,1,2.823,1.284c.8.544,1.467,1.205,2.147,1.751a4.84,4.84,0,0,0,3.865,1.367c1.017-.2,1.351-.747,1.316-.749a4.015,4.015,0,0,1-1.355.447,4.683,4.683,0,0,1-3.468-1.488c-.635-.551-1.281-1.243-2.133-1.86a10.718,10.718,0,0,0-2.975-1.44c-2.188-.737-4.719-.985-7.007-2.056a8.5,8.5,0,0,1-1.563-.955c-.445-.359-.664-.844-.421-1.031.234-.245.867-.231,1.456-.212l1.738.029,6.017.06c1.712.007,3.1,0,4.059-.027a5.468,5.468,0,0,0,1.489-.117"/><path class="j" d="M224.946-120.726l-3.179,34.977-10.492,26.94a3.6,3.6,0,0,0,2.279,4.74,3.577,3.577,0,0,0,3.245-.564c5.908-4.5,27.557-21.164,27.647-23.736.1-2.98,5.8-36.672,5.8-36.672l-25.3-5.685"/><path class="e" d="M214.714-53.876a3.592,3.592,0,0,1-1.16-.193h0a3.6,3.6,0,0,0,1.081.167,3.561,3.561,0,0,0,2.164-.731c5.459-4.159,24.356-18.7,27.268-22.916a5.35,5.35,0,0,1-1.195,1.648c-2.513,2.351-9.593,8.692-25.967,21.28a3.6,3.6,0,0,1-2.192.745m29.764-24.932c.043-.442.124-1.094.236-1.916h0l-.168,1.479c-.017.146-.04.293-.068.437"/><path class="k" d="M214.635-53.9a3.6,3.6,0,0,1-1.081-.167l31.16-26.655c-.112.822-.193,1.475-.236,1.916a5.437,5.437,0,0,1-.411,1.258c-2.912,4.217-21.809,18.757-27.268,22.916a3.561,3.561,0,0,1-2.164.731"/><path class="k" d="M239.8-88.912a2.115,2.115,0,0,1-1.88-1.127,2.184,2.184,0,0,1,.74-2.652,1.527,1.527,0,0,1,1.012-.342,2.382,2.382,0,0,1,1.927,1,2.3,2.3,0,0,1-.953,2.926,1.847,1.847,0,0,1-.845.2"/><path class="l" d="M223.269-68.407c-.208.073-.787-1.843-2.751-3.063-1.927-1.278-3.911-1.006-3.929-1.227-.021-.09.452-.311,1.281-.332a5.613,5.613,0,0,1,3.065.909,5.609,5.609,0,0,1,2.1,2.408c.325.764.321,1.285.232,1.3"/><path class="l" d="M220.25-64.017c-.183.132-1.173-1.13-2.92-1.852-1.729-.761-3.325-.6-3.357-.828-.08-.191,1.684-.739,3.66.119,1.987.834,2.809,2.488,2.617,2.561"/><path class="l" d="M228.578-73.868c-.183.147-1.7-1.8-4.313-3.164-2.6-1.4-5.057-1.563-5.039-1.8-.036-.192,2.612-.382,5.4,1.116,2.8,1.468,4.132,3.766,3.952,3.845"/><path class="l" d="M230.433-84.42c-.117.2-1.953-.827-4.451-1.2-2.493-.411-4.556,0-4.605-.227-.077-.18,2.044-.971,4.725-.535,2.684.411,4.46,1.815,4.331,1.966"/><path class="l" d="M231.626-94.664c-.132.189-1.937-1.195-4.6-1.376-2.66-.24-4.66.843-4.76.633-.049-.079.383-.473,1.24-.845a7.686,7.686,0,0,1,3.58-.556,7.711,7.711,0,0,1,3.449,1.112c.788.5,1.152.96,1.091,1.032"/><path class="l" d="M227.31-97.983a3.022,3.022,0,0,1,.1-1.325,9.219,9.219,0,0,1,1.443-3.337,4.089,4.089,0,0,1,1.965-1.743,1.446,1.446,0,0,1,1.584.5,2.361,2.361,0,0,1,.372,1.639,5.086,5.086,0,0,1-4.963,4.171,5.9,5.9,0,0,1-5.408-3.721,2.05,2.05,0,0,1,.1-1.7,1.417,1.417,0,0,1,1.56-.578,5.035,5.035,0,0,1,2.163,1.456,10.294,10.294,0,0,1,2.073,2.984,3.136,3.136,0,0,1,.4,1.267,16.382,16.382,0,0,0-2.849-3.857,4.718,4.718,0,0,0-1.916-1.224.761.761,0,0,0-.853.311,1.405,1.405,0,0,0,0,1.122,5.261,5.261,0,0,0,4.727,3.172,4.413,4.413,0,0,0,4.263-3.479,1.705,1.705,0,0,0-.212-1.155.782.782,0,0,0-.869-.291,3.692,3.692,0,0,0-1.691,1.444,13.608,13.608,0,0,0-1.988,4.344"/><path class="l" d="M257.106-100.209l26.176-207.27-8.371-48.183-49.364,2.617L219.4-104.037a3.8,3.8,0,0,0,3.072,3.833l28.748,4.432a5.142,5.142,0,0,0,5.884-4.437"/><path class="l" d="M282.531-300.527l47.607,47.115-68.5,16.66,4.876,34.56,92.718-12.619a29.181,29.181,0,0,0,19.733-11.849,29.178,29.178,0,0,0,.445-33.491L307.185-366.18l-32.273,10.519,7.62,55.135"/><path class="m" d="M279.9-312.519c.188-.04.928,2.611,1.653,5.923s1.164,6.029.976,6.072-.927-2.611-1.653-5.924-1.164-6.029-.976-6.071"/><path class="m" d="M272.966-232.4s.38-.14,1.131-.379l3.335-1.033c2.953-.9,7.26-2.209,12.775-3.885l46.485-13.981-.119.441L279.425-312.1l.589-.195c-1.132,9.563-2.313,19.549-3.519,29.733-5.893,49.369-11.431,94.033-15.719,126.326-2.125,16.151-4,29.2-5.371,38.2-.763,4.492-1.264,7.993-1.783,10.34q-.374,1.734-.575,2.668c-.133.6-.217.9-.217.9s.039-.315.149-.919c.117-.627.285-1.518.505-2.68.473-2.346.932-5.856,1.653-10.352,1.287-9.015,3.087-22.069,5.151-38.226,4.163-32.305,9.623-76.977,15.516-126.344,1.209-10.184,2.393-20.169,3.528-29.732l.087-.732.5.539,57.043,60.957.3.319-.417.124c-19.489,5.759-35.445,10.475-46.552,13.755l-12.817,3.747-3.356.96c-.76.212-1.155.3-1.155.3"/><path class="m" d="M257.557-104.119c-.191-.025,5.247-44.015,12.143-98.244,6.9-54.249,12.643-98.192,12.832-98.166s-5.245,44.005-12.144,98.253c-6.895,54.229-12.641,98.181-12.831,98.157"/><path class="m" d="M274.8-334.453a15.531,15.531,0,0,1,1.1,3.213c.583,2.012,1.308,4.816,1.989,7.94s1.188,5.977,1.5,8.051a15.565,15.565,0,0,1,.335,3.38,17.544,17.544,0,0,1-.817-3.293c-.484-2.288-1.057-5-1.692-7.989l-1.787-7.967a17.6,17.6,0,0,1-.628-3.335"/><path class="m" d="M277.861-338.514c-.075-.04.668-.649,1.933-.208a2.251,2.251,0,0,1,1.444,1.705,2.472,2.472,0,0,1-1.079,2.523,2.4,2.4,0,0,1-2.736-.269,2.033,2.033,0,0,1-.619-2.152,2.019,2.019,0,0,1,.891-1.189c.312-.175.515-.171.525-.133.064.089-.728.371-.939,1.439a1.544,1.544,0,0,0,.549,1.544,1.811,1.811,0,0,0,1.968.168,1.882,1.882,0,0,0,.807-1.827,1.787,1.787,0,0,0-1.009-1.359,2.523,2.523,0,0,0-1.459-.239c-.169.019-.269.037-.277,0"/><path class="m" d="M344.159-245.346c-.144.16-2.824-2.311-6.681-4.532-3.843-2.252-7.313-3.356-7.248-3.559.032-.167,3.667.657,7.6,2.959,3.943,2.275,6.461,5.021,6.332,5.132"/><path class="j" d="M241.262-496.949l-27.333,13.2,11.781,82.234-4.629,36.912a14.425,14.425,0,0,0,4.82,12.653l44.144-.871,30.913-17,14.2-2.4-5.812-28.095,2.6-39.857,32.311,17.252a11.251,11.251,0,0,0,8.119.967l59.237-15.319-3.079-22.823-53.625,6.063-40.837-36.085-30.4-6.833-5.42-8.955h-31.1l-2.176,1.632a6.514,6.514,0,0,0-2.247,3.08l-1.468,4.243"/><path class="j" d="M213.929-483.753s-8.967,5.679-12.308,16.053c-3.124,9.7-10.175,48.941-10.175,48.941l-31.053-19.269-17.9,18.812,41.4,36.508a21.045,21.045,0,0,0,23.051,3.176h0a21.045,21.045,0,0,0,11.721-16.113l5.081-37.208-9.82-50.9"/><path class="h" d="M307.185-366.18l-1.924-2.829-20.439,3.777-3.763,8.708,26.125-9.656"/><path class="j" d="M225.9-351.954c18.261,7.349,37.765,4.647,55.159-4.571,5.251-2.781,10.121-6.245,15.393-8.985s11.127-4.769,17.053-4.353,11.909,3.688,14.281,9.137,0,12.868-5.581,14.9q.988.884,1.976,1.767c8.2-3.816,12.088-14.859,8.088-22.971-3.069-6.223-9.516-9.931-14.24-15.011-6.947-7.471-7.671-21.928-7.715-33.18L225.9-351.954"/><path class="l" d="M265.966-481.052a6.516,6.516,0,0,1-1.345.077,5.112,5.112,0,0,0-3.237,1.489,7.585,7.585,0,0,0-1.615,5.215,17.366,17.366,0,0,0,1.483,6.993l.515,1.147-1.007-.745a54.172,54.172,0,0,1-6.885-6.089,50.742,50.742,0,0,1-10.588-16.211,36.163,36.163,0,0,1-1.717-5.635,12.707,12.707,0,0,1-.307-2.139,61.509,61.509,0,0,0,2.48,7.589,53.43,53.43,0,0,0,10.633,15.915,56.573,56.573,0,0,0,6.776,6.045l-.492.4a15.934,15.934,0,0,1-1.139-3.74,16.475,16.475,0,0,1-.305-3.539,7.888,7.888,0,0,1,1.877-5.489,5.158,5.158,0,0,1,3.515-1.424,6.318,6.318,0,0,1,1.359.139"/><path class="j" d="M267.6-481.052c2.249-.969,5.583.463,7.2,2.3,1.068,1.216,1.668,2.9,3.076,3.7s5.852,1.419,7.144.432c0,0,.789-3.8,1.2-5.371a119.11,119.11,0,0,0,3.039-18.243c-4.3-2.081-3.116-4.828-10.853-4.3,0,0,1.939,5.711.271,10.908L267.6-481.052"/><path class="l" d="M278.682-491.62c-.073-.021.281-1.032.449-2.924a21.574,21.574,0,0,0-.963-7.9l-.1-.321.325-.017a13.349,13.349,0,0,1,5.709.513,8.763,8.763,0,0,1,2.635,1.9,10.561,10.561,0,0,0,2.671,1.849l.209.1-.025.235c-.344,3.237-.736,6.773-1.349,10.42-.4,2.385-.883,4.7-1.44,6.9s-1,4.316-1.469,6.32l-.032.132-.087.057a4.256,4.256,0,0,1-2.284.556,13.211,13.211,0,0,1-2.14-.139,12.87,12.87,0,0,1-2-.435,4.237,4.237,0,0,1-1.752-.953,18.267,18.267,0,0,1-2.055-2.819,7.194,7.194,0,0,0-2.1-1.909,7.452,7.452,0,0,0-3.836-1.2,8.436,8.436,0,0,0-1.447.2,2.957,2.957,0,0,1,1.439-.408,7.316,7.316,0,0,1,4.041,1.073,7.459,7.459,0,0,1,2.275,1.963,19.034,19.034,0,0,0,2.041,2.7,6.564,6.564,0,0,0,3.471,1.2,12.758,12.758,0,0,0,2.041.109,3.813,3.813,0,0,0,1.916-.448l-.117.187c.455-2.013.887-4.167,1.433-6.356s1.015-4.483,1.413-6.851c.609-3.624,1.015-7.144,1.379-10.376l.185.332a11.183,11.183,0,0,1-2.812-1.976,8.193,8.193,0,0,0-2.44-1.813,13.053,13.053,0,0,0-5.44-.555l.225-.339a20.6,20.6,0,0,1,.759,8.095,13.493,13.493,0,0,1-.455,2.173,3.075,3.075,0,0,1-.277.723"/><path class="l" d="M324.234-365.719c-.053-.005.061-.533-.012-1.531a9.331,9.331,0,0,0-1.315-4.112A13.717,13.717,0,0,0,318-376.1a20.679,20.679,0,0,0-8.744-2.4c-3.391-.312-7.144-.127-11.184-.4a41.893,41.893,0,0,1-12.612-2.675,26,26,0,0,1-11.379-8.5,19.833,19.833,0,0,1-3.269-6.852,26.245,26.245,0,0,1-.748-7.769c.207-5.279,1.42-10.277,2.149-15.127a113.859,113.859,0,0,0,1.333-14.089,117.07,117.07,0,0,0-1.755-23.881,118.309,118.309,0,0,0-3.933-15.685c-.571-1.825-1.085-3.217-1.421-4.168-.152-.447-.275-.8-.371-1.084a1.755,1.755,0,0,1-.105-.379,1.637,1.637,0,0,1,.171.352c.113.275.257.624.436,1.061.379.935.935,2.315,1.548,4.132a109.8,109.8,0,0,1,4.159,15.683,114.668,114.668,0,0,1,1.911,23.988,112.781,112.781,0,0,1-1.3,14.176c-.727,4.883-1.927,9.863-2.128,15.047a21.618,21.618,0,0,0,3.872,14.193,25.437,25.437,0,0,0,11.068,8.305,41.607,41.607,0,0,0,12.417,2.693c3.991.3,7.756.14,11.185.485a20.918,20.918,0,0,1,8.9,2.553,13.814,13.814,0,0,1,4.939,4.936,9.108,9.108,0,0,1,1.22,4.24,5.61,5.61,0,0,1-.06,1.151,1.7,1.7,0,0,1-.067.387"/><path class="l" d="M304.29-390.043a13.355,13.355,0,0,1-1.541,1.593c-.505.5-1.14,1.1-1.917,1.753s-1.628,1.436-2.651,2.2a72.667,72.667,0,0,1-7.377,5.1,81.3,81.3,0,0,1-9.793,4.976,81.628,81.628,0,0,1-10.42,3.489,72.564,72.564,0,0,1-8.809,1.677c-1.263.195-2.417.257-3.427.347s-1.881.129-2.6.137a13.544,13.544,0,0,1-2.215-.02,13.572,13.572,0,0,1,2.2-.251c.708-.049,1.573-.12,2.575-.253s2.145-.221,3.395-.447a81.649,81.649,0,0,0,8.716-1.809,87.657,87.657,0,0,0,10.313-3.512,87.416,87.416,0,0,0,9.733-4.884,81.348,81.348,0,0,0,7.405-4.94c1.037-.733,1.908-1.483,2.7-2.107s1.455-1.187,1.988-1.657a13.6,13.6,0,0,1,1.721-1.392"/><path class="l" d="M295.7-433.839a2.878,2.878,0,0,1-.116.735c-.123.552-.277,1.239-.465,2.08a31.748,31.748,0,0,1-.881,3.255c-.4,1.252-.789,2.7-1.421,4.237q-.446,1.166-.932,2.429c-.331.843-.752,1.685-1.148,2.576-.765,1.8-1.783,3.616-2.813,5.551a83.667,83.667,0,0,1-8.107,11.72,83.778,83.778,0,0,1-10.132,10.025c-1.728,1.352-3.343,2.671-4.979,3.737-.808.544-1.564,1.107-2.336,1.579l-2.231,1.34c-1.4.889-2.761,1.524-3.925,2.137A31.545,31.545,0,0,1,253.159-381l-1.967.82a2.915,2.915,0,0,1-.7.243,3.088,3.088,0,0,1,.648-.371c.505-.248,1.136-.559,1.908-.936.837-.388,1.851-.88,2.987-1.535s2.477-1.3,3.852-2.213l2.191-1.368c.759-.481,1.5-1.051,2.3-1.6,1.609-1.076,3.2-2.4,4.9-3.756a87.211,87.211,0,0,0,10.009-9.979,87.256,87.256,0,0,0,8.083-11.591c1.037-1.912,2.067-3.707,2.847-5.479.4-.879.836-1.709,1.177-2.54s.657-1.631.967-2.4c.657-1.512,1.076-2.944,1.509-4.179s.756-2.317.991-3.208c.239-.825.435-1.5.591-2.043a3.1,3.1,0,0,1,.252-.7"/><path class="l" d="M239.467-345.256a8.078,8.078,0,0,1-2.431-1.812,18.445,18.445,0,0,1-4.119-6.059,18.457,18.457,0,0,1-1.448-7.183,8.039,8.039,0,0,1,.408-3c.117.015-.017,1.16.083,2.992a21.245,21.245,0,0,0,1.6,6.925,21.261,21.261,0,0,0,3.829,5.987c1.239,1.353,2.151,2.059,2.079,2.153"/><path class="l" d="M238.5-355.642c.2.053-.171,1.764.023,3.868.167,2.107.819,3.731.632,3.816-.152.095-1.141-1.5-1.325-3.757-.2-2.253.505-3.995.671-3.927"/><path class="l" d="M225.337-403.379a2.336,2.336,0,0,1-.161-.625c-.089-.495-.2-1.093-.329-1.813-.283-1.685-.66-3.941-1.12-6.68-.937-5.641-2.264-13.428-3.863-22s-3.168-16.321-4.327-21.92l-1.363-6.635c-.137-.72-.252-1.317-.345-1.809a2.237,2.237,0,0,1-.075-.643,2.278,2.278,0,0,1,.211.611c.129.485.285,1.073.473,1.781.4,1.549.939,3.8,1.579,6.589,1.283,5.577,2.927,13.312,4.531,21.9s2.849,16.391,3.664,22.055c.408,2.832.715,5.128.9,6.717.08.728.147,1.333.2,1.832a2.225,2.225,0,0,1,.023.645"/><path class="l" d="M310.678-403.379a2.367,2.367,0,0,1-.067-.66c-.016-.513-.033-1.139-.057-1.893-.04-1.644-.045-4.024-.027-6.964.056-5.88.313-14.007.995-22.956s1.58-17.027,2.275-22.863c.359-2.835.655-5.168.875-6.907.111-.747.2-1.365.276-1.872a2.527,2.527,0,0,1,.141-.649,2.294,2.294,0,0,1,0,.664c-.039.512-.087,1.135-.144,1.888-.165,1.743-.387,4.084-.656,6.929-.569,5.848-1.4,13.924-2.072,22.863s-1.013,17.041-1.193,22.913c-.08,2.855-.147,5.205-.195,6.955-.029.755-.055,1.38-.075,1.892a2.4,2.4,0,0,1-.072.66"/><path class="l" d="M204.061-399.943c-.235.1-1.991-4.757-5.389-10.037-3.424-5.281-7.4-8.6-7.225-8.779a12.458,12.458,0,0,1,2.613,2.129,35.963,35.963,0,0,1,5.193,6.271A43.316,43.316,0,0,1,203-403.138a13.625,13.625,0,0,1,1.064,3.195"/><path class="l" d="M206.354-405.739a24.539,24.539,0,0,1-1.495-2.595,20.807,20.807,0,0,0-4.611-5.4,29.367,29.367,0,0,0-6.1-3.717,17.39,17.39,0,0,1-2.7-1.312,10.48,10.48,0,0,1,2.9.861,23.836,23.836,0,0,1,6.347,3.632,18.149,18.149,0,0,1,4.6,5.693,8.879,8.879,0,0,1,1.065,2.833"/><path class="n" d="M220.087-437.808a1.959,1.959,0,0,1-.277.592,6.009,6.009,0,0,1-1.221,1.423,8.115,8.115,0,0,1-6.536,1.761,12.647,12.647,0,0,1-8.208-5.8,27.572,27.572,0,0,1-2.707-5.385c-.371-.976-.748-1.956-1.063-3a8.188,8.188,0,0,1-.376-3.349,4.577,4.577,0,0,1,1.624-3.027,3.843,3.843,0,0,1,3.293-.588,6.433,6.433,0,0,1,4.388,4.16,6.266,6.266,0,0,1-.544,5.453,6.8,6.8,0,0,1-3.807,2.916,6.088,6.088,0,0,1-3.948-.188,6.747,6.747,0,0,1-2.467-1.675,5.666,5.666,0,0,1-1.037-1.564,1.854,1.854,0,0,1-.2-.623,9.253,9.253,0,0,0,1.432,2,6.7,6.7,0,0,0,2.407,1.5,5.738,5.738,0,0,0,3.671.081,6.32,6.32,0,0,0,3.457-2.745,5.674,5.674,0,0,0,.433-4.937,5.806,5.806,0,0,0-3.941-3.713,3.159,3.159,0,0,0-2.716.473,3.9,3.9,0,0,0-1.357,2.571c-.24,2.065.7,4.095,1.385,6.015a27.514,27.514,0,0,0,2.605,5.277,12.264,12.264,0,0,0,7.756,5.673A7.982,7.982,0,0,0,218.417-436a9.687,9.687,0,0,0,1.671-1.807"/><path class="n" d="M272.507-417.331a2.39,2.39,0,0,1-.363.316l-1.113.861a29.625,29.625,0,0,1-4.592,2.885,14.073,14.073,0,0,1-3.737,1.243,9.752,9.752,0,0,1-4.679-.3c-3.271-1.043-6.251-3.839-8.447-7.439a26.824,26.824,0,0,1-3.857-13.168,26.656,26.656,0,0,1,4.1-15.164,14.655,14.655,0,0,1,6.276-5.865,8.211,8.211,0,0,1,4.495-.571,6.2,6.2,0,0,1,4.029,2.28,6.553,6.553,0,0,1,1.255,4.539,10.483,10.483,0,0,1-1.444,4.537,14.779,14.779,0,0,1-7.416,6.012,19.015,19.015,0,0,1-9.515.983,19.562,19.562,0,0,1-8.583-3.555,29.36,29.36,0,0,1-10.084-14.136,16.981,16.981,0,0,1-1.225-8.093,8.118,8.118,0,0,1,1.553-3.683,5.7,5.7,0,0,1,3.255-2.121,7.134,7.134,0,0,1,6.716,2.32,7.642,7.642,0,0,1,1.621,6.392,10.15,10.15,0,0,1-2.735,5.384,13.046,13.046,0,0,1-4.511,2.952,20.556,20.556,0,0,1-8.468,1.281,49.45,49.45,0,0,1-5.391-.549l-1.389-.223a2.441,2.441,0,0,1-.471-.1,2.541,2.541,0,0,1,.48.032l1.4.155c1.228.132,3.04.363,5.38.417a20.541,20.541,0,0,0,8.315-1.369,12.686,12.686,0,0,0,4.339-2.9,9.722,9.722,0,0,0,2.569-5.157,7.147,7.147,0,0,0-1.537-5.956,6.591,6.591,0,0,0-6.185-2.116c-2.34.5-3.979,2.853-4.336,5.34a16.441,16.441,0,0,0,1.227,7.785,28.774,28.774,0,0,0,9.876,13.795,18.936,18.936,0,0,0,8.288,3.425,18.364,18.364,0,0,0,9.165-.948,14.116,14.116,0,0,0,7.068-5.713,9.785,9.785,0,0,0,1.355-4.233,5.864,5.864,0,0,0-1.108-4.077,5.529,5.529,0,0,0-3.6-2.032,7.564,7.564,0,0,0-4.132.517,14.051,14.051,0,0,0-6,5.6,26.144,26.144,0,0,0-4.064,14.8,26.415,26.415,0,0,0,3.7,12.928c2.128,3.551,5.017,6.292,8.148,7.325a11.034,11.034,0,0,0,8.181-.815,32.434,32.434,0,0,0,4.624-2.755l1.153-.805a2.586,2.586,0,0,1,.405-.259"/><path class="n" d="M235.719-492.144a3.931,3.931,0,0,1-.424,1.193,18.915,18.915,0,0,1-1.711,3,22.227,22.227,0,0,1-8.621,7.353,22.234,22.234,0,0,1-11.143,2.077,18.835,18.835,0,0,1-3.408-.557,3.987,3.987,0,0,1-1.195-.421c.029-.125,1.763.385,4.629.488a23.5,23.5,0,0,0,10.816-2.212,23.5,23.5,0,0,0,8.524-7.016c1.723-2.292,2.417-3.961,2.532-3.905"/><path class="n" d="M255.417-486.465c.024.2-1.993.3-3.761,1.845-1.811,1.5-2.237,3.469-2.433,3.413-.081-.012-.107-.531.156-1.316a6.117,6.117,0,0,1,1.827-2.627,6.128,6.128,0,0,1,2.889-1.377c.817-.131,1.324-.021,1.323.061"/><path class="n" d="M283.617-478.629a3.046,3.046,0,0,1-1.131-.521,9.2,9.2,0,0,1-2.508-2.307,9.054,9.054,0,0,1-1.848-4.728,4.511,4.511,0,0,1,.819-2.995,3.1,3.1,0,0,1,3.089-1.307,3.434,3.434,0,0,1,2.424,2.331,3.209,3.209,0,0,1-.611,3.067,4.315,4.315,0,0,1-4.831,1.28,5.419,5.419,0,0,1-2.636-2.181,2.555,2.555,0,0,1-.5-1.147c.055-.025.235.38.717.991a5.542,5.542,0,0,0,2.577,1.875,3.824,3.824,0,0,0,4.169-1.216,2.567,2.567,0,0,0,.464-2.459,2.781,2.781,0,0,0-1.925-1.86,2.43,2.43,0,0,0-2.4,1.039,3.888,3.888,0,0,0-.721,2.555,8.894,8.894,0,0,0,1.607,4.469,13.909,13.909,0,0,0,3.24,3.115"/><path class="n" d="M288.934-494.193c-.161.137-1.615-1.963-4.4-3.072-2.764-1.169-5.273-.7-5.291-.908-.019-.08.577-.32,1.607-.4a8.931,8.931,0,0,1,3.948.664,8.912,8.912,0,0,1,3.275,2.3c.677.779.933,1.369.864,1.413"/><path class="n" d="M325.6-478.675a1.013,1.013,0,0,1-.261.165l-.8.417c-.715.348-1.784.837-3.2,1.363a38.633,38.633,0,0,1-12.56,2.36,17.873,17.873,0,0,1-4.263-.413,9.3,9.3,0,0,1-4.207-2.048,6.24,6.24,0,0,1-2.061-4.564,7.689,7.689,0,0,1,1.773-5.016c2.443-2.889,6.8-3.829,10.616-2.728a12.367,12.367,0,0,1,8.508,8.24,12.164,12.164,0,0,1-2.54,11.557,18.642,18.642,0,0,1-9.875,5.312,56.387,56.387,0,0,1-10.113,1.021,55.89,55.89,0,0,0-8.729.852c-5.265,1.032-8.987,3.744-10.744,6.129a12.819,12.819,0,0,0-2.045,4.14,1,1,0,0,1,.043-.305,8.488,8.488,0,0,1,.212-.883,10.673,10.673,0,0,1,1.575-3.113c1.731-2.492,5.5-5.332,10.86-6.448a54.934,54.934,0,0,1,8.8-.947,57.081,57.081,0,0,0,10-1.069c3.393-.812,6.979-2.288,9.508-5.141a11.487,11.487,0,0,0,2.384-10.908,11.7,11.7,0,0,0-8.027-7.783c-3.593-1.055-7.7-.152-9.941,2.485a7.073,7.073,0,0,0-1.652,4.592,5.647,5.647,0,0,0,1.84,4.152,8.773,8.773,0,0,0,3.94,1.951,17.514,17.514,0,0,0,4.136.444,39.975,39.975,0,0,0,12.475-2.125c1.424-.481,2.5-.928,3.235-1.233a8.61,8.61,0,0,1,1.124-.456"/><path class="n" d="M292.337-426.319c-.112.051-.577-1.117-1.793-2.679a14.184,14.184,0,0,0-6.077-4.517,14.181,14.181,0,0,0-7.551-.6c-1.943.373-3.061.945-3.113.835a7.3,7.3,0,0,1,3.008-1.315,13.392,13.392,0,0,1,7.9.435,13.375,13.375,0,0,1,6.228,4.876,7.261,7.261,0,0,1,1.4,2.969"/><path class="n" d="M307.911-416.239a6.541,6.541,0,0,1-1.825,2.693A11.409,11.409,0,0,1,299-410.231a11.428,11.428,0,0,1-7.528-2.155,6.521,6.521,0,0,1-2.224-2.372c.093-.084.859.907,2.5,1.967a11.82,11.82,0,0,0,7.195,1.868,11.81,11.81,0,0,0,6.808-2.979c1.456-1.305,2.056-2.405,2.163-2.337"/><path class="n" d="M311.966-442.762c-.059.1-.861-.385-2.279-.76a10.129,10.129,0,0,0-5.595.107,10.124,10.124,0,0,0-4.619,3.16c-.937,1.127-1.308,1.988-1.413,1.94a4.606,4.606,0,0,1,1.024-2.239,9.476,9.476,0,0,1,4.8-3.523,9.474,9.474,0,0,1,5.949.085,4.645,4.645,0,0,1,2.136,1.229"/><path class="n" d="M361.639-455.031a5.438,5.438,0,0,1,.244.989,7.154,7.154,0,0,1,.168,1.227,9.648,9.648,0,0,1,.045,1.691,16.9,16.9,0,0,1-3.82,9.937,17.573,17.573,0,0,1-5.748,4.739,17.812,17.812,0,0,1-8.331,1.912,22.4,22.4,0,0,1-17.125-8.476,13.405,13.405,0,0,1-2.413-4.619,8.744,8.744,0,0,1,.085-5.088,6.479,6.479,0,0,1,3.12-3.805,7.191,7.191,0,0,1,4.689-.555,7.963,7.963,0,0,1,3.964,2.1,9.116,9.116,0,0,1,2.173,3.616,12.116,12.116,0,0,1-.059,7.44,14.151,14.151,0,0,1-3.147,5.283,14.421,14.421,0,0,1-3.671,2.837,13.763,13.763,0,0,1-2.721,1.084,5.453,5.453,0,0,1-1,.188,19.77,19.77,0,0,0,3.593-1.508,14.382,14.382,0,0,0,6.479-8.032,11.666,11.666,0,0,0-.017-7.111,8.548,8.548,0,0,0-2.059-3.364,7.358,7.358,0,0,0-3.661-1.909,6.546,6.546,0,0,0-4.255.517,5.811,5.811,0,0,0-2.78,3.429,8.1,8.1,0,0,0-.067,4.692,12.791,12.791,0,0,0,2.3,4.377,21.882,21.882,0,0,0,16.584,8.26,17.347,17.347,0,0,0,8.063-1.785,17.243,17.243,0,0,0,5.628-4.533,16.982,16.982,0,0,0,3.932-9.641,24.391,24.391,0,0,0-.188-3.895"/><path class="n" d="M371.927-427.419a3.557,3.557,0,0,1-.811-.915,9.575,9.575,0,0,1-1.456-3.017,12.336,12.336,0,0,1-.2-4.968,45.847,45.847,0,0,1,1.351-5.885,41.781,41.781,0,0,1,4.772-9.841c.749-1.18,1.384-2.113,1.835-2.751s.721-.976.763-.951A33.879,33.879,0,0,1,376-451.792,49.008,49.008,0,0,0,371.475-442a52.818,52.818,0,0,0-1.384,5.776,12.629,12.629,0,0,0,.044,4.755,17.932,17.932,0,0,0,1.792,4.052"/><path class="n" d="M397.174-458.1a2.994,2.994,0,0,1,.4.955,17.226,17.226,0,0,1,.672,2.74,24.516,24.516,0,0,1-.251,9.291,24.528,24.528,0,0,1-3.684,8.535,17.1,17.1,0,0,1-1.763,2.2c-.463.481-.732.729-.767.7-.095-.083.884-1.177,2.12-3.168a27.572,27.572,0,0,0,3.415-8.415,27.616,27.616,0,0,0,.444-9.071c-.284-2.325-.709-3.731-.591-3.765"/><path class="n" d="M309.931-395.744a2.417,2.417,0,0,1-.583-.3,15.312,15.312,0,0,0-1.627-.887,19.114,19.114,0,0,0-6.5-1.821,19.826,19.826,0,0,0-9.791,1.569,16.855,16.855,0,0,0-4.889,3.24,10.112,10.112,0,0,0-1.925,2.381,4.815,4.815,0,0,0-.671,2.928,3.484,3.484,0,0,0,1.425,2.5,2.841,2.841,0,0,0,2.716.125c1.824-.78,2.528-2.883,2.473-4.683a9.475,9.475,0,0,0-4.944-8.02,9.745,9.745,0,0,0-6.528-.864,19.922,19.922,0,0,0-2.373.768,2.152,2.152,0,0,1,.552-.356,8.791,8.791,0,0,1,1.757-.675,9.76,9.76,0,0,1,6.819.691A9.933,9.933,0,0,1,291.2-390.7a6.918,6.918,0,0,1-.565,3.011,4.52,4.52,0,0,1-2.272,2.305,3.524,3.524,0,0,1-3.369-.167,4.163,4.163,0,0,1-1.737-3,5.507,5.507,0,0,1,.756-3.348,10.706,10.706,0,0,1,2.061-2.539,17.278,17.278,0,0,1,5.1-3.332,19.915,19.915,0,0,1,10.1-1.472,18.128,18.128,0,0,1,6.572,2.071,11,11,0,0,1,1.58,1.009c.347.253.52.4.505.416"/><path class="n" d="M314.754-384.715c.16.105-.563,1.476-1.613,3.06s-2.032,2.783-2.191,2.677.563-1.476,1.613-3.061,2.032-2.783,2.191-2.676"/><path class="n" d="M331.683-365.628c-.108.029-.295-.476-.759-1.164a7,7,0,0,0-2.352-2.151,7,7,0,0,0-3.068-.867c-.327-.013-.607,0-.828.005-.34.015-.541.029-.56-.036s.467-.361,1.372-.46a5.945,5.945,0,0,1,3.421.751,5.969,5.969,0,0,1,2.441,2.512c.391.823.408,1.395.332,1.409"/><path class="n" d="M276.607-372.426c.048.1-1.605.919-4.179,2.388a36.066,36.066,0,0,0-9.069,7.009,19.3,19.3,0,0,0-4.8,10.188,23.593,23.593,0,0,0,.075,4.755,3.863,3.863,0,0,1-.381-1.248,12.643,12.643,0,0,1-.183-3.557,18.712,18.712,0,0,1,4.769-10.6,32.651,32.651,0,0,1,9.353-6.977c1.327-.689,2.423-1.195,3.191-1.52a4.651,4.651,0,0,1,1.224-.439"/><path class="n" d="M296.2-365.915c-.043.052-.745-.439-1.452-1.6a8.7,8.7,0,0,1-1.113-5.105,8.7,8.7,0,0,1,1.943-4.851c.891-1.031,1.665-1.4,1.7-1.34.076.1-.575.6-1.308,1.64a9.513,9.513,0,0,0-1.64,4.609,9.546,9.546,0,0,0,.853,4.816c.553,1.148,1.111,1.751,1.02,1.835"/><path class="n" d="M265.575-390.071c-.032.024-.236-.3-.765-.772a5.528,5.528,0,0,0-2.776-1.233,6.935,6.935,0,0,0-4.652.971,14.149,14.149,0,0,0-4.413,4.66c-1.317,2.024-2.436,4.465-4.12,6.837a14.534,14.534,0,0,1-7.353,5.495A13.622,13.622,0,0,1,231.4-374.7a14.436,14.436,0,0,1-7.421-7.912,8.613,8.613,0,0,1-.229-5.625,7.891,7.891,0,0,1,3.459-4.24,8.116,8.116,0,0,1,5.152-1.18,8.5,8.5,0,0,1,4.576,2.177,11.192,11.192,0,0,1,3.617,8.381,13.835,13.835,0,0,1-2.488,7.615,15.471,15.471,0,0,1-4.823,4.533,19.107,19.107,0,0,1-4.58,1.992,20.414,20.414,0,0,1-3.081.652c-.356.052-.629.071-.815.085a.912.912,0,0,1-.279,0,8.052,8.052,0,0,1,1.071-.224,25.155,25.155,0,0,0,3.025-.772,19.771,19.771,0,0,0,4.455-2.064,15.243,15.243,0,0,0,4.619-4.479,13.415,13.415,0,0,0,2.321-7.344,10.634,10.634,0,0,0-3.469-7.9,7.859,7.859,0,0,0-4.228-2,7.462,7.462,0,0,0-4.719,1.1,7.227,7.227,0,0,0-3.157,3.876,7.934,7.934,0,0,0,.227,5.173,13.8,13.8,0,0,0,7.056,7.532,13,13,0,0,0,9.605.595,13.99,13.99,0,0,0,7.084-5.225c1.661-2.292,2.809-4.723,4.175-6.767a14.408,14.408,0,0,1,4.629-4.728,7.164,7.164,0,0,1,4.892-.9,5.475,5.475,0,0,1,2.827,1.4,3.386,3.386,0,0,1,.671.876"/><path class="n" d="M266.021-369.3a6.471,6.471,0,0,1-2.152-1.7,14.572,14.572,0,0,1-3.277-5.76,14.563,14.563,0,0,1-.412-6.615,6.477,6.477,0,0,1,.868-2.6c.115.037-.205,1.029-.381,2.669a16.532,16.532,0,0,0,.591,6.348,16.548,16.548,0,0,0,2.981,5.633c1.045,1.275,1.857,1.929,1.783,2.024"/><path class="n" d="M270.929-400.035c-.036.069-.94-.448-2.68-1.131a32.035,32.035,0,0,0-7.612-2,31.958,31.958,0,0,0-11.592.565,25.9,25.9,0,0,0-6.4,2.4,4.262,4.262,0,0,0-2.117,2.532,2.41,2.41,0,0,0,1.38,2.681,1.437,1.437,0,0,0,1.405-.423,3.479,3.479,0,0,0,.8-1.488,12.338,12.338,0,0,0,.307-3.543,16.033,16.033,0,0,0-1.707-6.545,15.323,15.323,0,0,0-3.764-4.839A14.954,14.954,0,0,0,234.3-414.5a16.191,16.191,0,0,0-7.727-.769c-1.839.292-2.807.7-2.829.629a3.015,3.015,0,0,1,.689-.312,13.648,13.648,0,0,1,2.093-.584,15.818,15.818,0,0,1,7.935.572,15.263,15.263,0,0,1,4.853,2.693,15.724,15.724,0,0,1,3.964,4.989,16.523,16.523,0,0,1,1.816,6.805,12.863,12.863,0,0,1-.323,3.764,4.134,4.134,0,0,1-.973,1.788,2.133,2.133,0,0,1-2.08.6,2.629,2.629,0,0,1-1.583-1.433,3.344,3.344,0,0,1-.288-2.048,4.889,4.889,0,0,1,2.441-2.983,26.061,26.061,0,0,1,6.6-2.439,31.646,31.646,0,0,1,11.811-.429,29.755,29.755,0,0,1,7.648,2.24,18.675,18.675,0,0,1,1.933.977,3.132,3.132,0,0,1,.64.4"/><path class="n" d="M167.022-396.2c-.043-.057.828-.645,2.143-1.976a18.6,18.6,0,0,0,4.191-6.615,14.494,14.494,0,0,0-.335-11.284,14.274,14.274,0,0,0-4.256-5.252,11.992,11.992,0,0,0-6.715-2.521,7.737,7.737,0,0,0-3.528.739,4.452,4.452,0,0,0-2.347,2.379,3.423,3.423,0,0,0,.479,3.093,5.03,5.03,0,0,0,2.529,1.879,6.887,6.887,0,0,0,5.772-.981,9.749,9.749,0,0,0,3.5-3.973,20.058,20.058,0,0,0,1.669-7.657c.037-.876.068-1.592.093-2.164a3.159,3.159,0,0,1,.065-.756,3.163,3.163,0,0,1,.073.756c.024.5.048,1.228.039,2.173a19.317,19.317,0,0,1-1.5,7.86,10.2,10.2,0,0,1-3.629,4.244,7.455,7.455,0,0,1-6.281,1.108,5.664,5.664,0,0,1-2.881-2.112,4.1,4.1,0,0,1-.575-3.693,5.124,5.124,0,0,1,2.687-2.776,8.381,8.381,0,0,1,3.852-.811,12.6,12.6,0,0,1,7.105,2.673,14.814,14.814,0,0,1,4.423,5.521,13.937,13.937,0,0,1,1.315,6.265,16.168,16.168,0,0,1-1.1,5.463,18,18,0,0,1-4.46,6.635,13.609,13.609,0,0,1-1.687,1.383,3.128,3.128,0,0,1-.647.4"/><path class="n" d="M194.656-376.362a5.609,5.609,0,0,1-1.043-1.109,21.778,21.778,0,0,1-2.284-3.468,25.022,25.022,0,0,1-2.891-13.293,25.029,25.029,0,0,1,4.612-12.8,21.8,21.8,0,0,1,2.719-3.139,5.581,5.581,0,0,1,1.179-.961c.1.1-1.567,1.508-3.493,4.38a25.987,25.987,0,0,0-4.323,12.567,26,26,0,0,0,2.636,13.024c1.532,3.1,3,4.717,2.888,4.8"/><path class="o" d="M275.265-372.306c1.875-.609,3.8-1.312,5.745-2.116A81.29,81.29,0,0,0,290.8-379.4c.215-.131.427-.263.637-.393,1.2.253,2.4.448,3.579.6a51.479,51.479,0,0,1-8.056,6.708q-5.22.158-10.484.177c.092-.06.136-.1.128-.117s-.009-.007-.021-.007a1.867,1.867,0,0,0-.413.125h-.908m-2.217-.005c-.469,0-.947-.005-1.417-.009,3.7-1.024,7.364-2.172,10.915-3.532q-.888.4-1.8.789c-2.629,1.088-5.221,2-7.695,2.752m22.484-7.416c-1.1-.136-2.219-.311-3.343-.535l.5-.323a55.791,55.791,0,0,0,7.831-5.347,48.9,48.9,0,0,1-4.992,6.2"/><path class="p" d="M295.019-379.194c-1.179-.149-2.375-.344-3.579-.6q.378-.236.748-.471c1.124.224,2.24.4,3.343.535q-.254.268-.512.533"/><path class="p" d="M275.074-372.306c-.676,0-1.348,0-2.027-.005,2.473-.756,5.065-1.664,7.695-2.752q.914-.386,1.8-.789a74.228,74.228,0,0,0,10.148-4.732l-.5.323q-.37.234-.748.471c-.211.131-.423.263-.637.393a81.3,81.3,0,0,1-9.793,4.976c-1.944.8-3.871,1.507-5.745,2.116h-.191"/><path class="q" d="M276.173-372.307a1.865,1.865,0,0,1,.413-.125c.012,0,.019,0,.021.007s-.036.057-.128.117h-.307"/><path class="o" d="M254.769-381.648c-.011-.016-.021-.031-.031-.047l.065-.032-.035.079m-.2-.34c-1.015-1.98-.137-4.589,1.464-6.2,1.7-1.7,4.008-2.605,6.163-3.668.092-.045.185-.092.276-.139a5.47,5.47,0,0,1,2.337,1.151c.511.455.719.773.761.773h0a3.386,3.386,0,0,0-.671-.876,5.3,5.3,0,0,0-2.1-1.216,38.549,38.549,0,0,0,7.851-5.392q.074.32.16.636a19.3,19.3,0,0,0,1.011,2.943q-1.286,1.176-2.555,2.253c-1.7,1.353-3.291,2.68-4.9,3.756-.795.552-1.539,1.121-2.3,1.6-.345.216-.687.428-1.02.637.023-.151.024-.233-.008-.244,0,0,0,0,0,0-.028,0-.116.136-.231.4l-.929.58-.076.049q-2.1.938-4.3,1.671l-.477,1.047c-.157.084-.312.164-.464.241m9.836-5.3c.1-.067.2-.135.3-.2,1.636-1.067,3.251-2.385,4.979-3.737q1.208-1.01,2.435-2.113c.065.139.133.275.2.412a51.467,51.467,0,0,1-7.912,5.64m8.44-6.1c-.068-.141-.136-.284-.2-.428,1.832-1.677,3.671-3.507,5.465-5.488.175-.055.365-.109.573-.163a53.277,53.277,0,0,1-5.837,6.079m-.481-1.076a21.037,21.037,0,0,1-1.112-3.623,38.8,38.8,0,0,0,8.912-12.208c2.421-5.251,4.26-11.7,9.625-13.853a49.181,49.181,0,0,1-4.207,13.781,85.416,85.416,0,0,1-6.3,8.673,85.078,85.078,0,0,1-6.917,7.229m6.049-5.176q.706-.788,1.4-1.608,1.2-1.448,2.3-2.915a53.159,53.159,0,0,1-3.156,4.352c-.2.055-.379.112-.548.171"/><path class="p" d="M272.318-392.932c-.068-.137-.136-.273-.2-.412q.264-.238.528-.48c.065.144.133.287.2.428q-.262.234-.528.464m-.491-1.044a19.294,19.294,0,0,1-1.011-2.943q-.086-.316-.16-.636c.2-.179.4-.357.6-.54a21.036,21.036,0,0,0,1.112,3.623l-.537.5"/><path class="p" d="M254.738-381.7c-.061-.1-.116-.195-.168-.293.152-.077.307-.157.464-.241l-.231.5-.065.032m5.071-3.252.076-.049.929-.58c-.028.063-.057.132-.087.209q-.456.216-.919.42m1.208-.557c.016-.085.029-.16.039-.223.333-.209.675-.421,1.02-.637.759-.481,1.5-1.051,2.3-1.6,1.609-1.076,3.2-2.4,4.9-3.756q1.266-1.076,2.555-2.253l.537-.5a85.078,85.078,0,0,0,6.917-7.229,85.416,85.416,0,0,0,6.3-8.673,52.111,52.111,0,0,1-3.465,6.2q-1.1,1.464-2.3,2.915-.694.82-1.4,1.608a8.758,8.758,0,0,0-1.147.488,2.152,2.152,0,0,0-.552.356.016.016,0,0,0,.015.007c.087,0,.541-.252,1.38-.515-1.795,1.981-3.633,3.811-5.465,5.488q-.264.242-.528.48-1.224,1.1-2.435,2.113c-1.728,1.352-3.343,2.671-4.979,3.737-.1.067-.2.135-.3.2q-1.66.96-3.389,1.788"/><path class="q" d="M276.73-398.8a.016.016,0,0,1-.015-.007,2.152,2.152,0,0,1,.552-.356,8.75,8.75,0,0,1,1.147-.488c.169-.059.352-.116.548-.171-.092.116-.185.229-.279.344-.208.053-.4.108-.573.163-.839.263-1.293.515-1.38.515"/><path class="q" d="M265.571-390.07c-.043,0-.251-.319-.761-.773a5.47,5.47,0,0,0-2.337-1.151c.112-.056.223-.112.333-.169a5.3,5.3,0,0,1,2.1,1.216,3.385,3.385,0,0,1,.671.876h0"/><path class="q" d="M260.727-385.367c.029-.077.059-.147.087-.209.115-.26.2-.4.231-.4,0,0,0,0,0,0,.032.011.031.093.008.244-.009.063-.023.137-.039.223-.1.047-.193.092-.289.137"/><path class="r" d="M218.773-396.416l1.392-10.193c.023.053.044.107.064.159-.087.561-.169,1.079-.248,1.54-.5,2.96-.745,5.752-1.208,8.495"/><path class="o" d="M216.794-389.4a12.2,12.2,0,0,1-4.435-8.62,37.287,37.287,0,0,1,1.488-9.183q.874-3.69,1.539-7.424a27.378,27.378,0,0,1,3,4.316,32.649,32.649,0,0,1,1.783,3.7l-1.392,10.193a29.562,29.562,0,0,1-1.979,7.017"/><path class="r" d="M220.313-407l-.067-.2,1.952-14.3.016.089c-.145,1.284-1.131,9.293-1.9,14.411"/><path class="o" d="M220.246-407.207a24.247,24.247,0,0,0-1.432-3.337,25.714,25.714,0,0,0-3.285-4.895,135.535,135.535,0,0,0,1.913-19.545,6.826,6.826,0,0,0,1.147-.809,6.375,6.375,0,0,0,.863-.9q.206,1.088.412,2.2c.864,4.635,1.648,9.039,2.335,13l-1.952,14.3m1.935-18.244c-.493-2.905-1.04-5.987-1.633-9.177q-.278-1.482-.555-2.928c.077-.159.107-.245.095-.252s0,0-.005,0c-.019,0-.055.047-.113.132q-.33-1.724-.661-3.387a60.384,60.384,0,0,1,2.873,15.613m-4.729-9.915q.13-5.768-.235-11.533.264.664.517,1.328c.536,2.712,1.1,5.609,1.672,8.632a7.486,7.486,0,0,1-.989.937,6.8,6.8,0,0,1-.965.636"/><path class="p" d="M222.214-421.414l-.016-.089c-.687-3.959-1.471-8.363-2.335-13q-.206-1.108-.412-2.2a5.411,5.411,0,0,0,.359-.519c.077-.136.137-.249.183-.34q.276,1.446.555,2.928c.593,3.191,1.14,6.272,1.633,9.177.059,1.267.076,2.552.051,3.863,0,.011-.007.071-.017.175m-2.808-15.525c-.572-3.023-1.136-5.92-1.672-8.632.572,1.5,1.1,3,1.573,4.507q.33,1.662.661,3.387a7.438,7.438,0,0,1-.563.739"/><path class="q" d="M217.442-434.984c0-.127.007-.255.009-.381a6.807,6.807,0,0,0,.965-.636,7.488,7.488,0,0,0,.989-.937,7.442,7.442,0,0,0,.563-.739c.059-.085.095-.132.113-.132h.005c.012.007-.017.093-.095.252-.045.091-.105.2-.183.34a5.42,5.42,0,0,1-.359.519,6.374,6.374,0,0,1-.863.9,6.828,6.828,0,0,1-1.147.809"/><path class="q" d="M220.229-406.451c-.02-.052-.041-.105-.064-.159a32.649,32.649,0,0,0-1.783-3.7,27.379,27.379,0,0,0-3-4.316c.048-.271.1-.543.143-.813a25.714,25.714,0,0,1,3.285,4.895,24.247,24.247,0,0,1,1.432,3.337l.067.2q-.042.282-.084.552"/><path class="j" d="M217.217-446.9q-.508-1.284-1.06-2.573l.593-1.02q.162.8.329,1.637c.051.652.1,1.3.137,1.956"/><path class="p" d="M217.079-448.855q-.168-.834-.329-1.637l.165-.287q.09.962.164,1.924"/><path class="o" d="M267.573-460.835c-4,0-7.556-2.6-10.436-5.4A53.184,53.184,0,0,1,243.789-487.7a46.453,46.453,0,0,0,5.189,8.841,54.2,54.2,0,0,0,4.9,5.9,54.164,54.164,0,0,0,6.885,6.089l1.007.745-.515-1.147a17.366,17.366,0,0,1-1.483-6.993,7.745,7.745,0,0,1,1.5-5.089,8.943,8.943,0,0,1,3.452-1.617,5.683,5.683,0,0,0,1.243-.075,1.681,1.681,0,0,0-.544-.081,13.86,13.86,0,0,1,2.539-.259l-.356.34h0c0,.005.008.008.02.008a5.728,5.728,0,0,1,1.427-.212h.037a7.483,7.483,0,0,1,3.8,1.2,7.782,7.782,0,0,1,1.432,1.121c.068.084.14.176.219.275.392.495.733.987,1.073,1.453a9.331,9.331,0,0,0,1.432,1.879,4.237,4.237,0,0,0,1.752.953,12.87,12.87,0,0,0,2,.435,13.451,13.451,0,0,0,1.891.141l.249,0a4.256,4.256,0,0,0,2.284-.556l.087-.057.032-.132c.472-2,.909-4.12,1.469-6.32s1.039-4.516,1.44-6.9c.367-2.179.653-4.319.9-6.379a1.011,1.011,0,0,1,.135-.176.994.994,0,0,1,.745-.305,1.646,1.646,0,0,1,1.367.809,4.1,4.1,0,0,1,.231,2.473q-1.282,11.08-2.563,22.16a17.381,17.381,0,0,1-3.588.364,24.275,24.275,0,0,1-8.68-1.759,56.57,56.57,0,0,1-9.379-4.967c-.325-.869-.613-1.584-.839-2.14-.179-.437-.323-.787-.436-1.061a1.7,1.7,0,0,0-.171-.353h0a1.753,1.753,0,0,0,.105.379c.1.281.219.637.371,1.084.18.509.412,1.145.675,1.907l-1.309-.823a25.112,25.112,0,0,0,2.06,15.716c-.1,0-.2,0-.295,0m-7.371-7.3-.259-.207.244.165a.38.38,0,0,1,.015.041"/><path class="p" d="M261.766-466.131l-1.007-.745a54.17,54.17,0,0,1-6.885-6.089,54.2,54.2,0,0,1-4.9-5.9,45.818,45.818,0,0,0,10.965,10.521l.259.207a.379.379,0,0,0-.015-.041c.192.128.384.253.577.379-.959-3.031-2.047-7.095-.608-10.181a4.035,4.035,0,0,1,1.115-1.383,7.745,7.745,0,0,0-1.5,5.089,17.366,17.366,0,0,0,1.483,6.993l.515,1.147m2.957-14.847c.231-.057.463-.111.7-.156a1.676,1.676,0,0,1,.544.081,5.689,5.689,0,0,1-1.243.075"/><path class="s" d="M267.6-481.052l.356-.34h.1c.147,0,.292,0,.437.008a2.412,2.412,0,0,0-.889.332h0"/><path class="p" d="M282.682-473.8a13.445,13.445,0,0,1-1.891-.141,12.869,12.869,0,0,1-2-.435,4.237,4.237,0,0,1-1.752-.953,9.328,9.328,0,0,1-1.432-1.879,6.05,6.05,0,0,0,2.824,2.416,13.316,13.316,0,0,0,4.285.812,3.342,3.342,0,0,0,2.3-.632c1.5-6.473,2.337-12.267,3.84-18.741a2.577,2.577,0,0,1,.281-.795c-.247,2.06-.533,4.2-.9,6.379-.4,2.385-.883,4.7-1.44,6.9s-1,4.316-1.469,6.32l-.032.132-.087.057a4.256,4.256,0,0,1-2.284.556l-.249,0m-8.363-5.136a7.782,7.782,0,0,0-1.432-1.121,7.483,7.483,0,0,0-3.8-1.2h-.037a5.727,5.727,0,0,0-1.427.212c-.012,0-.017,0-.02-.008h0a2.412,2.412,0,0,1,.889-.332,8.968,8.968,0,0,1,3.137.616c1.753.745,1.664.545,2.688,1.832"/><path class="p" d="M267.411-475.548l-.295-.184c-.263-.761-.495-1.4-.675-1.907-.152-.447-.275-.8-.371-1.084a1.754,1.754,0,0,1-.105-.379h0a1.706,1.706,0,0,1,.171.353c.113.275.257.624.436,1.061.225.556.513,1.271.839,2.14"/><path class="j" d="M243.789-487.7a44.789,44.789,0,0,1-2.475-7.075l.283.088a35.809,35.809,0,0,0,1.689,5.513c.061.16.124.321.189.485.1.329.205.66.313.988m-1.489-5.565c-.151-.483-.28-.927-.389-1.325l.139.043c.079.429.161.857.251,1.283"/><path class="p" d="M243.475-488.691c-.065-.164-.128-.325-.189-.485a35.814,35.814,0,0,1-1.689-5.513l.313.1c.109.4.239.843.389,1.325q.484,2.314,1.176,4.577"/><path class="r" d="M323.058-433.839l-10.525-6a.1.1,0,0,1,0-.02l10.383,5.544.141.475"/><path class="o" d="M322.917-434.314l-10.383-5.544c.6-7.311,1.269-13.855,1.751-18.8.116-1.227.223-2.36.321-3.391l.143-1.176c.02,1.332,7.079,25.232,8.168,28.915"/><path class="p" d="M312.533-439.838l-.587-.333,2.66-21.881c-.1,1.031-.205,2.164-.321,3.391-.481,4.949-1.148,11.493-1.751,18.8a.1.1,0,0,0,0,.02"/><path class="s" d="M314.749-463.228a.123.123,0,0,1,.005-.051l-.005.051"/><path class="h" d="M245.735-547.144v46.022a11.148,11.148,0,0,0,2.623,7.185,33.685,33.685,0,0,0,9.241,7.656l9.284,5.228,7.679-6.856a11.165,11.165,0,0,0,3.717-7.891c.133-3.352.132-6.729.132-6.729s13.011-.935,14.232-13.764c.576-6.041.759-18.413.789-29.816a24.955,24.955,0,0,0-22.9-24.931l-.367-.031a23.85,23.85,0,0,0-24.427,23.925"/><path class="i" d="M278.411-502.528a31.135,31.135,0,0,1-16.312-6.328s3.367,9.733,16.277,9.639l.035-3.311"/><path class="l" d="M289.634-537.86a1.839,1.839,0,0,1-1.92,1.7,1.76,1.76,0,0,1-1.753-1.811,1.84,1.84,0,0,1,1.919-1.705,1.759,1.759,0,0,1,1.755,1.812"/><path class="l" d="M290.154-540.932c-.247.221-1.551-.923-3.525-1.081-1.969-.185-3.5.709-3.7.451-.1-.116.172-.528.839-.936a5.07,5.07,0,0,1,2.984-.656,4.847,4.847,0,0,1,2.781,1.16c.569.516.739.965.617,1.063"/><path class="l" d="M271.019-538.8a1.841,1.841,0,0,1-1.921,1.7,1.759,1.759,0,0,1-1.753-1.811,1.839,1.839,0,0,1,1.92-1.705,1.761,1.761,0,0,1,1.755,1.812"/><path class="l" d="M270.723-542.169c-.247.22-1.553-.923-3.525-1.08-1.969-.187-3.5.708-3.7.448-.095-.115.169-.527.841-.935a5.053,5.053,0,0,1,2.983-.656,4.856,4.856,0,0,1,2.781,1.16c.567.516.739.965.617,1.063"/><path class="l" d="M276.675-526.939a12.973,12.973,0,0,1,3.253-.313c.508-.011.993-.071,1.107-.408a2.571,2.571,0,0,0-.212-1.523q-.56-1.888-1.173-3.96c-1.617-5.636-2.744-10.252-2.517-10.316s1.724,4.453,3.341,10.089q.58,2.082,1.108,3.977a2.931,2.931,0,0,1,.1,2,1.27,1.27,0,0,1-.891.669,3.5,3.5,0,0,1-.865.048,12.989,12.989,0,0,1-3.249-.264"/><path class="l" d="M270.754-526.055c.323.007.149,2.149,1.857,3.823s4.007,1.625,4,1.927c.02.136-.543.373-1.508.32a5.354,5.354,0,0,1-3.349-1.487,4.665,4.665,0,0,1-1.42-3.195c-.007-.9.276-1.413.421-1.388"/><path class="l" d="M271.874-549.861c-.24.52-2.188.1-4.527.191-2.341.04-4.265.563-4.532.057-.117-.243.249-.72,1.047-1.177a7.551,7.551,0,0,1,3.429-.891,7.535,7.535,0,0,1,3.472.7c.823.412,1.215.869,1.111,1.117"/><path class="l" d="M289.9-546.7c-.384.42-1.707-.157-3.339-.316-1.628-.213-3.044.052-3.324-.443-.121-.24.135-.671.775-1.045a4.642,4.642,0,0,1,2.777-.509,4.648,4.648,0,0,1,2.591,1.121c.539.509.692.987.52,1.192"/><path class="l" d="M260.845-560.073l-.075.049a10.146,10.146,0,0,0-4.3,6.223l-.056.256c-.807,3.621-1.024,7.356-1.864,10.969s-.685,6.375-4.305,7.189a4.821,4.821,0,0,1-5.04-2.048,3.149,3.149,0,0,1-.319-1.716c.048-8.9-1.743-12.359-.96-21.607a7.823,7.823,0,0,1,3.76-6.079c2.052-1.228,4.536-2.471,6.6-1.275s4.523,5.457,6.049,7.3"/><path class="h" d="M249.583-540.975c-.211-.113-8.608-3.341-9.055,5.463s8.484,7.435,8.513,7.184.541-12.647.541-12.647"/><path class="i" d="M246.522-531.8c-.039-.029-.16.1-.425.207a1.544,1.544,0,0,1-1.147-.036c-.913-.388-1.621-1.9-1.584-3.493a5.049,5.049,0,0,1,.541-2.173,1.775,1.775,0,0,1,1.213-1.12.781.781,0,0,1,.883.467c.105.252.041.425.087.443.024.023.2-.137.144-.505a.973.973,0,0,0-.319-.569,1.155,1.155,0,0,0-.836-.267,2.156,2.156,0,0,0-1.671,1.284,5.215,5.215,0,0,0-.657,2.427c-.033,1.777.791,3.483,2.045,3.915a1.643,1.643,0,0,0,1.415-.161c.283-.2.339-.4.311-.416"/><path class="l" d="M253.883-566.776c-1.872-3.692,4.469-8.245,8.916-9.252s9.979,1.576,14.173,3.364c2.647,1.128,5.255,2.611,8.129,2.729a19.384,19.384,0,0,0,5.683-.957,14.256,14.256,0,0,1,5.709-.644,5.313,5.313,0,0,1,4.377,3.313c.581,1.84-.664,4.191-2.589,4.3a4.54,4.54,0,0,1,6.077,3.688,4.544,4.544,0,0,1-5.589,4.4c1.327-.843,3.112.879,2.828,2.425s-1.791,2.563-3.277,3.075c-3.795,1.305-8.021.439-11.705-1.151s-7.035-3.867-10.677-5.548-9.735-4.659-13.616-3.641c-2.857.748-5.067,3.933-6.575,3.065a5.385,5.385,0,0,1-2.451-4.179,15.566,15.566,0,0,1,.587-4.984"/><path class="m" d="M299.362-564.079c-.069-.051-.507.612-1.535,1.559a12.15,12.15,0,0,1-5.139,2.737,11.168,11.168,0,0,1-8.345-1.032c-2.876-1.584-5.209-4.473-7.941-7.239-2.724-2.788-6.033-4.959-9.477-5.557a10.146,10.146,0,0,0-8.636,2.212,7.694,7.694,0,0,0-2.463,5.511,5.962,5.962,0,0,0,.245,1.645c.129.359.215.537.243.527a14.126,14.126,0,0,1-.149-2.161,7.583,7.583,0,0,1,2.537-5.065,9.63,9.63,0,0,1,8.079-1.88c3.211.6,6.345,2.663,9.005,5.385,2.681,2.7,5.089,5.672,8.169,7.325a11.643,11.643,0,0,0,8.9.923,11.728,11.728,0,0,0,5.213-3.088,8.12,8.12,0,0,0,1.027-1.292c.2-.319.3-.493.271-.509"/><path class="m" d="M247.379-541.544c.031.033.4-.209.788-.879a5.933,5.933,0,0,0,.7-3.147c.04-2.845-2.211-6.088-2.205-10.023a8.864,8.864,0,0,1,1.405-5.161,6.728,6.728,0,0,1,3.5-2.548,5.729,5.729,0,0,1,2.964-.157c.7.171,1.063.367,1.1.3.024-.033-.285-.336-1-.624a5.48,5.48,0,0,0-3.227-.112,7.1,7.1,0,0,0-3.987,2.679,9.344,9.344,0,0,0-1.621,5.633,16.036,16.036,0,0,0,1.236,5.675,16.72,16.72,0,0,1,1.225,4.372,6.8,6.8,0,0,1-.875,3.992"/><path class="e" d="M283.6-287.259s-.672.029-1.984.052l-5.821.08c-5.116.083-12.663.277-22.371.753-9.705.505-21.572,1.359-35.288,2.925-6.852.824-14.175,1.764-21.9,3.047-7.728,1.236-15.86,2.773-24.328,4.7s-17.28,4.228-26.291,7.168a175.9,175.9,0,0,0-27.262,11.247,89.277,89.277,0,0,0-13.074,8.351,41.769,41.769,0,0,0-10.7,11.711c-.324.589-.675,1.168-.982,1.767l-.754,1.881-.379.943c-.1.321-.165.656-.249.984l-.476,1.979a19.875,19.875,0,0,0,.4,8.136c1.3,5.405,4.872,10.064,8.961,13.983,8.355,7.847,19.009,13.307,30.057,17.887a246.424,246.424,0,0,0,35.022,11.079c24.281,5.916,50.019,9.4,76.446,11.257a607.1,607.1,0,0,0,77.346.3,486.864,486.864,0,0,0,71.408-9.319,302.31,302.31,0,0,0,32.377-8.732,160.943,160.943,0,0,0,28.941-12.609,79.218,79.218,0,0,0,12.2-8.689,35.32,35.32,0,0,0,8.836-11.248l.655-1.627a8.52,8.52,0,0,0,.564-1.647l.407-1.685c.061-.281.151-.559.189-.843l.069-.859a16.823,16.823,0,0,0-.5-6.725,23.815,23.815,0,0,0-2.819-6.019,36.953,36.953,0,0,0-4.129-5.071,62.286,62.286,0,0,0-9.759-8.044,103.431,103.431,0,0,0-10.345-6.167,179.421,179.421,0,0,0-20.168-8.979,303.5,303.5,0,0,0-33.812-10.424c-9.427-2.357-16.831-3.84-21.855-4.8-2.509-.5-4.433-.821-5.723-1.068s-1.947-.377-1.947-.377,2.66.391,7.695,1.309,12.449,2.357,21.895,4.677a299.485,299.485,0,0,1,33.883,10.323A179.119,179.119,0,0,1,448.27-256.7a103.591,103.591,0,0,1,10.4,6.172,62.749,62.749,0,0,1,9.849,8.088,37.314,37.314,0,0,1,4.2,5.137,24.343,24.343,0,0,1,2.893,6.153,17.353,17.353,0,0,1,.528,6.924l-.069.881c-.041.291-.131.575-.193.864l-.413,1.729a8.956,8.956,0,0,1-.576,1.687l-.668,1.665a35.784,35.784,0,0,1-8.949,11.436,79.619,79.619,0,0,1-12.284,8.775A161.382,161.382,0,0,1,423.95-184.5a302.325,302.325,0,0,1-32.439,8.78,485.964,485.964,0,0,1-71.5,9.369,606.011,606.011,0,0,1-77.437-.288c-26.461-1.861-52.231-5.352-76.56-11.289A246.973,246.973,0,0,1,130.9-189.05c-11.089-4.607-21.792-10.088-30.248-18.039-4.136-3.973-7.779-8.716-9.124-14.289a20.5,20.5,0,0,1-.4-8.392l.491-2.04c.088-.337.151-.683.259-1.012l.389-.968.777-1.928c.315-.615.672-1.205,1-1.807A42.359,42.359,0,0,1,104.914-249.4a89.675,89.675,0,0,1,13.171-8.392,176.092,176.092,0,0,1,27.366-11.248c9.035-2.933,17.865-5.225,26.348-7.139s16.628-3.44,24.365-4.659c7.732-1.267,15.063-2.191,21.923-3,13.731-1.531,25.607-2.347,35.319-2.809,9.715-.435,17.264-.587,22.383-.623l5.823-.013c1.312,0,1.984.02,1.984.02"/><path class="e" d="M174.634-388.28s-.756.169-2.241.464-3.7.712-6.588,1.332c-5.783,1.2-14.3,3.057-25.124,6.015a257.825,257.825,0,0,0-38.488,13.607c-3.617,1.66-7.315,3.481-11.011,5.581a103.142,103.142,0,0,0-11.052,7.089,60.8,60.8,0,0,0-10.2,9.377,32.134,32.134,0,0,0-6.917,12.683,23.3,23.3,0,0,0,1.1,14.932,38.646,38.646,0,0,0,9.231,12.909c7.891,7.569,17.908,13.3,28.567,18.237,21.475,9.757,46,16.3,72.03,21.187a604.724,604.724,0,0,0,82.633,9.115,712.078,712.078,0,0,0,89.258-1.592c30.492-2.54,60.153-7.016,88.068-14.348A263.893,263.893,0,0,0,474-285.466a137.252,137.252,0,0,0,18.121-9.672,69.04,69.04,0,0,0,15.267-12.879c4.251-4.971,7.387-11.072,7.569-17.5a15.276,15.276,0,0,0-.083-2.381,15.691,15.691,0,0,0-.252-2.363l-.52-2.315a16.016,16.016,0,0,0-.76-2.237,33.4,33.4,0,0,0-4.575-8.176,62.718,62.718,0,0,0-13.527-12.495,122.64,122.64,0,0,0-15.483-9.051,218.79,218.79,0,0,0-31.709-12.447c-10.444-3.268-20.635-5.859-30.424-8.027-39.241-8.465-71.776-10.765-94.145-12.008-11.205-.581-19.919-.607-25.824-.756l-6.719-.147c-1.515-.037-2.289-.073-2.289-.073s.775-.011,2.289,0l6.72.077c5.907.1,14.624.085,25.836.625,22.383,1.161,54.939,3.387,94.238,11.8,9.8,2.155,20.009,4.733,30.477,7.993A219.151,219.151,0,0,1,480.02-365.05a122.915,122.915,0,0,1,15.567,9.08,63.271,63.271,0,0,1,13.671,12.609,34.023,34.023,0,0,1,4.668,8.329,16.3,16.3,0,0,1,.779,2.289l.535,2.375a16.168,16.168,0,0,1,.263,2.425,15.792,15.792,0,0,1,.085,2.447,24.831,24.831,0,0,1-2.313,9.54,35.445,35.445,0,0,1-5.393,8.351,69.587,69.587,0,0,1-15.4,13.015,137.742,137.742,0,0,1-18.2,9.731,264.565,264.565,0,0,1-40.208,13.824c-27.964,7.353-57.659,11.84-88.184,14.383a710.635,710.635,0,0,1-89.345,1.579,603.833,603.833,0,0,1-82.721-9.164c-26.06-4.911-50.619-11.483-72.153-21.292-10.69-4.964-20.745-10.728-28.7-18.377a39.136,39.136,0,0,1-9.334-13.1,23.8,23.8,0,0,1-1.1-15.247,32.585,32.585,0,0,1,7.036-12.863,61.113,61.113,0,0,1,10.3-9.431,103.807,103.807,0,0,1,11.112-7.1c3.713-2.1,7.425-3.916,11.054-5.572A255.822,255.822,0,0,1,140.61-380.73c10.841-2.92,19.373-4.732,25.167-5.892s8.857-1.659,8.857-1.659"/><path class="e" d="M221.374-187.073l-6.651,1.051c-4.357.7-10.777,1.8-18.965,3.593a241.36,241.36,0,0,0-29.375,8.283,136.864,136.864,0,0,0-17.467,7.587,76.414,76.414,0,0,0-8.864,5.42,46.078,46.078,0,0,0-8.147,7.255,26.425,26.425,0,0,0-3.217,4.639,18.3,18.3,0,0,0-1.987,5.392c-.075.479-.189.955-.235,1.441l-.085,1.467c.008.98.123,1.965.213,2.951a29.2,29.2,0,0,0,.765,2.891l.564,1.4.283.7.374.663a32.933,32.933,0,0,0,8.012,9.429,66.174,66.174,0,0,0,10.741,7.209,142.053,142.053,0,0,0,25.14,10.495A261.194,261.194,0,0,0,200.5-98.041a417.959,417.959,0,0,0,61.67,7.372,502.308,502.308,0,0,0,66.689-1.161c22.775-1.971,44.932-5.46,65.688-11.32a165.442,165.442,0,0,0,29.595-11.278,73.852,73.852,0,0,0,12.875-8.316c1.017-.755,1.872-1.689,2.811-2.524.917-.857,1.7-1.843,2.548-2.752a24.534,24.534,0,0,0,3.792-6.34,16.994,16.994,0,0,0-.589-14.059,33.768,33.768,0,0,0-9.181-10.693c-7.343-5.84-15.687-9.769-23.832-13.041a201.035,201.035,0,0,0-24.26-7.771c-7.919-2.044-15.609-3.652-22.988-4.948a455.25,455.25,0,0,0-70.626-6.463l-26.037-.143s9.271-.119,26.04-.02a450.926,450.926,0,0,1,70.674,6.335c7.388,1.288,15.087,2.888,23.017,4.927a201.4,201.4,0,0,1,24.307,7.761c8.168,3.275,16.537,7.2,23.935,13.077a34.144,34.144,0,0,1,9.291,10.813,17.385,17.385,0,0,1,.608,14.365,24.937,24.937,0,0,1-3.849,6.444c-.86.921-1.649,1.918-2.575,2.784-.945.843-1.809,1.787-2.833,2.548a74.306,74.306,0,0,1-12.941,8.368,165.825,165.825,0,0,1-29.667,11.316c-20.791,5.876-42.969,9.369-65.764,11.344a502.229,502.229,0,0,1-66.744,1.153,417.344,417.344,0,0,1-61.728-7.4,261.042,261.042,0,0,1-28.064-7.191,142.223,142.223,0,0,1-25.2-10.543,66.534,66.534,0,0,1-10.789-7.254,33.3,33.3,0,0,1-8.081-9.535l-.379-.672-.288-.715L127.06-135a29.454,29.454,0,0,1-.775-2.945c-.091-1-.206-2.009-.214-3.007l.089-1.495c.047-.495.163-.98.241-1.468a18.6,18.6,0,0,1,2.024-5.477,26.8,26.8,0,0,1,3.258-4.684,46.4,46.4,0,0,1,8.208-7.292,76.252,76.252,0,0,1,8.9-5.425,136.52,136.52,0,0,1,17.509-7.573,239.506,239.506,0,0,1,29.42-8.22c8.2-1.768,14.624-2.847,18.987-3.52s6.664-.967,6.664-.967"/><path class="t" d="M395.479-65.145A13.622,13.622,0,0,0,394.372-70c-1.24-3.059-4.548-6.859-9.761-10.3-10.479-6.9-27.991-12.687-50.037-16.228a304.717,304.717,0,0,0-36.376-3.563,349.615,349.615,0,0,0-41.943.772c-7.367.582-14.9,1.432-22.539,2.648a214.862,214.862,0,0,0-23.153,4.883c-3.88,1.045-7.755,2.256-11.591,3.663a93.224,93.224,0,0,0-11.313,4.933,45.685,45.685,0,0,0-10.255,7.1c-3.027,2.828-5.493,6.657-5.553,10.935.051,4.28,2.513,8.112,5.539,10.945a45.667,45.667,0,0,0,10.256,7.1,92.913,92.913,0,0,0,11.316,4.934c3.836,1.413,7.712,2.62,11.593,3.667a214.913,214.913,0,0,0,23.157,4.885c7.641,1.215,15.175,2.066,22.543,2.649A349.644,349.644,0,0,0,298.2-30.2a304.758,304.758,0,0,0,36.377-3.564c22.048-3.54,39.556-9.332,50.035-16.228,5.212-3.437,8.52-7.237,9.76-10.3a13.641,13.641,0,0,0,1.105-4.855c-.013.2-.036.539-.087,1.273a7.107,7.107,0,0,1-.276,1.545,10.07,10.07,0,0,1-.692,2.06c-1.228,3.077-4.536,6.9-9.751,10.361-10.484,6.94-28,12.763-50.063,16.332a303.84,303.84,0,0,1-36.4,3.6,349.1,349.1,0,0,1-41.977-.747c-7.375-.58-14.915-1.428-22.564-2.641a215.258,215.258,0,0,1-23.188-4.885c-3.888-1.048-7.771-2.257-11.616-3.671a93.44,93.44,0,0,1-11.351-4.948,45.925,45.925,0,0,1-10.319-7.15,20.119,20.119,0,0,1-3.931-4.993,13.067,13.067,0,0,1-1.693-6.151,13.051,13.051,0,0,1,1.7-6.147,20.152,20.152,0,0,1,3.935-4.989,45.949,45.949,0,0,1,10.317-7.142A93.74,93.74,0,0,1,198.88-88.38c3.844-1.412,7.725-2.622,11.613-3.669a215.483,215.483,0,0,1,23.181-4.883c7.649-1.213,15.188-2.061,22.561-2.641a349.026,349.026,0,0,1,41.972-.745,304.087,304.087,0,0,1,36.4,3.6c22.059,3.568,39.581,9.392,50.065,16.331,5.216,3.46,8.525,7.287,9.753,10.364a10.066,10.066,0,0,1,.691,2.06,7.033,7.033,0,0,1,.277,1.545c.051.733.073,1.073.087,1.275"/><path class="e" d="M100.9-271.946a4.258,4.258,0,0,1-4.257,4.257,4.257,4.257,0,0,1-4.257-4.257,4.257,4.257,0,0,1,4.257-4.256,4.258,4.258,0,0,1,4.257,4.256"/><path class="e" d="M485.88-269.062a4.256,4.256,0,0,1-4.256,4.257,4.257,4.257,0,0,1-4.257-4.257,4.258,4.258,0,0,1,4.257-4.256,4.257,4.257,0,0,1,4.256,4.256"/><path class="e" d="M312.255-112.207A4.255,4.255,0,0,1,308-107.95a4.256,4.256,0,0,1-4.256-4.256A4.255,4.255,0,0,1,308-116.462a4.254,4.254,0,0,1,4.256,4.256"/><path class="e" d="M182.989-221.6a2.128,2.128,0,0,1-2.128,2.128,2.127,2.127,0,0,1-2.128-2.128,2.128,2.128,0,0,1,2.128-2.129,2.129,2.129,0,0,1,2.128,2.129"/><path class="t" d="M447.674-170.018a2.129,2.129,0,0,1-2.128,2.128,2.129,2.129,0,0,1-2.129-2.128,2.128,2.128,0,0,1,2.129-2.128,2.128,2.128,0,0,1,2.128,2.128"/><path class="t" d="M279.651-71.578a2.128,2.128,0,0,1-2.128,2.128,2.129,2.129,0,0,1-2.128-2.128,2.128,2.128,0,0,1,2.128-2.128,2.127,2.127,0,0,1,2.128,2.128"/><path class="d" d="M360.454-280.474c-51.695,13.685-101.521,12.647-155.828,0l-6.341-99.269c56.116,10.924,112.452,9.541,162.169-2.349v101.618"/><path class="e" d="M285.038-270.6q-3.024,0-6.053-.061l-.5-.011q-1.7-.036-3.4-.092c-.233-.008-.463-.015-.7-.024a362.448,362.448,0,0,1-69.761-9.691l-.077-1.209-.027-.421-6.091-95.352-.147-2.287a402.69,402.69,0,0,0,76.789,7.437,368.226,368.226,0,0,0,85.38-9.787v101.618a295.56,295.56,0,0,1-42.941,8.08c-.243.028-.488.055-.731.081-1.736.189-3.479.364-5.215.521q-13.242,1.2-26.529,1.2"/><path class="f" d="M276.491-291.521c-6.485,1.915-13.14,1.408-19.9-.665v-35.335a49.971,49.971,0,0,1,19.9,0v36"/><path class="f" d="M339.209-297.785c-5.329,2.884-12.343,3.267-19.905,2.832v-58.353c6.777-1.44,13.44-1.712,19.905,0v55.521"/><path class="d" d="M47.111-457.79l16.9,102.23s25.791,48.3,94.333,59.184l-11.06-91.26S83.9-407.236,47.111-457.79"/><path class="e" d="M158.344-296.375c-48.963-7.777-76.109-34.643-87.624-49.357l-.29-.373a74.8,74.8,0,0,1-6.419-9.453l-16.9-102.23c36.79,50.553,100.172,70.154,100.172,70.154l11.06,91.26"/><path class="g" d="M220.979-465.506a2.362,2.362,0,0,1-.475.089l-1.4.193-5.4.675c-2.344.276-5.212.62-8.529,1.108s-7.107.949-11.271,1.643c-16.679,2.577-39.633,6.835-64.57,13.283-8.668,2.237-17.022,4.545-24.668,6.943l-.38.119-.053-.391c-2.671-19.392-5.259-36.111-7.243-47.967-1.013-5.892-1.823-10.6-2.386-13.879l-.651-3.709c-.064-.4-.115-.712-.155-.96a1.423,1.423,0,0,1-.033-.329,1.437,1.437,0,0,1,.091.319l.211.949q.271,1.318.758,3.689c.644,3.221,1.533,7.928,2.58,13.849,2.1,11.841,4.775,28.552,7.488,47.947l-.433-.272c7.667-2.423,16.02-4.74,24.7-6.98a629.953,629.953,0,0,1,64.669-13.1c4.172-.661,7.969-1.1,11.3-1.54s6.2-.757,8.548-.993l5.412-.544,1.409-.125a2.465,2.465,0,0,1,.481-.019"/><path class="g" d="M222.657-486.063c-.035.009-.188-.589-.569-1.683a17.984,17.984,0,0,0-2.544-4.372,22.226,22.226,0,0,0-6-5.255,23.337,23.337,0,0,0-2.136-1.137,19.506,19.506,0,0,0-2.416-.873,13.286,13.286,0,0,0-5.5-.535,11.563,11.563,0,0,0-5.6,2.2,18.813,18.813,0,0,0-4.479,4.868c-2.6,3.851-4.292,8.541-6.284,13.413a16.793,16.793,0,0,1-4.651,6.667,8.8,8.8,0,0,1-3.86,1.849,7.709,7.709,0,0,1-4.341-.5c-5.632-2.232-8.137-8.717-13.825-10.689a11.139,11.139,0,0,0-8.441.691,10.635,10.635,0,0,0-3.344,2.581,17.01,17.01,0,0,0-2.231,3.581c-1.269,2.505-2.224,5.291-4.375,7.256a6.474,6.474,0,0,1-3.835,1.729,7.513,7.513,0,0,1-4.013-.861,14.4,14.4,0,0,1-5.521-5.427,46.911,46.911,0,0,1-2.921-6.657,31.737,31.737,0,0,0-2.892-6.019,12.037,12.037,0,0,0-4.422-4.1,11.443,11.443,0,0,0-10.137-.3,17.155,17.155,0,0,0-6.434,4.64,12.465,12.465,0,0,0-2.414,4.411c-.34,1.111-.389,1.729-.438,1.721a7.87,7.87,0,0,1,.3-1.76,12.163,12.163,0,0,1,2.339-4.544,17.263,17.263,0,0,1,6.489-4.824,11.842,11.842,0,0,1,10.518.217,12.524,12.524,0,0,1,4.64,4.239,32.1,32.1,0,0,1,2.982,6.107,47.025,47.025,0,0,0,2.908,6.553A13.811,13.811,0,0,0,134.5-467.7a6.871,6.871,0,0,0,3.667.784,5.825,5.825,0,0,0,3.449-1.573c1.972-1.792,2.935-4.516,4.208-7.063a17.592,17.592,0,0,1,2.321-3.729,11.308,11.308,0,0,1,3.553-2.751,11.813,11.813,0,0,1,8.972-.732c3.032,1,5.2,3.333,7.213,5.436,2,2.14,4.063,4.228,6.645,5.281a7.051,7.051,0,0,0,3.967.471,8.177,8.177,0,0,0,3.568-1.705,16.223,16.223,0,0,0,4.479-6.407c1.985-4.808,3.725-9.575,6.392-13.476a19.286,19.286,0,0,1,4.643-4.983,12.056,12.056,0,0,1,5.86-2.256,13.7,13.7,0,0,1,5.677.6,20,20,0,0,1,2.464.919,23.541,23.541,0,0,1,2.165,1.183,22.185,22.185,0,0,1,6.013,5.423,17.032,17.032,0,0,1,2.461,4.488,13.2,13.2,0,0,1,.351,1.288,2.324,2.324,0,0,1,.088.444"/><path class="g" d="M91.659-497.165c.036.188-.608.469-1.437.627s-1.531.133-1.567-.055.608-.469,1.437-.627,1.531-.133,1.567.055"/><path class="g" d="M93.844-481.719c.081.173-.4.571-1.083.887s-1.295.431-1.375.257.4-.571,1.083-.888,1.295-.431,1.375-.256"/><path class="g" d="M96.575-464.843c.063.181-.435.519-1.115.756s-1.281.283-1.344.1.436-.52,1.115-.756,1.28-.283,1.343-.1"/><path class="g" d="M99.853-448.254c.057.183-.508.524-1.262.761s-1.412.28-1.47.1.507-.524,1.262-.761,1.412-.28,1.47-.1"/><path class="g" d="M193.077-527.956a6.761,6.761,0,0,1,1.613-.365c1.061-.183,2.62-.416,4.6-.695,3.961-.556,9.609-1.289,16.347-2.12l.313-.039.029.317c.525,5.677,1.129,12.215,1.771,19.147l.025.288.031.335-.333.041-22.1,2.707-.3.036-.031-.293c-.62-5.8-1.137-10.633-1.509-14.119q-.236-2.428-.377-3.9a8.813,8.813,0,0,1-.083-1.341,11.667,11.667,0,0,1,.241,1.423c.135.987.315,2.3.537,3.932.437,3.44,1.044,8.215,1.772,13.936l-.328-.256,22.088-2.815-.3.376-.027-.288c-.612-6.935-1.191-13.475-1.692-19.153l.343.279-22.632,2.567"/><path class="g" d="M213.6-524.591c-.005.205-3.8.2-8.444.7-4.644.481-8.359,1.275-8.407,1.075-.048-.172,3.632-1.279,8.333-1.765,4.7-.505,8.528-.192,8.517-.013"/><path class="g" d="M213.841-519.636c0,.2-3.541.337-7.881.763s-7.844.957-7.881.76c-.039-.179,3.433-1.033,7.815-1.452s7.952-.252,7.948-.071"/><path class="g" d="M208.55-515.307c.024.189-1.991.6-4.5.92s-4.561.421-4.585.231,1.989-.6,4.5-.92,4.56-.421,4.585-.231"/><path class="t" d="M169.625-444.21a1.069,1.069,0,0,1-1.069,1.069,1.069,1.069,0,0,1-1.069-1.069,1.069,1.069,0,0,1,1.069-1.069,1.069,1.069,0,0,1,1.069,1.069"/><path class="g" d="M352.44-295.57a1.34,1.34,0,0,1-.323.163c-.257.111-.579.245-.976.415-.865.344-2.123.905-3.791,1.5A142.481,142.481,0,0,1,333.045-289,186.88,186.88,0,0,1,284-283.409a286.079,286.079,0,0,1-49.145-5.257c-6.219-1.181-11.223-2.272-14.668-3.073-1.725-.391-3.059-.727-3.963-.949l-1.025-.267a1.365,1.365,0,0,1-.344-.115,1.465,1.465,0,0,1,.36.047c.273.052.615.116,1.04.2.964.2,2.3.472,3.989.821,3.463.719,8.477,1.737,14.7,2.855a302.176,302.176,0,0,0,49.067,5.047,193.188,193.188,0,0,0,48.915-5.377c6.127-1.537,11-3.089,14.336-4.267,1.679-.555,2.949-1.076,3.831-1.377l1-.349a1.489,1.489,0,0,1,.349-.1"/><path class="g" d="M308.619-293.626a1.208,1.208,0,0,1-.028-.271c-.009-.208-.019-.46-.032-.769-.02-.72-.047-1.7-.081-2.951-.052-2.609-.124-6.325-.217-10.972-.141-9.376-.339-22.5-.568-37.708l.267.321a53.374,53.374,0,0,0-20.6.015l.283-.344c0,.221.005.461.008.7.211,20.881.4,39.741.537,53.208L288-292.63a46.627,46.627,0,0,0,8.676,1.057,31.929,31.929,0,0,0,6.552-.535,32.266,32.266,0,0,0,4.02-1.056c.412-.143.744-.259,1.005-.351a2.472,2.472,0,0,1,.371-.112,1.636,1.636,0,0,1-.319.16c-.264.113-.6.255-1.012.433a27.832,27.832,0,0,1-4.013,1.185,31.065,31.065,0,0,1-6.609.657,45.959,45.959,0,0,1-8.767-.965l-.191-.037,0-.2c-.189-13.465-.455-32.324-.749-53.205,0-.24-.005-.48-.008-.7l0-.291.287-.055a53.68,53.68,0,0,1,20.86.015l.264.056v.267c.115,15.283.215,28.465.284,37.885.013,4.623.023,8.321.029,10.917q-.008,1.84-.015,2.9c-.007.3-.012.54-.016.74a.829.829,0,0,1-.02.239"/><path class="g" d="M244.889-294.413a14.346,14.346,0,0,1-.068-1.495q-.03-1.542-.077-4.08c-.039-3.552-.092-8.468-.155-14.331l.193.281c-5.329-1.955-12-3.811-19.161-3.181l-.036,0,.315-.345c-.017,7.281-.033,14.1-.047,19.9l-.184-.276a37.15,37.15,0,0,0,7.684,2.192c2.353.425,4.429.668,6.141.839l3.984.337c.875.072,1.388.135,1.411.152a10.3,10.3,0,0,1-1.419.033c-.924-.019-2.281-.057-4-.173s-3.816-.316-6.2-.7a36.666,36.666,0,0,1-7.831-2.124l-.184-.076v-.2c-.013-5.8-.031-12.623-.047-19.9v-.321l.316-.025h.036c7.332-.643,14.085,1.285,19.437,3.309l.2.075,0,.207c-.063,5.944-.115,10.927-.153,14.527q-.05,2.492-.079,4.011a10.186,10.186,0,0,1-.068,1.368"/><path class="g" d="M254.253-346.047a19.662,19.662,0,0,1-3.893.241c-2.408.037-5.736-.011-9.405-.225s-6.981-.559-9.368-.88a19.773,19.773,0,0,1-3.839-.695,23.973,23.973,0,0,1,3.891.207c2.395.195,5.7.459,9.357.675s6.969.34,9.369.428a24.119,24.119,0,0,1,3.888.249"/><path class="g" d="M251.287-341.7a16.669,16.669,0,0,1-3.417-.015c-2.107-.1-5.016-.283-8.227-.529s-6.115-.508-8.212-.732a16.579,16.579,0,0,1-3.379-.505,16.938,16.938,0,0,1,3.425.017c2.108.1,5.013.281,8.219.528s6.1.507,8.2.731a17.034,17.034,0,0,1,3.389.505"/><path class="g" d="M258.57-336.009a11.3,11.3,0,0,1,.016-1.239q.05-1.278.136-3.439c.141-3.013.341-7.253.588-12.461l.253.268a285.208,285.208,0,0,1-36.836-2.043c-.348.291.469-.4.385-.323v.067l0,.071-.008.141-.017.28-.032.564L222.982-353q-.066,1.118-.129,2.223-.13,2.21-.257,4.36c-.171,2.864-.336,5.639-.493,8.293l-.289-.345c10.652,1.312,19.856,1.868,26.38,2.12l7.636.229,2.008.064a6.2,6.2,0,0,1,.733.048,4.149,4.149,0,0,1-.676.048c-.455.02-1.175.051-2.067.06-1.78.025-4.377.029-7.647-.04-6.536-.137-15.765-.607-26.447-1.876l-.307-.036.017-.309c.149-2.656.305-5.431.467-8.3q.124-2.148.249-4.36.064-1.106.129-2.224l.064-1.12.032-.563.017-.283.008-.141,0-.069v-.067c-.085.068.735-.617.391-.327a312.564,312.564,0,0,0,36.751,2.225h.273l-.019.268c-.361,5.264-.656,9.548-.865,12.593q-.162,2.124-.26,3.377a9.051,9.051,0,0,1-.12,1.139"/><path class="g" d="M263.109-328.522c-.168.095-1.273-1.52-2.564-3.559s-2.141-3.835-1.975-3.928,1.273,1.519,2.564,3.559,2.141,3.835,1.975,3.928"/><path class="g" d="M149.5-303.662a2.2,2.2,0,0,1-.436-.1l-1.26-.367c-1.147-.348-2.767-.841-4.831-1.471-2.088-.672-4.689-1.359-7.577-2.536l-4.665-1.777c-1.656-.62-3.406-1.277-5.175-2.131-3.567-1.633-7.53-3.312-11.558-5.577-4.126-2.076-8.313-4.7-12.689-7.488a127.464,127.464,0,0,1-25.468-22.072A76.186,76.186,0,0,1,66.657-360l-.023-.044-.009-.057-7.739-50c-.937-6.236-1.689-11.248-2.214-14.748-.242-1.7-.43-3.024-.565-3.972l-.131-1.031a1.472,1.472,0,0,1-.023-.353,1.508,1.508,0,0,1,.085.343c.049.264.113.6.192,1.021l.681,3.955c.574,3.492,1.395,8.493,2.417,14.716,2,12.564,4.8,30.053,7.971,49.96l-.032-.1a76.215,76.215,0,0,0,9.1,12.671,128.474,128.474,0,0,0,25.3,21.993c4.347,2.789,8.505,5.423,12.6,7.512,4,2.28,7.94,3.979,11.484,5.637,1.758.864,3.5,1.533,5.142,2.169l4.635,1.821c2.869,1.211,5.455,1.933,7.525,2.645,2.047.68,3.651,1.215,4.788,1.593l1.24.432a2.04,2.04,0,0,1,.416.169"/><path class="g" d="M143.478-333.337a1.319,1.319,0,0,1-.235.213l-.725.583q-1.02.8-2.851,2.22L128.9-322.075l-.169.129-.127-.175-13.167-18.213.4.067-10.094,7.189-.336.239-.144-.388c-3.939-10.685-8.357-22.669-13.012-35.293q-.941-2.56-1.868-5.081l.635.036c-2.829,5.617-5.58,11.077-8.22,16.319l-.356.708-.26-.748c-7.151-20.617-13.228-38.139-17.171-49.505l.364-.021c-1.078,4.549-1.931,8.145-2.525,10.648l-.691,2.805c-.078.293-.14.527-.19.717a.932.932,0,0,1-.082.239.958.958,0,0,1,.031-.251c.037-.193.083-.431.141-.728q.215-1.02.6-2.828c.553-2.512,1.347-6.12,2.352-10.687l.143-.647.221.627,17.446,49.409-.616-.04c2.634-5.244,5.377-10.708,8.2-16.329l.359-.715.277.751q.927,2.52,1.869,5.081l12.954,35.315-.479-.148c3.547-2.5,6.945-4.9,10.125-7.145l.237-.167.167.235,13.035,18.307-.3-.044c4.63-3.443,8.315-6.184,10.882-8.091l2.916-2.132.76-.539a1.232,1.232,0,0,1,.269-.167"/><path class="g" d="M141.114-382.367a6.03,6.03,0,0,1-1.439-.321c-.915-.247-2.224-.648-3.831-1.18a130.43,130.43,0,0,1-12.31-4.828,130.551,130.551,0,0,1-11.765-6.043c-1.461-.853-2.628-1.571-3.417-2.093a6.046,6.046,0,0,1-1.192-.867,5.958,5.958,0,0,1,1.33.635l3.519,1.9c2.975,1.595,7.122,3.719,11.811,5.839s9.026,3.821,12.188,5q2.206.814,3.751,1.385a6.067,6.067,0,0,1,1.355.579"/><path class="g" d="M143.836-378.127a14.108,14.108,0,0,1-3.311-.585,75.174,75.174,0,0,1-7.767-2.325,75.717,75.717,0,0,1-7.481-3.127,14.153,14.153,0,0,1-2.931-1.648,18.772,18.772,0,0,1,3.132,1.2c1.907.792,4.55,1.86,7.513,2.921s5.684,1.909,7.661,2.505a18.859,18.859,0,0,1,3.181,1.059"/><path class="g" d="M116.826-340.31c0,.847-.514,1.532-1.148,1.532s-1.149-.685-1.149-1.532.514-1.532,1.149-1.532,1.148.685,1.148,1.532"/><path class="g" d="M91.753-372.628c0,.847-.514,1.532-1.148,1.532s-1.148-.685-1.148-1.532.515-1.531,1.148-1.531,1.148.685,1.148,1.531"/><path class="g" d="M66.433-406.354c0,.847-.514,1.532-1.148,1.532s-1.149-.685-1.149-1.532.515-1.531,1.149-1.531,1.148.685,1.148,1.531"/><path class="d" d="M494.224-439.576l-8.468,103.864S461.038-291.3,392.962-289.6l8.412-104.574s59.385-2.408,92.85-45.4"/><path class="e" d="M492.965-444.992c-2.221-7.191-7.6-17.436-20.4-19.568L457.43-324.854s28.412-5.673,29.173-21.247c.067-1.344,5.752-70.78,7.173-87.972a28.184,28.184,0,0,0-.811-10.92"/><path class="e" d="M392.962-289.6l8.412-104.574s34.6-1.4,65.861-21.185l-9.805,90.51s27.408-5.473,29.107-20.424l-.2,2.507-.576,7.059a59.3,59.3,0,0,1-6.051,8.331c-10.915,12.948-37.473,36.553-86.744,37.777M486.6-346.088v-.012c.065-1.327,5.6-68.977,7.115-87.27l-5.908,72.483-.053.645L486.6-346.088m7.207-88.4a39.569,39.569,0,0,0,.115-4.7c.1-.128.2-.255.3-.383l-.415,5.087"/><path class="e" d="M457.43-324.854l9.805-90.51a105.373,105.373,0,0,0,26.689-23.829,39.569,39.569,0,0,1-.115,4.7h0l-.092,1.119h0c-1.511,18.293-7.049,85.944-7.115,87.27v.012h0l-.067.811h0c-1.7,14.951-29.107,20.424-29.107,20.424"/><path class="f" d="M492.2-413.1a61.6,61.6,0,0,0-10.848,33.589c-.069,3.445.132,7.016-1.177,10.2s-4.733,5.848-8.056,4.937c-3.473-.952-5.025-5.056-8.069-6.98a9,9,0,0,0-9.133.193,15.315,15.315,0,0,0-6,7.3c-2.475,5.7-2.636,12.119-4.459,18.055s-6.295,11.919-12.5,12.188c-2.265.1-4.507-.587-6.772-.52-4.792.143-8.949,3.7-11.185,7.945s-2.9,9.108-3.539,13.86c0,0,36.288,3.456,77.03-44.647L492.2-413.1"/><path class="g" d="M434.5-350.1c0,1.288-.637,2.332-1.423,2.332s-1.425-1.044-1.425-2.332.639-2.333,1.425-2.333,1.423,1.045,1.423,2.333"/><path class="g" d="M451.595-393.278c0,1.288-.637,2.333-1.424,2.333s-1.424-1.045-1.424-2.333.637-2.333,1.424-2.333,1.424,1.044,1.424,2.333"/><path class="g" d="M491.38-408.086a3.173,3.173,0,0,1-.235.591c-.193.424-.448.981-.767,1.683l-2.992,6.344c-2.64,5.5-6.365,13.256-10.823,22.541l-.147.305-.287-.183c-7.544-4.772-16.315-10.323-25.672-16.243l.507-.163c-.337.832-.7,1.727-1.065,2.627-6.353,15.551-12.163,29.776-16.58,40.587l-.113.277-.259-.147c-6.4-3.6-11.624-6.492-15.255-8.464-1.816-.983-3.232-1.741-4.2-2.233l-1.111-.543a1.946,1.946,0,0,1-.388-.172c.045-.131,2.176.78,5.841,2.687s8.937,4.717,15.372,8.265l-.372.131c4.375-10.828,10.132-25.073,16.424-40.649l1.067-2.625.156-.385.352.223,25.624,16.319-.433.123,11.047-22.432c1.333-2.661,2.392-4.773,3.141-6.271.355-.685.636-1.229.851-1.643a3.084,3.084,0,0,1,.32-.549"/><path class="n" d="M220.715-405.36c-.127.044-.68-2.008-2.333-4.949a28.05,28.05,0,0,0-8.832-9.543,28.06,28.06,0,0,0-12.241-4.395,33.077,33.077,0,0,0-4.543-.184c-.595.013-.92.027-.924-.025a5.411,5.411,0,0,1,1.464-.253,23.188,23.188,0,0,1,4.051-.027,26.735,26.735,0,0,1,12.576,4.3,26.746,26.746,0,0,1,8.881,9.888,23.115,23.115,0,0,1,1.56,3.739,5.389,5.389,0,0,1,.341,1.445"/></g></svg>