<svg xmlns="http://www.w3.org/2000/svg" width="496.263" height="589.171" viewBox="0 0 496.263 589.171"><defs><style>.a{fill:#26485f;}.b{fill:#facf2f;}.c{fill:#dc891a;}.d{fill:#ffdd4d;}.e{fill:#b7b7b7;}.f{fill:#4e251c;}.g{fill:#ce4a37;}.h{fill:#f1f1f1;}</style></defs><g transform="translate(12750.246 11546.002)"><path class="a" d="M813.017-926.867c0,137.039-111.092,248.131-248.131,248.131S316.754-789.828,316.754-926.867,427.846-1175,564.885-1175s248.131,111.092,248.131,248.131" transform="translate(-13067 -10371.004)"/><path class="a" d="M813.017-926.867c0,137.039-111.092,248.131-248.131,248.131S316.754-789.828,316.754-926.867,427.846-1175,564.885-1175s248.131,111.092,248.131,248.131" transform="translate(-13067 -10371.004)"/><path class="b" d="M546.834-920.2a20.459,20.459,0,0,1-12.526-5.437,33.919,33.919,0,0,1-8.3-12.281c-1.158-2.7-2.13-5.458-3.1-8.217a1.418,1.418,0,0,0-2.637,0,74.053,74.053,0,0,1-5.46,11.434,27.784,27.784,0,0,1-6.708,8.338q-.185.141-.374.274a19.932,19.932,0,0,1-10.794,2.563c-1.516-.072-1.895,2.223-.363,2.477a28.842,28.842,0,0,1,22.333,18.486,22.9,22.9,0,0,1,1.262,8.073c-.039,1.5,2.176,1.611,2.687.335,3.369-8.411,7.269-17.784,16.584-21.975a17.408,17.408,0,0,1,7.39-1.548,1.262,1.262,0,1,0,0-2.521" transform="translate(-13144.508 -10469.796)"/><path class="b" d="M1018.708-838.417a14.006,14.006,0,0,1-8.576-3.722,23.234,23.234,0,0,1-5.681-8.41c-.793-1.847-1.458-3.737-2.121-5.627a.971.971,0,0,0-1.806,0,50.653,50.653,0,0,1-3.739,7.829,19.019,19.019,0,0,1-4.593,5.71c-.085.064-.17.126-.257.187a13.641,13.641,0,0,1-7.39,1.755c-1.039-.049-1.3,1.522-.249,1.7a19.75,19.75,0,0,1,15.293,12.658,15.693,15.693,0,0,1,.864,5.528c-.026,1.024,1.49,1.1,1.84.229,2.306-5.759,4.977-12.177,11.356-15.047a11.9,11.9,0,0,1,5.06-1.061.864.864,0,1,0,0-1.726" transform="translate(-13356.007 -10508.907)"/><path class="c" d="M466.756-794.571A22.255,22.255,0,0,1,444.5-772.317a22.255,22.255,0,0,1-22.255-22.254A22.255,22.255,0,0,1,444.5-816.826a22.255,22.255,0,0,1,22.255,22.255" transform="translate(-13112.718 -10526.227)"/><path class="b" d="M461.92-794.571a22.254,22.254,0,0,1-22.254,22.254,22.254,22.254,0,0,1-22.255-22.254,22.254,22.254,0,0,1,22.255-22.255,22.254,22.254,0,0,1,22.254,22.255" transform="translate(-13110.623 -10526.227)"/><path class="c" d="M1010.232-982.759a22.3,22.3,0,0,1-22.3,22.3,22.3,22.3,0,0,1-22.295-22.3,22.3,22.3,0,0,1,22.295-22.295,22.3,22.3,0,0,1,22.3,22.295" transform="translate(-13348.211 -10444.654)"/><path class="b" d="M1005.387-982.759a22.3,22.3,0,0,1-22.295,22.3,22.3,22.3,0,0,1-22.3-22.3,22.3,22.3,0,0,1,22.3-22.295,22.3,22.3,0,0,1,22.295,22.295" transform="translate(-13346.11 -10444.654)"/><path class="d" d="M1033.693-1035.882a72.584,72.584,0,0,1-5.415,8.672c-1.016,1.4,1.41,2.948,2.428,1.543a77.444,77.444,0,0,0,5.77-9.267c.8-1.513-1.988-2.45-2.783-.949" transform="translate(-13375.25 -10430.964)"/><path class="d" d="M996.229-1044.765q-.167,4.705-.334,9.41c-.06,1.675,2.891,1.952,2.95.268q.168-4.705.334-9.41c.06-1.675-2.891-1.952-2.95-.268" transform="translate(-13361.322 -10426.952)"/><path class="d" d="M958.548-1037.295a66.5,66.5,0,0,0,5.073,10.97c.874,1.509,3.546.435,2.666-1.083a62.843,62.843,0,0,1-4.832-10.322c-.57-1.593-3.487-1.182-2.907.434" transform="translate(-13345.104 -10430.057)"/><path class="b" d="M739.283-408.806V-470.18a6.447,6.447,0,0,0-6.429-6.429H712.5a6.447,6.447,0,0,0-6.429,6.429v30.928H683.723v16.316h22.347v14.13a44.465,44.465,0,0,0-27.855,41.243A44.461,44.461,0,0,0,722.677-323.1a44.462,44.462,0,0,0,44.462-44.461,44.466,44.466,0,0,0-27.855-41.243" transform="translate(-13223.647 -10673.669)"/><path class="e" d="M783.121-841.909s9.63-125.732-83.374-134.847-91.239,80.641-91.239,80.641l16.39-.831s-6.63-64.717,57.54-69.233c65.319-4.6,84.509,49.322,83.29,124.27h17.392" transform="translate(-13193.438 -10456.635)"/><path class="e" d="M659.8-973.334a61.309,61.309,0,0,0-26.558,14.171c-17.893,16.5-22.1,41.213-23.078,52.5l4.3-.218c.042-10.226,2-31.26,15.859-47.737C637.85-963.57,647.724-969.83,659.8-973.334ZM767.144-852.14h5.975c.214-10.179-.2-33.4-6.9-56.9-7.346-25.78-19.749-44.2-37.035-55.094a63.929,63.929,0,0,1,7.21,5.905c20.769,19.675,30.846,54.414,30.749,106.088Zm11.542,11.595H761.294a5.8,5.8,0,0,1-4.132-1.732,5.8,5.8,0,0,1-1.664-4.16c.4-24.565-1.5-45.521-5.651-62.286-4.461-18.022-11.669-31.845-21.424-41.088-12.257-11.612-28.617-16.527-50.011-15.018-17.176,1.208-30.37,7.155-39.216,17.675-15.5,18.435-12.991,44.919-12.964,45.184a5.8,5.8,0,0,1-1.368,4.365,5.8,5.8,0,0,1-4.106,2.016l-16.39.831a5.769,5.769,0,0,1-4.247-1.549,5.793,5.793,0,0,1-1.844-4.127c-.033-1.692-.5-41.72,27.032-67.182,17.036-15.755,40.78-22.26,70.568-19.342,40.6,3.979,68.811,29.925,81.576,75.033,9.391,33.184,7.115,64.7,7.012,66.026a5.8,5.8,0,0,1-5.779,5.355" transform="translate(-13189.003 -10452.201)"/><path class="f" d="M747.206-587.846H583.588a35.008,35.008,0,0,1-34.906-34.906v-129.31a35.009,35.009,0,0,1,34.906-34.906H747.206a35.009,35.009,0,0,1,34.906,34.906v129.31a35.008,35.008,0,0,1-34.906,34.906" transform="translate(-13167.511 -10539.166)"/><path class="g" d="M761.43-587.846H605.873a35.009,35.009,0,0,1-34.906-34.906v-129.31a35.009,35.009,0,0,1,34.906-34.906H761.43a35.008,35.008,0,0,1,34.905,34.906v129.31a35.008,35.008,0,0,1-34.905,34.906" transform="translate(-13177.169 -10539.166)"/><path class="c" d="M786.859-641.789a55.9,55.9,0,0,1-55.9,55.9,55.9,55.9,0,0,1-55.9-55.9,55.9,55.9,0,0,1,55.9-55.9,55.9,55.9,0,0,1,55.9,55.9" transform="translate(-13222.277 -10577.855)"/><path class="b" d="M774.711-641.789a55.9,55.9,0,0,1-55.9,55.9,55.9,55.9,0,0,1-55.9-55.9,55.9,55.9,0,0,1,55.9-55.9,55.9,55.9,0,0,1,55.9,55.9" transform="translate(-13217.012 -10577.855)"/><path class="c" d="M766.382-307.957a28.213,28.213,0,0,1-28.213,28.213,28.213,28.213,0,0,1-28.213-28.213,28.212,28.212,0,0,1,28.213-28.212,28.212,28.212,0,0,1,28.213,28.212" transform="translate(-13237.404 -10734.532)"/><path class="h" d="M760.251-307.957a28.213,28.213,0,0,1-28.213,28.213,28.212,28.212,0,0,1-28.213-28.213,28.212,28.212,0,0,1,28.213-28.212,28.212,28.212,0,0,1,28.213,28.212" transform="translate(-13234.747 -10734.532)"/><path class="h" d="M731.818-336.1A27.954,27.954,0,0,0,703.9-308.179a27.954,27.954,0,0,0,27.922,27.923,27.954,27.954,0,0,0,27.922-27.923A27.954,27.954,0,0,0,731.818-336.1Zm0,56.425a28.535,28.535,0,0,1-28.5-28.5,28.534,28.534,0,0,1,28.5-28.5,28.534,28.534,0,0,1,28.5,28.5,28.535,28.535,0,0,1-28.5,28.5" transform="translate(-13234.526 -10734.31)"/><path class="d" d="M827.645-183.444a78.943,78.943,0,0,1-15.637-16.38c-1.975-2.793-6.622-.119-4.626,2.7a83.562,83.562,0,0,0,16.474,17.465c2.677,2.112,6.494-1.653,3.788-3.788" transform="translate(-13279.414 -10793.107)"/><path class="d" d="M861.22-223.961a157.513,157.513,0,0,1-18.712-8.34c-3.049-1.6-5.76,3.02-2.7,4.626A168.062,168.062,0,0,0,859.8-218.8c3.239,1.2,4.636-3.979,1.424-5.165" transform="translate(-13293.096 -10779.401)"/><path class="d" d="M871.784-293.538l-19.277.933c-3.432.166-3.452,5.523,0,5.356l19.277-.933c3.432-.166,3.452-5.523,0-5.356" transform="translate(-13298.063 -10753.004)"/><path class="d" d="M662.428-218.578a81.1,81.1,0,0,0-23.865,12.516c-2.7,2.063-.039,6.718,2.7,4.625a76.871,76.871,0,0,1,22.585-11.976c3.258-1.075,1.863-6.25-1.424-5.165" transform="translate(-13205.976 -10785.427)"/><path class="d" d="M638.669-271.973a141.252,141.252,0,0,0-20.282-1.484c-2.818,0-2.823,4.383,0,4.38A133.311,133.311,0,0,1,637.5-267.75c2.758.4,3.948-3.822,1.165-4.223" transform="translate(-13196.804 -10761.709)"/><path class="d" d="M651.452-336.909c-2.548-2.352-5.8-3.889-8.779-5.612l-10.128-5.85c-2.99-1.727-5.691,2.9-2.7,4.626l9.247,5.341c2.822,1.63,6.169,3.06,8.576,5.282,2.529,2.335,6.327-1.443,3.787-3.787" transform="translate(-13202.121 -10729.079)"/><path class="d" d="M848.387-360.66a141.954,141.954,0,0,0-21.464,10.926c-2.918,1.821-.233,6.457,2.7,4.625a133.979,133.979,0,0,1,20.185-10.385c3.147-1.287,1.77-6.472-1.424-5.166" transform="translate(-13287.549 -10723.826)"/><path class="d" d="M781.578-159.626q-1.5-10.755-3-21.5c-.509-3.649-6.052-2.1-5.545,1.529q1.5,10.753,3,21.509c.509,3.649,6.051,2.093,5.545-1.534" transform="translate(-13264.726 -10800.819)"/><path class="d" d="M723.3-187.18q-2.094,9.932-4.189,19.861c-.762,3.611,4.781,5.16,5.545,1.534q2.094-9.939,4.189-19.867c.761-3.611-4.781-5.153-5.545-1.528" transform="translate(-13241.34 -10798.203)"/></g></svg>