<svg xmlns="http://www.w3.org/2000/svg" width="56.426" height="65.401" viewBox="0 0 56.426 65.401"><defs><style>.a{fill:#b1f1fe;}.b{fill:#2e53bf;}</style></defs><path class="a" d="M-19506.6,23136.355l2.686-1.211,2.836,2.082,1.18-.219,2.215-2.133,2.85,1.316.447,2.648,1.344,1.277,3.033-.09.795,1.453-.447,2.848.34,2.484,2.711,1.082-.086,2.836-2.965,1.434-.3,2.012,1.123,2.352-1.432,2.633-3.766-.461-1.32,3.512-2.744,1.074-2.332-2.16-3.686,2.16-2.494-.984-.687-2.687-3.889-1.133-1.916-2.328.914-3.73-2.779-1.809v-3.43l2.426-1.168.236-2.93-.605-1.387,1.768-2.074,2.779.352,1.549-1.594Z" transform="translate(19529.26 -23134.07)"/><g transform="translate(20.701 9.823)"><path class="b" d="M198.778,73.3l-.046-.046a4.3,4.3,0,0,0-6.025,0l-.356.352L192,73.259a4.3,4.3,0,0,0-6.025,0,4.2,4.2,0,0,0-.046,5.945l.046.046,5.614,5.549a1.091,1.091,0,0,0,1.534,0l5.614-5.549A4.2,4.2,0,0,0,198.778,73.3Zm-1.552,4.366-.028.028-4.847,4.79L187.5,77.7a2.023,2.023,0,0,1-.028-2.861l.028-.028a2.112,2.112,0,0,1,2.957,0l1.123,1.11a1.092,1.092,0,0,0,1.534,0l1.123-1.11a2.113,2.113,0,0,1,2.957,0A2.023,2.023,0,0,1,197.226,77.67Z" transform="translate(-184.716 -72.027)"/></g><g transform="translate(13.065)"><g transform="translate(0 0)"><path class="b" d="M158.6,12.669l-2.109-.928c-.1-.372-.209-.724-.332-1.063l1.169-2.01a1.089,1.089,0,0,0,.009-1.081,15.581,15.581,0,0,0-2.005-2.793,1.081,1.081,0,0,0-1.054-.334l-2.223.507q-.415-.332-.861-.634L150.983,2a1.089,1.089,0,0,0-.628-.889A14.987,14.987,0,0,0,147.127.025a1.079,1.079,0,0,0-1.048.354l-1.548,1.791h-1L141.983.378a1.082,1.082,0,0,0-1.048-.354,14.989,14.989,0,0,0-3.229,1.081,1.089,1.089,0,0,0-.628.889l-.215,2.337q-.447.3-.861.634l-2.223-.507a1.081,1.081,0,0,0-1.054.334,15.545,15.545,0,0,0-2.006,2.793,1.09,1.09,0,0,0,.009,1.081l1.169,2.01c-.121.337-.231.686-.329,1.055l-2.191.93a1.091,1.091,0,0,0-.665,1v3.211a1.091,1.091,0,0,0,.665,1l2.191.93c.1.369.208.718.329,1.055l-1.169,2.01a1.09,1.09,0,0,0-.009,1.082,15.66,15.66,0,0,0,2,2.792,1.079,1.079,0,0,0,1.054.334L136,25.578q.415.332.861.634l.215,2.337a1.089,1.089,0,0,0,.628.889,14.988,14.988,0,0,0,3.228,1.081,1.092,1.092,0,0,0,1.048-.354l1.549-1.792h1l1.549,1.792a1.092,1.092,0,0,0,.825.377,1.059,1.059,0,0,0,.223-.023,14.988,14.988,0,0,0,3.228-1.081,1.089,1.089,0,0,0,.628-.889l.215-2.337q.448-.3.861-.633l2.223.506a1.078,1.078,0,0,0,1.054-.334,15.542,15.542,0,0,0,2.006-2.793,1.09,1.09,0,0,0-.009-1.081l-1.169-2.01c.122-.339.232-.691.331-1.063l2.11-.928a1.09,1.09,0,0,0,.652-1V13.667A1.089,1.089,0,0,0,158.6,12.669Zm-1.53,3.5-1.948.856a1.09,1.09,0,0,0-.624.754,10.9,10.9,0,0,1-.552,1.766,1.09,1.09,0,0,0,.064.967l1.111,1.911a13.472,13.472,0,0,1-1,1.391l-2.11-.48a1.082,1.082,0,0,0-.963.244,10.778,10.778,0,0,1-1.464,1.079,1.091,1.091,0,0,0-.514.829l-.2,2.224a12.8,12.8,0,0,1-1.573.531l-1.442-1.668a1.09,1.09,0,0,0-.825-.377h-2a1.09,1.09,0,0,0-.825.377l-1.442,1.668a12.783,12.783,0,0,1-1.573-.531l-.2-2.224a1.089,1.089,0,0,0-.514-.829,10.9,10.9,0,0,1-1.466-1.079,1.08,1.08,0,0,0-.962-.244l-2.109.48a13.366,13.366,0,0,1-1-1.392l1.111-1.91a1.09,1.09,0,0,0,.064-.967,10.907,10.907,0,0,1-.552-1.766,1.092,1.092,0,0,0-.637-.761l-2.028-.861V14.389l2.028-.861a1.092,1.092,0,0,0,.637-.761A10.9,10.9,0,0,1,134.113,11a1.09,1.09,0,0,0-.064-.967l-1.111-1.911a13.476,13.476,0,0,1,1-1.391l2.11.48a1.083,1.083,0,0,0,.963-.244,10.777,10.777,0,0,1,1.464-1.079,1.092,1.092,0,0,0,.514-.829l.2-2.224a13,13,0,0,1,1.573-.531l1.442,1.668a1.09,1.09,0,0,0,.825.377h2a1.09,1.09,0,0,0,.825-.377L147.3,2.306a12.988,12.988,0,0,1,1.573.531l.2,2.224a1.089,1.089,0,0,0,.514.829,10.9,10.9,0,0,1,1.466,1.079,1.079,1.079,0,0,0,.962.244l2.11-.48a13.444,13.444,0,0,1,1,1.391l-1.111,1.911a1.09,1.09,0,0,0-.065.967,10.947,10.947,0,0,1,.553,1.766,1.09,1.09,0,0,0,.624.754l1.948.856v1.788Z" transform="translate(-128.714 -0.001)"/></g></g><g transform="translate(0 29.545)"><g transform="translate(0)"><path class="b" d="M86.814,217.253a4.781,4.781,0,0,0-6.43,1.871l-3.291,5.86a4.225,4.225,0,0,1-1.967,1.258l-14.859,4.445a1.2,1.2,0,0,1-.953-.113,1.264,1.264,0,0,1-.6-.815,1.286,1.286,0,0,1,.913-1.551l6.708-2.06a3.572,3.572,0,0,0,2.519-4.218,3.506,3.506,0,0,0-4.236-2.576q-.089.021-.176.048l-14.4,4.319a16.1,16.1,0,0,0-10.906,10.1l-6.162,17.233A1.091,1.091,0,0,0,34,252.512l14.153.029h0a1.091,1.091,0,0,0,1.068-.868l.752-3.618a4.142,4.142,0,0,1,2.755-3.258l28.465-9.348a4.093,4.093,0,0,0,2.307-1.912l5.266-9.807A4.782,4.782,0,0,0,86.814,217.253Zm.065,5.375-.035.067-5.258,9.791a1.907,1.907,0,0,1-1.074.886l-28.475,9.352a6.3,6.3,0,0,0-4.208,4.929l-.562,2.7-11.719-.023,5.641-15.778a13.924,13.924,0,0,1,9.453-8.737l14.425-4.327a1.3,1.3,0,0,1,1.034.118,1.337,1.337,0,0,1,.634.849,1.413,1.413,0,0,1-1.042,1.6l-6.68,2.052a3.48,3.48,0,0,0-.791,6.35,3.354,3.354,0,0,0,2.669.313l14.859-4.445a6.4,6.4,0,0,0,3.074-2.015,1.038,1.038,0,0,0,.117-.169l3.345-5.956a2.6,2.6,0,0,1,3.429-1.051h0A2.6,2.6,0,0,1,86.879,222.629Z" transform="translate(-32.909 -216.684)"/></g></g></svg>