<svg xmlns="http://www.w3.org/2000/svg" width="19.763" height="19.763" viewBox="0 0 19.763 19.763"><defs><style>.a{fill:#707070;stroke:#707070;stroke-width:0.4px;}</style></defs><g transform="translate(0.2 0.2)"><path class="a" d="M10.249,5.143a5.125,5.125,0,1,0-5.673,5.074v3.435h-1.7a.567.567,0,1,0,0,1.135h1.7v1.7a.567.567,0,1,0,1.135,0v-1.7h1.7a.567.567,0,1,0,0-1.135h-1.7V10.217a5.113,5.113,0,0,0,4.538-5.074Zm-9.114,0A3.99,3.99,0,1,1,5.143,9.114,4.013,4.013,0,0,1,1.135,5.143Z"/><path class="a" d="M246.673,67.838v-4.9l1.3,1.3a.567.567,0,0,0,.8-.8l-2.269-2.269a.567.567,0,0,0-.8,0l-2.269,2.269a.567.567,0,0,0,.8.8l1.3-1.3v4.9a5.126,5.126,0,0,0,.567,10.217,5.124,5.124,0,0,0,.567-10.218Zm-.567,9.083a3.99,3.99,0,1,1,4.009-4.009A3.995,3.995,0,0,1,246.106,76.921Z" transform="translate(-231.886 -58.693)"/></g></svg>