<svg xmlns="http://www.w3.org/2000/svg" width="28" height="28" viewBox="0 0 28 28"><defs><style>.a{fill:#cb3a27;}.b{fill:#fff;stroke:#fff;stroke-width:0.2px;}</style></defs><g transform="translate(-867 -710)"><rect class="a" width="28" height="28" rx="14" transform="translate(867 710)"/><g transform="translate(873 716)"><path class="b" d="M8.52,4.276A4.26,4.26,0,1,0,3.8,8.495V11.35H2.389a.472.472,0,1,0,0,.943H3.8v1.415a.472.472,0,1,0,.943,0V12.293H6.162a.472.472,0,1,0,0-.943H4.748V8.494A4.25,4.25,0,0,0,8.52,4.276Zm-7.577,0a3.317,3.317,0,1,1,3.333,3.3A3.337,3.337,0,0,1,.943,4.276Z"/><path class="b" d="M245.716,66.685V62.61l1.081,1.081a.472.472,0,0,0,.667-.667l-1.886-1.886a.472.472,0,0,0-.667,0l-1.886,1.886a.472.472,0,1,0,.667.667l1.081-1.081v4.076a4.261,4.261,0,0,0,.472,8.494,4.259,4.259,0,0,0,.472-8.495Zm-.472,7.551a3.317,3.317,0,1,1,3.333-3.333A3.321,3.321,0,0,1,245.245,74.236Z" transform="translate(-233.423 -59.082)"/></g></g></svg>