<svg xmlns="http://www.w3.org/2000/svg" width="24.727" height="25.782" viewBox="0 0 24.727 25.782"><defs><style>.a{fill:#fff;stroke:#fff;stroke-width:0.5px;}</style></defs><path class="a" d="M64.4,56.708a5.2,5.2,0,1,0-5.207-5.2A5.212,5.212,0,0,0,64.4,56.708Zm0-9.685a4.484,4.484,0,1,1-4.484,4.484A4.491,4.491,0,0,1,64.4,47.023ZM74.044,61.21a4.059,4.059,0,0,0-.464.024,4.7,4.7,0,0,0-4.5-3.291H68.9l-.108.145a5.452,5.452,0,0,1-8.787,0l-.108-.145h-.181A4.726,4.726,0,0,0,55,62.663v8.92H73.8v-.006c.078.006.163.006.241.006a5.186,5.186,0,0,0,0-10.372ZM55.723,70.853v-8.2a4.007,4.007,0,0,1,3.821-4,6.165,6.165,0,0,0,9.715,0,3.984,3.984,0,0,1,3.6,2.682,5.182,5.182,0,0,0-1.452,9.5H55.723Zm20.485-4.737a.365.365,0,0,1-.512.018l-1.29-1.205v3.755a.362.362,0,0,1-.723,0V64.929l-1.29,1.2a.362.362,0,0,1-.494-.53l1.9-1.766a.369.369,0,0,1,.494,0l1.9,1.766A.375.375,0,0,1,76.208,66.116Z" transform="translate(-54.75 -46.05)"/></svg>