<svg xmlns="http://www.w3.org/2000/svg" width="24.75" height="25.805" viewBox="0 0 24.75 25.805"><defs><style>.a{fill:#3f4772;stroke:#3f4772;stroke-width:0.5px;opacity:0.5;}</style></defs><path class="a" d="M64.41,56.718A5.209,5.209,0,1,0,59.2,51.512,5.217,5.217,0,0,0,64.41,56.718Zm0-9.694a4.488,4.488,0,1,1-4.488,4.488A4.495,4.495,0,0,1,64.41,47.024Zm9.652,14.2a4.063,4.063,0,0,0-.464.024,4.707,4.707,0,0,0-4.5-3.294h-.181l-.109.145a5.457,5.457,0,0,1-8.8,0l-.109-.145h-.181A4.731,4.731,0,0,0,55,62.678v8.928H73.821V71.6c.078.006.163.006.241.006a5.191,5.191,0,0,0,0-10.382ZM55.724,70.875v-8.2a4.011,4.011,0,0,1,3.824-4,6.171,6.171,0,0,0,9.724,0,3.987,3.987,0,0,1,3.6,2.684,5.187,5.187,0,0,0-1.454,9.513h-15.7Zm20.5-4.741a.365.365,0,0,1-.513.018l-1.291-1.206V68.7a.362.362,0,0,1-.724,0V64.946l-1.291,1.2a.363.363,0,0,1-.495-.531l1.9-1.767a.369.369,0,0,1,.495,0l1.9,1.767A.375.375,0,0,1,76.228,66.134Z" transform="translate(-54.75 -46.05)"/></svg>