<svg xmlns="http://www.w3.org/2000/svg" width="54.408" height="61.486" viewBox="0 0 54.408 61.486"><defs><style>.a{fill:#ffe5c2;}.b{fill:#fed2a4;}.c{fill:#f37c7c;}.d{fill:#ee6161;}.e{fill:#fee45a;}</style></defs><g transform="translate(-28.58 0)"><path class="a" d="M125.294,190.047a5.176,5.176,0,0,0,2.631.719H147.95a3.4,3.4,0,0,0,3.422-3.411,3.348,3.348,0,0,0-1.735-2.874.234.234,0,0,1-.124-.2v-.006a.229.229,0,0,1,.178-.224,3.351,3.351,0,0,0,1.535-5.748,3.6,3.6,0,0,0,.8-6.3,3.881,3.881,0,0,0-1.733-7.353h-8a.778.778,0,0,1-.708-1.1l.95-2.08a9.253,9.253,0,0,0,.836-3.844V153.3a4.78,4.78,0,0,0-.359-1.817,3.982,3.982,0,0,0-3.683-2.468h-.008a2.741,2.741,0,0,0-2.521,1.666l-1.671,3.92-6.291,3.663-1.031.438a6.3,6.3,0,0,0-3.227,3.1l-7.431,15.314v8.4Z" transform="translate(-77.599 -130.561)"/><g transform="translate(39.548 45.913)"><path class="b" d="M148.259,380.258H128.233a5.174,5.174,0,0,1-2.631-.719L117.455,375v-4.247l-.309.637v8.4l8.147,4.536a5.176,5.176,0,0,0,2.631.718h20.025a3.4,3.4,0,0,0,3.422-3.411,3.334,3.334,0,0,0-.878-2.2A3.452,3.452,0,0,1,148.259,380.258Z" transform="translate(-117.146 -370.757)"/></g><g transform="translate(28.58 0)"><path class="c" d="M30.264,276.835H42.8a2.777,2.777,0,0,0,2.777-2.777v-25.5a2.777,2.777,0,0,0-2.777-2.777H30.264a1.684,1.684,0,0,0-1.684,1.684v27.681A1.684,1.684,0,0,0,30.264,276.835Z" transform="translate(-28.58 -215.349)"/><path class="d" d="M42.8,245.786h-.546v20.79a4.333,4.333,0,0,1-4.333,4.333H28.58v4.243a1.684,1.684,0,0,0,1.684,1.684H42.8a2.777,2.777,0,0,0,2.777-2.777v-25.5a2.777,2.777,0,0,0-2.777-2.777Z" transform="translate(-28.58 -215.349)"/><g transform="translate(10.968 0)"><path class="e" d="M246.463,13.427l-2.9-1.507a.956.956,0,0,0-.89,0l-2.885,1.534a.956.956,0,0,1-1.392-1l.537-3.224a.956.956,0,0,0-.279-.845L236.3,6.119a.956.956,0,0,1,.522-1.633L240.057,4a.956.956,0,0,0,.717-.526L242.207.537a.956.956,0,0,1,1.715-.008l1.46,2.924a.956.956,0,0,0,.722.52l3.236.455a.956.956,0,0,1,.538,1.628l-2.329,2.292a.956.956,0,0,0-.271.848l.568,3.218a.956.956,0,0,1-1.383,1.014Z" transform="translate(-221.291 0)"/><path class="e" d="M125.49,73.146l-2.315-1.2a.763.763,0,0,0-.71,0l-2.3,1.225a.763.763,0,0,1-1.111-.8l.429-2.573a.763.763,0,0,0-.223-.674l-1.877-1.812a.763.763,0,0,1,.417-1.3l2.58-.387a.763.763,0,0,0,.573-.42l1.144-2.345a.763.763,0,0,1,1.369-.006l1.166,2.334a.763.763,0,0,0,.577.415l2.583.363a.763.763,0,0,1,.429,1.3l-1.86,1.83a.763.763,0,0,0-.216.677l.453,2.569A.763.763,0,0,1,125.49,73.146Z" transform="translate(-117.147 -54.697)"/><path class="e" d="M379.649,73.146l2.315-1.2a.763.763,0,0,1,.71,0l2.3,1.225a.763.763,0,0,0,1.111-.8l-.429-2.573a.764.764,0,0,1,.223-.674l1.877-1.812a.763.763,0,0,0-.417-1.3l-2.58-.387a.763.763,0,0,1-.573-.42l-1.143-2.345a.763.763,0,0,0-1.369-.006l-1.166,2.334a.763.763,0,0,1-.577.415l-2.583.363a.763.763,0,0,0-.429,1.3l1.859,1.83a.763.763,0,0,1,.216.677l-.453,2.569A.763.763,0,0,0,379.649,73.146Z" transform="translate(-344.553 -54.697)"/></g></g></g></svg>