<svg xmlns="http://www.w3.org/2000/svg" width="35.733" height="35.733" viewBox="0 0 35.733 35.733"><defs><style>.a{fill:#50abf1;}.b{fill:#fff;}</style></defs><rect class="a" width="35.733" height="35.733" rx="4"/><path class="b" d="M60.359,112.536A13.385,13.385,0,0,0,80.9,101.224q0-.277-.011-.55a10.518,10.518,0,0,0,2.326-2.388,10.856,10.856,0,0,1-2.657.69h-.008l.007,0c.121-.081,1.814-1.233,2.043-2.607a16.3,16.3,0,0,1-2.28.95c-.22.073-.451.145-.688.212a4.7,4.7,0,0,0-8,4.272,14.142,14.142,0,0,1-9.639-4.873s-2.245,3.064,1.338,6.215a4.825,4.825,0,0,1-2.028-.6,4.463,4.463,0,0,0,3.712,4.662,4.3,4.3,0,0,1-2.072.087,4.629,4.629,0,0,0,4.317,3.28,9.02,9.02,0,0,1-6.9,1.971Z" transform="translate(-53.919 -87.125)"/></svg>