<svg xmlns="http://www.w3.org/2000/svg" width="28" height="28" viewBox="0 0 28 28"><defs><style>.a{fill:#2f4859;}.b{fill:#fff;}</style></defs><g transform="translate(-869 -670.5)"><circle class="a" cx="14" cy="14" r="14" transform="translate(869 670.5)"/><g transform="translate(876.488 678)"><g transform="translate(-0.993 -1)"><g transform="translate(0)"><path class="b" d="M5.223,183.2l-1.767,1.767a1.874,1.874,0,1,1-2.651-2.65l3.535-3.535a1.874,1.874,0,0,1,2.65,0,.625.625,0,0,0,.884-.884,3.124,3.124,0,0,0-4.418,0l-3.535,3.535a3.124,3.124,0,0,0,4.419,4.418l1.767-1.767a.625.625,0,1,0-.884-.884Z" transform="translate(0.993 -171.773)"/><path class="b" d="M198.424-.085a3.125,3.125,0,0,0-4.419,0l-2.12,2.12a.625.625,0,0,0,.884.884L194.89.8a1.874,1.874,0,1,1,2.651,2.65l-3.888,3.888a1.874,1.874,0,0,1-2.65,0,.625.625,0,1,0-.884.884,3.124,3.124,0,0,0,4.418,0l3.888-3.888A3.124,3.124,0,0,0,198.424-.085Z" transform="translate(-184.343 1)"/></g></g></g></g></svg>