<svg xmlns="http://www.w3.org/2000/svg" width="16.387" height="16.387" viewBox="0 0 16.387 16.387"><defs><style>.a{fill:#303030;}</style></defs><path class="a" d="M8.194,0a8.194,8.194,0,1,0,8.194,8.194A8.2,8.2,0,0,0,8.194,0Zm0,15.675a7.481,7.481,0,1,1,7.481-7.481A7.489,7.489,0,0,1,8.194,15.675Z"/><g transform="translate(7.837 2.137)"><path class="a" d="M238.481,73.011l-3.1-3.1V64.356a.356.356,0,1,0-.713,0v5.7a.359.359,0,0,0,.1.252l3.206,3.206a.356.356,0,0,0,.5-.5Z" transform="translate(-234.666 -64)"/></g></svg>