<svg xmlns="http://www.w3.org/2000/svg" xmlns:xlink="http://www.w3.org/1999/xlink" width="242.219" height="216.148" viewBox="0 0 242.219 216.148"><defs><style>.a{fill:#e9effd;}.b{fill:#bde5f9;}.c{fill:#5382fc;}.d{fill:#d1f0f4;}.e{fill:#a9e2e2;}.f{fill:#42c1d1;}.g{fill:#3b81cb;}.h{fill:#9aaee0;}.i{fill:#629cd9;}.j{clip-path:url(#a);}.k{fill:#81b3e4;}.l{fill:#93c8ed;}.m{fill:#ace4eb;}</style><clipPath id="a"><path d="M174.867-528.411H152.33v-31.378h39.021l-16.485,31.378" transform="translate(-152.33 559.789)"/></clipPath></defs><g transform="translate(1639.392 -17559.871)"><path class="a" d="M265.612-428.678c36.024-7.66,49.232-61.238,31.18-83.977-10.316-12.906-26.432-11.677-39.971-19.051-10.315-6.147-7.736-17.208-14.828-26.427-16.763-22.739-37.392,7.989-55.444,10.448-10.96,1.228-19.341-6.76-27.722-11.677-10.315-5.531-21.566-10.189-33.524-7.375-46.418,10.923-65.381,44.452-62.394,84,2.539,33.618,26.77,61.3,59.345,62.343l143.356-8.283" transform="translate(-1702 18128.441)"/><path class="b" d="M324.489-548.73c6.613,0,10.193-2.973,9.924-7.071s-15.88-5.735-17.5,1.089c-1.034,4.35,3.463,5.982,7.578,5.982" transform="translate(-1842.457 18123.895)"/><path class="b" d="M364.323-555.65c-1.807-.239-.933-5.752,2.1-4.318,2.169,1.027,2.677,4.949-2.1,4.318" transform="translate(-1868.226 18124.365)"/><path class="b" d="M531.468-491.689c-.119,1.724,3.065,4.144,5.612,2.994,4.091-1.847.994-4.7-1.447-5.126s-4.01-.144-4.165,2.132" transform="translate(-1961.113 18087.771)"/><path class="c" d="M362.358-464.769l-21.975-.422c-5.736-16.881,4.357-21.187,11.282-21.187,6.131,0,17.7,5.249,10.694,21.609" transform="translate(-1854.575 18083.564)"/><path class="d" d="M366.618-412.973l-.112-7.626-9.084-.586.118,8.364s4.493,8.061,9.077-.151" transform="translate(-1864.929 18047.537)"/><path class="e" d="M357.518-414.046l9.062-2.163-.073-4.389-9.084-.586.095,7.139" transform="translate(-1864.929 18047.537)"/><path class="d" d="M353.479-465.636s5.009,4.1,10.974,4.606l-3.288,16.039-7.594,3.281-7.251-3.436-3.842-14.961s6.686-1.754,11-5.529" transform="translate(-1856.669 18072.102)"/><path class="d" d="M342.463-447.022s-2.967-.921-2.717,1.846c.333,3.5,4.293,5.3,4.293,5.3l-1.576-7.147" transform="translate(-1855.151 18061.896)"/><path class="d" d="M385.129-445.978s3.012-.78,2.626,1.971c-.5,3.485-4.537,5.092-4.537,5.092l1.912-7.063" transform="translate(-1879.184 18061.295)"/><path class="f" d="M368.008-440.184a16.723,16.723,0,0,0-1.427-3.622,19.847,19.847,0,0,0,.895,4.01c.079.251.156.5.231.734l.049.146.007.007.023.033c.123,0-.439.216-.669.354a2.727,2.727,0,0,0-.625.43,2.015,2.015,0,0,0,.683.06,5.947,5.947,0,0,0,1.386-.227c-.106-.376-.219-.772-.337-1.182-.07-.24-.143-.489-.218-.743" transform="translate(-1869.942 18060.037)"/><path class="d" d="M305.765-345.474l-7.119-28.2,8.9-29.173h44.527l10.064,27.039L359.3-346.16l-6.845.548-.651-28.551-3.315-11.564-1.973,39.588H316.468l-3.72-38.493-3.56,12.112,2.054,27.046h-5.477" transform="translate(-1832.446 18037.404)"/><path class="c" d="M334.1-402.774l17.975-.079,10.064,27.039L359.3-346.16l-6.845.548-.651-28.551-3.315-11.564-1.973,39.588H315.392l-2.644-38.493-3.56,12.112,2.054,27.046h-5.477l-7.119-28.2,8.9-29.173h17.4s-.29,10.7,4.547,10.7,4.61-10.622,4.61-10.622" transform="translate(-1832.446 18037.404)"/><path class="g" d="M145.452-529.06h63.742v-40.733H145.452Z" transform="translate(-1747.783 18129.664)"/><path class="h" d="M152.33-527.96h57.588v-31.377H152.33Z" transform="translate(-1751.585 18123.887)"/><path class="i" d="M152.33-528.411h57.588v-31.378H152.33Z" transform="translate(-1751.585 18124.137)"/><g transform="translate(-1599.255 17564.348)"><g class="j" transform="translate(0 0)"><path class="k" d="M152.33-528.411h39.021v-31.378H152.33Z" transform="translate(-152.33 559.789)"/></g></g><path class="k" d="M216.92-528.411H213.51L230-559.789H233.4L216.92-528.411" transform="translate(-1785.396 18124.137)"/><path class="i" d="M341.711-204.612h-180.8v-95.511h180.8v95.511" transform="translate(-1756.324 17980.631)"/><path class="g" d="M340.8-321.831H152.241l3.876,9.711h180.8l3.877-9.711" transform="translate(-1751.536 17992.629)"/><path class="g" d="M341.025-164.118H154.388v34.669H341.025v-34.669" transform="translate(-1752.722 17905.469)"/><path class="g" d="M448.728-548.7a19.411,19.411,0,0,0,19.412,19.412A19.412,19.412,0,0,0,487.552-548.7a19.412,19.412,0,0,0-19.412-19.413A19.412,19.412,0,0,0,448.728-548.7" transform="translate(-1915.388 18128.736)"/><path class="i" d="M455.866-544.755a16.219,16.219,0,0,0,16.219,16.219A16.218,16.218,0,0,0,488.3-544.755a16.218,16.218,0,0,0-16.219-16.219,16.218,16.218,0,0,0-16.219,16.219" transform="translate(-1919.333 18124.791)"/><path class="l" d="M481.41-532.29l-.651-1.028,5.691-3.6V-549.5h1.216v13.243l-6.256,3.964" transform="translate(-1933.09 18118.445)"/><path class="i" d="M250.195-379.343H199.753V-413.2h50.442v33.862" transform="translate(-1777.793 18043.125)"/><path class="g" d="M253.784-348.832c-4.709-7.914-4.4-21.856-4.4-21.856H238.237s.312,13.942-4.4,21.856h19.943" transform="translate(-1796.631 18019.629)"/><path class="m" d="M133.008-321.491c-13.1-12.114,21.914-30.18,26.106-26.3,4,3.7-11.622,39.692-26.106,26.3" transform="translate(-1739.293 18007.273)"/><path class="m" d="M112.68-370.124c-17.842-.393-3.578-37.124,2.13-37,5.449.119,17.589,37.433-2.13,37" transform="translate(-1724.873 18039.764)"/><path class="m" d="M91.077-270.166c-9.664,10.153-23.45-17.556-20.358-20.8,2.951-3.1,31.039,9.583,20.358,20.8" transform="translate(-1706.238 17975.838)"/><path class="m" d="M131.893-240.573c9.664,10.152,23.451-17.557,20.359-20.806-2.951-3.1-31.039,9.585-20.359,20.806" transform="translate(-1738.958 17959.482)"/><path class="f" d="M124.489-287.939h1.193v-80.214h-1.193Z" transform="translate(-1736.199 18018.229)"/><path class="f" d="M104.656-256.874,87.6-273.927l-.844.843,17.053,17.054" transform="translate(-1715.347 17966.156)"/><path class="f" d="M125.724-221.726l13.241-13.241-.843-.843L124.88-222.569" transform="translate(-1736.415 17945.088)"/><path class="f" d="M145.335-323.071,124.88-302.617l.843.843,20.455-20.454" transform="translate(-1736.415 17993.314)"/><path class="f" d="M89.811-192.27l-7.433,47.262h38.87l-7.433-47.262h-24" transform="translate(-1712.926 17921.027)"/><path class="m" d="M458.6-344.242h13.432v9.144H458.6v-9.144" transform="translate(-1920.844 18005.014)"/><path class="f" d="M517.422-370.688h-6.435v1.119h1.555v4.607h-3.117v10.37h7.555v-10.37h-3.117v-4.607h3.559v.8h1.119v-1.919h-1.119" transform="translate(-1948.932 18019.629)"/><path class="f" d="M456.026-325.261h15.737v-2.776H456.026v2.776" transform="translate(-1919.421 17996.059)"/><path class="m" d="M516.612-352.7H505.936v13.808h10.676V-352.7" transform="translate(-1947.004 18009.688)"/></g></svg>