<svg xmlns="http://www.w3.org/2000/svg" width="157.995" height="204.619" viewBox="0 0 157.995 204.619"><defs><style>.a{fill:#ccccc9;}</style></defs><g transform="translate(0)"><path class="a" d="M1639.044-1062.627a9.062,9.062,0,0,1-9.071,9.068,9.059,9.059,0,0,1-9.057-9.068,9.059,9.059,0,0,1,9.057-9.067,9.062,9.062,0,0,1,9.071,9.067" transform="translate(-1620.916 1071.693)"/><path class="a" d="M1685.244-1062.627a9.071,9.071,0,0,1-9.071,9.068,9.071,9.071,0,0,1-9.07-9.068,9.07,9.07,0,0,1,9.07-9.067,9.07,9.07,0,0,1,9.071,9.067" transform="translate(-1620.484 1071.693)"/><path class="a" d="M1731.43-1062.627a9.071,9.071,0,0,1-9.071,9.068,9.071,9.071,0,0,1-9.071-9.068,9.07,9.07,0,0,1,9.071-9.067,9.07,9.07,0,0,1,9.071,9.067" transform="translate(-1620.053 1071.693)"/><path class="a" d="M1777.617-1062.627a9.071,9.071,0,0,1-9.071,9.068,9.059,9.059,0,0,1-9.057-9.068,9.059,9.059,0,0,1,9.057-9.067,9.07,9.07,0,0,1,9.071,9.067" transform="translate(-1619.621 1071.693)"/><path class="a" d="M1639.044-1016.436a9.062,9.062,0,0,1-9.071,9.067,9.059,9.059,0,0,1-9.057-9.067,9.062,9.062,0,0,1,9.057-9.071,9.065,9.065,0,0,1,9.071,9.071" transform="translate(-1620.916 1072.125)"/><path class="a" d="M1685.244-1016.436a9.071,9.071,0,0,1-9.071,9.067,9.07,9.07,0,0,1-9.07-9.067,9.073,9.073,0,0,1,9.07-9.071,9.073,9.073,0,0,1,9.071,9.071" transform="translate(-1620.484 1072.125)"/><path class="a" d="M1731.43-1016.436a9.071,9.071,0,0,1-9.071,9.067,9.071,9.071,0,0,1-9.071-9.067,9.073,9.073,0,0,1,9.071-9.071,9.073,9.073,0,0,1,9.071,9.071" transform="translate(-1620.053 1072.125)"/><path class="a" d="M1777.617-1016.436a9.071,9.071,0,0,1-9.071,9.067,9.059,9.059,0,0,1-9.057-9.067,9.061,9.061,0,0,1,9.057-9.071,9.073,9.073,0,0,1,9.071,9.071" transform="translate(-1619.621 1072.125)"/><path class="a" d="M1639.044-970.248a9.064,9.064,0,0,1-9.071,9.069,9.061,9.061,0,0,1-9.057-9.069,9.059,9.059,0,0,1,9.057-9.068,9.062,9.062,0,0,1,9.071,9.068" transform="translate(-1620.916 1072.556)"/><path class="a" d="M1685.244-970.248a9.073,9.073,0,0,1-9.071,9.069,9.073,9.073,0,0,1-9.07-9.069,9.071,9.071,0,0,1,9.07-9.068,9.071,9.071,0,0,1,9.071,9.068" transform="translate(-1620.484 1072.556)"/><path class="a" d="M1731.43-970.248a9.073,9.073,0,0,1-9.071,9.069,9.073,9.073,0,0,1-9.071-9.069,9.071,9.071,0,0,1,9.071-9.068,9.071,9.071,0,0,1,9.071,9.068" transform="translate(-1620.053 1072.556)"/><path class="a" d="M1777.617-970.248a9.073,9.073,0,0,1-9.071,9.069,9.061,9.061,0,0,1-9.057-9.069,9.059,9.059,0,0,1,9.057-9.068,9.071,9.071,0,0,1,9.071,9.068" transform="translate(-1619.621 1072.556)"/><path class="a" d="M1639.044-924.059a9.063,9.063,0,0,1-9.071,9.068,9.06,9.06,0,0,1-9.057-9.068,9.06,9.06,0,0,1,9.057-9.068,9.063,9.063,0,0,1,9.071,9.068" transform="translate(-1620.916 1072.988)"/><path class="a" d="M1685.244-924.059a9.072,9.072,0,0,1-9.071,9.068,9.071,9.071,0,0,1-9.07-9.068,9.071,9.071,0,0,1,9.07-9.068,9.072,9.072,0,0,1,9.071,9.068" transform="translate(-1620.484 1072.988)"/><path class="a" d="M1731.43-924.059a9.072,9.072,0,0,1-9.071,9.068,9.072,9.072,0,0,1-9.071-9.068,9.072,9.072,0,0,1,9.071-9.068,9.072,9.072,0,0,1,9.071,9.068" transform="translate(-1620.053 1072.988)"/><path class="a" d="M1777.617-924.059a9.072,9.072,0,0,1-9.071,9.068,9.06,9.06,0,0,1-9.057-9.068,9.06,9.06,0,0,1,9.057-9.068,9.072,9.072,0,0,1,9.071,9.068" transform="translate(-1619.621 1072.988)"/><path class="a" d="M1639.044-877.87a9.063,9.063,0,0,1-9.071,9.069,9.06,9.06,0,0,1-9.057-9.069,9.059,9.059,0,0,1,9.057-9.067,9.062,9.062,0,0,1,9.071,9.067" transform="translate(-1620.916 1073.419)"/><path class="a" d="M1685.244-877.87a9.072,9.072,0,0,1-9.071,9.069,9.072,9.072,0,0,1-9.07-9.069,9.07,9.07,0,0,1,9.07-9.067,9.071,9.071,0,0,1,9.071,9.067" transform="translate(-1620.484 1073.419)"/><path class="a" d="M1731.43-877.87a9.072,9.072,0,0,1-9.071,9.069,9.072,9.072,0,0,1-9.071-9.069,9.071,9.071,0,0,1,9.071-9.067,9.071,9.071,0,0,1,9.071,9.067" transform="translate(-1620.053 1073.419)"/><path class="a" d="M1777.617-877.87a9.072,9.072,0,0,1-9.071,9.069,9.06,9.06,0,0,1-9.057-9.069,9.059,9.059,0,0,1,9.057-9.067,9.071,9.071,0,0,1,9.071,9.067" transform="translate(-1619.621 1073.419)"/></g></svg>