<svg xmlns="http://www.w3.org/2000/svg" width="24.995" height="24.231" viewBox="0 0 24.995 24.231"><defs><style>.a{fill:#5382fc;stroke:#5382fc;stroke-width:0.3px;}</style></defs><path class="a" d="M24.31,13.348H20.832a1.121,1.121,0,0,0,.078-.258l.7-6.259a.387.387,0,0,0-.384-.429h-.874A1.163,1.163,0,0,0,19.2,7.4l-.63,4.408h-4.3a1.159,1.159,0,0,0-1.158,1.158v.386h-.986a1.526,1.526,0,0,0,.215-.772A1.545,1.545,0,0,0,10.8,11.033H8.954a.388.388,0,0,1-.241-.084L6.452,9.141a1.9,1.9,0,0,0-.278-.185V7.56l0-.008a1.921,1.921,0,0,0,.773-1.535V1.386a.386.386,0,0,0-.667-.265l-.65.689a.375.375,0,0,1-.3.12L3.543,1.822A1.157,1.157,0,0,0,2.315,2.978V6.016a1.921,1.921,0,0,0,.773,1.535l0,.008v1.2a1.932,1.932,0,0,0-1.543,1.89v6.946a1.911,1.911,0,0,0,.4,1.158H.772V12.962a.386.386,0,0,0-.772,0V24.538a.386.386,0,0,0,.772,0V19.522H5.4v5.016a.386.386,0,0,0,.772,0V19.522h.772v5.016a.386.386,0,0,0,.386.386h3.087a.386.386,0,0,0,.386-.386v-.772a.386.386,0,0,0-.113-.273l-.659-.659V17.454a1.156,1.156,0,0,0-.927-1.135l-1.4-.28a.365.365,0,0,0,.013-.066V13.914a1.157,1.157,0,0,0,.643.205h1.672v1.158a1.159,1.159,0,0,0,1.158,1.158h.386v8.1a.386.386,0,0,0,.386.386h1.543a.386.386,0,0,0,.386-.386v-8.1h6.946v8.1a.386.386,0,0,0,.386.386h1.543a.386.386,0,0,0,.386-.386v-8.1h.386A1.159,1.159,0,0,0,24.7,15.277V13.734a.386.386,0,0,0-.386-.386Zm-10.418-.386a.386.386,0,0,1,.386-.386h4.63a.386.386,0,0,0,.382-.332l.677-4.74a.387.387,0,0,1,.382-.331h.443L20.143,13a.385.385,0,0,1-.383.343H13.891ZM10.8,11.8a.772.772,0,0,1,0,1.543ZM3.087,2.978A.385.385,0,0,1,3.5,2.592L5.278,2.7a1.155,1.155,0,0,0,.9-.343v.958H5.016A1.159,1.159,0,0,0,3.859,4.473a.386.386,0,0,1-.386.386H3.087Zm0,2.653h.386A1.159,1.159,0,0,0,4.63,4.473a.386.386,0,0,1,.386-.386H6.174V6.016A1.159,1.159,0,0,1,5.016,7.174H4.245A1.159,1.159,0,0,1,3.087,6.016ZM4.245,7.946h.772A1.929,1.929,0,0,0,5.4,7.907v.824c-.052,0-.1-.013-.156-.013H3.859V7.907a1.929,1.929,0,0,0,.386.039Zm5.788,16.206H7.717V23.38h1.77l.546.546ZM8.956,17.076a.382.382,0,0,1,.305.378v5.155H7.717V19.136a.386.386,0,0,0-.386-.386H3.473a1.159,1.159,0,0,1-1.158-1.158V15.748ZM8.129,13.27,5.248,11.109a.386.386,0,1,0-.463.618l2.161,1.62h0v2.539l-4.63-.926V10.647A1.159,1.159,0,0,1,3.473,9.489H5.247a1.161,1.161,0,0,1,.723.254l2.261,1.809a1.161,1.161,0,0,0,.723.253h1.079v1.543H8.361a.385.385,0,0,1-.232-.078Zm4.991,10.882h-.772V16.435h.772Zm9.261,0h-.772V16.435h.772Zm1.543-8.875a.386.386,0,0,1-.386.386H11.19a.386.386,0,0,1-.386-.386V14.119H23.924Z" transform="translate(0.15 -0.843)"/></svg>