<svg xmlns="http://www.w3.org/2000/svg" width="24.717" height="25.772" viewBox="0 0 24.717 25.772"><defs><style>.a{fill:#5382fc;stroke:#5382fc;stroke-width:0.5px;}</style></defs><path class="a" d="M64.4,56.7a5.2,5.2,0,1,0-5.2-5.2A5.21,5.21,0,0,0,64.4,56.7Zm0-9.681A4.482,4.482,0,1,1,59.916,51.5,4.489,4.489,0,0,1,64.4,47.023ZM74.037,61.2a4.057,4.057,0,0,0-.464.024,4.7,4.7,0,0,0-4.494-3.289H68.9l-.108.145a5.45,5.45,0,0,1-8.783,0l-.108-.145h-.181A4.724,4.724,0,0,0,55,62.656v8.916H73.8v-.006c.078.006.163.006.241.006a5.184,5.184,0,0,0,0-10.368ZM55.723,70.843V62.65a4.006,4.006,0,0,1,3.819-3.994,6.163,6.163,0,0,0,9.711,0,3.982,3.982,0,0,1,3.6,2.681,5.18,5.18,0,0,0-1.452,9.5H55.723ZM76.2,66.108a.364.364,0,0,1-.512.018l-1.289-1.2v3.753a.361.361,0,1,1-.723,0V64.921l-1.289,1.2a.362.362,0,0,1-.494-.53l1.9-1.765a.369.369,0,0,1,.494,0l1.9,1.765A.375.375,0,0,1,76.2,66.108Z" transform="translate(-54.75 -46.05)"/></svg>