<svg xmlns="http://www.w3.org/2000/svg" width="1353.877" height="829.676" viewBox="0 0 1353.877 829.676"><defs><style>.a{fill:#ef2b86;}.b{fill:#68cdd2;}.c{fill:#f7d029;}.d{fill:#ccccc9;}</style></defs><g transform="translate(-1018.212 -493.498)"><path class="a" d="M1018.4,70.918c-11.5-59.489,26.158-119.345,75.54-154.454s109.176-51.482,166.244-71.839c112.152-40.006,220.946-100.1,294.331-193.87,34.667-44.31,60.533-94.96,95.012-139.419s80.693-83.911,136.3-92.465c76.414-11.753,153.285,41.372,183.834,112.379s20.819,154.4-10.188,225.2-81.393,131.178-133.165,188.585Q1728.5,53.5,1621.127,152.813c-14.884,13.763-30.563,27.774-49.9,33.83-23.686,7.417-49.256,1.857-73.44-3.737L1018.506,72.024l-.11-1.107" transform="translate(119.406 1076.262)"/><path class="b" d="M1227.733,78.542c29.426-26.822,58.554-55.811,74.042-92.492,19.5-46.186,15.007-98.373,18.073-148.414s17.887-105.172,60.871-130.964c46.174-27.7,105.146-10.913,158.6-17.256,83.075-9.855,147.646-74.648,203.133-137.235,34.143-38.507,77.8-81.487,128.388-71.99,41.383,7.772,68.85,50.7,72.228,92.671s-11.978,83.007-28.41,121.776a1828.582,1828.582,0,0,1-190.012,341.4c-15.476,21.921-32.366,44.291-56.4,56.244-33.268,16.549-72.794,9.831-109.466,3.872a1794.633,1794.633,0,0,0-321.738-22.9" transform="translate(121.381 1076.836)"/><path class="c" d="M1377.343,158.042c52.728-17.653,76.118-78.322,88.176-132.611s22.73-114.94,66.818-148.849c33.523-25.795,78.971-29.487,121.188-26.71s84.623,10.972,126.5,5c56.577-8.068,110.354-41.688,166.877-33.318,37.749,5.589,73.467,33.816,79.671,71.466,6.312,38.281-18.155,75.786-49.067,99.229s-68.124,36.767-102.118,55.468c-66.818,36.759-120.125,93.641-182.637,137.328s-142.761,74.375-214.6,48.789c-37.588-13.388-68.487-40.728-95.914-69.7" transform="translate(122.779 1080.025)"/><path class="c" d="M1238.392,188.8C1306,152.752,1333.559,75.543,1355.279,6.882c12.61-39.833,24.9-80.365,45.9-116.745,21.25-36.78,51.786-65.428,88.7-86.191,36.188-20.362,76.01-33.3,115.966-44.013,46.564-12.477,93.855-21.971,141.213-30.81,89.925-16.778,180.725-31.221,267.946-59.558,76.992-25.02,151.859-60.8,212.876-114.825q11.628-10.283,22.461-21.39c.861-.886-.5-2.245-1.359-1.361-58.73,59.916-133.758,100.268-212.23,128.158-85.31,30.319-174.737,45.942-263.518,62.2-46.981,8.6-93.963,17.412-140.392,28.711-40.414,9.839-80.868,21.117-118.806,38.476-35.7,16.342-69.106,38.663-93.936,69.451-25.032,31.038-40.468,68.289-53.212,105.72-24.534,72.11-42.219,155.924-104.763,206.2a157.9,157.9,0,0,1-24.709,16.233c-1.091.583-.121,2.243.97,1.662" transform="translate(121.467 1077.33)"/><path class="a" d="M1374.794,220.509c58.447-11.482,111.835-45.128,147.121-93.191,40.737-55.495,54.518-125.482,85.875-185.96,33.173-63.977,78.15-120.756,122.184-177.446l70.977-91.39c21.156-27.235,42.258-54.864,67.949-78.062,58.663-52.986,137.136-65.633,212.675-76.176,1.224-.17.7-2.023-.511-1.854-64.6,9.015-132.668,18.791-187.8,56.34C1865.428-408.278,1842.7-383.067,1821.7-357c-23.619,29.314-46.349,59.363-69.429,89.088-43.846,56.45-89.575,112.144-126.584,173.469a600.8,600.8,0,0,0-44.936,91.492c-12.7,32.463-23.888,65.672-40.212,96.579-33.954,64.3-94.622,110.952-166.258,125.026-1.211.238-.7,2.091.511,1.853" transform="translate(122.744 1077.188)"/><path class="a" d="M1230.626-204.662a26.637,26.637,0,0,1-26.639,26.637,26.637,26.637,0,0,1-26.637-26.637,26.638,26.638,0,0,1,26.637-26.637,26.638,26.638,0,0,1,26.639,26.637" transform="translate(120.91 1079.545)"/><path class="c" d="M987.175-95.945A10.949,10.949,0,0,1,976.224-85a10.95,10.95,0,0,1-10.952-10.949A10.952,10.952,0,0,1,976.224-106.9a10.951,10.951,0,0,1,10.951,10.952" transform="translate(118.93 1080.707)"/><path class="b" d="M1170.063-103.8a36.476,36.476,0,0,1-36.476,36.476,36.475,36.475,0,0,1-36.474-36.476,36.475,36.475,0,0,1,36.474-36.475,36.476,36.476,0,0,1,36.476,36.475" transform="translate(120.16 1080.395)"/><path class="d" d="M918.03-23.439a9.068,9.068,0,0,1-9.069,9.068,9.066,9.066,0,0,1-9.067-9.068,9.066,9.066,0,0,1,9.067-9.066,9.067,9.067,0,0,1,9.069,9.066" transform="translate(118.318 1081.4)"/></g></svg>