<svg xmlns="http://www.w3.org/2000/svg" xmlns:xlink="http://www.w3.org/1999/xlink" width="832.765" height="1081.188" viewBox="0 0 832.765 1081.188"><defs><style>.a{fill:#68cdd2;}.b{fill:#fbc53e;}.c{fill:#f7d02f;}.d{fill:#f6a30e;}.e{fill:#fff;}.f{fill:#8cd5d8;}.g{filter:url(#i);}.h{filter:url(#g);}.i{filter:url(#e);}.j{filter:url(#c);}.k{filter:url(#a);}</style><filter id="a" x="337.422" y="465.179" width="152.345" height="152.345" filterUnits="userSpaceOnUse"><feOffset dy="5" input="SourceAlpha"/><feGaussianBlur stdDeviation="5" result="b"/><feFlood flood-opacity="0.161"/><feComposite operator="in" in2="b"/><feComposite in="SourceGraphic"/></filter><filter id="c" x="149.391" y="257.538" width="279.063" height="279.062" filterUnits="userSpaceOnUse"><feOffset dy="5" input="SourceAlpha"/><feGaussianBlur stdDeviation="5" result="d"/><feFlood flood-opacity="0.161"/><feComposite operator="in" in2="d"/><feComposite in="SourceGraphic"/></filter><filter id="e" x="2.165" y="368.954" width="224.368" height="224.368" filterUnits="userSpaceOnUse"><feOffset dy="10" input="SourceAlpha"/><feGaussianBlur stdDeviation="10" result="f"/><feFlood flood-opacity="0.161"/><feComposite operator="in" in2="f"/><feComposite in="SourceGraphic"/></filter><filter id="g" x="323.903" y="669.115" width="308.745" height="308.745" filterUnits="userSpaceOnUse"><feOffset dy="10" input="SourceAlpha"/><feGaussianBlur stdDeviation="10" result="h"/><feFlood flood-opacity="0.161"/><feComposite operator="in" in2="h"/><feComposite in="SourceGraphic"/></filter><filter id="i" x="0" y="49.797" width="228.702" height="228.705" filterUnits="userSpaceOnUse"><feOffset dy="10" input="SourceAlpha"/><feGaussianBlur stdDeviation="10" result="j"/><feFlood flood-opacity="0.161"/><feComposite operator="in" in2="j"/><feComposite in="SourceGraphic"/></filter></defs><g transform="translate(20619.499 -15052.427)"><path class="a" d="M73.31-116.692H262.439a52.3,52.3,0,0,1,52.3,52.3V124.737a52.3,52.3,0,0,1-52.3,52.3H73.31a52.3,52.3,0,0,1-52.3-52.3V-64.391a52.3,52.3,0,0,1,52.3-52.3" transform="translate(-20368.969 15606.012)"/><path class="a" d="M53.8-164.9h47.418a13.113,13.113,0,0,1,13.113,13.118v47.415a13.112,13.112,0,0,1-13.113,13.111H53.8a13.112,13.112,0,0,1-13.113-13.111v-47.415A13.113,13.113,0,0,1,53.8-164.9" transform="translate(-20271.773 15401.246)"/><path class="b" d="M28.9-135.56H241.754A58.864,58.864,0,0,1,300.617-76.7V136.157a58.862,58.862,0,0,1-58.863,58.863H28.9a58.864,58.864,0,0,1-58.863-58.863V-76.7A58.865,58.865,0,0,1,28.9-135.56" transform="translate(-20087.352 15525.873)"/><path class="c" d="M76.269-199.951h69.172a19.129,19.129,0,0,1,19.128,19.128v69.174a19.129,19.129,0,0,1-19.128,19.128H76.269a19.129,19.129,0,0,1-19.128-19.128v-69.174a19.129,19.129,0,0,1,19.128-19.128" transform="translate(-20408.383 15252.379)"/><path class="d" d="M12.71-163.865H53.123A11.175,11.175,0,0,1,64.3-152.691v40.418A11.175,11.175,0,0,1,53.123-101.1H12.71A11.175,11.175,0,0,1,1.535-112.273v-40.418A11.175,11.175,0,0,1,12.71-163.865" transform="translate(-20016.324 15405.652)"/><path class="a" d="M44.024-49.883H233.152a52.3,52.3,0,0,1,52.3,52.3V191.544a52.3,52.3,0,0,1-52.3,52.3H44.024a52.3,52.3,0,0,1-52.3-52.3V2.416a52.3,52.3,0,0,1,52.3-52.3" transform="translate(-20185.992 15889.773)"/><path class="a" d="M98.633-63.177H262.139A45.215,45.215,0,0,1,307.354-17.96v163.5a45.214,45.214,0,0,1-45.215,45.22H98.633a45.216,45.216,0,0,1-45.215-45.22V-17.96A45.217,45.217,0,0,1,98.633-63.177" transform="translate(-20531.629 15893.309)"/><g class="k" transform="matrix(1, 0, 0, 1, -20619.5, 15052.43)"><path class="e" d="M71.476-103.678h78.778a21.784,21.784,0,0,1,21.785,21.785V-3.118a21.782,21.782,0,0,1-21.785,21.784H71.476A21.781,21.781,0,0,1,49.694-3.118V-81.894a21.783,21.783,0,0,1,21.782-21.785" transform="translate(302.73 578.86)"/></g><path class="f" d="M31.681-199.5H138.694a29.6,29.6,0,0,1,29.593,29.6V-62.891A29.593,29.593,0,0,1,138.694-33.3H31.681A29.593,29.593,0,0,1,2.088-62.891V-169.9a29.6,29.6,0,0,1,29.593-29.6" transform="translate(-20123.215 15254.311)"/><path class="b" d="M29.321-150.037H59.553a8.361,8.361,0,0,1,8.36,8.361v30.232a8.361,8.361,0,0,1-8.36,8.361H29.321a8.36,8.36,0,0,1-8.361-8.361v-30.232a8.36,8.36,0,0,1,8.361-8.361" transform="translate(-20121.871 15464.383)"/><path class="c" d="M72.215-16.271h65.92A18.225,18.225,0,0,1,156.361,1.955v65.92A18.225,18.225,0,0,1,138.135,86.1H72.215A18.228,18.228,0,0,1,53.986,67.875V1.955A18.227,18.227,0,0,1,72.215-16.271" transform="translate(-20383.613 16032.535)"/><g class="j" transform="matrix(1, 0, 0, 1, -20619.5, 15052.43)"><path class="c" d="M94.289-148.966H254.658a44.349,44.349,0,0,1,44.348,44.35V55.748A44.348,44.348,0,0,1,254.658,100.1H94.289A44.347,44.347,0,0,1,49.944,55.748V-104.616a44.348,44.348,0,0,1,44.345-44.35" transform="translate(114.45 416.5)"/></g><g class="i" transform="matrix(1, 0, 0, 1, -20619.5, 15052.43)"><path class="e" d="M120.551-125.828H226.386a29.265,29.265,0,0,1,29.265,29.265V9.272A29.267,29.267,0,0,1,226.386,38.54H120.551A29.27,29.27,0,0,1,91.283,9.272V-96.563a29.267,29.267,0,0,1,29.268-29.265" transform="translate(-59.12 514.78)"/></g><g class="h" transform="matrix(1, 0, 0, 1, -20619.5, 15052.43)"><path class="e" d="M58.179-68.625H218.343a44.29,44.29,0,0,1,44.291,44.29V135.826a44.289,44.289,0,0,1-44.291,44.294H58.179a44.29,44.29,0,0,1-44.29-44.294V-24.335a44.291,44.291,0,0,1,44.29-44.29" transform="translate(340.01 757.74)"/></g><g class="g" transform="matrix(1, 0, 0, 1, -20619.5, 15052.43)"><path class="a" d="M120.908-186.65H229.533a30.035,30.035,0,0,1,30.039,30.036V-47.987a30.042,30.042,0,0,1-30.039,30.043H120.908A30.043,30.043,0,0,1,90.87-47.987V-156.614a30.037,30.037,0,0,1,30.038-30.036" transform="translate(-60.87 256.45)"/></g><path class="c" d="M117.8-64.548h84.433A23.346,23.346,0,0,1,225.579-41.2V43.235a23.345,23.345,0,0,1-23.348,23.346H117.8A23.347,23.347,0,0,1,94.45,43.235V-41.2A23.349,23.349,0,0,1,117.8-64.548" transform="translate(-20665.164 15887.484)"/></g></svg>