<svg xmlns="http://www.w3.org/2000/svg" width="24.718" height="23.946" viewBox="0 0 24.718 23.946"><defs><style>.a{fill:#fff;}</style></defs><path class="a" d="M24.332,13.359H20.851a1.122,1.122,0,0,0,.078-.258l.7-6.265a.387.387,0,0,0-.384-.429h-.875A1.164,1.164,0,0,0,19.22,7.4l-.63,4.412h-4.3a1.16,1.16,0,0,0-1.159,1.159v.386h-.987a1.527,1.527,0,0,0,.215-.772,1.547,1.547,0,0,0-1.545-1.545H8.962a.388.388,0,0,1-.241-.084L6.458,9.148a1.9,1.9,0,0,0-.278-.185v-1.4l0-.008a1.923,1.923,0,0,0,.774-1.537V1.386a.386.386,0,0,0-.667-.265l-.65.689a.375.375,0,0,1-.3.12L3.546,1.823A1.158,1.158,0,0,0,2.317,2.979V6.021a1.923,1.923,0,0,0,.774,1.537l0,.008v1.2a1.934,1.934,0,0,0-1.545,1.892v6.952a1.912,1.912,0,0,0,.4,1.159H.772V12.973a.386.386,0,1,0-.772,0V24.559a.386.386,0,0,0,.772,0V19.539H5.407v5.021a.386.386,0,0,0,.772,0V19.539h.772v5.021a.386.386,0,0,0,.386.386h3.09a.386.386,0,0,0,.386-.386v-.772a.386.386,0,0,0-.113-.273l-.659-.659V17.469a1.157,1.157,0,0,0-.928-1.136l-1.4-.28a.366.366,0,0,0,.013-.067V13.926a1.158,1.158,0,0,0,.644.205h1.673V15.29A1.16,1.16,0,0,0,11.2,16.449h.386v8.111a.386.386,0,0,0,.386.386h1.545a.386.386,0,0,0,.386-.386V16.449h6.952v8.111a.386.386,0,0,0,.386.386h1.545a.386.386,0,0,0,.386-.386V16.449h.386a1.16,1.16,0,0,0,1.159-1.159V13.745a.386.386,0,0,0-.386-.386ZM13.9,12.973a.387.387,0,0,1,.386-.386h4.635a.386.386,0,0,0,.382-.332l.678-4.744a.388.388,0,0,1,.382-.331h.444l-.649,5.836a.386.386,0,0,1-.384.343H13.9Zm-3.09-1.159a.772.772,0,1,1,0,1.545ZM3.09,2.979a.386.386,0,0,1,.41-.385L5.283,2.7a1.157,1.157,0,0,0,.9-.343v.959H5.021A1.16,1.16,0,0,0,3.862,4.476a.387.387,0,0,1-.386.386H3.09Zm0,2.655h.386A1.16,1.16,0,0,0,4.635,4.476a.387.387,0,0,1,.386-.386H6.18V6.021A1.16,1.16,0,0,1,5.021,7.18H4.248A1.16,1.16,0,0,1,3.09,6.021ZM4.248,7.952h.772a1.931,1.931,0,0,0,.386-.039v.825c-.052,0-.1-.013-.156-.013H3.862V7.913a1.931,1.931,0,0,0,.386.039Zm5.793,16.221H7.724V23.4H9.5l.546.546ZM8.964,17.091a.382.382,0,0,1,.306.378v5.16H7.724V19.152a.386.386,0,0,0-.386-.386H3.476a1.16,1.16,0,0,1-1.159-1.159V15.762Zm-.828-3.809L5.252,11.119a.386.386,0,1,0-.463.619l2.163,1.622h0V15.9l-4.635-.927V10.656A1.16,1.16,0,0,1,3.476,9.5H5.251a1.162,1.162,0,0,1,.724.254l2.263,1.81a1.163,1.163,0,0,0,.723.253h1.08v1.545H8.368A.386.386,0,0,1,8.136,13.281Zm5,10.892h-.772V16.449h.772Zm9.269,0h-.772V16.449H22.4Zm1.545-8.883a.387.387,0,0,1-.386.386H11.2a.387.387,0,0,1-.386-.386V14.132H23.946Z" transform="translate(0 -1)"/></svg>