<svg xmlns="http://www.w3.org/2000/svg" width="25.169" height="24.407" viewBox="0 0 25.169 24.407"><defs><style>.a{fill:#3f4772;stroke:#3f4772;stroke-width:0.5px;opacity:0.5;}</style></defs><path class="a" d="M24.284,13.335H20.81a1.12,1.12,0,0,0,.078-.257l.695-6.252A.386.386,0,0,0,21.2,6.4h-.873a1.162,1.162,0,0,0-1.145.993l-.629,4.4H14.262a1.158,1.158,0,0,0-1.156,1.156v.385H12.12a1.524,1.524,0,0,0,.215-.771,1.544,1.544,0,0,0-1.542-1.542H8.944a.388.388,0,0,1-.241-.084L6.445,9.132a1.9,1.9,0,0,0-.278-.185V7.553l0-.008a1.919,1.919,0,0,0,.773-1.534V1.385a.385.385,0,0,0-.666-.264l-.649.688a.375.375,0,0,1-.3.12L3.539,1.821A1.156,1.156,0,0,0,2.313,2.975V6.011a1.919,1.919,0,0,0,.773,1.534l0,.008v1.2a1.93,1.93,0,0,0-1.542,1.888v6.938a1.909,1.909,0,0,0,.4,1.156H.771V12.949a.385.385,0,0,0-.771,0V24.513a.385.385,0,0,0,.771,0V19.5H5.4v5.011a.385.385,0,0,0,.771,0V19.5h.771v5.011a.385.385,0,0,0,.385.385h3.084a.385.385,0,0,0,.385-.385v-.771a.385.385,0,0,0-.113-.273l-.658-.658V17.436A1.155,1.155,0,0,0,9.1,16.3l-1.4-.28a.365.365,0,0,0,.013-.066V13.9a1.156,1.156,0,0,0,.643.2h1.67v1.156a1.158,1.158,0,0,0,1.156,1.156h.385v8.095a.385.385,0,0,0,.385.385h1.542a.385.385,0,0,0,.385-.385V16.418h6.938v8.095a.385.385,0,0,0,.385.385h1.542a.385.385,0,0,0,.385-.385V16.418h.385a1.158,1.158,0,0,0,1.156-1.156V13.72a.385.385,0,0,0-.385-.385Zm-10.407-.385a.386.386,0,0,1,.385-.385h4.625a.385.385,0,0,0,.382-.331L19.946,7.5a.387.387,0,0,1,.381-.33h.443l-.647,5.825a.385.385,0,0,1-.383.343H13.876Zm-3.084-1.156a.771.771,0,1,1,0,1.542ZM3.084,2.975a.385.385,0,0,1,.409-.385l1.78.108a1.154,1.154,0,0,0,.9-.343v.957H5.011A1.158,1.158,0,0,0,3.855,4.469a.386.386,0,0,1-.385.385H3.084Zm0,2.65h.385A1.158,1.158,0,0,0,4.625,4.469a.386.386,0,0,1,.385-.385H6.167V6.011A1.158,1.158,0,0,1,5.011,7.167H4.24A1.158,1.158,0,0,1,3.084,6.011ZM4.24,7.938h.771A1.927,1.927,0,0,0,5.4,7.9v.823c-.052,0-.1-.013-.155-.013H3.855V7.9a1.927,1.927,0,0,0,.385.039Zm5.782,16.189H7.709v-.771H9.477l.545.545ZM8.946,17.059a.382.382,0,0,1,.3.377v5.149H7.709V19.117a.385.385,0,0,0-.385-.385H3.469a1.158,1.158,0,0,1-1.156-1.156V15.732Zm-.826-3.8L5.242,11.1a.386.386,0,1,0-.462.617l2.158,1.618h0v2.536l-4.625-.925v-4.31A1.158,1.158,0,0,1,3.469,9.48H5.241a1.16,1.16,0,0,1,.722.254l2.259,1.807a1.16,1.16,0,0,0,.722.253h1.078v1.542H8.352a.385.385,0,0,1-.232-.078Zm4.985,10.87h-.771V16.418h.771Zm9.251,0h-.771V16.418h.771ZM23.9,15.262a.386.386,0,0,1-.385.385H11.178a.386.386,0,0,1-.385-.385V14.106H23.9Z" transform="translate(0.25 -0.741)"/></svg>