<svg xmlns="http://www.w3.org/2000/svg" width="19.208" height="19.208" viewBox="0 0 19.208 19.208"><defs><style>.a{fill:#d2d6dc;}.b{fill:#64758b;stroke:#64758b;stroke-width:0.2px;}</style></defs><g transform="translate(-17.9 -83.9)"><rect class="a" width="7" height="10" transform="translate(29 92)"/><rect class="a" width="7" height="10" transform="translate(19 85)"/><g transform="translate(18 84)"><path class="b" d="M8.393,352H.743a.743.743,0,0,0-.743.743V357.2a.743.743,0,0,0,.743.743H8.393a.743.743,0,0,0,.743-.743v-4.457A.743.743,0,0,0,8.393,352Zm-.743,4.457H1.486v-2.971H7.651Z" transform="translate(0 -338.993)"/><path class="b" d="M8.393,0H.743A.733.733,0,0,0,0,.723V11.277A.733.733,0,0,0,.743,12H8.393a.733.733,0,0,0,.743-.723V.723A.733.733,0,0,0,8.393,0ZM7.651,10.554H1.486V1.446H7.651Z"/><path class="b" d="M274.393,0h-7.651A.743.743,0,0,0,266,.743V5.2a.743.743,0,0,0,.743.743h7.651a.743.743,0,0,0,.743-.743V.743A.743.743,0,0,0,274.393,0Zm-.743,4.457h-6.165V1.486h6.165Z" transform="translate(-256.128)"/><path class="b" d="M274.393,180h-7.651a.733.733,0,0,0-.743.723v10.554a.733.733,0,0,0,.743.723h7.651a.733.733,0,0,0,.743-.723V180.723A.733.733,0,0,0,274.393,180Zm-.743,10.554h-6.165v-9.108h6.165Z" transform="translate(-256.128 -172.992)"/></g></g></svg>