<svg xmlns="http://www.w3.org/2000/svg" width="19.603" height="22.203" viewBox="0 0 19.603 22.203"><defs><style>.a{fill:#d2d6dc;}.b{fill:#64758b;stroke:#64758b;stroke-width:0.6px;}</style></defs><g transform="translate(-17.698 -173.597)"><path class="a" d="M1.667,1l1.8-.617.406,3.256V5.672H10V15H1.667L0,13-.439,6.775,2,6.117Z" transform="translate(25 180.801)"/><g transform="translate(17.992 174)"><g transform="translate(0.009 -0.001)"><g transform="translate(0 0)"><path class="b" d="M17.43,6.535h0a1.58,1.58,0,0,0-1.407.858L12.029,6a2.451,2.451,0,0,0,.032-.389,2.42,2.42,0,0,0-.5-1.467l2.229-1.454a1.618,1.618,0,0,0,2.253,0,1.534,1.534,0,0,0,0-2.2,1.618,1.618,0,0,0-2.253,0,1.534,1.534,0,0,0-.347,1.689L11.12,3.687a2.556,2.556,0,0,0-3.108-.048L7.048,2.461A1.547,1.547,0,0,0,6.642.278a1.626,1.626,0,0,0-2.231.4,1.547,1.547,0,0,0,.406,2.183,1.633,1.633,0,0,0,1.774.033l.967,1.182A2.433,2.433,0,0,0,7.029,5.3H3.185a1.579,1.579,0,0,0-1.863-1.2A1.546,1.546,0,0,0,.09,5.918a1.579,1.579,0,0,0,1.863,1.2,1.563,1.563,0,0,0,1.232-1.2H7.027a2.407,2.407,0,0,0,.253.813L2.524,10.511a1.626,1.626,0,0,0-2.23.4A1.547,1.547,0,0,0,.7,13.091a1.626,1.626,0,0,0,2.23-.4,1.54,1.54,0,0,0,.033-1.736L7.752,7.152a.311.311,0,0,0,.28-.34.3.3,0,0,0-.055-.143,1.829,1.829,0,0,1,.473-2.581,1.922,1.922,0,0,1,2.638.463,1.821,1.821,0,0,1,0,2.118l.518.353a2.424,2.424,0,0,0,.239-.431l4.013,1.4c0,.031-.009.058-.009.088A1.58,1.58,0,1,0,17.43,6.535ZM14.9.665a.937.937,0,0,1,.948.927.948.948,0,0,1-1.9,0A.937.937,0,0,1,14.9.665ZM5.743,2.519A.937.937,0,0,1,4.8,1.592a.948.948,0,0,1,1.9,0A.937.937,0,0,1,5.743,2.519ZM1.637,6.536a.927.927,0,1,1,0-1.854.927.927,0,1,1,0,1.854Zm0,6.18a.927.927,0,1,1,0-1.854.927.927,0,1,1,0,1.854ZM17.43,9.008a.927.927,0,1,1,.948-.927A.937.937,0,0,1,17.43,9.008Z" transform="translate(-0.009 0.001)"/></g></g><g transform="translate(6.323 6.814)"><path class="b" d="M170.579,134.57a1.33,1.33,0,0,0-1,.453,1.332,1.332,0,0,0-2,0,1.332,1.332,0,0,0-1.667-.273v-4.181a1.334,1.334,0,1,0-2.668,0v5.369a2.328,2.328,0,0,0-1.667-.7.334.334,0,0,0-.333.333v6a.333.333,0,0,0,.1.236l2.1,2.1h.943l-2.473-2.473v-5.5a1.67,1.67,0,0,1,1.334,1.634v2.334a.333.333,0,1,0,.667,0v-9.338a.667.667,0,0,1,1.334,0v6a.333.333,0,1,0,.667,0V135.9a.667.667,0,0,1,1.334,0v.667a.333.333,0,1,0,.667,0V135.9a.667.667,0,0,1,1.334,0v.667a.333.333,0,1,0,.667,0V135.9a.667.667,0,0,1,1.334,0v8h.667v-8A1.334,1.334,0,0,0,170.579,134.57Z" transform="translate(-161.241 -129.234)"/></g></g></g></svg>