<svg xmlns="http://www.w3.org/2000/svg" width="20.3" height="20.3" viewBox="0 0 20.3 20.3"><defs><style>.a{fill:#d2d6dc;}.b{fill:#63748b;stroke:#63748b;stroke-width:0.3px;}</style></defs><g transform="translate(-16.85 -478.85)"><circle class="a" cx="9" cy="9" r="9" transform="translate(18 480)"/><g transform="translate(17 479)"><circle class="b" cx="1.005" cy="1.005" r="1.005" transform="translate(8.995 14.765)"/><path class="b" d="M10,0A10,10,0,1,0,20,10,9.995,9.995,0,0,0,10,0Zm0,18.438A8.438,8.438,0,1,1,18.438,10,8.433,8.433,0,0,1,10,18.438Z"/><path class="b" d="M179.216,128.5A3.22,3.22,0,0,0,176,131.716a.8.8,0,1,0,1.608,0,1.608,1.608,0,1,1,1.608,1.608.8.8,0,0,0-.8.8v2.01a.8.8,0,1,0,1.608,0V134.83a3.216,3.216,0,0,0-.8-6.33Z" transform="translate(-169.216 -123.582)"/></g></g></svg>