<svg xmlns="http://www.w3.org/2000/svg" width="19.941" height="17.475" viewBox="0 0 19.941 17.475"><defs><style>.a{fill:#d2d6dc;}.b{fill:#64758b;stroke:#64758b;stroke-width:0.2px;}</style></defs><g transform="translate(-16.9 -235.898)"><path class="a" d="M0,0H9.375l.892,3.539,2.946,3.639L18,3.539V12H0Z" transform="translate(18 240.5)"/><g transform="translate(17 203.996)"><g transform="translate(0 35.705)"><g transform="translate(0 0)"><path class="b" d="M19.124,135.4a.617.617,0,0,0-.617.617v4.318H1.234v-7.4H8.02a.617.617,0,1,0,0-1.234H1.234V129.23H8.02a.617.617,0,1,0,0-1.234H1.234A1.234,1.234,0,0,0,0,129.23v11.1a1.234,1.234,0,0,0,1.234,1.234H18.507a1.234,1.234,0,0,0,1.234-1.234v-4.318A.617.617,0,0,0,19.124,135.4Z" transform="translate(0 -127.996)"/></g></g><g transform="translate(2.468 43.108)"><path class="b" d="M67.084,320H64.617a.617.617,0,0,0,0,1.234h2.468a.617.617,0,1,0,0-1.234Z" transform="translate(-64 -319.996)"/></g><g transform="translate(9.87 32.004)"><path class="b" d="M265.5,33.9l-4.318-1.851a.63.63,0,0,0-.487,0L256.373,33.9a.618.618,0,0,0-.373.568v2.468c0,3.394,1.255,5.378,4.628,7.321a.62.62,0,0,0,.614,0c3.373-1.938,4.628-3.922,4.628-7.321V34.471A.618.618,0,0,0,265.5,33.9Zm-.86,3.035c0,2.849-.943,4.417-3.7,6.07-2.759-1.657-3.7-3.225-3.7-6.07v-2.06l3.7-1.587,3.7,1.587Z" transform="translate(-256 -32.004)"/></g><g transform="translate(12.338 35.706)"><path class="b" d="M324.715,128.15a.621.621,0,0,0-.867.1l-1.94,2.426-.767-1.147a.617.617,0,1,0-1.026.684l1.234,1.851a.622.622,0,0,0,.487.275h.026a.617.617,0,0,0,.482-.232l2.468-3.084A.617.617,0,0,0,324.715,128.15Z" transform="translate(-320.011 -128.016)"/></g></g></g></svg>