<svg xmlns="http://www.w3.org/2000/svg" width="16.329" height="17.606" viewBox="0 0 16.329 17.606"><defs><style>.a,.b,.c{fill:none;stroke:#a8a9ae;}.a,.b{fill-rule:evenodd;}.b{stroke-linecap:round;}</style></defs><g transform="translate(0.5 0.5)"><path class="a" d="M5.5,7.5V18.145a1.277,1.277,0,0,0,1.277,1.277h9.368a1.277,1.277,0,0,0,1.277-1.277V7.5Z" transform="translate(-3.797 -2.816)"/><path class="b" d="M8.5,10.41v6.966" transform="translate(-4.242 -3.248)"/><path class="b" d="M12.5,10.41v6.966" transform="translate(-4.836 -3.248)"/><path class="b" d="M16.5,10.41v6.966" transform="translate(-5.429 -3.248)"/><path class="b" d="M9,3.987V3.059A1.132,1.132,0,0,1,10.192,2h3.577a1.132,1.132,0,0,1,1.192,1.059v.928" transform="translate(-4.316 -2)"/><rect class="c" width="15.329" height="2.555" rx="1.277" transform="translate(0 2.129)"/></g></svg>