<svg xmlns="http://www.w3.org/2000/svg" width="35.331" height="44.17" viewBox="0 0 35.331 44.17"><defs><style>.a{fill:#b1f1fe;}.b{fill:#2e53bf;}</style></defs><g transform="translate(4362.666 -13895.766)"><path class="a" d="M-4352.074,13906.2s-7.8-2.03-1.542-5.967c.6-.019,1.109-.9,2.627-2.39a4.094,4.094,0,0,1,3.639-.941l2.026,1.886,3.116-1.886s4.433-.791,5.023,3.331c2.441.34,3.274,1.169,3.183,2.73a3.615,3.615,0,0,1-3.718,3.368C-4339.929,13906.184-4352.074,13906.2-4352.074,13906.2Z"/><g transform="translate(-4362.666 13895.773)"><g transform="translate(0 -0.008)"><path class="b" d="M18.206,16.5a.841.841,0,0,0-.841.841.841.841,0,0,1-1.682,0,.841.841,0,1,0-1.682,0,2.524,2.524,0,0,0,5.047,0A.841.841,0,0,0,18.206,16.5Z" transform="translate(-2.223 -2.614)"/><path class="b" d="M26.206,16.5a.841.841,0,0,0-.841.841.841.841,0,0,1-1.682,0,.841.841,0,1,0-1.682,0,2.524,2.524,0,0,0,5.047,0A.841.841,0,0,0,26.206,16.5Z" transform="translate(-3.493 -2.614)"/><path class="b" d="M28.6,29.02a5.888,5.888,0,0,1-5.687-4.366,8.7,8.7,0,0,0,3.163-5.813,4.206,4.206,0,0,0,3.365-4.122,3.365,3.365,0,0,0-3.365-3.365h0v-.311A5.888,5.888,0,0,0,28.6,9.4h0a3.365,3.365,0,0,0-2.524-5.619H26a4.618,4.618,0,0,0-8.336-1.809A4.618,4.618,0,0,0,9.329,3.793H9.253A3.365,3.365,0,0,0,6.73,9.412h0a5.888,5.888,0,0,0,2.524,1.632v.311A3.365,3.365,0,0,0,5.888,14.72a4.206,4.206,0,0,0,3.366,4.122,8.7,8.7,0,0,0,3.128,5.813A5.888,5.888,0,0,1,6.73,29.02,6.73,6.73,0,0,0,0,35.75v7.571a.841.841,0,1,0,1.682,0V35.75A5.047,5.047,0,0,1,6.73,30.7a7.571,7.571,0,0,0,7.15-5.1,8.488,8.488,0,0,0,7.571,0,7.571,7.571,0,0,0,7.15,5.1,5.047,5.047,0,0,1,5.047,5.047v7.571a.841.841,0,1,0,1.682,0V35.75A6.73,6.73,0,0,0,28.6,29.02ZM18.507,8.495l3.121-2.524a.843.843,0,0,0-1.068-1.3L18.507,6.316V4.634A2.944,2.944,0,1,1,23.983,6.14a.841.841,0,0,0,1.447.841,4.61,4.61,0,0,0,.564-1.514h.084a1.682,1.682,0,0,1,1.253,2.81h0a4.206,4.206,0,0,1-3.129,1.4H18.507Zm-10.5-.219h0a1.682,1.682,0,0,1,1.245-2.81h.084A4.61,4.61,0,0,0,9.9,6.981a.841.841,0,0,0,1.447-.841,2.944,2.944,0,1,1,5.476-1.514V6.308L14.772,4.625a.843.843,0,1,0-1.068,1.3l3.121,2.524V9.631H11.138A4.206,4.206,0,0,1,8.008,8.276Zm9.657,16.538a6.73,6.73,0,0,1-6.73-6.73V16.4a.841.841,0,0,0-1.682,0v.69A2.524,2.524,0,0,1,7.571,14.72a1.682,1.682,0,0,1,1.682-1.682v.143a.841.841,0,0,0,1.682,0V11.347H24.4V13.18a.841.841,0,0,0,1.682,0v-.143h0A1.682,1.682,0,0,1,27.76,14.72a2.524,2.524,0,0,1-1.682,2.372V16.4a.841.841,0,0,0-1.682,0v1.682A6.73,6.73,0,0,1,17.665,24.814Z" transform="translate(0 0.008)"/></g></g></g></svg>