<svg xmlns="http://www.w3.org/2000/svg" width="44.328" height="43.399" viewBox="0 0 44.328 43.399"><defs><style>.a{fill:#b1f1fe;}.b{fill:#1cabe1;}.c{fill:#2e53bf;}</style></defs><g transform="translate(4469.163 -13916.904)"><circle class="a" cx="7" cy="7" r="7" transform="translate(-4452.8 13927.5)"/><g transform="translate(-4469.313 13916.506)"><path class="b" d="M12.18,8.748a.67.67,0,1,0-.67-.67A.669.669,0,0,0,12.18,8.748Z" transform="translate(9.886 6.101)"/><circle class="b" cx="0.67" cy="0.67" r="0.67" transform="translate(21.883 17.015)"/><path class="b" d="M14.3,12.458a.67.67,0,1,0-.67-.67A.669.669,0,0,0,14.3,12.458Z" transform="translate(11.733 9.33)"/><path class="b" d="M9.841,9.8a.67.67,0,1,0,.67-.67A.669.669,0,0,0,9.841,9.8Z" transform="translate(8.434 7.603)"/><path class="b" d="M14.3,8.928a.67.67,0,1,0-.67-.67A.669.669,0,0,0,14.3,8.928Z" transform="translate(11.733 6.258)"/><path class="c" d="M10.825,7.983a7.414,7.414,0,1,0,10.485,0A7.424,7.424,0,0,0,10.825,7.983Zm9.426,1.059a5.922,5.922,0,1,1-4.186-1.732A5.925,5.925,0,0,1,20.251,9.041Z" transform="translate(7.405 4.716)"/><path class="c" d="M43.306,32.035l-5.691-5.691a3.958,3.958,0,0,0-3-1.135l-2.145-2.145a10.387,10.387,0,0,0-1.646-12.478,10.259,10.259,0,0,0-3.106-2.1,7.989,7.989,0,0,0-4.135-5.089C22.831,2.5,18.9-1.556,12.225,1.55A9.067,9.067,0,0,0,7.2,7.006a9.6,9.6,0,0,0,.138,6.205q-.062.084-.123.185c-.7,1.208.09,3.516,1.515,4.612a10.993,10.993,0,0,0,2.79,4.868,6.342,6.342,0,0,1,.037,2.452A2.852,2.852,0,0,1,9.474,27.5C3.839,29.039.706,33,.164,39.245a2.35,2.35,0,0,0,1.36,2.36C5.327,43,11.737,43.8,18.05,43.8c5.839,0,11.6-.683,15.128-2.214a2.339,2.339,0,0,0,1.347-2.3A14.792,14.792,0,0,0,32.494,32.7l5,5a4.113,4.113,0,0,0,5.813,0A4.011,4.011,0,0,0,43.306,32.035ZM32.951,25.661a4.189,4.189,0,0,0-1.074.761,3.933,3.933,0,0,0-.7.984l-1.32-1.32a10.126,10.126,0,0,0,.967-.789,10.17,10.17,0,0,0,.791-.969Zm-3.183-1.427a8.848,8.848,0,0,1-6.02,2.577c-.013,0-.026-.006-.039-.006s-.03.007-.045.015a8.882,8.882,0,1,1,6.1-2.587ZM8.626,7.466a7.513,7.513,0,0,1,4.23-4.56c6.271-2.919,9.516,1.348,9.652,1.532a.755.755,0,0,0,.307.245,6.809,6.809,0,0,1,3.148,3.2,10.423,10.423,0,0,0-6.392.419,1.463,1.463,0,0,0-1.148.234c-1.562,1.107-5.543,3.649-9.722,4.047A8.045,8.045,0,0,1,8.626,7.466Zm1.16,9.456A2.964,2.964,0,0,1,8.5,14.156a.307.307,0,0,1,.037-.054,18.174,18.174,0,0,0,6.142-1.683,10.4,10.4,0,0,0-.114,10.831A7.148,7.148,0,0,1,12.733,22a9.524,9.524,0,0,1-2.624-4.619A.744.744,0,0,0,9.786,16.922Zm3.241,8.687a6.922,6.922,0,0,0,.12-1.455,7.816,7.816,0,0,0,2.925,1.081c.019.019.03.041.049.06a10.364,10.364,0,0,0,7.228,3.028l-2.566,1.434a7.06,7.06,0,0,1-6.881-.009l-2.648-1.491A4.213,4.213,0,0,0,13.027,25.609Zm19.542,14.6c-7.06,3.06-23.451,2.579-30.494,0a.862.862,0,0,1-.426-.808c.483-5.555,3.09-8.94,7.939-10.369l3.578,2.014a8.59,8.59,0,0,0,8.347.013l3.6-2.011c4.836,1.416,7.442,4.8,7.934,10.417A.883.883,0,0,1,32.569,40.214ZM26.313,27.891a10.336,10.336,0,0,0,2.284-.952l2.128,2.13a4,4,0,0,0,.31,1.76A11.97,11.97,0,0,0,26.313,27.891ZM42.25,36.638a2.62,2.62,0,0,1-3.7,0l-5.614-5.614a2.536,2.536,0,0,1,.077-3.621,2.506,2.506,0,0,1,3.546,0l5.691,5.691A2.51,2.51,0,0,1,42.25,36.638Z" transform="translate(0 0)"/><path class="b" d="M11.838,12.65a.866.866,0,0,1,.524.062.364.364,0,0,1,.043.243.747.747,0,0,0,.718.776l.032,0a.748.748,0,0,0,.746-.72,1.712,1.712,0,0,0-.563-1.436,2.273,2.273,0,0,0-1.782-.4.748.748,0,1,0,.282,1.47Z" transform="translate(9.397 9.349)"/><path class="b" d="M13.972,10.531a2.281,2.281,0,0,0,1.173,1.4.731.731,0,0,0,.333.079.749.749,0,0,0,.344-1.414.866.866,0,0,1-.385-.368.375.375,0,0,1,.114-.219A.748.748,0,1,0,14.4,9.05,1.713,1.713,0,0,0,13.972,10.531Z" transform="translate(12.001 7.292)"/></g></g></svg>