<svg xmlns="http://www.w3.org/2000/svg" width="25.985" height="44.188" viewBox="0 0 25.985 44.188"><defs><style>.a{fill:#b1f1fe;}.b{fill:#2e53bf;}</style></defs><g transform="translate(4764.46 -13889)"><path class="a" d="M-4747.727,13916.411l5.36,1.168,3.129,5.368-.978.68,2.376,6.795s-.241,2.278-2.376,2.111a9.707,9.707,0,0,0-2.725,0v7.7l-13.513.246s-4.472-5.657-2.434-9.48c-1.154-2.145-2.284-4.861.436-6.639a4.046,4.046,0,0,1,.515-2.965s-1.442-4.531,3.887-4.983c.852,1.427,1.789,2.231,3.041,1.842A16.2,16.2,0,0,0-4747.727,13916.411Z" transform="translate(-1.243 -7.875)"/><g transform="translate(-4764.46 13889)"><path class="b" d="M31.246,38.592l-.912-.608a2.042,2.042,0,0,1-.092-3.332l1.749-1.311-.855-1.14-1.75,1.312a3.467,3.467,0,0,0,.158,5.657l.912.608Z" transform="translate(-17.694 -9.964)"/><path class="b" d="M39.394,33.988,37.45,28.155l.876-.5L35.76,22.522A3.541,3.541,0,0,0,33.823,20.8V9.552a8.552,8.552,0,0,0-17.1,0v9.641a4.421,4.421,0,0,1-2.457,3.975l-.722.361.687,1.031a4.7,4.7,0,0,0,3.283,2.051,3.415,3.415,0,0,0-.078.709,3.479,3.479,0,0,0,.038.489l-.563.845a5.357,5.357,0,0,0-.9,2.991,5.293,5.293,0,0,0,1.03,3.135,10.249,10.249,0,0,0,1.413,8.229L19.9,45.188H34.536v-7.84h2.437a2.552,2.552,0,0,0,2.421-3.36ZM15.6,24.029a5.832,5.832,0,0,0,2.539-4.835V9.552a7.127,7.127,0,1,1,14.254,0V20.4l-2.851-.713V16.875a5.671,5.671,0,0,0,1.425-3.759V8.84H29.547v.713h-.835a4.127,4.127,0,0,1-2.938-1.217l-.5-.5-.5.5a4.126,4.126,0,0,1-2.938,1.217h-.835V8.84H19.569v4.276a5.7,5.7,0,0,0,2.851,4.93V19.73l-1.84.613a3.559,3.559,0,0,0-2.436,3.38v1.5l0,0A3.274,3.274,0,0,1,15.6,24.029Zm5.39-13.051h.835a5.536,5.536,0,0,0,3.442-1.187,5.536,5.536,0,0,0,3.442,1.187h.835v2.138a4.276,4.276,0,1,1-8.552,0Zm2.851,7.652a5.609,5.609,0,0,0,4.276-.584v1.961a4.027,4.027,0,0,1-2.851,1.661,1.342,1.342,0,0,1-1.425-1.425ZM18.091,29.446l.033-.051c.019.026.041.05.061.076a6.381,6.381,0,0,0,2.524,4.456.713.713,0,0,1-.428,1.283h-.376a.724.724,0,0,1-.319-.075,3.932,3.932,0,0,1-1.5-5.689ZM33.111,43.762H20.663l-1.028-1.543a8.884,8.884,0,0,1-1.393-6.24,5.439,5.439,0,0,0,.708.43,2.145,2.145,0,0,0,.956.226h.376a2.138,2.138,0,0,0,1.283-3.849,4.988,4.988,0,0,1-1.217-1.322,8.832,8.832,0,0,1,1.514-1.394l.973-.695-.828-1.16-.973.695c-.226.161-.43.349-.641.527l-.626-.418a2.042,2.042,0,0,1-.092-3.332l1.749-1.311-.855-1.14-1,.748v-.262a2.135,2.135,0,0,1,1.462-2.028l1.544-.515a2.68,2.68,0,0,0,2.7,1.914,5.283,5.283,0,0,0,3.843-2.046l3.978.994a2.134,2.134,0,0,1,1.394,1.118l1.963,3.926L32.7,29.228,30.185,24.2l-1.275.638L32.1,31.213l.7-.4.751,2.257H31.773l-2.552-.638a2.474,2.474,0,0,0-.606-.075h-.137a2.494,2.494,0,0,0,0,4.989h4.633Zm3.862-7.84H28.478a1.069,1.069,0,0,1,0-2.138h.137a1.05,1.05,0,0,1,.259.032l2.638.659,4.449.021V33.072H35.05l-.993-2.978,2.13-1.217,1.854,5.562a1.128,1.128,0,0,1-1.069,1.485Z" transform="translate(-13.54 -1)"/></g></g></svg>