<svg xmlns="http://www.w3.org/2000/svg" width="44.537" height="44.537" viewBox="0 0 44.537 44.537"><defs><style>.a{fill:#52bbe9;}.b{fill:#b1f1fe;}.c{fill:#2e53bf;}</style></defs><g transform="translate(4240.269 -13899.929)"><path class="a" d="M-4239.129,13904.621a12.813,12.813,0,0,0,.207,5.112c.67,3.111-2.616,4.374,1.152,8.373,1.449,1.32,5.122,2.587,8.393-2.125,1.3-2.541,2.788-8.093-.7-12.842-2.523-3.4-5.5-2.977-6.883-1.82A8.95,8.95,0,0,0-4239.129,13904.621Z" transform="translate(31.515)"/><path class="b" d="M-4228.408,13904.621a12.813,12.813,0,0,1-.207,5.112c-.67,3.111,2.616,4.374-1.152,8.373-1.449,1.32-5.122,2.587-8.393-2.125-1.3-2.541-2.788-8.093.7-12.842,2.523-3.4,5.5-2.977,6.883-1.82A8.95,8.95,0,0,1-4228.408,13904.621Z"/><g transform="translate(-4240.269 13899.929)"><path class="c" d="M37.354,0a5.878,5.878,0,0,0-4.17,1.855A5.792,5.792,0,0,0,31.6,6.5a15.085,15.085,0,0,0-8.611,13.613v4.31H21.55v-4.31A15.085,15.085,0,0,0,12.938,6.5a5.792,5.792,0,0,0-1.585-4.645A5.875,5.875,0,0,0,7.183,0C3.222,0,0,4.511,0,10.057S3.222,20.114,7.183,20.114a5.878,5.878,0,0,0,4.17-1.855A6.084,6.084,0,0,0,12.5,11.733a4.145,4.145,0,0,1-.177-.649,10.859,10.859,0,0,1,4.913,9.029v4.569a5.064,5.064,0,0,0-3.065,2.565,5.118,5.118,0,0,0,.392,5.182l2.952,4.217a9.452,9.452,0,0,1,1.875,5.431v2.46h5.747v-2.46a9.479,9.479,0,0,1,1.893-5.457l2.852-4.074a5.356,5.356,0,0,0,.972-2.478A5.078,5.078,0,0,0,27.3,24.653v-4.54a10.86,10.86,0,0,1,4.913-9.03,4.274,4.274,0,0,1-.176.649,6.081,6.081,0,0,0,1.15,6.526,5.873,5.873,0,0,0,4.169,1.855c3.961,0,7.183-4.511,7.183-10.057S41.315,0,37.354,0ZM10.339,17.242a4.477,4.477,0,0,1-3.156,1.435c-3.169,0-5.747-3.867-5.747-8.62s2.578-8.62,5.747-8.62a4.477,4.477,0,0,1,3.156,1.435,4.652,4.652,0,0,1,.825,4.992,6.383,6.383,0,0,0,0,4.387A4.655,4.655,0,0,1,10.339,17.242Zm1.93-7.861a4.429,4.429,0,0,1,.234-1c.055-.143.09-.289.135-.433a13.651,13.651,0,0,1,7.475,12.166v4.31h-1.24c-.067,0-.131.011-.2.014V20.114A12.3,12.3,0,0,0,12.269,9.38ZM28.517,27.071a3.625,3.625,0,0,1,.913,2.845,3.934,3.934,0,0,1-.721,1.807l-2.864,4.092a10.878,10.878,0,0,0-2.14,6.263V43.1H20.832V42.077A10.9,10.9,0,0,0,18.679,35.8l-2.934-4.191a3.684,3.684,0,0,1-.279-3.728,3.764,3.764,0,0,1,3.407-2.017H25.8A3.661,3.661,0,0,1,28.517,27.071ZM25.86,20.114v4.313l-.06,0H24.424v-4.31A13.649,13.649,0,0,1,31.9,7.948c.046.145.08.289.135.433a4.411,4.411,0,0,1,.234,1A12.3,12.3,0,0,0,25.86,20.114Zm11.493-1.437A4.477,4.477,0,0,1,34.2,17.242a4.652,4.652,0,0,1-.825-4.992,6.383,6.383,0,0,0,0-4.387A4.655,4.655,0,0,1,34.2,2.872a4.477,4.477,0,0,1,3.156-1.435c3.169,0,5.747,3.867,5.747,8.62S40.522,18.677,37.354,18.677Zm0,0"/><path class="c" d="M384,56v1.437c1.168,0,2.155,1.645,2.155,3.592S385.168,64.62,384,64.62v1.437c2.014,0,3.592-2.209,3.592-5.028S386.014,56,384,56Zm0,0" transform="translate(-349.52 -50.972)"/><path class="c" d="M72,61.028c0,2.819,1.577,5.028,3.592,5.028V64.62c-1.168,0-2.155-1.645-2.155-3.592s.987-3.592,2.155-3.592V56C73.577,56,72,58.209,72,61.028Zm0,0" transform="translate(-65.535 -50.972)"/><path class="c" d="M186.483,310.372a9.963,9.963,0,0,0-4.819-5.229l-.607-.3-.643,1.285.607.3a8.534,8.534,0,0,1,4.743,7.675H187.2a8.533,8.533,0,0,1,4.743-7.674l.607-.3-.643-1.285-.607.3A9.96,9.96,0,0,0,186.483,310.372Zm0,0" transform="translate(-164.214 -277.467)"/></g></g></svg>