<svg xmlns="http://www.w3.org/2000/svg" width="30.046" height="44.442" viewBox="0 0 30.046 44.442"><defs><style>.a{fill:#b1f1fe;}.b{fill:#52bbe9;}.c{fill:#2e53bf;}</style></defs><g transform="translate(4294.687 -13895.439)"><path class="a" d="M-4279.233,13922.629s5.687,3.409,6.22,12.428c-2.821,2.6-5.552,5.994-10.212,3.02-3.425-2.227-9.105-9.392-10.245-20.22-.63-8.468-.719-12.3,1.53-14.238.667,5.968.377,9.405,6.939,15.405C-4280.877,13921.584-4279.233,13922.629-4279.233,13922.629Z"/><path class="b" d="M-4267.024,13903.413s3.457,6.065.694,17.981-6.261,13.414-6.261,13.414-2.056-9.252-6.643-12.5c1.21-1.328,5.123-3.783,6.643-4.993s5.041-8.972,5.311-10.713A21.835,21.835,0,0,0-4267.024,13903.413Z"/><g transform="translate(-4390.687 13879.439)"><path class="c" d="M111.3,16h-.055l-.159,0h-.067A15.023,15.023,0,0,0,96,31.023c0,7.676,1.345,14.256,4,19.558a22.054,22.054,0,0,0,7.34,8.763,6.726,6.726,0,0,0,7.362.006,22.023,22.023,0,0,0,7.323-8.72c2.651-5.274,4-11.817,4.023-19.448A15.109,15.109,0,0,0,111.3,16Zm10.987,7.611v2.9a14.856,14.856,0,0,1-1.362,6.216,3.777,3.777,0,0,0-.827-.907,10.51,10.51,0,0,0-.229-10.984,13.727,13.727,0,0,1,2.417,2.774ZM111.023,42.043,106.26,38.8q-.356-.242-.694-.5a3.776,3.776,0,0,0,2.05-1.833,10.567,10.567,0,0,0,6.815,0,3.776,3.776,0,0,0,2.05,1.833q-.339.26-.694.5Zm-9.014-15.527a9.024,9.024,0,0,1,9.014-9.014h0l.2,0h.039c.115,0,.23.009.344.016.2.013,1,.109.9.1a9.013,9.013,0,0,1,6.248,13.526,3.754,3.754,0,0,0-4.726,3.628c0,.079,0,.157.008.235a9.05,9.05,0,0,1-6.025,0c0-.078.008-.156.008-.235a3.754,3.754,0,0,0-4.726-3.628,8.958,8.958,0,0,1-1.283-4.635Zm2.253,6.009a2.253,2.253,0,0,1,0,4.507c-.051,0-.1,0-.152-.006a14.839,14.839,0,0,1-2.074-2.6,2.255,2.255,0,0,1,2.227-1.9Zm13.673,4.5c-.051,0-.1.006-.152.006a2.253,2.253,0,1,1,2.227-2.606A14.84,14.84,0,0,1,117.936,37.026ZM101.483,21.442q.365-.363.752-.7a10.507,10.507,0,0,0-.292,11.079,3.777,3.777,0,0,0-.828.9,14.852,14.852,0,0,1-1.36-6.212V23.542a13.659,13.659,0,0,1,1.728-2.1Zm12.395,36.649a5.224,5.224,0,0,1-5.718-.005,20.543,20.543,0,0,1-6.819-8.178c-2.548-5.091-3.84-11.445-3.84-18.885a13.537,13.537,0,0,1,.752-4.465,16.347,16.347,0,0,0,7.161,13.488l5.114,3.477a14.846,14.846,0,0,1,6.5,11.832A16.661,16.661,0,0,1,113.878,58.091Zm6.8-8.137a25.373,25.373,0,0,1-2.285,3.734,16.342,16.342,0,0,0-6.075-10.71l4.311-2.932a16.346,16.346,0,0,0,7.159-13.389,13.678,13.678,0,0,1,.753,4.52C124.526,38.573,123.226,44.89,120.681,49.953Z"/><path class="c" d="M178.252,98.875a1.364,1.364,0,0,1,.971.4.751.751,0,0,0,1.062-1.062,2.876,2.876,0,0,0-4.067,0,.751.751,0,1,0,1.062,1.062A1.365,1.365,0,0,1,178.252,98.875Z" transform="translate(-72.487 -73.732)"/><path class="c" d="M289.28,99.277a1.373,1.373,0,0,1,1.942,0,.751.751,0,0,0,1.062-1.062,2.876,2.876,0,0,0-4.067,0,.751.751,0,1,0,1.062,1.062Z" transform="translate(-173.971 -73.732)"/><path class="c" d="M240.75,118.5a.749.749,0,0,0,.531-.22.311.311,0,0,1,.44,0,.751.751,0,0,0,1.062-1.062,1.813,1.813,0,0,0-2.565,0,.751.751,0,0,0,.531,1.282Z" transform="translate(-130.479 -91.232)"/><path class="c" d="M224.51,153.462a7.926,7.926,0,0,0,4.982,0,.751.751,0,1,0-.475-1.425,6.415,6.415,0,0,1-4.032,0,.751.751,0,1,0-.475,1.425Z" transform="translate(-115.978 -123.228)"/></g></g></svg>