<svg xmlns="http://www.w3.org/2000/svg" width="44.137" height="44.141" viewBox="0 0 44.137 44.141"><defs><style>.a{fill:#52bbe9;}.b{fill:#b1f1fe;}.c{fill:#2e53bf;}</style></defs><g transform="translate(4579.071 -13955.93)"><path class="a" d="M-4546.367,13960.44h1.9l.128,3.372,3.348.1-.089,2.934-3.126.139-.417,3.368-2.773.211-.128-3.483-3.65-.234v-2.5l3.778-.43v-3.47Z"/><path class="b" d="M-4555.5,13983.793s9.85-1.67,10.791,6.335-5.606,7.082-5.606,7.082.182,2.319-5.185,2.287-14.76,0-14.76,0-2.241-.948-2.568-2.287c-1.613-.468-4.028-.117-5.4-6.179-.161-3.761,1.166-5.521,6.084-6.776a54.839,54.839,0,0,1,5.946-.462s1.76,2.542,4.136,2.332a13.981,13.981,0,0,0,4.763-1.536l.607-.8Z"/><g transform="translate(-4579.076 13955.93)"><path class="c" d="M6.986,27.407a7.639,7.639,0,0,0-.77,15.115A2.937,2.937,0,0,0,8.83,44.141H26.486A2.937,2.937,0,0,0,29.1,42.522a7.639,7.639,0,0,0-.77-15.115,35.14,35.14,0,0,0-5.6-.29,26,26,0,0,1-.529-3.212,10.869,10.869,0,0,0,2.79-4.855,3.659,3.659,0,0,0,.756.078V22.07a.736.736,0,0,0,.736.736c.331,0,.019.155,5.385-3.678h8.593a3.683,3.683,0,0,0,3.678-3.678V3.678A3.683,3.683,0,0,0,40.464,0H25.75a3.662,3.662,0,0,0-2.541,1.03A16.994,16.994,0,0,0,17.658,0c-.255,0-6.28.037-8.681,3.237-1.545,2.064-1.1,7.4-.923,8.975a3.655,3.655,0,0,0-.7,2.452c0,3.225,1.958,4.12,2.949,4.367a10.77,10.77,0,0,0,2.8,4.887,25.6,25.6,0,0,1-.515,3.2,36.2,36.2,0,0,0-5.6.287ZM23.51,35.313a1.708,1.708,0,0,1,.544.567,25.609,25.609,0,0,0-4.1,4.839,42.416,42.416,0,0,1,2.618-11.977,5.965,5.965,0,0,1,2.885,2.538,5.9,5.9,0,0,0-2.616,3.068.713.713,0,0,0,.664.964Zm-5.1,7.357h-1.5a43.941,43.941,0,0,0-2.026-12.286,7.692,7.692,0,0,0,5.552,0A43.971,43.971,0,0,0,18.408,42.669ZM12.47,34.344a5.894,5.894,0,0,0-2.618-3.069,5.924,5.924,0,0,1,2.887-2.538,42.234,42.234,0,0,1,2.618,11.978,25.571,25.571,0,0,0-4.1-4.841,1.888,1.888,0,0,1,.512-.563.736.736,0,0,0,.7-.968ZM7.358,41.2V36.784a.736.736,0,0,0-1.471,0v4.149A6.17,6.17,0,0,1,7.112,28.872l3.06-.266a8.467,8.467,0,0,0-2.021,2.743.736.736,0,0,0,.446.984,4.09,4.09,0,0,1,2.194,1.888,4.664,4.664,0,0,0-1.148,1.5.736.736,0,0,0,.217.917,25.217,25.217,0,0,1,5.015,6.033H8.83A1.471,1.471,0,0,1,7.358,41.2Zm26.484-6.172a6.18,6.18,0,0,1-4.414,5.907V36.784a.736.736,0,0,0-1.471,0V41.2a1.471,1.471,0,0,1-1.471,1.471H20.441a25.217,25.217,0,0,1,5.015-6.033.736.736,0,0,0,.221-.917,4.658,4.658,0,0,0-1.152-1.5,4.062,4.062,0,0,1,2.2-1.886.736.736,0,0,0,.446-.984,8.475,8.475,0,0,0-2.018-2.74l3.055.264A6.15,6.15,0,0,1,33.843,35.026ZM25.75,1.471H40.464a2.207,2.207,0,0,1,2.207,2.207V15.449a2.207,2.207,0,0,1-2.207,2.207c-9.609,0-8.983-.059-9.256.137l-3.987,2.848V18.392a.736.736,0,0,0-.736-.736H25.75a2.207,2.207,0,0,1-2.207-2.207V3.678A2.207,2.207,0,0,1,25.75,1.471ZM10.154,4.12c1.958-2.611,7.449-2.648,7.5-2.648a16.025,16.025,0,0,1,4.693.809,3.65,3.65,0,0,0-.272,1.332,4.187,4.187,0,0,0-2.536-.124c-3.76.642-4.495-.8-6.628.266C11.217,4.6,10.3,7,10.3,8.828a12.634,12.634,0,0,1-.576,3.052,2.248,2.248,0,0,0-.232-.065c-.211-2.108-.386-6.3.661-7.7ZM8.83,14.662c0-1.193.265-1.421.263-1.421a.875.875,0,0,1,.488.187,26.23,26.23,0,0,0,.313,3.838,2.917,2.917,0,0,1-1.063-2.6Zm3.5,5.621a17.884,17.884,0,0,1-1.3-7.661,15,15,0,0,0,.736-3.795c0-1.379.723-3.218,1.8-3.756,1.506-.755,2.24.548,6.216-.132a2.537,2.537,0,0,1,2.281.344V15.449a3.673,3.673,0,0,0,1.567,3c-.853,3.046-2.77,5.825-5.979,5.825C15.371,24.277,13.581,22.935,12.334,20.283Zm8.506,4.63a25.063,25.063,0,0,0,.533,2.863c-1.268,2.207-6.158,2.222-7.425,0a25.4,25.4,0,0,0,.525-2.857A6.5,6.5,0,0,0,20.84,24.914Z" transform="translate(0)"/><path class="c" d="M38.471,13.092h2.207V15.3a1.471,1.471,0,0,0,1.471,1.471h1.471A1.471,1.471,0,0,0,45.092,15.3V13.092H47.3a1.471,1.471,0,0,0,1.471-1.471V10.15A1.471,1.471,0,0,0,47.3,8.678H45.092V6.471A1.471,1.471,0,0,0,43.621,5H42.15a1.471,1.471,0,0,0-1.471,1.471V8.678H38.471A1.471,1.471,0,0,0,37,10.15v1.471A1.471,1.471,0,0,0,38.471,13.092Zm0-2.943h2.207A1.471,1.471,0,0,0,42.15,8.678V6.471h1.471V8.678a1.471,1.471,0,0,0,1.471,1.471H47.3v1.471H45.092a1.471,1.471,0,0,0-1.471,1.471V15.3H42.15V13.092a1.471,1.471,0,0,0-1.471-1.471H38.471Z" transform="translate(-9.779 -1.322)"/></g></g></svg>