<svg xmlns="http://www.w3.org/2000/svg" width="44.135" height="38.421" viewBox="0 0 44.135 38.421"><defs><style>.a{fill:#f06292;}.b{fill:#36a4fc;}</style></defs><g transform="translate(-1.749 -9.808)"><path class="a" d="M27.362,32.623A12.806,12.806,0,1,0,13.137,45.35V49.2h-2.7v2.836h2.7v2.655h2.836V52.034h2.7V49.2h-2.7V45.349A12.824,12.824,0,0,0,27.362,32.623Zm-22.777,0a9.97,9.97,0,1,1,9.971,9.97,9.97,9.97,0,0,1-9.971-9.97Z" transform="translate(0 -6.46)"/><g transform="translate(16.722 9.808)"><path class="b" d="M76.451,9.808,78.64,12l-4.169,4.169a12.766,12.766,0,0,0-15.477-.384,12.9,12.9,0,0,1,2.153,1.963,9.97,9.97,0,1,1,0,16.835,12.917,12.917,0,0,1-2.153,1.963A12.8,12.8,0,0,0,76.477,18.171L80.646,14l2.19,2.19V9.808Z" transform="translate(-53.674 -9.808)"/><path class="b" d="M47.154,32.2a12.769,12.769,0,0,0,0,16.835,10.041,10.041,0,0,0,2.153-1.843,9.942,9.942,0,0,1,0-13.149A10.033,10.033,0,0,0,47.154,32.2Z" transform="translate(-43.987 -24.262)"/></g></g></svg>