<svg xmlns="http://www.w3.org/2000/svg" width="44.141" height="43.99" viewBox="0 0 44.141 43.99"><defs><style>.a{fill:#b1f1fe;}.b{fill:#2e53bf;}</style></defs><g transform="translate(4368.071 -13891.577)"><path class="a" d="M-4329.466,13914.017s3.206,9.436-6.923,14.852-18.126,0-18.126,0-3.245-5.007.967-6.33,12.289-1.848,15.352-3.52,7-6.147,7-6.147Z"/><g transform="translate(-4368.07 13890.917)"><g transform="translate(0 1.989)"><g transform="translate(0 0)"><path class="b" d="M26.5,21.194c-.011-.011-.023-.023-.034-.023-3.3-2.392-4.021-7.962-4.032-8.041a.912.912,0,1,0-1.811.216c.034.251.775,6.173,4.522,9.112a9.584,9.584,0,0,1-.706,1.492c-.125.228-.228.41-.3.558a.192.192,0,0,0-.023.057c-.182.513-.353,1.025-.524,1.526a19.568,19.568,0,0,1-2.21,5.023,19.566,19.566,0,0,1-4.169,4.465,16.588,16.588,0,0,1-2.756,1.435,21.3,21.3,0,0,0-2.734,1.39,13.256,13.256,0,0,0-1.367,1.014,5.344,5.344,0,0,1-2.7,1.469c-.171.011-.33.034-.49.046a7.214,7.214,0,0,0-3.269.854c-4.032,2.38-3.941,7.859-3.9,10.49a.911.911,0,0,0,.911.9H.934a.921.921,0,0,0,.9-.923v-.011c-.08-3.679.239-7.29,2.973-8.9a5.535,5.535,0,0,1,2.506-.6c.171-.011.342-.034.513-.046a6.965,6.965,0,0,0,3.668-1.857,11.619,11.619,0,0,1,1.2-.888,17.784,17.784,0,0,1,2.506-1.264,18.268,18.268,0,0,0,3.053-1.606,21.914,21.914,0,0,0,4.624-4.92,21.364,21.364,0,0,0,2.449-5.49c.159-.478.33-.968.5-1.458.046-.08.125-.239.216-.387C26.686,23.654,27.575,22.048,26.5,21.194Z" transform="translate(0 -12.326)"/></g></g><g transform="translate(4.704 0.66)"><g transform="translate(0 0)"><path class="b" d="M78.634,13.818a11.247,11.247,0,0,0-8.691-6.094H69.9a6.4,6.4,0,0,0-.649-.023,2.4,2.4,0,0,1-1.036-.148c-.011,0-.011-.011-.023-.011-.729-.41-3.6-3.7-3.759-6.037a.908.908,0,1,0-1.811.125c.194,3.03,3.406,6.777,4.67,7.506a3.758,3.758,0,0,0,1.936.4,3.692,3.692,0,0,1,.513.023,9.309,9.309,0,0,1,7.29,5.16,18.529,18.529,0,0,1,1.879,9.226c-.353,8.7-4.658,15.012-12.13,17.78-2.119.8-9.488,2.4-15.422-.672a.011.011,0,0,1-.011-.011,9.489,9.489,0,0,1-3.189-2.882l-.011-.023c-.854-1.15-2.016-2.734-4.305-1.834-2.54.957-2.54,4.636-2.54,6.2a.911.911,0,1,0,1.822,0c0-1.093,0-3.975,1.367-4.5H44.5c.9-.353,1.242-.068,2.187,1.207l.023.023.011.011a11.086,11.086,0,0,0,3.816,3.406,19.243,19.243,0,0,0,8.93,2c.467,0,.934-.011,1.412-.034A23.888,23.888,0,0,0,67.415,43.4a19.47,19.47,0,0,0,9.67-7.46,22.771,22.771,0,0,0,3.633-11.959A20.423,20.423,0,0,0,78.634,13.818Z" transform="translate(-41.298 -0.66)"/></g></g><g transform="translate(11.542 21.031)"><path class="b" d="M129.1,180.991a2.36,2.36,0,0,0-1.652-1.469h-.034c-.49-.046-1.435.08-2.244,1.5a14.358,14.358,0,0,1-6.982,5.33c-3.394,1.321-6.834,1.549-10.479,1.777a9.765,9.765,0,0,0-3.075.592,4.922,4.922,0,0,0-3.178,3.44,4.971,4.971,0,0,0,1.3,4.51,8.863,8.863,0,0,0,3.508,2.13,16.938,16.938,0,0,0,5.877,1.025,18.614,18.614,0,0,0,4.34-.524,19.852,19.852,0,0,0,8.918-4.977,14.668,14.668,0,0,0,3.975-6A9.543,9.543,0,0,0,129.1,180.991Zm-1.458,6.731a.04.04,0,0,1-.011.023,12.862,12.862,0,0,1-3.508,5.262,18.006,18.006,0,0,1-8.087,4.533,15.81,15.81,0,0,1-9.158-.444,7.258,7.258,0,0,1-2.791-1.663,2.959,2.959,0,0,1,1.2-5.012c.011,0,.011,0,.023-.011a8.027,8.027,0,0,1,2.517-.467c3.611-.228,7.358-.467,11-1.891a15.72,15.72,0,0,0,7.87-6.059.249.249,0,0,0,.034-.057,1.8,1.8,0,0,1,.444-.569,1.315,1.315,0,0,1,.239.376c0,.011.011.023.023.034A7.71,7.71,0,0,1,127.643,187.722Z" transform="translate(-101.336 -179.514)"/></g></g><path class="b" d="M568.522,600.144a1.622,1.622,0,1,1,1.622-1.622A1.624,1.624,0,0,1,568.522,600.144Zm0-2.021a.4.4,0,1,0,.4.4A.4.4,0,0,0,568.522,598.123Z" transform="translate(-4910.667 13325.463)"/><path class="b" d="M396.222,666.444a1.622,1.622,0,1,1,1.622-1.622A1.624,1.624,0,0,1,396.222,666.444Zm0-2.021a.4.4,0,1,0,.4.4A.4.4,0,0,0,396.222,664.423Z" transform="translate(-4747.579 13261.396)"/><path class="b" d="M529.134,712.117A1.117,1.117,0,1,1,528.017,711,1.117,1.117,0,0,1,529.134,712.117Z" transform="translate(-4872.9 13215.957)"/><path class="b" d="M303.234,584.017a1.117,1.117,0,1,1-1.117-1.117A1.117,1.117,0,0,1,303.234,584.017Z" transform="translate(-4635.17 13334.755)"/><path class="b" d="M685.234,652.017a1.117,1.117,0,1,1-1.117-1.117A1.117,1.117,0,0,1,685.234,652.017Z" transform="translate(-5021.404 13273.085)"/></g></svg>