<svg xmlns="http://www.w3.org/2000/svg" width="3.974" height="7.544" viewBox="0 0 3.974 7.544"><defs><style>.a{fill:silver;stroke:silver;stroke-width:0.3px;}</style></defs><g transform="translate(-14.352 0.153)"><g transform="translate(14.502 0)"><path class="a" d="M15049.037,1029.6a.045.045,0,1,1-.016-.088,1.083,1.083,0,0,1,.493.026,1.5,1.5,0,0,1,.69.429,1.721,1.721,0,0,1,.427.85,2.3,2.3,0,0,1-.046,1.024c.118.023.172.142.181.3a1.478,1.478,0,0,1-.036.375,2.035,2.035,0,0,1-.117.369c-.066.153-.149.262-.229.276a2.238,2.238,0,0,1-.1.408,1.311,1.311,0,0,1-.255.445,5.94,5.94,0,0,0,.031.679,4.431,4.431,0,0,0,.1.6l-.087.021a4.6,4.6,0,0,1-.105-.612c-.02-.189-.03-.39-.031-.605a.654.654,0,0,1-.088.057,1.337,1.337,0,0,1-.343.328,1.435,1.435,0,0,1-.467.2.028.028,0,0,1-.017,0l.025,1.558H15049l-.118-7.238h.055l.088,5.3.011,0a.7.7,0,0,0,.378-.12.579.579,0,0,0,.183-.475.044.044,0,1,1,.089,0,.813.813,0,0,1-.1.408l.021,0a.4.4,0,0,0,.327-.128,1.136,1.136,0,0,0,.268-.448,1.953,1.953,0,0,0,.1-.43.068.068,0,0,1,0-.014.045.045,0,0,1,.059-.023c.041.018.106-.081.168-.223a1.919,1.919,0,0,0,.111-.352,1.345,1.345,0,0,0,.035-.351c-.007-.126-.045-.217-.129-.223l-.137.148h0a.042.042,0,0,1-.037.014.044.044,0,0,1-.039-.049,1.518,1.518,0,0,0-1.231-1.827l-.08-.028a.044.044,0,0,1-.026-.057.044.044,0,0,1,.057-.027l.079.028a1.577,1.577,0,0,1,1.3,1.789l.053-.059a2.245,2.245,0,0,0,.057-1.025,1.654,1.654,0,0,0-.4-.807,1.416,1.416,0,0,0-.65-.4.992.992,0,0,0-.453-.024Zm-.011,5.03.006,0a1.378,1.378,0,0,0,.448-.188,1.269,1.269,0,0,0,.271-.242.411.411,0,0,1-.158.01.454.454,0,0,1-.068-.014.462.462,0,0,1-.061.057.775.775,0,0,1-.424.139.04.04,0,0,1-.018,0l0,.242Zm-.237-4.528a.045.045,0,0,1,.031.084l-.081.028a1.508,1.508,0,0,0-1.212,1.827.045.045,0,0,1-.077.035h0l-.136-.148c-.084.006-.121.1-.129.223a1.346,1.346,0,0,0,.035.351,1.848,1.848,0,0,0,.111.352c.062.142.127.24.168.223a.045.045,0,0,1,.059.023.031.031,0,0,1,0,.013,1.173,1.173,0,0,0,.418.659,2.641,2.641,0,0,0,.915.533.043.043,0,0,1,.029.056.044.044,0,0,1-.056.029,2.735,2.735,0,0,1-.937-.541c0,.236-.015.5-.038.753a5.346,5.346,0,0,1-.107.716l-.087-.021a5.143,5.143,0,0,0,.106-.7c.025-.279.039-.575.037-.829a1.212,1.212,0,0,1-.361-.6c-.081-.013-.163-.122-.23-.276a2.04,2.04,0,0,1-.117-.369,1.438,1.438,0,0,1-.037-.375c.01-.161.063-.28.182-.3a2.319,2.319,0,0,1-.047-1.024,1.738,1.738,0,0,1,.427-.85,1.5,1.5,0,0,1,.691-.429.93.93,0,0,1,.458-.026.044.044,0,0,1,.035.052.043.043,0,0,1-.052.035.844.844,0,0,0-.417.024,1.417,1.417,0,0,0-.65.4,1.646,1.646,0,0,0-.4.807,2.245,2.245,0,0,0,.057,1.025l.053.059a1.565,1.565,0,0,1,1.283-1.789l.078-.028Zm.389,2.459a.022.022,0,1,1,.025-.037l.01.007a.953.953,0,0,1,.5.849.022.022,0,0,1-.045,0,.912.912,0,0,0-.482-.811l-.01-.007Zm-.116-1.37a.028.028,0,0,1-.036-.016.028.028,0,0,1,.016-.036.69.69,0,0,1,.109-.033.665.665,0,0,1,.1-.011.028.028,0,0,1,.028.027.027.027,0,0,1-.026.029.576.576,0,0,0-.192.041Zm.38-.029a.028.028,0,0,1-.025-.03.028.028,0,0,1,.031-.025.465.465,0,0,0,.115,0,.222.222,0,0,0,.1-.045.028.028,0,0,1,.039,0,.029.029,0,0,1,0,.039.268.268,0,0,1-.126.056.507.507,0,0,1-.13,0Zm-.387-.18a.028.028,0,0,1-.021-.052.717.717,0,0,1,.367-.036.321.321,0,0,0,.255-.042.028.028,0,1,1,.034.044.364.364,0,0,1-.294.054.671.671,0,0,0-.342.033Zm-.009-.219a.028.028,0,1,1-.021-.052.717.717,0,0,1,.367-.036.323.323,0,0,0,.255-.042.028.028,0,0,1,.039,0,.029.029,0,0,1,0,.039.366.366,0,0,1-.295.054.668.668,0,0,0-.341.033Zm1,1.268a.028.028,0,0,1-.033-.02.028.028,0,0,1,.02-.034l.055-.017a.208.208,0,0,1,.2,0,.029.029,0,0,1,.008.038.028.028,0,0,1-.039.008.165.165,0,0,0-.154.005.568.568,0,0,1-.059.019Zm-.008-.095a.027.027,0,0,1-.033-.02.028.028,0,0,1,.02-.034c.018,0,.036-.011.054-.017a.208.208,0,0,1,.2,0,.028.028,0,1,1-.03.047.165.165,0,0,0-.154.005c-.02.007-.038.014-.059.019Z" transform="translate(-15047.095 -1029)"/></g></g></svg>