<svg xmlns="http://www.w3.org/2000/svg" width="5.448" height="7.432" viewBox="0 0 5.448 7.432"><defs><style>.a{fill:silver;stroke:silver;stroke-width:0.2px;}</style></defs><g transform="translate(-4.132 -0.958)"><g transform="translate(4.232 1.058)"><path class="a" d="M6.856,272.658a2.627,2.627,0,0,0-2.624,2.624,5.741,5.741,0,0,0,1.261,3.047,13.177,13.177,0,0,0,1.248,1.5.164.164,0,0,0,.232,0,13.171,13.171,0,0,0,1.248-1.5,5.74,5.74,0,0,0,1.26-3.047A2.627,2.627,0,0,0,6.856,272.658Zm0,.328a2.293,2.293,0,0,1,2.3,2.3,5.569,5.569,0,0,1-1.2,2.856,10.55,10.55,0,0,1-1.1,1.317,10.575,10.575,0,0,1-1.1-1.317,5.57,5.57,0,0,1-1.2-2.856A2.293,2.293,0,0,1,6.856,272.986Z" transform="translate(-4.232 -272.658)"/></g></g></svg>