<svg xmlns="http://www.w3.org/2000/svg" width="19.1" height="19.1" viewBox="0 0 19.1 19.1"><defs><style>.a{fill:#d2d6dc;}.b{fill:#64758b;stroke:#64758b;stroke-width:0.3px;}.c,.e{fill:#64758b;}.c{stroke:#64758b;stroke-width:0.1px;}</style></defs><g transform="translate(-17.95 -128.95)"><path class="a" d="M0,0H17V11.064L14.377,9.21l-2.3.14L9.83,11.463,10.717,16H0Z" transform="translate(19 131)"/><circle class="b" cx="0.5" cy="0.5" r="0.5" transform="translate(31.5 136.5)"/><path class="c" d="M16.031,1.484h-.965V.742a.742.742,0,0,0-1.484,0v.742H10.205V.742a.742.742,0,0,0-1.484,0v.742H5.381V.742A.742.742,0,0,0,3.9.742v.742H2.969A2.972,2.972,0,0,0,0,4.453V16.031A2.972,2.972,0,0,0,2.969,19H8.646a.742.742,0,0,0,0-1.484H2.969a1.486,1.486,0,0,1-1.484-1.484V4.453A1.486,1.486,0,0,1,2.969,2.969H3.9v.742a.742.742,0,0,0,1.484,0V2.969h3.34v.742a.742.742,0,0,0,1.484,0V2.969h3.377v.742a.742.742,0,0,0,1.484,0V2.969h.965a1.486,1.486,0,0,1,1.484,1.484v4.23a.742.742,0,0,0,1.484,0V4.453A2.972,2.972,0,0,0,16.031,1.484Z" transform="translate(18 129)"/><path class="c" d="M274.49,270a4.49,4.49,0,1,0,4.49,4.49A4.5,4.5,0,0,0,274.49,270Zm0,7.5a3.006,3.006,0,1,1,3.006-3.006A3.009,3.009,0,0,1,274.49,277.5Z" transform="translate(-241.98 -130.98)"/><path class="e" d="M372.818,331.521h-.334v-.779a.742.742,0,0,0-1.484,0v1.521a.742.742,0,0,0,.742.742h1.076a.742.742,0,0,0,0-1.484Z" transform="translate(-339.232 -188.754)"/><circle class="b" cx="0.5" cy="0.5" r="0.5" transform="translate(28.5 136.5)"/><circle class="b" cx="0.5" cy="0.5" r="0.5" transform="translate(25.5 139.5)"/><circle class="b" cx="0.5" cy="0.5" r="0.5" transform="translate(22.5 136.5)"/><circle class="b" cx="0.5" cy="0.5" r="0.5" transform="translate(22.5 139.5)"/><circle class="b" cx="0.5" cy="0.5" r="0.5" transform="translate(22.5 142.5)"/><circle class="b" cx="0.5" cy="0.5" r="0.5" transform="translate(25.5 142.5)"/><circle class="b" cx="0.5" cy="0.5" r="0.5" transform="translate(25.5 136.5)"/></g></svg>