<svg xmlns="http://www.w3.org/2000/svg" width="18.714" height="20.504" viewBox="0 0 18.714 20.504"><defs><style>.a{fill:#fff;stroke:#fff;stroke-width:0.5px;}</style></defs><g transform="translate(3.702 -0.477) rotate(16)"><path class="a" d="M18.23,19.5a8.279,8.279,0,0,0-3.178-4.024L15,15.445a.317.317,0,1,0-.333.538l.051.026a7.809,7.809,0,0,1,2.922,3.742,12.169,12.169,0,0,1,1.1,3.922,3.637,3.637,0,0,1-.231,1.948,2.958,2.958,0,0,1-1.9,1.2c-.128.026-.282.051-.41.077a11.782,11.782,0,0,1-6.588-1.128,8.652,8.652,0,0,1-4.281-3.409,4.614,4.614,0,0,1-.564-2.615,5.006,5.006,0,0,1,.256-1.23c.077-.282.154-.564.205-.846V17.6c0-.077.1-1.41.128-1.743a.3.3,0,0,0-.282-.333.308.308,0,0,0-.359.282c-.051.564-.128,1.641-.128,1.692v.051c-.051.256-.1.513-.179.795a6.83,6.83,0,0,0-.256,1.333,5.243,5.243,0,0,0,.666,2.973,9.172,9.172,0,0,0,4.563,3.666,13.53,13.53,0,0,0,5.46,1.307,9.431,9.431,0,0,0,1.487-.128,2.981,2.981,0,0,0,.461-.1A3.625,3.625,0,0,0,19.1,25.878a4.2,4.2,0,0,0,.333-2.333A14.754,14.754,0,0,0,18.23,19.5Z" transform="translate(-2.87 -10.873)"/><path class="a" d="M35.857,16.022a.313.313,0,0,0-.359.513,5.05,5.05,0,0,1,.846.769.315.315,0,0,0,.256.128.291.291,0,0,0,.205-.077.349.349,0,0,0,.051-.461A8.7,8.7,0,0,0,35.857,16.022Z" transform="translate(-26.084 -11.295)"/><path class="a" d="M.545,2.06a7.707,7.707,0,0,1,2.743.795,3.351,3.351,0,0,1,1.077,1,2.64,2.64,0,0,0-.9,1.179,5.2,5.2,0,0,0,.666,4.383.294.294,0,0,0,.282.154A.475.475,0,0,0,4.6,9.519a.3.3,0,0,0,.1-.436,4.692,4.692,0,0,1-.615-3.819,1.8,1.8,0,0,1,.846-.974c.026,0,.077-.026.1-.026l.026-.026a3.4,3.4,0,0,1,2.076-.051.294.294,0,0,0,.384-.231.294.294,0,0,0-.231-.384,5.31,5.31,0,0,0-1.051-.179A3.3,3.3,0,0,0,5.159.856a.327.327,0,0,0-.436.487,2.639,2.639,0,0,1,.846,2.076,2.6,2.6,0,0,0-.641.154A4.437,4.437,0,0,0,3.6,2.317a7.845,7.845,0,0,0-2.948-.9A.319.319,0,0,0,.289,1.7.3.3,0,0,0,.545,2.06Z"/><path class="a" d="M32.222,6.517a.336.336,0,0,0-.384-.231A5.712,5.712,0,0,0,28.3,8.567a3.82,3.82,0,0,0,.077,3.384c.1.308.205.615.308.9a1.705,1.705,0,0,1-.077,1.256.923.923,0,0,1-.615.436.312.312,0,0,0,.077.615h.077a1.536,1.536,0,0,0,1-.718,2.217,2.217,0,0,0,.154-1.743l-.077-.231a5.743,5.743,0,0,0,1.384.82,1.482,1.482,0,0,0,.359.128A3.146,3.146,0,0,1,32.3,15.8a.318.318,0,0,0,.308.333h0a.3.3,0,0,0,.308-.308,3.058,3.058,0,0,0-.743-2.025c.461.1.923.205,1.384.282h.051a.3.3,0,0,0,.308-.256.34.34,0,0,0-.256-.384,13.741,13.741,0,0,1-2.845-.769,4.337,4.337,0,0,1-2.128-1.743,2.4,2.4,0,0,1,.128-2.051,5.188,5.188,0,0,1,3.178-2A.263.263,0,0,0,32.222,6.517Z" transform="translate(-20.424 -4.098)"/></g></svg>