<svg xmlns="http://www.w3.org/2000/svg" width="18.922" height="12.041" viewBox="0 0 18.922 12.041"><defs><style>.a{fill:#fff;}</style></defs><g transform="translate(-2 50)"><path class="a" d="M3.29-50A1.3,1.3,0,0,0,2-48.71v2.58a.43.43,0,0,0,.43.43,1.714,1.714,0,0,1,1.72,1.72,1.714,1.714,0,0,1-1.72,1.72.43.43,0,0,0-.43.43v2.58a1.3,1.3,0,0,0,1.29,1.29H6.3v-3.01a.43.43,0,0,1,.43-.43.43.43,0,0,1,.43.43v3.01H19.631a1.3,1.3,0,0,0,1.29-1.29v-2.58a.43.43,0,0,0-.43-.43,1.714,1.714,0,0,1-1.72-1.72,1.714,1.714,0,0,1,1.72-1.72.43.43,0,0,0,.43-.43v-2.58A1.3,1.3,0,0,0,19.631-50H7.16v3.01a.43.43,0,0,1-.43.43.43.43,0,0,1-.43-.43V-50Zm11.158,2.626a.43.43,0,0,1,.192.577l-3.01,6.021a.43.43,0,0,1-.577.192.43.43,0,0,1-.192-.577l3.01-6.021A.419.419,0,0,1,14.448-47.374Zm-3.848.6a1.3,1.3,0,0,1,1.29,1.29,1.3,1.3,0,0,1-1.29,1.29,1.3,1.3,0,0,1-1.29-1.29A1.3,1.3,0,0,1,10.6-46.775Zm0,.86a.424.424,0,0,0-.43.43.424.424,0,0,0,.43.43.424.424,0,0,0,.43-.43A.424.424,0,0,0,10.6-45.915ZM6.73-45.7a.43.43,0,0,1,.43.43v2.58a.43.43,0,0,1-.43.43.43.43,0,0,1-.43-.43v-2.58A.43.43,0,0,1,6.73-45.7ZM14.9-43.764a1.3,1.3,0,0,1,1.29,1.29,1.3,1.3,0,0,1-1.29,1.29,1.3,1.3,0,0,1-1.29-1.29A1.3,1.3,0,0,1,14.9-43.764Zm0,.86a.424.424,0,0,0-.43.43.424.424,0,0,0,.43.43.424.424,0,0,0,.43-.43A.424.424,0,0,0,14.9-42.9Z"/></g></svg>