<svg xmlns="http://www.w3.org/2000/svg" width="16.714" height="18.733" viewBox="0 0 16.714 18.733"><defs><style>.a{fill:#fff;stroke:#fff;stroke-width:0.4px;}</style></defs><path class="a" d="M23.008,9.33a7.128,7.128,0,0,0-7.119,7.119v.431l-2.031,3.792a.338.338,0,0,0,.3.5h1.733v2.577a2.1,2.1,0,0,0,2.1,2.1h2.975v1.479a.338.338,0,0,0,.676,0V25.507a.338.338,0,0,0-.338-.338H17.986a1.423,1.423,0,0,1-1.422-1.422v-.11a5.537,5.537,0,0,0,4.178.243,2.352,2.352,0,0,1,1.881.18,1.852,1.852,0,0,1,.578,1.554v1.711a.338.338,0,0,0,.676,0V25.614a2.476,2.476,0,0,0-.844-2.091,2.952,2.952,0,0,0-2.469-.3c-2.137.581-3.473.05-4-.411v-.331a5.489,5.489,0,0,0,4.955-.316,2.535,2.535,0,0,1,2.4-.242,2.311,2.311,0,0,1,.82,2.1v3.293a.338.338,0,0,0,.676,0V24.03a2.841,2.841,0,0,0-1.149-2.683,3.177,3.177,0,0,0-3.069.225c-1.286.687-3.246,1.111-4.637.124v-.863a.338.338,0,0,0-.338-.338H14.72l1.8-3.369a.337.337,0,0,0,.04-.16v-.516a6.443,6.443,0,0,1,12.887,0,6.381,6.381,0,0,1-1.881,4.543.337.337,0,0,0-.146.278v6.054a.338.338,0,0,0,.676,0V21.417a7.051,7.051,0,0,0,2.026-4.968A7.127,7.127,0,0,0,23.008,9.33Zm-5.291,7.955a.79.79,0,1,0,.79-.79A.79.79,0,0,0,17.717,17.285Z" transform="translate(-13.612 -9.13)"/></svg>