<svg xmlns="http://www.w3.org/2000/svg" width="15.28" height="16.019" viewBox="0 0 15.28 16.019"><defs><style>.a{fill:#fff;}</style></defs><g transform="translate(-81.117 -72.863)"><path class="a" d="M95.219,115.7h-.643a1.433,1.433,0,0,1-2.855,0H85.793a1.433,1.433,0,0,1-2.855,0H82.3a1.18,1.18,0,0,0-1.178,1.178v2.531H96.4v-2.53A1.179,1.179,0,0,0,95.219,115.7Z" transform="translate(0 -40.963)"/><path class="a" d="M338.159,75.433a.822.822,0,0,0,.821-.821v-.921a.821.821,0,1,0-1.642-.012v.933A.822.822,0,0,0,338.159,75.433Z" transform="translate(-245.011 -0.001)"/><path class="a" d="M137.435,75.432a.822.822,0,0,0,.821-.821V73.69a.821.821,0,0,0-1.642-.012v.933A.822.822,0,0,0,137.435,75.432Z" transform="translate(-53.069 0)"/><path class="a" d="M212.418,292.184l-.2,1.149,1.061-.547a.306.306,0,0,1,.281,0l1.061.547-.2-1.149a.306.306,0,0,1,.09-.274l.846-.808-1.175-.167a.306.306,0,0,1-.23-.165l-.531-1.055-.531,1.055a.306.306,0,0,1-.23.165l-1.175.167.846.808A.306.306,0,0,1,212.418,292.184Z" transform="translate(-124.661 -207.363)"/><path class="a" d="M81.121,223.116a1.18,1.18,0,0,0,1.178,1.178H95.223a1.18,1.18,0,0,0,1.178-1.178v-8.645H81.121Zm4.745-4.273a.306.306,0,0,1,.248-.21l1.641-.234.733-1.456a.306.306,0,0,1,.547,0l.733,1.455,1.641.234a.306.306,0,0,1,.168.525l-1.184,1.131.279,1.6a.306.306,0,0,1-.442.325l-1.469-.757-1.469.757a.306.306,0,0,1-.442-.325l.279-1.6-1.184-1.131A.306.306,0,0,1,85.866,218.843Z" transform="translate(-0.004 -135.412)"/></g></svg>