<svg xmlns="http://www.w3.org/2000/svg" width="20.797" height="16.089" viewBox="0 0 20.797 16.089"><defs><style>.a{fill:#fff;}</style></defs><g transform="translate(10.95 0)"><path class="a" d="M538.633,177.669c-.057.021-.113.047-.17.071-.095.04.17-.069.078-.033-.054.021-.106.04-.161.057a2.082,2.082,0,0,1-.21.047c.232-.045.083-.012.014-.007a.981.981,0,0,1-.144,0,.266.266,0,0,1-.076-.007c-.019-.009.161.028.1.014a.135.135,0,0,1-.033-.007,1.414,1.414,0,0,1-.165-.043l-.085-.031c-.057-.019.095.033.08.033a.18.18,0,0,1-.038-.017,1.6,1.6,0,0,1-.177-.1c-.026-.017-.052-.033-.078-.052-.111-.078.08.069,0,0s-.128-.111-.187-.17-.116-.13-.175-.2c-.045-.05.026.035.026.035a.232.232,0,0,1-.04-.054c-.026-.038-.054-.073-.078-.111a3.2,3.2,0,0,1-.168-.307c-.031-.064.052.132.028.066l-.014-.038-.028-.076a1.636,1.636,0,0,1-.054-.182c-.014-.057-.028-.116-.04-.172-.007-.031-.012-.064-.016-.094-.017-.09.016.156,0,.033s-.019-.25-.019-.378.016-.258.026-.385c0-.064-.009.1-.012.085a.265.265,0,0,1,.007-.043c0-.033.012-.066.016-.1.012-.066.026-.135.043-.2q.046-.188.106-.369c.021-.061.042-.12.066-.182,0-.014.012-.028.017-.043.033-.087-.024.057-.026.059.017-.031.028-.064.043-.094a4.328,4.328,0,0,1,.4-.695c.016-.024.035-.047.052-.071.035-.05-.054.069-.047.061s.024-.031.038-.047q.064-.082.135-.156a3.544,3.544,0,0,1,.267-.267c.047-.043.094-.08.142-.12s-.073.054-.064.047.031-.024.045-.033l.08-.057a2.826,2.826,0,0,1,.326-.194l.076-.035a.319.319,0,0,1,.05-.024c.012,0-.135.054-.078.033.04-.017.083-.033.123-.047.08-.031.163-.059.243-.087q.262-.085.532-.149c.1-.021.194-.043.293-.059.047-.009.1-.017.144-.024.113-.017-.142.017-.054.007l.08-.009a4.728,4.728,0,0,1,.633-.028c.1,0,.208.009.312.019l.085.009c.094.009-.154-.024-.061-.007l.17.028a3.924,3.924,0,0,1,.65.189c.087.033-.132-.059-.047-.019.028.012.054.024.083.038.054.026.111.054.163.083a3.179,3.179,0,0,1,.31.189c.045.031.09.066.135.1-.17-.118.012.012.057.05a3.99,3.99,0,0,1,.288.276c.045.05.09.1.132.151.021.024.04.05.061.073s.026.035.04.05c-.012-.014-.08-.106-.033-.043.09.123.175.248.255.38s.163.286.236.432c.033.071.066.139.1.21.043.094-.01-.021-.014-.033l.021.054.05.125a6.083,6.083,0,0,1,.274.973c.014.078.028.156.04.234l.007.054s-.017-.135-.009-.066c0,.047.012.1.016.144.017.161.026.324.031.484a6.9,6.9,0,0,1-.038.938l-.014.123-.007.052c-.007.066.012-.078.009-.071-.014.08-.024.161-.038.241-.026.154-.057.3-.092.456-.069.3-.151.588-.248.874-.045.135-.092.267-.144.4-.026.064-.05.13-.078.194-.007.019-.017.038-.024.059s.054-.128.028-.068c-.014.033-.028.066-.043.1q-.163.372-.354.73a8.738,8.738,0,0,1-.723,1.146.351.351,0,0,0-.045.059c.012-.024.1-.128.043-.054l-.085.106c-.05.061-.1.12-.156.18a4.938,4.938,0,0,1-.421.38c.137-.121.047-.035.01-.009l-.076.054c-.059.043-.121.083-.182.123-.12.078-.246.149-.373.215-.061.033-.125.061-.189.092-.021.009-.128.054-.033.017s-.038.014-.064.024a3.406,3.406,0,0,1-.409.128c-.066.017-.132.028-.2.04a.16.16,0,0,1-.045.007c-.012,0,.147-.017.08-.012-.035,0-.071.007-.106.012a2.875,2.875,0,0,1-.4,0c-.073,0,.142.024.069.009l-.045-.007c-.028,0-.059-.012-.087-.019a1.913,1.913,0,0,1-.2-.059l-.043-.017c-.068-.024.123.059.059.024-.026-.014-.054-.026-.08-.04-.064-.033-.123-.073-.184-.113a.223.223,0,0,0-.038-.028s.1.085.057.043l-.085-.076c-.059-.057-.113-.116-.168-.177-.073-.083.054.083-.007-.009l-.078-.116c-.05-.078-.087-.161-.13-.243-.031-.057.021.052.021.052a.513.513,0,0,0-.021-.054c-.017-.043-.031-.085-.045-.128a2.115,2.115,0,0,1-.062-.241c-.009-.043-.012-.087-.024-.13,0,0,.014.13.009.064,0-.019,0-.038,0-.057-.007-.1-.01-.2-.007-.3,0-.05,0-.1.01-.149a.279.279,0,0,0,.007-.064s-.021.118,0,.052c.021-.094.038-.191.066-.283.014-.045.028-.092.045-.137l.021-.057c.021-.061-.019.045-.021.047a1.707,1.707,0,0,0,.109-.208c.019-.031.04-.059.059-.09.057-.085-.08.094,0,0a1.432,1.432,0,0,1,.158-.158c.019-.017.1-.085.021-.021s.016-.009.035-.021a1.823,1.823,0,0,1,.163-.1.858.858,0,0,0,.132-.064s-.154.061-.078.033c.009,0,.019-.007.031-.012l.057-.021c.064-.024.128-.043.194-.064a.592.592,0,0,0-.158-1.16,3.86,3.86,0,0,0-.858.052,3.794,3.794,0,0,0-1.564.572,3.374,3.374,0,0,0-1.37,1.9,5.674,5.674,0,0,0-.177,1.583q0,.861-.012,1.725c-.009.621-.05,1.25-.014,1.871a.591.591,0,0,0,1.181,0c-.028-.5,0-1.009.009-1.51s.014-.978.016-1.467c0-.31,0-.619,0-.929,0-.118.007-.239.019-.357a1.558,1.558,0,0,1,.019-.182s-.024.163-.009.069c.007-.038.012-.076.019-.116a3.541,3.541,0,0,1,.154-.584l.05-.128c-.078.2-.024.057,0,.009.04-.083.083-.165.13-.243s.087-.135.132-.2c.076-.109-.1.118-.014.019.031-.038.061-.076.094-.111a3.442,3.442,0,0,1,.319-.3c-.189.156.009,0,.066-.04s.125-.078.191-.116.118-.061.177-.09l.08-.035c.08-.035-.158.064-.076.033.017-.007.033-.012.047-.019a3.716,3.716,0,0,1,.692-.191l.1-.017c.125-.019-.168.021-.064.007.054-.007.109-.012.163-.017.087-.007.173-.012.26-.014a2,2,0,0,1,.239,0c-.052-.387-.1-.773-.156-1.16a3.984,3.984,0,0,0-.626.253,2.282,2.282,0,0,0-.813.747,3.011,3.011,0,0,0-.269,2.521A2.557,2.557,0,0,0,539,184.534a3.062,3.062,0,0,0,1.961-.182,5.143,5.143,0,0,0,1.625-1.047,6.2,6.2,0,0,0,.777-.978,10.286,10.286,0,0,0,1.432-3.253,7.357,7.357,0,0,0-.149-4.29,5.787,5.787,0,0,0-1.146-1.928,4.12,4.12,0,0,0-1.5-1.018,4.89,4.89,0,0,0-2.932-.13,5.172,5.172,0,0,0-1.285.468,4.085,4.085,0,0,0-1.363,1.288,4.242,4.242,0,0,0-.662,3.52,2.555,2.555,0,0,0,2.913,1.925,1.8,1.8,0,0,0,.17-.059c.064-.026.125-.052.189-.08.083-.035-.18.073-.09.038a.632.632,0,0,0,.352-.272.6.6,0,0,0,.059-.456.586.586,0,0,0-.718-.411Z" transform="translate(-535.193 -171.546)"/></g><g transform="translate(0 0.001)"><path class="a" d="M77.814,178.864c.087.033-.165-.069-.095-.04s.132.057.2.083.113.043.172.059a1.92,1.92,0,0,0,.666.071,2.124,2.124,0,0,0,.945-.3,3.269,3.269,0,0,0,.914-.9,3.705,3.705,0,0,0,.118-3.579,4.423,4.423,0,0,0-1.037-1.481,3.979,3.979,0,0,0-1.458-.843,5.51,5.51,0,0,0-2.814-.229,4.274,4.274,0,0,0-2.816,2.089,6.757,6.757,0,0,0-.839,4.274,10.2,10.2,0,0,0,1.24,3.7,8.991,8.991,0,0,0,.848,1.255,4.635,4.635,0,0,0,1.04.928,4.344,4.344,0,0,0,1.9.723,2.4,2.4,0,0,0,1.944-.643c1.193-1.158,1.148-3.532-.418-4.357a4.163,4.163,0,0,0-.614-.246l-.156,1.16a3.522,3.522,0,0,1,.688.028c-.272-.031-.064-.009,0,0s.111.021.168.033c.12.026.239.059.357.1q.089.028.177.064c.052.019.165.076-.045-.019l.1.043a2.821,2.821,0,0,1,.369.206c.026.017.052.035.078.054.047.033.161.137-.012-.012.057.05.116.095.17.146s.1.1.149.151c.028.031.054.061.08.094l.026.033c.059.071-.1-.142-.028-.035a3,3,0,0,1,.262.444c.024.047.076.191,0-.009.014.038.031.076.045.116a3.106,3.106,0,0,1,.092.3c.026.1.047.2.066.3.009.047.014.1.024.144-.04-.22,0,.028.007.085.024.274.019.548.019.822,0,.541,0,1.084.014,1.625.009.6.05,1.21.014,1.812a.592.592,0,0,0,.591.591.6.6,0,0,0,.591-.591c.031-.52,0-1.044-.009-1.564s-.014-1.023-.017-1.536a9.066,9.066,0,0,0-.109-1.788,3.376,3.376,0,0,0-1.167-1.987,3.742,3.742,0,0,0-1.685-.751,4.023,4.023,0,0,0-1.011-.076.592.592,0,0,0-.158,1.16c.064.021.13.04.194.064l.057.021c.014,0,.026.012.04.017a.6.6,0,0,0-.09-.038,1.062,1.062,0,0,0,.156.076,1.607,1.607,0,0,1,.151.092c.021.014.1.078.024.014s.014.014.033.031a1.737,1.737,0,0,1,.146.149c.09.1-.054-.083,0,0,.024.035.047.069.069.106a1.217,1.217,0,0,0,.1.191s-.043-.109-.021-.047c.009.026.019.052.028.076.017.045.031.092.043.137.024.087.04.177.059.265.014.069-.007-.054,0-.052a.519.519,0,0,1,.009.085c0,.05.007.1.009.149a2.659,2.659,0,0,1-.007.274.456.456,0,0,0,0,.057c0,.064.009-.064.009-.064a.614.614,0,0,0-.026.149,2.273,2.273,0,0,1-.064.241c-.012.038-.024.073-.038.109a.371.371,0,0,0-.021.054c.017-.057.043-.095,0-.017a2.087,2.087,0,0,1-.125.224c-.021.033-.045.066-.066.1-.009.012-.052.069,0,0s-.007.007-.017.019a1.643,1.643,0,0,1-.154.161l-.085.076c-.045.043.061-.045.057-.043s-.033.026-.052.038a1.556,1.556,0,0,1-.17.1c-.031.017-.066.028-.094.047-.007,0,.13-.05.073-.031l-.057.021a1.809,1.809,0,0,1-.184.054l-.087.019a.257.257,0,0,1-.059.009c.009,0,.151-.017.069-.009a2.56,2.56,0,0,1-.4,0l-.092-.009c-.066,0,.092.009.08.012a.555.555,0,0,1-.061-.009c-.071-.012-.142-.028-.213-.045a3.292,3.292,0,0,1-.392-.125c-.026-.009-.144-.059-.047-.019s-.012,0-.033-.017c-.069-.031-.135-.064-.2-.1-.128-.066-.253-.139-.373-.217-.057-.038-.113-.076-.168-.113l-.076-.054c-.012-.009-.024-.019-.038-.028-.09-.066.085.071.035.028a4.171,4.171,0,0,1-.413-.378c-.054-.059-.106-.118-.158-.18l-.08-.1c-.069-.087.061.083.035.047l-.045-.059c-.128-.17-.248-.347-.361-.527a9.774,9.774,0,0,1-.716-1.356c-.012-.028-.024-.057-.038-.087-.028-.069.05.123.024.054-.007-.014-.012-.028-.019-.045-.028-.069-.057-.139-.083-.208-.052-.137-.1-.276-.149-.416-.094-.284-.175-.569-.241-.86-.035-.151-.064-.3-.09-.456-.012-.073-.021-.149-.035-.224,0-.007.017.137.009.071l-.007-.052c0-.047-.012-.092-.017-.139a7.184,7.184,0,0,1-.035-.957c0-.156.017-.312.033-.468,0-.043.009-.085.014-.125.007-.066-.009.071-.009.066l.007-.054c.012-.085.028-.168.043-.253a5.854,5.854,0,0,1,.276-.973l.043-.106a.519.519,0,0,0,.021-.054c-.05.137-.028.066-.014.033.038-.083.076-.165.113-.246.071-.142.146-.279.227-.413s.165-.253.255-.378c.038-.052-.047.061-.043.054l.04-.05c.019-.024.04-.05.061-.073.047-.054.094-.109.144-.161a3.98,3.98,0,0,1,.288-.276.737.737,0,0,1,.066-.054l.033-.026c.071-.057-.052.04-.052.04a.839.839,0,0,1,.158-.113,2.96,2.96,0,0,1,.3-.18c.05-.026.1-.052.151-.076.028-.012.054-.026.083-.038.08-.035-.144.057-.035.014a3.644,3.644,0,0,1,.65-.187c.052-.009.1-.019.158-.026.094-.014-.154.019-.061.007l.1-.009c.109-.009.215-.017.324-.019a4.953,4.953,0,0,1,.621.028l.08.009c.04,0-.17-.024-.066-.009.052.007.1.017.156.026.1.017.194.038.291.059.182.043.361.092.539.151.078.026.156.054.234.083.038.014.076.031.116.045.057.021-.09-.033-.078-.033a.235.235,0,0,1,.05.024l.087.043a2.54,2.54,0,0,1,.326.2c.024.017.047.033.069.05a.552.552,0,0,0,.045.033c.009.007-.109-.09-.064-.047s.1.085.154.13a3.848,3.848,0,0,1,.276.279q.06.067.113.135c.012.014.024.031.038.047s-.083-.111-.047-.061c.019.028.04.054.061.083a4.147,4.147,0,0,1,.4.695c.012.026.024.054.035.083-.083-.168-.026-.061-.009-.017.026.064.05.13.071.2a3.541,3.541,0,0,1,.109.383c.014.061.026.123.038.187l.014.085c.021.123-.014-.12,0-.028.014.128.024.255.026.385s-.007.253-.019.378c-.009.1.026-.163,0-.033l-.014.08c-.012.064-.026.125-.043.187s-.033.113-.052.168c-.009.026-.019.052-.028.076a.241.241,0,0,1-.019.05s.061-.139.028-.066a2.806,2.806,0,0,1-.177.319l-.064.09a.231.231,0,0,1-.04.054c.009,0,.085-.1.012-.019-.057.066-.113.13-.175.191s-.113.106-.172.158c-.078.066.1-.076,0,0-.031.021-.059.04-.09.059-.054.033-.109.061-.165.09-.106.054.111-.04.031-.012-.028.009-.057.021-.085.028-.05.017-.1.026-.154.038-.109.024.057-.021.066-.007,0-.007-.073.007-.087.007a1.271,1.271,0,0,1-.135,0,.5.5,0,0,1-.059,0l-.028,0c-.087,0,.146.026.092.012-.073-.017-.144-.028-.215-.05a1.531,1.531,0,0,1-.146-.052c-.092-.035.168.071.08.033l-.172-.073a.6.6,0,0,0-.728.413.614.614,0,0,0,.413.735Z" transform="translate(-71.715 -171.604)"/></g></svg>