<svg xmlns="http://www.w3.org/2000/svg" width="16.396" height="20.347" viewBox="0 0 16.396 20.347"><defs><style>.a{fill:#d2d6dc;stroke:#707070;stroke-width:0.1px;}.b{fill:#63748b;}</style></defs><g transform="translate(-19.001 -928.652)"><path class="a" d="M17887.146-16396.99s.355-5.893,1.986-7.045a5.653,5.653,0,0,0,2.045-2.229s.535-2.207,1.809-2.227,1.918,1.389,1.953,2.227a9.817,9.817,0,0,1,4.09,7.656,25.564,25.564,0,0,0,.941,6.01h-13.191l.367-1.92Z" transform="translate(-17866 17338)"/><g transform="translate(19 928.652)"><path class="b" d="M30.591,17.085a6.592,6.592,0,0,0-3.852-6v-.543a2.741,2.741,0,1,0-5.482,0v.543a6.592,6.592,0,0,0-3.852,6v4.2L15.8,25.629h4.939a3.368,3.368,0,0,0,6.519,0H32.2l-1.605-4.371Zm-7.605-6.544a1.012,1.012,0,1,1,2.025,0v.025A6.736,6.736,0,0,0,24,10.492c-.346,0-.691.025-1.012.049ZM24,12.22a4.858,4.858,0,0,1,4.865,4.865v3.482H19.134V17.085A4.858,4.858,0,0,1,24,12.22Zm0,14.2a1.671,1.671,0,0,1-1.407-.79h2.79A1.6,1.6,0,0,1,24,26.419ZM18.269,23.9l.593-1.605H29.134l.593,1.605Z" transform="translate(-15.799 -7.8)"/></g></g></svg>