<svg xmlns="http://www.w3.org/2000/svg" width="19.848" height="21.15" viewBox="0 0 19.848 21.15"><defs><style>.a{fill:#d2d6dc;}.e,.f{fill:#64758b;}.e{stroke:#64758b;stroke-width:0.4px;}.g{fill:#fff;}</style></defs><g transform="translate(-16.8 -326.8)"><path class="a" d="M4.311.15h7.3l3.336,3.355,3.613.5L19,17H0V4.152l3.545-.646Z" transform="translate(17.5 327.5)"/><path class="e" d="M0,5.028V16.659A1.135,1.135,0,0,0,1.144,17.8H6.625L6.01,20.056H4.76a.347.347,0,1,0,0,.695h9.928a.347.347,0,1,0,0-.695h-1.25L12.822,17.8H18.3a1.135,1.135,0,0,0,1.144-1.14V5.028A1.156,1.156,0,0,0,18.3,3.864H15.466a.437.437,0,0,0-.084-.169L12.174.122A.354.354,0,0,0,11.916,0H5.525A1.552,1.552,0,0,0,3.994,1.568v2.3H1.144A1.156,1.156,0,0,0,0,5.028ZM12.717,20.056H6.73L7.346,17.8H12.1ZM18.3,17.1H1.144a.439.439,0,0,1-.45-.445V14.716H18.753v1.943a.439.439,0,0,1-.45.445ZM12.285,1.272,14.11,3.343H12.517a.253.253,0,0,1-.232-.272Zm6.468,3.756v8.994h-3.3V4.558H18.3A.46.46,0,0,1,18.753,5.028ZM5.525.695H11.59V3.07a.947.947,0,0,0,.927.967h2.218l.024.028v9.957H4.688V1.568A.857.857,0,0,1,5.525.695ZM3.994,14.022H.694V5.028a.46.46,0,0,1,.45-.47H3.994Zm0,0" transform="translate(17 327)"/><path class="g" d="M17889.592-17014.729v-4.248l3.258-1.08,3.09,1.08v4.408l-3.453,1.012Z" transform="translate(-17866 17352)"/><path class="f" d="M143.229,113.282l3.182,1.028a.333.333,0,0,0,.1.017.342.342,0,0,0,.105-.017l3.177-1.028a.339.339,0,0,0,.231-.33V108.6a.34.34,0,0,0-.232-.33l-3.182-1.028a.339.339,0,0,0-.211,0l-3.177,1.028a.339.339,0,0,0-.231.33v4.35A.339.339,0,0,0,143.229,113.282Zm.463-4.2,2.431.79v3.62l-2.431-.79Zm3.126,4.438V109.9l2.518-.818v3.62Zm-.3-5.577,2.055.663-2.055.663-2.055-.663Zm0,0" transform="translate(-119.789 224.428)"/></g></svg>