<svg xmlns="http://www.w3.org/2000/svg" width="18.923" height="16.336" viewBox="0 0 18.923 16.336"><defs><style>.a{fill:#fff;stroke:#fff;stroke-width:0.3px;}</style></defs><g transform="translate(-0.734 -4.95)"><path class="a" d="M2.99,27.849h.627A8.732,8.732,0,0,0,6.3,27.461a2.419,2.419,0,0,0,1.463-1.045A3.506,3.506,0,0,0,8.1,24.893c0-.09.03-.179.03-.269v-.06c.03-.418.09-.866.09-1.314a.374.374,0,0,0-.747-.03c0,.418-.06.836-.09,1.254v.06c0,.09-.03.179-.03.3a2.643,2.643,0,0,1-.269,1.224,1.744,1.744,0,0,1-1.045.687,8.148,8.148,0,0,1-2.478.358H3.378c-.538.03-1.1.06-1.4-.3-.6-.627-.388-2.031-.239-3.076.03-.239.06-.478.09-.657a11.066,11.066,0,0,1,1.493-4.987c.776-1.254,2.09-2.568,3.135-2.568a.657.657,0,0,1,.508.179c.388.418.3,1.523.269,2,0,.09-.03.149-.03.239a1.993,1.993,0,0,0,.03.836,10.163,10.163,0,0,1,.269.985v.418a.37.37,0,0,0,.358.388h0a.415.415,0,0,0,.388-.358v-.538a9.4,9.4,0,0,0-.269-1.075,1.09,1.09,0,0,1,0-.538c0-.09.03-.179.03-.269a3.515,3.515,0,0,0-.478-2.568A1.331,1.331,0,0,0,6.483,14.8c-1.851,0-3.583,2.628-3.763,2.926a12.148,12.148,0,0,0-1.613,5.315c-.03.179-.06.418-.09.627-.179,1.194-.388,2.807.448,3.7A2.074,2.074,0,0,0,2.99,27.849Z" transform="translate(0 -6.803)"/><path class="a" d="M11.109,16.808a1.454,1.454,0,0,1-.03.358,1.736,1.736,0,0,1-.269.747.35.35,0,0,0,.119.508.432.432,0,0,0,.209.06.413.413,0,0,0,.328-.179,2.42,2.42,0,0,0,.358-1.045,2.26,2.26,0,0,0,.03-.448,2.414,2.414,0,0,1,.03-.478,1,1,0,0,1,.239-.418.029.029,0,0,1,.03-.03,2.851,2.851,0,0,0,1.075-.269,3.715,3.715,0,0,0,.956-.687,4.293,4.293,0,0,0,1.1-2.09,33.974,33.974,0,0,0,.03-5.076c-.03-.806-.06-1.583-.06-2.21a.353.353,0,0,0-.388-.358.37.37,0,0,0-.358.388c0,.627.03,1.4.06,2.24a37.192,37.192,0,0,1,0,4.9,3.352,3.352,0,0,1-.9,1.7,2.886,2.886,0,0,1-.776.567,3.3,3.3,0,0,1-1.1.209,4.78,4.78,0,0,0-.687.09A6.372,6.372,0,0,0,10.721,14a4.031,4.031,0,0,1-.328-.956,1.6,1.6,0,0,1,.538-1.672.352.352,0,0,0,.09-.508.379.379,0,0,0-.508-.09,2.247,2.247,0,0,0-.806,2.389,4.624,4.624,0,0,0,.388,1.135,3.184,3.184,0,0,1,.358,1.224,2.879,2.879,0,0,0-.985,1.1,2.463,2.463,0,0,1-.567.747.376.376,0,0,0-.03.538.346.346,0,0,0,.3.119.339.339,0,0,0,.239-.09,3.511,3.511,0,0,0,.717-.926,1.88,1.88,0,0,1,.866-.926c.119-.03.209-.06.328-.09-.03.06-.03.119-.06.179A1.213,1.213,0,0,0,11.109,16.808Z" transform="translate(-5.551 -0.062)"/><path class="a" d="M34.2,5.488a.391.391,0,0,0-.358-.388h0a.415.415,0,0,0-.388.358c0,.478-.03,1.194-.06,2a33.343,33.343,0,0,0,.03,5.315,4.061,4.061,0,0,0,1.1,2.09,3.715,3.715,0,0,0,.956.687,2.851,2.851,0,0,0,1.075.269.029.029,0,0,0,.03.03,1,1,0,0,1,.239.418,2.413,2.413,0,0,1,.03.478,2.26,2.26,0,0,0,.03.448,3.1,3.1,0,0,0,.358,1.045.343.343,0,0,0,.328.179.554.554,0,0,0,.209-.06.355.355,0,0,0,.119-.508,1.847,1.847,0,0,1-.269-.747c0-.119-.03-.239-.03-.358a2.236,2.236,0,0,0-.06-.627.424.424,0,0,0-.06-.179c.119.03.239.06.328.09a1.88,1.88,0,0,1,.866.926,4.274,4.274,0,0,0,.717.926.339.339,0,0,0,.239.09.383.383,0,0,0,.3-.119.41.41,0,0,0-.03-.538,2.9,2.9,0,0,1-.567-.747,2.879,2.879,0,0,0-.985-1.1,3.184,3.184,0,0,1,.358-1.224A6.333,6.333,0,0,0,39.1,13.1a2.334,2.334,0,0,0-.806-2.389.365.365,0,1,0-.418.6,1.719,1.719,0,0,1,.538,1.672,4.032,4.032,0,0,1-.328.956,3.582,3.582,0,0,0-.388,1.284c-.239-.03-.478-.06-.687-.09a3.3,3.3,0,0,1-1.1-.209,2.886,2.886,0,0,1-.776-.567,3.477,3.477,0,0,1-.9-1.7,41.183,41.183,0,0,1,0-5.136C34.174,6.683,34.2,6,34.2,5.488Z" transform="translate(-22.763 0)"/><path class="a" d="M40.562,14.7a2.942,2.942,0,0,0-.508.06.934.934,0,0,0-.3.149c-.776.538-.806,1.762-.717,2.777,0,.09.03.179.03.269a1.621,1.621,0,0,1,0,.538c-.119.418-.209.747-.269,1.075V20.1a.37.37,0,0,0,.388.358h0a.37.37,0,0,0,.358-.388v-.418c.06-.3.149-.627.269-1.015a2.016,2.016,0,0,0,.03-.836c0-.09-.03-.149-.03-.239-.06-.747-.09-1.792.418-2.12a.1.1,0,0,1,.06-.03,1.016,1.016,0,0,1,.3-.03c1.045,0,2.359,1.344,3.135,2.568a9.378,9.378,0,0,1,1.344,3.763c.119.687.179,1.344.239,1.941.03.388.06.747.06,1.045V25c.03,1.045,0,1.732-.717,1.941a5.862,5.862,0,0,1-4.151-.538,1.565,1.565,0,0,1-.717-1.194c-.03-.239-.03-.508-.06-.776v-.06c-.03-.418-.09-.836-.09-1.254a.374.374,0,0,0-.747.03c0,.448.06.9.09,1.314v.06a6.286,6.286,0,0,1,.06.747,2.41,2.41,0,0,0,1.015,1.762,5.539,5.539,0,0,0,3.165.836,6.165,6.165,0,0,0,1.613-.179c1.344-.358,1.314-1.762,1.284-2.688v-.269c0-.328-.03-.687-.06-1.1-.06-.627-.119-1.284-.239-2A9.81,9.81,0,0,0,44.384,17.6C44.145,17.3,42.413,14.7,40.562,14.7Z" transform="translate(-26.613 -6.733)"/></g></svg>