<svg xmlns="http://www.w3.org/2000/svg" width="20.7" height="20.7" viewBox="0 0 20.7 20.7"><defs><style>.a{fill:#d2d6dc;}.d{fill:#fff;}.c{fill:#64758b;stroke:#64758b;stroke-width:0.7px;}</style></defs><g transform="translate(-16.65 -432.65)"><path class="a" d="M17891.189-16930.424v-2.086h3.572v2.865l1.707.652,2.3-1.676,2.039,2.32-1.762,1.783.654,1.74,2.762.412v2.791l-2.564.379-.852,1.75,1.762,2.111-2.166,2.32-2.518-1.812-1.365.7-.541,2.857-3.031-.324v-2.533l-1.758-.7-2.193,1.813-2.123-2.572,1.707-1.859-.5-1.75-3.025-.57.154-2.811,2.871-.2.744-1.74-1.812-1.971,2.111-2.133,2.063,1.676Z" transform="translate(-17866 17366)"/><circle class="d" cx="3" cy="3" r="3" transform="translate(24 440)"/><g transform="translate(17 433)"><path class="c" d="M18.7,7.826H17.068a7.358,7.358,0,0,0-.532-1.286l1.15-1.15a1.306,1.306,0,0,0,0-1.846l-1.23-1.23a1.337,1.337,0,0,0-1.845,0l-1.15,1.15a7.378,7.378,0,0,0-1.286-.532V1.3A1.306,1.306,0,0,0,10.87,0H9.13a1.306,1.306,0,0,0-1.3,1.3V2.932a7.392,7.392,0,0,0-1.286.532L5.39,2.314a1.306,1.306,0,0,0-1.845,0L2.313,3.545a1.307,1.307,0,0,0,0,1.845l1.15,1.15a7.378,7.378,0,0,0-.532,1.286H1.3A1.306,1.306,0,0,0,0,9.131V10.87a1.306,1.306,0,0,0,1.3,1.3H2.932a7.392,7.392,0,0,0,.532,1.286l-1.15,1.15a1.306,1.306,0,0,0,0,1.845l1.23,1.231a1.307,1.307,0,0,0,1.845,0l1.15-1.15a7.378,7.378,0,0,0,1.286.532V18.7a1.306,1.306,0,0,0,1.3,1.3H10.87a1.306,1.306,0,0,0,1.3-1.3V17.068a7.378,7.378,0,0,0,1.286-.532l1.15,1.15a1.338,1.338,0,0,0,1.845,0l1.23-1.23a1.306,1.306,0,0,0,0-1.845l-1.15-1.15a7.378,7.378,0,0,0,.532-1.286H18.7a1.306,1.306,0,0,0,1.3-1.3V9.13A1.306,1.306,0,0,0,18.7,7.826Zm.435,3.043a.435.435,0,0,1-.435.435H16.739a.435.435,0,0,0-.421.326,6.535,6.535,0,0,1-.7,1.683.435.435,0,0,0,.067.528l1.383,1.383a.437.437,0,0,1,0,.616l-1.23,1.23a.448.448,0,0,1-.616,0l-1.383-1.383a.435.435,0,0,0-.529-.067,6.512,6.512,0,0,1-1.683.7.434.434,0,0,0-.326.42V18.7a.435.435,0,0,1-.435.435H9.13A.435.435,0,0,1,8.7,18.7V16.739a.435.435,0,0,0-.326-.421,6.519,6.519,0,0,1-1.683-.7.43.43,0,0,0-.221-.06.435.435,0,0,0-.308.127L4.775,17.071a.436.436,0,0,1-.616,0l-1.23-1.23a.435.435,0,0,1,0-.616l1.383-1.383a.434.434,0,0,0,.067-.528,6.528,6.528,0,0,1-.7-1.683.434.434,0,0,0-.42-.326H1.3A.435.435,0,0,1,.87,10.87V9.13A.435.435,0,0,1,1.3,8.7H3.261a.435.435,0,0,0,.421-.326,6.519,6.519,0,0,1,.7-1.683.434.434,0,0,0-.067-.528L2.929,4.775a.436.436,0,0,1,0-.616l1.23-1.23a.436.436,0,0,1,.616,0L6.158,4.312a.434.434,0,0,0,.528.067,6.528,6.528,0,0,1,1.683-.7A.435.435,0,0,0,8.7,3.261V1.3A.435.435,0,0,1,9.13.87H10.87A.435.435,0,0,1,11.3,1.3V3.261a.435.435,0,0,0,.326.421,6.512,6.512,0,0,1,1.683.7.434.434,0,0,0,.529-.067l1.383-1.383a.446.446,0,0,1,.616,0l1.23,1.23a.437.437,0,0,1,0,.616L15.688,6.158a.435.435,0,0,0-.067.528,6.529,6.529,0,0,1,.7,1.683.434.434,0,0,0,.42.326H18.7a.435.435,0,0,1,.435.435Z"/><g transform="translate(6.087 6.087)"><path class="c" d="M115.913,112a3.913,3.913,0,1,0,3.913,3.913A3.918,3.918,0,0,0,115.913,112Zm0,6.957a3.043,3.043,0,1,1,3.043-3.043A3.047,3.047,0,0,1,115.913,118.957Z" transform="translate(-112 -112)"/></g></g></g></svg>