<svg xmlns="http://www.w3.org/2000/svg" width="16.555" height="14.403" viewBox="0 0 16.555 14.403"><defs><style>.a{fill:#fff;}</style></defs><path class="a" d="M3.9,11.706v7.963a1.707,1.707,0,0,0,1.708,1.708H14.99l2.948,2.948a.251.251,0,0,0,.431-.18V21.377h.377a1.707,1.707,0,0,0,1.708-1.708V11.706A1.707,1.707,0,0,0,18.747,10H5.626A1.7,1.7,0,0,0,3.9,11.706Zm3.361,1.1a.208.208,0,0,1,.216-.216H16.9a.208.208,0,0,1,.216.216v.863a.208.208,0,0,1-.216.216H7.477a.208.208,0,0,1-.216-.216Zm0,2.445a.208.208,0,0,1,.216-.216H16.9a.208.208,0,0,1,.216.216v.863a.208.208,0,0,1-.216.216H7.477a.208.208,0,0,1-.216-.216Zm0,2.445a.208.208,0,0,1,.216-.216h5.267a.208.208,0,0,1,.216.216v.863a.208.208,0,0,1-.216.216H7.477a.208.208,0,0,1-.216-.216Z" transform="translate(-3.9 -9.998)"/></svg>