<svg xmlns="http://www.w3.org/2000/svg" width="18.765" height="21.309" viewBox="0 0 18.765 21.309"><defs><style>.a{fill:#d2d6dc;}.b{fill:#64758b;stroke:#64758b;stroke-width:0.2px;}</style></defs><g transform="translate(-17.9 -278.9)"><path class="a" d="M17884.77-17058.445l4.408-4.576,2.35-4.658.666-1.541,6.52,6.2-6.52,3.492-3.932,3.85-.951.762-2.541-2.777Z" transform="translate(-17866 17352)"/><g transform="translate(-12.85 279)"><g transform="translate(30.849 0.787)"><path class="b" d="M48.006,26.635,41.011,19.64a1.855,1.855,0,0,0-2.849,2.349l-.01.049A12.942,12.942,0,0,1,34.6,28.672l-3.208,3.208a1.854,1.854,0,0,0,0,2.623l1.749,1.749a1.854,1.854,0,0,0,2.623,0l.437-.437,3.06,3.06a1.855,1.855,0,0,0,2.623-2.623l-1.312-1.312.437-.437a1.854,1.854,0,0,0,0-2.623l-.3-.3a12.944,12.944,0,0,1,4.894-2.09l.049-.01a1.857,1.857,0,0,0,2.349-.226h0A1.857,1.857,0,0,0,48.006,26.635ZM34.89,35.378a.618.618,0,0,1-.874,0l-1.749-1.749a.618.618,0,0,1,0-.874l3.06-3.06,2.623,2.623Zm6.12,1.749a.618.618,0,1,1-.874.874l-3.06-3.06.874-.874Zm-2.186-3.935c.186-.186.464-.471.9-.846l.408.408a.618.618,0,0,1,0,.874l-.437.437Zm.026-1.722-2.676-2.676a14.158,14.158,0,0,0,3.01-5.733l5.4,5.4A14.157,14.157,0,0,0,38.851,31.47Zm8.28-3.086a.618.618,0,0,1-.874,0l-6.995-6.995a.618.618,0,0,1,.874-.874l6.995,6.995A.619.619,0,0,1,47.131,28.383Z" transform="translate(-30.849 -19.098)"/></g><g transform="translate(33.835 13.389)"><g transform="translate(0)"><path class="b" d="M105.2,324.943a.618.618,0,0,0-.874,0l-.874.874a.618.618,0,1,0,.874.874l.874-.874A.618.618,0,0,0,105.2,324.943Z" transform="translate(-103.266 -324.762)"/></g></g><g transform="translate(43.232)"><path class="b" d="M331.812,0a.618.618,0,0,0-.618.618V1.855a.618.618,0,1,0,1.236,0V.618A.618.618,0,0,0,331.812,0Z" transform="translate(-331.194)"/></g><g transform="translate(46.942 4.946)"><g transform="translate(0)"><path class="b" d="M423.024,119.966h-1.237a.618.618,0,1,0,0,1.237h1.237a.618.618,0,0,0,0-1.237Z" transform="translate(-421.169 -119.966)"/></g></g><g transform="translate(45.705 1.236)"><path class="b" d="M393.47,30.172a.618.618,0,0,0-.874,0l-1.237,1.237a.618.618,0,0,0,.874.874l1.237-1.237A.618.618,0,0,0,393.47,30.172Z" transform="translate(-391.178 -29.991)"/></g></g></g></svg>