<svg xmlns="http://www.w3.org/2000/svg" width="18.133" height="18.017" viewBox="0 0 18.133 18.017">
  <g id="Group_9642" data-name="Group 9642" transform="translate(16687.52 -14715.876)">
    <circle id="Ellipse_953" data-name="Ellipse 953" cx="8" cy="8" r="8" transform="translate(-16686 14717)" fill="#d2d6dc"/>
    <g id="time-left" transform="translate(-16687.42 14714.299)">
      <g id="Layer_2_16_" transform="translate(0 1.688)">
        <g id="Group_9641" data-name="Group 9641">
          <path id="Path_3248" data-name="Path 3248" d="M253.705,423.177c-.148.037-.3.07-.448.1a.721.721,0,1,0,.263,1.418c.178-.033.358-.072.534-.116a.721.721,0,0,0-.348-1.4Z" transform="translate(-242.926 -406.907)" fill="#63748b" stroke="#63748b" stroke-width="0.2"/>
          <path id="Path_3249" data-name="Path 3249" d="M412.669,137.63a.721.721,0,0,0,1.369-.453c-.057-.172-.12-.345-.188-.513a.721.721,0,1,0-1.339.535C412.568,137.34,412.621,137.485,412.669,137.63Z" transform="translate(-396.558 -131.024)" fill="#63748b" stroke="#63748b" stroke-width="0.2"/>
          <path id="Path_3250" data-name="Path 3250" d="M321.618,394.031c-.127.084-.258.165-.391.241a.721.721,0,1,0,.72,1.249c.157-.091.314-.187.465-.287a.721.721,0,0,0-.795-1.2Z" transform="translate(-308.496 -378.79)" fill="#63748b" stroke="#63748b" stroke-width="0.2"/>
          <path id="Path_3251" data-name="Path 3251" d="M429.076,208a.721.721,0,1,0-1.441.057c.006.152.008.306,0,.458a.721.721,0,1,0,1.442.032C429.084,208.37,429.083,208.186,429.076,208Z" transform="translate(-411.148 -199.384)" fill="#63748b" stroke="#63748b" stroke-width="0.2"/>
          <path id="Path_3252" data-name="Path 3252" d="M378.224,344.213a.721.721,0,0,0-1.01.144c-.091.122-.188.242-.287.358a.721.721,0,0,0,.082,1.016c.017.015.035.028.053.041a.721.721,0,0,0,.964-.122c.118-.138.233-.282.342-.428A.721.721,0,0,0,378.224,344.213Z" transform="translate(-362.231 -330.869)" fill="#63748b" stroke="#63748b" stroke-width="0.2"/>
          <path id="Path_3253" data-name="Path 3253" d="M414.853,279.385a.721.721,0,0,0-.9.472c-.046.145-.1.291-.151.434a.721.721,0,0,0,1.347.513c.065-.17.125-.343.179-.516A.721.721,0,0,0,414.853,279.385Z" transform="translate(-397.801 -268.647)" fill="#63748b" stroke="#63748b" stroke-width="0.2"/>
          <path id="Path_3254" data-name="Path 3254" d="M7.634,18.061a7.445,7.445,0,0,1-1.849-.588l-.02-.011c-.138-.065-.276-.135-.41-.207h0a7.691,7.691,0,0,1-.717-.448A7.523,7.523,0,0,1,4.666,4.482l.026-.018A7.536,7.536,0,0,1,13.138,4.4l-.563.814c-.157.227-.06.392.214.367l2.447-.219a.4.4,0,0,0,.365-.527l-.657-2.367c-.074-.265-.262-.3-.419-.071l-.565.816A8.9,8.9,0,0,0,7.436,1.822q-.346.06-.683.146h0l-.026.007a8.89,8.89,0,0,0-4.93,3.3c-.01.012-.021.024-.031.038-.041.055-.081.111-.121.168-.065.092-.129.187-.19.282-.008.011-.014.023-.02.035A8.889,8.889,0,0,0,.01,11.044c0,.006,0,.012,0,.018.008.181.022.364.042.545,0,.012,0,.023.006.034.02.182.045.363.077.545a8.9,8.9,0,0,0,2.509,4.825l.009.01,0,0a9.084,9.084,0,0,0,1.149.96,8.89,8.89,0,0,0,3.575,1.5.721.721,0,0,0,.254-1.419Z" transform="translate(0 -1.688)" fill="#63748b" stroke="#63748b" stroke-width="0.2"/>
          <path id="Path_3255" data-name="Path 3255" d="M206.571,83.2a.584.584,0,0,0-.584.583v5.812l5.315,2.748a.583.583,0,0,0,.536-1.036l-4.684-2.422v-5.1A.583.583,0,0,0,206.571,83.2Z" transform="translate(-198.046 -80.056)" fill="#63748b" stroke="#63748b" stroke-width="0.2"/>
        </g>
      </g>
    </g>
  </g>
</svg>
