<svg xmlns="http://www.w3.org/2000/svg" width="25.499" height="24.938" viewBox="0 0 25.499 24.938">
  <g id="noun_appointment_3235710" transform="translate(-2.603 -48.22)">
    <g id="Group_567" data-name="Group 567" transform="translate(2.853 48.47)">
      <g id="Group_558" data-name="Group 558" transform="translate(0 7.071)">
        <g id="Group_557" data-name="Group 557">
          <path id="Path_322" data-name="Path 322" d="M60.127,317.94v12.622c0,.575.005,1.149,0,1.724,0,.032,0,.063-.005.095.013-.105.029-.211.042-.316a.745.745,0,0,1-.045.171c.04-.095.079-.19.119-.282a.713.713,0,0,1-.09.148l.184-.24a.855.855,0,0,1-.1.1l.24-.185a1.049,1.049,0,0,1-.148.09l.282-.119a.745.745,0,0,1-.171.045l.316-.042c-.208.018-.422.005-.627.005H40.17c-.274,0-.546,0-.82,0a.727.727,0,0,1-.105-.005l.316.042a.745.745,0,0,1-.171-.045l.282.119a.715.715,0,0,1-.148-.09l.24.185a.852.852,0,0,1-.1-.1l.185.24a1.049,1.049,0,0,1-.09-.148c.04.095.079.19.119.282a.744.744,0,0,1-.045-.171c.013.105.029.211.042.316-.013-.145-.005-.3-.005-.44V319.724c0-.585.011-1.17,0-1.755v-.026l-1.186,1.186H60.38c.3,0,.588,0,.883,0H61.3a1.188,1.188,0,0,0,1.186-1.186,1.189,1.189,0,0,0-.348-.838,1.229,1.229,0,0,0-.838-.348H39.606c-.3,0-.588,0-.883,0h-.037a1.2,1.2,0,0,0-1.186,1.186v14.29a1.31,1.31,0,0,0,.005.145,1.892,1.892,0,0,0,.229.817,1.931,1.931,0,0,0,.588.625,1.788,1.788,0,0,0,.991.3c.282.008.567,0,.849,0h20.3c.071,0,.145,0,.216,0a1.809,1.809,0,0,0,1.811-1.811V317.943a1.188,1.188,0,0,0-1.186-1.186,1.19,1.19,0,0,0-.838.348A1.257,1.257,0,0,0,60.127,317.94Z" transform="translate(-37.5 -316.755)" fill="#343434" stroke="#343434" stroke-width="0.5"/>
        </g>
      </g>
      <g id="Group_560" data-name="Group 560" transform="translate(4.757 0)">
        <g id="Group_559" data-name="Group 559">
          <path id="Path_323" data-name="Path 323" d="M220.372,53.452v-3.8a1.217,1.217,0,0,0-.348-.838,1.183,1.183,0,0,0-1.676,0,1.229,1.229,0,0,0-.348.838v3.8a1.188,1.188,0,0,0,1.186,1.186,1.189,1.189,0,0,0,.838-.348,1.229,1.229,0,0,0,.348-.838Z" transform="translate(-218 -48.47)" fill="#343434" stroke="#343434" stroke-width="0.5"/>
        </g>
      </g>
      <g id="Group_562" data-name="Group 562" transform="translate(17.883 0)">
        <g id="Group_561" data-name="Group 561">
          <path id="Path_324" data-name="Path 324" d="M716,49.657v3.8a1.188,1.188,0,0,0,1.186,1.186,1.19,1.19,0,0,0,.838-.348,1.229,1.229,0,0,0,.348-.838v-3.8a1.217,1.217,0,0,0-.348-.838,1.184,1.184,0,0,0-1.676,0,1.224,1.224,0,0,0-.348.838Z" transform="translate(-716 -48.47)" fill="#343434" stroke="#343434" stroke-width="0.5"/>
        </g>
      </g>
      <g id="Group_564" data-name="Group 564" transform="translate(0.006 1.872)">
        <g id="Group_563" data-name="Group 563">
          <path id="Path_325" data-name="Path 325" d="M60.361,121.313v4.57l1.186-1.186H39.853c-.3,0-.588,0-.883,0h-.037l1.186,1.186v-4.03c0-.2-.013-.411.005-.614-.013.105-.029.211-.042.316a.745.745,0,0,1,.045-.171c-.04.095-.079.19-.119.282a.712.712,0,0,1,.09-.148l-.184.24a.852.852,0,0,1,.1-.1l-.24.184a1.047,1.047,0,0,1,.148-.09l-.282.119a.745.745,0,0,1,.171-.045l-.316.042c.208-.018.422-.005.627-.005H60.076c.274,0,.546,0,.82,0a.723.723,0,0,1,.105.005l-.316-.042a.745.745,0,0,1,.171.045l-.282-.119a.712.712,0,0,1,.148.09l-.24-.184a.851.851,0,0,1,.1.1l-.184-.24a1.048,1.048,0,0,1,.09.148c-.04-.095-.079-.19-.119-.282a.745.745,0,0,1,.045.171c-.013-.105-.029-.211-.042-.316a.227.227,0,0,0-.008.074,1.234,1.234,0,0,0,.348.838,1.205,1.205,0,0,0,.838.348,1.189,1.189,0,0,0,.838-.348,1.222,1.222,0,0,0,.348-.838,1.823,1.823,0,0,0-.582-1.328,1.88,1.88,0,0,0-1.231-.485H39.563a1.811,1.811,0,0,0-.965.279,1.864,1.864,0,0,0-.846,1.46c-.024.316-.005.64-.005.957v3.69a1.2,1.2,0,0,0,1.186,1.186H60.627c.3,0,.588,0,.883,0h.037a1.2,1.2,0,0,0,1.186-1.186v-4.57a1.188,1.188,0,0,0-1.186-1.186,1.189,1.189,0,0,0-.838.348A1.213,1.213,0,0,0,60.361,121.313Z" transform="translate(-37.741 -119.5)" fill="#343434" stroke="#343434" stroke-width="0.5"/>
        </g>
      </g>
      <g id="Group_566" data-name="Group 566" transform="translate(6.319 11.004)">
        <g id="Group_565" data-name="Group 565">
          <path id="Path_326" data-name="Path 326" d="M277.619,471.281l1.136,1.136,1.8,1.8.416.416a1.2,1.2,0,0,0,1.676,0l.662-.662,1.587-1.587,1.911-1.911,1.66-1.66c.269-.269.543-.535.809-.809l.011-.011a1.222,1.222,0,0,0,.348-.838,1.188,1.188,0,0,0-1.186-1.186,1.233,1.233,0,0,0-.838.348l-.662.662-1.587,1.587-1.911,1.911-1.66,1.66c-.269.269-.546.535-.809.809l-.011.011h1.676l-1.136-1.136-1.8-1.8-.416-.416a1.222,1.222,0,0,0-.838-.348,1.188,1.188,0,0,0-1.186,1.186,1.241,1.241,0,0,0,.348.838Z" transform="translate(-277.27 -465.97)" fill="#343434" stroke="#343434" stroke-width="0.5"/>
        </g>
      </g>
    </g>
  </g>
</svg>
