<svg xmlns="http://www.w3.org/2000/svg" width="27.575" height="25.184" viewBox="0 0 27.575 25.184">
  <g id="noun_chat_2620591" transform="translate(0.602 0.6)">
    <path id="Path_329" data-name="Path 329" d="M19.577,29.984H19.55c-1.954,0-3.895-.022-5.838-.079a12.051,12.051,0,0,1-4.361-1.128A10.9,10.9,0,0,1,2.6,19.434c-.046-.33-.076-.665-.093-1C2.221,11.827,8.081,6,14.963,6A12.436,12.436,0,0,1,25.546,24.983a1.515,1.515,0,0,0,.169.545c.82,1.458,1.739,2.867,2.693,4.432-2.783,0-5.511.025-8.212.025Zm6.04-1.573c-.436-.7-.853-1.4-1.262-2.1a3.1,3.1,0,0,1-.362-1.137l-.065-.545.286-.463a10.883,10.883,0,0,0-9.25-16.609,11.139,11.139,0,0,0-8,3.478A9.953,9.953,0,0,0,4.08,18.363a8.324,8.324,0,0,0,.079.856v.134a9.313,9.313,0,0,0,5.824,8,10.388,10.388,0,0,0,3.78.992c1.7.052,3.543.076,5.759.079h4.71Z" transform="translate(-2.5 -6)" fill="#343434" stroke="#343434" stroke-width="1.2"/>
    <path id="Path_330" data-name="Path 330" d="M47.944,47.516a1.488,1.488,0,1,1,1.472-1.488A1.488,1.488,0,0,1,47.944,47.516Z" transform="translate(-35.484 -34.036)" fill="#343434" stroke="#343434" stroke-width="1.2"/>
    <path id="Path_331" data-name="Path 331" d="M27.2,46.091a1.48,1.48,0,1,1,1.477,1.469A1.48,1.48,0,0,1,27.2,46.091Z" transform="translate(-10.984 -34.08)" fill="#343434" stroke="#343434" stroke-width="1.2"/>
    <path id="Path_332" data-name="Path 332" d="M67.224,47.516a1.488,1.488,0,1,1,1.483-1.488,1.488,1.488,0,0,1-1.483,1.488Z" transform="translate(-60.032 -34.036)" fill="#343434" stroke="#343434" stroke-width="1.2"/>
  </g>
</svg>
