<svg xmlns="http://www.w3.org/2000/svg" width="21.293" height="21.28" viewBox="0 0 21.293 21.28">
  <g id="noun_Doctor_2194797" transform="translate(-7.95 -7.95)">
    <path id="Path_338" data-name="Path 338" d="M26,14.354a3.177,3.177,0,0,0-1.059,6.169V22.3a4.765,4.765,0,1,1-9.531,0v-.62a6.354,6.354,0,0,0,5.295-6.264V10.118A2.118,2.118,0,0,0,18.59,8H17.531a1.059,1.059,0,0,0,0,2.118H18.59v5.295a4.236,4.236,0,1,1-8.472,0V10.118h1.059a1.059,1.059,0,0,0,0-2.118H10.118A2.118,2.118,0,0,0,8,10.118v5.295a6.354,6.354,0,0,0,5.294,6.264v.62a6.883,6.883,0,1,0,13.767,0V20.523A3.177,3.177,0,0,0,26,14.354Z" fill="#fff" stroke="#fff" stroke-width="0.1"/>
  </g>
</svg>
