<svg xmlns="http://www.w3.org/2000/svg" width="26.16" height="26.143" viewBox="0 0 26.16 26.143">
  <g id="noun_Doctor_2194797" transform="translate(-7.75 -7.75)">
    <path id="Path_338" data-name="Path 338" d="M29.8,15.693a3.846,3.846,0,0,0-1.282,7.468v2.148a5.77,5.77,0,1,1-11.539,0v-.75a7.693,7.693,0,0,0,6.411-7.584V10.564A2.564,2.564,0,0,0,20.821,8H19.539a1.282,1.282,0,1,0,0,2.564h1.282v6.411a5.129,5.129,0,1,1-10.257,0V10.564h1.282a1.282,1.282,0,0,0,0-2.564H10.564A2.564,2.564,0,0,0,8,10.564v6.411a7.692,7.692,0,0,0,6.409,7.584v.75a8.334,8.334,0,1,0,16.668,0V23.161A3.846,3.846,0,0,0,29.8,15.693Z" fill="#343434" stroke="#343434" stroke-width="0.5"/>
  </g>
</svg>
