<svg xmlns="http://www.w3.org/2000/svg" width="26.117" height="26.118" viewBox="0 0 26.117 26.118">
  <g id="noun_help_2302543" transform="translate(0.35 0.35)">
    <path id="Path_336" data-name="Path 336" d="M12.709,2.288A10.421,10.421,0,1,1,2.288,12.709,10.421,10.421,0,0,1,12.709,2.288m0-2.288A12.709,12.709,0,1,0,25.418,12.709,12.709,12.709,0,0,0,12.709,0Z" fill="#343434" stroke="#343434" stroke-width="0.7"/>
    <path id="Path_337" data-name="Path 337" d="M37.029,33.17a1.828,1.828,0,0,0-1.8,1.779,1.795,1.795,0,1,0,3.589.018A1.828,1.828,0,0,0,37.029,33.17Zm3.838-8.388a4.813,4.813,0,0,0-7.42-.064c-.829.94-.727,1.037.165,1.685s.933.953,1.85-.127a2.033,2.033,0,0,1,2.715-.422.969.969,0,0,1,.046,1.779c-.468.315-.974.574-1.449.879a2.542,2.542,0,0,0-1.248,2.369c.018.422.2.671.656.653h1.749A.508.508,0,0,0,38.5,31c-.033-.58.33-.834.742-1.08.318-.191.638-.379.951-.577A3.079,3.079,0,0,0,40.867,24.782Z" transform="translate(-24.523 -17.157)" fill="#343434" stroke="#343434" stroke-width="0.7"/>
  </g>
</svg>
