<svg xmlns="http://www.w3.org/2000/svg" width="25.155" height="23.223" viewBox="0 0 25.155 23.223">
  <g id="noun_Home_2522584" transform="translate(0.691 0.65)">
    <g id="Group_1296" data-name="Group 1296" transform="translate(0.019)">
      <path id="Path_447" data-name="Path 447" d="M1.334,12.423c-.658.658-1.681-.365-1.023-1.1C4.038,7.673,7.765,3.946,11.492.219a.706.706,0,0,1,1.023,0C16.242,3.946,19.9,7.673,23.622,11.327c.658.731-.365,1.754-1.023,1.1L20.7,10.45v8.915a2.605,2.605,0,0,1-2.631,2.558H16.461A2.589,2.589,0,0,1,13.9,19.365v-4.6H10.03v4.6a2.589,2.589,0,0,1-2.558,2.558H5.865a2.589,2.589,0,0,1-2.558-2.558V10.45Zm17.9-3.435L12,1.754,4.769,8.988V19.365a1.124,1.124,0,0,0,1.1,1.1H7.472a1.124,1.124,0,0,0,1.1-1.1V14.031A.732.732,0,0,1,9.3,13.3h5.335a.732.732,0,0,1,.731.731v5.335a1.124,1.124,0,0,0,1.1,1.1h1.608a1.14,1.14,0,0,0,1.169-1.1Z" transform="translate(-0.099)" fill="#292d34" stroke="#292d34" stroke-width="1.3"/>
    </g>
  </g>
</svg>
