<svg xmlns="http://www.w3.org/2000/svg" width="21.601" height="23.79" viewBox="0 0 21.601 23.79">
  <g id="noun_notification_1594291" transform="translate(0.85 0.85)">
    <g id="Group_311" data-name="Group 311" transform="translate(0 0)">
      <g id="Group_310" data-name="Group 310" transform="translate(0 0)">
        <path id="Path_272" data-name="Path 272" d="M38.129,41.355a3.184,3.184,0,0,1-6.356,0H25.8a.8.8,0,0,1-.8-.795v-1.2a1.992,1.992,0,0,1,1.991-1.99.4.4,0,0,0,.4-.4V32.2a7.564,7.564,0,0,1,5.373-7.24v-.52a2.189,2.189,0,1,1,4.378,0v.52a7.565,7.565,0,0,1,5.373,7.24v4.776a.4.4,0,0,0,.4.4,1.993,1.993,0,0,1,1.991,1.99v1.2a.8.8,0,0,1-.8.795Zm-.8,0h-4.76a2.388,2.388,0,0,0,4.76,0Zm6.774-.8s0-1.194,0-1.194a1.2,1.2,0,0,0-1.195-1.194,1.192,1.192,0,0,1-1.193-1.195V32.2a6.768,6.768,0,0,0-5.074-6.553l-.3-.077V24.439a1.393,1.393,0,1,0-2.786,0V25.57l-.3.077A6.767,6.767,0,0,0,28.184,32.2v4.776a1.2,1.2,0,0,1-1.193,1.195A1.2,1.2,0,0,0,25.8,39.365v1.194Z" transform="translate(-25 -22.25)" stroke="#000" stroke-width="1.7"/>
      </g>
    </g>
  </g>
</svg>
