<svg xmlns="http://www.w3.org/2000/svg" width="184.211" height="249.463" viewBox="0 0 184.211 249.463">
  <g id="noun_notes_1703877" transform="translate(187.559 249.849) rotate(-180)">
    <g id="Group_1299" data-name="Group 1299" transform="translate(3.348 0.386)">
      <path id="Path_450" data-name="Path 450" d="M183.329.386H7.72a4.3,4.3,0,0,0-4.3,4.3V186.069a3.91,3.91,0,0,0,.161.784,3.052,3.052,0,0,0,.107.526,4.246,4.246,0,0,0,1.149,1.836c.021.021.032.064.054.086l67.958,59.474c.043.043.118.021.172.064a4.19,4.19,0,0,0,2.663,1.009H183.34a4.3,4.3,0,0,0,4.3-4.3V4.682A4.318,4.318,0,0,0,183.329.386ZM18.352,189.666l49.079-3.275,3.275,49.079Zm160.671,51.57H79.695L75.71,181.526a4.258,4.258,0,0,0-1.461-2.943,4.478,4.478,0,0,0-3.114-1.063L12,181.461V8.977H179.012V241.236Z" transform="translate(-3.424 -0.386)"/>
      <g id="Group_1300" data-name="Group 1300" transform="translate(40.027 53.535)">
        <path id="Path_451" data-name="Path 451" d="M9.682,13.962H68.924c1.435,0,2.6-1.922,2.6-4.3s-1.168-4.3-2.6-4.3H9.682c-1.435,0-2.6,1.922-2.6,4.3S8.253,13.962,9.682,13.962Z" transform="translate(35.057 -5.371)"/>
        <path id="Path_453" data-name="Path 453" d="M11.285,20.932h98a4.3,4.3,0,1,0,0-8.591h-98a4.3,4.3,0,1,0,0,8.591Z" transform="translate(-6.989 30.294)"/>
      </g>
    </g>
  </g>
</svg>
