<svg viewBox="0 0 18 18" id="svg-sprite-cu2-docs" xmlns="http://www.w3.org/2000/svg"><path d="M5 11a1 1 0 011-1h6a1 1 0 110 2H6a1 1 0 01-1-1zm0 3a1 1 0 011-1h4a1 1 0 110 2H6a1 1 0 01-1-1z"></path><path fill-rule="evenodd" clip-rule="evenodd" d="M4.5 0A2.5 2.5 0 002 2.5v13A2.5 2.5 0 004.5 18h9a2.5 2.5 0 002.5-2.5V6.414A2 2 0 0015.414 5L11 .586A2 2 0 009.586 0H4.5zM4 2.5a.5.5 0 01.5-.5H9v2.5A2.5 2.5 0 0011.5 7H14v8.5a.5.5 0 01-.5.5h-9a.5.5 0 01-.5-.5v-13zM12.586 5L11 3.414V4.5a.5.5 0 00.5.5h1.086z"></path></svg>