<svg xmlns="http://www.w3.org/2000/svg" width="22.599" height="29.181" viewBox="0 0 22.599 29.181">
  <g id="noun_Patient_3198021" transform="translate(-5.4 -16.587)">
    <path id="Path_348" data-name="Path 348" d="M6,43.2v6.358a.76.76,0,0,0,.76.76H26.639a.76.76,0,0,0,.76-.76V43.2a4.535,4.535,0,0,0-4.526-4.533H19.515a.76.76,0,0,0-.58.269L16.7,41.575l-2.236-2.638a.76.76,0,0,0-.58-.269H10.526A4.535,4.535,0,0,0,6,43.2Zm1.52,0a3.013,3.013,0,0,1,3.006-3.013h3.006l2.588,3.054a.785.785,0,0,0,1.16,0l2.588-3.054h3.006A3.013,3.013,0,0,1,25.879,43.2v5.6H7.52Z" transform="translate(0 -5.151)" fill="#343434" stroke="#343434" stroke-width="1.2"/>
    <path id="Path_349" data-name="Path 349" d="M17.889,32.751c3.839,0,6.929-4.724,6.929-8.635a6.929,6.929,0,1,0-13.859,0C10.959,28.027,14.05,32.751,17.889,32.751Zm0-14.044A5.415,5.415,0,0,1,23.3,24.116c0,3.136-2.547,7.114-5.409,7.114s-5.409-3.978-5.409-7.114A5.415,5.415,0,0,1,17.889,18.707Z" transform="translate(-1.189)" fill="#343434" stroke="#343434" stroke-width="1.2"/>
    <path id="Path_350" data-name="Path 350" d="M27.9,45.313H26.689V44.1a.76.76,0,0,0-1.52,0v1.213H23.956a.76.76,0,1,0,0,1.52h1.213v1.213a.76.76,0,0,0,1.52,0V46.834H27.9a.76.76,0,0,0,0-1.52Z" transform="translate(-4.123 -6.271)" fill="#343434"/>
  </g>
</svg>
