<svg xmlns="http://www.w3.org/2000/svg" width="678.977" height="843" viewBox="0 0 678.977 843">
  <g id="indian-doctors-logo-11550719329amnhvjeuyd" transform="translate(-81.012 855)">
    <path id="Path_303" data-name="Path 303" d="M412-854c0,.5-.9,1-2.1,1-3.6,0-14.9,8.6-14.9,11.4,0,.9-.4,1.6-1,1.6-.5,0-1,.7-1,1.5a7.727,7.727,0,0,1-1,3.3c-1.9,3.6-2.7,10.8-1.6,17,.5,3.4,1.3,6.2,1.8,6.2.4,0,.8.9.8,2s.5,2,1,2a1.028,1.028,0,0,1,1,1.1c0,1.5,9,9.9,10.7,9.9.7,0,1.3.4,1.3,1,0,.5,1.6,1,3.5,1s3.5.4,3.5,1,2.8,1,6.5,1,6.5-.4,6.5-1,1.6-1,3.5-1,3.5-.5,3.5-1c0-.6.6-1,1.3-1,1.7,0,10.7-8.4,10.7-9.9a1.1,1.1,0,0,1,1-1.1c.6,0,1-.9,1-2s.4-2,.8-2c.5,0,1.3-2.8,1.8-6.2,1.1-6.2.3-13.4-1.6-17a7.727,7.727,0,0,1-1-3.3c0-.8-.4-1.5-1-1.5-.5,0-1-.7-1-1.6,0-2.8-11.3-11.4-14.9-11.4-1.2,0-2.1-.5-2.1-1,0-.6-3.5-1-8.5-1S412-854.6,412-854Z" fill="#1d6aff"/>
    <path id="Path_304" data-name="Path 304" d="M296.5-852a13.556,13.556,0,0,1-4.7.9c-3.5.1-18.8,5.2-18.8,6.3,0,.4-.9.8-2,.8s-2,.4-2,1c0,.5-.9,1-2,1s-2,.4-2,1c0,.5-.9,1-2,1s-2,.3-2,.8c0,.4-1.5,1.3-3.2,2.1a22.274,22.274,0,0,0-3.8,2c-.9,1.1-8.9,6.1-9.8,6.1-.4,0-1.4.9-2.2,2a4.736,4.736,0,0,1-3.2,2c-1,0-1.8.3-1.8.7,0,.5-2.8,2.6-6.3,4.8a58.812,58.812,0,0,0-7.8,5.7,5.438,5.438,0,0,1-3,1.8,4.663,4.663,0,0,0-2.9,2,4.605,4.605,0,0,1-2.7,2c-.7,0-1.3.4-1.3,1a1.1,1.1,0,0,1-1.1,1c-1.1,0-5.2,3-9.6,7a7.661,7.661,0,0,1-3.3,2,1,1,0,0,0-1,1c0,.5-.7,1-1.5,1s-1.5.4-1.5,1a1.233,1.233,0,0,1-1.3,1,4.6,4.6,0,0,0-2.7,2c-.8,1.1-1.8,2-2.3,2-1.1,0-11.1,7.1-11.5,8.2-.2.5-1.1.8-2.1.8a4.773,4.773,0,0,0-3.1,2c-.8,1.1-1.8,2-2.3,2-.7,0-12.7,7.8-15.4,10a5.05,5.05,0,0,1-2.3,1,1,1,0,0,0-1,1c0,.5-.8,1-1.8,1a4.736,4.736,0,0,0-3.2,2,4.736,4.736,0,0,1-3.2,2c-1,0-1.8.3-1.8.7,0,.5-2.5,2.1-5.5,3.8-3,1.6-5.5,3.3-5.5,3.7s-.9.8-2,.8-2,.4-2,1c0,.5-.9,1-2,1s-2,.4-2,1c0,.5-.9,1-2,1s-2,.4-2,1a1.075,1.075,0,0,1-1,1c-.6,0-5.3,2-10.3,4.5-5.1,2.5-10.1,4.5-11,4.5s-1.7.4-1.7,1c0,.5-.9,1-2,1s-2,.4-2,1c0,.5-.9,1-2,1s-2,.4-2,1c0,.5-1.1,1-2.5,1-3.4,0-3.3,2.6.2,5.6,6.2,5.3,15.4,6.3,35.8,3.9,4.7-.6,16.8-4.8,19-6.7a5.082,5.082,0,0,1,2.7-.8c1,0,1.8-.5,1.8-1,0-.6.9-1,2-1s2-.5,2-1c0-.6,1.1-1,2.5-1s2.5-.5,2.5-1c0-.6.9-1,2-1s2-.3,2-.8c0-.4,3.4-2.5,7.5-4.6,4.1-2.2,7.5-4.3,7.5-4.8,0-.4.9-.8,2-.8s2-.5,2-1c0-.6.9-1,2-1s2-.4,2-.9,1.6-1.6,3.5-2.5a21.679,21.679,0,0,0,4.7-2.9c2.2-2,12.7-8.7,13.8-8.7a1.075,1.075,0,0,0,1-1c0-.6.7-1,1.5-1s1.5-.4,1.5-.9,1.4-1.4,3-2.1c1.7-.7,3-1.5,3-1.9s1.5-1.5,3.3-2.6a25.007,25.007,0,0,0,4.8-3.7,5.4,5.4,0,0,1,2.8-1.8c.6,0,2.7-1.5,4.5-3.3,1.9-1.7,5-4.6,7-6.2,1.9-1.7,3.6-3.4,3.6-3.8,0-.5,1.3-2.1,2.8-3.5a68.232,68.232,0,0,0,5.7-6.7c4.5-6,5.3-6.7,7.7-6.3,2.2.3,2.3.7,2.6,12.3.1,6.6.7,12.4,1.2,12.9a4.336,4.336,0,0,1,1,2.8,9.548,9.548,0,0,0,.9,3.6c.5.9,2.1,4.2,3.7,7.2a32.1,32.1,0,0,0,4.6,7.1,6.366,6.366,0,0,1,1.8,2.3c0,.7,5.7,6.4,9.9,9.8a7.517,7.517,0,0,0,3.6,1.8c.8,0,1.5.4,1.5,1,0,.5.9,1,2,1s2,.4,2,.9c0,1.7,18.6,4.4,24.7,3.5,6.5-.9,9.3.1,9.3,3.4a5.316,5.316,0,0,1-2,4.2,4.6,4.6,0,0,0-2,2.7c0,.7-.4,1.3-1,1.3-.5,0-1,1.6-1,3.5s.5,3.5,1,3.5c.6,0,1,1.1,1,2.5s.5,2.5,1,2.5c.6,0,1,.9,1,2s.5,2,1,2a1.12,1.12,0,0,1,1,1.2c0,1.5,11.3,13.8,12.6,13.8.5,0,2.2,1.1,3.8,2.5a24.822,24.822,0,0,0,6.2,3.7c1.9.7,3.4,1.6,3.4,2s.9.8,1.9.8c1.1,0,2.3.4,2.6,1,.3.5,1.9,1,3.4,1a6.361,6.361,0,0,1,3.8,1.1c1.8,1.8,26.6-.2,27.9-2.2.3-.5,1.6-.9,3-.9,1.3,0,2.4-.4,2.4-.9s.9-1.3,2-1.6c1.9-.6,2-1.5,2-13.1,0-7.6-.4-12.4-1-12.4s-1-4.5-1-11.6v-11.6l-3.2.9c-1.8.4-8.7.8-15.3.8-10.5,0-12.5-.3-15.6-2.2-2-1.1-4.7-2.7-6-3.5-3.4-1.9-4.9-3.5-4.9-5a4.5,4.5,0,0,0-2-2.8,4.835,4.835,0,0,1-2-3,3.985,3.985,0,0,0-.9-2.5,25.16,25.16,0,0,1-2-5.9c-1.7-6.8-.4-9.4,9.6-19.3,4.6-4.6,8.3-9,8.3-9.8s.5-1.5,1-1.5c.6,0,1-.9,1-2s.5-2,1-2c.6,0,1-1.1,1-2.5s.5-2.5,1-2.5c.6,0,1-3.2,1-7.5s-.4-7.5-1-7.5c-.5,0-1-1.4-1-3,0-1.7-.4-3-1-3-.5,0-1-.6-1-1.4,0-2.8-4.5-9.8-10.1-15.6-3.1-3.3-6.1-6-6.6-6a25.14,25.14,0,0,1-5.1-2,48.213,48.213,0,0,0-9-3.2C326.3-852.6,299.2-853.2,296.5-852Z" fill="#1d6aff"/>
    <path id="Path_305" data-name="Path 305" d="M512.6-852.2c-.3.5-2.3,1.2-4.4,1.4a32.71,32.71,0,0,0-8.2,2.7,30.9,30.9,0,0,1-5.3,2.1c-.5,0-3.5,2.7-6.6,6-5.6,5.8-10.1,12.8-10.1,15.6,0,.8-.4,1.4-1,1.4-.5,0-1,1.3-1,3,0,1.6-.4,3-1,3s-1,3.2-1,7.5.4,7.5,1,7.5,1,1.1,1,2.5.5,2.5,1,2.5c.6,0,1,.9,1,2s.5,2,1,2c.6,0,1,.7,1,1.5s3.8,5.3,8.5,10,9,9.7,9.6,11.1c1,2.8-.6,13-2.3,14a3.2,3.2,0,0,0-.8,2.2,4.736,4.736,0,0,1-2,3.2,4.5,4.5,0,0,0-2,2.8c0,1.5-1.5,3.1-4.9,5-1.3.8-4,2.4-6,3.5-3.1,1.9-5.1,2.2-15.6,2.2-6.6,0-13.5-.4-15.2-.8l-3.3-.9v11.6c0,7.1-.4,11.6-1,11.6s-1,4.8-1,12.3v12.2l3.3,1.6c8.7,4.3,11.3,4.9,24.1,5.6,5.6.3,9.2.1,9.9-.6a6.361,6.361,0,0,1,3.8-1.1c1.5,0,3.1-.5,3.4-1,.3-.6,1.5-1,2.6-1,1,0,1.9-.3,1.9-.8,0-.4,2-1.6,4.5-2.7s4.5-2.2,4.5-2.6c0-.3,1.2-1.2,2.8-2,3.3-1.7,14.2-12.9,14.2-14.7a1.2,1.2,0,0,1,1-1.2c.6,0,1-.9,1-2s.5-2,1-2c.6,0,1-1.1,1-2.5s.5-2.5,1-2.5c.6,0,1-1.6,1-3.5s-.4-3.5-1-3.5a1.233,1.233,0,0,1-1-1.3,4.6,4.6,0,0,0-2-2.7,5.316,5.316,0,0,1-2-4.2c0-3.3,2.8-4.3,9.3-3.4,6.1.9,24.7-1.8,24.7-3.5,0-.5.9-.9,2-.9s2-.5,2-1c0-.6.7-1,1.5-1a7.517,7.517,0,0,0,3.6-1.8c4.2-3.4,9.9-9.1,9.9-9.8a6.366,6.366,0,0,1,1.8-2.3,32.1,32.1,0,0,0,4.6-7.1c1.6-3,3.2-6.3,3.7-7.2a10.034,10.034,0,0,0,.9-3.7,3.5,3.5,0,0,1,1-2.6c.6-.4,1-5.8,1-13.1V-806h2.6c2.8,0,3.5.6,7.9,6.5a68.239,68.239,0,0,0,5.7,6.7c1.5,1.4,2.8,3,2.8,3.5,0,.4,1.7,2.1,3.6,3.8,2,1.6,5.1,4.5,7,6.2,1.8,1.8,3.9,3.3,4.5,3.3a5.4,5.4,0,0,1,2.8,1.8,23.1,23.1,0,0,0,4.9,3.7c1.7,1.1,3.2,2.2,3.2,2.6s1.4,1.2,3,1.9c1.7.7,3,1.6,3,2.1s.7.9,1.5.9,1.5.4,1.5,1a1.075,1.075,0,0,0,1,1c1.1,0,11.6,6.7,13.8,8.7a21.68,21.68,0,0,0,4.7,2.9c1.9.9,3.5,2,3.5,2.5s.9.9,2,.9,2,.4,2,1c0,.5.9,1,2,1s2,.4,2,.8c0,.5,3.4,2.6,7.5,4.8,4.1,2.1,7.5,4.2,7.5,4.6,0,.5.9.8,2,.8s2,.4,2,1c0,.5,1.1,1,2.5,1s2.5.4,2.5,1c0,.5.9,1,2,1s2,.4,2,1c0,.5.8,1,1.8,1a5.781,5.781,0,0,1,2.8.8c2.1,1.9,14.2,6.1,18.9,6.7,20.4,2.4,29.6,1.4,35.8-3.9,3.5-3,3.6-5.6.2-5.6-1.4,0-2.5-.5-2.5-1,0-.6-.9-1-2-1s-2-.5-2-1c0-.6-.9-1-2-1s-2-.5-2-1c0-.6-.8-1-1.7-1s-5.9-2-11-4.5c-5-2.5-9.7-4.5-10.3-4.5a1.075,1.075,0,0,1-1-1c0-.6-.9-1-2-1s-2-.5-2-1c0-.6-.9-1-2-1s-2-.5-2-1c0-.6-.9-1-2-1s-2-.4-2-.8-2.5-2.1-5.5-3.7c-3-1.7-5.5-3.3-5.5-3.8,0-.4-.8-.7-1.8-.7a4.736,4.736,0,0,1-3.2-2,4.736,4.736,0,0,0-3.2-2c-1,0-1.8-.5-1.8-1a1,1,0,0,0-1-1,5.05,5.05,0,0,1-2.3-1c-2.7-2.2-14.7-10-15.4-10-.5,0-1.5-.9-2.3-2a4.773,4.773,0,0,0-3.1-2c-1,0-1.9-.3-2.1-.8-.4-1.1-10.4-8.2-11.5-8.2-.5,0-1.5-.9-2.3-2a4.6,4.6,0,0,0-2.7-2,1.233,1.233,0,0,1-1.3-1c0-.6-.7-1-1.5-1s-1.5-.5-1.5-1a1,1,0,0,0-1-1,7.662,7.662,0,0,1-3.3-2c-4.7-4.4-8.2-7-9.4-7a1.233,1.233,0,0,1-1.3-1c0-.6-.6-1-1.3-1a4.6,4.6,0,0,1-2.7-2,4.663,4.663,0,0,0-2.9-2,5.437,5.437,0,0,1-3-1.8,58.814,58.814,0,0,0-7.8-5.7c-3.5-2.2-6.3-4.3-6.3-4.8,0-.4-.7-.7-1.6-.7a5.483,5.483,0,0,1-3.3-1.8,19.4,19.4,0,0,0-4.6-3.2,38.562,38.562,0,0,1-4.2-2.5c-.7-.6-1.8-1.5-2.5-2.1a28.926,28.926,0,0,0-4.5-2.4c-1.8-.8-3.3-1.8-3.3-2.2,0-.5-.9-.8-2-.8s-2-.5-2-1c0-.6-.9-1-2-1s-2-.5-2-1c0-.6-.9-1-2-1s-2-.4-2-.8c0-1-11.3-5-18.4-6.4C543-852.6,513.4-853.4,512.6-852.2Z" fill="#1d6aff"/>
    <path id="Path_306" data-name="Path 306" d="M401.4-751.3c2.3,111.3,4.7,190.7,5.7,191.1a1.541,1.541,0,0,1,.9,1.3c0,1.2-4.7,1.2-5.5-.1-.3-.6-2.2-1-4.1-1s-3.4-.5-3.4-1c0-.6-.8-1-1.7-1-2.1,0-15.4-4.9-16.8-6.1a4.36,4.36,0,0,0-2.7-.9c-1,0-1.8-.5-1.8-1,0-.6-1.1-1-2.5-1s-2.5-.5-2.5-1c0-.6-.9-1-1.9-1a2.93,2.93,0,0,1-2.3-.8c-.1-.5-2.5-2.3-5.3-4.2-5.7-3.9-7.1-5-8.8-6.8-5.7-6.1-9.7-11.6-9.7-13.2a.908.908,0,0,0-.8-1c-1,0-3.2-7.3-3.2-10.5,0-1.4-.4-2.5-1-2.5-1.7,0-1.3-17.9.4-19.6,2.2-2.1,3-1.8,7.8,2.9a27.05,27.05,0,0,0,7.9,5.5c4.3,1.5,18.9,1.6,18.9.2,0-.6.9-1,2-1,4.5,0,20-13.1,20-16.9,0-2.4-4.8-7.1-7.1-7.1-1.1,0-1.9-.5-1.9-1,0-.6-1.3-1-3-1-1.6,0-3-.5-3-1,0-.6-5-1-13-1s-13,.4-13,1c0,.5-1.8,1-4,1s-4,.4-4,1c0,.5-.6,1-1.4,1-3,0-9.8,4.5-15.9,10.7-5.4,5.4-6.7,7-6.7,8.3a1,1,0,0,1-1,1c-.5,0-1,.9-1,2s-.4,2-1,2c-.5,0-1,.9-1,2s-.4,2-.9,2c-1.1,0-2.4,8-2.4,15.5-.1,7.4,1.3,16.5,2.4,16.5.5,0,.9.9.9,2s.5,2,1,2c.6,0,1,1.1,1,2.5s.5,2.5,1,2.5c.6,0,1,.7,1,1.5,0,.9,1.1,2.7,2.5,4.1s2.5,2.8,2.5,3.2c0,1.2,12.7,14.2,13.9,14.2.6,0,1.1.4,1.1.8s1.2,1.5,2.8,2.4a92.814,92.814,0,0,1,10,7.5c1.5,1.3,3.3,2.3,4,2.3a1.12,1.12,0,0,1,1.2,1c0,.5.9,1,2,1s2,.4,2,1c0,.5.7,1,1.5,1s1.5.4,1.5,1c0,.5.9,1,2,1s2,.4,2,1c0,.5.9,1,2,1a2.941,2.941,0,0,1,2.6,1.5,3.069,3.069,0,0,0,2.6,1.5c1,0,1.7.4,1.3,1-.3.5-1.5.6-2.7.1-3.4-1.2-7.9,1.8-19.9,13.1-2.7,2.6-4.9,5-4.9,5.3,0,.4-1.3,1.9-2.8,3.3a20.45,20.45,0,0,0-3.5,4.2c-.4.8-1.6,2.8-2.6,4.5a11.635,11.635,0,0,0-2,4.7c-.1,1-.5,1.8-1.1,1.8-.5,0-1,.9-1,2s-.4,2-1,2c-.5,0-1,1.8-1,4s-.4,4-1,4-1,5.3-1,14,.4,14,1,14,1,2,1,4.5.5,4.5,1,4.5c.6,0,1,.9,1,1.9a3.5,3.5,0,0,0,1,2.6c.6.3,1,1.5,1,2.6,0,1,.5,1.9,1,1.9.6,0,1,.9,1,2s.3,2,.8,2c.4,0,1.6,1.7,2.7,3.7a55.069,55.069,0,0,0,3.5,5.7c2.8,3.5,19.2,19.6,20.1,19.6a10.284,10.284,0,0,1,3.3,2.5c1.4,1.4,3,2.5,3.6,2.5a1,1,0,0,1,1,1c0,.5.7,1,1.5,1,.9,0,2.7,1,4,2.2,4,3.8,5.4,4.8,6.5,4.8a1,1,0,0,1,1,1c0,.5.9,1,2,1s2,.4,2,1c0,.5.7,1,1.5,1s1.5.4,1.5,1c0,.5.7,1,1.5,1s1.5.4,1.5,1c0,.5.9,1,2,1s2,.4,2,.8,1.5,1.6,3.3,2.7a25.007,25.007,0,0,1,4.8,3.7,5.484,5.484,0,0,0,3.3,1.8c.9,0,1.6.4,1.6,1,0,.5.9,1,2,1s2,.4,2,1a1.233,1.233,0,0,0,1.3,1,4.6,4.6,0,0,1,2.7,2,4.5,4.5,0,0,0,2.8,2c.7,0,2.3,1,3.6,2.2a44.01,44.01,0,0,0,5.2,4.3c6,4.3,14.7,13.8,18,19.7,3.4,5.9,3.5,6.7,3.5,15.8s-.1,9.9-3.5,15.9c-2,3.5-3.6,6.7-3.6,7.2a.923.923,0,0,1-1,.9,1.075,1.075,0,0,0-1,1c0,1.4-6.6,8-8,8a1,1,0,0,0-1,1c0,.5-.8,1-1.8,1a4.736,4.736,0,0,0-3.2,2,4.773,4.773,0,0,1-3.1,2,2.57,2.57,0,0,0-2.2,1.2c-.2.7-.8,1-1.2.6-.5-.5.2-1.6,1.3-2.7,2.2-1.8,2.2-2.2,2.2-38.5,0-38.6-.1-39.6-4.4-39.6-.9,0-1.6-.5-1.6-1,0-.6-1.1-1-2.5-1s-2.5.4-2.5,1c0,.5-.7,1-1.6,1-4.3,0-4.4,1-4.4,39.6,0,36.3,0,36.7,2.2,38.5,1.1,1.1,1.8,2.2,1.3,2.7-.4.4-1,.1-1.2-.6a2.317,2.317,0,0,0-1.9-1.2,7.328,7.328,0,0,1-3.6-2,7.548,7.548,0,0,0-3.5-2,1.233,1.233,0,0,1-1.3-1,1,1,0,0,0-1-1c-1.3,0-8-6.6-8-7.9a1.441,1.441,0,0,0-.8-1.3c-.4-.2-2.4-3.5-4.5-7.4-3.5-6.8-3.7-7.7-3.7-16.7s.2-9.8,3.4-15.6c3.3-5.8,12.1-15.3,18-19.6a44.008,44.008,0,0,0,5.2-4.3c1.3-1.2,3.1-2.2,4-2.2,1.1,0,1.4-.5,1-1.6a15.634,15.634,0,0,1-.6-2c0-.2-.7-.4-1.5-.4s-1.5-.4-1.5-.9-.8-1.2-1.9-1.6c-1.6-.5-3.1-1.6-7.8-5.5a5.05,5.05,0,0,0-2.3-1,1.075,1.075,0,0,1-1-1c0-.6-.9-1-2-1s-2-.5-2-1c0-.6-.7-1-1.5-1s-1.5-.5-1.5-1c0-.6-.7-1-1.5-1s-1.5-.3-1.5-.8c0-.4-1.5-1.3-3.2-2.1a13.32,13.32,0,0,1-4.1-2.5c-.6-.8-1-.7-1.4.1a2.328,2.328,0,0,1-2.2,1.3,4.773,4.773,0,0,0-3.1,2,4.6,4.6,0,0,1-2.7,2c-.7,0-1.3.4-1.3,1,0,.5-.7,1-1.5,1s-1.5.4-1.5,1a1.075,1.075,0,0,1-1,1c-1.6,0-17,16-17,17.6,0,.8-.4,1.4-1,1.4-.5,0-1,.7-1,1.5s-.4,1.5-1,1.5c-.5,0-1,.9-1,2s-.4,2-1,2c-.5,0-1,.7-1,1.5a9.11,9.11,0,0,1-.9,3.3c-3.2,6.4-4.6,19.1-3,28.7.6,3.8,1.3,8.5,1.6,10.2.3,1.8.9,3.3,1.4,3.3s.9,1.3.9,3c0,1.6.5,3,1,3,.6,0,1,1.1,1,2.5s.5,2.5,1,2.5c.6,0,1,.6,1,1.3,0,1.8,3.9,9.7,5.6,11.5a4.017,4.017,0,0,1,1.4,2,12.58,12.58,0,0,0,2.5,3.6,12.51,12.51,0,0,1,2.5,3.7c0,1.2,14.8,15.9,16,15.9.6,0,2.3,1.2,3.7,2.6l2.7,2.7-2.2,1.8a6.9,6.9,0,0,0-2.2,2.3c0,.4-1.5,2.2-3.2,4.1-5.9,6.1-9.8,12.1-9.8,15,0,.8-.4,1.5-1,1.5-.5,0-1,1.3-1,3,0,1.6-.4,3-1,3s-1,5.3-1,14,.4,14,1,14,1,1.3,1,3c0,1.6.5,3,1,3,.6,0,1,.9,1,2s.5,2,1,2a1,1,0,0,1,1,1c0,2.5,16.7,21,19,21a.988.988,0,0,1,1,.8c0,.4,1.2,1.5,2.8,2.4,2.4,1.4,4.2,2.8,8.9,6.8a5.05,5.05,0,0,0,2.3,1,1,1,0,0,1,1,1c0,.5.9,1,2,1s2,.4,2,1c0,.5.8,1,1.8,1a4.736,4.736,0,0,1,3.2,2,4.736,4.736,0,0,0,3.2,2c1,0,1.8.4,1.8.9s1.2,1.2,2.8,1.6l2.7.7-3.5,1.7-3.5,1.6.1,13c.1,7.2.7,32.6,1.2,56.5.6,23.9,1.1,45.9,1.1,48.7.1,4,.5,5.3,1.6,5.3s1.5-1.3,1.6-5.3c.2-18.5,2.1-91.6,2.5-103,.4-10.1.3-14.1-.6-15.2-2-2.4,1.2-1.9,3.8.5a7.167,7.167,0,0,0,3.7,2c.8,0,1.5.4,1.5,1a1.075,1.075,0,0,0,1,1c1,0,3.3,2,11.3,9.6,1.5,1.5,2.7,3.3,2.7,4,0,.8.4,1.4.9,1.4s2.1,2.9,3.6,6.4c2.5,5.8,2.7,7.1,2.1,15.2-.3,4.9-.8,10.9-1.2,13.4l-.6,4.5,3.1-3.2c1.7-1.8,3.1-4,3.1-4.8s.5-1.5,1-1.5c.6,0,1-1.1,1-2.5s.5-2.5,1-2.5c.6,0,1-1.4,1-3,0-1.7.5-3,1-3,1.3,0,1.3-20.7,0-21.5-.5-.3-1-1.9-1-3.6,0-1.6-.4-2.9-1-2.9-.5,0-1-.9-1-2s-.4-2-1-2c-.5,0-1-.7-1-1.5s-11.1-12.6-24.7-26.3c-25.4-25.4-28.5-28.7-30.6-33.5-.6-1.5-1.5-2.7-1.9-2.7-.5,0-.8-.9-.8-1.9,0-1.1-.4-2.3-1-2.6-1.3-.8-1.3-10.5,0-10.5.6,0,1-1.1,1-2.5,0-1.8,1.8-4.4,5.9-8.5,3.2-3.3,6.3-6,7-6a1.1,1.1,0,0,0,1.1-1c0-.6.7-1,1.5-1,2.7,0,1.5-1.7-2.5-3.5-2.2-1-4-2.1-4-2.5,0-.3-1.6-1.2-3.5-2s-3.5-1.7-3.5-2.2c0-.4-.8-.8-1.8-.8a4.736,4.736,0,0,1-3.2-2,4.736,4.736,0,0,0-3.2-2c-1,0-1.8-.3-1.8-.8,0-.4-2.1-2.1-4.5-3.7-2.5-1.7-4.5-3.3-4.5-3.8,0-1.3,1.5-.7,4.2,1.8,1.5,1.4,3.2,2.5,3.8,2.5a1,1,0,0,1,1,1c0,.5.8,1,1.8,1a4.736,4.736,0,0,1,3.2,2,4.736,4.736,0,0,0,3.2,2c1,0,1.8.4,1.8,1,0,.5.9,1,2,1s2,.4,2,1a1.1,1.1,0,0,0,1.1,1,4.924,4.924,0,0,1,2.4,1.2c3.5,3.2,4.5,3.8,6,3.8.8,0,1.5.4,1.5,1,0,.5.9,1,2,1s2,.4,2,1c0,.5.9,1,2,1s2,.4,2,1a1.1,1.1,0,0,0,1.1,1c.7,0,3.8,2.7,7,6,4.1,4.1,5.9,6.7,5.9,8.5,0,1.4.5,2.5,1,2.5,1.3,0,1.3,9.7,0,10.5-.6.3-1,1.5-1,2.6,0,1-.4,1.9-1,1.9-.5,0-1,.7-1,1.6a5.646,5.646,0,0,1-1.2,2.9c-2.8,3.1-3.8,4.4-3.8,5,0,.4-2.2,2.8-5,5.5-2.7,2.7-5,5.6-5,6.5,0,2.4,17.8,19.5,19.6,18.8.7-.3,1.4-.8,1.4-1.2,0-.3,1.8-1.7,4-3.1,2.2-1.3,4-2.8,4-3.2a.988.988,0,0,1,1-.8c1.5,0,13.8-12.7,17.8-18.2,1.7-2.6,3.2-5.3,3.2-6.2s.5-1.6,1-1.6c.6,0,1-1.4,1-3,0-1.7.5-3,1-3,.6,0,1-5.3,1-14s-.4-14-1-14c-.5,0-1-1.4-1-3,0-1.7-.4-3-1-3-.5,0-1-.7-1-1.5,0-2.9-3.9-8.9-9.7-15a21.428,21.428,0,0,1-3.3-4c0-.9-6.8-7.5-7.7-7.5-.5,0-1.5-.9-2.3-2s-1.9-2-2.5-2c-1,0-4.8-2.9-9.2-7a7.4,7.4,0,0,0-3.8-2c-.8,0-1.5-.5-1.5-1,0-.6-.7-1-1.5-1s-1.5-.5-1.5-1c0-.6-.7-1-1.5-1a7.167,7.167,0,0,1-3.7-2,7.548,7.548,0,0,0-3.5-2c-.7,0-1.3-.4-1.3-.9s-.9-1.3-2-1.6c-3.1-1-2.4-2,1.5-2,2.5,0,3.5.4,3.5,1.5,0,1.9,3.5,5,5.5,5,.8,0,1.5.4,1.5,1,0,.5.7,1,1.5,1s1.5.4,1.5,1c0,.5.7,1,1.5,1,1.5,0,4.5,2.2,9.1,6.7,1.3,1.3,3,2.3,3.9,2.3.8,0,1.5.4,1.5,1a1.1,1.1,0,0,0,1.1,1c.6,0,2.4,1.4,4,3.1l2.9,3.2,1.9-2.2c1-1.1,2.4-2.1,3-2.1,1.3,0,16.1-14.6,16.1-15.9a12.51,12.51,0,0,1,2.5-3.7,17.7,17.7,0,0,0,3.1-4.7c.3-.9.9-1.7,1.3-1.7.5,0,1.9-2.5,3.2-5.5s2.7-5.5,3.1-5.5c.5,0,.8-1.4.8-3,0-1.7.5-3,1-3,.6,0,1-.9,1-2a10.071,10.071,0,0,1,.9-3.8c2.9-5.6,4.5-20.8,3.1-29.7-1.9-12-2.2-13.5-3.1-13.5-.5,0-.9-.9-.9-2s-.4-2-1-2c-.5,0-1-.9-1-2s-.4-2-1-2c-.5,0-1-.7-1-1.5s-.4-1.5-1-1.5c-.5,0-1-.6-1-1.4,0-1.6-15.4-17.6-17-17.6a1.075,1.075,0,0,1-1-1c0-.6-.7-1-1.5-1s-1.5-.5-1.5-1c0-.6-.6-1-1.3-1a4.6,4.6,0,0,1-2.7-2,4.5,4.5,0,0,0-2.8-2,4.838,4.838,0,0,1-2.7-1.3c-3.3-2.9-4.5-3.7-5.5-3.7a1.075,1.075,0,0,1-1-1c0-.6-.9-1-2-1s-2-.5-2-1c0-.6-.9-1-2-1s-2-.5-2-1c0-.6-.7-1-1.5-1s-1.5-.5-1.5-1c0-.6-.9-1-2-1s-2-.3-2-.8c0-.4-1.8-1.6-4-2.6-2.2-1.1-4-2.3-4-2.8,0-.4-.9-.8-2-.8s-2-.4-2-.8c0-.5-1.6-1.4-3.5-2.2s-3.5-1.7-3.5-2.2c0-.4-.9-.8-2-.8s-2-.5-2-1c0-.6-.8-1-1.8-1a4.736,4.736,0,0,1-3.2-2c-.8-1.1-1.8-2-2.2-2-1.6,0-9.3-5.5-13-9.2-2-2.1-3.9-3.8-4.3-3.8-1,0-5.4-5.4-5.5-6.8a1.12,1.12,0,0,0-1-1.2c-.5,0-1-.7-1-1.5s-.4-1.5-1-1.5c-.5,0-1-.9-1-2s-.4-2-1-2c-.5,0-1-1-1-2.3a5.508,5.508,0,0,0-1.1-3.4c-1.5-1.5-1.5-20.1,0-21.6A4.361,4.361,0,0,0,378-477c0-2.1,2.3-7,3.3-7,.4,0,.7-.7.7-1.5s.5-1.5,1-1.5a1,1,0,0,0,1-1c0-1.1,4.5-6,5.5-6a17.715,17.715,0,0,0,3.9-3.4,27.692,27.692,0,0,1,6.5-4.7c1.7-.8,3.1-1.7,3.1-2.1,0-.5.7-.8,1.5-.8s1.5-.5,1.5-1c0-.6.9-1,2-1s2-.5,2-1c0-.6,1.4-1,3-1,1.7,0,3-.4,3-.8,0-1.4-2.3-3.2-4.2-3.2-1,0-1.8-.5-1.8-1,0-.6,1.1-1,2.5-1s2.5.4,2.5,1c0,.5,1.1,1,2.5,1s2.5.4,2.5,1c0,.5,1.1,1,2.5,1s2.5.4,2.5,1c0,.5-2,1-4.5,1s-4.5.4-4.5,1c0,.5-1.2,1-2.6,1-5.5,0-5.6.3-5,32.7.3,16.4.8,36,1.2,43.5.5,12.8.6,13.8,2.5,13.8,1,0,1.9.4,1.9,1,0,.5.9,1,2,1s2,.4,2,1c0,.5,1.1,1,2.5,1s2.5-.5,2.5-1c0-.6.9-1,2-1s2-.5,2-1c0-.6.9-1,1.9-1,1.8,0,2-1.1,2.5-12.8.4-7,.9-26.5,1.2-43.4.6-33.1.5-33.8-4.5-33.8-1.2,0-2.1-.5-2.1-1,0-.6,1.1-1,2.5-1s2.5.4,2.5,1c0,.5.9,1,2,1s2,.4,2,1c0,.5.7,1,1.5,1s1.5.3,1.5.8c0,.4,1.4,1.3,3.1,2.1a27.691,27.691,0,0,1,6.5,4.7,17.716,17.716,0,0,0,3.9,3.4c1,0,5.5,4.9,5.5,6a1.075,1.075,0,0,0,1,1c.6,0,1,.7,1,1.5s.3,1.5.8,1.5c.9,0,3.2,4.9,3.2,7.1a2.212,2.212,0,0,0,1.1,2.1c1.6.5,1.6,20.5,0,22.1a5.508,5.508,0,0,0-1.1,3.4c0,1.3-.4,2.3-1,2.3-.5,0-1,.9-1,2s-.4,2-1,2c-.5,0-1,.7-1,1.5s-.4,1.5-1,1.5a1.2,1.2,0,0,0-1,1.2c-.1,1.4-4.5,6.8-5.5,6.8-.4,0-2.3,1.7-4.3,3.8-3.7,3.7-11.4,9.2-13,9.2-.4,0-1.4.9-2.2,2a4.736,4.736,0,0,1-3.2,2c-1,0-1.8.4-1.8,1,0,.5-.9,1-2,1s-2,.3-2,.6c0,1,2.8,3.4,4,3.4a5.2,5.2,0,0,1,2.5,1.2c3.5,3.2,4.5,3.8,6,3.8.8,0,1.5.4,1.5,1,0,.5.9,1,2,1s2,.4,2,1c0,.5.7,1,1.5,1s1.5.4,1.5,1c0,.5.9,1,2,1s2,.4,2,1c0,.5.7,1,1.5,1a7.167,7.167,0,0,1,3.7,2c2.8,2.6,6.9,2.6,8.8,0a4.736,4.736,0,0,1,3.2-2c1,0,1.8-.5,1.8-1a1,1,0,0,1,1-1c.6,0,2.2-1.1,3.6-2.5a10.284,10.284,0,0,1,3.3-2.5c.9,0,17.3-16.1,20.1-19.6a55.064,55.064,0,0,0,3.5-5.7c1.1-2,2.3-3.7,2.7-3.7.5,0,.8-.9.8-2s.5-2,1-2c.6,0,1-.9,1-1.9a3.5,3.5,0,0,1,1-2.6c.6-.3,1-1.5,1-2.6,0-1,.5-1.9,1-1.9.6,0,1-2,1-4.5s.5-4.5,1-4.5c.6,0,1-5.3,1-14s-.4-14-1-14c-.5,0-1-1.8-1-4s-.4-4-1-4c-.5,0-1-.9-1-2s-.4-2-1-2c-.5,0-1-.7-1-1.5,0-2.3-5-10.7-8.2-13.7a13.464,13.464,0,0,1-2.8-3.2c0-.8-10.8-11.6-11.5-11.6a11.922,11.922,0,0,1-3.1-2.5,10.284,10.284,0,0,0-3.3-2.5c-.7,0-2.2-1.1-6.8-5a5.05,5.05,0,0,0-2.3-1,1.075,1.075,0,0,1-1-1c0-.6-.9-1-2-1s-2-.5-2-1c0-.6-.9-1-2-1s-2-.5-2-1c0-.6-.9-1-2-1s-2-.5-2-1c0-.6.9-1,2-1s2,.4,2,1c0,.5.9,1,2,1s2,.4,2,1a1.233,1.233,0,0,0,1.3,1,9.681,9.681,0,0,1,3.7,2c2.6,2,8,2.7,8,1,0-.6.9-1,2-1s2-.5,2-1c0-.6.9-1,2-1s2-.5,2-1c0-.6.7-1,1.5-1s1.5-.5,1.5-1c0-.6.6-1,1.3-1a9.869,9.869,0,0,0,3.9-2.3c1.5-1.2,4.9-3.8,7.7-5.7s5-3.8,5.1-4.3c0-.4.5-.7,1.1-.7,1.2,0,13.9-13,13.9-14.2,0-.4,1.1-1.8,2.5-3.2s2.5-3.2,2.5-4.1c0-.8.5-1.5,1-1.5.6,0,1-1.1,1-2.5s.5-2.5,1-2.5c.6,0,1-.9,1-2s.4-2,.9-2c1.1,0,2.5-9.1,2.4-16.5,0-7.5-1.3-15.5-2.4-15.5-.5,0-.9-.9-.9-2s-.4-2-1-2c-.5,0-1-.9-1-2s-.4-2-1-2a1.075,1.075,0,0,1-1-1c0-1.3-1.3-2.9-6.7-8.3-6.1-6.2-12.9-10.7-15.9-10.7-.8,0-1.4-.5-1.4-1,0-.6-1.8-1-4-1s-4-.5-4-1c0-.6-5-1-13-1s-13,.4-13,1c0,.5-1.3,1-3,1-1.6,0-3,.4-3,1,0,.5-.8,1-1.9,1-3,0-7.3,5-6.6,7.8,1.2,4.6,15,16.2,19.5,16.2,1.1,0,2,.4,2,1,0,1.4,14.6,1.3,18.9-.2a27.05,27.05,0,0,0,7.9-5.5c4.8-4.7,5.6-5,7.8-2.9,1.7,1.7,2.1,19.6.4,19.6-.5,0-1,1.1-1,2.5,0,3.2-2.2,10.5-3.2,10.5-.5,0-.8.5-.8,1.1,0,1.1-5.9,9.3-8.9,12.4-2.6,2.6-3.7,3.5-9.6,7.5-2.7,1.9-5.1,3.7-5.3,4.2a2.93,2.93,0,0,1-2.3.8c-1,0-1.9.4-1.9,1,0,.5-1.1,1-2.5,1s-2.5.4-2.5,1a1.233,1.233,0,0,1-1.3,1,21.932,21.932,0,0,0-5.4,2c-5.3,2.5-12.4,5-14.5,5-1,0-1.8.4-1.8,1,0,.5-1.5,1-3.4,1s-3.8.4-4.1,1c-.8,1.3-5.5,1.3-5.5.1a1.541,1.541,0,0,1,.9-1.3c1-.4,3.6-85,5.7-189.6l.7-34.2H400.7ZM416-557c0,.5,2,1,4.5,1s4.5-.5,4.5-1c0-.6,1.6-1,3.5-1s3.5.4,3.5,1c0,.5-1.6,1-3.5,1s-3.5.4-3.5,1c0,.5,1.4,1,3,1,1.7,0,3,.4,3,1,0,.5,1.1,1,2.4,1,1.4,0,2.8.4,3.1,1a3.5,3.5,0,0,0,2.6,1,2.776,2.776,0,0,1,2.5,1.5c.4.9,1.9,1.5,3.5,1.5s2.9.4,2.9,1c0,.5.9,1,2,1s2,.4,2,1c0,.5-.9,1-2,1s-2-.5-2-1c0-.6-.7-1-1.5-1-1.8,0-8.9-3.2-9.3-4.3-.2-.4-1.7-.7-3.3-.7s-2.9-.5-2.9-1c0-.6-1.5-1-3.4-1s-3.8-.5-4.1-1c-.3-.6-2.2-1-4.1-1s-3.4-.5-3.4-1c0-.6-1.6-1-3.5-1s-3.5-.5-3.5-1c0-.6,1.6-1,3.5-1S416-557.6,416-557Zm-36,28c0,.5.9,1,2,1s2,.4,2,1c0,.5,1.1,1,2.5,1s2.5.4,2.5,1c0,.5,1.4,1,3,1,1.7,0,3,.4,3,1,0,.5.9,1,2,1s2,.4,2,1c0,.5.9,1,1.9,1a3.667,3.667,0,0,1,2.6.9c.3.5,1.9,1.3,3.7,1.6,2.5.6,2.8.9,1.6,1.6-1.8,1-4.8.2-4.8-1.2,0-.5-1.1-.9-2.5-.9s-2.5-.5-2.5-1c0-.6-.9-1-2-1s-2-.5-2-1c0-.6-1.3-1-3-1-1.6,0-3-.5-3-1,0-.6-1.1-1-2.5-1s-2.5-.5-2.5-1c0-.6-.9-1-2-1s-2-.5-2-1c0-.6-.9-1-2-1s-2-.5-2-1c0-.6.9-1,2-1S380-529.6,380-529Z" fill="#1d6aff"/>
    <path id="Path_307" data-name="Path 307" d="M234.5-774.8a88.207,88.207,0,0,1-8.5,7.7,63.81,63.81,0,0,0-6,5.1,83.631,83.631,0,0,1-6.5,5.5,68.232,68.232,0,0,0-6.7,5.7c-1.4,1.5-3.2,2.8-4,2.8a4.763,4.763,0,0,0-2.8,2,4.605,4.605,0,0,1-2.7,2c-.7,0-1.3.4-1.3.9s-1.3,1.4-3,2.1c-1.6.7-3,1.5-3,1.9,0,.3-2,1.9-4.5,3.6-2.4,1.6-4.5,3.3-4.5,3.7,0,.5-.9.8-2,.8s-2,.4-2,1c0,.5-.8,1-1.8,1a4.736,4.736,0,0,0-3.2,2c-.8,1.1-1.8,2-2.2,2a19.587,19.587,0,0,0-4.8,2.5c-2.2,1.4-4.6,2.5-5.5,2.5-.8,0-1.5.4-1.5,1,0,.5-.9,1-2,1s-2,.4-2,1c0,.5-.9,1-2,1s-2,.4-2,1c0,.5-1.1,1-2.5,1s-2.5.4-2.5,1c0,.5-.9,1-2,1s-2,.4-2,.9-.9,1.1-2,1.4c-2.6.7-2.5,3.2.2,5.1,3.5,2.5,26.6,2.2,33.3-.3,8.1-3,13.5-5.5,13.5-6.3,0-.5.9-.8,2-.8s2-.5,2-1c0-.6.9-1,2-1s2-.4,2-.8c0-.5,1.6-1.4,3.5-2.2s3.5-1.7,3.5-2.1.8-1,1.9-1.4a14.859,14.859,0,0,0,4.2-2.5c3.8-3.1,4.2-3.4,7.4-5a19.4,19.4,0,0,0,4.6-3.2,5.4,5.4,0,0,1,2.8-1.8c.7,0,2.3-1.1,3.7-2.5a10.283,10.283,0,0,1,3.3-2.5c.5,0,2.7-1.8,5-4,2.2-2.2,4.6-4,5.1-4,.6,0,2.1-1,3.4-2.3,1.3-1.2,4-3.6,6-5.2,2.7-2.3,3.6-3.8,3.6-6.3,0-1.7-.4-3.2-1-3.2-.5,0-1-1-1-2.3a5.9,5.9,0,0,0-.9-3.3c-.5-.5-1.6-3.3-2.6-6.2-1.5-4.6-2-5.2-4.3-5.1C240.4-779.9,237.9-778.2,234.5-774.8Z" fill="#1d6aff"/>
    <path id="Path_308" data-name="Path 308" d="M594.5-774.8c-1,2.9-2.1,5.7-2.6,6.2a5.9,5.9,0,0,0-.9,3.3c0,1.3-.4,2.3-1,2.3-2.2,0-.9,5.8,1.9,8.6,5.1,5,9.1,8.4,10.1,8.4.6,0,2.9,1.8,5.1,4,2.3,2.2,4.5,4,5,4a10.284,10.284,0,0,1,3.3,2.5c1.4,1.4,3,2.5,3.7,2.5a5.4,5.4,0,0,1,2.8,1.8,21.708,21.708,0,0,0,4.6,3.2c3.2,1.6,3.6,1.9,7.4,5a14.859,14.859,0,0,0,4.2,2.5c1.1.4,1.9,1,1.9,1.4s1.6,1.3,3.5,2.1,3.5,1.7,3.5,2.2c0,.4.9.8,2,.8s2,.4,2,1c0,.5.9,1,2,1s2,.3,2,.8c0,.8,5.4,3.3,13.5,6.3,6.7,2.5,29.8,2.8,33.3.3,2.7-1.9,2.8-4.4.2-5.1-1.1-.3-2-.9-2-1.4s-.9-.9-2-.9-2-.5-2-1c0-.6-1.1-1-2.5-1s-2.5-.5-2.5-1c0-.6-.9-1-2-1s-2-.5-2-1c0-.6-.9-1-2-1s-2-.5-2-1c0-.6-.9-1-1.9-1-1.1,0-2.1-.3-2.3-.8-.1-.4-2.1-1.6-4.3-2.7a26.933,26.933,0,0,1-5.6-3.7,5.484,5.484,0,0,0-3.3-1.8c-.9,0-1.6-.5-1.6-1,0-.6-.9-1-2-1s-2-.3-2-.8c0-.4-2.1-2.1-4.5-3.7-2.5-1.7-4.5-3.3-4.5-3.6,0-.4-1.3-1.2-3-1.9-1.6-.7-3-1.6-3-2.1s-.6-.9-1.3-.9a4.6,4.6,0,0,1-2.7-2,4.763,4.763,0,0,0-2.8-2c-.8,0-2.6-1.3-4-2.8a68.23,68.23,0,0,0-6.7-5.7A83.634,83.634,0,0,1,621-762a63.8,63.8,0,0,0-6-5.1c-2-1.5-5.9-5-8.8-7.8C599.1-781.8,596.7-781.8,594.5-774.8Z" fill="#1d6aff"/>
    <path id="Path_309" data-name="Path 309" d="M246.2-739.4c-5.6,5.7-10.6,10.4-11.1,10.4s-3.2,2.2-6.1,5c-2.9,2.7-5.6,5-6.1,5a10.283,10.283,0,0,0-3.3,2.5c-1.4,1.4-3,2.5-3.6,2.5a1,1,0,0,0-1,1,1.233,1.233,0,0,1-1.3,1,7.388,7.388,0,0,0-3.3,1.7c-2.8,2.6-13.2,9.3-14.4,9.3a1,1,0,0,0-1,1c0,.5-.7,1-1.5,1s-1.5.4-1.5,1c0,.5-.9,1-2,1s-2,.4-2,.9-.9,1.1-2,1.4c-2.7.7-2.5,3.3.3,4.1,7.1,1.9,31.7-.9,31.7-3.6,0-.4.9-.8,2-.8s2-.5,2-1c0-.6.9-1,2-1s2-.5,2-1c0-.6.9-1,2-1s2-.5,2-1c0-.6.7-1,1.5-1s1.5-.5,1.5-1c0-.6.7-1,1.5-1,.9,0,2.6-1,3.9-2.3,1.3-1.2,3.6-3.1,5.1-4.2a35.924,35.924,0,0,0,4.1-3.3,4.66,4.66,0,0,1,2.3-1.2,1.1,1.1,0,0,0,1.1-1,.945.945,0,0,1,1-1c.5,0,3.5-2.5,6.7-5.5s6.1-5.5,6.6-5.5c1.1,0,7.2-6.2,7.9-8.1.6-1.6-2.3-4.9-4.3-4.9-.6,0-2.8-1.8-4.9-4s-4.3-4-4.9-4a1.1,1.1,0,0,1-1.1-1C258-751,256.3-749.6,246.2-739.4Z" fill="#1d6aff"/>
    <path id="Path_310" data-name="Path 310" d="M583-749a1.1,1.1,0,0,1-1.1,1c-.6,0-2.8,1.8-4.9,4s-4.3,4-4.9,4c-2,0-4.9,3.3-4.3,4.9.7,1.9,6.8,8.1,7.9,8.1.5,0,3.4,2.5,6.6,5.5s6.2,5.5,6.7,5.5a.945.945,0,0,1,1,1,1.1,1.1,0,0,0,1.1,1,4.66,4.66,0,0,1,2.3,1.2,35.927,35.927,0,0,0,4.1,3.3c1.5,1.1,3.8,3,5.1,4.2,1.3,1.3,3,2.3,3.9,2.3.8,0,1.5.4,1.5,1,0,.5.7,1,1.5,1s1.5.4,1.5,1c0,.5.9,1,2,1s2,.4,2,1c0,.5.9,1,2,1s2,.4,2,1c0,.5.9,1,2,1s2,.4,2,.8c0,2.7,24.6,5.5,31.8,3.6,2.7-.8,2.9-3.4.2-4.1-1.1-.3-2-.9-2-1.4s-.9-.9-2-.9-2-.5-2-1c0-.6-.7-1-1.5-1s-1.5-.5-1.5-1a1,1,0,0,0-1-1c-1.2,0-11.6-6.7-14.4-9.3a7.388,7.388,0,0,0-3.3-1.7,1.233,1.233,0,0,1-1.3-1,1,1,0,0,0-1-1c-.6,0-2.2-1.1-3.6-2.5a10.284,10.284,0,0,0-3.3-2.5c-.5,0-3.2-2.3-6.1-5-2.9-2.8-5.6-5-6.1-5s-5.6-4.7-11.3-10.5c-5.8-5.8-10.7-10.5-11-10.5C583.2-750,583-749.6,583-749Z" fill="#1d6aff"/>
    <path id="Path_311" data-name="Path 311" d="M280-730.2c0,.5-1.5,2.6-3.2,4.8-4.3,5.1-27.5,28.4-28.3,28.4a11.405,11.405,0,0,0-2.9,2.2,67.5,67.5,0,0,1-5.4,4.8c-3.5,2.7-3.9,4.4-1.8,6.6,1.7,1.6,13.6,2,13.6.4,0-.6,1.4-1,3-1,1.7,0,3-.5,3-1,0-.6.7-1,1.5-1,1.6,0,10.3-4.7,12.3-6.6a30.529,30.529,0,0,1,4.2-3.1c1.7-.9,3-2.1,3-2.5s.5-.8,1.1-.8c1.7,0,20.9-19.7,20.9-21.4,0-.9.5-1.6,1-1.6.6,0,1-1.6,1-3.5V-729h-5.5c-3,0-5.5-.5-5.5-1,0-.6-2.7-1-6-1S280-730.6,280-730.2Z" fill="#1d6aff"/>
    <path id="Path_312" data-name="Path 312" d="M549-730c0,.5-2.5,1-5.5,1H538v3.5c0,1.9.5,3.5,1,3.5.6,0,1,.7,1,1.6,0,1.7,19.2,21.4,20.9,21.4.6,0,1.1.4,1.1.8s1.3,1.6,3,2.5a30.53,30.53,0,0,1,4.2,3.1c2,1.9,10.7,6.6,12.3,6.6.8,0,1.5.4,1.5,1,0,.5,1.4,1,3,1,1.7,0,3,.4,3,1,0,1.6,11.9,1.2,13.6-.4,2.1-2.2,1.7-3.9-1.8-6.6a67.513,67.513,0,0,1-5.4-4.8,11.405,11.405,0,0,0-2.9-2.2c-.8,0-23.9-23.3-28.2-28.5-1.8-2.1-3.3-4.2-3.3-4.7,0-.4-2.7-.8-6-.8S549-730.6,549-730Z" fill="#1d6aff"/>
    <path id="Path_313" data-name="Path 313" d="M418-226c0,.5-.7,1-1.5,1-2.3,0-2.8,4-2.1,19.3,1.1,27.9,1.9,31.7,6.1,31.7s5-3.8,6.1-31.7c.4-7.9.4-15.3,0-16.5C425.8-225.4,418-228.8,418-226Z" fill="#1d6aff"/>
    <path id="Path_314" data-name="Path 314" d="M390.5-140.6c-4.7,4.7-8.5,9.3-8.5,10.1s-.4,1.5-1,1.5c-.5,0-1,.9-1,1.9,0,1.1-.4,2.3-1,2.6-.5.3-1,1.7-1,3s-.4,2.7-1,3-1,5.2-1,11.1c0,6.3.4,10.4,1,10.4s1,1.3,1,3c0,1.6.5,3,1,3,.6,0,1,1.1,1,2.5s.5,2.5,1,2.5c.6,0,1,.7,1,1.5s1.4,3,3.1,4.8l3.1,3.2-.6-4.5c-.4-2.5-.9-8.6-1.2-13.7-.5-8.4-.4-9.6,2.1-15.2,1.5-3.4,3.2-6.1,3.6-6.1.5,0,.9-.7.9-1.5s.5-1.5,1-1.5c.6,0,1-.6,1-1.3s1-1.9,2.1-2.7a48.917,48.917,0,0,0,5.5-4.8c1.8-1.7,3.8-3.2,4.4-3.2a1.075,1.075,0,0,0,1-1c0-.6.7-1,1.5-1a6.184,6.184,0,0,0,3.2-1.5c1-.8,2.7-2.1,3.8-2.9l2-1.5-2-.7a10.994,10.994,0,0,1-3.6-2.6,5.9,5.9,0,0,0-3.8-1.8c-1.1,0-2.1-.5-2.1-1,0-.6-.6-1-1.4-1a2,2,0,0,1-1.8-.9c-.1-.4-1.3-1.1-2.5-1.5C399.5-149,397.6-147.7,390.5-140.6Z" fill="#1d6aff"/>
  </g>
</svg>
