<svg xmlns="http://www.w3.org/2000/svg" width="16.595" height="15.802" viewBox="0 0 16.595 15.802"><defs><style>.a{fill:#fff;}</style></defs><path class="a" d="M17.425,4.842a.559.559,0,0,1,.169.395V13.1a1.749,1.749,0,0,1-1.749,1.749h-2.56a2.222,2.222,0,0,0,.381-1.219h2.179a.53.53,0,0,0,.53-.53V5.509L15.8,4.935l-.958.96a.317.317,0,0,1-.449,0l-.958-.96-.958.96a.317.317,0,0,1-.449,0l-.958-.96-.958.96a.317.317,0,0,1-.449,0L8.7,4.933l-.574.576v7.112L6.911,13.1V5.236a.559.559,0,0,1,.169-.395L8.486,3.433a.317.317,0,0,1,.449,0l.958.96.958-.96a.317.317,0,0,1,.449,0l.958.96.958-.96a.317.317,0,0,1,.449,0l.958.96.958-.96a.317.317,0,0,1,.449,0ZM9.7,7.946H14.8a.5.5,0,0,0,0-.991H9.7a.5.5,0,0,0,0,.991Zm0,1.844H14.8a.5.5,0,0,0,0-.991H9.7a.5.5,0,0,0,0,.991Zm0,1.844H14.8a.5.5,0,0,0,0-.991H9.7a.5.5,0,0,0,0,.991ZM2.536,19.142h.818a7.033,7.033,0,0,0,3.926-1.2,1.016,1.016,0,0,0,1.781.38,1.016,1.016,0,0,0,1.9,0,1.006,1.006,0,0,0,1.8-.535v-1.48a.383.383,0,0,0-.383-.383H10l2.069-1.314a1.157,1.157,0,0,0,.493-1.355,1.135,1.135,0,0,0-1.068-.755h0a1.129,1.129,0,0,0-.411.078L7.13,14.119H7.118a.926.926,0,0,1-1.038-.244.967.967,0,0,1-.225-.638V9.591A2.54,2.54,0,0,0,5.6,9.578a2.508,2.508,0,0,0-1.5.494L1.19,12.235a.469.469,0,0,0-.19.376v6.123a.408.408,0,0,0,.408.408Z" transform="translate(-1 -3.34)"/></svg>