<svg xmlns="http://www.w3.org/2000/svg" width="21.831" height="21.831" viewBox="0 0 21.831 21.831"><defs><style>.a{fill:#2c6eb5;stroke:#2c6eb5;stroke-width:0.3px;}</style></defs><g transform="translate(-1.85 -1.85)"><path class="a" d="M21.737,4.153H19.943V3.435a1.435,1.435,0,0,0-2.871,0v.718H14.2V3.435a1.435,1.435,0,0,0-2.871,0v.718H8.459V3.435a1.435,1.435,0,0,0-2.871,0v.718H3.794A1.794,1.794,0,0,0,2,5.947V20.3A1.794,1.794,0,0,0,3.794,22.1H13.842a.359.359,0,0,0,0-.718H3.794A1.08,1.08,0,0,1,2.718,20.3V9.177h20.1v6.1a.359.359,0,1,0,.718,0V5.947a1.794,1.794,0,0,0-1.794-1.794ZM17.79,3.435a.718.718,0,0,1,1.435,0V5.589a.718.718,0,0,1-1.435,0Zm-5.742,0a.718.718,0,0,1,1.435,0V5.589a.718.718,0,0,1-1.435,0Zm-5.742,0a.718.718,0,0,1,1.435,0V5.589a.718.718,0,0,1-1.435,0ZM22.814,8.459H2.718V5.947A1.08,1.08,0,0,1,3.794,4.871H5.589v.718a1.435,1.435,0,0,0,2.871,0V4.871H11.33v.718a1.435,1.435,0,0,0,2.871,0V4.871h2.871v.718a1.435,1.435,0,0,0,2.871,0V4.871h1.794a1.08,1.08,0,0,1,1.077,1.077Z" transform="translate(0)"/><path class="a" d="M24.871,27.718A.718.718,0,0,0,24.153,27H22.718a.718.718,0,0,0-.718.718v1.077a.718.718,0,0,0,.718.718h1.435a.718.718,0,0,0,.718-.718Zm-2.153,1.077V27.718h1.435v1.077Z" transform="translate(-12.823 -16.029)"/><path class="a" d="M12.871,27.718A.718.718,0,0,0,12.153,27H10.718a.718.718,0,0,0-.718.718v1.077a.718.718,0,0,0,.718.718h1.435a.718.718,0,0,0,.718-.718Zm-2.153,1.077V27.718h1.435v1.077Z" transform="translate(-5.129 -16.029)"/><path class="a" d="M48.153,29.512a.718.718,0,0,0,.718-.718V27.718A.718.718,0,0,0,48.153,27H46.718a.718.718,0,0,0-.718.718v1.077a.718.718,0,0,0,.718.718Zm-1.435-1.794h1.435v1.077H46.718Z" transform="translate(-28.21 -16.029)"/><path class="a" d="M24.871,36.718A.718.718,0,0,0,24.153,36H22.718a.718.718,0,0,0-.718.718v1.077a.718.718,0,0,0,.718.718h1.435a.718.718,0,0,0,.718-.718Zm-2.153,1.077V36.718h1.435v1.077Z" transform="translate(-12.823 -21.799)"/><path class="a" d="M12.871,36.718A.718.718,0,0,0,12.153,36H10.718a.718.718,0,0,0-.718.718v1.077a.718.718,0,0,0,.718.718h1.435a.718.718,0,0,0,.718-.718Zm-2.153,1.077V36.718h1.435v1.077Z" transform="translate(-5.129 -21.799)"/><path class="a" d="M24.153,45H22.718a.718.718,0,0,0-.718.718v1.077a.718.718,0,0,0,.718.718h1.435a.718.718,0,0,0,.718-.718V45.718A.718.718,0,0,0,24.153,45Zm-1.435,1.794V45.718h1.435v1.077Z" transform="translate(-12.823 -27.569)"/><path class="a" d="M34.718,29.512h1.435a.718.718,0,0,0,.718-.718V27.718A.718.718,0,0,0,36.153,27H34.718a.718.718,0,0,0-.718.718v1.077A.718.718,0,0,0,34.718,29.512Zm0-1.794h1.435v1.077H34.718Z" transform="translate(-20.517 -16.029)"/><path class="a" d="M34,37.794a.718.718,0,0,0,.718.718.359.359,0,0,0,0-.718V36.718h1.435a.359.359,0,0,0,0-.718H34.718a.718.718,0,0,0-.718.718Z" transform="translate(-20.517 -21.799)"/><path class="a" d="M12.153,45H10.718a.718.718,0,0,0-.718.718v1.077a.718.718,0,0,0,.718.718h1.435a.718.718,0,0,0,.718-.718V45.718A.718.718,0,0,0,12.153,45Zm-1.435,1.794V45.718h1.435v1.077Z" transform="translate(-5.129 -27.569)"/><path class="a" d="M40.665,36a4.665,4.665,0,1,0,4.665,4.665A4.665,4.665,0,0,0,40.665,36Zm0,8.612a3.947,3.947,0,1,1,3.947-3.947A3.947,3.947,0,0,1,40.665,44.612Z" transform="translate(-21.799 -21.799)"/><path class="a" d="M46.43,44.62l-2.791,2.791-1.269-1.269a.359.359,0,1,0-.507.507l1.522,1.523a.359.359,0,0,0,.507,0l3.045-3.045a.359.359,0,1,0-.507-.507Z" transform="translate(-25.491 -27.258)"/></g></svg>