<svg xmlns="http://www.w3.org/2000/svg" width="16.281" height="15.802" viewBox="0 0 16.281 15.802"><defs><style>.a{fill:#fff;}</style></defs><path class="a" d="M61.028,424.662v3.113a.479.479,0,0,1-.479.479h-4.07a.479.479,0,0,1-.479-.479v-3.831a1.915,1.915,0,0,1,1.915-1.915h7.3a1.317,1.317,0,1,1,0,2.634Zm-2.873-3.831a1.915,1.915,0,1,1,1.915-1.915A1.915,1.915,0,0,1,58.155,420.831Zm0,11.971a1.915,1.915,0,1,1,1.915-1.915A1.915,1.915,0,0,1,58.155,432.8Zm5.986,0a1.915,1.915,0,1,1,1.915-1.915A1.915,1.915,0,0,1,64.141,432.8Zm5.986,0a1.915,1.915,0,1,1,1.915-1.915A1.915,1.915,0,0,1,70.126,432.8ZM61.746,418.2a.479.479,0,1,1,0-.958h9.1a1.437,1.437,0,0,1,1.437,1.437V424.9a1.437,1.437,0,0,1-1.437,1.437H68.45a.479.479,0,1,1,0-.958h2.394a.479.479,0,0,0,.479-.479v-6.225a.479.479,0,0,0-.479-.479Z" transform="translate(-56 -417)"/></svg>