<svg xmlns="http://www.w3.org/2000/svg" width="16" height="16" viewBox="0 0 16 16"><defs><style>.a{fill:#fff;}</style></defs><g transform="translate(0 0)"><circle class="a" cx="1" cy="1" r="1" transform="translate(6.999 5.238)"/><path class="a" d="M15.564,6.765l-1.523,0a.437.437,0,0,1-.42-.321,5.8,5.8,0,0,0-.533-1.293.437.437,0,0,1,.072-.524l1.079-1.075a.437.437,0,0,0,0-.618L13.093,1.779a.437.437,0,0,0-.618,0L11.4,2.853a.437.437,0,0,1-.524.07A5.8,5.8,0,0,0,9.58,2.385a.437.437,0,0,1-.319-.421l0-1.523A.437.437,0,0,0,8.828,0L7.2,0a.437.437,0,0,0-.438.436l0,1.523a.437.437,0,0,1-.321.42,5.8,5.8,0,0,0-1.293.533.437.437,0,0,1-.524-.072L3.549,1.761a.437.437,0,0,0-.618,0L1.779,2.907a.437.437,0,0,0,0,.618L2.853,4.6a.437.437,0,0,1,.07.524,5.8,5.8,0,0,0-.538,1.291.437.437,0,0,1-.421.319l-1.523,0A.437.437,0,0,0,0,7.172L0,8.8a.437.437,0,0,0,.436.438l1.523,0a.437.437,0,0,1,.42.321,5.8,5.8,0,0,0,.533,1.293.437.437,0,0,1-.072.524L1.761,12.451a.437.437,0,0,0,0,.618l1.147,1.152a.437.437,0,0,0,.618,0L4.6,13.147a.437.437,0,0,1,.524-.07,5.8,5.8,0,0,0,1.291.538.437.437,0,0,1,.319.421l0,1.523A.437.437,0,0,0,7.172,16L8.8,16a.437.437,0,0,0,.438-.436l0-1.523a.437.437,0,0,1,.321-.42,5.8,5.8,0,0,0,1.293-.533.437.437,0,0,1,.524.072l1.075,1.079a.437.437,0,0,0,.618,0l1.152-1.147a.437.437,0,0,0,0-.618L13.147,11.4a.437.437,0,0,1-.07-.524,5.8,5.8,0,0,0,.538-1.291.437.437,0,0,1,.421-.319l1.523,0A.437.437,0,0,0,16,8.828L16,7.2a.437.437,0,0,0-.436-.438Zm-4.731,3.889a.815.815,0,0,1-.646.315H5.813a.82.82,0,0,1-.8-1.019l.327-1.31A1.872,1.872,0,0,1,6.463,7.354a1.875,1.875,0,1,1,3.073,0A1.872,1.872,0,0,1,10.656,8.64l.327,1.31A.815.815,0,0,1,10.833,10.653Z"/><path class="a" d="M193.752,261h-1.7a.954.954,0,0,0-.927.724l-.3,1.186h4.15l-.3-1.186A.954.954,0,0,0,193.752,261Z" transform="translate(-184.9 -252.864)"/></g></svg>