<svg xmlns="http://www.w3.org/2000/svg" width="13.969" height="13.968" viewBox="0 0 13.969 13.968"><defs><style>.a{fill:#5382fc;stroke:#5382fc;stroke-width:0.1px;}</style></defs><g transform="translate(0.05 0.05)"><path class="a" d="M12.54,18.061a.433.433,0,0,0,0-.867H10.906a.433.433,0,0,0-.433.433v9.514a.433.433,0,0,0,.433.433H20.42a.433.433,0,0,0,.433-.433V25.509a.433.433,0,1,0-.867,0v1.2H11.34V18.061Z" transform="translate(-10.473 -13.706)"/><path class="a" d="M28.469,9.146H18.955a.433.433,0,0,0-.433.433v9.514a.433.433,0,0,0,.433.433h9.514a.433.433,0,0,0,.433-.433V9.579a.433.433,0,0,0-.433-.433Zm-.433,9.514H19.389V10.013h8.647V18.66Z" transform="translate(-15.034 -9.146)"/></g></svg>