<svg xmlns="http://www.w3.org/2000/svg" width="21.646" height="21.646" viewBox="0 0 21.646 21.646"><defs><style>.a{fill:#2c6eb5;}</style></defs><path class="a" d="M13.7,18.547a.676.676,0,1,0,0-1.353h-2.55a.676.676,0,0,0-.676.676V32.719a.676.676,0,0,0,.676.676H26a.676.676,0,0,0,.676-.676V30.172a.676.676,0,1,0-1.353,0v1.87h-13.5v-13.5Z" transform="translate(-10.473 -11.75)"/><path class="a" d="M34.048,9.146H19.2a.676.676,0,0,0-.676.676V24.671a.676.676,0,0,0,.676.676H34.047a.676.676,0,0,0,.676-.676V9.822a.675.675,0,0,0-.676-.676Zm-.676,14.849h-13.5V10.5h13.5v13.5Z" transform="translate(-13.077 -9.146)"/></svg>