<svg xmlns="http://www.w3.org/2000/svg" width="16" height="16.002" viewBox="0 0 16 16.002"><defs><style>.a{fill:#fff;}</style></defs><g transform="translate(-0.024)"><g transform="translate(6.584)"><path class="a" d="M211.939,0a1.935,1.935,0,0,0-1.91,1.91,1.935,1.935,0,0,0,1.91,1.91,1.911,1.911,0,0,0,0-3.821Z" transform="translate(-210.029)"/></g><g transform="translate(5.644 3.811)"><path class="a" d="M184.964,122a2.8,2.8,0,0,1-2.085.939,2.87,2.87,0,0,1-2.117-.939,2.8,2.8,0,0,0-.733,1.879v.47a.469.469,0,0,0,.47.47h4.729a.469.469,0,0,0,.47-.47v-.47A2.8,2.8,0,0,0,184.964,122Z" transform="translate(-180.029 -122)"/></g><g transform="translate(0.024 9.066)"><path class="a" d="M4.563,295.851l-2.394-4.8a.939.939,0,0,0-1.258-.423l-.626.31a.47.47,0,0,0-.211.631l2.819,5.637a.47.47,0,0,0,.629.211l.618-.306A.94.94,0,0,0,4.563,295.851Z" transform="translate(-0.024 -290.532)"/></g><g transform="translate(2.779 7.373)"><path class="a" d="M101.878,236.83a.937.937,0,0,0-1.24.122l-2.568,3.157a1.135,1.135,0,0,1-.7.3H95.186a.47.47,0,1,1,0-.939h1.879a.94.94,0,0,0,0-1.879H94.6c-.234,0-.351-.148-.536-.31a3.269,3.269,0,0,0-2.916-.714,3.427,3.427,0,0,0-1.442.72l-.014-.011-.679.6,2.67,5.354h5.379A2.83,2.83,0,0,0,99.32,242.1l2.756-3.946A.947.947,0,0,0,101.878,236.83Z" transform="translate(-89.016 -236.479)"/></g></g></svg>