<svg xmlns="http://www.w3.org/2000/svg" width="8.593" height="9.268" viewBox="0 0 8.593 9.268"><defs><style>.a,.b,.c{fill:none;stroke:#ff2c2c;stroke-width:0.5px;}.a,.b{fill-rule:evenodd;}.b{stroke-linecap:round;}</style></defs><g transform="translate(0.25 0.25)"><path class="a" d="M5.5,7.5v5.62a.674.674,0,0,0,.674.674H11.12a.674.674,0,0,0,.674-.674V7.5Z" transform="translate(-4.601 -5.027)"/><path class="b" d="M8.5,10.41v3.678" transform="translate(-6.252 -6.629)"/><path class="b" d="M12.5,10.41v3.678" transform="translate(-8.453 -6.629)"/><path class="b" d="M16.5,10.41v3.678" transform="translate(-10.655 -6.629)"/><path class="b" d="M9,3.049v-.49A.6.6,0,0,1,9.629,2h1.888a.6.6,0,0,1,.629.559v.49" transform="translate(-6.527 -2)"/><rect class="c" width="8.093" height="1.349" rx="0.674" transform="translate(0 1.124)"/></g></svg>