<svg xmlns="http://www.w3.org/2000/svg" width="11.781" height="12.696" viewBox="0 0 11.781 12.696"><defs><style>.a,.b,.c{fill:none;stroke:#5382fc;stroke-width:0.8px;}.a,.b{fill-rule:evenodd;}.b{stroke-linecap:round;}</style></defs><g transform="translate(0.4 0.4)"><path class="a" d="M5.5,7.5v7.626a.915.915,0,0,0,.915.915h6.711a.915.915,0,0,0,.915-.915V7.5Z" transform="translate(-4.28 -4.145)"/><path class="b" d="M8.5,10.41V15.4" transform="translate(-5.45 -5.279)"/><path class="b" d="M12.5,10.41V15.4" transform="translate(-7.009 -5.279)"/><path class="b" d="M16.5,10.41V15.4" transform="translate(-8.569 -5.279)"/><path class="b" d="M9,3.423V2.759A.811.811,0,0,1,9.854,2h2.562a.811.811,0,0,1,.854.759v.665" transform="translate(-5.645 -2)"/><rect class="c" width="10.981" height="1.83" rx="0.915" transform="translate(0 1.525)"/></g></svg>