<svg xmlns="http://www.w3.org/2000/svg" width="14.013" height="16.219" viewBox="0 0 14.013 16.219"><defs><style>.a{fill:#fff;}</style></defs><g transform="translate(-34.007)"><g transform="translate(37.844)"><g transform="translate(0)"><path class="a" d="M155.473,0A3.173,3.173,0,0,0,152.3,3.169V4.811a3.169,3.169,0,1,0,6.338,0V3.169A3.173,3.173,0,0,0,155.473,0Z" transform="translate(-152.304)"/></g></g><g transform="translate(34.007 8.495)"><g transform="translate(0)"><path class="a" d="M48,265.511a8.038,8.038,0,0,0-4.567-3.61.126.126,0,0,0-.127.031,13.232,13.232,0,0,1-2.293,1.743,16.464,16.464,0,0,1-2.3-1.743.126.126,0,0,0-.127-.031,8.036,8.036,0,0,0-4.567,3.61.127.127,0,0,0,0,.128,8.127,8.127,0,0,0,13.978,0A.127.127,0,0,0,48,265.511Zm-2.679.945a.133.133,0,0,1-.136.123h-.858a.148.148,0,0,0-.146.13v.888a.109.109,0,0,1-.107.123H43.3a.132.132,0,0,1-.136-.123v-.888a.123.123,0,0,0-.118-.13h-.9a.125.125,0,0,1-.128-.123v-.764a.127.127,0,0,1,.128-.126h.9a.12.12,0,0,0,.118-.127v-.889a.134.134,0,0,1,.136-.125h.763a.117.117,0,0,1,.116.125v.891a.135.135,0,0,0,.138.124h.867a.137.137,0,0,1,.136.129Z" transform="translate(-34.007 -261.896)"/></g></g></g></svg>