<svg xmlns="http://www.w3.org/2000/svg" width="11.563" height="11.563" viewBox="0 0 11.563 11.563"><defs><style>.a{fill:#5382fc;}</style></defs><path class="a" d="M13.2,2.32a1.92,1.92,0,0,1,0,2.715l-7.09,7.09a2.4,2.4,0,0,1-1.115.631l-2.2.55a.48.48,0,0,1-.582-.582l.55-2.2A2.4,2.4,0,0,1,3.392,9.41l7.09-7.09A1.92,1.92,0,0,1,13.2,2.32ZM9.8,4.356,4.071,10.088a1.44,1.44,0,0,0-.379.669L3.336,12.18l1.423-.356a1.44,1.44,0,0,0,.669-.379L11.16,5.713ZM11.161,3l-.679.679,1.357,1.357.679-.679A.96.96,0,0,0,11.161,3Z" transform="translate(-2.196 -1.757)"/></svg>