<svg xmlns="http://www.w3.org/2000/svg" width="18.51" height="13.041" viewBox="0 0 18.51 13.041"><defs><style>.a{fill:#fff;}</style></defs><g transform="translate(-2 -8.5)"><path class="a" d="M3.683,8.5a1.653,1.653,0,0,0-.409.057L10.691,16.2a.836.836,0,0,0,1.128,0l7.46-7.628a1.649,1.649,0,0,0-.453-.071Zm-1.171.481A1.675,1.675,0,0,0,2,10.183v9.676a1.664,1.664,0,0,0,.26.887L7.579,14.2Zm17.516.029-5.089,5.2,5.3,6.548a1.665,1.665,0,0,0,.269-.9V10.183A1.675,1.675,0,0,0,20.028,9.009Zm-11.859,5.8L2.874,21.323a1.657,1.657,0,0,0,.808.218H18.827a1.657,1.657,0,0,0,.794-.21l-5.275-6.513-1.925,1.969a1.641,1.641,0,0,1-2.333,0Z"/></g></svg>