<svg xmlns="http://www.w3.org/2000/svg" width="18.625" height="17.073" viewBox="0 0 18.625 17.073"><defs><style>.a{fill:#b1f1fe;}.b{fill:#2e53bf;}</style></defs><g transform="translate(-416.688 -94.464)"><path class="a" d="M1,0H9.1a1,1,0,0,1,1,1V7.5a2,2,0,0,1-2,2H1a1,1,0,0,1-1-1V1A1,1,0,0,1,1,0Z" transform="translate(416.9 101.9)"/><rect class="a" width="18.1" height="3.5" rx="1" transform="translate(416.9 95.1)"/><g transform="translate(416.688 94.464)"><g transform="translate(12.417 6.984)"><path class="b" d="M21.82,9.776H16.388a.388.388,0,1,1,0-.776H21.82a.388.388,0,0,1,0,.776Z" transform="translate(-16 -9)"/></g><g transform="translate(12.417 9.313)"><path class="b" d="M21.82,12.776H16.388a.388.388,0,1,1,0-.776H21.82a.388.388,0,0,1,0,.776Z" transform="translate(-16 -12)"/></g><g transform="translate(12.417 11.641)"><path class="b" d="M21.82,15.776H16.388a.388.388,0,1,1,0-.776H21.82a.388.388,0,0,1,0,.776Z" transform="translate(-16 -15)"/></g><g transform="translate(12.417 13.969)"><path class="b" d="M21.82,18.776H16.388a.388.388,0,0,1,0-.776H21.82a.388.388,0,0,1,0,.776Z" transform="translate(-16 -18)"/></g><g transform="translate(12.417 16.297)"><path class="b" d="M21.82,21.776H16.388a.388.388,0,0,1,0-.776H21.82a.388.388,0,0,1,0,.776Z" transform="translate(-16 -21)"/></g><g transform="translate(0 6.984)"><path class="b" d="M9.7,19.089H1.164A1.165,1.165,0,0,1,0,17.924v-7.76A1.165,1.165,0,0,1,1.164,9H9.7a1.165,1.165,0,0,1,1.164,1.164v7.76A1.165,1.165,0,0,1,9.7,19.089ZM1.164,9.776a.389.389,0,0,0-.388.388v7.76a.389.389,0,0,0,.388.388H9.7a.389.389,0,0,0,.388-.388v-7.76A.389.389,0,0,0,9.7,9.776Z" transform="translate(0 -9)"/></g><path class="b" d="M17.461,4.656H1.164A1.165,1.165,0,0,1,0,3.492V1.164A1.165,1.165,0,0,1,1.164,0h16.3a1.165,1.165,0,0,1,1.164,1.164V3.492A1.165,1.165,0,0,1,17.461,4.656ZM1.164.776a.389.389,0,0,0-.388.388V3.492a.389.389,0,0,0,.388.388h16.3a.389.389,0,0,0,.388-.388V1.164a.389.389,0,0,0-.388-.388Z"/><g transform="translate(3.104 9.313)"><g transform="translate(1.164)"><path class="b" d="M6.664,14.328a1.164,1.164,0,1,1,1.164-1.164A1.165,1.165,0,0,1,6.664,14.328Zm0-1.552a.388.388,0,1,0,.388.388A.389.389,0,0,0,6.664,12.776Z" transform="translate(-5.5 -12)"/></g><g transform="translate(0 3.104)"><path class="b" d="M8.268,18.328a.388.388,0,0,1-.388-.388v-.388a.776.776,0,0,0-.776-.776H5.552a.776.776,0,0,0-.776.776v.388a.388.388,0,0,1-.776,0v-.388A1.554,1.554,0,0,1,5.552,16H7.1a1.554,1.554,0,0,1,1.552,1.552v.388A.388.388,0,0,1,8.268,18.328Z" transform="translate(-4 -16)"/></g></g></g></g></svg>