<svg xmlns="http://www.w3.org/2000/svg" width="18.991" height="18.991" viewBox="0 0 18.991 18.991"><defs><style>.a{fill:#b1f1fe;}.b{fill:#fff;}.c{fill:#2e53bf;stroke:#2e53bf;stroke-width:0.1px;}</style></defs><g transform="translate(-437.505 -191.905)"><path class="a" d="M1,0H17.1a1,1,0,0,1,1,1V13a2,2,0,0,1-2,2H1a1,1,0,0,1-1-1V1A1,1,0,0,1,1,0Z" transform="translate(438 194.301)"/><circle class="b" cx="3.6" cy="3.6" r="3.6" transform="translate(448.8 203.199)"/><g transform="translate(435.555 189.955)"><path class="c" d="M19.316,3.889H17.742v-.63a1.259,1.259,0,1,0-2.519,0v.63H12.7v-.63a1.259,1.259,0,1,0-2.519,0v.63H7.667v-.63a1.259,1.259,0,0,0-2.519,0v.63H3.574A1.574,1.574,0,0,0,2,5.463V18.057a1.574,1.574,0,0,0,1.574,1.574H12.39a.315.315,0,1,0,0-.63H3.574a.947.947,0,0,1-.945-.945V8.3H20.261v5.352a.315.315,0,1,0,.63,0V5.463a1.574,1.574,0,0,0-1.574-1.574Zm-3.463-.63a.63.63,0,1,1,1.259,0V5.148a.63.63,0,1,1-1.259,0Zm-5.038,0a.63.63,0,1,1,1.259,0V5.148a.63.63,0,1,1-1.259,0Zm-5.037,0a.63.63,0,1,1,1.259,0V5.148a.63.63,0,0,1-1.259,0ZM20.261,7.667H2.63v-2.2a.947.947,0,0,1,.945-.945H5.148v.63a1.259,1.259,0,0,0,2.519,0v-.63h2.519v.63a1.259,1.259,0,1,0,2.519,0v-.63h2.519v.63a1.259,1.259,0,1,0,2.519,0v-.63h1.574a.947.947,0,0,1,.945.945Z" transform="translate(0)"/><path class="c" d="M24.519,27.63a.63.63,0,0,0-.63-.63H22.63a.63.63,0,0,0-.63.63v.945a.63.63,0,0,0,.63.63h1.259a.63.63,0,0,0,.63-.63Zm-1.889.945V27.63h1.259v.945Z" transform="translate(-13.703 -17.129)"/><path class="c" d="M12.519,27.63a.63.63,0,0,0-.63-.63H10.63a.63.63,0,0,0-.63.63v.945a.63.63,0,0,0,.63.63h1.259a.63.63,0,0,0,.63-.63Zm-1.889.945V27.63h1.259v.945Z" transform="translate(-5.481 -17.129)"/><path class="c" d="M47.889,29.2a.63.63,0,0,0,.63-.63V27.63a.63.63,0,0,0-.63-.63H46.63a.63.63,0,0,0-.63.63v.945a.63.63,0,0,0,.63.63ZM46.63,27.63h1.259v.945H46.63Z" transform="translate(-30.147 -17.129)"/><path class="c" d="M24.519,36.63a.63.63,0,0,0-.63-.63H22.63a.63.63,0,0,0-.63.63v.945a.63.63,0,0,0,.63.63h1.259a.63.63,0,0,0,.63-.63Zm-1.889.945V36.63h1.259v.945Z" transform="translate(-13.703 -23.295)"/><path class="c" d="M12.519,36.63a.63.63,0,0,0-.63-.63H10.63a.63.63,0,0,0-.63.63v.945a.63.63,0,0,0,.63.63h1.259a.63.63,0,0,0,.63-.63Zm-1.889.945V36.63h1.259v.945Z" transform="translate(-5.481 -23.295)"/><path class="c" d="M23.889,45H22.63a.63.63,0,0,0-.63.63v.945a.63.63,0,0,0,.63.63h1.259a.63.63,0,0,0,.63-.63V45.63A.63.63,0,0,0,23.889,45ZM22.63,46.574V45.63h1.259v.945Z" transform="translate(-13.703 -29.462)"/><path class="c" d="M34.63,29.2h1.259a.63.63,0,0,0,.63-.63V27.63a.63.63,0,0,0-.63-.63H34.63a.63.63,0,0,0-.63.63v.945A.63.63,0,0,0,34.63,29.2Zm0-1.574h1.259v.945H34.63Z" transform="translate(-21.925 -17.129)"/><path class="c" d="M34,37.574a.63.63,0,0,0,.63.63.315.315,0,0,0,0-.63V36.63h1.259a.315.315,0,1,0,0-.63H34.63a.63.63,0,0,0-.63.63Z" transform="translate(-21.925 -23.295)"/><path class="c" d="M11.889,45H10.63a.63.63,0,0,0-.63.63v.945a.63.63,0,0,0,.63.63h1.259a.63.63,0,0,0,.63-.63V45.63A.63.63,0,0,0,11.889,45ZM10.63,46.574V45.63h1.259v.945Z" transform="translate(-5.481 -29.462)"/><path class="c" d="M45.857,44.607l-2.449,2.449L42.3,45.943a.315.315,0,1,0-.445.445l1.336,1.336a.315.315,0,0,0,.445,0L46.3,45.052a.315.315,0,1,0-.445-.445Z" transform="translate(-27.24 -29.129)"/><path class="c" d="M40.093,36a4.093,4.093,0,1,0,4.093,4.093A4.093,4.093,0,0,0,40.093,36Zm0,7.556a3.463,3.463,0,1,1,3.463-3.463,3.463,3.463,0,0,1-3.463,3.463Z" transform="translate(-23.295 -23.295)"/></g></g></svg>