<svg xmlns="http://www.w3.org/2000/svg" width="18.139" height="19.567" viewBox="0 0 18.139 19.567"><defs><style>.a,.b,.c{fill:none;stroke:#2c6eb5;}.a,.b{fill-rule:evenodd;}.b{stroke-linecap:round;}</style></defs><g transform="translate(0.5 0.5)"><path class="a" d="M5.5,7.5V19.4A1.428,1.428,0,0,0,6.928,20.83H17.4A1.428,1.428,0,0,0,18.83,19.4V7.5Z" transform="translate(-3.596 -2.263)"/><path class="b" d="M8.5,10.41V18.2" transform="translate(-3.739 -2.402)"/><path class="b" d="M12.5,10.41V18.2" transform="translate(-3.931 -2.402)"/><path class="b" d="M16.5,10.41V18.2" transform="translate(-4.122 -2.402)"/><path class="b" d="M9,4.221V3.184A1.266,1.266,0,0,1,10.333,2h4a1.266,1.266,0,0,1,1.333,1.184V4.222" transform="translate(-3.763 -2)"/><rect class="c" width="17.139" height="2.856" rx="1.428" transform="translate(0 2.38)"/></g></svg>