<svg xmlns="http://www.w3.org/2000/svg" width="18.992" height="19.027" viewBox="0 0 18.992 19.027"><defs><style>.a{fill:#72748f;stroke:#72748f;stroke-width:0.2px;}</style></defs><g transform="translate(-0.374 0.1)"><path class="a" d="M359.944,81.951h1.415a.276.276,0,1,0,0-.552h-1.415a.276.276,0,1,0,0,.552Z" transform="translate(-345.974 -78.403)"/><path class="a" d="M17.937,81.4H16.561a.276.276,0,0,0,0,.552h1.375a.778.778,0,0,1,.777.777V92.49H3.869a.276.276,0,0,0,0,.552H18.714v.3a.778.778,0,0,1-.777.777H1.8a.778.778,0,0,1-.777-.777v-.3H2.693a.276.276,0,0,0,0-.552H1.026V82.728a.778.778,0,0,1,.777-.777H5.77a.276.276,0,0,0,0-.552H1.8A1.331,1.331,0,0,0,.474,82.728V93.339A1.331,1.331,0,0,0,1.8,94.669h4.57v1.078l-.695.931H5.346a.276.276,0,1,0,0,.552h9.126a.276.276,0,1,0,0-.552H14.1l-.695-.931V94.669h4.533a1.331,1.331,0,0,0,1.329-1.329V82.728A1.331,1.331,0,0,0,17.937,81.4ZM12.906,96l.5.675H6.368l.5-.675a.276.276,0,0,0,.055-.165V94.669h5.925v1.169A.276.276,0,0,0,12.906,96Z" transform="translate(0 -78.403)"/><path class="a" d="M170.142,6.544a3.272,3.272,0,1,0-3.272-3.272A3.276,3.276,0,0,0,170.142,6.544Zm0-5.992a2.72,2.72,0,1,1-2.72,2.72,2.723,2.723,0,0,1,2.72-2.72Z" transform="translate(-160.272)"/><path class="a" d="M218.934,63.923a.276.276,0,0,0,.377-.006l1.963-1.9a.276.276,0,1,0-.383-.4l-1.777,1.716-.553-.5a.276.276,0,1,0-.371.409Z" transform="translate(-209.616 -59.283)"/><path class="a" d="M98.524,209.662h7.766a.276.276,0,0,0,0-.552H98.524a.72.72,0,0,0-.719.719v1.631a.72.72,0,0,0,.719.719h4.535a.276.276,0,0,0,0-.552H98.524a.167.167,0,0,1-.167-.167v-1.631A.167.167,0,0,1,98.524,209.662Z" transform="translate(-93.749 -201.414)"/><path class="a" d="M353.075,209.662h1.248a.167.167,0,0,1,.167.167v1.631a.167.167,0,0,1-.167.167h-1.055a.276.276,0,0,0,0,.552h1.055a.72.72,0,0,0,.719-.719v-1.631a.72.72,0,0,0-.719-.719h-1.248a.276.276,0,0,0,0,.552Z" transform="translate(-339.358 -201.414)"/><path class="a" d="M263.253,265.391a.443.443,0,0,0-.306-.359l-2.081-.663a.446.446,0,0,0-.58.4l-.127,2.18a.446.446,0,0,0,.7.393l.412-.283.506.736a.436.436,0,0,0,.607.113l.665-.457a.437.437,0,0,0,.113-.607l-.506-.736.412-.283A.443.443,0,0,0,263.253,265.391Zm-1.089,2-.6-.868a.276.276,0,0,0-.177-.115.272.272,0,0,0-.05,0,.276.276,0,0,0-.156.048l-.46.316.107-1.826,1.743.555-.46.316a.276.276,0,0,0-.071.384l.6.869Z" transform="translate(-250.127 -254.619)"/></g></svg>