<svg xmlns="http://www.w3.org/2000/svg" width="16.688" height="15.298" viewBox="0 0 16.688 15.298"><defs><style>.a{fill:#72748f;}</style></defs><g transform="translate(-416.688 -94.464)"><g transform="translate(416.688 94.464)"><g transform="translate(11.125 6.258)"><path class="a" d="M21.215,9.7H16.348a.348.348,0,1,1,0-.7h4.867a.348.348,0,0,1,0,.7Z" transform="translate(-16 -9)"/></g><g transform="translate(11.125 8.344)"><path class="a" d="M21.215,12.7H16.348a.348.348,0,0,1,0-.7h4.867a.348.348,0,0,1,0,.7Z" transform="translate(-16 -12)"/></g><g transform="translate(11.125 10.43)"><path class="a" d="M21.215,15.7H16.348a.348.348,0,1,1,0-.7h4.867a.348.348,0,0,1,0,.7Z" transform="translate(-16 -15)"/></g><g transform="translate(11.125 12.516)"><path class="a" d="M21.215,18.7H16.348a.348.348,0,0,1,0-.7h4.867a.348.348,0,0,1,0,.7Z" transform="translate(-16 -18)"/></g><g transform="translate(11.125 14.602)"><path class="a" d="M21.215,21.7H16.348a.348.348,0,0,1,0-.7h4.867a.348.348,0,0,1,0,.7Z" transform="translate(-16 -21)"/></g><g transform="translate(0 6.258)"><path class="a" d="M8.692,18.039H1.043A1.044,1.044,0,0,1,0,17V10.043A1.044,1.044,0,0,1,1.043,9H8.692a1.044,1.044,0,0,1,1.043,1.043V17A1.044,1.044,0,0,1,8.692,18.039ZM1.043,9.7a.349.349,0,0,0-.348.348V17a.349.349,0,0,0,.348.348H8.692A.349.349,0,0,0,9.039,17V10.043A.349.349,0,0,0,8.692,9.7Z" transform="translate(0 -9)"/></g><path class="a" d="M15.645,4.172H1.043A1.044,1.044,0,0,1,0,3.129V1.043A1.044,1.044,0,0,1,1.043,0h14.6a1.044,1.044,0,0,1,1.043,1.043V3.129A1.044,1.044,0,0,1,15.645,4.172ZM1.043.7A.349.349,0,0,0,.7,1.043V3.129a.349.349,0,0,0,.348.348h14.6a.349.349,0,0,0,.348-.348V1.043A.349.349,0,0,0,15.645.7Z"/><g transform="translate(2.781 8.344)"><g transform="translate(1.043)"><path class="a" d="M6.543,14.086a1.043,1.043,0,1,1,1.043-1.043A1.044,1.044,0,0,1,6.543,14.086Zm0-1.391a.348.348,0,1,0,.348.348A.349.349,0,0,0,6.543,12.7Z" transform="translate(-5.5 -12)"/></g><g transform="translate(0 2.781)"><path class="a" d="M7.824,18.086a.348.348,0,0,1-.348-.348v-.348a.7.7,0,0,0-.7-.7H5.391a.7.7,0,0,0-.7.7v.348a.348.348,0,0,1-.7,0v-.348A1.392,1.392,0,0,1,5.391,16H6.781a1.392,1.392,0,0,1,1.391,1.391v.348A.348.348,0,0,1,7.824,18.086Z" transform="translate(-4 -16)"/></g></g></g></g></svg>