<svg xmlns="http://www.w3.org/2000/svg" width="14.001" height="15.93" viewBox="0 0 14.001 15.93"><defs><style>.a{fill:#71748e;}</style></defs><g transform="translate(-419 -421.035)"><g transform="translate(388.001 421.035)"><path class="a" d="M42.822,8.178V6.689A4.831,4.831,0,0,0,39.4,2.074V1.4a1.4,1.4,0,0,0-2.8,0v.674a4.831,4.831,0,0,0-3.422,4.615V8.178a7.328,7.328,0,0,1-2.048,5.095.467.467,0,0,0,.337.79h4.247a2.334,2.334,0,0,0,4.573,0h4.247a.467.467,0,0,0,.337-.79A7.328,7.328,0,0,1,42.822,8.178ZM37.533,1.4a.467.467,0,0,1,.933,0v.489c-.154-.015-.309-.023-.467-.023s-.313.008-.467.023ZM38,15a1.4,1.4,0,0,1-1.32-.933h2.64A1.4,1.4,0,0,1,38,15ZM32.471,13.13A8.251,8.251,0,0,0,34.11,8.178V6.689a3.889,3.889,0,1,1,7.778,0V8.178a8.251,8.251,0,0,0,1.639,4.951Z" transform="translate(0)"/><path class="a" d="M391.406,56.594a.467.467,0,0,0,.933,0,6.955,6.955,0,0,0-2.05-4.95.467.467,0,0,0-.66.66A6.027,6.027,0,0,1,391.406,56.594Z" transform="translate(-347.34 -49.904)"/><path class="a" d="M31.467,57.061a.467.467,0,0,0,.467-.467A6.027,6.027,0,0,1,33.71,52.3a.467.467,0,0,0-.66-.66A6.955,6.955,0,0,0,31,56.594.467.467,0,0,0,31.467,57.061Z" transform="translate(-0.001 -49.905)"/></g></g></svg>