<svg xmlns="http://www.w3.org/2000/svg" width="44.634" height="24.908" viewBox="0 0 44.634 24.908">
  <g id="Group_10718" data-name="Group 10718" transform="translate(3749.74 -12079)">
    <path id="Path_12234" data-name="Path 12234" d="M155.352,112.158a5.413,5.413,0,1,0,5.413,5.413A5.419,5.419,0,0,0,155.352,112.158Z" transform="translate(-3882.775 11969.792)" fill="#1c6afc"/>
    <g id="Group_10717" data-name="Group 10717" transform="translate(-3735.912 12094.76)">
      <path id="Path_12235" data-name="Path 12235" d="M147.817,183.4a11.307,11.307,0,0,0-12.138,0,6.585,6.585,0,0,0-2.419,5.492c0,.678,2.836,1.89,8.488,1.89s8.488-1.212,8.488-1.89A6.585,6.585,0,0,0,147.817,183.4Z" transform="translate(-133.26 -181.634)" fill="#1c6afc"/>
    </g>
    <path id="Path_12236" data-name="Path 12236" d="M74.167,169.915c.132-.1.271-.2.412-.3a5.969,5.969,0,0,0-1.762-2.218,9.758,9.758,0,0,0-6.069-1.767,9.757,9.757,0,0,0-6.069,1.767,6.585,6.585,0,0,0-2.419,5.492c0,.678,2.836,1.89,8.488,1.89a29.175,29.175,0,0,0,4.888-.369A6.734,6.734,0,0,1,74.167,169.915Z" transform="translate(-3808 11926.176)" fill="#1c6afc"/>
    <path id="Path_12237" data-name="Path 12237" d="M225.735,167.4a11.307,11.307,0,0,0-12.138,0,5.964,5.964,0,0,0-1.76,2.219c.141.095.279.193.41.3a6.734,6.734,0,0,1,2.53,4.5,29.171,29.171,0,0,0,4.888.369c5.652,0,8.488-1.212,8.488-1.89A6.585,6.585,0,0,0,225.735,167.4Z" transform="translate(-3933.26 11926.176)" fill="#1c6afc"/>
    <path id="Path_12238" data-name="Path 12238" d="M80.352,96.158a5.413,5.413,0,1,0,5.413,5.413A5.419,5.419,0,0,0,80.352,96.158Z" transform="translate(-3821.604 11982.842)" fill="#1c6afc"/>
    <path id="Path_12239" data-name="Path 12239" d="M230.352,96.158a5.413,5.413,0,1,0,5.413,5.413A5.419,5.419,0,0,0,230.352,96.158Z" transform="translate(-3943.947 11982.842)" fill="#1c6afc"/>
  </g>
</svg>
