<svg xmlns="http://www.w3.org/2000/svg" width="165.164" height="64.072" viewBox="0 0 165.164 64.072"><defs><style>.a{fill:#b1f1fe;}.b,.c{fill:#2e53bf;}.c{stroke:#2e53bf;stroke-width:0.5px;}.d{fill:#fff;}</style></defs><g transform="translate(-1204.43 -447.928)"><circle class="a" cx="10" cy="10" r="10" transform="translate(1215.5 450)"/><g transform="translate(1204.43 447.928)"><g transform="translate(0)"><path class="b" d="M35.972,27.244a20.991,20.991,0,0,0-8.007-5.023,12.182,12.182,0,1,0-13.785,0A21.105,21.105,0,0,0,0,42.144H3.292a17.78,17.78,0,1,1,35.559,0h3.293A20.935,20.935,0,0,0,35.972,27.244Zm-14.9-6.172a8.89,8.89,0,1,1,8.89-8.89A8.9,8.9,0,0,1,21.072,21.072Z" transform="translate(0)"/></g></g><g transform="translate(1253.159 461.098)"><g transform="translate(0)"><path class="c" d="M22.676,68.335a1.151,1.151,0,0,0-1.627,0L7.263,82.12l-5.3-5.3A1.151,1.151,0,1,0,.337,78.449l6.113,6.113a1.151,1.151,0,0,0,1.627,0l14.6-14.6A1.151,1.151,0,0,0,22.676,68.335Z" transform="translate(0 -67.997)"/></g></g><circle class="a" cx="10" cy="10" r="10" transform="translate(1294.5 450)"/><g transform="translate(1283.45 447.928)"><path class="b" d="M6.172,27.244a20.991,20.991,0,0,1,8.007-5.023,12.182,12.182,0,1,1,13.785,0A21.105,21.105,0,0,1,42.144,42.144H38.852a17.78,17.78,0,1,0-35.559,0H0A20.935,20.935,0,0,1,6.172,27.244Zm14.9-6.172a8.89,8.89,0,1,0-8.89-8.89A8.9,8.9,0,0,0,21.072,21.072Z" transform="translate(0)"/></g><g transform="translate(44)"><circle class="a" cx="10" cy="10" r="10" transform="translate(1294.5 450)"/><g transform="translate(1283.45 447.928)"><path class="b" d="M6.172,27.244a20.991,20.991,0,0,1,8.007-5.023,12.182,12.182,0,1,1,13.785,0A21.105,21.105,0,0,1,42.144,42.144H38.852a17.78,17.78,0,1,0-35.559,0H0A20.935,20.935,0,0,1,6.172,27.244Zm14.9-6.172a8.89,8.89,0,1,0-8.89-8.89A8.9,8.9,0,0,0,21.072,21.072Z" transform="translate(0)"/></g></g><circle class="d" cx="21" cy="21" r="21" transform="translate(1304.4 470)"/><g transform="translate(21)"><circle class="a" cx="10" cy="10" r="10" transform="translate(1294.5 450)"/><g transform="translate(1283.45 447.928)"><path class="b" d="M6.172,27.244a20.991,20.991,0,0,1,8.007-5.023,12.182,12.182,0,1,1,13.785,0A21.105,21.105,0,0,1,42.144,42.144H38.852a17.78,17.78,0,1,0-35.559,0H0A20.935,20.935,0,0,1,6.172,27.244Zm14.9-6.172a8.89,8.89,0,1,0-8.89-8.89A8.9,8.9,0,0,0,21.072,21.072Z" transform="translate(0)"/></g></g></g></svg>