<svg xmlns="http://www.w3.org/2000/svg" width="30.376" height="24.811" viewBox="0 0 30.376 24.811"><defs><style>.a{fill:#1ebcd4;}.b{fill:#fff;}</style></defs><g transform="translate(0 0)"><circle class="a" cx="4.423" cy="4.423" r="4.423" transform="translate(20.632 7.574)"/><g transform="translate(0 0)"><g transform="translate(19.917 17.464)"><g transform="translate(0 0)"><path class="b" d="M336.744,341.428a.593.593,0,0,0-.839.009l-.017.017a.593.593,0,0,0,.848.83l.017-.017A.593.593,0,0,0,336.744,341.428Z" transform="translate(-335.718 -341.258)"/></g></g><g transform="translate(22.392 9.243)"><g transform="translate(0 0)"><path class="b" d="M382.359,204.872h-1.577V203.3a.593.593,0,1,0-1.187,0v1.577h-1.577a.593.593,0,0,0,0,1.187H379.6v1.577a.593.593,0,1,0,1.187,0v-1.577h1.577a.593.593,0,1,0,0-1.187Z" transform="translate(-377.426 -202.702)"/></g></g><g transform="translate(0 0)"><path class="b" d="M27.095,54.059a8.177,8.177,0,0,0-8.042-7.16,7.93,7.93,0,0,0-5.467,2.166A7.93,7.93,0,0,0,8.119,46.9,8.227,8.227,0,0,0,0,55.211a7.276,7.276,0,0,0,.79,3.041h-.2a.593.593,0,0,0,0,1.187h.828a33.608,33.608,0,0,0,5.25,6.385,76.476,76.476,0,0,0,6.554,5.764.593.593,0,0,0,.721,0c.025-.019,2.536-1.945,5.319-4.569a.593.593,0,0,0-.814-.863c-2.122,2-4.082,3.588-4.866,4.208A76.054,76.054,0,0,1,7.5,64.974a35.289,35.289,0,0,1-4.684-5.535H8.127a.593.593,0,0,0,.57-.43L9.734,55.4l2.871,9.2a.593.593,0,0,0,1.133,0l1.59-5.095h2.649a.593.593,0,1,0,0-1.187H14.89a.593.593,0,0,0-.566.417l-1.153,3.7-2.894-9.273a.593.593,0,0,0-1.137.013L7.68,58.252H2.113a6.747,6.747,0,0,1-.927-3.041,7.039,7.039,0,0,1,6.932-7.126,6.783,6.783,0,0,1,5.031,2.224.593.593,0,0,0,.872,0,6.783,6.783,0,0,1,5.031-2.224,6.976,6.976,0,0,1,6.783,5.644,5.222,5.222,0,1,0,1.259.329Zm-1.94,8.881a4.034,4.034,0,1,1,4.034-4.034A4.039,4.039,0,0,1,25.155,62.94Z" transform="translate(0 -46.899)"/></g></g></g></svg>