<svg xmlns="http://www.w3.org/2000/svg" width="27.973" height="27.96" viewBox="0 0 27.973 27.96"><defs><style>.a{fill:#fff;}</style></defs><g transform="translate(0 0)"><path class="a" d="M28.521,28.083H25.363V18.609a.451.451,0,0,0-.9,0v9.474H19.046V19.511a1.329,1.329,0,0,0-1.353-1.353H12.279a1.329,1.329,0,0,0-1.353,1.353v5.5a.451.451,0,1,0,.9,0v-5.5a.426.426,0,0,1,.451-.451h5.414a.426.426,0,0,1,.451.451v8.572H11.828V26.73a.451.451,0,1,0-.9,0v1.353H5.512V15a.426.426,0,0,0-.451-.451H2.218a.321.321,0,0,1-.226-.541l1.579-1.579A.447.447,0,0,0,2.94,11.8L1.361,13.376a1.188,1.188,0,0,0-.271,1.308,1.229,1.229,0,0,0,1.128.767H4.609V28.083H4.158a.451.451,0,0,0,0,.9H28.521a.451.451,0,1,0,0-.9ZM6.775,9.27l6.948-6.9a1.826,1.826,0,0,1,2.527,0l11.73,11.64c.271.316.045.541-.226.541H24.912A.426.426,0,0,0,24.46,15v1.8a.451.451,0,0,0,.9,0V15.451h2.391a1.229,1.229,0,0,0,1.128-.767,1.188,1.188,0,0,0-.271-1.308L16.881,1.736a2.882,2.882,0,0,0-3.79,0l-6.948,6.9a.447.447,0,0,0,.632.632Zm-1.85,1.85.677-.677a.447.447,0,1,0-.632-.632l-.677.677a.436.436,0,0,0,0,.632C4.474,11.345,4.835,11.21,4.925,11.12Zm17.009-6.5H24.28a.194.194,0,0,1,.18.18V8.142a.451.451,0,0,0,.9,0V4.8A1.1,1.1,0,0,0,24.28,3.721H21.934a1.13,1.13,0,0,0-.812.361.439.439,0,0,0,.045.632C21.528,5.074,21.889,4.623,21.934,4.623ZM2.353,28.083h-.9a.451.451,0,0,0,0,.9h.9a.451.451,0,0,0,0-.9Z" transform="translate(-1 -1.025)"/><path class="a" d="M28.79,5.671a.872.872,0,0,0-1.263,0l-.587.587a.447.447,0,1,0,.632.632l.587-.587.587.587a.472.472,0,0,0,.632,0,.436.436,0,0,0,0-.632ZM26.038,7.16l-.9.9a.436.436,0,0,0,0,.632.472.472,0,0,0,.632,0l.9-.9a.447.447,0,0,0-.632-.632Zm9.79,21.069v.451h-.451a.451.451,0,0,0,0,.9h.587a.734.734,0,0,0,.767-.767v-.587a.451.451,0,0,0-.9,0Z" transform="translate(-14.172 -3.426)"/></g></svg>