<svg xmlns="http://www.w3.org/2000/svg" width="16.829" height="14.041" viewBox="0 0 16.829 14.041"><defs><style>.a{fill:#fff;}</style></defs><g transform="translate(24378 -11025)"><g transform="translate(-24378 11033.704)"><path class="a" d="M25.92,61.533v-.962H21.567V56.787A6.476,6.476,0,0,0,20.43,56.7c-3.565,0-6.43,2.384-6.43,5.315H25.985A1.6,1.6,0,0,1,25.92,61.533Z" transform="translate(-14 -56.7)"/></g><circle class="a" cx="3.871" cy="3.871" r="3.871" transform="translate(-24375.266 11025)"/><path class="a" d="M57.659,54.927a.661.661,0,0,0,.394-.2L61,51.952a.9.9,0,0,0,0-1.334l-2.931-2.8a.721.721,0,0,0-.394-.219c-.175,0-.306.175-.306.5V50.05H53V52.5h4.352v1.947C57.352,54.752,57.484,54.927,57.659,54.927Z" transform="translate(-24422.471 10984.114)"/></g></svg>