<svg xmlns="http://www.w3.org/2000/svg" width="11.53" height="11.529" viewBox="0 0 11.53 11.529"><defs><style>.a{fill:#1c6afc;stroke:#1c6afc;stroke-width:0.5px;}</style></defs><path class="a" d="M13.323,7.825,11.529,9.618A2.678,2.678,0,0,1,7.31,9.05a.378.378,0,1,1,.656-.374A1.922,1.922,0,0,0,11,9.084l1.793-1.793a1.921,1.921,0,1,0-2.717-2.717L8.428,6.218a.378.378,0,1,1-.534-.534L9.538,4.04a2.676,2.676,0,1,1,3.785,3.785ZM8.934,11.146,7.289,12.79a1.922,1.922,0,0,1-2.717-2.718L6.366,8.279a1.924,1.924,0,0,1,3.029.408.378.378,0,1,0,.656-.374,2.677,2.677,0,0,0-4.219-.568L4.039,9.538a2.677,2.677,0,1,0,3.785,3.786L9.467,11.68a.378.378,0,1,0-.534-.534Z" transform="translate(-3.004 -3.006)"/></svg>