<svg xmlns="http://www.w3.org/2000/svg" width="16" height="16.015" viewBox="0 0 16 16.015"><defs><style>.a{fill:#fff;}</style></defs><g transform="translate(0 -0.015)"><path class="a" d="M12.667,21.333a.667.667,0,0,1-.555-.3l-1.135-1.7H9.667a.667.667,0,1,1,0-1.333h1.667a.668.668,0,0,1,.555.3l.7,1.044,1.486-2.973A.668.668,0,0,1,14.641,16a.658.658,0,0,1,.6.323l1.806,3.011h1.289a.667.667,0,1,1,0,1.333H16.667a.666.666,0,0,1-.571-.323L14.72,18.051l-1.457,2.914a.667.667,0,0,1-.555.367Z" transform="translate(-3 -5.304)"/><circle class="a" cx="3.5" cy="3.5" r="3.5" transform="translate(2 0.015)"/><path class="a" d="M4.667,17.333a2,2,0,0,1,2-2H8.333a2,2,0,0,1,.972.251l.573-1.146a1.989,1.989,0,0,1,1.476-1.063A3.323,3.323,0,0,0,8.667,12H3.333A3.334,3.334,0,0,0,0,15.333V17.5a.5.5,0,0,0,.5.5H4.789A1.977,1.977,0,0,1,4.667,17.333Z" transform="translate(0 -3.971)"/></g></svg>