<svg xmlns="http://www.w3.org/2000/svg" width="14.669" height="15.791" viewBox="0 0 14.669 15.791"><defs><style>.a,.b,.c{fill:none;stroke:#5382fc;stroke-width:1.2px;}.a,.b{fill-rule:evenodd;}.b{stroke-linecap:round;}</style></defs><g transform="translate(0.6 0.6)"><path class="a" d="M5.5,7.5v9.353a1.122,1.122,0,0,0,1.122,1.122h8.231a1.122,1.122,0,0,0,1.122-1.122V7.5Z" transform="translate(-4.003 -3.385)"/><path class="b" d="M8.5,10.41v6.121" transform="translate(-4.759 -4.117)"/><path class="b" d="M12.5,10.41v6.121" transform="translate(-5.766 -4.117)"/><path class="b" d="M16.5,10.41v6.121" transform="translate(-6.773 -4.117)"/><path class="b" d="M9,3.746V2.931A1,1,0,0,1,10.048,2H13.19a1,1,0,0,1,1.048.931v.816" transform="translate(-4.885 -2)"/><rect class="c" width="13.469" height="2.245" rx="1.122" transform="translate(0 1.871)"/></g></svg>