<svg xmlns="http://www.w3.org/2000/svg" width="14.182" height="14.182" viewBox="0 0 14.182 14.182"><defs><style>.a{fill:#929baa;}</style></defs><path class="a" d="M15.689,2.447a2.355,2.355,0,0,1,0,3.33l-8.7,8.7a2.943,2.943,0,0,1-1.367.774l-2.7.674a.589.589,0,0,1-.714-.714l.674-2.7a2.943,2.943,0,0,1,.774-1.367l8.7-8.7A2.355,2.355,0,0,1,15.689,2.447Zm-4.162,2.5L4.5,11.976a1.766,1.766,0,0,0-.465.82l-.436,1.745,1.745-.436a1.766,1.766,0,0,0,.82-.465l7.031-7.032Zm1.665-1.665-.833.832,1.665,1.665.833-.832a1.177,1.177,0,0,0-1.665-1.665Z" transform="translate(-2.196 -1.757)"/></svg>