<svg xmlns="http://www.w3.org/2000/svg" width="12.201" height="12.206" viewBox="0 0 12.201 12.206"><defs><style>.a{fill:#b2b2b2;stroke:#b2b2b2;}</style></defs><g transform="translate(-1871.088 -88.399)"><g transform="translate(1871.588 88.899)"><path class="a" d="M23.455,23.61h-4.3A.151.151,0,0,1,19,23.459V19.151A.151.151,0,0,1,19.151,19h4.3a.151.151,0,0,1,.151.151v4.308A.151.151,0,0,1,23.455,23.61Zm-4.154-.3h4V19.3h-4Z" transform="translate(-19 -19)"/></g><g transform="translate(1878.184 88.899)"><path class="a" d="M283.455,23.61h-4.3a.151.151,0,0,1-.151-.151V19.151a.151.151,0,0,1,.151-.151h4.3a.151.151,0,0,1,.151.151v4.308A.151.151,0,0,1,283.455,23.61Zm-4.154-.3h4V19.3h-4Z" transform="translate(-279 -19)"/></g><g transform="translate(0 1)"><g transform="translate(1871.588 94.495)"><path class="a" d="M23.455,283.61h-4.3a.151.151,0,0,1-.151-.151v-4.308a.151.151,0,0,1,.151-.151h4.3a.151.151,0,0,1,.151.151v4.308A.151.151,0,0,1,23.455,283.61Zm-4.154-.3h4V279.3h-4Z" transform="translate(-19 -279)"/></g><g transform="translate(1878.184 94.495)"><path class="a" d="M283.455,283.61h-4.3a.151.151,0,0,1-.151-.151v-4.308a.151.151,0,0,1,.151-.151h4.3a.151.151,0,0,1,.151.151v4.308A.151.151,0,0,1,283.455,283.61Zm-4.154-.3h4V279.3h-4Z" transform="translate(-279 -279)"/></g></g></g></svg>