<svg xmlns="http://www.w3.org/2000/svg" width="16.992" height="16.992" viewBox="0 0 16.992 16.992"><defs><style>.a{fill:#b2b2b2;}</style></defs><g transform="translate(0 0)"><g transform="translate(0 0)"><path class="a" d="M26.421,26.671h-7.17A.251.251,0,0,1,19,26.421v-7.17A.251.251,0,0,1,19.251,19h7.17a.251.251,0,0,1,.251.251v7.17A.251.251,0,0,1,26.421,26.671Zm-6.919-.5H26.17V19.5H19.5Z" transform="translate(-19 -19)"/><g transform="translate(9.32)"><path class="a" d="M286.421,26.671h-7.17a.251.251,0,0,1-.251-.251v-7.17a.251.251,0,0,1,.251-.251h7.17a.251.251,0,0,1,.251.251v7.17A.251.251,0,0,1,286.421,26.671Zm-6.919-.5h6.668V19.5H279.5Z" transform="translate(-279 -19)"/></g><g transform="translate(0 9.32)"><path class="a" d="M26.421,286.672h-7.17a.251.251,0,0,1-.251-.251v-7.17a.251.251,0,0,1,.251-.251h7.17a.251.251,0,0,1,.251.251v7.17A.251.251,0,0,1,26.421,286.672Zm-6.919-.5H26.17V279.5H19.5Z" transform="translate(-19 -279)"/><g transform="translate(9.32)"><path class="a" d="M286.421,286.672h-7.17a.251.251,0,0,1-.251-.251v-7.17a.251.251,0,0,1,.251-.251h7.17a.251.251,0,0,1,.251.251v7.17A.251.251,0,0,1,286.421,286.672Zm-6.919-.5h6.668V279.5H279.5Z" transform="translate(-279 -279)"/></g></g></g></g></svg>