<svg xmlns="http://www.w3.org/2000/svg" width="30.569" height="24.969" viewBox="0 0 30.569 24.969"><defs><style>.a{fill:#b1f1fe;}.b{fill:#2e53bf;}</style></defs><g transform="translate(11393.32 3580.13)"><circle class="a" cx="4.451" cy="4.451" r="4.451" transform="translate(-11372.558 -3572.508)"/><g transform="translate(-11393.32 -3580.13)"><g transform="translate(20.044 17.575)"><g transform="translate(0 0)"><path class="b" d="M336.75,341.429a.6.6,0,0,0-.844.009l-.017.017a.6.6,0,0,0,.853.836l.017-.017A.6.6,0,0,0,336.75,341.429Z" transform="translate(-335.718 -341.258)"/></g></g><g transform="translate(22.534 9.302)"><g transform="translate(0 0)"><path class="b" d="M382.39,204.886H380.8V203.3a.6.6,0,1,0-1.194,0v1.587h-1.587a.6.6,0,0,0,0,1.194h1.587v1.587a.6.6,0,1,0,1.194,0V206.08h1.587a.6.6,0,0,0,0-1.194Z" transform="translate(-377.426 -202.702)"/></g></g><g transform="translate(0 0)"><g transform="translate(0 0)"><path class="b" d="M27.267,54.1A8.229,8.229,0,0,0,19.174,46.9a7.98,7.98,0,0,0-5.5,2.18,7.98,7.98,0,0,0-5.5-2.18A8.279,8.279,0,0,0,0,55.264a7.322,7.322,0,0,0,.795,3.06H.6a.6.6,0,0,0,0,1.194h.834a33.822,33.822,0,0,0,5.283,6.426,76.958,76.958,0,0,0,6.6,5.8.6.6,0,0,0,.725,0c.025-.019,2.552-1.957,5.353-4.6a.6.6,0,1,0-.819-.869c-2.136,2.014-4.108,3.61-4.9,4.234a76.535,76.535,0,0,1-6.125-5.423,35.513,35.513,0,0,1-4.714-5.57H8.179a.6.6,0,0,0,.574-.432L9.8,55.45l2.889,9.255a.6.6,0,0,0,1.14,0l1.6-5.127h2.665a.6.6,0,1,0,0-1.194h-3.1a.6.6,0,0,0-.57.419l-1.161,3.72-2.913-9.332A.6.6,0,0,0,9.2,53.2l-1.469,5.12h-5.6a6.79,6.79,0,0,1-.933-3.06,7.084,7.084,0,0,1,6.977-7.171,6.826,6.826,0,0,1,5.063,2.238.6.6,0,0,0,.878,0,6.826,6.826,0,0,1,5.063-2.238A7.02,7.02,0,0,1,26,53.772a5.256,5.256,0,1,0,1.267.332Zm-1.952,8.938a4.06,4.06,0,1,1,4.06-4.06A4.065,4.065,0,0,1,25.315,63.042Z" transform="translate(0 -46.899)"/></g></g></g></g></svg>