<svg xmlns="http://www.w3.org/2000/svg" width="28.438" height="28.426" viewBox="0 0 28.438 28.426"><defs><style>.a{fill:#b1f1fe;}.b{fill:#2e53bf;}</style></defs><rect class="a" width="7.12" height="9.743" transform="translate(10.484 18.007)"/><g transform="translate(0 0)"><path class="b" d="M28.979,28.534H25.768V18.9a.459.459,0,0,0-.917,0v9.632h-5.5V19.819a1.351,1.351,0,0,0-1.376-1.376h-5.5a1.351,1.351,0,0,0-1.376,1.376v5.6a.459.459,0,1,0,.917,0v-5.6a.433.433,0,0,1,.459-.459h5.5a.433.433,0,0,1,.459.459v8.715H12.008V27.158a.459.459,0,1,0-.917,0v1.376h-5.5v-13.3a.433.433,0,0,0-.459-.459H2.238a.327.327,0,0,1-.229-.55l1.605-1.605a.454.454,0,1,0-.642-.642L1.367,13.581a1.207,1.207,0,0,0-.275,1.33,1.25,1.25,0,0,0,1.147.78H4.669V28.534H4.211a.459.459,0,0,0,0,.917H28.979a.459.459,0,1,0,0-.917ZM6.871,9.407,13.935,2.39a1.856,1.856,0,0,1,2.569,0L28.429,14.223c.275.321.046.55-.229.55H25.31a.433.433,0,0,0-.459.459v1.835a.459.459,0,0,0,.917,0V15.691H28.2a1.25,1.25,0,0,0,1.147-.78,1.207,1.207,0,0,0-.275-1.33L17.145,1.747a2.93,2.93,0,0,0-3.853,0L6.229,8.765a.454.454,0,0,0,.642.642ZM4.99,11.288l.688-.688a.454.454,0,0,0-.642-.642l-.688.688a.443.443,0,0,0,0,.642C4.532,11.517,4.9,11.38,4.99,11.288Zm17.292-6.6h2.385a.2.2,0,0,1,.183.183V8.261a.459.459,0,0,0,.917,0V4.866a1.116,1.116,0,0,0-1.1-1.1H22.282a1.149,1.149,0,0,0-.826.367.446.446,0,0,0,.046.642C21.87,5.142,22.237,4.683,22.282,4.683ZM2.376,28.534H1.459a.459.459,0,0,0,0,.917h.917a.459.459,0,0,0,0-.917Z" transform="translate(-1 -1.025)"/><path class="b" d="M28.853,5.675a.887.887,0,0,0-1.284,0l-.6.6a.454.454,0,0,0,.642.642l.6-.6.6.6a.48.48,0,0,0,.642,0,.443.443,0,0,0,0-.642Zm-2.8,1.514-.917.917a.443.443,0,0,0,0,.642.48.48,0,0,0,.642,0l.917-.917a.454.454,0,0,0-.642-.642Zm9.953,21.42v.459h-.459a.459.459,0,0,0,0,.917h.6a.747.747,0,0,0,.78-.78v-.6a.459.459,0,0,0-.917,0Z" transform="translate(-13.992 -3.393)"/></g></svg>