<svg xmlns="http://www.w3.org/2000/svg" width="14.578" height="10.023" viewBox="0 0 14.578 10.023"><defs><style>.a{fill:#b2b2b2;}</style></defs><g transform="translate(-1842.801 -86.078)"><g transform="translate(1845.539 86.078)"><g transform="translate(0 0)"><path class="a" d="M106.2,80H97.091a.911.911,0,0,0,0,1.821H106.2a.911.911,0,1,0,0-1.821Z" transform="translate(-96.18 -80)"/></g></g><g transform="translate(1842.801 86.082)"><g transform="translate(0 0)"><path class="a" d="M1.827,81.042a.911.911,0,0,0-1.821,0,.775.775,0,0,0,0,.178.821.821,0,0,0,.05.173,1.057,1.057,0,0,0,.087.155.833.833,0,0,0,.114.141.806.806,0,0,0,.137.109.742.742,0,0,0,.155.087.752.752,0,0,0,.191.068.8.8,0,0,0,.178,0,.911.911,0,0,0,.642-.264.833.833,0,0,0,.114-.141,1.057,1.057,0,0,0,.087-.155.846.846,0,0,0,.068-.173A.775.775,0,0,0,1.827,81.042Z" transform="translate(-0.001 -80.135)"/></g></g><g transform="translate(1842.807 90.181)"><g transform="translate(0 0)"><path class="a" d="M2,225.042a.778.778,0,0,0,0-.178.738.738,0,0,0-.068-.168.911.911,0,0,0-.087-.159.656.656,0,0,0-.114-.137.911.911,0,0,0-1.553.642.908.908,0,0,0,.15.505.875.875,0,0,0,.118.137.665.665,0,0,0,.137.114.739.739,0,0,0,.155.087.775.775,0,0,0,.173.05.756.756,0,0,0,.178.018.777.777,0,0,0,.178,0,.739.739,0,0,0,.168-.05.76.76,0,0,0,.159-.087.665.665,0,0,0,.137-.114.665.665,0,0,0,.114-.137.732.732,0,0,0,.087-.155A.771.771,0,0,0,2,225.219.753.753,0,0,0,2,225.042Z" transform="translate(-0.18 -224.135)"/></g></g><g transform="translate(1845.539 90.177)"><g transform="translate(0 0)"><path class="a" d="M107.109,224H97.091a.911.911,0,1,0,0,1.821h10.018a.911.911,0,0,0,0-1.821Z" transform="translate(-96.18 -224)"/></g></g><g transform="translate(1842.807 94.278)"><g transform="translate(0 0)"><path class="a" d="M2,369.042a.782.782,0,0,0,0-.178.776.776,0,0,0-.068-.173,1.058,1.058,0,0,0-.087-.155.664.664,0,0,0-.114-.137.911.911,0,0,0-1.284,0,.665.665,0,0,0-.114.137,1.058,1.058,0,0,0-.087.155.747.747,0,0,0-.05.173.783.783,0,0,0-.018.178.911.911,0,0,0,.269.642.665.665,0,0,0,.137.114.739.739,0,0,0,.155.087.773.773,0,0,0,.173.05.755.755,0,0,0,.178.018.775.775,0,0,0,.178,0,.738.738,0,0,0,.168-.05.76.76,0,0,0,.159-.087.665.665,0,0,0,.137-.114.664.664,0,0,0,.114-.137.729.729,0,0,0,.087-.155A.773.773,0,0,0,2,369.219.753.753,0,0,0,2,369.042Z" transform="translate(-0.178 -368.135)"/></g></g><g transform="translate(1845.539 94.274)"><g transform="translate(0 0)"><path class="a" d="M103.01,368h-5.92a.911.911,0,1,0,0,1.821h5.92a.911.911,0,1,0,0-1.821Z" transform="translate(-96.18 -368)"/></g></g></g></svg>