<svg xmlns="http://www.w3.org/2000/svg" width="17" height="17" viewBox="0 0 17 17"><defs><style>.a{fill:#20aec2;}</style></defs><path class="a" d="M325.387,277.672h-.85v-5.383a.283.283,0,0,0-.515-.162l-3.967,5.667a.283.283,0,0,0,.232.446h3.683v.85a.283.283,0,1,0,.567,0v-.85h.85a.283.283,0,1,0,0-.567Zm-1.417,0h-3.139l3.139-4.485Z" transform="translate(-308.67 -262.372)"/><path class="a" d="M212.25,278.787H208.9l3.119-3.672a.3.3,0,0,0,.02-.026,1.971,1.971,0,0,0-.445-2.676A2.267,2.267,0,0,0,208,274.253a.283.283,0,1,0,.567,0,1.7,1.7,0,0,1,2.692-1.381,1.4,1.4,0,0,1,.312,1.888l-3.5,4.126a.283.283,0,0,0,.216.467h3.967a.283.283,0,1,0,0-.567Z" transform="translate(-200.633 -262.353)"/><path class="a" d="M7.656,15.022a.283.283,0,0,0-.272-.294h0A7.075,7.075,0,0,1,.577,7.933H1.7a.283.283,0,0,0,0-.567H.577A7.066,7.066,0,0,1,7.367.577v.84a.283.283,0,0,0,.567,0V.577A7.071,7.071,0,0,1,14.72,7.235L13.615,6.13a.283.283,0,0,0-.4.4L14.8,8.112a.278.278,0,0,0,.112.081l.034.008a.28.28,0,0,0,.06.014h.016a.273.273,0,0,0,.063-.012l.035-.007a.279.279,0,0,0,.1-.064l1.6-1.6a.283.283,0,0,0-.4-.4L15.288,7.262A7.638,7.638,0,0,0,7.67,0c-.007,0-.013,0-.02,0s-.013,0-.02,0A7.636,7.636,0,0,0,0,7.63c0,.007,0,.013,0,.02s0,.013,0,.02a7.643,7.643,0,0,0,7.359,7.625h.01A.283.283,0,0,0,7.656,15.022Z"/><path class="a" d="M157.62,106.261a.283.283,0,0,0-.4,0l-3.045,3.044a.887.887,0,0,0-.723,0l-1.442-1.442a.283.283,0,0,0-.4.4l1.439,1.439a.848.848,0,1,0,1.53,0l3.042-3.042A.283.283,0,0,0,157.62,106.261Zm-3.606,4.007h0a.29.29,0,0,1-.4,0,.283.283,0,1,1,.4,0Z" transform="translate(-146.164 -102.417)"/></svg>