<svg xmlns="http://www.w3.org/2000/svg" width="23.05" height="22.96" viewBox="0 0 23.05 22.96"><defs><style>.a{fill:#b1f1fe;}.b{fill:#2e53bf;}</style></defs><g transform="translate(-3017.192 -22434.283)"><rect class="a" width="3.994" height="1.587" rx="0.794" transform="translate(3036.064 22438.547)"/><rect class="a" width="3.994" height="1.587" rx="0.794" transform="translate(3036.064 22446.592)"/><rect class="a" width="3.994" height="1.587" rx="0.794" transform="translate(3017.38 22448.389)"/><g transform="translate(3017.192 22434.283)"><path class="b" d="M132.484,5.164v.529h-.654a.338.338,0,0,0,0,.677h.654V8.3a.338.338,0,1,0,.677,0V6.37h.94a1.046,1.046,0,0,0,.988.706h2.485a1.044,1.044,0,0,0,0-2.088h-2.485a1.046,1.046,0,0,0-.988.706h-.94V5.164a1.446,1.446,0,0,0-2.22-1.223,1.446,1.446,0,0,0-2.215-1.14V2.444a1.447,1.447,0,0,0-2.894,0v.088a1.446,1.446,0,0,0-2.217,1.224V9.245L121.8,10.6a1.933,1.933,0,0,0-.774,1.542v.978a.338.338,0,1,0,.677,0v-.978a1.253,1.253,0,0,1,.5-1l2.631-1.962a.851.851,0,0,1,1.139,1.252l-1.754,1.94a.338.338,0,1,0,.5.454l.087-.1.519.519a2.548,2.548,0,0,1,.751,1.814v.867a.338.338,0,0,0,.677,0V15.06a3.221,3.221,0,0,0-.95-2.293l-.543-.543,1.213-1.341a1.534,1.534,0,0,0,.037-2.006l-.009-.011V2.444a.77.77,0,0,1,1.541,0V9.415a.338.338,0,1,0,.677,0V4.026a.77.77,0,0,1,1.541,0v5.39a.338.338,0,1,0,.677,0V5.164a.77.77,0,1,1,1.541,0Zm2.6.5h2.485a.367.367,0,0,1,0,.735h-2.485a.367.367,0,0,1,0-.735ZM124.435,8.633l-.144.107V3.757a.77.77,0,1,1,1.541,0V8.41A1.527,1.527,0,0,0,124.435,8.633Z" transform="translate(-115.568 -0.997)"/><path class="b" d="M358.948,190.986h-2.485a1.046,1.046,0,0,0-.988.706h-.94V187.7a.338.338,0,0,0-.677,0v3.991H353.2a.338.338,0,1,0,0,.677h.654V193.4a5.333,5.333,0,0,1-.365,1.943l-.407,1.045a1.246,1.246,0,0,0-.085.454v4.726a.338.338,0,1,0,.677,0v-4.726a.572.572,0,0,1,.039-.208l.407-1.045a6.007,6.007,0,0,0,.411-2.189v-1.036h.94a1.046,1.046,0,0,0,.988.706h2.485a1.044,1.044,0,1,0,0-2.088Zm0,1.412h-2.485a.367.367,0,0,1,0-.735h2.485a.367.367,0,0,1,0,.735Z" transform="translate(-336.943 -178.952)"/><path class="b" d="M7.46,295.6H6.143c0-.056,0-.113,0-.17v-1.077a.338.338,0,0,0-.677,0v1.077c0,.057,0,.113,0,.17H4.517a1.046,1.046,0,0,0-.988-.706H3.008a.338.338,0,1,0,0,.677h.521a.367.367,0,0,1,0,.735H1.044a.367.367,0,0,1,0-.735h.521a.338.338,0,1,0,0-.677H1.044a1.044,1.044,0,1,0,0,2.088H3.529a1.046,1.046,0,0,0,.988-.706H5.546A4.206,4.206,0,0,0,6.7,298.425a.279.279,0,0,1,.082.2v4.789a.338.338,0,0,0,.677,0v-4.789a.952.952,0,0,0-.281-.678,3.536,3.536,0,0,1-.941-1.67H7.46a.338.338,0,1,0,0-.677Z" transform="translate(0 -280.792)"/><path class="b" d="M350.969,142.96v-.171a.338.338,0,1,0-.677,0v.171a.338.338,0,1,0,.677,0Z" transform="translate(-334.485 -136.067)"/><path class="b" d="M301.489,74.581a.338.338,0,0,0,.338-.338v-.171a.338.338,0,0,0-.677,0v.171A.338.338,0,0,0,301.489,74.581Z" transform="translate(-287.561 -70.451)"/><path class="b" d="M252.348,30.083a.338.338,0,0,0-.338.338v.171a.338.338,0,0,0,.677,0v-.171A.338.338,0,0,0,252.348,30.083Z" transform="translate(-240.638 -28.77)"/><path class="b" d="M252.348,87.526a.338.338,0,0,0-.338.338v.171a.338.338,0,0,0,.677,0v-.171A.338.338,0,0,0,252.348,87.526Z" transform="translate(-240.638 -83.621)"/><path class="b" d="M203.208,64.621a.338.338,0,0,0-.338.338v.171a.338.338,0,0,0,.677,0v-.171A.338.338,0,0,0,203.208,64.621Z" transform="translate(-193.715 -61.75)"/><path class="b" d="M203.208,125.745a.338.338,0,0,0-.338.338v.171a.338.338,0,0,0,.677,0v-.171A.338.338,0,0,0,203.208,125.745Z" transform="translate(-193.715 -120.116)"/><path class="b" d="M252.348,144.97a.338.338,0,0,0-.338.338v.171a.338.338,0,0,0,.677,0v-.171A.338.338,0,0,0,252.348,144.97Z" transform="translate(-240.638 -138.473)"/><path class="b" d="M301.151,139.164a.338.338,0,0,0,.677,0v-.171a.338.338,0,0,0-.677,0Z" transform="translate(-287.561 -132.442)"/><path class="b" d="M278.34,228.344a2.819,2.819,0,0,0,0,5.637.338.338,0,0,0,0-.677,2.142,2.142,0,0,1,0-4.284.338.338,0,0,0,0-.677Z" transform="translate(-263.088 -218.085)"/><path class="b" d="M306.986,259.021a.338.338,0,0,0,0-.677,1.465,1.465,0,0,0,0,2.93.338.338,0,0,0,0-.677.788.788,0,1,1,0-1.576Z" transform="translate(-291.734 -246.731)"/><path class="b" d="M158.153,299.219a.338.338,0,1,0,0,.677,1.012,1.012,0,0,1,.639,1.8.338.338,0,1,0,.428.525,1.689,1.689,0,0,0-1.067-3Z" transform="translate(-150.694 -285.762)"/></g></g></svg>