<svg xmlns="http://www.w3.org/2000/svg" width="14.49" height="17.773" viewBox="0 0 14.49 17.773"><defs><style>.a{fill:#666;}</style></defs><g transform="translate(-2.104)"><g transform="translate(2.104)"><path class="a" d="M14.8,0h.126a3.806,3.806,0,0,1-.958,2.868A2.971,2.971,0,0,1,11.349,4.1a3.692,3.692,0,0,1,.976-2.779A4.214,4.214,0,0,1,14.8,0Z" transform="translate(-4.132)"/><path class="a" d="M16.594,14.252v.035a10.341,10.341,0,0,1-1.48,2.853c-.564.777-1.256,1.822-2.49,1.822-1.067,0-1.776-.686-2.869-.7-1.157-.019-1.793.574-2.85.723H6.544A3.22,3.22,0,0,1,4.684,17.7,11.227,11.227,0,0,1,2.1,11.238v-.8A5.209,5.209,0,0,1,4.378,6.168a3.841,3.841,0,0,1,2.579-.6,6.487,6.487,0,0,1,1.264.362,3.489,3.489,0,0,0,1.263.379,3.031,3.031,0,0,0,.886-.271,5.45,5.45,0,0,1,2.85-.506,3.954,3.954,0,0,1,2.906,1.733,3.729,3.729,0,0,0-1.894,3.7A3.819,3.819,0,0,0,16.594,14.252Z" transform="translate(-2.104 -1.206)"/></g></g></svg>