<svg xmlns="http://www.w3.org/2000/svg" width="10.615" height="10.615" viewBox="0 0 10.615 10.615"><defs><style>.a{fill:#fff;}</style></defs><path class="a" d="M11.9,8.663a.166.166,0,0,0,.166-.166V8.166a.166.166,0,0,0-.332,0V8.5a.166.166,0,0,0,.166.166Zm.663,0a.166.166,0,0,0,.166-.166V8.166a.166.166,0,0,0-.332,0V8.5a.166.166,0,0,0,.166.166Zm.663,0A.166.166,0,0,0,13.4,8.5V8.166a.166.166,0,0,0-.332,0V8.5a.166.166,0,0,0,.166.166Zm.663,0a.166.166,0,0,0,.166-.166V8.166a.166.166,0,0,0-.332,0V8.5a.166.166,0,0,0,.166.166Zm.663,0a.166.166,0,0,0,.166-.166V8.166a.166.166,0,0,0-.332,0V8.5a.166.166,0,0,0,.166.166Zm.663,0a.166.166,0,0,0,.166-.166V8.166a.166.166,0,1,0-.332,0V8.5a.166.166,0,0,0,.166.166ZM9.332,11.815a.166.166,0,1,0-.332,0v.332a.166.166,0,1,0,.332,0Zm.5.5A.166.166,0,0,0,10,12.146v-.332a.166.166,0,0,0-.332,0v.332a.166.166,0,0,0,.166.166Zm.663,0a.166.166,0,0,0,.166-.166v-.332a.166.166,0,0,0-.332,0v.332a.166.166,0,0,0,.166.166Zm-1.161.5a.166.166,0,1,0-.332,0v.332a.166.166,0,1,0,.332,0Zm.332.332a.166.166,0,1,0,.332,0V12.81a.166.166,0,1,0-.332,0Zm.663,0a.166.166,0,1,0,.332,0V12.81a.166.166,0,1,0-.332,0Zm-1,.663A.166.166,0,1,0,9,13.8v.332a.166.166,0,0,0,.332,0Zm.332.332a.166.166,0,0,0,.332,0V13.8a.166.166,0,1,0-.332,0Zm.663,0a.166.166,0,0,0,.332,0V13.8a.166.166,0,1,0-.332,0Zm-1,.663A.166.166,0,0,0,9,14.8v.332a.166.166,0,0,0,.332,0Zm0,1A.166.166,0,0,0,9,15.8v.332a.166.166,0,1,0,.332,0Zm-.166.829A.166.166,0,0,0,9,16.79v.332a.166.166,0,1,0,.332,0V16.79a.166.166,0,0,0-.166-.166Zm7.464-4.312a.166.166,0,0,0,.166-.166v-.332a.166.166,0,1,0-.332,0v.332a.166.166,0,0,0,.166.166Zm.663,0a.166.166,0,0,0,.166-.166v-.332a.166.166,0,1,0-.332,0v.332a.166.166,0,0,0,.166.166Zm.663,0a.166.166,0,0,0,.166-.166v-.332a.166.166,0,0,0-.332,0v.332a.166.166,0,0,0,.166.166Zm-1.493.829a.166.166,0,1,0,.332,0V12.81a.166.166,0,1,0-.332,0Zm.663,0a.166.166,0,1,0,.332,0V12.81a.166.166,0,1,0-.332,0Zm.663,0a.166.166,0,0,0,.332,0V12.81a.166.166,0,0,0-.332,0Zm-1.327,1a.166.166,0,1,0,.332,0V13.8a.166.166,0,1,0-.332,0Zm.663,0a.166.166,0,1,0,.332,0V13.8a.166.166,0,1,0-.332,0Zm.663,0a.166.166,0,0,0,.332,0V13.8a.166.166,0,1,0-.332,0Zm0,1a.166.166,0,0,0,.332,0V14.8a.166.166,0,0,0-.332,0Zm0,1a.166.166,0,1,0,.332,0V15.8a.166.166,0,0,0-.332,0Zm0,1a.166.166,0,1,0,.332,0V16.79a.166.166,0,0,0-.332,0ZM11.737,9.493a.166.166,0,1,0,.332,0V9.161a.166.166,0,0,0-.332,0Zm.663,0a.166.166,0,1,0,.332,0V9.161a.166.166,0,0,0-.332,0Zm.663,0a.166.166,0,1,0,.332,0V9.161a.166.166,0,0,0-.332,0Zm.663,0a.166.166,0,1,0,.332,0V9.161a.166.166,0,0,0-.332,0Zm.663,0a.166.166,0,1,0,.332,0V9.161a.166.166,0,0,0-.332,0Zm.663,0a.166.166,0,1,0,.332,0V9.161a.166.166,0,1,0-.332,0Z" transform="translate(-8.254 -7.337)"/><path class="a" d="M10.117,3.649h-1V3.317a.5.5,0,0,0-.5-.5H7.8V.5A.5.5,0,0,0,7.3,0H3.317a.5.5,0,0,0-.5.5V2.82H1.99a.5.5,0,0,0-.5.5v.332H.5a.5.5,0,0,0-.5.5v5.971a.5.5,0,0,0,.5.5H1.55a.777.777,0,0,1-.131-.332H.5a.166.166,0,0,1-.166-.166V4.146A.166.166,0,0,1,.5,3.981h1.99V3.649H1.824V3.317a.166.166,0,0,1,.166-.166H2.82v3.93l.332-.171V.5A.166.166,0,0,1,3.317.332H7.3A.166.166,0,0,1,7.464.5v6.39l.332.178V3.151h.829a.166.166,0,0,1,.166.166v.332H8.127v.332h1.99a.166.166,0,0,1,.166.166v5.971a.166.166,0,0,1-.166.166H9.2a.777.777,0,0,1-.131.332h1.053a.5.5,0,0,0,.5-.5V4.146a.5.5,0,0,0-.5-.5Z"/><path class="a" d="M23.966,88a.165.165,0,0,0-.094.029l.259.139v0A.166.166,0,0,0,23.966,88ZM17,88.5a.166.166,0,0,0,.13.162,1.108,1.108,0,0,1,.2-.256v-.237a.166.166,0,0,0-.332,0Zm.663-.328.264-.136a.165.165,0,0,0-.264.133ZM24.8,88.5v-.332a.166.166,0,0,0-.332,0V88.4a1.07,1.07,0,0,1,.206.261A.166.166,0,0,0,24.8,88.5Z" transform="translate(-15.59 -80.702)"/><path class="a" d="M27.71,37.141l-1.785-.956a.128.128,0,0,1-.081-.107v-.715a3.269,3.269,0,0,0,.31-.74,1.878,1.878,0,0,0,.07-.5,1.569,1.569,0,0,0-.06-.425.751.751,0,0,0,.133-.15.663.663,0,0,0-.179-.871,3.727,3.727,0,0,0-.854-.511A1.855,1.855,0,0,0,24.532,32a1.476,1.476,0,0,0-1.162.576c-.428.143-.482.869-.458,1.423,0,.04-.005.08-.005.121a2.8,2.8,0,0,0,.436,1.44v.518a.115.115,0,0,1-.069.107l-.013.006-1.84.951A.764.764,0,0,0,21,37.8v1.713a.443.443,0,0,0,.439.446h6.254a.443.443,0,0,0,.439-.446V37.8A.728.728,0,0,0,27.71,37.141Zm-4.236-4.25.105-.035.063-.092a1.151,1.151,0,0,1,.889-.432,1.539,1.539,0,0,1,.6.136,3.375,3.375,0,0,1,.778.466.335.335,0,0,1,.108.428,1.14,1.14,0,0,1-.808.34,1.816,1.816,0,0,1-.2.011,1.4,1.4,0,0,1-.314-.034,2.071,2.071,0,0,1-.455-.232.393.393,0,0,0-.589.153.468.468,0,0,0-.117-.015h0a.486.486,0,0,0-.3.1C23.253,33.275,23.329,32.939,23.475,32.891Zm-.2,1.58c0-.039-.008-.087-.009-.094a.414.414,0,0,1,.019-.17c.036-.1.13-.29.259-.29a.144.144,0,0,1,.056.012l.2.085a.076.076,0,0,0,.092-.044l.064-.223a.06.06,0,0,1,.058-.043.063.063,0,0,1,.037.012,2.279,2.279,0,0,0,.572.286,1.724,1.724,0,0,0,.392.043,2.14,2.14,0,0,0,.233-.013,2.188,2.188,0,0,0,.619-.155,1.232,1.232,0,0,1,.025.243,1.539,1.539,0,0,1-.058.414A2.512,2.512,0,0,1,25.06,35.8a.814.814,0,0,1-.517.181.985.985,0,0,1-.72-.331A2.481,2.481,0,0,1,23.272,34.471Zm1.263,2.465-.913-.649a.451.451,0,0,0,.052-.21V35.97a1.3,1.3,0,0,0,.869.342,1.144,1.144,0,0,0,.725-.254,2.159,2.159,0,0,0,.244-.235v.255a.416.416,0,0,0,.017.113Zm.445,1.594a.073.073,0,0,1-.014.045l-.02.019s-.2.224-.342.381l-.426-.392-.009-.008a.082.082,0,0,1-.018-.057l.23-1.284.054.038a.166.166,0,0,0,.213-.007l.05-.038Zm2.82.985a.111.111,0,0,1-.107.114H21.439a.111.111,0,0,1-.107-.114V37.8c0-.1.029-.234.258-.376l1.778-.918a.167.167,0,0,0,.024.021l.691.491-.256,1.434a.4.4,0,0,0,.131.375l.481.442a.261.261,0,0,0,.361-.018c.12-.135.342-.382.386-.43a.39.39,0,0,0,.119-.369l-.313-1.446.739-.554a.471.471,0,0,0,.061.032l1.751.939c.216.133.259.239.259.376Z" transform="translate(-19.258 -29.346)"/></svg>