<svg xmlns="http://www.w3.org/2000/svg" width="19.835" height="26.034" viewBox="0 0 19.835 26.034"><defs><style>.a{fill:#0a31e8;}</style></defs><g transform="translate(-60.959)"><path class="a" d="M70.16,2.124h-.916V.508A.508.508,0,0,0,68.736,0H62.6a.508.508,0,0,0-.508.508V2.124h-.627a.508.508,0,0,0-.508.508V5.012a.508.508,0,0,0,.508.508h.571V22.259a3.775,3.775,0,1,0,7.551,0V5.52h.571a.508.508,0,0,0,.508-.508V2.633a.508.508,0,0,0-.508-.508ZM63.111,1.017h5.116V2.124H63.111Zm2.7,24a2.762,2.762,0,0,1-2.758-2.758V12h5.517V22.259A2.762,2.762,0,0,1,65.814,25.017Zm2.759-14.03H63.055V5.52h5.517ZM69.652,4.5H61.976V3.141h7.676Z"/><path class="a" d="M271.287,170.491h-6.631a1.462,1.462,0,0,0-1.46,1.46v5.157a1.463,1.463,0,0,0,1.045,1.4l.14.585a.509.509,0,0,0,.777.3l1.239-.829h4.89a1.462,1.462,0,0,0,1.46-1.46v-5.157A1.462,1.462,0,0,0,271.287,170.491Zm.443,6.617a.444.444,0,0,1-.443.443h-5.044a.508.508,0,0,0-.283.086l-.761.509-.049-.2a.508.508,0,0,0-.495-.39.444.444,0,0,1-.443-.443v-5.157a.444.444,0,0,1,.443-.443h6.631a.444.444,0,0,1,.443.443Z" transform="translate(-191.954 -161.822)"/><path class="a" d="M325.877,221.375a.509.509,0,0,0-.714.083l-1.326,1.673-.735-.679a.508.508,0,0,0-.69.747l1.137,1.052a.508.508,0,0,0,.345.135l.039,0a.509.509,0,0,0,.359-.191l1.667-2.1A.508.508,0,0,0,325.877,221.375Z" transform="translate(-248.004 -210.015)"/></g></svg>