<svg xmlns="http://www.w3.org/2000/svg" width="20.802" height="23.317" viewBox="0 0 20.802 23.317"><defs><style>.a{fill:#b1f1fe;}.b{fill:#2e53bf;}</style></defs><g transform="translate(-2884 -23430)"><path class="a" d="M2891.14,23440.336l1.339-.564.709-1.8.859,1.8,1.954.564-1.954.795-.859,2.012-.892-2.012Z" transform="translate(-3.403 -3.8)"/><g transform="translate(2884 23430)"><g transform="translate(15.864 2.14)"><g transform="translate(0)"><path class="b" d="M376.423,46.993a.455.455,0,1,0,.455.455A.456.456,0,0,0,376.423,46.993Z" transform="translate(-375.968 -46.993)"/></g></g><g transform="translate(0 0)"><g transform="translate(0 0)"><path class="b" d="M44.354.364a7.876,7.876,0,0,0-6.337.741A7.874,7.874,0,0,0,31.679.364C27.9,1.578,26.122,7.1,29.156,11.56a10.669,10.669,0,0,1,1.832,5.463,13.963,13.963,0,0,0,.945,4.092c.432,1.026,1.043,2.2,1.946,2.2H33.9c.727-.017,1.312-.738,1.9-2.336a18.808,18.808,0,0,0,.675-2.707c.333-1.674.677-3.4,1.543-3.411h0c.856,0,1.2,1.731,1.532,3.406a18.769,18.769,0,0,0,.675,2.712c.587,1.6,1.172,2.323,1.9,2.34h.025c.9,0,1.513-1.175,1.946-2.2a14.152,14.152,0,0,0,.93-4.018,11.042,11.042,0,0,1,1.85-5.542C49.95,7.04,48.074,1.557,44.354.364Zm1.774,10.678a11.947,11.947,0,0,0-2,5.942,13.227,13.227,0,0,1-.866,3.776c-.67,1.591-1.059,1.645-1.108,1.645h0c-.018,0-.437-.03-1.065-1.743a18.142,18.142,0,0,1-.637-2.575,14.905,14.905,0,0,0-.7-2.705c-.4-.952-.978-1.434-1.723-1.434h-.013c-.748.005-1.33.491-1.729,1.445a14.888,14.888,0,0,0-.7,2.7,18.187,18.187,0,0,1-.637,2.571C34.32,22.373,33.9,22.4,33.882,22.4c-.041,0-.434-.037-1.11-1.641a13.035,13.035,0,0,1-.88-3.845,11.57,11.57,0,0,0-1.984-5.869c-2.735-4.018-1.086-8.81,2.049-9.815a7,7,0,0,1,5.817.79.455.455,0,0,0,.485,0,7,7,0,0,1,5.817-.79C47.273,2.257,48.807,7.1,46.128,11.043Z" transform="translate(-27.617 0)"/></g></g><g transform="translate(17.233 3.341)"><g transform="translate(0)"><path class="b" d="M407.433,74.746a4.933,4.933,0,0,0-.583-1.174.455.455,0,1,0-.752.513,4.023,4.023,0,0,1,.474.958,5.589,5.589,0,0,1-.325,4.217.455.455,0,1,0,.82.4A6.505,6.505,0,0,0,407.433,74.746Z" transform="translate(-406.018 -73.372)"/></g></g><g transform="translate(2.68 3.474)"><g transform="translate(0)"><path class="b" d="M92.528,79.039,90.7,78.428l-.611-1.833a.455.455,0,0,0-.864,0l-.611,1.833-1.833.611a.455.455,0,0,0,0,.864l1.833.611.611,1.833a.455.455,0,0,0,.864,0l.611-1.833,1.833-.611a.455.455,0,0,0,0-.864Zm-2.337.683a.455.455,0,0,0-.288.288l-.251.753L89.4,80.01a.455.455,0,0,0-.288-.288l-.753-.251.753-.251a.455.455,0,0,0,.288-.288l.251-.753.251.753a.455.455,0,0,0,.288.288l.753.251Z" transform="translate(-86.464 -76.283)"/></g></g></g></g></svg>