<svg xmlns="http://www.w3.org/2000/svg" xmlns:xlink="http://www.w3.org/1999/xlink" width="41" height="41" viewBox="0 0 41 41"><defs><style>.a{fill:#fff;}.b{fill:#1d6aff;}.c{filter:url(#a);}</style><filter id="a" x="0" y="0" width="41" height="41" filterUnits="userSpaceOnUse"><feOffset dy="3" input="SourceAlpha"/><feGaussianBlur stdDeviation="3" result="b"/><feFlood flood-opacity="0.161"/><feComposite operator="in" in2="b"/><feComposite in="SourceGraphic"/></filter></defs><g transform="translate(-522 -315)"><g class="c" transform="matrix(1, 0, 0, 1, 522, 315)"><circle class="a" cx="11.5" cy="11.5" r="11.5" transform="translate(9 6)"/></g><g transform="translate(537 327)"><g transform="translate(0 0)"><path class="b" d="M10.658,1.339l-1-1a1.169,1.169,0,0,0-1.652,0L.593,7.758A.328.328,0,0,0,.5,7.928l-.5,2.692a.322.322,0,0,0,.376.376l2.691-.5a.328.328,0,0,0,.169-.089l7.416-7.417A1.168,1.168,0,0,0,10.658,1.339ZM.725,10.276l.3-1.628L2.353,9.974Zm2.289-.552L1.276,7.986,7.619,1.643,9.356,3.381ZM10.2,2.535l-.39.39L8.075,1.188,8.465.8a.524.524,0,0,1,.74,0l1,1A.523.523,0,0,1,10.2,2.535Z" transform="translate(0 0)"/></g></g></g></svg>