<svg xmlns="http://www.w3.org/2000/svg" xmlns:xlink="http://www.w3.org/1999/xlink" width="17.081" height="17.081" viewBox="0 0 17.081 17.081"><defs><style>.a{fill:#3b5999;}.b{clip-path:url(#a);}.c{fill:url(#b);}.d{fill:url(#c);}.e{fill:url(#d);}.f{fill:url(#e);}.g{fill:url(#f);}.h{fill:url(#g);}.i{fill:url(#h);}.j{fill:url(#i);}</style><clipPath id="a"><path class="a" d="M14.946,0H2.135A2.137,2.137,0,0,0,0,2.135V14.946a2.137,2.137,0,0,0,2.135,2.135H14.946a2.138,2.138,0,0,0,2.135-2.135V2.135A2.137,2.137,0,0,0,14.946,0Z"/></clipPath><linearGradient id="b" y1="0.5" x2="1" y2="0.5" gradientUnits="objectBoundingBox"><stop offset="0" stop-color="#ff637b"/><stop offset="1" stop-color="#f90217"/></linearGradient><linearGradient id="c" x1="0.799" y1="1.737" x2="0.065" y2="-0.534" xlink:href="#b"/><linearGradient id="d" x1="0.043" y1="0.309" x2="1.019" y2="0.694" gradientUnits="objectBoundingBox"><stop offset="0" stop-color="#ffd833"/><stop offset="1" stop-color="#f2b631"/></linearGradient><linearGradient id="e" x1="1.345" y1="0.738" x2="-0.149" y2="0.244" xlink:href="#d"/><linearGradient id="f" x1="0.44" y1="0.241" x2="0.655" y2="0.79" gradientUnits="objectBoundingBox"><stop offset="0" stop-color="#28a265"/><stop offset="1" stop-color="#28895e"/></linearGradient><linearGradient id="g" x1="0.831" y1="1.379" x2="0.082" y2="-0.9" xlink:href="#f"/><linearGradient id="h" x1="0.427" y1="0.134" x2="0.893" y2="0.685" gradientUnits="objectBoundingBox"><stop offset="0" stop-color="#7faef4"/><stop offset="1" stop-color="#4c8df1"/></linearGradient><linearGradient id="i" x1="1.023" y1="1.005" x2="0.265" y2="-0.088" xlink:href="#h"/></defs><g class="b"><g transform="translate(0 0)"><path class="c" d="M7.234,4.762a5.364,5.364,0,0,1,7.389-.232.358.358,0,0,0,.483-.016l1.741-1.741a.353.353,0,0,0-.009-.509A8.528,8.528,0,0,0,5,2.523a9.69,9.69,0,0,0,.029,2.233s1.257.967,2.21.006Z" transform="translate(-2.505 0)"/><path class="d" d="M8.144,6.247a5.364,5.364,0,0,1,7.389-.232A.358.358,0,0,0,16.016,6l1-1c-.087-.067-.173-.138-.257-.212A7.225,7.225,0,0,0,11.88,2.92,7.08,7.08,0,0,0,6.91,5.012a4.468,4.468,0,0,0-.193,1.231s.163-.015,1.427,0Z" transform="translate(-3.416 -1.485)"/><path class="e" d="M3.167,11.1a5.359,5.359,0,0,0,1.59,3.865L4,16.613l-1.477.595A8.528,8.528,0,0,1,2.49,5.134L4.729,7.373A5.354,5.354,0,0,0,3.167,11.1Z" transform="translate(0 -2.611)"/><path class="f" d="M4.652,12.142a5.359,5.359,0,0,0,1.59,3.865L5.018,17.232A7.118,7.118,0,0,1,4.979,7.178L6.213,8.412A5.354,5.354,0,0,0,4.652,12.142Z" transform="translate(-1.485 -3.65)"/><path class="g" d="M14.934,25.148a5.385,5.385,0,0,1-7.571,0L5.125,27.383a8.486,8.486,0,0,0,12.022-.022l-.64-1.368Z" transform="translate(-2.606 -12.786)"/><path class="h" d="M15.984,25.148a5.384,5.384,0,0,1-7.571,0L7.189,26.368a7.1,7.1,0,0,0,10.015,0Z" transform="translate(-3.656 -12.786)"/><path class="i" d="M25.932,15.278a.3.3,0,0,0-.3-.3h-7.95a.273.273,0,0,0-.273.273v2.629a.273.273,0,0,0,.273.273H21.56a.515.515,0,0,1,.443.779,5.353,5.353,0,0,1-.82,1.046l0,0,2.213,2.213q.157-.157.317-.314a8.621,8.621,0,0,0,2.223-5.786Z" transform="translate(-8.85 -7.614)"/><path class="j" d="M24.138,19.944a1.458,1.458,0,0,0-1.382-1.918H17.4v1.4a.273.273,0,0,0,.273.273H21.56a.515.515,0,0,1,.443.779,5.354,5.354,0,0,1-.817,1.042l-.006.007,1.22,1.22a7.11,7.11,0,0,0,1.536-2.265q.112-.265.2-.54Z" transform="translate(-8.85 -9.166)"/></g></g></svg>