<svg xmlns="http://www.w3.org/2000/svg" width="15.345" height="15.844" viewBox="0 0 15.345 15.844"><defs><style>.a{fill:#fd7422;}</style></defs><g transform="translate(-8.055)"><g transform="translate(16.336 4.551)"><path class="a" d="M280.617,147.064h-4.7a.253.253,0,0,0,0,.506h4.7a.253.253,0,0,0,0-.506Z" transform="translate(-275.663 -147.064)"/></g><g transform="translate(8.055)"><path class="a" d="M23.147,6.573h-.593V4.045h.084a.253.253,0,0,0,0-.506h-.431A3.292,3.292,0,0,0,19.183.515V.253a.253.253,0,0,0-.506,0V.515A3.292,3.292,0,0,0,15.653,3.54h-.431a.253.253,0,1,0,0,.506h.084V6.573h-1.77a1.259,1.259,0,0,0,.228-.506h.11a.253.253,0,1,0,0-.506h-.338a1.259,1.259,0,0,0,.228-.506h.11a.253.253,0,0,0,0-.506h-.338a1.259,1.259,0,0,0,.228-.506h.11a.253.253,0,1,0,0-.506h-.338a1.259,1.259,0,0,0,.228-.506h.11a.253.253,0,0,0,0-.506H8.817a.253.253,0,0,0,0,.506h.11a1.258,1.258,0,0,0,.228.506H8.817a.253.253,0,0,0,0,.506h.11a1.258,1.258,0,0,0,.228.506H8.817a.253.253,0,0,0,0,.506h.11a1.258,1.258,0,0,0,.228.506H8.817a.253.253,0,0,0,0,.506h.11a1.258,1.258,0,0,0,.228.506H8.308a.253.253,0,0,0-.253.253V8.849a.253.253,0,0,0,.253.253H20.787a.253.253,0,1,0,0-.506H8.561V7.079H22.895V8.6H21.8a.253.253,0,0,0,0,.506h1.008v5.214a1.959,1.959,0,0,1-.847-.294,2.635,2.635,0,0,0-2.688,0,2.132,2.132,0,0,1-2.2,0,2.635,2.635,0,0,0-2.688,0,2.132,2.132,0,0,1-2.2,0,2.635,2.635,0,0,0-2.688,0c-.07.039-.139.076-.209.111a1.734,1.734,0,0,1-.638.183V9.86a.253.253,0,1,0-.506,0V14.58a.253.253,0,0,0,.253.253,2.55,2.55,0,0,0,.758-.1v.863a.253.253,0,1,0,.506,0V14.508l.08-.044a2.132,2.132,0,0,1,2.2,0,2.635,2.635,0,0,0,2.688,0,2.132,2.132,0,0,1,2.2,0,2.635,2.635,0,0,0,2.688,0,2.132,2.132,0,0,1,2.2,0l.08.044v1.083a.253.253,0,1,0,.506,0v-.863a2.549,2.549,0,0,0,.758.1.253.253,0,0,0,.253-.253V9.04a.252.252,0,0,0,.088-.191V6.826A.253.253,0,0,0,23.147,6.573Zm-10.622,0h-2.36a.76.76,0,0,1-.715-.506h3.79A.76.76,0,0,1,12.525,6.573Zm0-1.011h-2.36a.76.76,0,0,1-.715-.506h3.79A.76.76,0,0,1,12.525,5.562Zm0-1.011h-2.36a.76.76,0,0,1-.715-.506h3.79A.76.76,0,0,1,12.525,4.551Zm0-1.011h-2.36a.76.76,0,0,1-.715-.506h3.79A.76.76,0,0,1,12.525,3.54Zm6.4-2.528A2.784,2.784,0,0,1,21.7,3.54H16.161A2.785,2.785,0,0,1,18.93,1.011Zm3.118,5.562H15.812V4.045h6.236Z" transform="translate(-8.055)"/></g><g transform="translate(21.374 11.293)"><circle class="a" cx="0.253" cy="0.253" r="0.253"/></g><g transform="translate(20.363 12.304)"><circle class="a" cx="0.253" cy="0.253" r="0.253"/></g></g></svg>