<svg xmlns="http://www.w3.org/2000/svg" width="15.91" height="15.91" viewBox="0 0 15.91 15.91"><defs><style>.a{fill:#abe0e0;}.b{fill:#0d716a;}</style></defs><g transform="translate(3.007 8.396)"><path class="a" d="M103.294,372.521a2.914,2.914,0,0,0-1.441-.974l-.036-.011h-.075A2.661,2.661,0,0,1,99.058,373l-.358-.039-.358.04a2.661,2.661,0,0,1-2.684-1.466H95.62l-.074.011a2.91,2.91,0,0,0-1.441.974l-.354.441.353.442a2.926,2.926,0,0,0,4.57,0l.025-.031.025.031a2.926,2.926,0,0,0,4.57,0l.354-.442Z" transform="translate(-93.752 -368.014)"/><path class="a" d="M201.54,267.029l-.442-.354a2.926,2.926,0,0,1,0-4.57l.442-.353.442.354a2.926,2.926,0,0,1,0,4.57Z" transform="translate(-196.592 -261.752)"/></g><path class="b" d="M14.114,5.646h-1.69L9.209,2.43a1.54,1.54,0,1,0-2.507,0L3.486,5.646H1.8A1.8,1.8,0,0,0,0,7.442v6.672a1.8,1.8,0,0,0,1.8,1.8H14.114a1.8,1.8,0,0,0,1.8-1.8V7.442A1.8,1.8,0,0,0,14.114,5.646ZM7.955.513A1.026,1.026,0,1,1,6.929,1.54,1.027,1.027,0,0,1,7.955.513Zm7.442,13.6A1.285,1.285,0,0,1,14.114,15.4H1.8A1.285,1.285,0,0,1,.513,14.114V7.442A1.285,1.285,0,0,1,1.8,6.159H5.132V5.646h-.92L7.064,2.793a1.529,1.529,0,0,0,1.781,0L11.7,5.646h-.92v.513h3.336A1.285,1.285,0,0,1,15.4,7.442Z"/><path class="b" d="M32.513,215.442V208.77a.257.257,0,0,1,.257-.257h3.336V208H32.77a.771.771,0,0,0-.77.77v6.672a.771.771,0,0,0,.77.77h1.283V215.7H32.77A.257.257,0,0,1,32.513,215.442Z" transform="translate(-30.974 -201.328)"/><path class="b" d="M339.336,208H336v.513h3.336a.257.257,0,0,1,.257.257v6.672a.257.257,0,0,1-.257.257h-1.283v.513h1.283a.771.771,0,0,0,.77-.77V208.77A.771.771,0,0,0,339.336,208Z" transform="translate(-325.222 -201.328)"/><path class="b" d="M224.77,25.54a.77.77,0,1,0-.77-.77A.771.771,0,0,0,224.77,25.54Zm0-1.026a.257.257,0,1,1-.257.257A.257.257,0,0,1,224.77,24.513Z" transform="translate(-216.815 -23.23)"/><path class="b" d="M290.88,178.053h.513c0-.065.019-.088.093-.165a.692.692,0,0,0,0-1.04c-.073-.077-.093-.1-.093-.165s.015-.083.093-.164a.7.7,0,0,0,.236-.519h-.513c0,.062-.015.083-.093.164a.691.691,0,0,0,0,1.039c.073.077.093.1.093.165s-.019.088-.093.165A.7.7,0,0,0,290.88,178.053Z" transform="translate(-281.549 -170.354)"/><path class="b" d="M143.566,305.067l-.063-.562-.562-.063a2.919,2.919,0,0,0-1.569.261,2.916,2.916,0,0,1,.129.511,2.388,2.388,0,0,1,1.384-.262l.154.017.017.154a2.409,2.409,0,0,1-2.222,2.671l1.53-1.53L142,305.9l-1.74,1.739v-2.46h-.513v2.46l-1.739-1.739-.363.363,1.53,1.53a2.408,2.408,0,0,1-2.222-2.671l.017-.154.154-.017a2.4,2.4,0,0,1,1.384.262,2.915,2.915,0,0,1,.129-.511,2.919,2.919,0,0,0-1.569-.261l-.562.063-.063.562a2.92,2.92,0,0,0,1.6,2.936h-1.114v.513h6.159V308h-1.113a2.921,2.921,0,0,0,1.595-2.936Z" transform="translate(-132.05 -294.659)"/><path class="b" d="M234.88,178.053h.513c0-.065.019-.088.093-.165a.692.692,0,0,0,0-1.04c-.073-.077-.093-.1-.093-.165s.015-.083.093-.164a.7.7,0,0,0,.236-.519h-.513c0,.062-.015.083-.093.164a.691.691,0,0,0,0,1.039c.073.077.093.1.093.165s-.019.088-.093.165A.7.7,0,0,0,234.88,178.053Z" transform="translate(-227.346 -170.354)"/><path class="b" d="M178.88,178.053h.513c0-.065.019-.088.093-.165a.692.692,0,0,0,0-1.04c-.073-.077-.093-.1-.093-.165s.015-.083.093-.164a.7.7,0,0,0,.236-.519h-.513c0,.062-.015.083-.093.164a.691.691,0,0,0,0,1.039c.073.077.093.1.093.165s-.019.088-.093.165A.7.7,0,0,0,178.88,178.053Z" transform="translate(-173.142 -170.354)"/></svg>