<svg xmlns="http://www.w3.org/2000/svg" width="17.171" height="16.872" viewBox="0 0 17.171 16.872"><defs><style>.a{fill:#5443ac;}</style></defs><g transform="translate(10792.406 3325.482)"><g transform="translate(-10792.406 -3325.482)"><path class="a" d="M17.158,18.136l-.31-1.184a.646.646,0,0,0-.549-.48l-1.1-.136a.117.117,0,0,1-.071-.037l-1.679-1.822a.182.182,0,0,1-.046-.1l-.346-2.243a.25.25,0,1,0-.493.076l.346,2.243a.68.68,0,0,0,.173.359l1.679,1.822a.616.616,0,0,0,.378.194l1.1.136a.149.149,0,0,1,.127.111l.267,1.021-1.6-.667a1.862,1.862,0,0,1-.33-.179l-2.392-1.63a.35.35,0,0,1-.139-.19l-.881-3a2.144,2.144,0,0,0,.122-.713s0-1.813,0-1.829a1.418,1.418,0,0,1,.263.15l.137.1a1.427,1.427,0,0,1,.569.932.25.25,0,0,0,.493-.076,1.93,1.93,0,0,0-.769-1.26l-.137-.1a1.923,1.923,0,0,0-.828-.341.89.89,0,0,0-.62-.251H9.845V8.511a1.745,1.745,0,0,0,.289-.437,1.012,1.012,0,0,0,.569-.511,1.074,1.074,0,0,0,.124-.619.645.645,0,0,0-.327-.509.571.571,0,0,0-.207-.062V5.657A1.19,1.19,0,0,0,9.1,4.468H8.082A1.19,1.19,0,0,0,6.893,5.657v.715a.572.572,0,0,0-.22.063.645.645,0,0,0-.327.509,1.074,1.074,0,0,0,.124.619,1.014,1.014,0,0,0,.584.514,1.747,1.747,0,0,0,.274.419V9.04H6.65a.889.889,0,0,0-.62.251,1.923,1.923,0,0,0-.828.341l-.137.1a1.93,1.93,0,0,0-.769,1.26l-.523,3.39a.183.183,0,0,1-.046.1L2.048,16.3a.117.117,0,0,1-.071.037l-1.1.136a.646.646,0,0,0-.549.48l-.31,1.184a.413.413,0,0,0,.093.383,1.475,1.475,0,0,0,1.381,2H3.2a.682.682,0,0,0-.044.442.5.5,0,0,0,.69.333l.957-.446a1.98,1.98,0,0,1,.674-.179l1.779-.15h8.429a1.475,1.475,0,0,0,1.38-2,.413.413,0,0,0,.093-.383Zm-5.127-2.1.81.552a10.377,10.377,0,0,0-1.419-.1h-.01l-.092-.153a3.573,3.573,0,0,1-.516-1.85v-.538a2.247,2.247,0,0,1,.166-.847l.725,2.471a.851.851,0,0,0,.336.462Zm-4.2-7.057a1.193,1.193,0,0,0,1.518.011v.429a.364.364,0,0,1-.363.363H8.19a.364.364,0,0,1-.363-.363Zm.255-4.011H9.1a.691.691,0,0,1,.69.69v.011h-2.4V5.657a.691.691,0,0,1,.69-.69ZM6.912,7.332a.581.581,0,0,1-.071-.327c.007-.133.1-.163.192-.111a.25.25,0,0,0,.359-.225v-.5h2.4v.5a.25.25,0,0,0,.353.227c.085-.048.179-.014.185.114a.581.581,0,0,1-.071.327.474.474,0,0,1-.322.274.25.25,0,0,0-.219.164,1.239,1.239,0,0,1-.307.47l-.337.322a.7.7,0,0,1-.965,0l-.337-.322a1.239,1.239,0,0,1-.307-.47.25.25,0,0,0-.228-.164.463.463,0,0,1-.326-.274ZM6.65,9.539h.686a.864.864,0,0,0,.854.742h.792a.864.864,0,0,0,.854-.742h.686a.394.394,0,0,1,.393.393v1.782a1.644,1.644,0,0,1-.229.837,2.748,2.748,0,0,0-.382,1.4v.538a4.073,4.073,0,0,0,.588,2.109l.093.153-.328.047a14.6,14.6,0,0,1-4.143,0l-.328-.047L6.28,16.6a4.072,4.072,0,0,0,.588-2.109v-.538a2.748,2.748,0,0,0-.382-1.4,1.645,1.645,0,0,1-.229-.837V9.933A.394.394,0,0,1,6.65,9.539Zm-.8,6.8-.092.153H5.75a10.379,10.379,0,0,0-1.419.1l.811-.553a.851.851,0,0,0,.336-.463L6.2,13.1a2.247,2.247,0,0,1,.166.847v.538A3.573,3.573,0,0,1,5.852,16.338Zm-5.046.741a.149.149,0,0,1,.127-.111l1.1-.136a.616.616,0,0,0,.378-.194l1.679-1.822a.68.68,0,0,0,.173-.358l.523-3.39a1.427,1.427,0,0,1,.569-.932l.137-.1a1.417,1.417,0,0,1,.263-.15c0,.015,0,1.829,0,1.829a2.144,2.144,0,0,0,.122.713l-.881,3a.35.35,0,0,1-.139.19l-2.392,1.63a1.86,1.86,0,0,1-.33.179L.54,18.1Zm-.3,1.962a.976.976,0,0,1,.1-.429l1.528-.638.844-.046a7.484,7.484,0,0,1,2.059.175c.042.007.271.067.309.064a.25.25,0,0,0,.055-.493l-.253-.057a7.983,7.983,0,0,0-2.045-.193l.176-.12a9.883,9.883,0,0,1,2.383-.313l0,.005a.405.405,0,0,0,.31.228l.466.067a15.1,15.1,0,0,0,4.284,0l.466-.067a.406.406,0,0,0,.31-.228l0-.005a9.885,9.885,0,0,1,2.383.313l.176.12a7.985,7.985,0,0,0-2.045.193l-3.435.779L7.43,18.132a.92.92,0,0,0-1.123.176l-.442.476a.422.422,0,0,1-.166.11l-1.067.383a1.634,1.634,0,0,0-.583.361l-.4.381H1.487a.978.978,0,0,1-.977-.977ZM5.434,20.17a2.478,2.478,0,0,0-.843.224l-.951.444a.182.182,0,0,1,.052-.167l.7-.673a1.138,1.138,0,0,1,.406-.251l1.067-.383a.923.923,0,0,0,.364-.24l.442-.476a.423.423,0,0,1,.552-.057l.4.247A1.628,1.628,0,0,0,8,19.01l.017.005v.937Zm10.25-.152H8.511V18.924l3.62-.821a7.482,7.482,0,0,1,2.059-.175s.828.044.838.043l1.533.64a.976.976,0,0,1-.877,1.406Z" transform="translate(0 -4.468)"/></g></g></svg>