<svg xmlns="http://www.w3.org/2000/svg" width="14.395" height="15.356" viewBox="0 0 14.395 15.356"><defs><style>.a{fill:#1ca8fc;}</style></defs><path class="a" d="M24.507,14.661l-.014.222a.327.327,0,0,1-.162.256.807.807,0,0,1-.387.13H22.679A1.529,1.529,0,0,0,21.155,16.8v1.151c0,.032,0,.04,0,.012s0-.019,0,.015v.5a.24.24,0,0,0,0,.036V19.53a2.555,2.555,0,0,0,.615,1.654v.394l-1.446-1.446a1.962,1.962,0,0,0-.437-2.01,1.989,1.989,0,0,0-2.813,2.813,1.963,1.963,0,0,0,2.01.436l1.681,1.681-1.711.977a2.216,2.216,0,0,0-1.123,1.925v4.064H29.448V25.953a2.217,2.217,0,0,0-1.122-1.925h0l-1.715-.979,1.7-1.7a1.951,1.951,0,0,0,2-.435,1.977,1.977,0,0,0,.483-2.007.24.24,0,0,0-.4-.1L29.27,19.932l-.7-.078-.077-.7,1.122-1.122a.24.24,0,0,0-.1-.4,1.981,1.981,0,0,0-2.006.481,1.951,1.951,0,0,0-.433,2l-1.472,1.472v-.357a2.558,2.558,0,0,0,.65-1.7V17.979c0-.026,0-.024,0-.012s0,.016,0-.013v-1.7l0-.015a2.087,2.087,0,0,0-.441-1.112,1.389,1.389,0,0,0-1.084-.466Zm.311.514a.875.875,0,0,1,.634.264,1.646,1.646,0,0,1,.327.856v1.658c0-.025,0-.02,0,.009s0,.036,0,.015v.138a1.391,1.391,0,0,0-.429-.157,4.612,4.612,0,0,0-1.018-.021,3.136,3.136,0,0,1-.919-.056.99.99,0,0,1-.645-.5.24.24,0,0,0-.44.058c.006-.023-.041.076-.121.171a3.23,3.23,0,0,1-.306.308,2.839,2.839,0,0,1-.267.206v-.146c0,.026,0,.018,0-.013s0-.034,0-.013V16.8a1.041,1.041,0,0,1,1.044-1.053h1.3a1.244,1.244,0,0,0,.632-.217C24.717,15.454,24.751,15.3,24.818,15.174ZM22.591,17.89a1.548,1.548,0,0,0,.7.455,3.452,3.452,0,0,0,1.066.074,4.537,4.537,0,0,1,.911.012.694.694,0,0,1,.515.317v.781a2.072,2.072,0,1,1-4.144,0v-.84a1.589,1.589,0,0,0,.185-.1,3.183,3.183,0,0,0,.4-.307,3.639,3.639,0,0,0,.352-.357C22.581,17.909,22.583,17.9,22.591,17.89Zm-4.11.127a1.513,1.513,0,0,1,1.382,2.117.24.24,0,0,0,.05.266l1.858,1.858v.219l-.4.231a.24.24,0,0,0-.088.05L21.2,22.8l-1.846-1.845a.24.24,0,0,0-.266-.051,1.508,1.508,0,0,1-1.671-.313h0a1.511,1.511,0,0,1,1.068-2.577Zm10.417.056-.825.824a.24.24,0,0,0-.069.2l.112,1a.24.24,0,0,0,.212.212l1,.112a.24.24,0,0,0,.2-.069l.826-.826a1.45,1.45,0,0,1-.383,1.045,1.5,1.5,0,0,1-1.659.312.24.24,0,0,0-.266.05L26.178,22.8l-.569-.324v-.214l1.884-1.884a.24.24,0,0,0,.051-.267,1.493,1.493,0,0,1,.31-1.656A1.449,1.449,0,0,1,28.9,18.072Zm-10.152.258a.242.242,0,0,0-.059.008l-.957.267a.248.248,0,0,0-.172.172l-.266.957a.236.236,0,0,0,.059.231l.69.691a.236.236,0,0,0,.232.059l.957-.267a.243.243,0,0,0,.172-.172l.265-.957a.236.236,0,0,0-.059-.231l-.69-.691a.235.235,0,0,0-.172-.067Zm-.073.508.5.5-.191.688-.69.193-.5-.5.192-.688Zm3.577,2.8a2.529,2.529,0,0,0,2.879.028V22.1c0,.152-.113.322-.371.47a2.406,2.406,0,0,1-2.137,0c-.258-.148-.371-.318-.371-.47Zm-.108,1.182a1.6,1.6,0,0,0,.241.168,2.875,2.875,0,0,0,2.613,0,1.6,1.6,0,0,0,.241-.168l.393.224-.784,3.137H22.5l-.78-3.119Zm3.921.471.827.472L26.06,27.08v.007c-.068.309-.267.531-.533.531a.389.389,0,0,1-.433-.448l.97-3.88Zm-4.777.018.965,3.863a.389.389,0,0,1-.433.448c-.266,0-.465-.223-.533-.531v-.008l-.825-3.3Zm6.038.7.765.437a1.734,1.734,0,0,1,.88,1.508v3.584h-1.44V26.417a.24.24,0,0,0-.24-.24h-.508Zm-7.3.018.538,2.152H20.09a.24.24,0,0,0-.24.24v3.119h-1.44V25.952a1.734,1.734,0,0,1,.88-1.508h0Zm.306,2.631h.352l.133.531a1.078,1.078,0,0,0,1,.907.9.9,0,0,0,.91-.99.24.24,0,0,0,0-.029l-.1-.42h2.107l-.1.422a.241.241,0,0,0,0,.028.9.9,0,0,0,.91.99,1.078,1.078,0,0,0,1-.907l.133-.532h.388v2.879H20.33Zm1.392,0a.24.24,0,1,0,.24.24A.24.24,0,0,0,21.722,26.656Zm3.9,0a.24.24,0,1,0,.24.24A.24.24,0,0,0,25.621,26.656Z" transform="translate(-16.493 -14.661)"/></svg>