<svg id="noun_Share_1605601" xmlns="http://www.w3.org/2000/svg" width="15.521" height="18.813" viewBox="0 0 15.521 18.813">
  <g id="Group_1479" data-name="Group 1479" transform="translate(0 0)">
    <path id="Path_514" data-name="Path 514" d="M29.7,962.362a2.818,2.818,0,0,0-2.528,4.071l-5.387,3.314a2.822,2.822,0,1,0,.007,4.034l5.387,3.314a2.774,2.774,0,0,0-.3,1.257,2.835,2.835,0,1,0,.86-2.021l-5.387-3.314a2.805,2.805,0,0,0,.294-1.249,2.774,2.774,0,0,0-.3-1.257l5.387-3.314a2.8,2.8,0,0,0,1.969.808,2.822,2.822,0,1,0,0-5.644Zm0,.941a1.881,1.881,0,1,1-1.881,1.881A1.874,1.874,0,0,1,29.7,963.3Zm-9.877,6.585a1.881,1.881,0,1,1-1.881,1.881A1.874,1.874,0,0,1,19.822,969.887Zm9.877,6.585a1.881,1.881,0,1,1-1.881,1.881A1.874,1.874,0,0,1,29.7,976.472Z" transform="translate(-17 -962.362)" fill="#72748f"/>
  </g>
</svg>
