<svg xmlns="http://www.w3.org/2000/svg" width="30" height="30" viewBox="0 0 30 30"><defs><style>.a{fill:#929baa;}.b,.d{fill:none;}.b{stroke:#929baa;stroke-width:0.7px;stroke-dasharray:3;}.c{stroke:none;}</style></defs><g transform="translate(-1847 -166)"><g transform="translate(1856 175)"><path class="a" d="M11.279,1.074H10.116V.732a.732.732,0,0,0-1.465,0v.342h-4.1V.732a.732.732,0,1,0-1.465,0v.351a.244.244,0,0,0-.065-.009H2.046A1.222,1.222,0,0,0,.826,2.295V6.453a.244.244,0,0,0,.488,0V3.589h8.8a.244.244,0,0,0,0-.488h-8.8V2.295a.733.733,0,0,1,.732-.732h.973a.245.245,0,0,0,.065-.009v.314a.732.732,0,0,0,1.465,0V1.563h4.1v.305a.732.732,0,0,0,1.465,0V1.563h1.164a.733.733,0,0,1,.732.732v9.277a.44.44,0,1,1-.879,0v-.632a.244.244,0,0,0-.244-.244H8.049a.244.244,0,0,0,0,.488h2.6v.387a.922.922,0,0,0,.111.44H.928a.44.44,0,0,1-.439-.439v-.388H5.953a.244.244,0,0,0,0-.488H3.513A2,2,0,1,0,.9,10.7H.244A.244.244,0,0,0,0,10.941v.632a.929.929,0,0,0,.928.928H11.572a.929.929,0,0,0,.928-.928V2.295A1.222,1.222,0,0,0,11.279,1.074Zm-7.218.793a.244.244,0,0,1-.488,0V.732a.244.244,0,0,1,.488,0Zm5.566,0a.244.244,0,0,1-.488,0V.732a.244.244,0,0,1,.488,0ZM.7,9.18a1.514,1.514,0,1,1,1.514,1.514A1.515,1.515,0,0,1,.7,9.18Z"/><g transform="translate(10.957 3.096)"><path class="a" d="M451.673,127.074a.254.254,0,1,0,.074.18A.256.256,0,0,0,451.673,127.074Z" transform="translate(-451.24 -127)"/></g><g transform="translate(6.863 10.624)"><path class="a" d="M282.013,438.2a.254.254,0,1,0,.074.18A.255.255,0,0,0,282.013,438.2Z" transform="translate(-281.58 -438.13)"/></g><g transform="translate(4.564 7.37)"><path class="a" d="M189.21,304a.965.965,0,1,0,.965.965A.966.966,0,0,0,189.21,304Zm0,1.422a.457.457,0,1,1,.457-.457A.458.458,0,0,1,189.21,305.422Z" transform="translate(-188.245 -304)"/></g><g transform="translate(6.827 7.37)"><path class="a" d="M282.543,304a.965.965,0,1,0,.965.965A.966.966,0,0,0,282.543,304Zm0,1.422a.457.457,0,1,1,.457-.457A.458.458,0,0,1,282.543,305.422Z" transform="translate(-281.578 -304)"/></g><g transform="translate(9.019 7.37)"><path class="a" d="M375.877,304a.965.965,0,1,0,.965.965A.966.966,0,0,0,375.877,304Zm0,1.422a.457.457,0,1,1,.457-.457A.458.458,0,0,1,375.877,305.422Z" transform="translate(-374.912 -304)"/></g><g transform="translate(2.301 4.849)"><path class="a" d="M95.877,200a.965.965,0,1,0,.965.965A.966.966,0,0,0,95.877,200Zm0,1.422a.457.457,0,1,1,.457-.457A.458.458,0,0,1,95.877,201.422Z" transform="translate(-94.912 -200)"/></g><g transform="translate(6.827 4.849)"><path class="a" d="M282.543,200a.965.965,0,1,0,.965.965A.966.966,0,0,0,282.543,200Zm0,1.422a.457.457,0,1,1,.457-.457A.458.458,0,0,1,282.543,201.422Z" transform="translate(-281.578 -200)"/></g><g transform="translate(9.019 4.849)"><path class="a" d="M375.877,200a.965.965,0,1,0,.965.965A.966.966,0,0,0,375.877,200Zm0,1.422a.457.457,0,1,1,.457-.457A.458.458,0,0,1,375.877,201.422Z" transform="translate(-374.912 -200)"/></g><g transform="translate(4.564 4.849)"><path class="a" d="M189.21,200a.965.965,0,1,0,.965.965A.966.966,0,0,0,189.21,200Zm0,1.422a.457.457,0,1,1,.457-.457A.458.458,0,0,1,189.21,201.422Z" transform="translate(-188.245 -200)"/></g><g transform="translate(1.3 8.468)"><path class="a" d="M53.1,348.775a.254.254,0,0,0-.359,0l-.827.827-.283-.283a.254.254,0,0,0-.359.359l.462.462a.254.254,0,0,0,.359,0l1.006-1.006A.254.254,0,0,0,53.1,348.775Z" transform="translate(-51.194 -348.7)"/></g></g><g class="b" transform="translate(1847 166)"><circle class="c" cx="15" cy="15" r="15"/><circle class="d" cx="15" cy="15" r="14.65"/></g></g></svg>