<svg xmlns="http://www.w3.org/2000/svg" width="17.395" height="17.395" viewBox="0 0 17.395 17.395"><defs><style>.a{fill:#50abf1;}.b{fill:#fff;}</style></defs><rect class="a" width="17.395" height="17.395" rx="4"/><path class="b" d="M60.359,105.27A7.489,7.489,0,0,0,71.85,98.941q0-.155-.006-.308a5.885,5.885,0,0,0,1.3-1.336,6.074,6.074,0,0,1-1.487.386h0l0,0A2.784,2.784,0,0,0,72.8,96.222a9.122,9.122,0,0,1-1.275.532c-.123.041-.252.081-.385.118a2.627,2.627,0,0,0-4.478,2.39,7.912,7.912,0,0,1-5.393-2.726s-1.256,1.714.748,3.477a2.7,2.7,0,0,1-1.135-.338,2.5,2.5,0,0,0,2.077,2.608,2.4,2.4,0,0,1-1.159.049,2.59,2.59,0,0,0,2.415,1.835,5.047,5.047,0,0,1-3.858,1.1Z" transform="translate(-58.054 -92.375)"/></svg>