<svg xmlns="http://www.w3.org/2000/svg" width="16" height="16" viewBox="0 0 16 16"><defs><style>.a{fill:#fff;}</style></defs><g transform="translate(-2 198)"><path class="a" d="M6,122a.571.571,0,0,0-.571.571v.571H3.769A1.778,1.778,0,0,0,2,124.912v11.319A1.778,1.778,0,0,0,3.769,138H16.231A1.778,1.778,0,0,0,18,136.231V124.912a1.778,1.778,0,0,0-1.769-1.769h-1.66v-.571a.571.571,0,1,0-1.143,0v.571H6.571v-.571A.571.571,0,0,0,6,122Zm-2.231,2.286h1.66v.765a.571.571,0,0,0,1.143,0v-.765h6.857v.765a.571.571,0,0,0,1.143,0v-.765h1.66a.613.613,0,0,1,.626.626v2.231H3.143v-2.231A.613.613,0,0,1,3.769,124.286Z" transform="translate(0 -320)"/></g></svg>