<svg xmlns="http://www.w3.org/2000/svg" width="19" height="19" viewBox="0 0 19 19"><defs><style>.a{fill:#d2d6dc;}.b{fill:#64758b; stroke:none;}</style></defs><g transform="translate(-18 -388)"><circle class="a" cx="1" cy="1" r="1" transform="translate(24.4 396.6)"/><circle class="a" cx="1" cy="1" r="1" transform="translate(33.199 388.801)"/><circle class="a" cx="1" cy="1" r="1" transform="translate(19.801 394.301)"/><rect class="a" width="2" height="12" transform="translate(33.301 394)"/><rect class="a" width="2" height="4" transform="translate(24.301 402)"/><rect class="a" width="2" height="6" transform="translate(19.699 400)"/><g transform="translate(18 388)"><path class="b" d="M32.67,8.906a1.664,1.664,0,0,0,1.158-.469l1.638.819a1.67,1.67,0,1,0,3.163-.514l2.227-2.227A1.67,1.67,0,0,0,43.17,4.51L45.1,3.059a1.668,1.668,0,1,0-.669-.89L42.5,3.62a1.669,1.669,0,0,0-2.432,2.109L37.843,7.956a1.666,1.666,0,0,0-1.878.305l-1.638-.819A1.67,1.67,0,1,0,32.67,8.906ZM46.029,1.113a.557.557,0,1,1-.557.557A.557.557,0,0,1,46.029,1.113Zm-4.453,3.34a.557.557,0,1,1-.557.557A.557.557,0,0,1,41.576,4.453ZM37.123,8.906a.557.557,0,1,1-.557.557A.557.557,0,0,1,37.123,8.906ZM32.67,6.68a.557.557,0,1,1-.557.557A.557.557,0,0,1,32.67,6.68Zm0,0" transform="translate(-29.85)"/><path class="b" d="M18.443,162.32H17.85V150.557a.557.557,0,0,0-.557-.557H15.066a.557.557,0,0,0-.557.557V162.32H13.4V153.9a.557.557,0,0,0-.557-.557H10.613a.557.557,0,0,0-.557.557v8.424H8.943V158.35a.557.557,0,0,0-.557-.557H6.16a.557.557,0,0,0-.557.557v3.971H4.49v-6.2a.557.557,0,0,0-.557-.557H1.707a.557.557,0,0,0-.557.557v6.2H.557a.557.557,0,0,0,0,1.113H18.443a.557.557,0,0,0,0-1.113Zm-2.82-11.207h1.113V162.32H15.623Zm-4.453,3.34h1.113v7.867H11.17Zm-4.453,4.453H7.83v3.414H6.717ZM2.264,156.68H3.377v5.641H2.264Zm0,0" transform="translate(0 -144.434)"/></g></g></svg>