<svg xmlns="http://www.w3.org/2000/svg" width="517.154" height="328.419" viewBox="0 0 517.154 328.419"><defs><style>.a{fill:#4a6cbd;}.b{fill:#663199;}.c{fill:#f35f52;}.d{fill:#f47374;}.e{fill:#b14a40;}.f{fill:#1b375a;}.g{fill:#375491;}.h{fill:#82a9de;}.i{fill:#f7d99b;}.j{fill:#4366ba;}.k{fill:#cacb9a;}.l{fill:#59c69f;}.m{fill:#43927a;}.n{fill:#3c8777;}.o{fill:#91433c;}.p,.z{fill:#1e4150;}.q{fill:#f3c267;}.r{fill:#ebebe9;}.s{fill:#fff;}.t{fill:#f68480;}.u{fill:#14293f;}.v{fill:#1b3659;}.w{fill:#f68d82;}.x{fill:#38816a;}.y{fill:#c4daf2;}.z{opacity:0.15;}</style></defs><g transform="translate(6521.641 13771.056)"><path class="a" d="M1216.413-916.11c-.726,0-1.313-.4-1.312-.887s.591-.882,1.317-.882,1.313.4,1.312.887S1217.139-916.108,1216.413-916.11Zm.008-3.321c.515,0,.931.259.93.576s-.418.572-.933.57-.931-.259-.93-.576S1215.907-919.433,1216.421-919.431Zm0-.7c-.959,0-1.739,1.1-1.742,2.47s.771,2.477,1.73,2.479,1.739-1.1,1.742-2.47-.771-2.475-1.73-2.479" transform="translate(-7608.247 -12635.546)"/><path class="b" d="M1194.519-879.638a6,6,0,0,0-.558,2.508l-.045,18.114a1.992,1.992,0,0,0,2,1.986l10.358.025a1.991,1.991,0,0,0,2.006-1.975l.044-18.116a5.994,5.994,0,0,0-.545-2.51l-13.257-.032" transform="translate(-7590.284 -12670.576)"/><path class="b" d="M1194.519-879.638a6,6,0,0,0-.558,2.508l-.045,18.114a1.992,1.992,0,0,0,2,1.986l10.358.025a1.991,1.991,0,0,0,2.006-1.975l.044-18.116a5.994,5.994,0,0,0-.545-2.51l-13.257-.032" transform="translate(-7590.284 -12670.576)"/><path class="c" d="M1208.329-877.1l-.044,18.116a1.991,1.991,0,0,1-2.006,1.975l-10.358-.025a1.991,1.991,0,0,1-2-1.986l.045-18.114a6.006,6.006,0,0,1,.557-2.508l13.256.034a6,6,0,0,1,.547,2.508" transform="translate(-7590.29 -12670.576)"/><path class="d" d="M1196.664-859.008l.045-18.114a5.994,5.994,0,0,1,.557-2.508l-2.746-.007a6,6,0,0,0-.558,2.508l-.045,18.114a1.992,1.992,0,0,0,2,1.986l2.746.005a1.989,1.989,0,0,1-2-1.984" transform="translate(-7590.284 -12670.576)"/><path class="e" d="M1260.386-876.946l-.045,18.116a1.99,1.99,0,0,1-2.006,1.975l-4.235-.009a2,2,0,0,0,2.027-1.977l.044-18.116a5.961,5.961,0,0,0-.552-2.508l4.219.011a6,6,0,0,1,.547,2.508" transform="translate(-7642.348 -12670.725)"/><path class="f" d="M1211.629-886.307l-13.259-.032a1.053,1.053,0,0,1,1.062-1.045l11.14.027a1.054,1.054,0,0,1,1.057,1.051" transform="translate(-7594.136 -12663.874)"/><path class="g" d="M1208.314-753.269l-14.36-.036-.006,2.251,14.361.036.005-2.251" transform="translate(-7590.311 -12779.862)"/><path class="h" d="M827.333-924.675h1.584a1.663,1.663,0,0,0-.936-.282H788.3a3.564,3.564,0,0,0-3.759,3.332v2.116a3.564,3.564,0,0,0,3.759,3.332l39.235-.011-.2-8.486" transform="translate(-7236.146 -12631.371)"/><path class="a" d="M911.675-924.9a3.409,3.409,0,0,0-3.595,3.186v2.393a3.409,3.409,0,0,0,3.595,3.186h24.7v-.534h-.1l-6.279-.527-1.269-4.415s2.45-2.438,2.61-2.5,4.939-.254,4.939-.254l.1,0v-.533h-24.7" transform="translate(-7343.014 -12631.416)"/><path class="i" d="M939.9-917.1a5.1,5.1,0,0,1,1.5-3.83H917.3a3.131,3.131,0,0,0-3.3,2.925v1.842a3.132,3.132,0,0,0,3.3,2.927h24.1s-1.5-.613-1.5-3.864" transform="translate(-7348.135 -12634.853)"/><path class="j" d="M914-885.529v0m0-.018s0-.005,0-.009,0,.005,0,.009m0-.014c0-.005,0-.011,0-.016s0,.011,0,.016m0-.02c0-.005,0-.011,0-.016h0c0,.005,0,.011,0,.016" transform="translate(-7348.135 -12665.419)"/><path class="k" d="M914.1-915.462a2.611,2.611,0,0,1-.1-.633v0c0-.005,0-.011,0-.016s0-.005,0-.009v-.005c0-.005,0-.011,0-.016v0c0-.005,0-.011,0-.016v-1.842a3.131,3.131,0,0,1,3.3-2.925h24.1s-15.044.189-21.967,1.463a6.905,6.905,0,0,0-5.336,4.006" transform="translate(-7348.136 -12634.853)"/><path class="l" d="M786.332-795.068h1.792a1.743,1.743,0,0,0-1.059-.356H742.157a4.213,4.213,0,0,0-4.254,4.172v2.648a4.213,4.213,0,0,0,4.254,4.172l44.406-.016-.231-10.62" transform="translate(-7195.798 -12743.427)"/><path class="m" d="M881.79-795.345a4.03,4.03,0,0,0-4.068,3.989v2.994a4.03,4.03,0,0,0,4.068,3.989h27.957v-.669h-.116l-7.107-.66-1.436-5.525s2.773-3.053,2.953-3.132,5.59-.317,5.59-.317l.116,0v-.666H881.79" transform="translate(-7316.752 -12743.495)"/><path class="i" d="M913.73-785.589a6.685,6.685,0,0,1,1.7-4.8H888.159a3.7,3.7,0,0,0-3.737,3.665v2.3a3.7,3.7,0,0,0,3.737,3.665h27.274s-1.7-.768-1.7-4.836" transform="translate(-7322.548 -12747.786)"/><path class="n" d="M884.422-746.023h0m0-.013v0m0-.013v0" transform="translate(-7322.548 -12786.138)"/><path class="k" d="M884.531-783.538a3.6,3.6,0,0,1-.109-.837h0v-.014s0-.007,0-.011v-.018h0v-2.3a3.7,3.7,0,0,1,3.737-3.665h27.274s-17.027.238-24.863,1.832a7.99,7.99,0,0,0-6.039,5.016" transform="translate(-7322.548 -12747.786)"/><path class="c" d="M715.434-859.771h-1.793a2.079,2.079,0,0,1,1.06-.281h44.926c2.351,0,4.256,1.482,4.256,3.31v2.1c0,1.828-1.905,3.308-4.256,3.308l-44.424-.011.231-8.428" transform="translate(-7174.811 -12687.519)"/><path class="e" d="M736.651-860c2.248,0,4.07,1.418,4.07,3.164v2.377c0,1.749-1.822,3.165-4.07,3.165H708.684v-.531h.116l7.11-.524,1.437-4.384s-2.774-2.423-2.955-2.484-5.593-.252-5.593-.252l-.116,0V-860h27.968" transform="translate(-7170.522 -12687.565)"/><path class="i" d="M711.207-852.246a4.827,4.827,0,0,0-1.7-3.8h27.284c2.065,0,3.739,1.3,3.739,2.907v1.828c0,1.6-1.674,2.907-3.739,2.907H709.5s1.7-.61,1.7-3.837" transform="translate(-7171.231 -12690.979)"/><path class="o" d="M939.423-820.855v0m0-.011v0m0-.011v0" transform="translate(-7370.128 -12721.406)"/><path class="k" d="M740.417-850.618a7.726,7.726,0,0,0-6.041-3.979c-7.839-1.266-24.873-1.454-24.873-1.454h27.284c2.065,0,3.739,1.3,3.739,2.907v1.828h0s0,.007,0,.011v.013s0,.007,0,.009v0a2.315,2.315,0,0,1-.109.664" transform="translate(-7171.231 -12690.979)"/><path class="p" d="M1786.86-731.947l-4.211-.8,18.2-96.532,4.213.8-18.2,96.532" transform="translate(-8099.58 -12714.141)"/><path class="p" d="M2733.618-731.508h5.066l-18.879-97.77-4.212.8,18.024,96.971" transform="translate(-8906.645 -12714.141)"/><path class="p" d="M2046.181-731.508h5.066l-18.879-97.77-4.213.8,18.026,96.971" transform="translate(-8311.961 -12714.141)"/><path class="p" d="M2480.7-728.694l-4.115.049,18.1-97.38,4.211.8-18.2,96.532" transform="translate(-8699.882 -12716.954)"/><path class="i" d="M1741.1-1807.844c16.679,1.786,38.264,3.672,59.931,40.442,23.682,40.19,11.217,100.222-7.475,116.9s-79.742,37.28-131.061,6.443c0,0-30.986-18.687-15.083-49.7,24.472-47.726,21.015-57.68,31.956-76.385s26.329-41.493,61.732-37.7" transform="translate(-7978.66 -11867.249)"/><path class="q" d="M1865.58-1746.479c-14.79-25.1-29.538-33.941-42.716-37.6a110.435,110.435,0,0,1,15.438,20.838c23.682,40.19,11.215,100.222-7.477,116.9-16.576,14.793-66.463,32.661-113.335,15.011a47.583,47.583,0,0,0,9.555,8.189c51.319,30.837,112.369,10.24,131.061-6.442s31.157-76.714,7.475-116.9" transform="translate(-8043.212 -11888.172)"/><path class="d" d="M655.675-1647.314c-.473,3.729,3.409,6.687,6.862,6.455a8.5,8.5,0,0,0,7.614-7.14c.6-4.06-1.835-7.308-5.609-7.6a4.709,4.709,0,0,0-4.963,6.28c.761,2.366,2.92,3.247,4.008,2.594a1.08,1.08,0,0,0-.23-2.017,1.06,1.06,0,0,0-1.054.453c-.9-.356-1.754-1.993-1.173-3.758.741-2.258,3.594-2.385,5.365-1.333,2.255,1.338,2.61,4.222,1.782,6.522a6.942,6.942,0,0,1-5.819,4.5,5.407,5.407,0,0,1-5.729-4.946.528.528,0,0,0-1.055,0" transform="translate(-7124.631 -11999.293)"/><path class="i" d="M2359.483-2516.387c-17.261-.1-31.307,8.41-31.37,19.014-.033,5.3,3.438,10.123,9.074,13.631l-7.1,15.594,14.815-12.068a47.561,47.561,0,0,0,14.351,2.229c17.263.1,31.308-8.41,31.371-19.016s-13.881-19.282-31.143-19.385" transform="translate(-8571.446 -11254.668)"/><path class="q" d="M2469.654-2448.21a10.889,10.889,0,0,0,13.307,7.758,10.9,10.9,0,0,0,7.757-13.311,10.892,10.892,0,0,0-13.309-7.758,10.9,10.9,0,0,0-7.756,13.311" transform="translate(-8693.575 -11301.819)"/><path class="r" d="M2522.829-2379.754a5.827,5.827,0,0,1-4.147,7.117,5.821,5.821,0,0,1-7.115-4.146l11.262-2.97" transform="translate(-8730.146 -11372.865)"/><path class="c" d="M1225.757-1632.407l47.66-.358a1.972,1.972,0,0,0,1.956-1.986l-.239-31.863a1.971,1.971,0,0,0-1.986-1.955l-47.659.358a1.969,1.969,0,0,0-1.956,1.984l.239,31.865a1.971,1.971,0,0,0,1.986,1.956" transform="translate(-7615.903 -11988.092)"/><path class="c" d="M1572.086-1537.21l15.387,15.681-18.983-3.542Z" transform="translate(-7914.317 -12101.728)"/><path class="s" d="M1340.188-1627.289l-4.632-.083s-5.834-4.357-6.014-5.9.779-4.8-.126-5.21a3.035,3.035,0,0,0-4.034,1.308c-.88,1.481-.147,6.883-.691,7.245a24.486,24.486,0,0,1-4.949.243,3.437,3.437,0,0,0-3.056,1.826l0,0a1.829,1.829,0,0,0,.443,2.261l1.033.864-.813,1.081a1.831,1.831,0,0,0,.353,2.556l.815.621-.558.637a1.83,1.83,0,0,0,.325,2.706l.725.509-.108.2a1.831,1.831,0,0,0,.6,2.4l.729.482,12.334.218a8.452,8.452,0,0,0,3.371-.633l4.352-.64a.955.955,0,0,0,.815-.943l.029-10.8a.958.958,0,0,0-.937-.957" transform="translate(-7696.302 -12013.86)"/><path class="t" d="M1946.522-1352.437l-4.287,12.861,13.066-5.14Z" transform="translate(-8237.634 -12261.569)"/><path class="u" d="M1960.234-1636.076c-.871.036-3.258.831-6.748,7.4-4.456,8.394-10.97,33.753-10.97,33.753l19.444,7.216,2.5-5.292,4.114-40.748s-8.1-2.344-8.337-2.333" transform="translate(-8237.876 -12016.202)"/><path class="v" d="M2091.631-1663.17c-5.561.007-19.318,1.625-25.7,3.657,0,0-4.69,40.18,4.222,70.711,2,6.834-1.649,28.333-1.649,28.333l57.616-.757s-6.826-51.972-4.255-60.366,2.632-37.65,2.632-37.65-.394-.061-12.944-2.224a131.053,131.053,0,0,0-19.919-1.7" transform="translate(-8343.569 -11992.764)"/><path class="w" d="M2284.436-349.306s-1.275,14.662-3.618,18.723.123,10.961.247,11.91,4.933,2.3,12.581,1.488,7.523-2.571,6.906-5.413-4.687-6.5-4.933-9.2,2.344-12.451,2.344-12.451l-13.527-5.053" transform="translate(-8529.661 -13129.351)"/><path class="x" d="M1806.258-997.468s-39.771-2.2-48.653,3.159,1.606,16.369,1.606,16.369,32.379,14.029,86.586,17.146c12.836.74,13.942-33.356,11.543-36.177s-51.082-.5-51.082-.5" transform="translate(-8074.828 -12567.866)"/><path class="g" d="M2289.29-190.358c7.875-.837,6.9-4.692,6.266-7.619-.4-1.831-2.657-3.992-4-6.036a13.134,13.134,0,0,1-5.269,2.553c-3.551,1.045-8.419-1.024-11.521-2.321a37.862,37.862,0,0,0-1.053,10.125c.128.975,7.705,4.134,15.58,3.3" transform="translate(-8524.353 -13255.04)"/><path class="m" d="M2296.571-966.585c-1.589,11.983-9.456,71.639-9.456,71.639l18.255,2.254s22.448-77.862,21.3-89.771-9.554-12.912-9.554-12.912-16.335-2.931-20.541,28.79" transform="translate(-8535.979 -12570.392)"/><path class="v" d="M2127.056-2054.722s6.066-6.394,10.945,1.385a4.847,4.847,0,0,1,6.394,1.648s6.792-2.043,8.439,8.108c0,0,3.494-.658,3.955,3.5a10.269,10.269,0,0,1-1.648,6.921s1.963,1.474,1.072,5.291a4.728,4.728,0,0,1-3.445,3.742s-.725,5.471-3.1,7.12-5.6.856-5.6.856-.856,2.967-3.627,2.7-6.2-2.9-9.3-1.713-11.142-.066-11.142-.066-9.031-4.021-6.329-13.252c0,0-4.746-4.285-.592-9.427,0,0-3.033-8.043,2.967-12.789s11.008-4.022,11.008-4.022" transform="translate(-8383.954 -11651.902)"/><path class="w" d="M2222.3-1799.353l-1.1,8.146s-2.459,11.735.7,14,13.457-14.331,13.457-14.331l-1.087-20.64-11.976,12.829" transform="translate(-8478.177 -11863.856)"/><path class="c" d="M2241.545-1805.494c-2.614,7.04-8.839,11.368-13.257,13.047l.93-6.906,11.976-12.829.351,6.689" transform="translate(-8485.089 -11863.856)"/><path class="w" d="M2172.721-1976.662a10.883,10.883,0,0,0-14.244,8.673,82.189,82.189,0,0,0-.884,10.451c-.173,9.515,4.751,18.773,9.073,18.773s16.26-6.158,16.691-19.664c.266-8.338-3.9-15.914-10.636-18.233" transform="translate(-8423.93 -11721.062)"/><path class="w" d="M2324.968-1854.209c0,2.1,1.393,3.8,3.108,3.8s3.107-1.7,3.107-3.8-1.392-3.8-3.107-3.8-3.108,1.7-3.108,3.8" transform="translate(-8568.726 -11824.213)"/><path class="v" d="M2100.862-2026.606c-4.462,3.535-6.027,8.905-3.494,12s8.206,2.731,12.667-.8,6.027-8.907,3.494-12-8.205-2.729-12.667.806" transform="translate(-8370.785 -11675.851)"/><path class="w" d="M2083.416-1601.36c-5.386-2.013-8.022,46.359-8.749,66.271-9.54.914-26.167.007-30.306-.3-1.948-.146-6.437-1.785-8.375-2.037a19.464,19.464,0,0,0-4.759-.225c-.358.063-10.3,4.114-11.152,5-1.054,1.1-3.908,3.882-3.426,5.084s5.485-3.35,5.485-3.35l2.445-1.367c-3.044,2.965-8.852,6.867-8.015,8.288.817,1.387,6.054-2.574,9.787-5.273-3.2,2.882-7.18,8.038-6.262,8.842.822.723,5.347-5.248,10.182-6.968,1.792-.637,3.578,1.128,4.989,1.34a10.149,10.149,0,0,0,3.651.2l5.237-1.479c1.783.16,1.828,1.211,3.629,1.594,2.09.443,5.521.91,8.184,1.558,15.333,3.735,20.448,5.467,25.141,5.466,14.219-.009,15.045-77.887,2.314-82.647" transform="translate(-8301.864 -12046.181)"/><path class="v" d="M2448.213-1584.921c1.007-20.394.86-45.531-10.611-49.821-4.526-1.693-12.505,8.483-11.071,50.235,6.124.5,15.115.91,21.682-.414" transform="translate(-8656.438 -12017.204)"/><path class="t" d="M2112.648-1329.33h1.169l17.58,43.053-1.211-.184-17.539-42.869" transform="translate(-8385.053 -12281.559)"/><path class="w" d="M1796.9-256.359s1.592,5.089-1.259,8.455-14.705,6.669-16.26,8.491a5.1,5.1,0,0,0-1.439,3.375l33.264-.912-.361-10.012-1.533-7.194-12.411-2.2" transform="translate(-8095.507 -13209.757)"/><path class="g" d="M1760.667-186.143s8.547,3.445,12.676,1.407,4-2.607,5.2-1.846,1.623,10.146,1.623,10.146l-37.4,1.1c-2.6-.059-3.92-1.97-1.8-3.605a30.177,30.177,0,0,1,4.078-2.416c2.925-1.673,15.632-4.782,15.632-4.782" transform="translate(-8062.603 -13269.839)"/><path class="m" d="M1740.048-982.851c-2.571-5.392-8.417-12.411-18.706-8.184-9.812,4.033-12.446,13.944-9.349,24.093s23.477,69.811,24.188,78.013l16.272.108s-2.958-47.241-3.683-58.659c-.7-10.987-4.271-26.037-8.722-35.371" transform="translate(-8037.395 -12573.088)"/><path class="c" d="M1709.237-1329.33h54.4a3.544,3.544,0,0,1,3.281,2.2l16.749,40.851h29.99a1.519,1.519,0,0,1,1.519,1.518,1.518,1.518,0,0,1-1.519,1.516H1728.3a5.958,5.958,0,0,1-5.435-3.519L1706-1324.331a3.547,3.547,0,0,1,3.236-5" transform="translate(-8033 -12281.559)"/><path class="s" d="M1948.578-1178.382a3.2,3.2,0,0,0,3.576,2.74,3.2,3.2,0,0,0,2.243-3.9,3.2,3.2,0,0,0-3.575-2.74,3.2,3.2,0,0,0-2.245,3.9" transform="translate(-8243.055 -12408.718)"/><path class="y" d="M2910.285-2102.736a26.885,26.885,0,0,1-26.782-25.231,26.9,26.9,0,0,1,25.125-28.549c.572-.036,1.142-.052,1.708-.052a26.884,26.884,0,0,1,26.782,25.229,26.9,26.9,0,0,1-25.125,28.549q-.859.053-1.707.054" transform="translate(-9051.852 -11565.938)"/><path class="p" d="M2878.334-1961.009v.763h-9.9v-.763h9.9" transform="translate(-9038.862 -11735.111)"/><path class="p" d="M3233.587-1961.009v.763h-9.9v-.763h9.9" transform="translate(-9346.182 -11735.111)"/><path class="p" d="M3080.153-2160.191h-.761v-9.924h.761v9.924" transform="translate(-9221.356 -11554.22)"/><path class="p" d="M3080.153-1805.632h-.761v-9.923h.761v9.923" transform="translate(-9221.356 -11860.938)"/><path class="p" d="M3078.087-1962.348a.82.82,0,0,1-.82.822.82.82,0,0,1-.82-.822.82.82,0,0,1,.82-.82.82.82,0,0,1,.82.82" transform="translate(-9218.809 -11733.243)"/><path class="p" d="M2985.75-2053.693a.363.363,0,0,1-.259-.106l-14.729-14.759a.37.37,0,0,1,0-.52.368.368,0,0,1,.518,0l14.728,14.759a.37.37,0,0,1,0,.52.363.363,0,0,1-.259.106" transform="translate(-9127.292 -11641.531)"/><path class="p" d="M3086.157-1942.169a.264.264,0,0,1-.134-.155l-4.76-14.41a.265.265,0,0,1,.169-.336.266.266,0,0,1,.336.169l4.76,14.41a.264.264,0,0,1-.169.336.261.261,0,0,1-.2-.015" transform="translate(-9222.964 -11738.505)"/><path class="v" d="M3407.7-1603.836l2.145-3.5-3.409-1.383-2.145,3.5Zm-8.687,3.12,2.4-3.9-1.925-.781a.823.823,0,0,1-.453-1.072.824.824,0,0,1,1.073-.453l2.22.9,2.143-3.5-2.056-.835a.823.823,0,0,1-.453-1.072.824.824,0,0,1,1.073-.453l2.351.953,2.49-4a.821.821,0,0,1,1.007-.328l.36.146a.822.822,0,0,1,.392,1.193l-2.315,3.778,3.409,1.384,2.49-4a.823.823,0,0,1,1.007-.329l.392.16a.823.823,0,0,1,.393,1.193l-2.314,3.778,1.925.781a.824.824,0,0,1,.453,1.072.823.823,0,0,1-1.072.453l-2.22-.9-2.11,3.51,2.056.833a.824.824,0,0,1,.453,1.072.822.822,0,0,1-1.072.453l-2.352-.953-2.544,4.13a.822.822,0,0,1-1.01.331l-.421-.171a.822.822,0,0,1-.39-1.194l2.4-3.893-3.409-1.382-2.542,4.129a.825.825,0,0,1-1.011.331l-.419-.169a.825.825,0,0,1-.392-1.194" transform="translate(-9497.744 -12034.162)"/><path class="d" d="M1835.637-2396.2l2.45-5.532-3.168-5.156a.833.833,0,0,1,.8-1.263l6.018.623,3.925-4.608a.833.833,0,0,1,1.447.365l1.268,5.917,5.593,2.31a.831.831,0,0,1,.1,1.488l-5.233,3.035-.468,6.032a.832.832,0,0,1-1.385.554l-4.5-4.041-5.881,1.421a.832.832,0,0,1-.955-1.146" transform="translate(-8144.689 -11344.604)"/><path class="q" d="M3153.007-2370.238l1.839-4.15-2.377-3.868a.624.624,0,0,1,.6-.947l4.516.467,2.943-3.455a.624.624,0,0,1,1.085.274l.951,4.438,4.2,1.733a.623.623,0,0,1,.075,1.115l-3.927,2.276-.351,4.526a.623.623,0,0,1-1.038.416l-3.379-3.03-4.413,1.063a.622.622,0,0,1-.716-.858" transform="translate(-9284.492 -11370.567)"/><path class="d" d="M2999.179-1484.543l-.292-3.438-3-1.707a.475.475,0,0,1,.052-.849l3.179-1.34.7-3.379a.475.475,0,0,1,.824-.212l2.256,2.609,3.429-.378a.473.473,0,0,1,.457.716l-1.785,2.952,1.421,3.145a.474.474,0,0,1-.54.656l-3.36-.786-2.552,2.323a.474.474,0,0,1-.791-.311" transform="translate(-9148.915 -12137.694)"/><path class="q" d="M980.581-1845.233l1.348-3.042-1.743-2.837a.456.456,0,0,1,.437-.693l3.311.342,2.159-2.535a.458.458,0,0,1,.8.2l.7,3.254,3.077,1.27a.458.458,0,0,1,.055.819l-2.88,1.669-.257,3.318a.457.457,0,0,1-.761.306l-2.478-2.222-3.236.781a.459.459,0,0,1-.526-.632" transform="translate(-7405.333 -11827.544)"/><path class="l" d="M1754.039-1886.046l1.347-3.042-1.741-2.835a.458.458,0,0,1,.435-.7l3.312.342,2.159-2.533a.458.458,0,0,1,.8.2l.7,3.255,3.076,1.27a.457.457,0,0,1,.054.818l-2.878,1.669-.257,3.319a.457.457,0,0,1-.761.3l-2.479-2.224-3.235.782a.458.458,0,0,1-.525-.631" transform="translate(-8074.43 -11792.238)"/><path class="l" d="M1370.6-2223.215l5.343-.775,2.2,8.459,7.952-.169,2.678,6.063,3.069-1.356-3.584-8.108-7.536.162-2.285-8.8-8.04,1.166.2,3.36" transform="translate(-7742.952 -11504.368)"/><path class="v" d="M1274.093-1195.807l4.043-3.578,6.477,5.87,6.556-4.5,5.564,3.6,1.822-2.817-7.441-4.816-6.214,4.267-6.737-6.108-6.084,5.384,2.014,2.7" transform="translate(-7657.9 -12390.074)"/><path class="l" d="M827.519-1248.045l3.034-4.949-4.825-1.957L822.693-1250Zm-12.3,4.415,3.393-5.51-2.725-1.106a1.164,1.164,0,0,1-.642-1.516,1.165,1.165,0,0,1,1.517-.642l3.142,1.274,3.033-4.949-2.91-1.18a1.164,1.164,0,0,1-.642-1.517,1.165,1.165,0,0,1,1.518-.642l3.328,1.349,3.523-5.667a1.163,1.163,0,0,1,1.427-.464l.508.205a1.166,1.166,0,0,1,.556,1.689l-3.277,5.347L831.8-1255l3.523-5.667a1.166,1.166,0,0,1,1.427-.466l.555.225a1.166,1.166,0,0,1,.556,1.689l-3.277,5.349,2.725,1.1a1.164,1.164,0,0,1,.642,1.517,1.165,1.165,0,0,1-1.517.642l-3.142-1.274-2.987,4.967,2.91,1.18a1.166,1.166,0,0,1,.642,1.519,1.164,1.164,0,0,1-1.517.64l-3.328-1.349-3.6,5.845a1.167,1.167,0,0,1-1.43.469l-.594-.241a1.166,1.166,0,0,1-.554-1.691l3.393-5.51-4.825-1.958-3.6,5.845a1.165,1.165,0,0,1-1.43.468l-.594-.239a1.166,1.166,0,0,1-.554-1.691" transform="translate(-7262.537 -12337.824)"/><path class="m" d="M2827.482-1098.477c-.343-3.049-.754-6.165-2.169-8.885-1.72-3.308-4.74-5.694-7.382-8.322a46.2,46.2,0,0,1-11.008-17.546c-1.761-5.091-2.639-10.515-5.068-15.322-1.483-2.936-3.5-5.561-5.188-8.385-3.979-6.676-6.147-14.565-11.545-20.153a24.234,24.234,0,0,0,5.471,19.163,32.24,32.24,0,0,1,3.884,4.721c1.839,3.222,1.672,7.151,1.887,10.855a47.655,47.655,0,0,0,5.7,19.949c3.542,6.5,8.654,12.295,10.545,19.455,1.42,5.366,1,11.386,4.023,16.036a4.083,4.083,0,0,1,.783,1.606,3.541,3.541,0,0,1-.059,1.008c-.067.432-.135.865-.2,1.3-.687,4.392-1.4,9.979,2.375,13.266,2.615,2.279,5.981,2.33,7.862-.7,1.891-3.048,1.723-7.506,1.583-10.935-.234-5.71-.845-11.437-1.49-17.112" transform="translate(-8966.563 -12413.257)"/><path class="x" d="M3016.16-1236.209c-1.468-5.084-3.748-9.927-4.89-15.094-1.106-5.012-1.115-10.193-1.119-15.328q-.006-8.438-.012-16.877a63.462,63.462,0,0,0-.585-10.476c-1.245-7.432-5.107-14.3-5.762-21.81-.282-3.247.045-6.529-.311-9.767a15.37,15.37,0,0,0-1.535-5.381,2.4,2.4,0,0,0-4.3.12c-1.876,4.066-3.065,8.459-2.308,12.815a52.369,52.369,0,0,0,2.432,7.561c3.762,11.19,1.765,23.578,4.675,35.022.878,3.454,2.206,6.841,2.361,10.4.371,8.524-5.995,16.308-5.412,24.819.478,6.979,5.5,12.753,7.6,19.422,1.18,3.733,1.432,7.718,2.7,11.422.981,2.88,3.263,6.376,6.807,5.5,3.364-.829,2.348-3.575,2.2-6.2-.509-8.875-.031-17.485-2.535-26.154" transform="translate(-9148.442 -12279.058)"/><path class="m" d="M3116.721-1199.031c-.148-2.643-.594-5.3-.225-7.919a46.219,46.219,0,0,1,1.823-6.44,57.979,57.979,0,0,0,1.756-12.411q.78-11.39,1.556-22.781c.808-11.805,1.617-23.643,3.825-35.265.614-3.227,1.3-6.725-.149-9.672-.306-.621-.908-1.279-1.567-1.072-.47.148-.7.664-.871,1.128-4.825,13.111-6.648,27.227-12.034,40.117-1.29,3.089-2.79,6.126-3.458,9.405-.8,3.94-.362,8.008-.257,12.026a56.793,56.793,0,0,1-2,17.109,70.555,70.555,0,0,0-2.4,8.713c-.57,3.719-.092,7.505.265,11.249a173.239,173.239,0,0,1,.694,21.666c-.131,4.249,3.456,4.138,5.831,1.527,1.662-1.826,1.646-3.83,2.217-6.1,1.867-7.461,5.457-13.189,5-21.277" transform="translate(-9241.301 -12311.575)"/><path class="x" d="M2904.261-656.782c-3.172-5.1-9.49-7.993-11.517-13.646-.517-1.437-.718-2.985-1.347-4.377-1.4-3.091-4.583-4.837-7.711-6.259a.661.661,0,0,0-.933.6,2.258,2.258,0,0,0,.979,1.909,12.684,12.684,0,0,1,5.057,6.9c.966,3.312.547,6.943,1.749,10.177,1.007,2.715,3.083,4.935,4.059,7.662.89,2.492.8,5.215,1.216,7.831s1.581,5.39,3.981,6.5c8.688,4,6.516-13.995,4.469-17.287" transform="translate(-9051.248 -12842.306)"/><path class="m" d="M3208.9-731.611c-.135,2.463.241,5.046-.723,7.317a22.068,22.068,0,0,1-2.637,3.915c-3.2,4.525-4.357,10.933-9.271,13.478a1.654,1.654,0,0,1-1.045.252,1.6,1.6,0,0,1-1.036-1.051c-1.2-2.806.148-5.967.948-8.916a2.194,2.194,0,0,0,.012-1.565c-.271-.522-.888-.748-1.31-1.159-.838-.815-.759-2.166-.594-3.328a75.337,75.337,0,0,1,1.754-8.6,14.981,14.981,0,0,1,1.842-4.6,20.335,20.335,0,0,1,3.88-3.843,46.01,46.01,0,0,0,13.43-19.822,13,13,0,0,1,2.247-4.7c1.173-1.3,3.264-1.961,4.692-.957,1.016.716-3.146,7.414-3.632,8.216-1.387,2.3-1.405,4.293-2.189,6.84-1.922,6.246-6,11.836-6.369,18.526" transform="translate(-9319.754 -12769.157)"/><path class="x" d="M3149.322-870.747a30.3,30.3,0,0,0,2.125-7.232c.333-2.783-.108-5.627.367-8.389.61-3.549,2.68-6.673,3.7-10.125a66.594,66.594,0,0,0,1.367-7.677c1.27-7.329,4.715-14.491,3.727-21.864-.216-1.6-.939-3.472-2.531-3.746-1.441-.248-2.753,1.07-3.127,2.486a13.447,13.447,0,0,0,.007,4.37,18.033,18.033,0,0,1-3.231,11.57c-2.263,3.2-5.549,5.615-7.585,8.966-2.5,4.113-2.839,9.132-4.113,13.773-2.536,9.229-8.894,17.281-10.055,26.784-.461,3.782.426,8.378,3.917,9.888,10.093,4.37,13.141-12.892,15.427-18.805" transform="translate(-9265.021 -12627.174)"/><path class="c" d="M2979.052-405.252H2955.89a2.456,2.456,0,0,0-2.386,3.026l8.443,35.6a2.453,2.453,0,0,0,2.387,1.889h27.823a2.452,2.452,0,0,0,2.385-1.889l8.445-35.6a2.457,2.457,0,0,0-2.387-3.026h-21.549" transform="translate(-9112.396 -13080.953)"/><path class="p" d="M699.048-708.291H586.456v-5.815H699.048v5.815" transform="translate(-7064.786 -12813.772)"/><path class="p" d="M675.154-459H601.541v-5.088h73.613V-459" transform="translate(-7077.836 -13030.053)"/><path class="p" d="M1308.583-613.246v-79.312h-4.75v79.312h4.75" transform="translate(-7685.37 -12832.411)"/><path class="p" d="M810.777-613.246v-79.312h-4.749v79.312h4.749" transform="translate(-7254.731 -12832.411)"/><path class="p" d="M1023.736-617.618l25.584-78.63-4.194-1.364L1019.1-617.618h4.638" transform="translate(-7439.053 -12828.042)"/><path class="p" d="M490.734-617.549l21.883-78.8-4.249-1.18-22.21,79.983h4.577" transform="translate(-6978.021 -12828.11)"/><path class="p" d="M2883.085-2131.764a26.88,26.88,0,0,1-28.489-25.176,26.9,26.9,0,0,1,25.125-28.55,26.882,26.882,0,0,1,28.489,25.177A26.9,26.9,0,0,1,2883.085-2131.764Zm-1.682-58.3a31.4,31.4,0,0,0-31.37,31.435,31.4,31.4,0,0,0,31.37,31.434,31.4,31.4,0,0,0,31.37-31.434,31.4,31.4,0,0,0-31.37-31.435" transform="translate(-9022.945 -11536.963)"/><path class="z" d="M782.619-108.347H265.465v3.508H782.619v-3.508" transform="translate(-6787.105 -13337.798)"/><path class="s" d="M2195.848-1771.152l8.364-.137a3.655,3.655,0,0,1-3.818,3.344c-4.481.2-4.546-3.208-4.546-3.208" transform="translate(-8457.026 -11899.232)"/></g></svg>