<svg xmlns="http://www.w3.org/2000/svg" width="18.273" height="18.273" viewBox="0 0 18.273 18.273"><defs><style>.a{fill:#fff;}.b{fill:#b1f1fe;}.c{fill:#2e53bf;}</style></defs><g transform="translate(-417 -186)"><ellipse class="a" cx="8.9" cy="9" rx="8.9" ry="9" transform="translate(417.3 186.2)"/><ellipse class="b" cx="6.9" cy="7" rx="6.9" ry="7" transform="translate(419.2 188.2)"/><g transform="translate(417 186)"><path class="c" d="M176.794,104.012V100.4a.4.4,0,0,0-.794,0v3.774a.392.392,0,0,0,.119.278l4.35,4.35a.384.384,0,0,0,.556,0,.384.384,0,0,0,0-.556Z" transform="translate(-168.261 -95.034)"/><path class="c" d="M9.137,0a9.137,9.137,0,1,0,9.137,9.137A9.138,9.138,0,0,0,9.137,0Zm0,17.479a8.342,8.342,0,1,1,8.342-8.342A8.341,8.341,0,0,1,9.137,17.479Z"/></g></g></svg>