<svg xmlns="http://www.w3.org/2000/svg" width="18.294" height="18.823" viewBox="0 0 18.294 18.823"><defs><style>.a{fill:#b1f1fe;}.b{fill:#2e53bf;stroke:#2e53bf;stroke-width:0.2px;}</style></defs><g transform="translate(-397.012 -328.571)"><rect class="a" width="13.1" height="15.7" rx="1" transform="translate(399.7 331.301)"/><g transform="translate(390.272 328.703)"><g transform="translate(11.611 3.966)"><path class="b" d="M146.506,109.228H138.5a.272.272,0,0,0,0,.545h8.008a.272.272,0,1,0,0-.545Z" transform="translate(-138.226 -109.228)"/></g><g transform="translate(11.611 5.379)"><path class="b" d="M146.506,148.149H138.5a.272.272,0,1,0,0,.545h8.008a.272.272,0,1,0,0-.545Z" transform="translate(-138.226 -148.149)"/></g><g transform="translate(11.611 6.793)"><path class="b" d="M142.256,187.068H138.5a.272.272,0,1,0,0,.545h3.758a.272.272,0,0,0,0-.545Z" transform="translate(-138.226 -187.068)"/></g><g transform="translate(6.84 0)"><path class="b" d="M24.26,5.331,22.7,4.269v-.4a1.765,1.765,0,0,0-1.763-1.763H19.523L16.884.309a1.762,1.762,0,0,0-1.995,0L12.253,2.1v0H10.837A1.765,1.765,0,0,0,9.074,3.869v.4L7.515,5.331A1.542,1.542,0,0,0,6.84,6.606V17.434A1.072,1.072,0,0,0,8,18.591h15.78a1.158,1.158,0,0,0,1.157-1.157V6.606A1.542,1.542,0,0,0,24.26,5.331ZM15.2.759a1.221,1.221,0,0,1,1.382,0l1.978,1.346H13.219ZM9.619,3.869a1.219,1.219,0,0,1,1.218-1.218h10.1a1.219,1.219,0,0,1,1.218,1.218V5.929a.272.272,0,1,0,.545,0v-1s1.345.922,1.386.962L17.337,9.974a2.8,2.8,0,0,1-2.9,0L9.619,7.025ZM9.074,4.928V6.691l-1.356-.83C7.751,5.833,9.074,4.928,9.074,4.928ZM7.964,18.045l.966-1.109a.272.272,0,1,0-.411-.358L7.484,17.767a.608.608,0,0,1-.1-.333V6.606a1,1,0,0,1,.042-.286l6.54,4L9.335,15.642a.272.272,0,0,0,.027.384A.3.3,0,0,0,9.746,16l4.7-5.4a3.334,3.334,0,0,0,2.892-.009l6.476,7.454Zm16.425-.611a.608.608,0,0,1-.1.327l-6.469-7.446,6.534-3.955a1,1,0,0,1,.031.246V17.434Z" transform="translate(-6.84 0)"/></g></g></g></svg>