<svg id="noun_Attachment_1022274" xmlns="http://www.w3.org/2000/svg" width="14.548" height="15.512" viewBox="0 0 14.548 15.512">
  <g id="Group_1475" data-name="Group 1475" transform="translate(0 0)">
    <path id="Path_511" data-name="Path 511" d="M26.23,963.884a3.915,3.915,0,0,1,0,5.536L18.2,977.448a2.74,2.74,0,0,1-3.875-3.875l8.028-8.028a1.566,1.566,0,1,1,2.215,2.214l-7.751,7.751a.392.392,0,0,1-.554-.554l7.751-7.751a.783.783,0,0,0-1.107-1.107l-8.028,8.028a1.957,1.957,0,0,0,2.768,2.768l8.028-8.028a3.132,3.132,0,1,0-4.429-4.429L13.5,972.189a.392.392,0,1,1-.554-.554l7.751-7.751A3.915,3.915,0,0,1,26.23,963.884Z" transform="translate(-12.828 -962.738)" fill="#72748f"/>
  </g>
</svg>
