<svg xmlns="http://www.w3.org/2000/svg" width="17.917" height="17.917" viewBox="0 0 17.917 17.917"><defs><style>.a{fill:#fff;}</style></defs><path class="a" d="M13.9,9.12a.28.28,0,0,0,.28-.28V8.28a.28.28,0,1,0-.56,0v.56a.28.28,0,0,0,.28.28Zm1.12,0a.28.28,0,0,0,.28-.28V8.28a.28.28,0,0,0-.56,0v.56a.28.28,0,0,0,.28.28Zm1.12,0a.28.28,0,0,0,.28-.28V8.28a.28.28,0,1,0-.56,0v.56a.28.28,0,0,0,.28.28Zm1.12,0a.28.28,0,0,0,.28-.28V8.28a.28.28,0,0,0-.56,0v.56a.28.28,0,0,0,.28.28Zm1.12,0a.28.28,0,0,0,.28-.28V8.28a.28.28,0,0,0-.56,0v.56a.28.28,0,0,0,.28.28Zm1.12,0a.28.28,0,0,0,.28-.28V8.28a.28.28,0,0,0-.56,0v.56a.28.28,0,0,0,.28.28ZM9.56,14.439a.28.28,0,0,0-.56,0V15a.28.28,0,0,0,.56,0Zm.84.84a.28.28,0,0,0,.28-.28v-.56a.28.28,0,1,0-.56,0V15a.28.28,0,0,0,.28.28Zm1.12,0A.28.28,0,0,0,11.8,15v-.56a.28.28,0,0,0-.56,0V15a.28.28,0,0,0,.28.28Zm-1.96.84a.28.28,0,0,0-.56,0v.56a.28.28,0,0,0,.56,0Zm.56.56a.28.28,0,0,0,.56,0v-.56a.28.28,0,0,0-.56,0Zm1.12,0a.28.28,0,0,0,.56,0v-.56a.28.28,0,0,0-.56,0ZM9.56,17.8a.28.28,0,0,0-.56,0v.56a.28.28,0,0,0,.56,0Zm.56.56a.28.28,0,1,0,.56,0V17.8a.28.28,0,1,0-.56,0Zm1.12,0a.28.28,0,0,0,.56,0V17.8a.28.28,0,1,0-.56,0Zm-1.68,1.12a.28.28,0,0,0-.56,0v.56a.28.28,0,0,0,.56,0Zm0,1.68a.28.28,0,0,0-.56,0v.56a.28.28,0,1,0,.56,0Zm-.28,1.4a.28.28,0,0,0-.28.28v.56a.28.28,0,0,0,.56,0v-.56a.28.28,0,0,0-.28-.28Zm12.6-7.279a.28.28,0,0,0,.28-.28v-.56a.28.28,0,1,0-.56,0V15a.28.28,0,0,0,.28.28Zm1.12,0a.28.28,0,0,0,.28-.28v-.56a.28.28,0,0,0-.56,0V15a.28.28,0,0,0,.28.28Zm1.12,0A.28.28,0,0,0,24.4,15v-.56a.28.28,0,1,0-.56,0V15a.28.28,0,0,0,.28.28Zm-2.52,1.4a.28.28,0,0,0,.56,0v-.56a.28.28,0,0,0-.56,0Zm1.12,0a.28.28,0,0,0,.56,0v-.56a.28.28,0,0,0-.56,0Zm1.12,0a.28.28,0,0,0,.56,0v-.56a.28.28,0,1,0-.56,0Zm-2.24,1.68a.28.28,0,0,0,.56,0V17.8a.28.28,0,1,0-.56,0Zm1.12,0a.28.28,0,0,0,.56,0V17.8a.28.28,0,0,0-.56,0Zm1.12,0a.28.28,0,0,0,.56,0V17.8a.28.28,0,1,0-.56,0Zm0,1.68a.28.28,0,0,0,.56,0v-.56a.28.28,0,1,0-.56,0Zm0,1.68a.28.28,0,1,0,.56,0v-.56a.28.28,0,0,0-.56,0Zm0,1.68a.28.28,0,1,0,.56,0v-.56a.28.28,0,0,0-.56,0ZM13.619,10.52a.28.28,0,0,0,.56,0V9.96a.28.28,0,1,0-.56,0Zm1.12,0a.28.28,0,0,0,.56,0V9.96a.28.28,0,0,0-.56,0Zm1.12,0a.28.28,0,0,0,.56,0V9.96a.28.28,0,1,0-.56,0Zm1.12,0a.28.28,0,1,0,.56,0V9.96a.28.28,0,0,0-.56,0Zm1.12,0a.28.28,0,0,0,.56,0V9.96a.28.28,0,0,0-.56,0Zm1.12,0a.28.28,0,1,0,.56,0V9.96a.28.28,0,0,0-.56,0Z" transform="translate(-7.74 -6.88)"/><path class="a" d="M17.078,6.159H15.4V5.6a.841.841,0,0,0-.84-.84h-1.4V.84a.841.841,0,0,0-.84-.84H5.6a.841.841,0,0,0-.84.84V4.759H3.36a.841.841,0,0,0-.84.84v.56H.84A.841.841,0,0,0,0,7V17.078a.841.841,0,0,0,.84.84H2.617a1.312,1.312,0,0,1-.221-.56H.84a.28.28,0,0,1-.28-.28V7a.28.28,0,0,1,.28-.28H4.2v-.56H3.08V5.6a.28.28,0,0,1,.28-.28h1.4v6.634l.56-.289V.84A.28.28,0,0,1,5.6.56h6.719a.28.28,0,0,1,.28.28V11.626l.56.3V5.319h1.4a.28.28,0,0,1,.28.28v.56h-1.12v.56h3.36a.28.28,0,0,1,.28.28V17.078a.28.28,0,0,1-.28.28H15.522a1.311,1.311,0,0,1-.221.56h1.777a.841.841,0,0,0,.84-.84V7a.841.841,0,0,0-.84-.84Z"/><path class="a" d="M28.758,88a.278.278,0,0,0-.158.049l.438.235v0a.28.28,0,0,0-.28-.28ZM17,88.84a.28.28,0,0,0,.22.273,1.871,1.871,0,0,1,.34-.432v-.4a.28.28,0,0,0-.56,0Zm1.12-.554.446-.23a.279.279,0,0,0-.446.224Zm12.038.554v-.56a.28.28,0,1,0-.56,0v.39a1.807,1.807,0,0,1,.347.441A.279.279,0,0,0,30.158,88.84Z" transform="translate(-14.62 -75.682)"/><path class="a" d="M32.327,40.677s-3-1.61-3.012-1.614a.216.216,0,0,1-.137-.18V37.676a5.517,5.517,0,0,0,.523-1.249,3.17,3.17,0,0,0,.119-.849,2.649,2.649,0,0,0-.1-.717,1.268,1.268,0,0,0,.224-.253,1.12,1.12,0,0,0-.3-1.47,6.291,6.291,0,0,0-1.442-.863A3.132,3.132,0,0,0,26.962,32,2.492,2.492,0,0,0,25,32.972c-.723.241-.814,1.466-.772,2.4-.005.067-.009.135-.009.2a4.734,4.734,0,0,0,.735,2.43v.875a.2.2,0,0,1-.116.18l-.021.01-3.107,1.6A1.29,1.29,0,0,0,21,41.794v2.891a.748.748,0,0,0,.74.753H32.3a.748.748,0,0,0,.74-.753V41.794A1.228,1.228,0,0,0,32.327,40.677ZM25.177,33.5l.178-.059.106-.154a1.943,1.943,0,0,1,1.5-.73,2.6,2.6,0,0,1,1.016.229,5.7,5.7,0,0,1,1.314.787.565.565,0,0,1,.183.723,1.925,1.925,0,0,1-1.363.574,3.065,3.065,0,0,1-.332.019,2.361,2.361,0,0,1-.529-.057,3.5,3.5,0,0,1-.769-.392.664.664,0,0,0-.994.259.79.79,0,0,0-.2-.025h0a.821.821,0,0,0-.506.177C24.8,34.152,24.931,33.585,25.177,33.5Zm-.343,2.668c-.006-.066-.014-.148-.015-.158a.7.7,0,0,1,.032-.287c.061-.171.219-.49.437-.49a.243.243,0,0,1,.094.02l.344.144a.128.128,0,0,0,.156-.075l.108-.377a.1.1,0,0,1,.1-.073.106.106,0,0,1,.062.02,3.847,3.847,0,0,0,.966.483,2.909,2.909,0,0,0,.661.073,3.614,3.614,0,0,0,.393-.022,3.693,3.693,0,0,0,1.045-.262,2.079,2.079,0,0,1,.042.409,2.6,2.6,0,0,1-.1.7,4.24,4.24,0,0,1-1.308,2.138,1.374,1.374,0,0,1-.872.306,1.662,1.662,0,0,1-1.216-.559,4.187,4.187,0,0,1-.931-1.989Zm2.132,4.161-1.54-1.095a.761.761,0,0,0,.088-.354V38.7a2.2,2.2,0,0,0,1.467.578,1.931,1.931,0,0,0,1.223-.43,3.644,3.644,0,0,0,.413-.4v.431a.7.7,0,0,0,.028.191Zm.752,2.691a.123.123,0,0,1-.024.076l-.034.032s-.341.378-.577.643l-.718-.661-.015-.013a.139.139,0,0,1-.03-.1l.388-2.167.091.064a.281.281,0,0,0,.36-.012l.085-.063Zm4.76,1.663a.187.187,0,0,1-.181.193H21.74a.187.187,0,0,1-.181-.193V41.794c0-.17.05-.4.435-.634l3-1.549a.281.281,0,0,0,.041.036l1.167.829-.433,2.42a.682.682,0,0,0,.221.632l.811.747a.44.44,0,0,0,.609-.03c.2-.229.578-.645.651-.727a.659.659,0,0,0,.2-.623l-.528-2.441,1.247-.934a.8.8,0,0,0,.1.054l2.956,1.585c.365.224.437.4.437.635Z" transform="translate(-18.06 -27.521)"/></svg>