<svg xmlns="http://www.w3.org/2000/svg" width="16.371" height="16.37" viewBox="0 0 16.371 16.37"><defs><style>.a{fill:#6b58b6;}</style></defs><g transform="translate(-1515 -514)"><g transform="translate(1515 514)"><path class="a" d="M27.555,2.544h.014A.549.549,0,0,0,28.127,2V.568a.552.552,0,0,0-.167-.4A.565.565,0,0,0,27,.6V2a.549.549,0,0,0,.557.544Z" transform="translate(-19.377 -0.006)"/><path class="a" d="M27.572,49h-.014a.549.549,0,0,0-.557.544v1.431a.566.566,0,0,0,.661.556.589.589,0,0,0,.468-.591v-1.4A.549.549,0,0,0,27.572,49Z" transform="translate(-19.379 -35.171)"/><path class="a" d="M17.284,4.156a.566.566,0,0,0,1.044-.432L17.783,2.4a.56.56,0,0,0-.84-.248.609.609,0,0,0-.185.727Z" transform="translate(-11.991 -1.476)"/><path class="a" d="M36.513,47.685a.566.566,0,0,0-1.044.432l.545,1.321a.565.565,0,1,0,1.044-.432Z" transform="translate(-25.435 -33.997)"/><path class="a" d="M8.887,8.066a.563.563,0,0,0-.833.037.586.586,0,0,0,.056.784l.991.991a.565.565,0,1,0,.8-.8Z" transform="translate(-5.691 -5.671)"/><path class="a" d="M43.467,42.668a.565.565,0,0,0-.8.8l.991.991a.587.587,0,0,0,.748.085.565.565,0,0,0,.073-.861Z" transform="translate(-30.506 -30.507)"/><path class="a" d="M17.993,47.36a.55.55,0,0,0-.738.285l-.545,1.321a.565.565,0,1,0,1.044.432l.546-1.322a.55.55,0,0,0-.308-.716Z" transform="translate(-11.963 -33.957)"/><path class="a" d="M2,28.129a.549.549,0,0,0,.544-.557v-.014A.549.549,0,0,0,2,27H.565A.565.565,0,0,0,0,27.614a.586.586,0,0,0,.594.515Z" transform="translate(0 -19.38)"/><path class="a" d="M50.976,27H49.544a.549.549,0,0,0-.544.557v.014a.549.549,0,0,0,.544.557h1.4a.589.589,0,0,0,.591-.468A.565.565,0,0,0,50.976,27Z" transform="translate(-35.169 -19.38)"/><path class="a" d="M4.443,35.763a.55.55,0,0,0-.721-.319L2.4,35.99a.568.568,0,0,0-.35.522.581.581,0,0,0,.83.5l1.273-.525a.55.55,0,0,0,.289-.727Z" transform="translate(-1.471 -25.412)"/><path class="a" d="M2.4,17.787l1.322.546a.566.566,0,0,0,.432-1.044l-1.273-.525a.61.61,0,0,0-.728.185.56.56,0,0,0,.248.839Z" transform="translate(-1.476 -11.996)"/><path class="a" d="M49.437,36.011l-1.322-.546a.566.566,0,0,0-.432,1.044L49,37.055a.565.565,0,0,0,.432-1.044Z" transform="translate(-33.994 -25.433)"/><path class="a" d="M9.862,42.7a.55.55,0,0,0-.78-.01L8.068,43.7a.565.565,0,0,0,.073.861.587.587,0,0,0,.748-.085l.991-.991a.549.549,0,0,0-.018-.788Z" transform="translate(-5.672 -30.528)"/><path class="a" d="M36.593,4.923a.282.282,0,0,0,.369-.153l.54-1.3a.282.282,0,0,0-.521-.216l-.54,1.3a.282.282,0,0,0,.153.369Z" transform="translate(-26.139 -2.214)"/><path class="a" d="M43.838,10.47a.28.28,0,0,0,.2-.083l1-1a.282.282,0,0,0-.4-.4l-1,1a.282.282,0,0,0,.2.482Z" transform="translate(-31.261 -6.394)"/><path class="a" d="M48.345,18.6a.282.282,0,0,0,.369.153l1.3-.54a.282.282,0,1,0-.216-.522l-1.3.54a.282.282,0,0,0-.153.369Z" transform="translate(-34.684 -12.682)"/></g><g transform="translate(1519.833 518.833)"><path class="a" d="M3.3,0a3.3,3.3,0,1,0,3.3,3.3A3.307,3.307,0,0,0,3.3,0Zm0,6.194A2.89,2.89,0,1,1,6.194,3.3,2.894,2.894,0,0,1,3.3,6.194Z"/><path class="a" d="M208.207,83.118h-.413v2.15l1.3,1.3.292-.292L208.207,85.1Z" transform="translate(-204.697 -81.879)"/></g></g></svg>