<svg xmlns="http://www.w3.org/2000/svg" width="17.211" height="17.21" viewBox="0 0 17.211 17.21"><defs><style>.a{fill:#929baa;stroke:#929baa;stroke-width:0.2px;}</style></defs><g transform="translate(0.1 0.1)"><path class="a" d="M13.009,18.257a.532.532,0,1,0,0-1.063H11a.532.532,0,0,0-.532.532V29.394a.532.532,0,0,0,.532.532H22.673a.532.532,0,0,0,.532-.532v-2a.532.532,0,1,0-1.063,0v1.47H11.537V18.257Z" transform="translate(-10.473 -12.916)"/><path class="a" d="M30.723,9.146H19.054a.532.532,0,0,0-.532.532V21.346a.532.532,0,0,0,.532.532H30.722a.532.532,0,0,0,.532-.532V9.678a.531.531,0,0,0-.531-.532Zm-.532,11.669H19.585V10.209H30.191V20.815Z" transform="translate(-14.243 -9.146)"/></g></svg>