<svg xmlns="http://www.w3.org/2000/svg" width="20.258" height="20.258" viewBox="0 0 20.258 20.258"><defs><style>.a{fill:#8e98a2;}</style></defs><path class="a" d="M8.533,10A.533.533,0,0,0,8,10.533v8.53a.533.533,0,1,0,1.066,0v-8.53A.533.533,0,0,0,8.533,10Z" transform="translate(-2.669 -2.537)"/><path class="a" d="M16.533,10a.533.533,0,0,0-.533.533v8.53a.533.533,0,1,0,1.066,0v-8.53A.533.533,0,0,0,16.533,10Z" transform="translate(-2.139 -2.537)"/><path class="a" d="M12.533,8A.533.533,0,0,0,12,8.533V19.2a.533.533,0,1,0,1.066,0V8.533A.533.533,0,0,0,12.533,8Z" transform="translate(-2.404 -2.669)"/><path class="a" d="M22.725,5.132h-4.8V4.6a1.6,1.6,0,0,0-1.6-1.6H9.93a1.6,1.6,0,0,0-1.6,1.6v.533h-4.8a.533.533,0,0,0,0,1.066h1.6v15.46a1.6,1.6,0,0,0,1.6,1.6H19.526a1.6,1.6,0,0,0,1.6-1.6V6.2h1.6a.533.533,0,1,0,0-1.066ZM9.4,4.6a.533.533,0,0,1,.533-.533h6.4a.533.533,0,0,1,.533.533v.533H9.4ZM20.059,21.659a.533.533,0,0,1-.533.533H6.732a.533.533,0,0,1-.533-.533V6.2H20.059Z" transform="translate(-3 -3)"/></svg>