<svg xmlns="http://www.w3.org/2000/svg" width="20.62" height="20.62" viewBox="0 0 20.62 20.62"><defs><style>.a{fill:#8e98a2;}</style></defs><g transform="translate(0 0)"><path class="a" d="M24.31,14A10.31,10.31,0,1,0,34.62,24.31,10.319,10.319,0,0,0,24.31,14Zm0,1.146a9.165,9.165,0,1,1-9.165,9.165A9.156,9.156,0,0,1,24.31,15.146Zm-.063,3.428a.573.573,0,0,0-.51.582v8.815l-1.575-1.754a.574.574,0,1,0-.859.761l2.578,2.864a.573.573,0,0,0,.859,0l2.578-2.864a.574.574,0,1,0-.859-.761l-1.575,1.754V19.155a.573.573,0,0,0-.635-.582Z" transform="translate(-14 -14)"/></g></svg>