<svg xmlns="http://www.w3.org/2000/svg" width="11" height="12.051" viewBox="0 0 11 12.051">
  <g id="Group_5465" data-name="Group 5465" transform="translate(-18436 17368.002)">
    <line id="Line_254" data-name="Line 254" x2="6.1" transform="translate(18436.4 -17356.301)" fill="none" stroke="#7c828d" stroke-linecap="round" stroke-width="0.7"/>
    <g id="pencil" transform="translate(18436 -17368.002)">
      <g id="Group_5461" data-name="Group 5461" transform="translate(0 0)">
        <path id="Path_2882" data-name="Path 2882" d="M10.658,1.339l-1-1a1.169,1.169,0,0,0-1.652,0L.593,7.758A.328.328,0,0,0,.5,7.928l-.5,2.692a.322.322,0,0,0,.376.376l2.691-.5a.328.328,0,0,0,.169-.089l7.416-7.417A1.168,1.168,0,0,0,10.658,1.339ZM.725,10.276l.3-1.628L2.353,9.974Zm2.289-.552L1.276,7.986,7.619,1.643,9.356,3.381ZM10.2,2.535l-.39.39L8.075,1.188,8.465.8a.524.524,0,0,1,.74,0l1,1A.523.523,0,0,1,10.2,2.535Z" transform="translate(0 0)" fill="#7c828d"/>
      </g>
    </g>
  </g>
</svg>
