<svg id="noun_edit_2753905" xmlns="http://www.w3.org/2000/svg" width="16.208" height="16.248" viewBox="0 0 16.208 16.248">
  <g id="Group_1470" data-name="Group 1470" transform="translate(0 0)">
    <path id="Path_507" data-name="Path 507" d="M194.628,202.569a4.372,4.372,0,0,1-.449.38,2.04,2.04,0,0,1-.483.207l-3.97,1.036h0a1.039,1.039,0,0,1-.552.035v-.035a.788.788,0,0,1-.414-.207.941.941,0,0,1-.207-.414h0a1.288,1.288,0,0,1,0-.725l.967-3.694h0a3.06,3.06,0,0,1,.276-.587,2.607,2.607,0,0,1,.38-.483v-.035l9.563-9.563a1.788,1.788,0,0,1,1.208-.483h0a1.7,1.7,0,0,1,1.174.483l2.106,2.106a1.788,1.788,0,0,1,.483,1.208h0a1.7,1.7,0,0,1-.483,1.174l-9.563,9.563h0Zm-3.418-4.384,3.349,3.314,9.114-9.08a.886.886,0,0,0,.242-.621h0a.911.911,0,0,0-.242-.656l-2.106-2.071a.928.928,0,0,0-.621-.276h0a.864.864,0,0,0-.621.276Zm2.762,3.9-3.314-3.349a1.049,1.049,0,0,0-.173.242.766.766,0,0,0-.173.38h0l-.967,3.694c-.035.138-.069.242-.035.311h0c0,.035,0,.069.035.069h.173l3.97-1.036a1.034,1.034,0,0,0,.276-.138A.915.915,0,0,0,193.972,202.085Z" transform="translate(-188.5 -188)" fill="#72748f"/>
  </g>
</svg>
