<svg id="noun_Email_1599330" xmlns="http://www.w3.org/2000/svg" width="17.7" height="12.221" viewBox="0 0 17.7 12.221">
  <g id="Group_1473" data-name="Group 1473" transform="translate(0 0)">
    <path id="Path_510" data-name="Path 510" d="M9.686,973.362A1.691,1.691,0,0,0,8,975.048v8.85a1.691,1.691,0,0,0,1.686,1.686H24.014A1.691,1.691,0,0,0,25.7,983.9v-8.85a1.691,1.691,0,0,0-1.686-1.686Zm0,.843H24.014a.85.85,0,0,1,.342.072l-6.908,6.21a.839.839,0,0,1-1.212,0l-6.894-6.21A.85.85,0,0,1,9.686,974.205Zm-.836.764,6.822,6.144a1.747,1.747,0,0,0,2.344,0l6.835-6.144c0,.026.007.052.007.079v8.85a.832.832,0,0,1-.843.843H9.686a.832.832,0,0,1-.843-.843v-8.85c0-.027,0-.053.007-.079Z" transform="translate(-8 -973.362)" fill="#72748f"/>
  </g>
</svg>
