<svg xmlns="http://www.w3.org/2000/svg" width="26.568" height="25.391" viewBox="0 0 26.568 25.391"><defs><style>.a,.d{fill:none;}.a,.b{stroke:#fff;}.a{stroke-width:3px;}.b{fill:#fff;stroke-width:0.2px;}.c{stroke:none;}</style></defs><g transform="translate(-1610 -775.609)"><g class="a" transform="translate(1610 782)"><circle class="c" cx="9.5" cy="9.5" r="9.5"/><circle class="d" cx="9.5" cy="9.5" r="8"/></g><g transform="matrix(0.719, -0.695, 0.695, 0.719, 1592.855, 753.96)"><g transform="translate(0 41.346)"><path class="b" d="M11.265,45.663,7.13,41.529a.628.628,0,0,0-.886,0l-.375.375a.622.622,0,0,0-.183.443.634.634,0,0,0,.183.448l2.412,2.417H.618A.611.611,0,0,0,0,45.829v.531A.635.635,0,0,0,.618,47h7.69L5.869,49.433a.62.62,0,0,0,0,.88l.375.374a.628.628,0,0,0,.886,0l4.134-4.134a.632.632,0,0,0,0-.889Z" transform="translate(0 -41.346)"/></g></g></g></svg>