<svg xmlns="http://www.w3.org/2000/svg" width="23.549" height="19.235" viewBox="0 0 23.549 19.235"><defs><style>.a{fill:#b1f1fe;}.b{fill:#2e53bf;}</style></defs><g transform="translate(11393.32 3580.13)"><circle class="a" cx="3.5" cy="3.5" r="3.5" transform="translate(-11377.545 -3574.613)"/><g transform="translate(-11393.32 -3580.13)"><g transform="translate(15.441 13.539)"><g transform="translate(0 0)"><path class="b" d="M336.513,341.39a.46.46,0,0,0-.65.007l-.013.013a.46.46,0,0,0,.657.644l.013-.013A.46.46,0,0,0,336.513,341.39Z" transform="translate(-335.718 -341.258)"/></g></g><g transform="translate(17.359 7.166)"><g transform="translate(0 0)"><path class="b" d="M381.25,204.384h-1.222v-1.222a.46.46,0,1,0-.92,0v1.222h-1.222a.46.46,0,1,0,0,.92h1.222v1.222a.46.46,0,0,0,.92,0V205.3h1.222a.46.46,0,0,0,0-.92Z" transform="translate(-377.426 -202.702)"/></g></g><g transform="translate(0 0)"><g transform="translate(0 0)"><path class="b" d="M21.005,52.449A6.339,6.339,0,0,0,14.771,46.9a6.147,6.147,0,0,0-4.238,1.679A6.148,6.148,0,0,0,6.294,46.9,6.378,6.378,0,0,0,0,53.343,5.641,5.641,0,0,0,.612,55.7H.46a.46.46,0,0,0,0,.92H1.1a26.055,26.055,0,0,0,4.07,4.95,59.284,59.284,0,0,0,5.081,4.468.46.46,0,0,0,.559,0c.019-.015,1.966-1.508,4.124-3.542a.46.46,0,1,0-.631-.669c-1.645,1.551-3.164,2.781-3.772,3.262a58.96,58.96,0,0,1-4.719-4.178,27.358,27.358,0,0,1-3.631-4.291H6.3a.46.46,0,0,0,.442-.333l.8-2.8,2.225,7.13a.46.46,0,0,0,.878,0l1.232-3.95h2.053a.46.46,0,1,0,0-.92H11.544a.46.46,0,0,0-.439.323l-.894,2.866L7.967,51.746a.46.46,0,0,0-.881.01L5.954,55.7H1.639A5.231,5.231,0,0,1,.92,53.343a5.457,5.457,0,0,1,5.374-5.524,5.259,5.259,0,0,1,3.9,1.724.46.46,0,0,0,.676,0,5.259,5.259,0,0,1,3.9-1.724,5.408,5.408,0,0,1,5.258,4.375,4.049,4.049,0,1,0,.976.255Zm-1.5,6.885a3.128,3.128,0,1,1,3.128-3.128A3.131,3.131,0,0,1,19.5,59.335Z" transform="translate(0 -46.899)"/></g></g></g></g></svg>