<svg xmlns="http://www.w3.org/2000/svg" width="17.138" height="17.166" viewBox="0 0 17.138 17.166"><defs><style>.a{fill:#e3e7ea;}.b{fill:#babac0;}.c{fill:#4086f4;}.d{fill:#4175df;}.e{fill:#fff5f5;}</style></defs><g transform="translate(1.039)"><path class="a" d="M46,5.1H31.917a.5.5,0,0,1-.5-.5V1.509A1.51,1.51,0,0,1,32.923,0h12.07A1.51,1.51,0,0,1,46.5,1.509V4.593A.5.5,0,0,1,46,5.1Z" transform="translate(-31.414)"/></g><path class="b" d="M262.449,0h-6.035V5.1h7.041a.5.5,0,0,0,.5-.5V1.509A1.51,1.51,0,0,0,262.449,0Z" transform="translate(-247.831)"/><g transform="translate(0 2.012)"><g transform="translate(0 2.079)"><path class="c" d="M1.434,128.538h0l-1-4.766a1.542,1.542,0,0,1,.332-1.237A1.517,1.517,0,0,1,1.922,122H16.044a1.5,1.5,0,0,1,1.489,1.75l-1,4.789,1,4.766a1.542,1.542,0,0,1-.332,1.237,1.516,1.516,0,0,1-1.157.533H1.922a1.5,1.5,0,0,1-1.489-1.75l1-4.788Z" transform="translate(-0.414 -122)"/></g><path class="d" d="M1.434,128.537h15.1l1-4.788A1.5,1.5,0,0,0,16.044,122H1.922a1.517,1.517,0,0,0-1.157.533,1.542,1.542,0,0,0-.332,1.237Z" transform="translate(-0.414 -119.921)"/><g transform="translate(3.037)"><circle class="e" cx="0.503" cy="0.503" r="0.503"/></g><g transform="translate(13.095)"><circle class="a" cx="0.503" cy="0.503" r="0.503"/></g><g transform="translate(4.632 5.096)"><path class="e" d="M140.487,219.041a2.015,2.015,0,0,1-1.9-1.341.5.5,0,0,1,.948-.335,1.006,1.006,0,1,0,.949-1.341h-.625a.5.5,0,1,1,0-1.006h.625a1.006,1.006,0,1,0-.949-1.341.5.5,0,0,1-.948-.335,2.011,2.011,0,1,1,3.226,2.179,2.011,2.011,0,0,1-1.329,3.52Z" transform="translate(-138.561 -212)"/></g><path class="a" d="M138.9,213.983a.5.5,0,0,0,.641-.306,1.006,1.006,0,1,1,.949,1.341h-.625a.5.5,0,0,0-.5.5h2.457a2.011,2.011,0,1,0-3.226-2.179A.5.5,0,0,0,138.9,213.983Z" transform="translate(-133.93 -206.904)"/><g transform="translate(9.575 5.096)"><path class="e" d="M288.006,219.042a.5.5,0,0,1-.5-.5v-5.1l-.727.485a.5.5,0,1,1-.558-.837l1.509-1.006a.5.5,0,0,1,.782.418v6.035A.5.5,0,0,1,288.006,219.042Z" transform="translate(-285.994 -212.002)"/></g><path class="a" d="M286.776,213.929l.727-.485v2.078h1.006V212.5a.5.5,0,0,0-.782-.418l-1.509,1.006a.5.5,0,1,0,.558.837Z" transform="translate(-276.42 -206.906)"/></g></svg>