<svg xmlns="http://www.w3.org/2000/svg" width="40.339" height="36.211" viewBox="0 0 40.339 36.211"><defs><style>.a{fill:#b1f1fe;}.b{fill:#2e53bf;stroke:#2e53bf;stroke-width:0.2px;}</style></defs><g transform="translate(-1242.9 -900.9)"><path class="a" d="M-21292.287-3825.141v-1.9h-2.176v-2.725l2.176.1v-2.043h2.631v2.043h1.762v2.259l-1.867.168-.2,2.286Z" transform="translate(22554 4738)"/><g transform="translate(-20 -10)"><path class="b" d="M2.667,41h4a.667.667,0,0,0,.667-.667V39h8.592l8.526,1.933a3.185,3.185,0,0,0,2.659-.641L40.784,29.368a2.788,2.788,0,0,0,.805-3.772,2.6,2.6,0,0,0-1.667-1.2,2.527,2.527,0,0,0-1.958.371l-7.154,4.76A4.667,4.667,0,0,0,26.667,27H21.824a7.574,7.574,0,0,0-4.49-1.333c-3.023,0-5.458,1.418-5.921,3.333H7.334v-.667a.667.667,0,0,0-.667-.667h-4A.667.667,0,0,0,2,28.334v5.334H3.333V29H6V39.668H3.333V35.012H2v5.323A.667.667,0,0,0,2.667,41ZM12,30.334a.667.667,0,0,0,.667-.667C12.667,28.222,14.8,27,17.334,27a6.169,6.169,0,0,1,3.833,1.179.667.667,0,0,0,.426.154h5.074A3.339,3.339,0,0,1,29.934,31H21.958a.667.667,0,1,0,0,1.333h8.71a.667.667,0,0,0,.667-.667,4.647,4.647,0,0,0-.079-.834L38.7,25.875a1.2,1.2,0,0,1,.933-.179,1.281,1.281,0,0,1,.818.6,1.467,1.467,0,0,1-.419,1.973.675.675,0,0,0-.057.041L26.278,39.25a1.856,1.856,0,0,1-1.542.38l-8.588-1.946A.649.649,0,0,0,16,37.668H7.334V30.334ZM26.134,5A6.276,6.276,0,0,0,22,6.558a6.315,6.315,0,0,0-8.775.467,7.154,7.154,0,0,0,0,9.687l6.108,6.458A3.648,3.648,0,0,0,22,24.334h0a3.645,3.645,0,0,0,2.667-1.164l6.1-6.46a7.142,7.142,0,0,0,.005-9.689A6.343,6.343,0,0,0,26.144,5Zm3.671,10.794-6.1,6.46a2.364,2.364,0,0,1-3.4,0L14.2,15.8a5.507,5.507,0,0,1-.987-1.461H14a.667.667,0,0,0,.619-.419l.714-1.787.714,1.787a.667.667,0,0,0,.619.419H18V15a.667.667,0,0,0,.667.667H20V17a.667.667,0,0,0,.667.667h2.667A.667.667,0,0,0,24,17V15.667h1.333A.667.667,0,0,0,26,15v-.667h1.333a.667.667,0,0,0,.555-.3l.779-1.17.779,1.168a.667.667,0,0,0,.555.3h.791a5.5,5.5,0,0,1-.984,1.461ZM23.334,13h1.333v1.333H23.334a.667.667,0,0,0-.667.667v1.333H21.334V15a.667.667,0,0,0-.667-.667H19.334V13h1.333a.667.667,0,0,0,.667-.667V11h1.333v1.333A.667.667,0,0,0,23.334,13Zm8-1.129A5.971,5.971,0,0,1,31.226,13H30.36l-1.133-1.7a.693.693,0,0,0-1.109,0L26.977,13H26v-.667a.667.667,0,0,0-.667-.667H24V10.334a.667.667,0,0,0-.667-.667H20.667a.667.667,0,0,0-.667.667v1.333H18.667a.667.667,0,0,0-.667.667V13h-.882l-1.165-2.915a.667.667,0,0,0-1.239,0L13.549,13h-.771A5.786,5.786,0,0,1,14.2,7.938a4.987,4.987,0,0,1,7.32,0,.687.687,0,0,0,.969,0,5,5,0,0,1,3.649-1.6,5.062,5.062,0,0,1,3.667,1.6A5.69,5.69,0,0,1,31.334,11.872Z" transform="translate(1261 906)"/></g></g></svg>