<svg xmlns="http://www.w3.org/2000/svg" width="22.923" height="22.923" viewBox="0 0 22.923 22.923"><defs><style>.a{fill:#b1f1fe;}.b{fill:#2e53bf;}</style></defs><rect class="a" width="9.062" height="22.051" transform="translate(6.941 0.464)"/><path class="b" d="M24.159,7.731a.382.382,0,0,0-.382-.382H18.046V2.382A.382.382,0,0,0,17.664,2H9.259a.382.382,0,0,0-.382.382v8.023H3.146a.382.382,0,0,0-.382.382V24.159H2v.764H24.923v-.764h-.764Zm-.764.382V24.159H18.046V8.113ZM17.282,2.764v21.4H9.641V2.764ZM3.528,11.169H8.877v12.99H3.528Z" transform="translate(-2 -2)"/><path class="b" d="M28.528,10.821h.764V9.292h1.528V8.528H29.292V7h-.764V8.528H27v.764h1.528Z" transform="translate(-17.449 -5.09)"/><rect class="b" width="2.417" height="0.604" transform="translate(12.076 7.411)"/><rect class="b" width="3.323" height="0.906" transform="translate(2.712 12.244)"/><rect class="b" width="2.417" height="0.604" transform="translate(8.451 7.411)"/><rect class="b" width="3.323" height="0.906" transform="translate(2.712 16.171)"/><rect class="b" width="3.323" height="0.604" transform="translate(2.712 20.098)"/><rect class="b" width="2.417" height="0.604" transform="translate(12.076 11.338)"/><rect class="b" width="2.417" height="0.604" transform="translate(8.451 11.338)"/><rect class="b" width="2.417" height="0.604" transform="translate(12.076 14.963)"/><rect class="b" width="2.417" height="0.604" transform="translate(8.451 14.963)"/><rect class="b" width="3.927" height="0.604" transform="translate(16.909 9.224)"/><rect class="b" width="3.927" height="0.604" transform="translate(16.909 13.151)"/><rect class="b" width="3.927" height="0.604" transform="translate(16.909 17.077)"/><rect class="b" width="2.417" height="0.604" transform="translate(12.076 18.89)"/><rect class="b" width="2.417" height="0.604" transform="translate(8.451 18.89)"/></svg>