<svg xmlns="http://www.w3.org/2000/svg" width="13.489" height="21.048" viewBox="0 0 13.489 21.048"><defs><style>.a{fill:#b1f1fe;}.b{fill:#2e53bf;}</style></defs><g transform="translate(11219.43 3316.131)"><rect class="a" width="12.708" height="8.17" transform="translate(-11219.04 -3306.935)"/><path class="b" d="M16.1,11.127a.421.421,0,0,0-.421.421v2.527a.421.421,0,0,0,.421.421H17.36v1.7a2.691,2.691,0,0,0-2.524,2.677V19.89a.421.421,0,0,0,0,.158v8.261a.421.421,0,0,0,0,.158v1.016a2.7,2.7,0,0,0,2.695,2.693h8.093a2.7,2.7,0,0,0,2.693-2.693V18.874A2.69,2.69,0,0,0,25.779,16.2V14.5h1.263a.421.421,0,0,0,.421-.421V11.548a.421.421,0,0,0-.421-.421Zm.421.842h10.1v1.685h-10.1ZM18.2,14.5h6.735V16.18H18.2Zm-.671,2.526h8.093a1.838,1.838,0,0,1,1.851,1.851v.674h-11.8v-.674A1.839,1.839,0,0,1,17.531,17.022ZM15.678,20.39h11.8v7.577h-11.8Zm0,8.419h11.8v.674a1.838,1.838,0,0,1-1.851,1.851H17.531a1.839,1.839,0,0,1-1.853-1.851Z" transform="translate(-11234.259 -3327.259)"/><g transform="translate(-11214.683 -3305.392)"><g transform="translate(0 0)"><path class="b" d="M381.292,204.4h-1.236v-1.236a.465.465,0,0,0-.93,0V204.4h-1.236a.465.465,0,1,0,0,.93h1.236v1.236a.465.465,0,0,0,.93,0v-1.236h1.236a.465.465,0,1,0,0-.93Z" transform="translate(-377.426 -202.702)"/></g></g></g></svg>