<svg xmlns="http://www.w3.org/2000/svg" width="14.713" height="17.653" viewBox="0 0 14.713 17.653"><defs><style>.a{fill:#ff5722;}</style></defs><path class="a" d="M57.087,1.486,51.938.015a.368.368,0,0,0-.243.014L42.868,3.706a.368.368,0,0,0-.226.339v9.562a.368.368,0,0,0,.364.368.368.368,0,0,0-.113.717l8.827,2.942a.379.379,0,0,0,.116.018.368.368,0,0,0,.1-.015l5.149-1.471a.368.368,0,0,0,.267-.353V1.839A.368.368,0,0,0,57.087,1.486ZM43.175,13.937l2.207-1.1a.368.368,0,0,0,.2-.329V4.7L52.2,3.046v12.34L43.066,13.98a.319.319,0,0,0-.052,0A.372.372,0,0,0,43.175,13.937Z" transform="translate(-42.641 0)"/></svg>