<svg xmlns="http://www.w3.org/2000/svg" width="26.141" height="35.646" viewBox="0 0 26.141 35.646"><defs><style>.a{fill:#8e98a2;}</style></defs><g transform="translate(-22.6 -13)"><path class="a" d="M22.6,44.686a3.961,3.961,0,0,0,3.961,3.961H44.78a3.961,3.961,0,0,0,3.961-3.961V23.991a.99.99,0,0,0-.3-.693L37.8,13.248A.941.941,0,0,0,37.156,13H26.561A3.961,3.961,0,0,0,22.6,16.961ZM38.146,16.268,45.275,23H39.136a.941.941,0,0,1-.99-.99Zm-13.565.693a1.98,1.98,0,0,1,1.98-1.98h9.6v7.03a2.921,2.921,0,0,0,2.971,2.971H46.76v19.7a1.98,1.98,0,0,1-1.98,1.98H26.561a1.98,1.98,0,0,1-1.98-1.98Z"/><path class="a" d="M31.99,58.28H47.783a.99.99,0,1,0,0-1.98H31.99a.99.99,0,0,0,0,1.98Z" transform="translate(-4.241 -21.863)"/><path class="a" d="M31.99,46.28h8.367a.99.99,0,0,0,0-1.98H31.99a.99.99,0,0,0,0,1.98Z" transform="translate(-4.241 -15.804)"/><path class="a" d="M31.99,70.28H47.783a.99.99,0,1,0,0-1.98H31.99a.99.99,0,0,0,0,1.98Z" transform="translate(-4.241 -27.922)"/></g></svg>