<svg xmlns="http://www.w3.org/2000/svg" width="16.004" height="16.004" viewBox="0 0 16.004 16.004"><defs><style>.a{fill:#57aa7f;}</style></defs><path class="a" d="M1.433,9.577,3.5,11.648v1.77L.548,10.46a1.878,1.878,0,0,1,0-2.65L8.343,0H16V7.032a3.987,3.987,0,0,0-.519-.31,4.851,4.851,0,0,0-.731-.291V1.25H8.862L1.433,8.694A.626.626,0,0,0,1.433,9.577ZM11.5,3.876a.625.625,0,1,0,.625-.625A.625.625,0,0,0,11.5,3.876Zm4.5,5.5h0v4.751a1.669,1.669,0,0,1-1.078,1.443A4.679,4.679,0,0,1,12.879,16a4.679,4.679,0,0,1-2.048-.432,2.644,2.644,0,0,1-.453-.283,2.644,2.644,0,0,1-.453.283A4.679,4.679,0,0,1,7.878,16a4.679,4.679,0,0,1-2.048-.432,1.669,1.669,0,0,1-1.078-1.443V11.69h0c0-.01,0-.021,0-.031A1.669,1.669,0,0,1,5.83,10.216a4.679,4.679,0,0,1,2.048-.432,4.709,4.709,0,0,1,1.875.366V9.377h0c0-.031,0-.062,0-.094A1.669,1.669,0,0,1,10.831,7.84a4.679,4.679,0,0,1,2.048-.432,4.679,4.679,0,0,1,2.048.432A1.669,1.669,0,0,1,16,9.284C16,9.315,16,9.346,16,9.377Zm-5-.094c0,.022.067.165.387.325a3.469,3.469,0,0,0,1.489.3,3.469,3.469,0,0,0,1.489-.3c.32-.16.387-.3.387-.325s-.067-.165-.387-.325a3.469,3.469,0,0,0-1.489-.3,3.469,3.469,0,0,0-1.489.3C11.071,9.118,11,9.262,11,9.284ZM6,11.659c0,.022.067.165.387.325a3.469,3.469,0,0,0,1.489.3A3.6,3.6,0,0,0,9.374,12c.309-.149.379-.286.379-.305,0-.037-.094-.189-.395-.344a3.348,3.348,0,0,0-1.481-.312,3.469,3.469,0,0,0-1.489.3C6.07,11.494,6,11.638,6,11.659Zm3.751,2.469V13.2a4.886,4.886,0,0,1-1.875.338A4.835,4.835,0,0,1,6,13.182v.947c0,.022.067.165.387.325a3.469,3.469,0,0,0,1.489.3,3.469,3.469,0,0,0,1.489-.3C9.686,14.294,9.753,14.15,9.753,14.128Zm5,0v-.947a5.16,5.16,0,0,1-3.751,0v.947c0,.022.067.165.387.325a3.469,3.469,0,0,0,1.489.3,3.469,3.469,0,0,0,1.489-.3C14.687,14.294,14.755,14.15,14.755,14.128Zm0-2.469v-.853a5.16,5.16,0,0,1-3.751,0v.853c0,.022.067.165.387.325a3.469,3.469,0,0,0,1.489.3,3.469,3.469,0,0,0,1.489-.3C14.687,11.824,14.755,11.681,14.755,11.659Zm0,0" transform="translate(-0.001)"/></svg>