<svg id="noun_print_3578429" xmlns="http://www.w3.org/2000/svg" width="18.319" height="15.554" viewBox="0 0 18.319 15.554">
  <path id="Path_512" data-name="Path 512" d="M18.336,6.014H15.5V4.286A1.285,1.285,0,0,0,14.214,3H6.905A1.285,1.285,0,0,0,5.621,4.285V6.013H2.783A1.383,1.383,0,0,0,1.4,7.4v6.256a1.383,1.383,0,0,0,1.383,1.383H5.409v3.174a.346.346,0,0,0,.346.346h9.609a.346.346,0,0,0,.346-.346V15.037h2.627a1.383,1.383,0,0,0,1.383-1.383V7.4A1.383,1.383,0,0,0,18.336,6.014ZM6.312,4.286a.592.592,0,0,1,.593-.594h7.308a.592.592,0,0,1,.592.592V6.011H6.313Zm8.7,13.577H6.1v-5.85h8.916Zm4.011-4.208a.691.691,0,0,1-.691.691H15.709V11.667a.346.346,0,0,0-.346-.346H5.755a.346.346,0,0,0-.346.346v2.679H2.783a.691.691,0,0,1-.691-.691V7.4A.691.691,0,0,1,2.783,6.7H18.336a.691.691,0,0,1,.691.691Z" transform="translate(-1.4 -3)" fill="#72748f"/>
  <path id="Path_513" data-name="Path 513" d="M6.994,9.018H4.758a.346.346,0,1,0,0,.691H6.994a.346.346,0,0,0,0-.691Z" transform="translate(-1.809 -3.818)" fill="#72748f"/>
</svg>
