<svg xmlns="http://www.w3.org/2000/svg" width="15.766" height="15.766" viewBox="0 0 15.766 15.766"><defs><style>.a{fill:#1c58fb;}</style></defs><g transform="translate(11091.139 3326.139)"><g transform="translate(-11091.139 -3326.139)"><path class="a" d="M29.443,17.988a8.769,8.769,0,0,0-11.119,0A6.365,6.365,0,0,0,16,22.832a6.486,6.486,0,0,0,2.787,5.213q.145.3.319.593l-.6.3a.263.263,0,0,0,0,.47l.738.369a.793.793,0,0,1,.353.353l.369.738a.263.263,0,0,0,.47,0l.2-.4a5.079,5.079,0,0,0,3.243,1.3h3.679a.263.263,0,0,0,.2-.1l2.311-2.88a1.3,1.3,0,0,0,.374-.918V26.61a6.17,6.17,0,0,0,1.314-3.778A6.365,6.365,0,0,0,29.443,17.988ZM16.526,22.832c0-3.477,3.3-6.306,7.357-6.306a8.41,8.41,0,0,1,2.617.413,4.884,4.884,0,0,1-.986,1.969c-.593.776-1.249,1.3-1.631,1.3a6.493,6.493,0,0,0-4.066,1.28A4.588,4.588,0,0,0,18.1,25.2a6.265,6.265,0,0,0,.284,1.826A5.811,5.811,0,0,1,16.526,22.832Zm12.148,1.352a1.083,1.083,0,0,0-.324.768v2.52l-.465.6a1.051,1.051,0,0,0-1.714-.341.259.259,0,0,0-.031.037l-2.393,3.472A4.66,4.66,0,0,1,20.9,29.99a.793.793,0,0,1,.264-.216l.738-.369a.263.263,0,0,0,0-.47l-.738-.369a.793.793,0,0,1-.353-.353l-.369-.738a.263.263,0,0,0-.47,0l-.369.738a.78.78,0,0,1-.068.111,6.281,6.281,0,0,1-.9-3.129,4.079,4.079,0,0,1,1.518-3.3,5.97,5.97,0,0,1,3.737-1.164,6.169,6.169,0,0,1,3.377.9,4,4,0,0,1,1.722,2.339,1.057,1.057,0,0,0-.309.211ZM20.2,30.16l-.134-.268a1.322,1.322,0,0,0-.588-.588l-.268-.134.268-.134a1.322,1.322,0,0,0,.588-.588l.134-.268.134.268a1.322,1.322,0,0,0,.588.588l.268.134-.268.134a1.322,1.322,0,0,0-.588.588Zm9.722-2.291a.783.783,0,0,1-.231.557l-.019.021L27.435,31.24H24.383l2.175-3.155a.525.525,0,1,1,.728.758.265.265,0,0,0-.027.031l-.7.961a.263.263,0,1,0,.425.309l.687-.945a1.047,1.047,0,0,0,.136-.176l1.011-1.3h0a.261.261,0,0,0,.055-.161v-2.61a.554.554,0,0,1,.166-.393.513.513,0,0,1,.37-.15.528.528,0,0,1,.515.526ZM29.5,23.888a4.514,4.514,0,0,0-1.957-2.695,6.255,6.255,0,0,0-2.615-.922,6.132,6.132,0,0,0,1-1.045A5.41,5.41,0,0,0,27,17.12a6.333,6.333,0,0,1,4.24,5.711,5.561,5.561,0,0,1-.788,2.842v-.74a1.057,1.057,0,0,0-.948-1.046Z" transform="translate(-16 -16)"/><path class="a" d="M161.314,265.051a.263.263,0,0,0,.263-.263.788.788,0,1,0-1.577,0,.263.263,0,0,0,.526,0,.263.263,0,1,1,.526,0A.263.263,0,0,0,161.314,265.051Z" transform="translate(-155.27 -255.854)"/><path class="a" d="M304.788,264a.789.789,0,0,0-.788.788.263.263,0,0,0,.526,0,.263.263,0,1,1,.526,0,.263.263,0,0,0,.526,0A.789.789,0,0,0,304.788,264Z" transform="translate(-294.541 -255.854)"/><path class="a" d="M196.037,344a.263.263,0,0,0-.346.135,1.877,1.877,0,0,1-3.2,0,.263.263,0,1,0-.481.212,2.394,2.394,0,0,0,4.16,0A.263.263,0,0,0,196.037,344Z" transform="translate(-186.21 -333.207)"/><path class="a" d="M232.263,281.577h1.051a.263.263,0,1,0,0-.526h-.788v-.788a.263.263,0,1,0-.526,0v1.051A.263.263,0,0,0,232.263,281.577Z" transform="translate(-224.905 -271.329)"/></g></g></svg>