<svg xmlns="http://www.w3.org/2000/svg" width="15.633" height="15.118" viewBox="0 0 15.633 15.118"><defs><style>.a{fill:#1cb794;}</style></defs><g transform="translate(0 0)"><path class="a" d="M98.283,99.769a7.842,7.842,0,0,1-2.043-2.184,3.514,3.514,0,0,0-5.911,0,7.842,7.842,0,0,1-2.043,2.184,3.519,3.519,0,0,0,2.015,6.406h5.968a3.519,3.519,0,0,0,2.015-6.406Zm-2.015,5.856H90.3a2.969,2.969,0,0,1-1.7-5.406,8.386,8.386,0,0,0,2.189-2.335,2.964,2.964,0,0,1,4.989,0,8.385,8.385,0,0,0,2.189,2.335,2.969,2.969,0,0,1-1.7,5.406Zm-7.835-8.258V95.958a1.5,1.5,0,1,0-3,0v1.408a1.5,1.5,0,0,0,3,0Zm-2.45,0V95.958a.95.95,0,0,1,1.9,0v1.408a.951.951,0,0,1-.95.95h0A.951.951,0,0,1,85.983,97.367Zm13.583-2.908a1.5,1.5,0,0,0-1.5,1.5v1.408a1.5,1.5,0,1,0,3,0V95.958A1.5,1.5,0,0,0,99.566,94.458Zm.95,2.908a.951.951,0,0,1-.95.95h0a.951.951,0,0,1-.95-.95V95.958a.95.95,0,1,1,1.9,0Zm-9.6-1.9a1.5,1.5,0,0,0,1.5-1.5V92.557a1.5,1.5,0,0,0-3,0v1.408A1.5,1.5,0,0,0,90.917,95.465Zm-.95-2.908a.95.95,0,0,1,1.9,0v1.408a.95.95,0,0,1-1.9,0Zm5.615,2.908a1.5,1.5,0,0,0,1.5-1.5V92.557a1.5,1.5,0,0,0-3,0v1.408A1.5,1.5,0,0,0,95.582,95.465Zm-.95-2.908a.95.95,0,1,1,1.9,0v1.408a.95.95,0,1,1-1.9,0Z" transform="translate(-85.433 -91.057)"/><path class="a" d="M205.822,269.329h-2.508v1.216H202.1v2.508h1.216v1.216h2.508v-1.216h1.216v-2.508h-1.216Zm.666,1.766V272.5h-1.216v1.216h-1.408V272.5h-1.216V271.1h1.216v-1.216h1.408V271.1Z" transform="translate(-196.751 -261.159)"/></g></svg>