<svg xmlns="http://www.w3.org/2000/svg" width="18.923" height="15.457" viewBox="0 0 18.923 15.457"><defs><style>.a{fill:none;}.b{fill:#f464a2;}</style></defs><circle class="a" cx="2.755" cy="2.755" r="2.755" transform="translate(12.853 4.718)"/><g transform="translate(0 0)"><g transform="translate(12.408 10.879)"><g transform="translate(0 0)"><path class="b" d="M336.357,341.364a.37.37,0,0,0-.523.005l-.011.011a.37.37,0,0,0,.528.517l.01-.011A.37.37,0,0,0,336.357,341.364Z" transform="translate(-335.718 -341.258)"/></g></g><g transform="translate(13.949 5.758)"><g transform="translate(0 0)"><path class="b" d="M380.5,204.054h-.982v-.982a.37.37,0,1,0-.739,0v.982H377.8a.37.37,0,0,0,0,.739h.982v.982a.37.37,0,1,0,.739,0v-.982h.982a.37.37,0,1,0,0-.739Z" transform="translate(-377.426 -202.702)"/></g></g><g transform="translate(0 0)"><path class="b" d="M16.879,51.359a5.094,5.094,0,0,0-5.01-4.46,4.94,4.94,0,0,0-3.406,1.35A4.94,4.94,0,0,0,5.058,46.9,5.125,5.125,0,0,0,0,52.077a4.533,4.533,0,0,0,.492,1.895H.37a.37.37,0,1,0,0,.739H.886a20.937,20.937,0,0,0,3.27,3.978A47.643,47.643,0,0,0,8.239,62.28a.37.37,0,0,0,.449,0c.016-.012,1.58-1.212,3.314-2.846a.37.37,0,0,0-.507-.538c-1.322,1.247-2.543,2.235-3.031,2.621a47.382,47.382,0,0,1-3.792-3.357,21.984,21.984,0,0,1-2.918-3.448H5.063a.37.37,0,0,0,.355-.268l.646-2.251,1.788,5.729a.37.37,0,0,0,.706,0l.99-3.174H11.2a.37.37,0,0,0,0-.739H9.276a.37.37,0,0,0-.353.259l-.719,2.3L6.4,50.794a.37.37,0,0,0-.708.008l-.909,3.17H1.317a4.2,4.2,0,0,1-.577-1.895,4.385,4.385,0,0,1,4.319-4.439,4.226,4.226,0,0,1,3.134,1.385.37.37,0,0,0,.543,0,4.226,4.226,0,0,1,3.134-1.385,4.346,4.346,0,0,1,4.225,3.516,3.253,3.253,0,1,0,.784.205Zm-1.208,5.533a2.513,2.513,0,1,1,2.513-2.513A2.516,2.516,0,0,1,15.671,56.892Z" transform="translate(0 -46.899)"/></g></g></svg>