<svg xmlns="http://www.w3.org/2000/svg" width="14.574" height="16.232" viewBox="0 0 14.574 16.232"><defs><style>.a{fill:#e62e2e;}</style></defs><g transform="translate(-2883 -22730)"><g transform="translate(2883 22730)"><g transform="translate(0 0)"><path class="a" d="M39.452,13.7c-2.048-.01-4.071-1.628-6-2.373-.785-.306-.511-2.723-.222-5.282l.039-.341a.317.317,0,0,0-.63-.071l-.039.341c-.358,3.17-.618,5.461.621,5.944,1.993.785,4.045,2.421,6.234,2.416a.634.634,0,1,1,0,1.268,3.014,3.014,0,0,1-.489-.051,3.556,3.556,0,0,0-.59-.06,4.85,4.85,0,0,0-.535.058c-.16.022-.38.052-.448.052h-2.86c-1.2.01-1.776-.475-2.915-.491-1.5-.041-3.557,1.331-4.551-.364a2.545,2.545,0,0,1,.123-2.531,9.858,9.858,0,0,0,.827-5.152c-.2-2.152-1.264-4.411-.851-6.426h5.85c-.008.666-.041,1.378-.1,2.166a.317.317,0,1,0,.632.048c.07-.931.1-1.758.1-2.531A.317.317,0,0,0,33.333,0H26.914a.317.317,0,0,0-.306.234c-.6,2.27.547,4.569.776,6.9a9.289,9.289,0,0,1-.744,4.76c-1.094,1.76-.294,4.337,1.911,4.341.986.007,2.106-.486,3.064-.491a4.158,4.158,0,0,1,1.177.21,5.968,5.968,0,0,0,1.738.281h2.86a4.85,4.85,0,0,0,.535-.058c.16-.022.38-.052.448-.052a3.014,3.014,0,0,1,.489.051,3.556,3.556,0,0,0,.59.06,1.268,1.268,0,1,0,0-2.536Z" transform="translate(-26.155 0)"/><path class="a" d="M122.837,371.777a.317.317,0,0,0-.634,0,1.325,1.325,0,0,0,1.332,1.316.317.317,0,1,0,0-.634A.69.69,0,0,1,122.837,371.777Z" transform="translate(-119.158 -359.685)"/><path class="a" d="M106.754,255.8a1.167,1.167,0,0,0-.2-1.576,1.04,1.04,0,0,0-1.165-.074,1.04,1.04,0,0,0-1.165.074c-1.058.871.149,2.376,1.083,2.693a.317.317,0,0,0,.164,0A2.684,2.684,0,0,0,106.754,255.8Zm-1.364.472a2.305,2.305,0,0,1-.815-.789c-.182-.316-.169-.6.036-.756a.413.413,0,0,1,.555.045.317.317,0,0,0,.448,0,.413.413,0,0,1,.555-.045C106.727,255.181,105.734,256.117,105.39,256.27Z" transform="translate(-101.351 -245.952)"/><path class="a" d="M144.169,201.373v-.51a.317.317,0,0,0-.634,0v.51A.317.317,0,0,0,144.169,201.373Z" transform="translate(-139.814 -194.19)"/><path class="a" d="M101.164,216.785a.317.317,0,0,0,.274-.476l-.129-.224a.317.317,0,1,0-.549.317l.129.224A.317.317,0,0,0,101.164,216.785Z" transform="translate(-98.353 -209.081)"/><path class="a" d="M182.875,215.97a.317.317,0,0,0-.433.116l-.129.224a.317.317,0,1,0,.549.317l.129-.224A.317.317,0,0,0,182.875,215.97Z" transform="translate(-177.321 -209.082)"/><path class="a" d="M235.631,123.9a.317.317,0,1,0,.317.317.317.317,0,0,0-.317-.317Z" transform="translate(-228.683 -119.97)"/></g></g></g></svg>