<svg xmlns="http://www.w3.org/2000/svg" width="23.926" height="23.926" viewBox="0 0 23.926 23.926"><defs><style>.a{fill:#b1f1fe;}.b{fill:#2e53bf;}</style></defs><g transform="translate(11091.139 3326.139)"><path class="a" d="M-11086.945-3308.274s-7.3-5.875-.75-13.514a12.474,12.474,0,0,1,13.545-2.673c3.332,1.27,9.441,5.546,5.172,13.961-.283-1.716-.146-2.847-1.744-3.066-.821-2.41-3.623-6.45-9.84-5.4-2.5.6-7.146,1.755-6.383,8.465A7.4,7.4,0,0,1-11086.945-3308.274Z" transform="translate(-0.329 -0.344)"/><g transform="translate(-11091.139 -3326.139)"><path class="b" d="M36.4,19.017A12.88,12.88,0,0,0,27.963,16a12.88,12.88,0,0,0-8.437,3.017A9.66,9.66,0,0,0,16,26.368a9.843,9.843,0,0,0,4.23,7.911q.22.457.484.9l-.9.452a.4.4,0,0,0,0,.713l1.119.56a1.2,1.2,0,0,1,.535.535l.56,1.12a.4.4,0,0,0,.713,0l.3-.609a7.708,7.708,0,0,0,4.921,1.976h5.583a.4.4,0,0,0,.311-.149l3.508-4.37a1.98,1.98,0,0,0,.568-1.394V32.1a9.363,9.363,0,0,0,1.994-5.734A9.66,9.66,0,0,0,36.4,19.017ZM16.8,26.368c0-5.277,5.009-9.57,11.165-9.57a12.763,12.763,0,0,1,3.971.626,7.412,7.412,0,0,1-1.5,2.988c-.9,1.178-1.895,1.969-2.475,1.969a9.853,9.853,0,0,0-6.171,1.942,6.963,6.963,0,0,0-2.6,5.634,9.508,9.508,0,0,0,.432,2.771A8.819,8.819,0,0,1,16.8,26.368Zm18.435,2.051a1.643,1.643,0,0,0-.491,1.166v3.824l-.706.907a1.6,1.6,0,0,0-2.6-.517.393.393,0,0,0-.046.056l-3.632,5.269a7.072,7.072,0,0,1-4.326-1.892,1.2,1.2,0,0,1,.4-.327l1.119-.56a.4.4,0,0,0,0-.713l-1.119-.56a1.2,1.2,0,0,1-.535-.535l-.56-1.12a.4.4,0,0,0-.713,0l-.56,1.119a1.183,1.183,0,0,1-.1.169,9.532,9.532,0,0,1-1.373-4.749,6.19,6.19,0,0,1,2.3-5.012,9.06,9.06,0,0,1,5.672-1.767,9.361,9.361,0,0,1,5.126,1.372A6.071,6.071,0,0,1,35.7,28.1a1.6,1.6,0,0,0-.469.321ZM22.38,37.489l-.2-.406a2.006,2.006,0,0,0-.892-.892l-.406-.2.406-.2a2.006,2.006,0,0,0,.892-.892l.2-.406.2.406a2.006,2.006,0,0,0,.892.892l.406.2-.406.2a2.006,2.006,0,0,0-.892.892Zm14.754-3.476a1.188,1.188,0,0,1-.35.846.389.389,0,0,0-.029.032l-3.4,4.237H28.722l3.3-4.788a.8.8,0,1,1,1.1,1.151.4.4,0,0,0-.041.048L32.027,37a.4.4,0,1,0,.645.469l1.042-1.435a1.59,1.59,0,0,0,.207-.268l1.535-1.973h0a.4.4,0,0,0,.084-.244V29.585a.841.841,0,0,1,.252-.6.778.778,0,0,1,.561-.228.8.8,0,0,1,.782.8Zm-.641-6.042a6.851,6.851,0,0,0-2.97-4.09,9.493,9.493,0,0,0-3.969-1.4A9.306,9.306,0,0,0,31.071,20.9a8.211,8.211,0,0,0,1.622-3.2c3.8,1.529,6.435,4.839,6.435,8.668a8.439,8.439,0,0,1-1.2,4.313V29.558a1.6,1.6,0,0,0-1.439-1.587Z" transform="translate(-16 -16)"/><path class="b" d="M161.994,265.6a.4.4,0,0,0,.4-.4,1.2,1.2,0,0,0-2.393,0,.4.4,0,1,0,.8,0,.4.4,0,0,1,.8,0A.4.4,0,0,0,161.994,265.6Z" transform="translate(-152.822 -251.638)"/><path class="b" d="M305.2,264a1.2,1.2,0,0,0-1.2,1.2.4.4,0,1,0,.8,0,.4.4,0,0,1,.8,0,.4.4,0,1,0,.8,0A1.2,1.2,0,0,0,305.2,264Z" transform="translate(-289.645 -251.638)"/><path class="b" d="M198.132,344.014a.4.4,0,0,0-.525.205,2.848,2.848,0,0,1-4.853,0,.4.4,0,1,0-.73.321,3.634,3.634,0,0,0,6.313,0A.4.4,0,0,0,198.132,344.014Z" transform="translate(-183.218 -327.632)"/><path class="b" d="M232.4,282.393h1.6a.4.4,0,1,0,0-.8h-1.2v-1.2a.4.4,0,1,0-.8,0v1.6A.4.4,0,0,0,232.4,282.393Z" transform="translate(-221.233 -266.841)"/></g></g></svg>