<svg xmlns="http://www.w3.org/2000/svg" width="25.117" height="25.117" viewBox="0 0 25.117 25.117"><defs><style>.a{fill:#fd9e27;fill-rule:evenodd;}</style></defs><g transform="translate(-0.975 -0.975)"><path class="a" d="M10.726,1.538a1.924,1.924,0,0,1,2.721,0l.631.632a1.924,1.924,0,1,1-2.721,2.721l-.632-.631a1.924,1.924,0,0,1,0-2.721Zm1.894.826a.755.755,0,1,0-1.068,1.068l.632.631A.755.755,0,0,0,13.252,3Z" transform="translate(1.548)"/><path class="a" d="M1.538,10.726a1.924,1.924,0,0,1,2.721,0l.632.632A1.924,1.924,0,0,1,2.17,14.078l-.631-.631a1.924,1.924,0,0,1,0-2.721Zm1.894.826a.755.755,0,0,0-1.068,1.068L3,13.252a.755.755,0,0,0,1.068-1.068Z" transform="translate(0 1.548)"/><path class="a" d="M13.04,3.374a.584.584,0,0,1,0,.826L4.2,13.041a.584.584,0,1,1-.826-.826l8.841-8.841a.584.584,0,0,1,.826,0Z" transform="translate(0.375 0.375)"/><path class="a" d="M18.23,4.184a2.921,2.921,0,0,1,4.131,0L24.84,6.663a2.921,2.921,0,0,1,0,4.131L10.794,24.84a2.921,2.921,0,0,1-4.131,0L4.184,22.361a2.921,2.921,0,0,1,0-4.131Zm3.3.826a1.753,1.753,0,0,0-2.479,0L5.01,19.056a1.753,1.753,0,0,0,0,2.479l2.479,2.479a1.753,1.753,0,0,0,2.479,0L24.014,9.968a1.753,1.753,0,0,0,0-2.479Z" transform="translate(0.397 0.397)"/><path class="a" d="M14.139,9.935a2.071,2.071,0,0,1,2.928,2.928l-4.2,4.2a2.071,2.071,0,1,1-2.928-2.928Zm2.1.826a.9.9,0,0,0-1.276,0L13.276,12.45l1.276,1.276,1.689-1.689A.9.9,0,0,0,16.241,10.761Zm-2.515,3.791L12.45,13.276l-1.689,1.689a.9.9,0,0,0,1.276,1.276Z" transform="translate(1.407 1.407)"/><path class="a" d="M18.515,7.789a.584.584,0,1,0,0,.826A.584.584,0,0,0,18.515,7.789Zm-1.652-.826a1.753,1.753,0,1,1,0,2.479,1.753,1.753,0,0,1,0-2.479Z" transform="translate(2.59 0.922)"/><path class="a" d="M8.616,17.689a.584.584,0,1,0,0,.826A.584.584,0,0,0,8.616,17.689Zm-1.652-.826a1.753,1.753,0,1,1,0,2.479A1.753,1.753,0,0,1,6.963,16.863Z" transform="translate(0.922 2.59)"/></g></svg>