<svg xmlns="http://www.w3.org/2000/svg" width="11.444" height="12.479" viewBox="0 0 11.444 12.479"><defs><style>.a{fill:#6d5cd2;}.b{fill:#fff;}</style></defs><g transform="translate(-1601.725 -103.77)"><g transform="translate(1601.725 103.77)"><path class="a" d="M9.923,4.779v-.82h.4a.479.479,0,1,0,0-.959H8.552a.479.479,0,0,0,0,.959h.412v.815a5.4,5.4,0,1,0,.959,0ZM8.964,9.649h.959a1.189,1.189,0,0,1,1.189,1.189v.551a1.529,1.529,0,0,1-1.165,1.481v.3a.479.479,0,0,1-.959,0v-.288a1.529,1.529,0,0,1-1.218-1.5.479.479,0,0,1,.959,0,.57.57,0,0,0,.575.57h.288a.57.57,0,0,0,.566-.57c-.029-.268.12-.777-.23-.781H8.969A1.2,1.2,0,0,1,7.775,9.414V8.863A1.529,1.529,0,0,1,8.969,7.377V7.084a.479.479,0,0,1,.959,0v.292a1.524,1.524,0,0,1,1.189,1.486.479.479,0,1,1-.959,0,.566.566,0,0,0-.57-.566H9.3a.566.566,0,0,0-.57.566c.034.268-.11.777.24.786Z" transform="translate(-4.06 -3)"/><path class="a" d="M25.348,7.881c-.369-.455-1.515-2.277-2.119-1.553A.479.479,0,0,0,23.292,7a6.1,6.1,0,0,1,1.251,1.4.48.48,0,0,0,.805-.523Z" transform="translate(-13.982 -4.645)"/></g><ellipse class="a" cx="4.164" cy="4.225" rx="4.164" ry="4.225" transform="translate(1603.287 106.543)"/><path class="b" d="M28.619,38.061a1.443,1.443,0,0,0,.483-.4,1.341,1.341,0,0,0,.212-.518h.553s.106-.141.294-.424a.012.012,0,0,0-.012-.012H29.3a1.028,1.028,0,0,0-.224-.471h.789a3.535,3.535,0,0,0,.294-.436H27.194a4.225,4.225,0,0,0-.294.424v.012h.777a1.361,1.361,0,0,1,.436.082.833.833,0,0,1,.471.377H27.194s-.106.141-.294.424a.012.012,0,0,0,.012.012h1.766a.488.488,0,0,1-.035.188c-.153.424-.565.636-1.213.636a1.9,1.9,0,0,1-.365-.024v.424c0,.012.577.683,1.743,2.037h.636c.012,0,.012,0,.012-.012V40.3L28,38.532a1.51,1.51,0,0,1-.2-.259h0A1.685,1.685,0,0,0,28.619,38.061Z" transform="translate(1578.375 72.803)"/></g></svg>