<svg xmlns="http://www.w3.org/2000/svg" width="11.443" height="12.479" viewBox="0 0 11.443 12.479"><defs><style>.a{fill:#6d5cd2;}</style></defs><path class="a" d="M-20305.623,14092.477a5.4,5.4,0,0,1-3.613-1.336,5.507,5.507,0,0,1-1.764-4.012,5.365,5.365,0,0,1,1.416-3.629,5.37,5.37,0,0,1,3.486-1.729v-.815h-.412a.479.479,0,0,1-.479-.479.48.48,0,0,1,.479-.479h1.773a.483.483,0,0,1,.484.479.483.483,0,0,1-.484.479h-.4v.821a5.357,5.357,0,0,1,3.486,1.726,5.354,5.354,0,0,1,1.412,3.626,5.527,5.527,0,0,1-1.768,4.012A5.41,5.41,0,0,1-20305.623,14092.477Zm-1.662-5.511h0v.424c0,.009.215.263,1.744,2.038h.637c.01,0,.01,0,.01-.015v-.082l-1.463-1.764a1.8,1.8,0,0,1-.2-.26l.01,0a1.639,1.639,0,0,0,.814-.212,1.385,1.385,0,0,0,.484-.4,1.366,1.366,0,0,0,.207-.515h.559s.1-.145.295-.423a.015.015,0,0,0-.016-.01h-.846a1.032,1.032,0,0,0-.225-.475h.791l.018-.025c.018-.023.035-.046.051-.069a3.525,3.525,0,0,0,.227-.339h-2.967a2.745,2.745,0,0,0-.295.424v.01h.775a1.406,1.406,0,0,1,.438.082.85.85,0,0,1,.469.377h-1.387s-.119.156-.295.423a.03.03,0,0,0,0,.01s0,.006.008.006h1.764a.5.5,0,0,1-.035.188c-.148.419-.555.632-1.209.632a2.206,2.206,0,0,1-.367-.021Zm7.25-2.986a.481.481,0,0,1-.4-.22,5.894,5.894,0,0,0-1.254-1.4.473.473,0,0,1-.168-.326.487.487,0,0,1,.107-.353.424.424,0,0,1,.332-.168c.51,0,1.17.894,1.564,1.428l.041.055c.072.1.135.181.184.24a.481.481,0,0,1-.143.663A.45.45,0,0,1-20300.035,14083.979Z" transform="translate(20311 -14079.998)"/></svg>