<svg xmlns="http://www.w3.org/2000/svg" width="10.509" height="12.03" viewBox="0 0 10.509 12.03"><defs><style>.a{fill:#6d5cd2;}</style></defs><path class="a" d="M17.868,2.5H9.654A1.15,1.15,0,0,0,8.5,3.654v9.723A1.15,1.15,0,0,0,9.654,14.53h8.2a1.15,1.15,0,0,0,1.154-1.154V3.654A1.139,1.139,0,0,0,17.868,2.5Zm-6.452,9.368h-.177a.583.583,0,1,1,0-1.166h.177a.583.583,0,1,1,0,1.166Zm0-2.763h-.177a.583.583,0,0,1,0-1.166h.177a.583.583,0,0,1,0,1.166Zm0-2.763h-.177a.582.582,0,0,1-.583-.583.574.574,0,0,1,.583-.583h.177A.582.582,0,0,1,12,5.758.574.574,0,0,1,11.416,6.341Zm4.868,5.527H13.368a.583.583,0,0,1,0-1.166H16.3a.582.582,0,0,1,.583.583A.61.61,0,0,1,16.283,11.868Zm0-2.763H13.368a.583.583,0,0,1,0-1.166H16.3a.582.582,0,0,1,.583.583A.61.61,0,0,1,16.283,9.1Zm0-2.763H13.368a.582.582,0,0,1-.583-.583.574.574,0,0,1,.583-.583H16.3a.582.582,0,0,1,.583.583A.592.592,0,0,1,16.283,6.341Z" transform="translate(-8.5 -2.5)"/></svg>