<svg xmlns="http://www.w3.org/2000/svg" width="12" height="12" viewBox="0 0 12 12"><defs><style>.a{fill:#6d5cd2;}</style></defs><g transform="translate(12281.594 -6267)"><path class="a" d="M6,12a6,6,0,1,1,6-6A6,6,0,0,1,6,12ZM6,.4A5.6,5.6,0,1,0,11.6,6,5.6,5.6,0,0,0,6,.4Z" transform="translate(-12281.594 6267)"/><path class="a" d="M193.2,194.4a1.2,1.2,0,1,1,1.2-1.2A1.2,1.2,0,0,1,193.2,194.4Zm0-2a.8.8,0,1,0,.8.8A.8.8,0,0,0,193.2,192.4Z" transform="translate(-12468.795 6079.799)"/><path class="a" d="M329.2,194.4a1.2,1.2,0,1,1,1.2-1.2A1.2,1.2,0,0,1,329.2,194.4Zm0-2a.8.8,0,1,0,.8.8A.8.8,0,0,0,329.2,192.4Z" transform="translate(-12601.397 6079.799)"/><path class="a" d="M57.2,194.4a1.2,1.2,0,1,1,1.2-1.2A1.2,1.2,0,0,1,57.2,194.4Zm0-2a.8.8,0,1,0,.8.8A.8.8,0,0,0,57.2,192.4Z" transform="translate(-12336.193 6079.799)"/></g></svg>