<svg xmlns="http://www.w3.org/2000/svg" width="12.034" height="12.672" viewBox="0 0 12.034 12.672"><defs><style>.a{fill:#6d5cd2;}</style></defs><g transform="translate(3968.418 9053.094)"><path class="a" d="M173.477,28.272a2.183,2.183,0,1,0-2.183-2.183A2.186,2.186,0,0,0,173.477,28.272Z" transform="translate(-4136.007 -9077)"/><path class="a" d="M67.045,197.681h8.007a1.054,1.054,0,0,0,1.043-1.2c-.591-4.184-3.065-5.208-3.17-5.25l-.152-.06-1.724,3.294-1.724-3.294-.152.06c-.105.042-2.579,1.066-3.17,5.25a1.054,1.054,0,0,0,1.043,1.2Zm.846-2.626a.1.1,0,0,1,.015-.086.043.043,0,0,1,.033-.02h6.219a.044.044,0,0,1,.033.02.1.1,0,0,1,.015.085l-.465,1.723-.145.539H68.5Z" transform="translate(-4033.58 -9239.698)"/><path class="a" d="M233.542,204.38l-.4,1.188a.112.112,0,0,0,.008.088l.4.739a.111.111,0,0,0,.2,0l.4-.735a.111.111,0,0,0,.008-.089l-.4-1.192A.112.112,0,0,0,233.542,204.38Z" transform="translate(-4196.163 -9252.473)"/><rect class="a" width="12.034" height="1.209" transform="translate(-3968.418 -9041.631)"/></g></svg>