<svg xmlns="http://www.w3.org/2000/svg" width="12" height="12" viewBox="0 0 12 12"><defs><style>.a{fill:#6d5cd2;fill-rule:evenodd;}</style></defs><path class="a" d="M7.336,1.31a3.782,3.782,0,0,1,1.048.472l.472-.472a.664.664,0,0,1,.943,0l.891.891a.664.664,0,0,1,0,.943l-.472.472a4.107,4.107,0,0,1,.472,1.1h.629A.661.661,0,0,1,12,5.4V6.655a.694.694,0,0,1-.681.681H10.69a3.782,3.782,0,0,1-.472,1.048l.472.472a.664.664,0,0,1,0,.943L9.8,10.69a.664.664,0,0,1-.943,0l-.472-.472a3.782,3.782,0,0,1-1.048.472v.629A.694.694,0,0,1,6.655,12H5.4a.661.661,0,0,1-.681-.681V10.69a4.107,4.107,0,0,1-1.1-.472l-.472.472a.664.664,0,0,1-.943,0L1.31,9.8a.664.664,0,0,1,0-.943l.472-.472A3.782,3.782,0,0,1,1.31,7.336H.681A.694.694,0,0,1,0,6.655V5.4a.661.661,0,0,1,.681-.681H1.31a4.107,4.107,0,0,1,.472-1.1L1.31,3.144a.664.664,0,0,1,0-.943L2.2,1.31a.664.664,0,0,1,.943,0l.472.472a4.107,4.107,0,0,1,1.1-.472V.681A.661.661,0,0,1,5.4,0H6.655a.694.694,0,0,1,.681.681ZM6.026,3.983A2.036,2.036,0,0,1,8.017,6.026,1.99,1.99,0,0,1,6.026,8.017,2.036,2.036,0,0,1,3.983,6.026,2.081,2.081,0,0,1,6.026,3.983Z"/></svg>