<svg xmlns="http://www.w3.org/2000/svg" width="8.913" height="12.064" viewBox="0 0 8.913 12.064"><defs><style>.a{fill:#6d5cd2;}</style></defs><g transform="translate(-48.08)"><g transform="translate(48.08)"><g transform="translate(0)"><path class="a" d="M52.536,0A4.461,4.461,0,0,0,48.08,4.456a5.142,5.142,0,0,0,.378,1.716,7.187,7.187,0,0,0,.515.963l3.056,4.63a.581.581,0,0,0,1.016,0L56.1,7.136a7.157,7.157,0,0,0,.515-.963,5.14,5.14,0,0,0,.378-1.716A4.461,4.461,0,0,0,52.536,0Zm3.6,5.969a6.585,6.585,0,0,1-.469.878l-3.056,4.63c-.06.091-.079.091-.14,0l-3.056-4.63a6.588,6.588,0,0,1-.469-.878A4.667,4.667,0,0,1,48.6,4.456a3.932,3.932,0,0,1,7.864,0A4.671,4.671,0,0,1,56.132,5.969Z" transform="translate(-48.08)"/><path class="a" d="M114.439,64.008a2.359,2.359,0,1,0,2.359,2.359A2.362,2.362,0,0,0,114.439,64.008Zm0,4.194a1.835,1.835,0,1,1,1.835-1.835A1.837,1.837,0,0,1,114.439,68.2Z" transform="translate(-109.983 -61.911)"/></g></g></g></svg>