<svg xmlns="http://www.w3.org/2000/svg" width="12" height="12" viewBox="0 0 12 12"><defs><style>.a{fill:#6d5cd2;}</style></defs><g transform="translate(4.603 0.798)"><path class="a" d="M186.784,33.025a.2.2,0,0,0-.161-.132l-.724-.1-.334-.683a.2.2,0,0,0-.182-.112.2.2,0,0,0-.179.117l-.315.694-.721.121a.2.2,0,0,0-.107.339l.536.53-.114.764a.2.2,0,0,0,.3.2l.639-.364.649.344a.2.2,0,0,0,.29-.211l-.136-.76.52-.547A.2.2,0,0,0,186.784,33.025Zm-.923.549a.2.2,0,0,0-.052.173l.082.457-.384-.2a.2.2,0,0,0-.192,0l-.378.215.068-.458a.2.2,0,0,0-.057-.171l-.331-.327.441-.074a.2.2,0,0,0,.149-.114l.184-.4.2.4a.2.2,0,0,0,.152.11l.443.06Z" transform="translate(-184.001 -32)"/></g><g transform="translate(0 2.395)"><path class="a" d="M10.675,101.694A1.4,1.4,0,0,0,10,99.218V97.6H9.6v1.617a1.4,1.4,0,0,0-.676,2.476,2.006,2.006,0,0,0-1.026.519,2.015,2.015,0,0,0-1.023-.518,1.4,1.4,0,1,0-1.75,0,2.016,2.016,0,0,0-1.023.518,2.007,2.007,0,0,0-1.026-.519A1.4,1.4,0,0,0,2.4,99.218V96H2v3.218a1.4,1.4,0,0,0-.675,2.477c-.817.184-1.325.637-1.325,1.239V105.4a.2.2,0,0,0,.2.2H11.8a.2.2,0,0,0,.2-.2h0v-2.472C12,102.331,11.492,101.878,10.675,101.694ZM1.2,100.6a1,1,0,1,1,1,1A1,1,0,0,1,1.2,100.6Zm2.6,2.331V105.2H.4v-2.272c0-.639.933-.93,1.8-.93a2.106,2.106,0,0,1,1.672.562A.994.994,0,0,0,3.8,102.933ZM5,100.6a1,1,0,1,1,1,1A1,1,0,0,1,5,100.6Zm2.8,4.6H4.2v-2.272c0-.639.933-.93,1.8-.93s1.8.291,1.8.93Zm1-4.6a1,1,0,1,1,1,1A1,1,0,0,1,8.8,100.6Zm2.8,4.6H8.2v-2.272a.994.994,0,0,0-.072-.368A2.106,2.106,0,0,1,9.8,102c.867,0,1.8.291,1.8.93Z" transform="translate(0 -96)"/></g><g transform="translate(2.008 0)"><path class="a" d="M87.784,0H80.2a.2.2,0,0,0-.2.2h0v1h.4V.4h7.185V2.794h.4V.2A.2.2,0,0,0,87.784,0Z" transform="translate(-80 0)"/></g><g transform="translate(7.82 0.794)"><g transform="translate(0 0)"><rect class="a" width="0.38" height="0.422"/></g></g><g transform="translate(7.82 1.596)"><g transform="translate(0 0)"><rect class="a" width="0.38" height="0.38"/></g></g><g transform="translate(7.82 2.404)"><g transform="translate(0 0)"><rect class="a" width="0.38" height="0.38"/></g></g><g transform="translate(7.82 3.208)"><g transform="translate(0 0)"><rect class="a" width="0.38" height="0.38"/></g></g><g transform="translate(3.8 0.794)"><g transform="translate(0 0)"><rect class="a" width="0.38" height="0.422"/></g></g><g transform="translate(3.8 1.596)"><g transform="translate(0 0)"><rect class="a" width="0.38" height="0.38"/></g></g><g transform="translate(3.8 2.404)"><g transform="translate(0 0)"><rect class="a" width="0.38" height="0.38"/></g></g><g transform="translate(3.8 3.208)"><g transform="translate(0 0)"><rect class="a" width="0.38" height="0.38"/></g></g><g transform="translate(7.82 4.012)"><g transform="translate(0 0)"><rect class="a" width="0.38" height="0.38"/></g></g><g transform="translate(8.582 0.794)"><g transform="translate(0 0)"><rect class="a" width="0.422" height="0.422"/></g></g><g transform="translate(8.582 1.596)"><g transform="translate(0 0)"><rect class="a" width="0.422" height="0.38"/></g></g><g transform="translate(8.582 2.404)"><g transform="translate(0 0)"><rect class="a" width="0.422" height="0.38"/></g></g><g transform="translate(8.582 3.208)"><g transform="translate(0 0)"><rect class="a" width="0.422" height="0.38"/></g></g><g transform="translate(8.582 4.012)"><g transform="translate(0 0)"><rect class="a" width="0.422" height="0.38"/></g></g><g transform="translate(7.016 4.012)"><g transform="translate(0 0)"><rect class="a" width="0.38" height="0.38"/></g></g><g transform="translate(6.212 4.012)"><g transform="translate(0 0)"><rect class="a" width="0.38" height="0.38"/></g></g><g transform="translate(5.408 4.012)"><g transform="translate(0 0)"><rect class="a" width="0.38" height="0.38"/></g></g><g transform="translate(4.604 4.012)"><g transform="translate(0 0)"><rect class="a" width="0.38" height="0.38"/></g></g><g transform="translate(3.8 4.012)"><g transform="translate(0 0)"><rect class="a" width="0.38" height="0.38"/></g></g><g transform="translate(2.996 0.794)"><g transform="translate(0 0)"><rect class="a" width="0.422" height="0.422"/></g></g><g transform="translate(2.996 1.596)"><g transform="translate(0 0)"><rect class="a" width="0.422" height="0.38"/></g></g><g transform="translate(2.996 2.404)"><g transform="translate(0 0)"><rect class="a" width="0.422" height="0.38"/></g></g><g transform="translate(2.996 3.208)"><g transform="translate(0 0)"><rect class="a" width="0.422" height="0.38"/></g></g><g transform="translate(2.996 4.012)"><g transform="translate(0 0)"><rect class="a" width="0.422" height="0.38"/></g></g><g transform="translate(7.82 4.816)"><g transform="translate(0 0)"><rect class="a" width="0.38" height="0.38"/></g></g><g transform="translate(8.582 4.816)"><g transform="translate(0 0)"><rect class="a" width="0.422" height="0.38"/></g></g><g transform="translate(7.016 4.816)"><g transform="translate(0 0)"><rect class="a" width="0.38" height="0.38"/></g></g><g transform="translate(6.212 4.816)"><g transform="translate(0 0)"><rect class="a" width="0.38" height="0.38"/></g></g><g transform="translate(5.408 4.816)"><g transform="translate(0 0)"><rect class="a" width="0.38" height="0.38"/></g></g><g transform="translate(4.604 4.816)"><g transform="translate(0 0)"><rect class="a" width="0.38" height="0.38"/></g></g><g transform="translate(3.8 4.816)"><g transform="translate(0 0)"><rect class="a" width="0.38" height="0.38"/></g></g><g transform="translate(2.996 4.816)"><g transform="translate(0 0)"><rect class="a" width="0.422" height="0.38"/></g></g><g transform="translate(0.399 0.798)"><path class="a" d="M17.8,32.8a.6.6,0,0,1-.6-.6.2.2,0,0,0-.4,0,.6.6,0,0,1-.6.6.2.2,0,0,0,0,.4.6.6,0,0,1,.6.6.2.2,0,1,0,.4,0,.6.6,0,0,1,.6-.6.2.2,0,1,0,0-.4Zm-.8.4a1,1,0,0,0-.2-.2,1,1,0,0,0,.2-.2,1,1,0,0,0,.2.2A1,1,0,0,0,17,33.2Z" transform="translate(-16 -32)"/></g><g transform="translate(9.805 2.401)"><path class="a" d="M393.8,96.8a.6.6,0,0,1-.6-.6.2.2,0,0,0-.4,0,.6.6,0,0,1-.6.6.2.2,0,1,0,0,.4.6.6,0,0,1,.6.6.2.2,0,1,0,.4,0,.6.6,0,0,1,.6-.6.2.2,0,0,0,0-.4Zm-.8.4a1,1,0,0,0-.2-.2.2.2,0,0,1,.4,0A1,1,0,0,0,393,97.2Z" transform="translate(-392 -96)"/></g></svg>