<svg xmlns="http://www.w3.org/2000/svg" width="12.541" height="11.762" viewBox="0 0 12.541 11.762"><defs><style>.a{fill:#6d5cd2;fill-rule:evenodd;}</style></defs><g transform="translate(-22289.27 13993.969)"><g transform="translate(22289.27 -13993.969)"><path class="a" d="M77.148,50.907a.473.473,0,0,1-.5.3c-.469-.012-.938,0-1.407,0a.4.4,0,0,1-.44-.438q0-3.015,0-6.032a.394.394,0,0,1,.44-.437c.469,0,.938.008,1.407,0a.473.473,0,0,1,.5.3Z" transform="translate(-64.607 -39.443)"/><path class="a" d="M22.813,16.413a1.022,1.022,0,0,1-.173.23.386.386,0,0,1-.61-.287c-.043-.369-.084-.737-.151-1.128a.508.508,0,0,1-.029.061,13.279,13.279,0,0,1-5.222,4.649,14.818,14.818,0,0,1-3.7,1.359,9.447,9.447,0,0,1-2.063.23,1.691,1.691,0,0,1-.292-.023.421.421,0,0,1-.3-.29v-.2a.49.49,0,0,1,.535-.283,7.549,7.549,0,0,0,2.025-.227A13.943,13.943,0,0,0,19.923,16.5a10.973,10.973,0,0,0,1.316-1.717c.023-.038.044-.077.076-.133-.046.009-.076.012-.1.02-.408.116-.814.236-1.222.347a.387.387,0,0,1-.509-.436.365.365,0,0,1,.276-.311q1.151-.332,2.3-.656a.383.383,0,0,1,.484.339c.083.717.163,1.434.246,2.152a.661.661,0,0,0,.023.093Q22.813,16.3,22.813,16.413Z" transform="translate(-10.272 -13.595)"/><path class="a" d="M10.27,71.575a.471.471,0,0,1,.5-.3c.472.012.945,0,1.418,0a.4.4,0,0,1,.429.436q0,.886,0,1.773a.4.4,0,0,1-.441.437c-.469,0-.938-.008-1.406,0a.473.473,0,0,1-.5-.3Q10.27,72.6,10.27,71.575Z" transform="translate(-10.27 -62.169)"/><path class="a" d="M55.625,61.194q0,.918,0,1.837c0,.321-.143.465-.461.465H53.719a.4.4,0,0,1-.445-.447q0-1.861,0-3.723a.4.4,0,0,1,.433-.435q.735,0,1.47,0a.4.4,0,0,1,.449.453q0,.925,0,1.849Z" transform="translate(-46.482 -51.738)"/><path class="a" d="M31.789,69.649c0-.379,0-.759,0-1.138a.4.4,0,0,1,.434-.432q.728,0,1.457,0a.408.408,0,0,1,.461.459q0,1.114,0,2.228a.406.406,0,0,1-.462.467H32.222a.391.391,0,0,1-.432-.432C31.789,70.416,31.789,70.032,31.789,69.649Z" transform="translate(-28.391 -59.474)"/></g></g></svg>