<svg xmlns="http://www.w3.org/2000/svg" width="11.428" height="12.436" viewBox="0 0 11.428 12.436"><defs><style>.a{fill:#6d5cd2;}</style></defs><g transform="translate(-56.181 -38.554)"><path class="a" d="M61.04,48.273a4.882,4.882,0,0,0,1.1-.126,3.192,3.192,0,0,0,.523.736L64.6,50.936a.172.172,0,0,0,.25,0l1.928-2.054a3.062,3.062,0,0,0,.657-1.043,2.848,2.848,0,0,0,.172-1.172,3.017,3.017,0,0,0-.871-1.93,2.834,2.834,0,0,0-.885-.6,4.921,4.921,0,0,0,.053-.72,4.859,4.859,0,1,0-4.859,4.859Zm6.22-1.583a2.507,2.507,0,0,1-.152,1.032,2.721,2.721,0,0,1-.585.926l-1.8,1.92-1.8-1.92a2.8,2.8,0,0,1-.514-.754.171.171,0,0,0-.015-.034q-.03-.069-.056-.138a2.506,2.506,0,0,1-.152-1.032,2.674,2.674,0,0,1,.772-1.71,2.5,2.5,0,0,1,3.535,0A2.674,2.674,0,0,1,67.261,46.69ZM61.04,38.9a4.521,4.521,0,0,1,4.516,4.516,4.573,4.573,0,0,1-.04.6,2.852,2.852,0,0,0-.8-.113,2.819,2.819,0,0,0-2.011.835,3.017,3.017,0,0,0-.871,1.93,2.845,2.845,0,0,0,.167,1.159A4.516,4.516,0,1,1,61.04,38.9Z" transform="translate(0)"/><path class="a" d="M220.013,125.8h1.751a.172.172,0,1,0,0-.343h-1.579v-2.164a.172.172,0,0,0-.343,0v2.335A.172.172,0,0,0,220.013,125.8Z" transform="translate(-158.98 -82.147)"/><path class="a" d="M308.459,275.435a1.326,1.326,0,1,0,1.326-1.357A1.343,1.343,0,0,0,308.459,275.435Zm2.308,0a.983.983,0,1,1-.983-1.014A1,1,0,0,1,310.767,275.435Z" transform="translate(-245.064 -228.789)"/></g></svg>