<svg xmlns="http://www.w3.org/2000/svg" width="37.694" height="40.178" viewBox="0 0 37.694 40.178"><defs><style>.a{fill:#b1f1fe;}.b{fill:#2e53bf;}</style></defs><g transform="translate(-1123.153 -926.728)"><circle class="a" cx="4" cy="4" r="4" transform="translate(1134 942)"/><g transform="translate(1107.336 926.728)"><g transform="translate(15.817 0)"><path class="b" d="M196.652,41.359a.785.785,0,0,0,0-1.571h0A.785.785,0,0,0,196.652,41.359Z" transform="translate(-181.731 -36.663)"/><path class="b" d="M105.786,142.535h0a1.571,1.571,0,1,0-.755,2.574l.2.2a4.688,4.688,0,0,0-.807,1.943h-.668a1.57,1.57,0,0,0-1.36-.785h0a1.571,1.571,0,1,0,1.361,2.356h.668a4.688,4.688,0,0,0,.807,1.943l-.2.2a1.57,1.57,0,0,0-1.517.407h0a1.571,1.571,0,1,0,2.628.7l.2-.2a4.687,4.687,0,0,0,1.943.807v.668a1.57,1.57,0,0,0-.785,1.36h0a1.571,1.571,0,1,0,2.356-1.361v-.668a4.688,4.688,0,0,0,1.943-.807l.2.2a1.57,1.57,0,0,0,.407,1.517h0a1.571,1.571,0,1,0,.7-2.628l-.2-.2a4.688,4.688,0,0,0,.807-1.943h.668a1.57,1.57,0,0,0,1.36.785h0a1.571,1.571,0,1,0-1.361-2.356h-.668a4.688,4.688,0,0,0-.807-1.943l.2-.2a1.569,1.569,0,0,0,1.569-.461h0a1.571,1.571,0,1,0-2.68-.65l-.2.2a4.687,4.687,0,0,0-1.943-.807v-.668a1.57,1.57,0,0,0,.785-1.36h0a1.571,1.571,0,1,0-2.356,1.361v.668a4.688,4.688,0,0,0-1.943.807l-.2-.2a1.57,1.57,0,0,0-.355-1.463Zm3.28,2.357a3.141,3.141,0,1,1-3.141,3.141A3.145,3.145,0,0,1,109.065,144.892Z" transform="translate(-94.145 -128.811)"/><path class="b" d="M45.658,22.949V6.265A2.359,2.359,0,0,0,43.3,3.91H40.735a1.572,1.572,0,0,0-1.36-.785H34.585a3.931,3.931,0,0,0-7.7,0H22.1a1.572,1.572,0,0,0-1.36.785H18.173a2.359,2.359,0,0,0-2.356,2.356V34.693a2.359,2.359,0,0,0,2.356,2.356H38.214a8.637,8.637,0,1,0,7.444-14.1ZM44.087,6.265V22.949a8.591,8.591,0,0,0-1.571.291V7.836a.785.785,0,0,0-.785-.785h-.785V5.48H43.3a.786.786,0,0,1,.785.785ZM27.2,7.836H22.1V4.695h5.5a.785.785,0,0,0,.785-.785,2.356,2.356,0,0,1,4.712,0,.785.785,0,0,0,.785.785h5.5V7.836h-5.1a.785.785,0,0,0,0,1.571h5.1a1.571,1.571,0,0,0,1.36-.785h.211V23.859A8.679,8.679,0,0,0,36.561,29.2h-12.5a.785.785,0,0,0,0,1.571H36.27a8.737,8.737,0,0,0,0,1.571H20.529V8.621h.211a1.571,1.571,0,0,0,1.36.785h5.1a.785.785,0,0,0,0-1.571ZM18.173,35.478a.786.786,0,0,1-.785-.785V6.265a.786.786,0,0,1,.785-.785h2.356V7.051h-.785a.785.785,0,0,0-.785.785V33.122a.785.785,0,0,0,.785.785H36.561a8.585,8.585,0,0,0,.618,1.571Zm26.7,3.141a7.076,7.076,0,0,1-7.068-7.068c.388-9.376,13.748-9.373,14.135,0A7.076,7.076,0,0,1,44.873,38.619Z" transform="translate(-15.817 0)"/><path class="b" d="M337.363,346.659a2.356,2.356,0,0,0-4.021-1.666l-.494.494-.494-.494a2.356,2.356,0,1,0-3.332,3.332l.494.494-.494.494a2.356,2.356,0,0,0,3.331,3.332l.494-.494.494.494a2.356,2.356,0,0,0,3.332-3.332l-.494-.494.494-.494A2.34,2.34,0,0,0,337.363,346.659Zm-2.85,2.715,1.049,1.049a.785.785,0,0,1-1.11,1.11l-1.049-1.049a.785.785,0,0,0-1.111,0l-1.049,1.049a.785.785,0,0,1-1.11-1.11l1.049-1.049a.785.785,0,0,0,0-1.111l-1.049-1.049a.785.785,0,0,1,1.11-1.11l1.049,1.049a.79.79,0,0,0,1.111,0l1.049-1.049a.785.785,0,0,1,1.11,1.11l-1.049,1.049A.785.785,0,0,0,334.514,349.374Z" transform="translate(-303.792 -317.267)"/><path class="b" d="M196.648,101.358a.785.785,0,0,0,0-1.571h0A.785.785,0,0,0,196.648,101.358Z" transform="translate(-181.728 -91.951)"/></g></g></g></svg>