<svg xmlns="http://www.w3.org/2000/svg" width="23.927" height="23.927" viewBox="0 0 23.927 23.927"><defs><style>.a{fill:#b1f1fe;}.b{fill:#2e53bf;}</style></defs><g transform="translate(4.523 12.627)"><path class="a" d="M108.1,373.017a4.382,4.382,0,0,0-2.167-1.464l-.054-.017h-.113a4,4,0,0,1-4.036,2.2l-.538-.059-.538.06a4,4,0,0,1-4.036-2.2h-.056l-.111.017a4.376,4.376,0,0,0-2.167,1.464l-.532.664.531.664a4.4,4.4,0,0,0,6.872,0l.037-.046.037.046a4.4,4.4,0,0,0,6.872,0l.532-.664Z" transform="translate(-93.752 -366.24)"/><path class="a" d="M202.315,269.687l-.664-.532a4.4,4.4,0,0,1,0-6.872l.664-.531.664.532a4.4,4.4,0,0,1,0,6.872Z" transform="translate(-194.875 -261.752)"/></g><path class="b" d="M21.225,8.49H18.684L13.849,3.655a2.315,2.315,0,1,0-3.77,0L5.243,8.49H2.7a2.7,2.7,0,0,0-2.7,2.7V21.225a2.7,2.7,0,0,0,2.7,2.7H21.225a2.7,2.7,0,0,0,2.7-2.7V11.192A2.7,2.7,0,0,0,21.225,8.49ZM11.963.772A1.544,1.544,0,1,1,10.42,2.315,1.545,1.545,0,0,1,11.963.772ZM23.155,21.225a1.932,1.932,0,0,1-1.93,1.93H2.7a1.932,1.932,0,0,1-1.93-1.93V11.192A1.932,1.932,0,0,1,2.7,9.262H7.718V8.49H6.334L10.624,4.2a2.3,2.3,0,0,0,2.679,0L17.592,8.49H16.208v.772h5.017a1.932,1.932,0,0,1,1.93,1.93Z"/><path class="b" d="M32.772,219.192V209.158a.386.386,0,0,1,.386-.386h5.017V208H33.158A1.159,1.159,0,0,0,32,209.158v10.034a1.159,1.159,0,0,0,1.158,1.158h1.93v-.772h-1.93A.386.386,0,0,1,32.772,219.192Z" transform="translate(-30.456 -197.966)"/><path class="b" d="M341.017,208H336v.772h5.017a.386.386,0,0,1,.386.386v10.034a.386.386,0,0,1-.386.386h-1.93v.772h1.93a1.159,1.159,0,0,0,1.158-1.158V209.158A1.159,1.159,0,0,0,341.017,208Z" transform="translate(-319.792 -197.966)"/><path class="b" d="M225.158,26.315A1.158,1.158,0,1,0,224,25.158,1.159,1.159,0,0,0,225.158,26.315Zm0-1.544a.386.386,0,1,1-.386.386A.386.386,0,0,1,225.158,24.772Z" transform="translate(-213.194 -22.842)"/><path class="b" d="M290.88,179.087h.772c0-.1.029-.132.139-.248a1.04,1.04,0,0,0,0-1.564c-.11-.115-.139-.149-.139-.248s.023-.125.139-.247a1.051,1.051,0,0,0,.354-.781h-.772c0,.093-.023.125-.139.247a1.039,1.039,0,0,0,0,1.563c.11.115.139.149.139.248s-.029.132-.139.248A1.053,1.053,0,0,0,290.88,179.087Z" transform="translate(-276.848 -167.51)"/><path class="b" d="M147.164,305.391l-.094-.845-.845-.094a4.39,4.39,0,0,0-2.36.392,4.384,4.384,0,0,1,.194.768,3.592,3.592,0,0,1,2.081-.393l.232.026.025.232a3.622,3.622,0,0,1-3.342,4.017l2.3-2.3-.546-.546-2.616,2.615v-3.7h-.772v3.7l-2.616-2.616-.546.546,2.3,2.3a3.622,3.622,0,0,1-3.341-4.016l.025-.232.232-.025a3.61,3.61,0,0,1,2.081.393,4.384,4.384,0,0,1,.194-.768,4.389,4.389,0,0,0-2.36-.392l-.845.094-.094.845a4.391,4.391,0,0,0,2.4,4.416h-1.675v.772h9.262v-.772h-1.674a4.392,4.392,0,0,0,2.4-4.415Z" transform="translate(-129.845 -289.739)"/><path class="b" d="M234.88,179.087h.772c0-.1.029-.132.139-.248a1.04,1.04,0,0,0,0-1.564c-.11-.115-.139-.149-.139-.248s.023-.125.139-.247a1.051,1.051,0,0,0,.354-.781h-.772c0,.093-.023.125-.139.247a1.039,1.039,0,0,0,0,1.563c.11.115.139.149.139.248s-.029.132-.139.248A1.053,1.053,0,0,0,234.88,179.087Z" transform="translate(-223.55 -167.51)"/><path class="b" d="M178.88,179.087h.772c0-.1.029-.132.139-.248a1.04,1.04,0,0,0,0-1.564c-.11-.115-.139-.149-.139-.248s.023-.125.139-.247a1.052,1.052,0,0,0,.354-.781h-.772c0,.093-.023.125-.139.247a1.039,1.039,0,0,0,0,1.563c.11.115.139.149.139.248s-.029.132-.139.248A1.053,1.053,0,0,0,178.88,179.087Z" transform="translate(-170.251 -167.51)"/></svg>