<svg xmlns="http://www.w3.org/2000/svg" width="23.475" height="23.065" viewBox="0 0 23.475 23.065"><defs><style>.a{fill:#b1f1fe;}.b{fill:#2e53bf;}</style></defs><g transform="translate(10792.406 3325.482)"><path class="a" d="M-10769.6-3302.647a13.561,13.561,0,0,1-6.322.339c-1.217-.34-.932-.521-.643-1.189s1.232-1.662.193-5.047c-.324-.8-.973-3.949.311-4.412a3.673,3.673,0,0,1,1.307,0,1.437,1.437,0,0,0,1.467,1.142c1-.062,1.453-.426,1.469-1.065,1.693.026,2.322-.214,2.219,1.524a10.373,10.373,0,0,1-.637,3.607,4.509,4.509,0,0,0-.113,3.622A6.663,6.663,0,0,0-10769.6-3302.647Z" transform="translate(-7.419 -5.939)"/><g transform="translate(-10792.406 -3325.482)"><path class="b" d="M23.456,23.154l-.423-1.618a.883.883,0,0,0-.75-.656l-1.509-.186a.16.16,0,0,1-.1-.05l-2.3-2.491a.249.249,0,0,1-.063-.131l-.473-3.066a.341.341,0,1,0-.675.1l.473,3.066a.929.929,0,0,0,.236.49l2.3,2.491a.843.843,0,0,0,.516.265l1.509.186a.2.2,0,0,1,.173.151l.365,1.4-2.184-.912a2.546,2.546,0,0,1-.452-.245l-3.27-2.229a.479.479,0,0,1-.189-.26l-1.2-4.108a2.931,2.931,0,0,0,.167-.975s0-2.479,0-2.5a1.938,1.938,0,0,1,.36.205l.188.136a1.951,1.951,0,0,1,.777,1.274.341.341,0,0,0,.675-.1,2.638,2.638,0,0,0-1.051-1.722l-.188-.136a2.629,2.629,0,0,0-1.132-.467,1.216,1.216,0,0,0-.847-.343h-.926V10s0,0,0,0a2.386,2.386,0,0,0,.395-.6,1.383,1.383,0,0,0,.778-.7,1.469,1.469,0,0,0,.169-.846.882.882,0,0,0-.447-.7.781.781,0,0,0-.283-.085V6.094a1.627,1.627,0,0,0-1.626-1.626h-1.4A1.627,1.627,0,0,0,9.423,6.094v.977a.782.782,0,0,0-.3.087.882.882,0,0,0-.447.7,1.468,1.468,0,0,0,.169.846,1.387,1.387,0,0,0,.8.7,2.388,2.388,0,0,0,.374.573v.743H9.091a1.216,1.216,0,0,0-.847.343,2.629,2.629,0,0,0-1.132.467l-.188.136a2.638,2.638,0,0,0-1.051,1.722l-.715,4.635a.25.25,0,0,1-.063.131L2.8,20.643a.159.159,0,0,1-.1.05l-1.509.186a.883.883,0,0,0-.75.656L.019,23.154a.565.565,0,0,0,.127.523,2.017,2.017,0,0,0,1.888,2.732H4.375a.932.932,0,0,0-.06.6.68.68,0,0,0,.943.456l1.308-.61a2.706,2.706,0,0,1,.921-.245l2.433-.205H21.442a2.016,2.016,0,0,0,1.887-2.731A.565.565,0,0,0,23.456,23.154Zm-7.009-2.872,1.107.755a14.187,14.187,0,0,0-1.939-.134H15.6l-.126-.209a4.885,4.885,0,0,1-.706-2.529V17.43A3.072,3.072,0,0,1,15,16.272l.991,3.378a1.163,1.163,0,0,0,.46.632ZM10.7,10.635a1.631,1.631,0,0,0,2.076.015v.586a.5.5,0,0,1-.5.5H11.2a.5.5,0,0,1-.5-.5Zm.349-5.484h1.4a.944.944,0,0,1,.943.943v.014H10.106V6.094a.944.944,0,0,1,.943-.943Zm-1.6,3.233a.794.794,0,0,1-.1-.446c.009-.181.142-.223.263-.151a.341.341,0,0,0,.49-.307V6.791h3.282V7.47a.341.341,0,0,0,.482.311c.117-.066.244-.019.253.156a.794.794,0,0,1-.1.446.649.649,0,0,1-.44.375.341.341,0,0,0-.3.224,1.694,1.694,0,0,1-.419.643l-.461.441a.952.952,0,0,1-1.319,0l-.461-.441a1.694,1.694,0,0,1-.419-.643A.341.341,0,0,0,9.9,8.758a.633.633,0,0,1-.446-.375ZM9.091,11.4h.938A1.181,1.181,0,0,0,11.2,12.415h1.083A1.181,1.181,0,0,0,13.446,11.4h.938a.538.538,0,0,1,.538.538v2.437a2.248,2.248,0,0,1-.313,1.144,3.756,3.756,0,0,0-.523,1.911v.736a5.568,5.568,0,0,0,.8,2.883l.127.209-.448.064a19.954,19.954,0,0,1-5.663,0l-.448-.064.127-.209a5.567,5.567,0,0,0,.8-2.883V17.43a3.756,3.756,0,0,0-.523-1.911,2.249,2.249,0,0,1-.313-1.144V11.938A.538.538,0,0,1,9.091,11.4ZM8,20.695l-.126.209H7.86a14.19,14.19,0,0,0-1.94.135l1.108-.756a1.163,1.163,0,0,0,.46-.632l.991-3.378a3.072,3.072,0,0,1,.227,1.158v.736A4.884,4.884,0,0,1,8,20.695ZM1.1,21.708a.2.2,0,0,1,.173-.151l1.509-.186a.843.843,0,0,0,.516-.265l2.3-2.491a.93.93,0,0,0,.236-.49l.715-4.635a1.951,1.951,0,0,1,.777-1.274l.188-.136a1.937,1.937,0,0,1,.36-.205c0,.021,0,2.5,0,2.5a2.931,2.931,0,0,0,.167.975l-1.2,4.107a.479.479,0,0,1-.189.26l-3.27,2.229a2.542,2.542,0,0,1-.452.245L.738,23.1ZM.7,24.39A1.334,1.334,0,0,1,.834,23.8l2.088-.872,1.153-.062a10.231,10.231,0,0,1,2.815.239c.057.01.37.092.422.087a.341.341,0,0,0,.075-.674l-.346-.078a10.914,10.914,0,0,0-2.8-.264l.241-.164a13.51,13.51,0,0,1,3.258-.427l0,.007a.554.554,0,0,0,.424.312L8.809,22a20.64,20.64,0,0,0,5.857,0l.638-.091a.555.555,0,0,0,.424-.312l0-.007a13.514,13.514,0,0,1,3.258.427l.241.164a10.916,10.916,0,0,0-2.8.264l-4.7,1.065-1.581-.358a1.257,1.257,0,0,0-1.535.24l-.6.651a.577.577,0,0,1-.227.15l-1.459.523a2.234,2.234,0,0,0-.8.493l-.543.52H2.033A1.337,1.337,0,0,1,.7,24.39Zm6.731,1.543a3.387,3.387,0,0,0-1.153.306l-1.3.606a.249.249,0,0,1,.071-.228l.96-.92a1.556,1.556,0,0,1,.555-.343l1.459-.523a1.262,1.262,0,0,0,.5-.328l.6-.651a.579.579,0,0,1,.754-.078l.541.338a2.226,2.226,0,0,0,.513.236l.023.007v1.281Zm14.013-.207H11.636v-1.5l4.948-1.122a10.229,10.229,0,0,1,2.815-.239s1.133.06,1.146.059l2.1.875a1.335,1.335,0,0,1-1.2,1.923Z" transform="translate(0 -4.468)"/></g></g></svg>