<svg xmlns="http://www.w3.org/2000/svg" width="8.823" height="12.079" viewBox="0 0 8.823 12.079"><defs><style>.a{fill:#707070;stroke:#707070;stroke-width:0.2px;}</style></defs><g transform="translate(-4.132 -0.958)"><g transform="translate(4.232 1.058)"><path class="a" d="M8.544,272.658a4.316,4.316,0,0,0-4.312,4.312A9.434,9.434,0,0,0,6.3,281.976a21.654,21.654,0,0,0,2.05,2.46.269.269,0,0,0,.381,0,21.649,21.649,0,0,0,2.05-2.46,9.432,9.432,0,0,0,2.071-5.007A4.316,4.316,0,0,0,8.544,272.658Zm0,.539a3.768,3.768,0,0,1,3.772,3.772,9.151,9.151,0,0,1-1.97,4.693,17.333,17.333,0,0,1-1.8,2.163,17.374,17.374,0,0,1-1.8-2.163,9.153,9.153,0,0,1-1.971-4.693A3.768,3.768,0,0,1,8.544,273.2Z" transform="translate(-4.232 -272.658)"/><path class="a" d="M10.882,277.42a1.887,1.887,0,1,0,1.887,1.887A1.89,1.89,0,0,0,10.882,277.42Zm0,.539a1.348,1.348,0,1,1-1.347,1.348A1.344,1.344,0,0,1,10.882,277.959Z" transform="translate(-6.57 -274.995)"/></g></g></svg>