<svg xmlns="http://www.w3.org/2000/svg" width="8.467" height="10.766" viewBox="0 0 8.467 10.766"><defs><style>.a{fill:silver;stroke:silver;stroke-width:0.5px;}</style></defs><g transform="translate(-570.812 -1336.75)"><g transform="translate(572.52 1337)"><path class="a" d="M16.428,19.66a2.726,2.726,0,0,1-2.6-2.828A2.726,2.726,0,0,1,16.428,14a2.726,2.726,0,0,1,2.6,2.828A2.726,2.726,0,0,1,16.428,19.66Zm0-5.282a2.352,2.352,0,0,0-2.23,2.454,2.352,2.352,0,0,0,2.23,2.454,2.352,2.352,0,0,0,2.23-2.454A2.353,2.353,0,0,0,16.428,14.378Z" transform="translate(-13.824 -14.004)"/></g><g transform="translate(571.068 1342.691)"><path class="a" d="M14.022,48.981H6.07v-.9a3.751,3.751,0,0,1,.941-2.573,3.993,3.993,0,0,1,3.035-1.106,3.993,3.993,0,0,1,3.035,1.106,3.754,3.754,0,0,1,.941,2.584Zm-7.578-.374h7.2v-.521a3.438,3.438,0,0,0-.842-2.319,3.64,3.64,0,0,0-2.76-.986,3.64,3.64,0,0,0-2.76.986,3.435,3.435,0,0,0-.842,2.309Z" transform="translate(-6.068 -44.406)"/></g><g transform="translate(577.91 1344.715)"><path class="a" d="M43.025,56.157a.094.094,0,0,1-.09-.068,3.338,3.338,0,0,0-.307-.731.094.094,0,1,1,.162-.093,3.507,3.507,0,0,1,.324.772.094.094,0,0,1-.064.116A.1.1,0,0,1,43.025,56.157Z" transform="translate(-42.616 -55.218)"/></g></g></svg>